<svg width="312" height="136" viewBox="0 0 312 136" fill="none" xmlns="http://www.w3.org/2000/svg">
<path d="M18.4435 118.363C18.4435 119.43 18.297 120.612 18.0041 121.915H8.61563V128.386H20.8272C21.1201 129.659 21.2665 130.817 21.2665 131.846C21.2665 132.974 21.1201 134.171 20.8272 135.451H0V102.678H20.5343C20.6645 103.349 20.7621 103.974 20.8272 104.545C20.8923 105.124 20.9248 105.673 20.9248 106.184C20.9248 107.19 20.7947 108.387 20.5343 109.789H8.61563V114.804H18.0041C18.297 116.145 18.4435 117.334 18.4435 118.363Z" fill="url(#paint0_linear)"/>
<path d="M24.6178 102.779C25.4639 102.626 26.2775 102.527 27.0748 102.482C27.8721 102.436 28.6856 102.413 29.5317 102.413C30.085 102.413 30.8009 102.451 31.6714 102.527C32.5501 102.603 33.2497 102.687 33.7623 102.779L38.3833 118.594L43.102 102.779C43.6226 102.657 44.3223 102.565 45.1928 102.504C46.0715 102.443 46.7874 102.413 47.3325 102.413C48.1786 102.413 48.9922 102.436 49.765 102.482C50.5461 102.527 51.3515 102.626 52.1976 102.779L46.5108 118.411L53.5156 135.323C51.8559 135.598 50.2206 135.735 48.6016 135.735C48.0484 135.735 47.3325 135.697 46.462 135.621C45.5833 135.544 44.8837 135.445 44.3711 135.323L38.3914 119.051L32.4524 135.323C31.9317 135.445 31.2402 135.544 30.3616 135.621C29.4829 135.697 28.767 135.735 28.2219 135.735C26.6029 135.735 24.9595 135.598 23.308 135.323L30.3616 118.411L24.6178 102.779Z" fill="url(#paint1_linear)"/>
<path d="M57.0227 102.779C57.7711 102.688 58.9101 102.558 60.4559 102.391C61.9935 102.223 63.9379 102.139 66.2729 102.139C67.9895 102.139 69.7224 102.291 71.4797 102.596C73.2288 102.901 74.8153 103.473 76.2227 104.304C77.6302 105.142 78.7773 106.316 79.656 107.84C80.5265 109.357 80.9658 111.331 80.9658 113.762C80.9658 115.919 80.616 117.71 79.9163 119.143C79.2167 120.568 78.2973 121.711 77.1421 122.565C75.9868 123.419 74.677 124.021 73.2044 124.387C71.7237 124.753 70.2105 124.935 68.6566 124.935C68.0383 124.935 67.42 124.913 66.7854 124.867C66.1508 124.821 65.7034 124.768 65.443 124.707V135.324C64.5969 135.476 63.8403 135.583 63.1569 135.644C62.4735 135.705 61.8471 135.735 61.2532 135.735C60.1223 135.735 58.7067 135.598 57.0227 135.324V102.779ZM65.443 118.183C65.6057 118.244 65.8824 118.289 66.2729 118.32C66.6634 118.35 67.0702 118.366 67.4932 118.366C68.8844 118.366 70.0234 117.984 70.8939 117.23C71.7725 116.468 72.2119 115.317 72.2119 113.762C72.2119 112.847 72.0736 112.085 71.797 111.46C71.5203 110.835 71.138 110.34 70.658 109.959C70.1698 109.578 69.6003 109.311 68.9495 109.159C68.2986 109.006 67.6234 108.93 66.9074 108.93C66.7122 108.93 66.4844 108.93 66.2241 108.93C65.9637 108.93 65.7034 108.945 65.443 108.976V118.183Z" fill="url(#paint2_linear)"/>
<path d="M103.932 118.363C103.932 119.43 103.786 120.612 103.493 121.915H94.1045V128.386H106.316C106.609 129.659 106.755 130.817 106.755 131.846C106.755 132.974 106.609 134.171 106.316 135.451H85.4889V102.678H106.023C106.153 103.349 106.251 103.974 106.316 104.545C106.381 105.117 106.414 105.673 106.414 106.184C106.414 107.19 106.284 108.387 106.023 109.789H94.1045V114.804H103.493C103.786 116.145 103.932 117.334 103.932 118.363Z" fill="url(#paint3_linear)"/>
<path d="M111.133 102.779C112.727 102.627 114.192 102.482 115.534 102.345C116.885 102.208 118.3 102.139 119.789 102.139C121.571 102.139 123.361 102.299 125.142 102.619C126.924 102.939 128.519 103.496 129.91 104.281C131.309 105.073 132.44 106.148 133.319 107.512C134.189 108.877 134.629 110.614 134.629 112.71C134.629 113.838 134.49 114.844 134.214 115.744C133.937 116.635 133.579 117.436 133.14 118.137C132.7 118.838 132.22 119.44 131.683 119.958C131.146 120.477 130.618 120.911 130.097 121.277L137.688 135.316C136.907 135.438 136.06 135.53 135.133 135.591C134.214 135.652 133.376 135.682 132.627 135.682C131.976 135.682 131.228 135.652 130.365 135.591C129.503 135.53 128.755 135.438 128.104 135.316L121.205 120.416L121.636 120.187C122.026 120.004 122.458 119.699 122.929 119.273C123.401 118.846 123.841 118.335 124.247 117.748C124.654 117.154 124.988 116.498 125.264 115.767C125.541 115.035 125.679 114.28 125.679 113.488C125.679 111.971 125.224 110.858 124.321 110.165C123.418 109.471 122.287 109.113 120.961 109.113C120.635 109.113 120.359 109.128 120.131 109.159C119.903 109.189 119.757 109.22 119.691 109.25V135.324C117.975 135.598 116.559 135.735 115.461 135.735C114.257 135.735 112.817 135.598 111.133 135.324V102.779Z" fill="url(#paint4_linear)"/>
<path d="M145.432 135.735C144.228 135.735 142.788 135.598 141.104 135.323V102.779C141.983 102.657 142.772 102.565 143.488 102.504C144.204 102.443 144.838 102.413 145.383 102.413C145.969 102.413 146.62 102.443 147.352 102.504C148.084 102.565 148.866 102.657 149.712 102.779V135.323C147.995 135.598 146.563 135.735 145.432 135.735Z" fill="url(#paint5_linear)"/>
<path d="M173.997 118.363C173.997 119.43 173.851 120.612 173.558 121.915H164.169V128.386H176.381C176.674 129.659 176.82 130.817 176.82 131.846C176.82 132.974 176.674 134.171 176.381 135.451H155.554V102.678H176.088C176.218 103.349 176.316 103.974 176.381 104.545C176.446 105.124 176.478 105.673 176.478 106.184C176.478 107.19 176.348 108.387 176.088 109.789H164.169V114.804H173.558C173.851 116.145 173.997 117.334 173.997 118.363Z" fill="url(#paint6_linear)"/>
<path d="M181.197 102.779C181.913 102.657 182.556 102.565 183.141 102.504C183.727 102.443 184.297 102.413 184.842 102.413C185.427 102.413 186.038 102.451 186.672 102.527C187.299 102.603 187.844 102.687 188.299 102.779L199.583 120.644V102.779C200.43 102.657 201.186 102.565 201.87 102.504C202.545 102.443 203.163 102.413 203.716 102.413C204.27 102.413 204.855 102.443 205.465 102.504C206.084 102.565 206.735 102.657 207.41 102.779L207.361 135.323C207.036 135.415 206.564 135.506 205.954 135.598C205.335 135.689 204.668 135.735 203.96 135.735C203.147 135.735 202.423 135.682 201.772 135.575C201.121 135.468 200.657 135.384 200.356 135.323L189.023 117.55V135.323C187.6 135.598 186.298 135.735 185.135 135.735C183.971 135.735 182.653 135.598 181.197 135.323V102.779Z" fill="url(#paint7_linear)"/>
<path d="M221.427 119.143C221.427 125.583 224.315 128.807 230.091 128.807C231.133 128.807 232.109 128.716 233.036 128.533C233.956 128.35 235.086 128.045 236.421 127.618C237.486 129.806 238.202 132.054 238.56 134.363C237.617 134.699 236.746 134.973 235.933 135.187C235.127 135.4 234.346 135.56 233.598 135.667C232.857 135.773 232.117 135.85 231.385 135.895C230.653 135.941 229.904 135.964 229.123 135.964C226.365 135.964 223.941 135.545 221.85 134.706C219.759 133.868 218.002 132.71 216.594 131.216C215.179 129.729 214.121 127.954 213.405 125.881C212.689 123.815 212.339 121.567 212.339 119.135C212.339 116.704 212.705 114.448 213.454 112.367C214.202 110.287 215.276 108.488 216.692 106.964C218.107 105.447 219.848 104.258 221.923 103.412C223.998 102.558 226.349 102.139 228.977 102.139C230.531 102.139 232.011 102.246 233.402 102.459C234.802 102.673 236.356 103.099 238.072 103.74C238.007 104.982 237.763 106.194 237.34 107.36C236.917 108.534 236.478 109.555 236.03 110.439C235.379 110.226 234.794 110.043 234.248 109.89C233.712 109.738 233.199 109.616 232.719 109.524C232.231 109.433 231.743 109.364 231.255 109.319C230.766 109.273 230.254 109.25 229.701 109.25C227.073 109.25 225.039 110.081 223.599 111.735C222.151 113.389 221.427 115.858 221.427 119.143Z" fill="url(#paint8_linear)"/>
<path d="M261.332 118.363C261.332 119.43 261.186 120.612 260.893 121.915H251.505V128.386H263.716C264.009 129.659 264.155 130.817 264.155 131.846C264.155 132.974 264.009 134.171 263.716 135.451H242.889V102.678H263.423C263.553 103.349 263.651 103.974 263.716 104.545C263.781 105.124 263.814 105.673 263.814 106.184C263.814 107.19 263.684 108.387 263.423 109.789H251.505V114.804H260.893C261.186 116.145 261.332 117.334 261.332 118.363Z" fill="url(#paint9_linear)"/>
<path d="M282.152 115.444C283.511 115.963 284.739 116.488 285.821 117.014C286.912 117.548 287.839 118.188 288.62 118.927C289.401 119.674 289.995 120.566 290.418 121.618C290.841 122.662 291.053 123.935 291.053 125.421C291.053 127.037 290.752 128.485 290.15 129.773C289.547 131.069 288.669 132.174 287.497 133.104C286.326 134.026 284.894 134.742 283.194 135.245C281.485 135.748 279.533 136 277.328 136C275.318 136 273.545 135.848 271.999 135.543C270.461 135.238 268.793 134.765 267.012 134.133C267.142 133.066 267.37 131.938 267.687 130.733C268.012 129.537 268.403 128.31 268.859 127.067C271.844 128.287 274.44 128.889 276.644 128.889C278.296 128.889 279.589 128.653 280.509 128.18C281.436 127.708 281.9 126.9 281.9 125.741C281.9 125.253 281.802 124.834 281.607 124.484C281.412 124.133 281.151 123.836 280.826 123.592C280.501 123.348 280.143 123.142 279.728 122.975C279.321 122.807 278.914 122.647 278.491 122.494L275.766 121.534C274.594 121.138 273.537 120.673 272.577 120.124C271.617 119.575 270.795 118.935 270.12 118.188C269.436 117.441 268.907 116.588 268.533 115.612C268.167 114.636 267.98 113.501 267.98 112.19C267.98 110.582 268.273 109.149 268.85 107.906C269.436 106.664 270.258 105.605 271.307 104.736C272.357 103.875 273.634 103.219 275.123 102.777C276.612 102.335 278.288 102.114 280.135 102.114C281.786 102.114 283.389 102.266 284.926 102.571C286.464 102.876 288.116 103.318 289.865 103.897C289.735 104.873 289.499 105.94 289.157 107.114C288.815 108.28 288.384 109.385 287.863 110.422C287.017 110.086 286.033 109.736 284.894 109.37C283.763 109.004 282.347 108.821 280.663 108.821C280.143 108.821 279.646 108.867 279.183 108.958C278.719 109.05 278.288 109.195 277.922 109.393C277.547 109.591 277.246 109.865 277.019 110.216C276.791 110.566 276.677 111.001 276.677 111.512C276.677 112.396 276.986 113.043 277.604 113.47C278.223 113.897 278.947 114.263 279.793 114.568L282.152 115.444Z" fill="url(#paint10_linear)"/>
<path d="M18.4435 79.1119C18.4435 80.1789 18.297 81.3603 18.0041 82.6636H8.61563V89.1344H20.8272C21.1201 90.4072 21.2665 91.5657 21.2665 92.5946C21.2665 93.7226 21.1201 94.9193 20.8272 96.1997H0V63.4265H20.5343C20.6645 64.0972 20.7621 64.7222 20.8272 65.2938C20.8923 65.8731 20.9248 66.4218 20.9248 66.9325C20.9248 67.9385 20.7947 69.1351 20.5343 70.5375H8.61563V75.5526H18.0041C18.297 76.894 18.4435 78.0754 18.4435 79.1119Z" fill="#00D6A8"/>
<path d="M35.3247 62.8778C41.4508 62.8778 46.1044 64.3107 49.2854 67.1841C52.4665 70.0574 54.0529 74.3332 54.0529 80.0113C54.0529 85.7886 52.4339 90.0186 49.1878 92.7091C45.9417 95.3995 41.1417 96.7409 34.7878 96.7409C33.1688 96.7409 31.5986 96.6723 30.0935 96.5352C28.5884 96.398 27.0996 96.2379 25.6433 96.055V63.5104C26.1314 63.4494 26.7498 63.3808 27.4901 63.3046C28.2304 63.2284 29.044 63.1598 29.9227 63.0988C30.8013 63.0379 31.7044 62.9845 32.6237 62.9388C33.543 62.9083 34.4461 62.8778 35.3247 62.8778ZM34.2508 89.5918C34.4786 89.6223 34.7389 89.6375 35.0318 89.6375C35.3247 89.6375 35.6339 89.6375 35.9512 89.6375C37.2203 89.6375 38.4081 89.4927 39.5308 89.2031C40.6454 88.9135 41.6136 88.4028 42.4271 87.6788C43.2407 86.9471 43.8834 85.9639 44.3471 84.7139C44.8109 83.464 45.0549 81.871 45.0549 79.9275C45.0549 78.0145 44.8109 76.4139 44.3227 75.1411C43.8346 73.8683 43.1919 72.8546 42.4027 72.1077C41.6054 71.3607 40.678 70.8348 39.6041 70.5147C38.5301 70.1946 37.4156 70.0346 36.244 70.0346C35.5932 70.0346 35.1295 70.0422 34.8284 70.0574C34.5356 70.0727 34.3403 70.0803 34.2427 70.0803V89.5918H34.2508Z" fill="#00D6A8"/>
<path d="M72.1546 96.7044C69.5268 96.7044 67.3464 96.3691 65.6136 95.6984C63.8807 95.0353 62.5057 94.0673 61.4969 92.8021C60.4962 91.5445 59.7884 90.0126 59.3817 88.2215C58.9749 86.4304 58.7715 84.4106 58.7715 82.1622V63.5196C59.7152 63.3976 60.5206 63.3138 61.204 63.2681C61.8793 63.2223 62.5301 63.1995 63.1485 63.1995C63.7017 63.1995 64.3119 63.2223 64.9708 63.2681C65.638 63.3138 66.4352 63.3976 67.379 63.5196V81.2019C67.379 82.7263 67.4441 84.0143 67.5742 85.0737C67.7044 86.1408 67.9403 87.002 68.282 87.6727C68.6237 88.3434 69.1037 88.8236 69.7139 89.1056C70.3322 89.3952 71.1376 89.54 72.1465 89.54C73.1471 89.54 73.9688 89.3952 74.6034 89.1056C75.238 88.816 75.718 88.3358 76.0597 87.6727C76.4014 87.002 76.6292 86.1408 76.7431 85.0737C76.857 84.0067 76.9139 82.7186 76.9139 81.2019V63.5196C77.8902 63.3976 78.7038 63.3138 79.3709 63.2681C80.038 63.2223 80.6482 63.1995 81.2014 63.1995C81.7872 63.1995 82.4136 63.2223 83.097 63.2681C83.7723 63.3138 84.5858 63.3976 85.5296 63.5196V82.1622C85.5296 84.4106 85.3262 86.4304 84.9194 88.2215C84.5126 90.0126 83.813 91.5445 82.8041 92.8021C81.8035 94.0673 80.4285 95.0277 78.6956 95.6984C76.9628 96.3691 74.7824 96.7044 72.1546 96.7044Z" fill="#00D6A8"/>
<path d="M72.5372 73.8378C71.7562 73.8378 71.1216 73.2433 71.1216 72.5116V56.1174C71.1216 53.3736 73.4972 51.1405 76.4341 51.1405H114.387C117.299 51.1405 119.659 48.9302 119.659 46.2016V43.6255H122.49V46.2016C122.49 50.3935 118.861 53.7928 114.387 53.7928H76.426C75.0592 53.7928 73.9446 54.8293 73.9446 56.1174V72.5116C73.9528 73.2433 73.3182 73.8378 72.5372 73.8378Z" fill="#00D6A8"/>
<path d="M126.111 35.3711H103.77C102.989 35.3711 102.355 34.7766 102.355 34.0449C102.355 33.3132 102.989 32.7188 103.77 32.7188H126.111C126.892 32.7188 127.526 33.3132 127.526 34.0449C127.526 34.7766 126.892 35.3711 126.111 35.3711Z" fill="#00D6A8"/>
<path d="M135.385 26.5301H103.762C102.981 26.5301 102.346 25.9357 102.346 25.204C102.346 24.4723 102.981 23.8778 103.762 23.8778H135.385C136.166 23.8778 136.8 24.4723 136.8 25.204C136.8 25.9357 136.174 26.5301 135.385 26.5301Z" fill="#00D6A8"/>
<path d="M133.896 35.0816C134.722 35.0816 135.393 34.4537 135.393 33.6792C135.393 32.9047 134.722 32.2769 133.896 32.2769C133.069 32.2769 132.399 32.9047 132.399 33.6792C132.399 34.4537 133.069 35.0816 133.896 35.0816Z" fill="#00D6A8"/>
<path d="M142.382 44.9516H99.4827L99.2956 44.9059C99.1248 44.8602 82.0888 40.2795 85.8637 24.9066C86.7993 21.0958 92.6976 13.2302 104.242 13.6418C105.316 10.0824 109.644 -0.298292 123.621 0.00657529C123.784 0.00657529 140.055 0.547714 143.114 15.7835C151.152 19.7696 155.212 26.0803 154.26 33.1838C153.552 38.458 149.2 42.8328 142.602 44.8907L142.382 44.9516ZM99.8733 42.2993H141.918C147.328 40.5463 150.884 37.0251 151.445 32.8484C152.568 24.4874 145.506 19.8534 141.202 17.8413L140.551 17.5364L140.437 16.8657C138.094 3.13146 123.694 2.65892 123.556 2.6513C123.377 2.64368 123.198 2.64368 123.027 2.64368C109.213 2.64368 106.829 14.7317 106.732 15.2499L106.512 16.4542L105.21 16.3475C93.6658 15.3795 89.1261 23.4432 88.6217 25.4935C85.6034 37.8025 98.1566 41.8115 99.8733 42.2993Z" fill="#00D6A8"/>
<defs>
<linearGradient id="paint0_linear" x1="285.091" y1="113.784" x2="-108.094" y2="118.841" gradientUnits="userSpaceOnUse">
<stop stop-color="#FF373B"/>
<stop offset="0.950202" stop-color="#F6A505"/>
</linearGradient>
<linearGradient id="paint1_linear" x1="285.091" y1="113.784" x2="-108.094" y2="118.841" gradientUnits="userSpaceOnUse">
<stop stop-color="#FF373B"/>
<stop offset="0.950202" stop-color="#F6A505"/>
</linearGradient>
<linearGradient id="paint2_linear" x1="285.091" y1="113.784" x2="-108.094" y2="118.841" gradientUnits="userSpaceOnUse">
<stop stop-color="#FF373B"/>
<stop offset="0.950202" stop-color="#F6A505"/>
</linearGradient>
<linearGradient id="paint3_linear" x1="285.091" y1="113.784" x2="-108.094" y2="118.841" gradientUnits="userSpaceOnUse">
<stop stop-color="#FF373B"/>
<stop offset="0.950202" stop-color="#F6A505"/>
</linearGradient>
<linearGradient id="paint4_linear" x1="285.091" y1="113.784" x2="-108.094" y2="118.841" gradientUnits="userSpaceOnUse">
<stop stop-color="#FF373B"/>
<stop offset="0.950202" stop-color="#F6A505"/>
</linearGradient>
<linearGradient id="paint5_linear" x1="285.091" y1="113.784" x2="-108.094" y2="118.841" gradientUnits="userSpaceOnUse">
<stop stop-color="#FF373B"/>
<stop offset="0.950202" stop-color="#F6A505"/>
</linearGradient>
<linearGradient id="paint6_linear" x1="285.091" y1="113.784" x2="-108.094" y2="118.841" gradientUnits="userSpaceOnUse">
<stop stop-color="#FF373B"/>
<stop offset="0.950202" stop-color="#F6A505"/>
</linearGradient>
<linearGradient id="paint7_linear" x1="285.091" y1="113.784" x2="-108.094" y2="118.841" gradientUnits="userSpaceOnUse">
<stop stop-color="#FF373B"/>
<stop offset="0.950202" stop-color="#F6A505"/>
</linearGradient>
<linearGradient id="paint8_linear" x1="285.091" y1="113.784" x2="-108.094" y2="118.841" gradientUnits="userSpaceOnUse">
<stop stop-color="#FF373B"/>
<stop offset="0.950202" stop-color="#F6A505"/>
</linearGradient>
<linearGradient id="paint9_linear" x1="285.091" y1="113.784" x2="-108.094" y2="118.841" gradientUnits="userSpaceOnUse">
<stop stop-color="#FF373B"/>
<stop offset="0.950202" stop-color="#F6A505"/>
</linearGradient>
<linearGradient id="paint10_linear" x1="285.091" y1="113.784" x2="-108.094" y2="118.841" gradientUnits="userSpaceOnUse">
<stop stop-color="#FF373B"/>
<stop offset="0.950202" stop-color="#F6A505"/>
</linearGradient>
</defs>
</svg>
