<svg xmlns="http://www.w3.org/2000/svg" viewBox="0 0 441.45 156.14"><defs><style>.cls-1{fill:#fff;}.cls-2{fill:#006dff;}</style></defs><title>Recurso 2</title><g id="Capa_2" data-name="Capa 2"><g id="Capa_1-2" data-name="Capa 1"><path d="M0,0H371.68a69.77,69.77,0,0,1,69.77,69.77v1.84a69.77,69.77,0,0,1-69.77,69.77H0a0,0,0,0,1,0,0V0A0,0,0,0,1,0,0Z"/><path class="cls-1" d="M136.84,32.44V40H132V37.28h-9.87v7.49H134.6v4.84H122.17v8.52H132V55.44h4.8v7.49H113.43v-4.8H116V37.28h-2.55V32.44Z"/><path class="cls-1" d="M168.59,32.44v4.84H166V62.93h-6.33L147.33,43.6h-.09V58.13H150v4.8H139v-4.8h2.56V37.28H139V32.44h8.56l12.7,20.18h.09V37.28H157.6V32.44Z"/><path class="cls-1" d="M194.37,54.55v7.17a37,37,0,0,1-11,1.66c-10.71,0-13.58-7.17-13.58-15.92S172.67,32,183.38,32a35.85,35.85,0,0,1,11,1.7v7.18h-4.84V37.42a25.28,25.28,0,0,0-5.65-.59c-5.65,0-7.58,4.58-7.58,10.63,0,6.5,1.93,11.12,7.58,11.12a23.86,23.86,0,0,0,5.65-.62V54.55Z"/><path class="cls-1" d="M225.54,32.44v4.84h-2.6V52.17c0,8-4.76,11.21-12,11.21s-12-3.23-12-11.21V37.28h-2.55V32.44h11.3v4.84h-2.56V52.17c0,3.27,1,6.41,5.88,6.41,4.71,0,5.78-3.14,5.78-6.41V37.28h-2.6V32.44Z"/><path class="cls-1" d="M250.29,32.44V40h-4.8V37.28h-9.86v7.49h12.42v4.84H235.63v8.52h9.86V55.44h4.8v7.49H226.88v-4.8h2.56V37.28h-2.56V32.44Z"/><path class="cls-1" d="M282,32.44v4.84h-2.6V62.93h-6.32L260.78,43.6h-.09V58.13h2.74v4.8h-11v-4.8H255V37.28h-2.56V32.44H261L273.7,52.62h.09V37.28h-2.74V32.44Z"/><path class="cls-1" d="M307.6,32.44V40h-4.84V37.28h-3.95V58.13h2.56v4.8h-11.3v-4.8h2.55V37.28h-4V40h-4.8V32.44Z"/><path class="cls-1" d="M325,32.44C331.37,32.44,335,36,335,41.9c0,4.17-2.1,7.45-5.74,8.48l5.88,7.75h2v4.8H325.45v-4.8h1.93l-4.85-6.72h-4.39v6.72h2.55v4.8h-11.3v-4.8H312V37.28h-2.56V32.44Zm-6.81,14.12h6.05c2.56,0,4.53-1.43,4.53-4.66,0-3-1.84-4.62-4.44-4.62h-6.14Z"/><path class="cls-1" d="M337.82,47.46c0-8.61,2.87-15.47,13.59-15.47S365,38.85,365,47.46s-2.83,15.92-13.55,15.92S337.82,56.16,337.82,47.46Zm6.51,0c0,6,1.07,11.12,7.08,11.12s7-5.07,7-11.12-1-10.63-7-10.63S344.33,41.41,344.33,47.46Z"/><path class="cls-2" d="M127.38,73.23c10.49,0,13.49,6.41,13.49,15s-3,15.47-13.49,15.47H113.43v-4.8H116V78.07h-2.55V73.23Zm0,25.69c5.78,0,7-4.62,7-10.67s-1.21-10.18-7-10.18h-5.21V98.92Z"/><path class="cls-2" d="M165.85,73.23v7.53h-4.8V78.07h-9.86v7.49h12.42V90.4H151.19v8.52h9.86V96.23h4.8v7.49H142.44v-4.8H145V78.07h-2.56V73.23Z"/><path class="cls-2" d="M212.4,73.23v4.84h-2.6V98.92h2.6v4.8H201.05v-4.8h2.6V84.35h-.09l-7.35,19.37h-4l-7.84-19.37h-.09V98.92h2.73v4.8h-11v-4.8h2.56V78.07h-2.56V73.23h10.09l8.39,20.22h.09l7.85-20.22Z"/><path class="cls-2" d="M233.16,73.23l8.16,25.69h2.47v4.8h-12v-4.8h2.83l-1.3-4.44H224l-1.48,4.44h2.87v4.8H213.74v-4.8h2.78l6.91-20.85h-3V73.23Zm-4.3,5.51L225.27,90h6.95L228.9,78.74Z"/><path class="cls-2" d="M268.54,73.23v7.53h-4.8V78.07h-9.86v7.49H266.3V90.4H253.88v8.52h9.86V96.23h4.8v7.49H245.13v-4.8h2.56V78.07h-2.56V73.23Z"/><path class="cls-2" d="M276.3,95v3.18A31.19,31.19,0,0,0,283,99c3.45,0,5-1.57,5-3.58,0-2.88-3.5-3.59-7-4.58-5.29-1.48-9.42-4.39-9.42-9.55,0-6.14,5-8.52,11.08-8.52a34.87,34.87,0,0,1,10.76,1.7V82h-4.8V78.61a27.43,27.43,0,0,0-6-.67c-3.14,0-4.58,1.34-4.58,3.18,0,2.56,3.23,3.68,7,4.57,5.29,1.21,9.5,3.73,9.5,9.06,0,6.51-5,9.42-11.52,9.42a41.39,41.39,0,0,1-11.57-1.66V95Z"/><path class="cls-2" d="M320.92,73.23v7.53h-4.84V78.07h-3.95V98.92h2.56v4.8h-11.3v-4.8h2.55V78.07h-4v2.69h-4.8V73.23Z"/><path class="cls-2" d="M338.27,73.23c6.42,0,10.09,3.54,10.09,9.46,0,4.17-2.1,7.44-5.74,8.48l5.88,7.75h2v4.8H338.77v-4.8h1.93l-4.85-6.72h-4.39v6.72H334v4.8h-11.3v-4.8h2.56V78.07h-2.56V73.23Zm-6.81,14.12h6.05c2.56,0,4.53-1.43,4.53-4.66,0-3-1.84-4.62-4.44-4.62h-6.14Z"/><path class="cls-2" d="M351.14,88.25c0-8.61,2.87-15.47,13.59-15.47s13.54,6.86,13.54,15.47-2.82,15.92-13.54,15.92S351.14,97,351.14,88.25Zm6.51,0c0,6,1.07,11.12,7.08,11.12s7-5.07,7-11.12-1-10.63-7-10.63S357.65,82.2,357.65,88.25Z"/><path class="cls-2" d="M385.45,95v3.18a31.19,31.19,0,0,0,6.73.85c3.45,0,5-1.57,5-3.58,0-2.88-3.5-3.59-7-4.58-5.29-1.48-9.42-4.39-9.42-9.55,0-6.14,5-8.52,11.08-8.52a34.87,34.87,0,0,1,10.76,1.7V82h-4.8V78.61a27.43,27.43,0,0,0-6-.67c-3.14,0-4.58,1.34-4.58,3.18,0,2.56,3.23,3.68,6.95,4.57,5.3,1.21,9.51,3.73,9.51,9.06,0,6.51-5,9.42-11.52,9.42a41.39,41.39,0,0,1-11.57-1.66V95Z"/><g id="GzvCds"><path class="cls-2" d="M130.52,153.94a2.38,2.38,0,0,1,.89-1.88l4.77-4.1,8.26-7.06c.34-.29.33-.47,0-.75l-12.52-10.72c-.23-.19-.45-.38-.66-.59a2.27,2.27,0,0,1,3-3.41c.94.74,1.83,1.53,2.74,2.31l12.31,10.57a3.36,3.36,0,0,1,1.26,1.55,2.29,2.29,0,0,1-.84,2.5l-4.62,4-10.65,9.14a2.25,2.25,0,0,1-2.55.46A2.22,2.22,0,0,1,130.52,153.94Z"/><path class="cls-2" d="M132.87,140.51a2.36,2.36,0,0,1-.88,1.8c-1.55,1.33-3.09,2.67-4.65,4L117,155.14l-.56.47a2.23,2.23,0,0,1-3.2-.33,2.21,2.21,0,0,1,.28-3.13c1.84-1.61,3.7-3.19,5.56-4.78l7.5-6.43c.47-.41.47-.42,0-.83q-6.41-5.49-12.8-11a2.41,2.41,0,0,1-1-2,2.14,2.14,0,0,1,1.29-2,2.11,2.11,0,0,1,2.39.27c1.33,1.11,2.64,2.24,4,3.37L132,138.73A2.41,2.41,0,0,1,132.87,140.51Z"/></g></g></g></svg>