<svg width="554" height="363" viewBox="0 0 554 363" fill="none" xmlns="http://www.w3.org/2000/svg">
<path d="M131.953 164.468H130.146" stroke="black" stroke-width="1.62963" stroke-miterlimit="10" stroke-linecap="round"/>
<path d="M125.288 164.468H78.8603C76.8721 164.468 75.2574 166.082 75.2574 168.07V304.595C75.2574 306.233 76.3419 307.607 77.8361 308.041" stroke="black" stroke-width="1.62963" stroke-miterlimit="10" stroke-linecap="round" stroke-dasharray="4.93 4.93"/>
<path d="M80.2594 308.186H82.0669" stroke="black" stroke-width="1.62963" stroke-miterlimit="10" stroke-linecap="round"/>
<path d="M434.521 118.751H436.329" stroke="black" stroke-width="1.62963" stroke-miterlimit="10" stroke-linecap="round"/>
<path d="M441.148 118.751H519.279C522.773 118.751 525.605 121.582 525.605 125.077V235.766C525.605 239.261 522.773 242.092 519.279 242.092H502.481" stroke="black" stroke-width="1.62963" stroke-miterlimit="10" stroke-linecap="round" stroke-dasharray="4.89 4.89"/>
<path d="M500.072 242.08H498.265" stroke="black" stroke-width="1.62963" stroke-miterlimit="10" stroke-linecap="round"/>
<path d="M201.901 34.3418H252.968C258.679 34.3418 263.306 38.9689 263.306 44.6805V93.446" stroke="black" stroke-width="1.62963" stroke-miterlimit="10" stroke-linecap="round" stroke-dasharray="4.89 4.89"/>
<path d="M324.677 336.985H232.845L242.81 297.775L245.076 288.882L249.462 271.651H308.048L312.434 288.882L314.699 297.775L324.677 336.985Z" fill="#00C5A3"/>
<path d="M359.911 347.817H197.6C193.708 347.817 190.551 344.66 190.551 340.768C190.551 336.876 193.708 333.719 197.6 333.719H359.911C363.803 333.719 366.96 336.876 366.96 340.768C366.96 344.66 363.803 347.817 359.911 347.817Z" fill="#00C5A3"/>
<path d="M428.594 105.038V277.663C428.594 281.772 425.256 285.098 421.159 285.098H136.374C132.253 285.098 128.94 281.76 128.94 277.663V105.038C128.94 100.929 132.265 97.6033 136.374 97.6033H421.159C425.256 97.6033 428.594 100.929 428.594 105.038Z" fill="#00D6A8"/>
<path d="M422.558 103.062H134.411V255.239H422.558V103.062Z" fill="#00A185"/>
<path d="M422.558 232.477H134.411V255.239H422.558V232.477Z" fill="black"/>
<path d="M278.744 276.591C274.949 276.591 271.84 273.482 271.84 269.687C271.84 265.891 274.949 262.782 278.744 262.782C282.54 262.782 285.649 265.891 285.649 269.687C285.649 273.482 282.54 276.591 278.744 276.591Z" fill="#FF373B"/>
<path d="M411.509 246.081H175.104C173.875 246.081 172.875 245.081 172.875 243.852C172.875 242.623 173.875 241.622 175.104 241.622H411.509C412.738 241.622 413.738 242.623 413.738 243.852C413.738 245.081 412.738 246.081 411.509 246.081Z" fill="#00D6A8"/>
<path d="M293.3 241.622V246.093H175.104C173.875 246.093 172.875 245.093 172.875 243.864C172.875 242.623 173.875 241.634 175.104 241.634H293.3V241.622Z" fill="#FF373B"/>
<path d="M293.359 247.876C295.582 247.876 297.384 246.074 297.384 243.852C297.384 241.629 295.582 239.827 293.359 239.827C291.136 239.827 289.335 241.629 289.335 243.852C289.335 246.074 291.136 247.876 293.359 247.876Z" fill="white"/>
<path d="M162.42 245.935C163.56 241.11 160.572 236.275 155.747 235.136C150.922 233.997 146.087 236.985 144.947 241.81C143.808 246.635 146.796 251.47 151.621 252.609C156.446 253.748 161.281 250.761 162.42 245.935Z" fill="white"/>
<path d="M152.343 239.827L157.259 243.623C157.416 243.743 157.416 243.972 157.259 244.093L152.343 247.888C152.15 248.033 151.861 247.9 151.861 247.647V240.068C151.861 239.815 152.138 239.682 152.343 239.827Z" fill="#FF373B"/>
<path d="M32.325 328.188C32.325 328.188 -10.9337 269.746 2.63435 257.263C16.2145 244.791 36.0605 288.749 32.325 328.188Z" fill="#00D6A8"/>
<path d="M6.60011 264.252C12.6371 273.615 17.7944 283.496 21.8913 293.858C25.5424 303.101 28.4102 312.668 30.531 322.38C31.0732 324.863 31.5552 327.357 32.0372 329.839C32.5072 332.225 32.8446 334.635 33.3868 337.009C33.4832 337.406 34.1339 337.322 34.1098 336.912C33.8688 332.562 32.9892 328.188 32.1216 323.923C31.1576 319.175 30.0249 314.451 28.6994 309.788C25.8195 299.63 22.0359 289.713 17.2401 280.302C14.324 274.591 11.0585 269.06 7.33514 263.83C7.02185 263.384 6.29886 263.782 6.60011 264.252Z" fill="#01888B"/>
<path d="M5.52685 272.277C7.34637 273.627 9.22614 274.88 11.0336 276.242C11.9614 276.941 12.8772 277.652 13.781 278.375C14.6003 279.037 15.4438 279.953 16.4319 280.339C16.7091 280.447 16.9019 280.098 16.7934 279.881C16.3114 278.953 15.251 278.218 14.4799 277.555C13.5761 276.784 12.6603 276.025 11.7084 275.314C9.88888 273.94 7.99706 272.579 5.9004 271.663C5.46661 271.458 5.15331 271.988 5.52685 272.277Z" fill="#01888B"/>
<path d="M6.86536 275.771C8.68487 277.121 10.5646 278.374 12.3721 279.736C13.2999 280.435 14.2157 281.145 15.1195 281.868C15.9388 282.531 16.7823 283.447 17.7704 283.833C18.0476 283.941 18.2404 283.592 18.1319 283.375C17.6499 282.447 16.5895 281.712 15.8184 281.049C14.9146 280.278 13.9988 279.519 13.0469 278.808C11.2274 277.434 9.33556 276.073 7.2389 275.157C6.80511 274.952 6.49181 275.494 6.86536 275.771Z" fill="#01888B"/>
<path d="M41.1562 321.5C41.1562 321.5 82.8605 261.938 68.9671 249.828C55.0737 237.706 36.3965 282.17 41.1562 321.5Z" fill="#00D6A8"/>
<path d="M64.4606 256.48C57.8091 266.421 52.6277 277.338 48.6513 288.617C45.1207 298.654 42.5661 309.017 40.855 319.512C40.4213 322.139 40.0357 324.766 39.7344 327.417C39.4573 329.935 39.144 332.466 39.1199 334.996C39.1199 335.394 39.7706 335.515 39.8429 335.093C40.6141 330.61 41.0478 326.067 41.7708 321.573C42.5661 316.584 43.5542 311.632 44.7471 306.716C47.3619 295.859 50.9166 285.243 55.5317 275.061C58.3634 268.819 61.6289 262.758 65.1956 256.902C65.4848 256.444 64.7618 256.034 64.4606 256.48Z" fill="#01888B"/>
<path d="M42.278 292.979C42.0852 295.666 42.2659 298.389 42.4466 301.076C42.531 302.269 42.6394 303.462 42.7599 304.643C42.8563 305.703 42.8804 306.908 43.3022 307.908C43.4106 308.161 43.8203 308.077 43.8806 307.836C44.0975 306.824 43.9047 305.679 43.8324 304.643C43.748 303.414 43.6878 302.173 43.6034 300.944C43.4227 298.293 43.3504 295.618 43.013 292.979C42.9527 292.521 42.3141 292.497 42.278 292.979Z" fill="#01888B"/>
<path d="M37.9039 300.377C37.9039 300.377 -4.07759 241.008 9.76762 228.826C23.6128 216.643 42.4828 261.035 37.9039 300.377Z" fill="#FF373B"/>
<path d="M13.5772 235.899C21.4457 248.575 27.5309 262.24 31.7844 276.531C35.3391 288.472 37.6888 300.775 38.9541 313.162C39.5084 318.609 39.7132 324.079 40.2073 329.526C40.2555 329.996 40.9182 330.008 40.9423 329.526C41.1471 324.718 40.7736 319.838 40.3639 315.054C39.8578 309.258 39.1107 303.486 38.1226 297.762C35.797 284.243 32.0616 270.927 26.6271 258.311C23.205 250.346 19.1442 242.671 14.3122 235.465C14.011 235.019 13.288 235.429 13.5772 235.899Z" fill="black"/>
<path d="M35.3846 317.693C35.3846 317.693 61.2194 282.194 52.9532 274.723C44.6991 267.252 32.9385 293.906 35.3846 317.693Z" fill="#FF373B"/>
<path d="M50.0132 278.615C44.8077 285.978 40.9879 294.304 38.2887 302.884C35.9993 310.162 34.5172 317.669 33.6857 325.248C33.3242 328.538 32.9386 331.972 33.1796 335.273C33.2037 335.659 33.8303 335.804 33.9026 335.37C34.3244 332.55 34.4449 329.67 34.7461 326.839C35.1197 323.344 35.6257 319.862 36.2885 316.416C37.8429 308.33 40.1926 300.401 43.4581 292.846C45.5186 288.062 48.0009 283.459 50.7603 279.049C51.0374 278.579 50.3265 278.182 50.0132 278.615Z" fill="#FF373B"/>
<path d="M52.7017 315.981L52.4968 317.343L52.0751 320.223L47.942 347.925H23.3243L19.2032 320.223L18.7695 317.343L18.5767 315.981H52.7017Z" fill="#00A185"/>
<path d="M52.4978 317.343L52.076 320.223H19.2042L18.7704 317.343H52.4978Z" fill="#00A185"/>
<path d="M53.1846 318.584H18.0956C16.975 318.584 16.0592 317.668 16.0592 316.548C16.0592 315.427 16.975 314.511 18.0956 314.511H53.1846C54.3052 314.511 55.221 315.427 55.221 316.548C55.221 317.68 54.3052 318.584 53.1846 318.584Z" fill="#00A185"/>
<path d="M8.99487 348.323H548.789" stroke="black" stroke-width="3.25926" stroke-miterlimit="10" stroke-linecap="round" stroke-linejoin="round"/>
<path d="M194.804 123.739H64.6183C63.6663 123.739 62.8951 122.968 62.8951 122.016V26.3528C62.8951 23.3644 65.3171 20.9545 68.2934 20.9545H188.514C192.937 20.9545 196.527 24.5453 196.527 28.9676V122.016C196.527 122.956 195.756 123.739 194.804 123.739Z" fill="#00A185"/>
<path d="M188.009 118.75H71.5596C69.6799 118.75 68.1495 117.22 68.1495 115.34V100.025C68.1495 98.1453 69.6799 96.615 71.5596 96.615H188.009C189.889 96.615 191.419 98.1453 191.419 100.025V115.34C191.419 117.22 189.889 118.75 188.009 118.75Z" fill="white"/>
<path d="M189.25 92.9519H70.3307C69.1378 92.9519 68.1617 91.9758 68.1617 90.7829V86.1558C68.1617 84.9629 69.1378 83.9868 70.3307 83.9868H189.25C190.443 83.9868 191.419 84.9629 191.419 86.1558V90.795C191.419 91.9879 190.443 92.9519 189.25 92.9519Z" fill="white"/>
<path d="M195.178 17.5564H64.2453C63.4982 17.5564 62.8958 18.1589 62.8958 18.906V28.9314H196.54V18.906C196.528 18.1589 195.925 17.5564 195.178 17.5564Z" fill="#00D6A8"/>
<path d="M176.705 23.2439C176.705 23.9307 176.151 24.4729 175.476 24.4729C174.789 24.4729 174.247 23.9186 174.247 23.2439C174.247 22.557 174.801 22.0148 175.476 22.0148C176.151 22.0148 176.705 22.557 176.705 23.2439Z" fill="white"/>
<path d="M182.839 23.2439C182.839 23.9307 182.285 24.4729 181.61 24.4729C180.923 24.4729 180.381 23.9186 180.381 23.2439C180.381 22.557 180.935 22.0148 181.61 22.0148C182.285 22.0148 182.839 22.557 182.839 23.2439Z" fill="white"/>
<path d="M188.973 23.2439C188.973 23.9307 188.418 24.4729 187.743 24.4729C187.057 24.4729 186.514 23.9186 186.514 23.2439C186.514 22.557 187.069 22.0148 187.743 22.0148C188.418 22.0148 188.973 22.557 188.973 23.2439Z" fill="white"/>
<path d="M191.418 35.6191V77.95C191.418 78.6609 190.839 79.2393 190.128 79.2393H148.255C147.557 79.2393 146.978 78.6609 146.978 77.95V35.6191C146.978 34.9202 147.557 34.3418 148.255 34.3418H190.128C190.839 34.3418 191.418 34.9202 191.418 35.6191Z" fill="white"/>
<path d="M191.421 70.0213V77.95C191.421 78.661 190.843 79.2394 190.132 79.2394H169.37L170.25 70.0092L180.022 59.2006L191.421 70.0213Z" fill="#00D6A8"/>
<path d="M185.6 79.2395H148.258C147.559 79.2395 146.981 78.6611 146.981 77.9502V70.0214L161.597 54.682L185.6 79.2395Z" fill="#FF373B"/>
<path d="M185.54 46.4881C185.54 49.3319 183.239 51.6454 180.383 51.6454C177.527 51.6454 175.225 49.3439 175.225 46.4881C175.225 43.6444 177.527 41.3308 180.383 41.3308C183.239 41.3308 185.54 43.6444 185.54 46.4881Z" fill="#FF373B"/>
<path d="M139.916 38.306H69.5937C68.4972 38.306 67.6176 37.4143 67.6176 36.3298C67.6176 35.2333 68.5092 34.3536 69.5937 34.3536H139.928C141.025 34.3536 141.905 35.2453 141.905 36.3298C141.905 37.4143 141.013 38.306 139.916 38.306Z" fill="#00D6A8"/>
<path d="M139.92 46.4879H69.5977C68.5012 46.4879 67.6216 45.5962 67.6216 44.5117C67.6216 43.4152 68.5133 42.5355 69.5977 42.5355H139.932C141.029 42.5355 141.909 43.4272 141.909 44.5117C141.909 45.6082 141.017 46.4879 139.92 46.4879Z" fill="#00D6A8"/>
<path d="M139.92 54.6815H69.5977C68.5012 54.6815 67.6216 53.7898 67.6216 52.7053C67.6216 51.6088 68.5133 50.7291 69.5977 50.7291H139.932C141.029 50.7291 141.909 51.6208 141.909 52.7053C141.909 53.7898 141.017 54.6815 139.92 54.6815Z" fill="#00D6A8"/>
<path d="M139.92 62.8635H69.5977C68.5012 62.8635 67.6216 61.9718 67.6216 60.8873C67.6216 59.7908 68.5133 58.9111 69.5977 58.9111H139.932C141.029 58.9111 141.909 59.8028 141.909 60.8873C141.909 61.9838 141.017 62.8635 139.92 62.8635Z" fill="#00D6A8"/>
<path d="M139.92 71.0573H69.5977C68.5012 71.0573 67.6216 70.1656 67.6216 69.0812C67.6216 67.9846 68.5133 67.105 69.5977 67.105H139.932C141.029 67.105 141.909 67.9967 141.909 69.0812C141.909 70.1656 141.017 71.0573 139.92 71.0573Z" fill="#00D6A8"/>
<path d="M123.4 79.2388H69.5977C68.5012 79.2388 67.6216 78.3472 67.6216 77.2627C67.6216 76.1661 68.5133 75.2865 69.5977 75.2865H123.4C124.497 75.2865 125.376 76.1782 125.376 77.2627C125.388 78.3592 124.497 79.2388 123.4 79.2388Z" fill="#00D6A8"/>
<path d="M254.307 218.631L240.341 194.652L218.133 196.4L212.072 201.93C211.289 201.027 211.47 201.232 210.855 200.557C206.168 195.303 195.203 186.579 186.503 177.602C176.622 167.408 169.235 157.202 169.235 157.202L167.476 158.081C167.488 157.141 167.488 156.551 167.488 156.551L159.668 146.092L150.197 145.477L143.16 154.033L143.521 158.611C143.521 158.611 143.629 165.661 149.136 166.372C150.787 166.588 154.968 167.384 156.282 168.287C160.053 170.866 163.03 174.445 165.114 178.518C171.32 190.688 180.369 208.052 188.876 222.933C188.876 222.933 189.202 223.56 189.852 224.524C192.805 229.235 201.975 242.864 209.47 243.502C218.531 244.261 254.307 218.631 254.307 218.631Z" fill="#F7B59C"/>
<path d="M286.141 92.2169C286.141 92.2169 289.129 87.7585 293.226 86.6981C297.335 85.6377 288.719 96.2415 288.719 96.2415C288.719 96.2415 286.406 97.2657 286.141 97.0971C285.876 96.9163 286.141 92.2169 286.141 92.2169Z" fill="black"/>
<path d="M362.597 60.382C362.597 60.382 391.866 70.8894 357.018 101.086L351.776 99.4956L362.597 60.382Z" fill="black"/>
<path d="M299.816 47.6808C299.816 47.6808 291.623 62.9117 297.262 72.9492L310.3 56.0433" fill="black"/>
<path d="M303.769 59.9116C305.926 60.8153 309.445 62.0083 313.867 62.5384C321.446 63.4542 336.725 64.9605 341.847 70.5395C341.847 70.5395 344.004 72.4795 345.269 76.8656C346.522 81.2397 342.425 61.9841 342.425 61.9841L319.145 50.573C313.204 51.8744 307.782 55.1881 303.769 59.9116Z" fill="#F7B59C"/>
<path d="M350.546 110.28C358.065 111.726 361.596 99.8565 359.535 96.6754C357.294 93.2171 354.776 93.675 354.776 93.675C352.643 95.9886 350.703 101.447 349.739 104.134L349.425 104.303C356.306 88.8551 356.354 73.359 350.691 62.8516C346.546 55.1639 336.641 50.7175 326.892 50.0065C324.266 49.8137 321.663 50.0186 319.144 50.5849C313.204 51.8863 307.793 55.2121 303.781 59.9356C303.419 60.3694 303.07 60.8032 302.733 61.237L300.443 64.2615C300.142 64.6591 299.865 65.0447 299.588 65.4664C298.154 67.6113 297.021 69.949 296.286 72.4071C295.864 73.6844 295.563 75.0099 295.358 76.3474C294.792 79.9503 293.406 84.6858 290.02 88.8551C283.489 96.9043 276.801 111.364 285.453 125.041C289.249 131.029 297.479 134.343 306.781 134.524C307.167 136.235 307.528 138.235 307.793 140.525C308.083 143.127 308.263 146.092 308.191 149.393L288.586 151.285C302.552 168.299 321.205 171.023 321.205 171.023C353.619 170.408 359.15 152.55 359.15 152.55L341.039 148.526C341.051 148.502 340.497 124.86 350.546 110.28ZM349.654 104.339C349.257 105.484 348.956 106.532 348.739 107.376C348.184 107.846 347.702 108.255 347.329 108.581C347.859 107.593 348.365 106.592 348.823 105.604C349.1 105.183 349.365 104.761 349.654 104.339Z" fill="#F7B59C"/>
<path d="M300.119 21.6777C297.649 22.1597 295.407 27.2326 294.395 29.5101C292.937 32.7876 290.178 40.5838 296.48 49.3199C303.625 59.2248 319.049 59.2369 330.569 62.2011C340.799 64.84 345.908 71.4313 345.233 78.9504C345.052 81.0109 345.775 83.0473 347.137 84.6017L347.354 84.8548C348.619 86.3007 349.137 88.2528 348.752 90.1446C347.547 96.0852 343.799 108.28 334.557 111.003C326.58 113.365 323.303 110.364 321.989 109.364C317.35 105.833 314.723 101.917 305.662 97.495C300.95 95.1935 295.877 95.5188 289.262 94.5548C288.033 94.3741 286.334 94.2174 286.141 92.2172C286.141 92.2172 271.717 109.147 281.803 126.74C284.346 131.162 288.527 134.355 293.479 135.548C300.263 137.187 311.53 138.139 324.628 132.21C346.065 122.522 353.126 100.399 355.982 93.4463C358.837 86.4935 366.248 67.7561 360.717 50.5008C357.307 39.8488 346.498 30.8476 328.845 30.0523C316.555 29.498 307.445 20.2558 300.119 21.6777Z" fill="black"/>
<path d="M314.134 107.978C314.134 107.978 313.833 108.556 313.218 109.352C311.29 111.882 306.205 116.654 297.541 112.437C294.818 111.111 293.432 109.34 292.806 107.532C291.48 103.785 293.456 99.9288 293.456 99.9288C293.456 99.9288 296.662 102.038 301.036 104.086C304.807 105.869 309.458 107.617 313.64 107.942C313.808 107.966 313.977 107.966 314.134 107.978Z" fill="#FF373B"/>
<path d="M313.867 107.183L313.638 107.954L313.217 109.364C311.289 111.895 306.204 116.666 297.54 112.449C294.817 111.123 293.431 109.352 292.804 107.545C296.383 104.11 299.95 104.11 299.95 104.11H305.77L313.867 107.183Z" fill="#FF373B"/>
<path d="M293.889 99.9288C293.889 99.9288 291.467 102.953 291.455 103.809C291.443 105.146 307.421 112.641 308.277 112.702C309.132 112.762 310.614 109.677 310.614 109.677L304.144 105.821" fill="white"/>
<path d="M294.685 67.5632C294.311 68.4067 294.612 67.6234 294.263 68.8164C293.914 70.0455 294.709 71.154 295.914 71.5878C298.902 72.6603 307.976 76.2511 307.976 76.2511C308.928 76.8054 308.94 75.7812 308.638 75.1666C307.445 72.6723 306.253 69.5635 297.661 66.6595C296.456 66.2498 295.203 66.3944 294.685 67.5632Z" fill="black"/>
<path d="M337.328 84.7343C336.966 85.5898 337.34 84.8307 336.701 85.9031C336.05 87.0117 334.701 87.1925 333.556 86.6141C330.724 85.1801 321.868 81.0591 321.868 81.0591C320.819 80.7458 321.542 80.0349 322.193 79.83C324.82 78.9745 327.905 77.7093 335.93 81.9508C337.051 82.5412 337.81 83.5655 337.328 84.7343Z" fill="black"/>
<path d="M290.203 100.507C290.203 100.507 295.24 106.906 302.216 104.954C302.216 104.954 302.277 110.183 314.025 111.906L315.049 107.809C315.049 107.809 307.494 103.785 307 104.086C306.506 104.387 299.324 102.17 297.951 101.905C296.577 101.652 291.914 98.0009 291.914 98.0009L290.203 100.507Z" fill="black"/>
<path d="M355.873 97.7482C355.873 97.7482 351.608 103.821 352.27 106.472C352.27 106.472 352.439 104.93 356.355 104.954C356.355 104.954 358.886 101.423 357.621 98.7844C356.97 97.4831 355.873 97.7482 355.873 97.7482Z" fill="#F7B59C"/>
<path d="M322.267 86.674C320.93 88.855 320.364 91.2289 322.557 92.964C323.256 93.5183 324.473 93.2773 325.087 92.6989C326.196 91.6386 326.352 91.1325 327.003 89.8913C328.509 87.0596 323.979 83.8905 322.267 86.674Z" fill="black"/>
<path d="M322.643 87.9517C322.293 88.518 322.149 89.1446 322.715 89.6025C322.896 89.7471 323.221 89.6869 323.378 89.5302C323.667 89.2531 323.595 88.9639 323.764 88.6385C324.161 87.8915 323.089 87.2167 322.643 87.9517Z" fill="white"/>
<path d="M298.903 78.7814C297.794 80.4684 297.3 82.3361 298.987 83.758C299.53 84.2159 300.494 84.0472 300.988 83.6134C301.891 82.794 301.964 82.1433 302.518 81.1793C303.771 78.9622 300.325 76.6245 298.903 78.7814Z" fill="black"/>
<path d="M299.172 79.7934C298.882 80.2393 298.75 80.7213 299.196 81.0948C299.34 81.2153 299.593 81.1671 299.726 81.0587C299.967 80.8418 299.907 80.6128 300.051 80.3598C300.377 79.7814 299.545 79.2271 299.172 79.7934Z" fill="white"/>
<path d="M169.535 157.684C169.535 157.684 158.329 133.608 150.509 127.945C150.509 127.945 147.761 128.379 148.075 131.716C148.4 135.066 153.147 139.163 153.352 142.296C153.569 145.429 151.461 144.995 148.87 144.393C146.279 143.802 127.132 133.138 125.24 134.078C123.312 135.03 125.288 137.018 126.638 138.103C127.988 139.187 138.206 145.61 138.206 145.61C138.206 145.61 119.794 135.5 118.408 139.019C117.516 141.296 134.639 150.092 134.639 150.092C134.639 150.092 119.926 141.85 119.251 144.911C118.673 147.526 131.145 153.37 131.145 153.37C131.145 153.37 123.445 149.333 122.866 151.105C122.131 153.346 132.832 159.154 135.928 161.178C139.025 163.203 146.58 166.444 149.581 166.372C152.581 166.287 154.786 165.998 156.437 167.673" fill="#F7B59C"/>
<path d="M364.273 203.413L366.936 232.127H380.793L378.335 213.414L364.273 203.413Z" fill="white"/>
<path d="M405.601 198.894L418.109 232.127H380.791L374.609 218.631" fill="#F7B59C"/>
<path d="M414.084 216.246C414.084 216.246 409.963 205.377 401.203 185.41C395.852 173.204 392.358 165.07 388.092 160.829C379.633 152.406 351.582 148.273 350.967 148.176C349.738 147.851 348.641 147.586 347.726 147.369C345.665 146.887 343.87 145.694 342.616 143.983L341.243 142.115C333.603 153.623 326.687 154.804 326.687 154.804C326.12 154.888 321.782 164.757 321.192 164.781C319.204 164.829 319.059 155.382 317.469 154.731C311.624 151.719 308.034 143.393 308.034 143.393C306.636 145.971 304.057 147.682 301.141 147.983C297.803 148.309 272.029 149.815 266.667 153.538C255.46 161.311 234.879 179.964 218.106 196.424C218.347 196.436 235.578 211.329 243.471 226.994L267.643 212.197C268.113 219.174 268.426 226.235 268.426 232.151H380.778L379.561 227.669C397.949 227.452 414.084 216.246 414.084 216.246Z" fill="white"/>
<path d="M308.591 83.7657C310.46 79.1378 308.595 74.0201 304.423 72.3349C300.252 70.6497 295.355 73.0351 293.485 77.6629C291.616 82.2908 293.481 87.4085 297.653 89.0937C301.824 90.7789 306.721 88.3935 308.591 83.7657Z" stroke="white" stroke-width="1.62963" stroke-miterlimit="10"/>
<path d="M330.632 92.7209C332.501 88.093 330.636 82.9753 326.464 81.2901C322.293 79.6048 317.396 81.9903 315.526 86.6181C313.657 91.246 315.522 96.3637 319.694 98.0489C323.865 99.7342 328.762 97.3487 330.632 92.7209Z" stroke="white" stroke-width="1.62963" stroke-miterlimit="10"/>
<path d="M308.819 83.1678C308.819 83.1678 313.699 82.6497 315.543 86.6381" stroke="white" stroke-width="1.62963" stroke-miterlimit="10"/>
<path d="M330.943 91.8678L355.994 93.4463" stroke="white" stroke-width="1.62963" stroke-miterlimit="10" stroke-linecap="round"/>
<path d="M274.574 232.128H268.441C268.453 226.211 268.127 219.15 267.657 212.173L272.622 209.39C272.634 209.39 274.719 225.814 274.574 232.128Z" fill="white"/>
<path d="M311.337 85.6018C311.337 85.6018 304.818 90.6507 304.107 93.2896C303.686 94.844 306.3 96.5671 306.3 96.5671" stroke="#F7B59C" stroke-width="1.62963" stroke-miterlimit="10" stroke-linecap="round"/>
<path d="M131.542 261.444C131.542 261.444 134.217 270.783 124.18 270.783C122.758 270.783 121.553 270.409 120.529 269.915C116.817 268.132 115.962 261.902 115.962 261.902C119.095 261.095 117.998 256.564 117.998 256.564L129.156 256.817C129.156 256.817 128.602 259.733 129.421 260.565C130.843 262.023 131.542 261.444 131.542 261.444Z" fill="#F7B59C"/>
<path d="M116.59 261.191C116.59 261.191 115.963 269.469 123.759 269.469C130.808 269.469 130.893 263.987 130.375 260.962C138.424 261.685 147.232 264.938 151.739 268.626C157.077 275.53 160.776 286.086 160.776 286.086C160.776 286.086 158.234 287.279 155.763 288.014C153.137 288.797 151.197 290.002 151.197 290.002L148.04 332.634H98.7077L97.8642 289.978C97.8642 289.978 94.6228 289.207 91.9959 288.339C88.1641 287.086 86.7181 285.857 86.7181 285.857C86.7181 285.857 89.6824 277.121 94.1408 269.939C98.6956 265.746 107.179 262.287 116.59 261.191Z" fill="#FF373B"/>
<path d="M87.609 286.351C87.609 286.351 82.9096 302.992 83.3433 310.945C83.7771 318.898 102.563 330.02 102.563 330.02L105.021 321.633C105.021 321.633 97.2127 318.307 96.0559 312.234C94.8991 306.161 101.454 290.942 101.454 290.942C101.454 290.942 98.5622 290.099 94.5979 289.014C90.754 287.954 87.609 286.351 87.609 286.351Z" fill="#F7B59C"/>
<path d="M160.195 286.351C160.195 286.351 164.895 302.992 164.461 310.945C164.027 318.898 145.242 330.02 145.242 330.02L142.783 321.633C142.783 321.633 150.592 318.307 151.748 312.234C152.905 306.161 146.121 290.569 146.121 290.569C146.121 290.569 149.242 289.87 153.207 288.785C157.05 287.737 160.195 286.351 160.195 286.351Z" fill="#F7B59C"/>
<path d="M154.062 333.333H93.1024L91.7166 295.135C91.6805 294.147 92.4758 293.328 93.4639 293.328H153.689C154.677 293.328 155.472 294.147 155.436 295.135L154.062 333.333Z" fill="#00D6A8"/>
<path d="M149.182 342.069C149.182 342.069 150.484 340.539 153.496 340.454C155.448 340.406 160.991 341.659 163.642 341.611C166.281 341.563 169.04 340.985 170.559 343.25C173.137 347.082 172.017 350.528 167.691 351.046C165.329 351.323 163.389 349.769 159.642 350.142C156.015 350.504 150.351 349.287 148.7 346.696" fill="black"/>
<path d="M144.063 340.286C144.063 340.286 146.991 341.117 148.931 341.225C150.871 341.334 155.221 340.852 157.185 342.081C159.318 343.418 158.522 347.045 157.173 347.913C154.992 349.299 153.232 348.576 149.244 347.323C145.256 346.069 140.58 346.539 140.58 346.539" fill="#F7B59C"/>
<path d="M150.003 348.986C150.003 348.986 104.804 348.166 92.7662 346.588C87.7053 345.913 82.9457 344.829 78.9813 343.214C73.5709 339.985 71.5827 332.309 75.2699 325.236C76.9931 321.934 82.2829 322.524 83.03 322.524C83.2228 322.524 83.3192 322.536 83.3192 322.536C97.9718 323.103 111.323 326.85 126.409 332.887C140.459 338.49 151.184 340.828 151.184 340.828C151.967 346.576 150.003 348.986 150.003 348.986Z" fill="black"/>
<path d="M160.884 344.033C160.884 344.033 159.691 343.371 159.282 344.082C158.884 344.805 158.667 347.853 158.872 348.323C159.245 349.167 161.005 348.865 161.005 348.865L162.439 344.997L160.884 344.033Z" fill="black"/>
<path d="M98.8655 342.13C98.8655 342.13 97.5279 340.527 94.395 340.443C92.3586 340.383 86.5988 341.66 83.8514 341.6C81.1041 341.539 78.4049 340.949 76.6577 342.793C73.356 346.263 76.4287 350.625 80.9354 351.179C83.3815 351.48 84.1045 350.071 87.9965 350.468C91.7681 350.854 97.6484 349.613 99.3715 346.926" fill="black"/>
<path d="M104.191 340.298C104.191 340.298 101.154 341.154 99.1419 341.25C97.1296 341.347 92.6109 340.829 90.5625 342.106C88.3453 343.492 89.1526 347.263 90.5504 348.155C92.8037 349.601 94.6473 348.866 98.7925 347.576C102.938 346.287 107.794 346.805 107.794 346.805" fill="#F7B59C"/>
<path d="M169.32 343.058C165.187 344.853 160.15 346.022 154.752 346.721C142.702 348.263 97.4909 348.914 97.4909 348.914C97.4909 348.914 95.5268 346.48 96.3462 340.72C96.3462 340.72 107.107 338.431 121.157 332.888C135.93 327.068 149.04 323.38 163.295 322.73C166.09 323.007 169.308 324.236 171.585 329.02C174.622 335.322 172.272 341.937 169.32 343.058Z" fill="black"/>
<path d="M89.2391 342.588C89.2391 342.588 90.7694 341.744 91.2755 342.66C91.7816 343.576 92.0467 347.48 91.7816 348.07C91.2996 349.143 89.0583 348.757 89.0583 348.757L87.2509 343.829L89.2391 342.588Z" fill="black"/>
<path d="M136.676 234.862C136.676 234.862 140.858 234.44 136.11 245.285C134.315 249.37 133.688 249.105 133.652 249.298C133.616 249.491 132.049 247.936 132.049 247.249C132.049 246.562 132.121 241.2 132.182 240.923C132.266 240.634 136.676 234.862 136.676 234.862Z" fill="black"/>
<path d="M111.999 237.333C111.999 237.333 108.758 236.429 110.071 242.9C110.951 247.274 113.265 249.093 113.289 249.286C113.325 249.479 114.891 247.924 114.891 247.237C114.891 246.551 114.819 241.188 114.759 240.911C114.674 240.634 111.999 237.333 111.999 237.333Z" fill="black"/>
<path d="M112.877 245.43C112.877 245.43 111.503 244.104 111.118 245.876C110.732 247.647 112.166 252.238 113.997 250.467" fill="#F7B59C"/>
<path d="M134.109 245.43C134.109 245.43 135.482 244.104 135.868 245.876C136.253 247.647 134.819 252.238 132.988 250.467" fill="#F7B59C"/>
<path d="M123.916 259.528C123.916 259.528 123.88 259.528 123.808 259.528C122.53 259.601 111.179 259.709 112.613 239.08H134.243C134.243 239.08 136.87 258.287 123.916 259.528Z" fill="#F7B59C"/>
<path d="M131.302 227.512C135.375 228.717 138.002 233.862 135.989 237.935C133.977 242.008 127.506 244.382 120.264 242.839C115.999 241.936 114.637 240.213 112.083 240.345C110.119 240.441 108.323 239.249 107.636 237.405C106.708 234.899 106.154 231.513 108.757 229.488C115.818 231.537 125.193 225.705 131.302 227.512Z" fill="black"/>
<path d="M127.072 312.102C127.072 314.271 125.313 316.03 123.144 316.03C120.975 316.03 119.215 314.271 119.215 312.102C119.215 309.933 120.975 308.173 123.144 308.173C125.313 308.186 127.072 309.933 127.072 312.102Z" fill="#FF373B"/>
<path d="M118.167 257.841C118.167 257.841 118.782 258.251 119.782 258.637C120.77 259.034 122.18 259.336 123.577 259.263C124.313 259.239 124.975 259.131 125.638 258.974C126.289 258.817 126.891 258.637 127.385 258.444C128.397 258.058 129.024 257.697 129.024 257.697C129.024 257.697 128.482 258.203 127.506 258.721C127.012 258.974 126.421 259.251 125.758 259.444C125.108 259.649 124.337 259.781 123.614 259.805C122.854 259.83 122.107 259.757 121.433 259.589C120.746 259.42 120.155 259.155 119.661 258.914C118.673 258.384 118.167 257.841 118.167 257.841Z" fill="#F7B59C"/>
<path d="M118.938 247.792C119.023 248.527 119.083 249.407 118.275 249.503C117.89 249.551 117.54 249.262 117.456 249.033C117.299 248.611 117.372 248.382 117.36 247.985C117.311 247.057 118.83 246.852 118.938 247.792Z" fill="black"/>
<path d="M118.566 248.418C118.602 248.611 118.578 248.792 118.373 248.864C118.313 248.888 118.228 248.84 118.204 248.78C118.156 248.671 118.204 248.599 118.192 248.503C118.156 248.25 118.518 248.177 118.566 248.418Z" fill="white"/>
<path d="M128.855 247.792C128.94 248.527 129 249.407 128.192 249.503C127.807 249.551 127.457 249.262 127.373 249.033C127.216 248.611 127.289 248.382 127.277 247.985C127.241 247.057 128.759 246.852 128.855 247.792Z" fill="black"/>
<path d="M128.482 248.418C128.518 248.611 128.494 248.792 128.289 248.864C128.229 248.888 128.144 248.84 128.12 248.78C128.072 248.671 128.12 248.599 128.108 248.503C128.084 248.25 128.434 248.177 128.482 248.418Z" fill="white"/>
<path d="M130.062 245.081C130.122 245.262 130.074 245.093 130.122 245.334C130.158 245.587 129.905 245.744 129.58 245.744C128.76 245.756 126.254 245.876 126.254 245.876C125.989 245.924 126.025 245.731 126.121 245.635C126.531 245.249 126.977 244.743 129.327 244.731C129.652 244.731 129.977 244.84 130.062 245.081Z" fill="black"/>
<path d="M116.203 245.081C116.143 245.262 116.191 245.093 116.143 245.334C116.107 245.587 116.36 245.744 116.685 245.744C117.505 245.756 120.011 245.876 120.011 245.876C120.276 245.924 120.24 245.731 120.144 245.635C119.734 245.249 119.288 244.743 116.938 244.731C116.601 244.731 116.288 244.84 116.203 245.081Z" fill="black"/>
<path d="M123.155 249.166C123.155 249.166 122.203 251.25 122.505 251.66C122.806 252.07 123.926 252.094 123.926 252.094" stroke="#F7B59C" stroke-width="0.814815" stroke-miterlimit="10" stroke-linecap="round"/>
<path d="M120.614 255.142C120.614 255.142 123.602 256.901 126.289 254.998" stroke="#F7B59C" stroke-width="0.814815" stroke-miterlimit="10" stroke-linecap="round"/>
<path d="M353.418 345.215V264.686C353.418 264.505 353.273 264.361 353.092 264.361H351.14C350.96 264.361 350.815 264.505 350.815 264.686V345.215C350.309 345.335 349.923 345.769 349.923 346.324C349.923 346.962 350.441 347.48 351.08 347.48H353.165C353.803 347.48 354.322 346.962 354.322 346.324C354.309 345.769 353.924 345.335 353.418 345.215Z" fill="black"/>
<path d="M513.175 345.167H513.114V264.373H510.512V345.167H510.451C509.994 345.167 509.62 345.54 509.62 345.998V346.649C509.62 347.107 509.994 347.48 510.451 347.48H513.187C513.645 347.48 514.018 347.107 514.018 346.649V345.998C514.006 345.528 513.633 345.167 513.175 345.167Z" fill="black"/>
<path d="M533.452 265.168H328.063C326.726 265.168 325.641 264.084 325.641 262.746C325.641 261.409 326.726 260.324 328.063 260.324H533.452C534.789 260.324 535.874 261.409 535.874 262.746C535.874 264.084 534.789 265.168 533.452 265.168Z" fill="black"/>
<path d="M437.56 257.637H378.275L366.539 220.74C365.948 218.885 367.334 216.981 369.286 216.981H422.522C423.775 216.981 424.884 217.788 425.269 218.993L437.56 257.637Z" fill="#FF373B"/>
<path d="M436.368 257.637H380.228L368.431 220.162C368.214 219.463 368.732 218.752 369.455 218.752H423.245C423.776 218.752 424.245 219.102 424.402 219.608L436.368 257.637Z" fill="white"/>
<path d="M400.989 224.584H375.131C374.745 224.584 374.432 224.271 374.432 223.885C374.432 223.5 374.745 223.187 375.131 223.187H400.989C401.375 223.187 401.688 223.5 401.688 223.885C401.688 224.271 401.375 224.584 400.989 224.584Z" fill="#00A185"/>
<path d="M404.989 227.802H376.154C375.768 227.802 375.455 227.488 375.455 227.103C375.455 226.717 375.768 226.404 376.154 226.404H404.989C405.375 226.404 405.688 226.717 405.688 227.103C405.688 227.488 405.375 227.802 404.989 227.802Z" fill="#00A185"/>
<path d="M402.326 231.031H377.214C376.829 231.031 376.515 230.718 376.515 230.332C376.515 229.947 376.829 229.633 377.214 229.633H402.326C402.712 229.633 403.025 229.947 403.025 230.332C403.025 230.718 402.712 231.031 402.326 231.031Z" fill="#00A185"/>
<path d="M398.133 234.26H378.227C377.842 234.26 377.528 233.947 377.528 233.562C377.528 233.176 377.842 232.863 378.227 232.863H398.133C398.519 232.863 398.832 233.176 398.832 233.562C398.832 233.947 398.519 234.26 398.133 234.26Z" fill="#00A185"/>
<path d="M408.123 237.478H379.288C378.902 237.478 378.589 237.164 378.589 236.779C378.589 236.393 378.902 236.08 379.288 236.08H408.123C408.508 236.08 408.822 236.393 408.822 236.779C408.822 237.164 408.508 237.478 408.123 237.478Z" fill="#00A185"/>
<path d="M405.433 240.707H380.322C379.936 240.707 379.623 240.394 379.623 240.008C379.623 239.622 379.936 239.309 380.322 239.309H405.433C405.819 239.309 406.132 239.622 406.132 240.008C406.132 240.394 405.819 240.707 405.433 240.707Z" fill="#00A185"/>
<path d="M411.207 247.154H382.372C381.986 247.154 381.673 246.84 381.673 246.455C381.673 246.069 381.986 245.756 382.372 245.756H411.207C411.593 245.756 411.906 246.069 411.906 246.455C411.906 246.84 411.593 247.154 411.207 247.154Z" fill="#00A185"/>
<path d="M412.267 250.383H383.432C383.047 250.383 382.733 250.07 382.733 249.684C382.733 249.299 383.047 248.985 383.432 248.985H412.267C412.653 248.985 412.966 249.299 412.966 249.684C412.954 250.07 412.653 250.383 412.267 250.383Z" fill="#00A185"/>
<path d="M427.595 250.383H418.28C417.413 250.383 416.642 249.817 416.389 248.997L408.629 224.416C408.219 223.138 409.183 221.825 410.52 221.825H419.835C420.703 221.825 421.474 222.391 421.727 223.211L429.487 247.792C429.897 249.07 428.945 250.383 427.595 250.383Z" fill="#00A185"/>
<path d="M442.525 260.324H378.058C377.01 260.324 376.154 259.469 376.154 258.42C376.154 257.372 377.01 256.516 378.058 256.516H442.525C443.573 256.516 444.429 257.372 444.429 258.42C444.441 259.469 443.585 260.324 442.525 260.324Z" fill="#FF373B"/>
<path d="M448.935 211.028C448.441 211.028 447.959 210.775 447.706 210.317L445.838 207.027C445.645 206.69 445.597 206.305 445.706 205.943C445.814 205.569 446.055 205.268 446.405 205.087L451.61 202.34C452.285 201.979 453.14 202.244 453.502 202.906L455.273 206.172C455.454 206.497 455.49 206.883 455.382 207.244C455.273 207.606 455.032 207.907 454.707 208.076L449.598 210.847C449.381 210.98 449.164 211.028 448.935 211.028ZM452.261 202.834C452.14 202.834 452.02 202.858 451.911 202.919L446.706 205.666C446.525 205.762 446.393 205.931 446.332 206.124C446.272 206.317 446.296 206.533 446.405 206.714L448.272 210.004C448.477 210.365 448.935 210.486 449.297 210.293L454.406 207.522C454.586 207.425 454.707 207.269 454.767 207.076C454.827 206.883 454.803 206.678 454.707 206.497L452.936 203.232C452.791 202.979 452.526 202.834 452.261 202.834Z" fill="black"/>
<path d="M439.137 239.695C438.715 240.225 438.39 240.575 438.39 240.575C438.39 240.575 435.269 238.213 434.389 237.984C433.522 237.767 431.642 238.297 430.606 238.514C428.907 238.864 429.606 237.478 429.606 237.478C429.606 237.478 428.461 237.875 427.461 238.285C426.316 238.755 425.123 239.707 424.774 239.791C424.123 239.948 423.472 239.623 424.087 238.707C424.954 237.405 429.051 233.646 430.076 233.152C431.377 232.537 433.148 231.634 434.57 232.164C436.004 232.694 440.619 236.164 440.619 236.164C440.752 237.345 439.836 238.791 439.137 239.695Z" fill="#F7B59C"/>
<path d="M437.909 240.574C437.909 240.574 453.236 253.986 464.72 255.347C476.191 256.709 495.543 234.947 495.543 234.947C495.543 234.947 494.326 223.355 487.169 224.717C480.011 226.078 470.419 243.322 466.274 244.129C462.117 244.936 440.512 235.778 440.512 235.778C440.512 235.778 439.897 236.212 439.174 237.429C438.391 238.731 437.909 240.574 437.909 240.574Z" fill="#FF373B"/>
<path d="M472.011 188.182C468.36 184.001 462.95 183.543 458.78 184.013C453.298 184.615 448.538 188.314 446.96 193.592C446.273 195.87 446.14 198.545 447.213 201.485C450.623 210.884 454.238 216.065 457.021 218.62C458.238 219.74 460.817 218.21 463.407 217.306C463.745 217.186 464.13 217.33 464.299 217.644L465.781 220.379L476.469 218.198C476.469 218.198 474.867 214.812 474.216 211.992C475.59 210.221 478.699 195.846 472.011 188.182Z" fill="#F7B59C"/>
<path d="M452.561 201.605C453.754 201.509 454.886 202.136 455.356 203.244C456.152 205.124 457.369 207.763 458.332 208.618C458.525 208.799 458.959 208.859 459.393 208.63C459.815 208.413 459.899 208.052 459.875 207.811C459.791 207.004 459.188 205.232 458.766 204.064C458.224 202.557 458.863 200.967 460.658 200.569C460.983 200.497 461.803 200.545 462.225 200.665C465.068 201.533 463.104 205.991 463.056 208.317C463.02 209.956 464.984 213.764 465.852 214.101C468.707 215.222 473.045 214.209 475.335 211.366C477.636 208.534 478.13 199.039 476.877 193.363C475.624 187.688 471.081 184.483 469.575 184.121C468.84 183.94 468.225 183.94 467.792 183.989C467.334 184.037 466.888 183.88 466.538 183.579C465.032 182.265 460.514 179.253 453.356 182.338C444.439 186.194 442.933 194.412 443.102 198.147C443.21 200.569 445.114 200.388 446.427 199.967C447.15 199.738 447.946 199.918 448.524 200.424C449.271 201.075 450.56 201.762 452.561 201.605Z" fill="black"/>
<path d="M463.915 221.825C463.915 221.825 462.963 220.765 463.324 220.114C463.77 219.307 468.614 215.475 474.265 215.68C475.145 215.716 476.217 215.716 477.278 218.005C478.326 220.295 478.579 221.825 478.579 221.825H463.915Z" fill="#FF373B"/>
<path d="M489.108 290.231C488.771 290.316 488.397 290.4 488.012 290.472C483.216 291.364 475.408 291.473 475.408 291.473C460.02 291.195 453.188 282.905 450.681 278.615C449.802 277.109 449.452 276.109 449.452 276.109C450.332 275.639 453.405 272.844 454.561 269.036C455.718 265.216 454.501 256.118 452.513 252.648C451.416 250.744 448.187 246.876 446.151 242.815C444.488 239.466 443.62 235.971 445.44 233.308C449.958 226.657 457.104 223.126 457.104 223.126C457.104 223.126 470.202 217.884 481.36 219.065C488.433 219.812 494.735 223.138 496.422 232.055C500.772 254.998 489.108 290.231 489.108 290.231Z" fill="#FF373B"/>
<path d="M456.913 335.66C456.913 335.66 455.817 336.949 454.154 337.214C452.31 337.515 450.936 336.611 450.936 336.611L450.081 334.141L455.985 332.852L456.913 335.66Z" fill="#F7B59C"/>
<path d="M425.968 338.72C425.968 338.72 424.679 339.817 422.992 339.817C421.124 339.817 419.907 338.72 419.907 338.72L419.449 336.141H425.51L425.968 338.72Z" fill="#F7B59C"/>
<path d="M456.913 332.864C456.527 333.045 455.347 333.527 454.925 333.671C452.696 334.418 449.514 335.069 449.514 335.069C444.442 324.092 436.151 296.473 436.151 296.473C434.995 291.593 438.477 289.617 441.525 289.436C442.586 289.376 443.586 289.521 444.333 289.846C447.249 291.087 451.527 299.329 451.527 299.329C451.527 299.329 452.828 302.185 454.19 308.077C455.564 313.97 456.913 332.864 456.913 332.864Z" fill="black"/>
<path d="M468.371 290.702C468.335 293.473 467.6 297.907 463.443 299.161C457.237 301.016 452.658 299.968 445.452 298.727C439.428 297.69 429.908 294.16 426.992 293.051C426.619 292.907 426.679 293.099 426.763 293.497C428.137 300.221 425.908 336.575 425.908 336.575C425.908 336.575 424.92 336.876 423.859 337.057C423.462 337.117 423.052 337.166 422.678 337.166C421.112 337.166 418.244 336.876 418.244 336.876C418.244 336.876 412.725 311.271 411.858 296.943C410.99 282.616 411.858 280.399 418.654 278.049C426.221 275.422 449.477 276.121 449.477 276.121L449.489 276.133C449.573 276.386 451.212 280.857 456.032 284.906C458.888 287.304 462.901 289.569 468.371 290.702Z" fill="black"/>
<path d="M475.41 305.27V342.058C475.41 343.371 474.35 344.431 473.036 344.431C472.506 344.431 472.024 344.263 471.626 343.974C471.036 343.54 470.662 342.841 470.662 342.058V305.27H475.41Z" fill="#00A185"/>
<path d="M475.409 306.86V341.949C475.409 343.094 474.493 344.251 473.36 344.408C472.806 344.48 472.276 344.359 471.842 344.106C471.77 343.962 471.673 343.793 471.601 343.661V307.837C471.601 307.294 472.035 306.86 472.577 306.86H475.409Z" fill="#00A185"/>
<path d="M478.422 304.029C478.422 304.209 478.398 304.366 478.35 304.535C478.266 304.896 478.073 305.222 477.82 305.475C477.458 305.848 476.94 306.077 476.374 306.077H469.301C468.18 306.077 467.252 305.161 467.252 304.029C467.252 303.462 467.481 302.944 467.855 302.583C468.228 302.209 468.734 301.98 469.301 301.98H476.374C477.506 301.98 478.422 302.896 478.422 304.029Z" fill="#00A185"/>
<path d="M478.349 304.535C478.264 304.896 478.071 305.221 477.818 305.474C477.457 305.848 476.939 306.077 476.372 306.077H469.613C469.697 305.715 469.89 305.39 470.143 305.137C470.516 304.776 471.022 304.547 471.589 304.547H478.349V304.535Z" fill="#00A185"/>
<path d="M503.604 239.851C503.604 239.875 503.592 239.888 503.592 239.912C503.568 240.129 503.52 240.345 503.472 240.61C502.893 243.008 500.869 247.708 500.58 254.757C500.387 259.083 500.568 270.566 500.363 277.519C500.363 277.519 500.363 277.519 500.363 277.531C500.327 278.567 500.29 279.495 500.254 280.29C499.881 286.436 497.784 295.545 491.374 300.149C484.855 305.041 471.744 304.197 463.792 304.017C455.839 303.824 436.113 300.245 434.535 297.305C434.161 296.654 434.089 296.076 434.161 295.618C434.161 295.606 434.161 295.606 434.173 295.594C434.258 295.136 434.474 294.774 434.788 294.461C435.535 293.714 436.668 293.485 437.692 293.738C440.909 294.533 450.465 296.389 454.766 290.93C459.972 284.327 459.321 276.688 461.55 260.613C463.659 245.394 468.407 240.731 476.263 237.694C484.662 234.465 498.158 235.851 501.52 236.863C502.833 237.261 503.725 238.49 503.604 239.851Z" fill="#00A185"/>
<path d="M500.569 346.588C500.569 347.07 500.172 347.456 499.702 347.456H446.369C445.887 347.456 445.502 347.07 445.502 346.588C445.502 346.166 445.803 345.805 446.237 345.733L473.048 341.383L479.795 342.479L499.846 345.733C500.256 345.805 500.569 346.166 500.569 346.588Z" fill="#00A185"/>
<path d="M419.907 338.72C419.907 338.72 421.509 339.359 422.968 339.359C424.715 339.359 425.98 338.72 425.98 338.72C425.98 338.72 429.089 342.672 427.438 347.083C427.354 347.312 427.125 347.468 426.872 347.468H406.038C405.784 347.468 405.568 347.275 405.568 347.022C405.556 346.504 405.772 345.697 407.038 345.299C408.966 344.709 410.942 344.383 412.436 343.853C413.93 343.323 416.063 341.142 417.256 340.732C418.774 340.226 419.907 338.72 419.907 338.72Z" fill="black"/>
<path d="M450.923 336.623C450.923 336.623 452.61 336.997 454.044 336.768C455.767 336.491 456.924 335.659 456.924 335.659C456.924 335.659 460.623 339.07 459.684 343.685C459.635 343.926 459.431 344.106 459.19 344.155C459.19 344.155 448.2 346.613 444.477 347.155C442.199 347.48 438.621 347.48 438.621 347.48C438.355 347.492 438.126 347.348 438.078 347.095C437.994 346.589 438.066 345.745 439.247 345.167C441.055 344.275 442.958 343.648 444.344 342.889C445.73 342.13 447.489 339.636 448.61 339.045C450.044 338.286 450.923 336.623 450.923 336.623Z" fill="black"/>
<path d="M409.11 258.312C409.11 258.312 406.977 257.432 405.856 257.034C405.41 256.878 404.989 256.769 404.651 256.685C404.169 256.577 403.675 256.528 403.181 256.528H391.047C390.698 256.528 390.42 256.239 390.42 255.89C390.42 255.408 390.661 254.974 391.047 254.721L392.348 253.877L396.24 251.359C398.168 250.118 399.566 250.046 401.856 250.238C402.289 250.275 403.928 250.973 404.242 251.07C406.519 251.817 407.013 252.166 408.519 252.697C409.11 252.913 409.519 253.022 409.796 253.082C410.218 253.166 410.315 253.13 410.315 253.13C410.736 256.239 409.11 258.312 409.11 258.312Z" fill="#F7B59C"/>
<path d="M456.634 229.32C455.044 228.344 450.236 225.681 444.03 235.345C437.825 245.021 435.933 249.142 434.137 252.142C431.968 253.444 410.11 252.889 410.11 252.889C410.11 252.889 408.761 255.793 408.532 258.312C408.532 258.312 420.136 264.084 435.547 265.168C447.477 265.168 459.767 241.852 460.322 238.936C460.876 236.02 460.43 231.634 456.634 229.32Z" fill="#FF373B"/>
<path d="M446.575 208.811C446.454 208.811 446.346 208.751 446.286 208.63C446.201 208.474 446.262 208.281 446.43 208.197L458.516 202.003C459.878 201.304 462.685 199.87 464.758 202.919C464.854 203.063 464.818 203.268 464.674 203.365C464.529 203.461 464.324 203.425 464.228 203.28C462.613 200.906 460.673 201.629 458.842 202.569L446.732 208.775C446.671 208.799 446.623 208.811 446.575 208.811Z" fill="black"/>
<path d="M458.479 202.641L460.07 207.738C460.07 207.738 461.311 208.943 462.504 207.558C463.697 206.184 464.745 201.4 462.552 200.605C460.371 199.798 459.034 200.93 458.479 202.641Z" fill="#F7B59C"/>
<path d="M503.122 238.044C503.11 238.02 503.11 238.008 503.11 238.008C502.736 237.465 502.182 237.056 501.519 236.863C498.146 235.851 484.662 234.465 476.263 237.694C468.407 240.731 463.659 245.394 461.55 260.613C459.321 276.7 459.972 284.327 454.766 290.93C450.464 296.389 440.897 294.533 437.692 293.738C436.667 293.473 435.523 293.714 434.788 294.461C434.486 294.762 434.245 295.136 434.173 295.606C434.089 296.064 434.173 296.642 434.547 297.293C436.125 300.221 455.839 303.812 463.804 304.004C471.756 304.185 484.867 305.029 491.386 300.136C497.796 295.521 499.893 286.424 500.266 280.278C500.314 279.483 500.351 278.555 500.375 277.519C500.242 278.085 495.832 290.497 480.324 287.629C465.382 284.869 464.02 268.482 464.563 262.975C464.635 262.372 464.707 261.794 464.768 261.252C464.9 260.228 465.72 255.914 466.744 252.13C467.419 249.624 469.19 245.792 472.624 242.996C473.058 242.647 473.564 242.406 474.046 242.141C474.191 242.056 474.359 241.96 474.528 241.876C474.757 241.755 474.986 241.635 475.263 241.514C475.528 241.406 475.781 241.285 476.046 241.177C476.239 241.092 476.444 241.02 476.637 240.948C488.783 236.14 501.833 239.273 502.688 239.405C503.472 239.55 503.182 238.273 503.122 238.044Z" fill="#00A185"/>
<path d="M172.307 356.071L173.633 352.529C173.633 352.529 194.756 353.529 204.782 359.759L185.719 360.12L172.307 356.071Z" fill="#F7B59C"/>
<path d="M237.268 356.071L235.942 352.529C235.942 352.529 214.819 353.529 204.794 359.759L223.856 360.12L237.268 356.071Z" fill="#F7B59C"/>
<path d="M204.782 359.759C193.335 355.312 171.212 354.999 171.212 354.999V362.542H199.866H209.699H238.353V354.999C238.353 355.011 216.23 355.324 204.782 359.759Z" fill="#F7B59C"/>
<path d="M240.943 360.445H168.621V363H240.943V360.445Z" fill="#FF373B"/>
<path d="M387.879 87.0958L394.253 82.9145C395.579 83.758 397.145 84.2641 398.832 84.2641H429.523C434.235 84.2641 438.054 80.4443 438.054 75.7328V66.0809C438.054 61.3695 434.235 57.5497 429.523 57.5497H398.832C394.121 57.5497 390.301 61.3695 390.301 66.0809V75.7328C390.301 77.5041 390.843 79.155 391.771 80.5166L387.879 87.0958Z" fill="#FF373B"/>
<path d="M482.577 185.735L478.492 187.917L480.54 182.603" fill="black"/>
<path d="M495.252 178.939C495.252 183.711 491.384 187.567 486.612 187.567C481.841 187.567 477.985 183.699 477.985 178.939C477.985 174.168 481.853 170.312 486.612 170.312C491.384 170.312 495.252 174.18 495.252 178.939Z" fill="#FF373B"/>
<path d="M482.988 178.12L485.603 181.385L490.254 176.505" stroke="white" stroke-width="1.5721" stroke-miterlimit="10" stroke-linecap="round" stroke-linejoin="round"/>
<path d="M101.333 225.391L107.177 228.5L104.261 220.909" fill="#00D6A8"/>
<path d="M83.2098 215.679C83.2098 222.499 88.7407 228.03 95.5609 228.03C102.381 228.03 107.912 222.499 107.912 215.679C107.912 208.859 102.381 203.328 95.5609 203.328C88.7407 203.328 83.2098 208.859 83.2098 215.679Z" fill="#00D6A8"/>
<path d="M90.3571 214.498L94.1045 219.162L100.756 212.185" stroke="white" stroke-width="2.24905" stroke-miterlimit="10" stroke-linecap="round" stroke-linejoin="round"/>
<path d="M211.82 310.258C212.169 312.981 210.253 315.476 207.518 315.837C204.795 316.186 202.3 314.271 201.939 311.535C201.589 308.812 203.505 306.318 206.24 305.956C208.964 305.607 211.47 307.535 211.82 310.258Z" fill="#FF373B"/>
<path d="M204.734 311.403L206.927 313.042L209.072 309.198" stroke="white" stroke-width="1.72154" stroke-miterlimit="10" stroke-linecap="round" stroke-linejoin="round"/>
<path d="M225.217 48.3676C226.072 50.9825 224.651 53.7901 222.036 54.6456C219.421 55.5011 216.613 54.0793 215.758 51.4644C214.902 48.8496 216.324 46.042 218.939 45.1865C221.554 44.331 224.361 45.7528 225.217 48.3676Z" fill="#FF373B"/>
<path d="M218.48 50.826L220.927 52.019L222.324 47.8497" stroke="white" stroke-width="1.72154" stroke-miterlimit="10" stroke-linecap="round" stroke-linejoin="round"/>
<path d="M461.152 145.814C461.152 146.827 460.332 147.646 459.32 147.646C458.308 147.646 457.489 146.827 457.489 145.814C457.489 144.802 458.308 143.983 459.32 143.983C460.332 143.995 461.152 144.814 461.152 145.814Z" fill="#00D6A8"/>
<path d="M487.48 63.2976C487.48 64.3098 486.661 65.1292 485.649 65.1292C484.637 65.1292 483.817 64.3098 483.817 63.2976C483.817 62.2855 484.637 61.4661 485.649 61.4661C486.661 61.4781 487.48 62.2975 487.48 63.2976Z" fill="#FF373B"/>
<path d="M553.827 226.054C553.827 228.536 551.815 230.549 549.332 230.549C546.85 230.549 544.838 228.536 544.838 226.054C544.838 223.572 546.85 221.56 549.332 221.56C551.815 221.56 553.827 223.572 553.827 226.054Z" fill="#00D6A8"/>
<path d="M361.391 7.41043C361.391 9.02511 360.077 10.3265 358.475 10.3265C356.86 10.3265 355.559 9.01306 355.559 7.41043C355.559 5.79576 356.872 4.49438 358.475 4.49438C360.089 4.49438 361.391 5.79576 361.391 7.41043Z" fill="#FF373B"/>
<path d="M47.2661 117.22C46.9408 117.22 46.6877 116.955 46.6877 116.642V112.521C46.6877 112.195 46.9528 111.942 47.2661 111.942C47.5915 111.942 47.8445 112.207 47.8445 112.521V116.642C47.8445 116.955 47.5915 117.22 47.2661 117.22Z" fill="#FF373B"/>
<path d="M49.3263 115.16H45.2052C44.8799 115.16 44.6268 114.895 44.6268 114.581C44.6268 114.256 44.8919 114.003 45.2052 114.003H49.3263C49.6516 114.003 49.9046 114.268 49.9046 114.581C49.9046 114.895 49.6516 115.16 49.3263 115.16Z" fill="#FF373B"/>
<g opacity="0.3">
<g opacity="0.3">
<g opacity="0.3">
<path opacity="0.3" d="M86.8135 5.28986C86.4882 5.28986 86.2351 5.02476 86.2351 4.71147V0.57839C86.2351 0.253046 86.5002 0 86.8135 0C87.1388 0 87.3919 0.265095 87.3919 0.57839V4.69942C87.3919 5.02476 87.1268 5.28986 86.8135 5.28986Z" fill="white"/>
</g>
<g opacity="0.3">
<path opacity="0.3" d="M88.8736 3.22917H84.7526C84.4272 3.22917 84.1742 2.96407 84.1742 2.65078C84.1742 2.32543 84.4393 2.07239 84.7526 2.07239H88.8736C89.199 2.07239 89.452 2.33748 89.452 2.65078C89.452 2.96407 89.1869 3.22917 88.8736 3.22917Z" fill="white"/>
</g>
</g>
</g>
<path d="M443.911 24.4491C443.586 24.4491 443.333 24.184 443.333 23.8707V19.7497C443.333 19.4243 443.598 19.1713 443.911 19.1713C444.237 19.1713 444.49 19.4364 444.49 19.7497V23.8707C444.49 24.184 444.224 24.4491 443.911 24.4491Z" fill="#00D6A8"/>
<path d="M445.971 22.3886H441.85C441.525 22.3886 441.272 22.1235 441.272 21.8102C441.272 21.4849 441.537 21.2318 441.85 21.2318H445.971C446.297 21.2318 446.55 21.4969 446.55 21.8102C446.55 22.1235 446.285 22.3886 445.971 22.3886Z" fill="#00D6A8"/>
<path d="M259.548 25.654C259.223 25.654 258.97 25.3889 258.97 25.0756V20.9546C258.97 20.6293 259.235 20.3762 259.548 20.3762C259.873 20.3762 260.126 20.6413 260.126 20.9546V25.0756C260.126 25.3889 259.873 25.654 259.548 25.654Z" fill="#00D6A8"/>
<path d="M261.608 23.5934H257.487C257.162 23.5934 256.909 23.3283 256.909 23.015C256.909 22.6897 257.174 22.4366 257.487 22.4366H261.608C261.933 22.4366 262.187 22.7017 262.187 23.015C262.187 23.3283 261.921 23.5934 261.608 23.5934Z" fill="#00D6A8"/>
<path d="M538.404 293.665C538.079 293.665 537.826 293.4 537.826 293.087V288.966C537.826 288.64 538.091 288.387 538.404 288.387C538.73 288.387 538.983 288.653 538.983 288.966V293.087C538.983 293.4 538.718 293.665 538.404 293.665Z" fill="#FF373B"/>
<path d="M540.464 291.605H536.343C536.018 291.605 535.765 291.34 535.765 291.027C535.765 290.701 536.03 290.448 536.343 290.448H540.464C540.79 290.448 541.043 290.713 541.043 291.027C541.043 291.352 540.778 291.605 540.464 291.605Z" fill="#FF373B"/>
<path d="M419.074 107.267V138.681C419.074 139.211 418.64 139.645 418.11 139.645H387.046C386.528 139.645 386.094 139.211 386.094 138.681V107.267C386.094 106.749 386.528 106.315 387.046 106.315H418.11C418.64 106.315 419.074 106.749 419.074 107.267Z" fill="white"/>
<path d="M419.077 132.788V138.681C419.077 139.211 418.643 139.645 418.113 139.645H402.702L403.352 132.801L410.606 124.775L419.077 132.788Z" fill="#00D6A8"/>
<path d="M414.75 139.633H387.036C386.518 139.633 386.084 139.199 386.084 138.669V132.776L396.929 121.389L414.75 139.633Z" fill="#FF373B"/>
<path d="M414.713 115.329C414.713 117.437 413.002 119.148 410.893 119.148C408.784 119.148 407.073 117.437 407.073 115.329C407.073 113.22 408.784 111.509 410.893 111.509C413.002 111.509 414.713 113.22 414.713 115.329Z" fill="#FF373B"/>
<path d="M418.125 145.019H387.048C386.518 145.019 386.096 144.597 386.096 144.067V143.067C386.096 142.537 386.518 142.115 387.048 142.115H418.125C418.655 142.115 419.077 142.537 419.077 143.067V144.067C419.077 144.597 418.643 145.019 418.125 145.019Z" fill="#00D6A8"/>
<path d="M418.125 150.212H387.048C386.518 150.212 386.096 149.791 386.096 149.261V148.26C386.096 147.73 386.518 147.308 387.048 147.308H418.125C418.655 147.308 419.077 147.73 419.077 148.26V149.261C419.077 149.791 418.643 150.212 418.125 150.212Z" fill="#FF373B"/>
<path d="M398.806 78.7693C398.806 78.3475 399.155 78.0101 399.565 78.0101H429.075C429.497 78.0101 429.846 78.3596 429.846 78.7693C429.846 79.191 429.497 79.5284 429.075 79.5284H399.565C399.143 79.5284 398.806 79.191 398.806 78.7693Z" fill="white"/>
<path d="M429.077 75.5403H413.485C413.063 75.5403 412.714 75.1909 412.714 74.7691C412.714 74.3474 413.063 74.01 413.485 74.01H429.077C429.499 74.01 429.848 74.3595 429.848 74.7691C429.848 75.2029 429.499 75.5403 429.077 75.5403Z" fill="white"/>
<path d="M398.806 70.7927C398.806 70.371 399.155 70.0336 399.565 70.0336H429.075C429.497 70.0336 429.846 70.383 429.846 70.7927C429.846 71.2145 429.497 71.5639 429.075 71.5639H399.565C399.143 71.5518 398.806 71.2145 398.806 70.7927Z" fill="white"/>
<path d="M429.075 67.5632H407.301C406.879 67.5632 406.542 67.2137 406.542 66.792C406.542 66.3702 406.891 66.0328 407.301 66.0328H429.075C429.497 66.0328 429.846 66.3823 429.846 66.792C429.846 67.2258 429.497 67.5632 429.075 67.5632Z" fill="white"/>
<path d="M398.806 62.8154C398.806 62.3937 399.155 62.0563 399.565 62.0563H429.075C429.497 62.0563 429.846 62.4057 429.846 62.8154C429.846 63.2372 429.497 63.5866 429.075 63.5866H399.565C399.143 63.5745 398.806 63.2251 398.806 62.8154Z" fill="white"/>
<path d="M89.8009 156.43V174.746C89.8009 175.023 89.7165 175.288 89.5599 175.481C89.3309 175.819 88.9333 176.035 88.5115 176.035H61.6164C61.267 176.035 60.9537 175.891 60.7247 175.686V158.684C60.7247 158.057 61.2308 157.563 61.8574 157.563H80.7635C81.3901 157.563 81.8842 157.057 81.8842 156.43C81.8842 155.804 82.3903 155.298 83.0048 155.298H88.6802C89.2948 155.298 89.8009 155.804 89.8009 156.43Z" fill="black"/>
<path d="M89.5609 175.481C89.332 175.818 88.9343 176.035 88.5126 176.035H61.6174C61.268 176.035 60.9547 175.891 60.7258 175.686C60.6173 175.577 60.5209 175.445 60.4607 175.3C60.4366 175.276 60.4366 175.24 60.4245 175.216L54.4358 161.551C54.1225 160.84 54.6406 160.045 55.4239 160.045H82.09C82.5238 160.045 82.9094 160.298 83.0781 160.684L88.6813 173.481L89.5609 175.481Z" fill="#FF373B"/>
<path d="M533.271 120.45C533.271 122.643 532.801 124.716 531.933 126.583C531.523 127.487 531.017 128.355 530.427 129.162C530.029 129.704 529.583 130.234 529.101 130.716C529.101 130.716 529.089 130.729 529.077 130.729C528.68 131.15 528.246 131.536 527.812 131.897C527.149 132.44 526.451 132.922 525.703 133.331C525.113 133.657 524.511 133.946 523.884 134.187C522.474 134.741 520.968 135.091 519.389 135.175C519.088 135.199 518.787 135.211 518.486 135.211C514.955 135.211 511.726 133.97 509.183 131.921C505.845 129.21 503.725 125.077 503.725 120.45C503.725 118.329 504.17 116.341 504.966 114.522C506.809 110.316 510.545 107.135 515.1 106.075C515.136 106.063 515.196 106.051 515.232 106.038C515.702 105.93 516.172 105.846 516.666 105.785C517.269 105.713 517.871 105.677 518.498 105.677C524.113 105.677 528.993 108.822 531.499 113.437C531.668 113.75 531.825 114.064 531.969 114.401C532.801 116.233 533.271 118.281 533.271 120.45Z" fill="#00D6A8"/>
<g opacity="0.5">
<path opacity="0.5" d="M522.22 133.524C522.329 134.259 521.425 134.705 520.702 134.873C520.268 134.982 519.846 135.09 519.413 135.175C519.111 135.199 518.81 135.211 518.509 135.211C514.978 135.211 511.749 133.982 509.206 131.921C509.182 131.801 509.17 131.668 509.17 131.536C509.158 130.969 509.351 130.427 509.484 129.873C509.592 129.415 509.664 128.933 509.676 128.463C509.688 128.294 509.676 128.101 509.568 127.969C509.471 127.86 509.315 127.812 509.17 127.752C508.387 127.403 507.736 126.354 508.062 125.559C508.785 123.788 511.303 124.366 509.64 119.968C509.279 119.028 510.038 118.787 509.978 118.522C509.833 117.931 507.652 118.1 507.062 118.004C506.664 117.943 506.242 117.907 505.953 117.63C505.772 117.473 505.664 117.245 505.567 117.016C505.242 116.22 505.049 115.389 504.977 114.533C506.833 110.292 510.628 107.087 515.243 106.05L515.292 106.532C515.135 108.207 515.038 109.882 514.978 111.569C514.966 111.87 514.954 112.172 514.846 112.449C514.593 113.051 513.87 113.365 513.231 113.28C512.99 113.244 512.737 113.184 512.52 113.304C512.183 113.497 512.267 114.003 512.207 114.389C512.11 115.064 511.52 115.521 511.11 116.064C510.701 116.606 510.544 117.522 511.134 117.847C511.291 117.931 511.472 117.968 511.568 118.112C511.689 118.317 511.532 118.57 511.327 118.703C511.134 118.823 510.893 118.895 510.749 119.076C510.46 119.426 510.664 119.98 511.002 120.281C511.327 120.594 511.773 120.787 512.05 121.137C512.412 121.582 512.496 122.209 512.894 122.619C513.858 123.619 515.846 122.571 516.834 123.559C517.34 124.065 517.34 124.908 517.786 125.463C518.063 125.824 518.497 126.017 518.87 126.282C519.714 126.884 520.268 127.885 520.328 128.921C520.389 130.029 519.979 131.331 520.738 132.138C521.232 132.62 522.112 132.825 522.22 133.524Z" fill="white"/>
</g>
<g opacity="0.5">
<path opacity="0.5" d="M531.497 113.437C531.244 113.449 530.991 113.461 530.762 113.497C530.666 113.509 530.569 113.545 530.509 113.618C530.413 113.726 530.425 113.895 530.437 114.052C530.461 114.534 530.256 115.028 529.882 115.341C529.81 115.401 529.726 115.461 529.629 115.473C529.352 115.522 529.172 115.196 529.063 114.931C528.786 114.22 528.521 113.521 528.256 112.81C528.171 112.594 528.075 112.365 527.894 112.22C527.569 111.967 527.063 112.075 526.725 111.858C526.304 111.593 526.087 110.87 525.605 110.991C525.207 111.087 525.207 111.642 525.328 112.027C525.46 112.413 525.605 112.907 525.292 113.16C524.966 113.437 524.46 113.16 524.207 112.81C523.954 112.461 523.761 112.015 523.352 111.871C522.773 111.654 522.183 112.172 521.869 112.702C521.556 113.22 521.267 113.859 520.688 114.064C520.411 114.16 520.086 114.148 519.821 114.293C519.279 114.594 519.303 115.389 519.483 115.98C519.664 116.57 519.941 117.233 519.664 117.787C519.616 117.895 519.532 118.004 519.423 118.04C519.182 118.136 518.941 117.907 518.773 117.703C517.881 116.57 517.11 115.341 516.459 114.052C516.339 113.798 516.206 113.533 516.242 113.244C516.266 113.063 516.351 112.907 516.411 112.726C516.604 112.136 516.435 111.497 516.507 110.882C516.64 109.834 517.495 108.858 517.158 107.858C517.037 107.484 516.76 107.183 516.592 106.846C516.423 106.508 516.375 106.038 516.652 105.773C517.254 105.701 517.857 105.653 518.483 105.653C524.111 105.665 529.003 108.81 531.497 113.437Z" fill="white"/>
</g>
<g opacity="0.5">
<path opacity="0.5" d="M533.271 120.438C533.271 122.619 532.801 124.704 531.945 126.571C531.524 127.487 531.018 128.355 530.439 129.15C530.403 129.054 530.403 128.957 530.403 128.861C530.415 128.499 530.439 128.126 530.596 127.813C530.704 127.62 530.849 127.439 530.969 127.246C531.247 126.752 531.186 126.138 531.138 125.571C531.102 125.27 531.066 124.933 530.849 124.716C530.716 124.583 530.524 124.499 530.391 124.366C530.078 124.029 530.174 123.499 530.246 123.041C530.319 122.583 530.27 122.005 529.849 121.836C529.331 122.559 528.752 123.222 528.114 123.836C528.198 123.342 527.608 122.908 527.126 123.053C526.644 123.197 526.366 123.74 526.427 124.246C525.993 124.258 525.908 123.643 525.969 123.222C526.065 122.499 526.174 121.776 526.27 121.065C525.8 120.86 525.463 121.607 524.957 121.715C524.535 121.812 524.149 121.39 524.101 120.956C524.053 120.522 524.258 120.113 524.438 119.727C524.655 119.269 524.884 118.823 525.101 118.378C525.39 117.787 525.716 117.16 526.294 116.871C527.005 116.522 527.836 116.763 528.608 116.956C529.379 117.136 530.295 117.233 530.849 116.666C531.174 116.341 531.295 115.859 531.391 115.401C531.475 115.004 531.584 114.558 531.957 114.389H531.994C532.801 116.233 533.271 118.281 533.271 120.438Z" fill="white"/>
</g>
<path opacity="0.3" d="M529.764 130.005C529.56 130.258 529.343 130.487 529.114 130.716C529.114 130.716 529.102 130.728 529.09 130.728C528.692 131.15 528.258 131.536 527.824 131.897C527.162 132.439 526.463 132.921 525.716 133.331C525.125 133.656 524.523 133.945 523.896 134.186C522.486 134.741 520.98 135.09 519.402 135.175C519.1 135.199 518.799 135.211 518.498 135.211C514.967 135.211 511.738 133.97 509.195 131.921C505.858 129.21 503.737 125.077 503.737 120.45C503.737 118.329 504.183 116.341 504.978 114.521C506.822 110.316 510.557 107.135 515.112 106.074C515.148 106.062 515.208 106.05 515.244 106.038C515.714 105.93 516.184 105.845 516.678 105.785C516.703 105.785 516.727 105.773 516.751 105.773C515.293 107.111 514.112 108.737 513.317 110.569C512.557 112.316 512.124 114.232 512.124 116.256C512.124 120.703 514.184 124.679 517.377 127.27C519.811 129.258 522.92 130.439 526.306 130.439C526.595 130.439 526.885 130.427 527.174 130.403C528.053 130.355 528.921 130.222 529.764 130.005Z" fill="#00A185"/>
<path d="M536.621 120.378C536.621 114.931 534.211 109.81 529.993 106.34C526.752 103.665 522.643 102.195 518.437 102.195C517.907 102.195 517.486 102.616 517.486 103.147C517.486 103.677 517.907 104.098 518.437 104.098C522.209 104.098 525.884 105.412 528.776 107.81C532.548 110.919 534.705 115.498 534.705 120.378C534.705 129.355 527.402 136.657 518.425 136.657C513.533 136.657 508.942 134.488 505.833 130.692C505.496 130.283 504.893 130.222 504.496 130.56C504.303 130.716 504.17 130.945 504.146 131.198C504.122 131.451 504.195 131.705 504.351 131.897C507.581 135.838 512.256 138.223 517.293 138.525V141.694H511.798C511.135 141.694 510.593 142.236 510.593 142.899C510.593 143.562 511.135 144.104 511.798 144.104H525.137C525.8 144.104 526.342 143.562 526.342 142.899C526.342 142.236 525.8 141.694 525.137 141.694H519.642V138.489C529.126 137.85 536.621 129.981 536.621 120.378Z" fill="#00D6A8"/>
</svg>
