<svg width="37" height="38" viewBox="0 0 37 38" fill="none" xmlns="http://www.w3.org/2000/svg">
<path d="M18.4933 0C8.30068 0 0 8.52503 0 18.9932C0 29.475 8.30068 37.9863 18.4933 37.9863C28.686 37.9863 36.9867 29.4613 36.9867 18.9932C36.9867 16.0922 36.3738 13.3144 35.148 10.7281C35.0148 10.4408 34.7883 10.2355 34.4951 10.126C34.202 10.0166 33.8956 10.0439 33.6291 10.1808C33.3493 10.3176 33.1494 10.5502 33.0429 10.8513C32.9363 11.1523 32.9629 11.4671 33.0961 11.7544C34.162 14.0122 34.695 16.448 34.695 18.9932C34.695 28.175 27.4202 35.6464 18.48 35.6464C9.53979 35.6464 2.26503 28.175 2.26503 18.9932C2.26503 9.81131 9.56644 2.35362 18.4933 2.35362C22.1973 2.35362 25.6748 3.59885 28.5528 5.95247C28.7926 6.14404 29.0857 6.23983 29.3921 6.19878C29.7119 6.15772 29.9784 5.99352 30.1649 5.74721C30.3515 5.5009 30.4447 5.19986 30.4048 4.88513C30.3781 4.5704 30.2315 4.29672 29.9917 4.10515C26.7407 1.45049 22.6637 0 18.4933 0Z" fill="#FF373B"/>
<path d="M18.4935 7.19769C17.8673 7.19769 17.3477 7.71768 17.3477 8.3745V19.7184C17.3477 20.3615 17.8673 20.8952 18.4935 20.8952H26.3811C27.0074 20.8952 27.527 20.3615 27.527 19.7184C27.527 19.0753 27.0074 18.5416 26.3811 18.5416H19.6393V8.3745C19.6393 7.73136 19.133 7.19769 18.4935 7.19769Z" fill="#00D6A8"/>
</svg>
