<svg width="39" height="44" viewBox="0 0 39 44" fill="none" xmlns="http://www.w3.org/2000/svg">
<path d="M33.7023 43.9811H4.35864C1.95803 43.9811 0 41.7192 0 38.9306V8.70537C0 5.93227 1.95803 3.67041 4.35864 3.67041H33.7023C36.1029 3.67041 38.061 5.93227 38.061 8.70537V38.9461C38.0744 41.7192 36.1163 43.9811 33.7023 43.9811ZM4.35864 6.41253C3.27233 6.41253 2.37378 7.43501 2.37378 8.70537V38.9461C2.37378 40.201 3.25892 41.239 4.35864 41.239H33.7023C34.7886 41.239 35.6872 40.2165 35.6872 38.9461V8.70537C35.6872 7.4505 34.802 6.41253 33.7023 6.41253H4.35864Z" fill="#FF373B"/>
<path d="M36.8808 17.4124H1.1936C0.536448 17.4124 0 16.7929 0 16.034C0 15.2751 0.536448 14.6556 1.1936 14.6556H36.8808C37.538 14.6556 38.0744 15.2751 38.0744 16.034C38.0744 16.7929 37.538 17.4124 36.8808 17.4124Z" fill="#FF373B"/>
<path d="M9.11939 10.9993C8.46223 10.9993 7.92578 10.3796 7.92578 9.62049V1.37878C7.92578 0.619677 8.46223 0 9.11939 0C9.77654 0 10.313 0.619677 10.313 1.37878V9.62049C10.313 10.3796 9.77654 10.9993 9.11939 10.9993Z" fill="#00D6A8"/>
<path d="M28.9553 10.9993C28.2982 10.9993 27.7617 10.3796 27.7617 9.62049V1.37878C27.7617 0.619677 28.2982 0 28.9553 0C29.6124 0 30.1489 0.619677 30.1489 1.37878V9.62049C30.1355 10.3796 29.6124 10.9993 28.9553 10.9993Z" fill="#00D6A8"/>
<path d="M16.8037 35.028C16.5221 35.028 16.227 34.904 15.9991 34.6716C14.4299 33.0604 11.8416 30.4112 11.6136 30.1943C11.104 29.7141 11.0101 28.8465 11.4124 28.2423C11.8148 27.6381 12.5524 27.5297 13.0754 27.9789C13.2095 28.1029 14.4299 29.3423 16.7233 31.6816L24.2335 22.4637C24.6895 21.9059 25.454 21.875 25.9368 22.4017C26.4196 22.9284 26.4464 23.8115 25.9904 24.3692L17.6755 34.5787C17.4475 34.8885 17.1256 35.028 16.8037 35.028Z" fill="#00D6A8"/>
</svg>
