<svg width="392" height="88" viewBox="0 0 392 88" fill="none" xmlns="http://www.w3.org/2000/svg">
<path d="M225.773 36.7197C222.057 36.7299 219.83 39.5557 219.83 44.4579C219.83 48.803 222.189 51.9327 226.147 51.9327H226.188C228.668 51.9327 229.974 50.9502 230.176 50.7578L230.196 48.1446L230.085 48.256C230.085 48.256 228.577 49.674 226.501 49.6133H226.41C223.596 49.3398 222.422 47.2938 222.513 44.1034C222.543 42.888 222.999 38.9986 225.762 38.9986C226.957 38.9986 227.858 39.6975 227.858 40.9737V41.0446H230.743V40.9737C230.743 38.9682 229.437 36.7197 225.773 36.7197Z" fill="white"/>
<path d="M239.075 38.0064L240.675 35.1805L238.498 35.1299L237.618 38.0368H239.075V38.0064ZM294.451 37.0239L290.665 48.4995L290.614 48.6716L290.553 48.4995L287.172 37.9557C287.172 37.9557 286.899 37.0543 285.664 37.0543H284.307L289.146 51.538L289.136 51.5684L289.126 51.6494H291.991L292.011 51.6089L292.031 51.5481L296.971 37.0239H294.451ZM194.694 39.789C194.654 39.6573 194.391 39.1306 193.692 39.1306H191.748L187.476 51.6595H189.977L191.03 48.3982L191.04 48.3577H195.16V48.3982L196.213 51.6595H198.703L198.673 51.5582L194.694 39.789ZM191.627 46.4535L193.105 41.7742L194.563 46.4535H191.627ZM261.226 39.789C261.195 39.6573 260.942 39.1306 260.233 39.1306H258.3L254.008 51.6595H256.518L257.551 48.3982L257.571 48.3577H261.691L261.711 48.3982L262.754 51.6595H265.245L265.224 51.5582L261.226 39.789ZM258.168 46.4535L259.626 41.7742L261.094 46.4535H258.168ZM304.23 40.1941C304.017 39.475 303.693 39.1306 302.701 39.1408C302.701 39.1408 302.671 39.1408 302.651 39.1408H301.183L296.901 51.6697H299.381L300.444 48.4083L300.454 48.3678H304.584V48.3982L305.637 51.6595H308.127L308.097 51.5582L304.23 40.1941ZM301.041 46.4535L302.509 41.7742L303.967 46.4535H301.041ZM323.06 39.1813H320.681V51.6697H327.838V49.7554H323.07V39.1813H323.06ZM313.007 39.1813H310.618V51.6697H317.785V49.7554H313.007V39.1813ZM344.319 48.3374C344.309 49.5933 343.853 50.039 342.608 50.0592C341.93 50.0592 341.322 49.8465 340.938 49.7149L340.725 49.644L340.634 49.6136V51.5886L340.705 51.6089C340.705 51.6089 341.636 51.8418 342.608 51.8621V51.7912V51.8621C345.999 51.8621 346.708 50.4948 346.708 48.226V39.1914H344.329V48.3374H344.319ZM354.918 38.9888C351.527 38.9888 349.856 41.1259 349.856 45.4204C349.856 49.7047 351.527 51.8418 354.918 51.8418C358.289 51.8418 359.99 49.6338 360 45.4204C360 41.1766 358.299 38.9888 354.918 38.9888ZM354.918 50.0491C353.278 50.0491 352.458 48.5704 352.458 45.4204C352.458 42.2401 353.278 40.7714 354.918 40.7714C356.578 40.7714 357.398 42.2401 357.398 45.4204C357.398 48.5805 356.578 50.0491 354.918 50.0491ZM109.921 47.6487L105.861 39.8903C105.851 39.8801 105.466 39.1509 104.565 39.161H102.672V51.6393H104.889V42.6857L109.536 51.6393H112.138V39.1711H109.921V47.6487ZM116.217 51.6494H118.596V39.1711H116.217V51.6494ZM127.1 48.6311L124.448 40.184C124.326 39.7586 123.972 39.161 123.01 39.161H121.552L125.683 51.6393H128.436L128.446 51.5988L132.729 39.1408L130.228 39.1306L127.1 48.6311ZM137.922 46.1395H142.69V44.2455H137.922V41.0652H142.963V39.1711H135.533V51.6494H143.105V49.7554H137.932V46.1395H137.922ZM236.069 46.1395H240.827V44.2455H236.069V41.0652H241.08V39.1711H233.67V51.6494H241.242V49.7554H236.069V46.1395ZM332.95 46.1395H337.728V44.2455H332.95V41.0652H337.981V39.1711H330.551V51.6494H338.133V49.7554H332.94V46.1395H332.95ZM154.524 48.0335L154.514 47.9525C154.271 46.8789 154.069 45.9066 152.884 45.4204L152.753 45.3495L152.884 45.309C154.17 44.8532 154.767 43.9416 154.767 42.5237C154.767 40.3157 153.38 39.161 150.708 39.161H146.851V51.6393H149.24V46.4231H149.888C151.69 46.4434 151.852 46.9701 152.277 48.8945L152.884 51.6393H155.314L155.304 51.5582L154.524 48.0335ZM149.888 44.6506H149.24V40.9639H150.708C151.781 40.974 152.328 41.5817 152.348 42.7566C152.338 44.0936 151.649 44.6304 149.888 44.6506ZM275.216 47.9525C274.983 46.8789 274.791 45.9066 273.617 45.4204L273.465 45.3495L273.617 45.309C274.892 44.8532 275.5 43.9315 275.489 42.5237C275.489 40.3157 274.092 39.1711 271.42 39.161H267.563V51.6393H269.942V46.4231H270.6C272.412 46.4434 272.554 46.9701 272.999 48.8945L273.586 51.6393H276.026L275.996 51.5582L275.216 47.9525ZM270.61 44.6506H269.952V40.9639H271.43C272.503 40.974 273.06 41.5817 273.07 42.7566C273.05 44.0936 272.371 44.6304 270.61 44.6506ZM249.007 44.1341C247.782 43.4859 246.769 42.9085 246.779 42.0983C246.779 40.9234 247.863 40.9234 248.409 40.9234H248.44C249.513 40.9234 250.404 41.1158 251.183 41.4298L251.568 41.5817L251.659 41.6121V39.3433L251.608 39.3332C251.608 39.3332 250.353 38.999 248.51 38.9888C248.51 38.9888 248.49 38.9888 248.46 38.9888C245.848 38.9888 244.188 40.2549 244.178 42.2704C244.188 44.2252 245.929 45.1773 247.448 46.018C248.764 46.7371 249.978 47.4157 249.968 48.5298C249.948 49.0059 249.705 50.0187 247.903 50.039C246.445 50.039 245.443 49.1882 244.694 48.7425L244.512 48.621L244.421 48.5602V51.1025L244.431 51.1126C244.451 51.1227 245.666 51.7811 247.933 51.8418V51.7608V51.8418C250.819 51.8418 252.57 50.4846 252.57 48.2159C252.57 46.0382 250.566 44.9849 249.007 44.1341ZM163.281 44.1341C162.056 43.4859 161.044 42.9085 161.044 42.0983C161.054 40.9234 162.127 40.9234 162.684 40.9234H162.724C163.787 40.9234 164.678 41.1158 165.438 41.4298L165.842 41.5817L165.923 41.6121L165.934 39.3433L165.873 39.3332C165.873 39.3332 164.618 38.999 162.785 38.9888C162.765 38.9686 162.755 38.9888 162.755 38.9888C160.102 38.9888 158.452 40.2549 158.452 42.2704C158.452 44.2252 160.204 45.1773 161.712 46.018C163.038 46.7371 164.243 47.4157 164.243 48.5298C164.223 49.0059 163.97 50.0187 162.158 50.039C160.71 50.039 159.698 49.1882 158.969 48.7425L158.766 48.621L158.675 48.5602V51.1025L158.705 51.1126C158.705 51.1126 159.93 51.7811 162.188 51.8418V51.7608V51.8418C165.073 51.8418 166.824 50.4846 166.824 48.2159C166.845 46.0382 164.85 44.9849 163.281 44.1341ZM170.145 51.6595H172.554V39.1711H170.145V51.6595ZM180.036 39.1711H176.857V51.6494H180.036C182.86 51.6494 185.522 50.8594 185.522 45.3799C185.522 40.9537 183.963 39.1813 180.036 39.1711ZM180.036 49.7655H179.246V40.974H180.036C182.496 40.9841 182.921 42.3616 182.931 45.3394C182.911 49.1679 181.939 49.7554 180.036 49.7655ZM204.716 39.1711H201.538V51.6494H204.716C207.541 51.6494 210.214 50.8594 210.224 45.3799C210.214 40.9537 208.644 39.1813 204.716 39.1711ZM204.716 49.7655H203.927V40.974H204.716C207.187 40.9841 207.602 42.3616 207.602 45.3394C207.592 49.1679 206.61 49.7554 204.716 49.7655ZM96.1527 47.5575C96.1527 49.0666 95.1707 49.8263 93.7838 49.8364C92.3766 49.8263 91.4655 49.0666 91.4655 47.5575V37.0543H89.0156V47.7702C89.0359 50.3124 90.7467 51.8418 93.5712 51.8418H94.0571C96.9119 51.8418 98.5823 50.3428 98.5924 47.7702V37.0543H96.1425V47.5575H96.1527Z" fill="white"/>
<path d="M54.1805 70.0225V39.0902C34.8852 30.9773 32 17 32 17V47.7804C32 58.8913 54.1805 70.0225 54.1805 70.0225ZM59.5155 36.2339V66.9941C61.2466 65.9103 63.2511 64.5936 65.2656 63.0845L65.2555 33.7018C39.9469 31.3115 32 17 32 17C40.6252 34.583 59.5155 36.2339 59.5155 36.2339ZM76.3609 21.7097V17C69.4163 19.1067 61.9452 20.2715 54.1805 20.2816C46.4158 20.2715 38.9548 19.1067 32 17C32 17 48.8859 27.3513 76.3609 21.7097ZM70.6209 30.3594V58.4659C73.8908 55.1742 76.3609 51.4773 76.3609 47.7804V26.7031C72.3521 27.0879 63.7674 27.5539 54.7373 25.8827C43.9963 23.8874 37.4262 21.2236 32 17C44.8871 30.6734 70.6209 30.3594 70.6209 30.3594Z" fill="white"/>
</svg>
