<svg width="42" height="32" viewBox="0 0 42 32" fill="none" xmlns="http://www.w3.org/2000/svg">
<path d="M36.8571 20.2924C35.1429 20.2924 31.5714 21.2999 29.8571 21.7316C29.5714 19.1411 26.4286 18.2776 23 17.558C21.4286 17.2702 20.2857 16.6945 19.2857 16.1188C18 15.3992 16.7143 14.8236 15 14.8236C13 14.8236 11.2857 15.2553 10.2857 15.5431C10 14.6796 9.28572 13.8161 8.28572 13.6722L1.14286 12.233C0.857143 12.233 0.571429 12.233 0.428571 12.377C0.142857 12.6648 0 12.9526 0 13.2405V27.3444C0 27.7761 0.428571 28.2079 0.857143 28.2079H6.28571C7.42857 28.2079 8.28571 27.4883 8.71429 26.4809C10.7143 27.4883 19.7143 31.6619 23.5714 31.6619C27 31.6619 34 28.2079 38.5714 25.9052C39.7143 25.3295 40.7143 24.7539 41.4286 24.466C41.7143 24.3221 42 24.0343 42 23.6025C42 21.7316 39.8571 20.2924 36.8571 20.2924ZM6.42857 26.4809H1.71429V14.2479L7.85714 15.5431C8.28571 15.6871 8.57143 16.1188 8.57143 16.5506L7.28571 25.7613C7.14286 26.1931 6.85714 26.4809 6.42857 26.4809ZM37.8571 24.466C33.7143 26.4809 26.5714 30.0788 23.5714 30.0788C20.4286 30.0788 12 26.337 9 24.8978L10 17.558C10.5714 17.4141 12.5714 16.8384 14.7143 16.8384C16 16.8384 17 17.2702 18.2857 17.9897C19.4286 18.5654 20.7143 19.1411 22.4286 19.5728C26.2857 20.2924 27.8571 21.1559 27.8571 22.3073C27.8571 22.4512 27.8571 22.5951 27.5714 22.739C27 23.1708 24.8571 23.8904 16.7143 21.4438C16.2857 21.2999 15.7143 21.5877 15.5714 22.0194C15.4286 22.4512 15.7143 23.0269 16.1429 23.1708C20.1429 24.3221 23.2857 25.0417 25.4286 25.0417C26.8571 25.0417 27.8571 24.7539 28.5714 24.3221L28.7143 24.1782H28.8571C30.4286 23.7465 34.8571 22.4512 36.4286 22.4512C37.8571 22.4512 39.4286 22.8829 39.8571 23.7465C39.5714 23.6025 38.7143 24.0343 37.8571 24.466Z" fill="#E10E17"/>
<path d="M27.1428 15.831C29.5714 15.831 31.7143 14.3918 32.7143 12.233C36 12.0891 38.5714 9.35465 38.5714 6.04455C38.5714 2.73444 35.8571 0 32.4285 0C30 0 27.8571 1.43918 26.8571 3.59794C23.5714 3.74186 21 6.4763 21 9.78641C21 13.0965 23.7143 15.831 27.1428 15.831ZM32.4285 1.72701C34.8571 1.72701 36.8571 3.74186 36.8571 6.18846C36.8571 8.63507 34.8571 10.6499 32.4285 10.6499C30 10.6499 28 8.63507 28 6.18846C28 3.74186 30 1.72701 32.4285 1.72701ZM26.4285 5.32496C26.4285 5.61279 26.2857 5.90063 26.2857 6.18846C26.2857 6.62022 26.2857 7.05197 26.4285 7.48372C26.2857 7.62764 26.2857 7.77156 26.2857 7.91548V11.5134C26.2857 11.9452 26.7143 12.3769 27.1428 12.3769C27.5714 12.3769 28 11.9452 28 11.5134V10.506C28.7143 11.2256 29.7143 11.8013 30.7143 12.0891C30 13.3843 28.7143 14.1039 27.1428 14.1039C24.7143 14.1039 22.7143 12.0891 22.7143 9.64249C22.7143 7.62764 24.2857 5.75671 26.4285 5.32496Z" fill="#E10E17"/>
<path d="M32.4285 8.77891C32.8571 8.77891 33.2857 8.34716 33.2857 7.9154V4.46138C33.2857 4.02962 32.8571 3.59787 32.4285 3.59787C32 3.59787 31.5714 4.02962 31.5714 4.46138V8.05932C31.5714 8.49107 31.8571 8.77891 32.4285 8.77891Z" fill="#E10E17"/>
</svg>
