<svg width="30" height="40" viewBox="0 0 30 40" fill="none" xmlns="http://www.w3.org/2000/svg">
<path d="M29.6411 8.34896L21.5658 0.273732C21.429 0.136864 21.1552 0 21.0184 0H3.90984C2.13055 0 0.625 1.50555 0.625 3.28484V35.7226C0.625 37.5019 2.13055 39.0075 3.90984 39.0075H26.63C28.4093 39.0075 29.9148 37.5019 29.9148 35.7226V8.89644C29.9148 8.75957 29.7779 8.6227 29.6411 8.34896ZM21.7027 2.87423L27.0406 8.2121H23.3451C22.3871 8.2121 21.7027 7.52775 21.7027 6.56967V2.87423ZM26.63 37.365H3.90984C2.95176 37.365 2.26742 36.6807 2.26742 35.7226V3.28484C2.26742 2.32676 2.95176 1.64241 3.90984 1.64241H20.1972V6.56967C20.1972 8.34896 21.7027 9.85451 23.482 9.85451H28.2724V35.8595C28.2724 36.6807 27.588 37.365 26.63 37.365Z" fill="#E3112E"/>
<path d="M24.1663 22.8569H6.3734C5.96279 22.8569 5.55219 23.2675 5.55219 23.6781C5.55219 24.0887 5.96279 24.4994 6.3734 24.4994H24.1663C24.5769 24.4994 24.9875 24.0887 24.9875 23.6781C24.9875 23.2675 24.7137 22.8569 24.1663 22.8569Z" fill="#E3112E"/>
<path d="M24.1663 17.9297H6.3734C5.96279 17.9297 5.55219 18.3403 5.55219 18.7509C5.55219 19.1615 5.96279 19.5721 6.3734 19.5721H24.1663C24.5769 19.5721 24.9875 19.1615 24.9875 18.7509C24.9875 18.3403 24.7137 17.9297 24.1663 17.9297Z" fill="#E3112E"/>
<path d="M24.1663 27.6474H6.3734C5.96279 27.6474 5.55219 28.058 5.55219 28.4686C5.55219 28.8792 5.96279 29.2898 6.3734 29.2898H24.1663C24.5769 29.2898 24.9875 28.8792 24.9875 28.4686C24.9875 28.058 24.7137 27.6474 24.1663 27.6474Z" fill="#E3112E"/>
<path d="M16.091 32.5746H6.3734C5.96279 32.5746 5.55219 32.9853 5.55219 33.3959C5.55219 33.8065 5.96279 34.2171 6.3734 34.2171H16.091C16.5016 34.2171 16.9123 33.8065 16.9123 33.3959C16.9123 32.9853 16.5016 32.5746 16.091 32.5746Z" fill="#E3112E"/>
<path d="M24.1663 13.0025H14.4486C14.038 13.0025 13.6274 13.4131 13.6274 13.8237C13.6274 14.2343 14.038 14.6449 14.4486 14.6449H24.1663C24.5769 14.6449 24.9875 14.2343 24.9875 13.8237C24.9875 13.4131 24.7137 13.0025 24.1663 13.0025Z" fill="#E3112E"/>
<path d="M8.01581 13.0025H6.3734C5.96279 13.0025 5.55219 13.4131 5.55219 13.8237C5.55219 14.2343 5.96279 14.6449 6.3734 14.6449H7.19461C7.19461 15.0555 7.60521 15.4661 8.01581 15.4661C8.42642 15.4661 8.83702 15.0555 8.83702 14.6449V14.508C9.7951 14.2343 10.4794 13.2762 10.4794 12.1813C10.4794 10.8126 9.3845 9.71762 8.01581 9.71762C7.60521 9.71762 7.19461 9.30702 7.19461 8.89641C7.19461 8.48581 7.60521 8.07521 8.01581 8.07521H9.65823C10.0688 8.07521 10.4794 7.66459 10.4794 7.25399C10.4794 6.84338 10.0688 6.43278 9.65823 6.43278H8.83702C8.83702 6.02217 8.42642 5.61157 8.01581 5.61157C7.60521 5.61157 7.19461 6.02217 7.19461 6.43278V6.56965C6.23653 6.84338 5.55219 7.80147 5.55219 8.89641C5.55219 10.2651 6.64713 11.36 8.01581 11.36C8.42642 11.36 8.83702 11.7706 8.83702 12.1813C8.70016 12.7287 8.42642 13.0025 8.01581 13.0025Z" fill="#E3112E"/>
</svg>
