<svg width="104" height="44" viewBox="0 0 104 44" fill="none" xmlns="http://www.w3.org/2000/svg">
<path d="M59.5035 11.5027H74.5C74.961 11.5027 75.3316 11.1321 75.3316 10.6711V9.83043C75.3768 8.03159 73.9485 6.54008 72.1497 6.49488C72.1045 6.49488 72.0503 6.49488 72.0051 6.49488H71.761C71.065 4.95818 69.2752 4 67.0063 4C64.5837 4 63.0199 4.82259 62.2696 6.50392H62.0075C60.29 6.38641 58.7985 7.67905 58.6719 9.40558C58.6629 9.55021 58.6629 9.69484 58.6719 9.83947V10.6711C58.6719 11.1231 59.0425 11.5027 59.5035 11.5027ZM61.9984 8.16718H62.83C63.1916 8.16718 63.517 7.93215 63.6255 7.58865C63.9329 6.58528 64.5566 5.67229 66.9972 5.67229C68.3441 5.67229 70.0345 6.16042 70.3509 7.52538C70.4412 7.90503 70.7757 8.16718 71.1644 8.16718H71.996C72.8729 8.12198 73.6231 8.80898 73.6593 9.6858C73.6593 9.731 73.6593 9.78524 73.6593 9.83043H60.3352C60.2357 9.00785 60.8143 8.26661 61.6368 8.16718C61.7544 8.1491 61.8809 8.1491 61.9984 8.16718Z" fill="#002855"/>
<path d="M40.3399 35.6651H40.0959C39.3998 34.1284 37.61 33.1611 35.3411 33.1611C32.9186 33.1611 31.3547 33.9837 30.6045 35.6651H30.3423C28.6248 35.5475 27.1333 36.8402 27.0068 38.5667C26.9977 38.7023 26.9977 38.856 27.0068 39.0006V39.8322C27.0068 40.2932 27.3774 40.6639 27.8384 40.6639H42.8348C43.2958 40.6639 43.6665 40.2932 43.6665 39.8322V39.0006C43.7026 37.2018 42.2834 35.7103 40.4846 35.6651C40.4394 35.6651 40.3851 35.6651 40.3399 35.6651ZM28.67 39.0006C28.5706 38.178 29.1491 37.4368 29.9717 37.3374C30.0983 37.3193 30.2158 37.3193 30.3423 37.3374H31.174C31.5355 37.3374 31.861 37.1023 31.9694 36.7588C32.2768 35.7555 32.9005 34.8425 35.3411 34.8425C36.688 34.8425 38.3784 35.3306 38.6948 36.6956C38.7852 37.0752 39.1196 37.3374 39.5083 37.3374H40.3399C41.2168 37.2922 41.967 37.9792 42.0032 38.856C42.0032 38.9012 42.0032 38.9554 42.0032 39.0006H28.67Z" fill="#002855"/>
<path d="M76.9225 22.8202C76.5248 22.0699 75.9824 21.41 75.3226 20.8767C73.6683 19.4213 70.4593 17.6315 64.5024 17.3332H62.3148L50.0483 6.70286C49.8946 6.56727 49.7048 6.49496 49.5059 6.49496H46.1704C45.7094 6.49496 45.3388 6.86557 45.3388 7.32659C45.3388 7.4441 45.3659 7.56161 45.4111 7.67912L49.8675 17.3332H37.5558L32.7739 6.16954C32.6384 5.8622 32.3401 5.66333 32.0056 5.66333H28.67C28.209 5.66333 27.8384 6.03395 27.8384 6.49496C27.8384 6.51304 27.8384 6.54015 27.8384 6.55823L28.6248 17.4959C27.6576 17.8575 27.0068 18.7886 27.0068 19.8281V23.1637C27.0068 24.1399 27.5763 25.0258 28.4712 25.4326L27.0429 30.4314C26.9164 30.8743 27.1785 31.3353 27.6215 31.4619C27.6938 31.4799 27.7751 31.489 27.8475 31.489H31.183C31.4 31.489 31.6169 31.3986 31.7706 31.2449L36.5072 26.5083L49.1624 27.2585L45.402 37.0302C45.2393 37.4641 45.4472 37.9431 45.8811 38.1059C45.9806 38.142 46.08 38.1601 46.1794 38.1601H49.515C49.7319 38.1601 49.9489 38.0697 50.1025 37.916L59.8561 28.1625H61.1758C72.448 28.1625 76.6062 23.923 76.7779 23.7332C77.0039 23.4891 77.0672 23.1275 76.9225 22.8202ZM71.9689 20.6688H63.6707V19.0055H64.4662C67.0515 19.0507 69.6006 19.6112 71.9689 20.6688ZM47.4721 8.16725H49.1896L52.0731 10.6712H51.1602V12.3344H53.9895L55.9059 13.9977H53.655V15.6609H57.8222L59.7567 17.3332H51.6935L47.4721 8.16725ZM31.4542 7.33562L35.7389 17.3332H30.2791L30.1616 15.67H32.8372V14.0067H30.044L29.9265 12.3344H31.174V10.6712H29.809L29.5649 7.33562H31.4542ZM61.1668 26.4992H59.5036C59.2866 26.4992 59.0697 26.5896 58.916 26.7433L56.6561 29.0031H53.6641V30.6664H54.9838L53.3206 32.3297H50.3285V33.9929H51.6483L49.1444 36.4968H47.3726L51.1059 26.7975C51.2686 26.3727 51.0607 25.8845 50.6268 25.7218C50.5455 25.6947 50.4641 25.6676 50.3737 25.6676L36.218 24.836C35.9829 24.8179 35.7479 24.9083 35.5762 25.08L30.8214 29.8348H28.9412L30.3062 25.062C30.4327 24.619 30.1796 24.158 29.7367 24.0315C29.6644 24.0134 29.583 23.9953 29.5107 23.9953C29.0497 23.9953 28.6791 23.6247 28.6791 23.1637V22.332H37.8451V20.6688H28.67V19.8372C28.67 19.3761 29.0407 19.0055 29.5017 19.0055H61.9984V21.5095C61.9984 21.9705 62.369 22.3411 62.8301 22.3411H74.4367C74.6627 22.549 74.8706 22.775 75.0604 23.01C73.7316 24.0134 69.5644 26.4992 61.1668 26.4992Z" fill="#E30613"/>
<path d="M59.5035 20.6687H57.8403V22.332H59.5035V20.6687Z" fill="#E30613"/>
<path d="M56.168 20.6687H54.5047V22.332H56.168V20.6687Z" fill="#E30613"/>
<path d="M52.8324 20.6687H51.1692V22.332H52.8324V20.6687Z" fill="#E30613"/>
<path d="M49.4969 20.6687H47.8336V22.332H49.4969V20.6687Z" fill="#E30613"/>
<path d="M46.1704 20.6687H44.5071V22.332H46.1704V20.6687Z" fill="#E30613"/>
<path d="M42.8348 20.6687H41.1716V22.332H42.8348V20.6687Z" fill="#E30613"/>
</svg>
