<svg width="104" height="44" viewBox="0 0 104 44" fill="none" xmlns="http://www.w3.org/2000/svg">
<g clip-path="url(#clip0)">
<path d="M70.3333 41.8C70.3333 42.205 70.005 42.5333 69.6 42.5333H62.2667V40.0254C62.2595 37.713 60.7137 35.6881 58.4847 35.0718L54.2 33.9063V32.7963C55.5736 31.8399 56.3946 30.2736 56.4 28.6V27.2118C56.5869 27.1262 56.7051 27.0653 56.7276 27.0564C56.9765 26.9321 57.1333 26.6779 57.1333 26.4V22L61.0632 20.4886C61.3471 20.3801 61.5348 20.1076 61.5348 19.8036C61.5348 19.4996 61.3471 19.2274 61.0632 19.1186L51.5298 15.4519C51.3605 15.3875 51.1728 15.3875 51.0035 15.4519L41.4701 19.1186C41.188 19.2271 41.0014 19.4978 41 19.8V23.163L39.0148 25.1482L40.0518 26.1852L41 25.237V26.4H42.4667V25.237L43.4148 26.1852L44.4518 25.1482L42.4667 23.163V20.8678L45.4 22V26.4C45.3986 26.6793 45.5558 26.9353 45.8057 27.0599C45.8283 27.071 45.9464 27.1298 46.1333 27.2153V28.6C46.1204 30.2787 46.9454 31.8535 48.3333 32.7984V33.9063L44.0461 35.0725C41.8186 35.6891 40.2735 37.7137 40.2667 40.0254V42.5333H32.9333C32.5283 42.5333 32.2 42.205 32.2 41.8V13.2H52.7333V11.7333H32.2V8.06667C32.2 7.66169 32.5283 7.33334 32.9333 7.33334H52.7333V5.86667H32.9333C31.7184 5.86667 30.7333 6.85173 30.7333 8.06667V41.8C30.7333 43.015 31.7184 44 32.9333 44H69.6C70.8149 44 71.8 43.015 71.8 41.8V14.6667H70.3333V41.8ZM49.8 34.4667V33.5135C50.7557 33.8075 51.7776 33.8075 52.7333 33.5135V34.4667C52.7358 34.6769 52.8289 34.8756 52.9894 35.0117L51.2667 36.4468L49.544 35.0124C49.7044 34.8763 49.7978 34.6772 49.8 34.4667ZM51.2667 16.9186L58.7568 19.8L51.2667 22.6814L43.7765 19.8L51.2667 16.9186ZM51.0035 24.1517C51.1728 24.2161 51.3605 24.2161 51.5298 24.1517L55.6667 22.5604V25.9334C54.2852 26.598 52.7942 27.0048 51.2667 27.1333C49.7391 27.0037 48.2481 26.5969 46.8667 25.9327V22.5597L51.0035 24.1517ZM47.6 28.6V27.813C48.7705 28.2752 50.0095 28.5413 51.2667 28.6C52.5239 28.5413 53.7628 28.2752 54.9333 27.813V28.6C54.9315 29.9102 54.2308 31.1201 53.095 31.7736C51.9592 32.4271 50.5609 32.4246 49.4276 31.7672C49.1508 31.61 48.8973 31.4152 48.6735 31.1885C47.9824 30.5053 47.5953 29.5722 47.6 28.6ZM41.7333 40.0254C41.7387 38.374 42.8426 36.9277 44.4343 36.4869L47.8933 35.5463L50.7972 37.9661C51.0694 38.1928 51.464 38.1928 51.7361 37.9661L54.6401 35.5463L58.0969 36.4862C59.6893 36.9266 60.7939 38.3733 60.8 40.0254V42.5333H58.6V39.6H57.1333V42.5333H45.4V39.6H43.9333V42.5333H41.7333V40.0254Z" fill="#C8102E"/>
<path d="M35.1333 8.8H36.6V10.2667H35.1333V8.8Z" fill="#C8102E"/>
<path d="M38.0667 8.8H39.5333V10.2667H38.0667V8.8Z" fill="#C8102E"/>
<path d="M41 8.8H42.4667V10.2667H41V8.8Z" fill="#C8102E"/>
<path d="M71.0667 0H56.4C55.1851 0 54.2 0.985059 54.2 2.2V11C54.2 12.2149 55.1851 13.2 56.4 13.2H58.6V16.1333C58.6 16.4449 58.7966 16.7224 59.0906 16.8255C59.1686 16.8523 59.2506 16.8663 59.3333 16.8667C59.5561 16.8667 59.767 16.7657 59.9059 16.5917L62.6187 13.2H71.0667C72.2816 13.2 73.2667 12.2149 73.2667 11V2.2C73.2667 0.985059 72.2816 0 71.0667 0ZM71.8 11C71.8 11.405 71.4716 11.7333 71.0667 11.7333H62.2667C62.0439 11.7333 61.833 11.8343 61.6941 12.0083L60.0667 14.0425V12.4667C60.0667 12.0617 59.7383 11.7333 59.3333 11.7333H56.4C55.995 11.7333 55.6667 11.405 55.6667 11V2.2C55.6667 1.79502 55.995 1.46667 56.4 1.46667H71.0667C71.4716 1.46667 71.8 1.79502 71.8 2.2V11Z" fill="#C8102E"/>
<path d="M58.6 2.93333H68.8667V4.4H58.6V2.93333Z" fill="#C8102E"/>
<path d="M58.6 5.86667H68.8667V7.33334H58.6V5.86667Z" fill="#C8102E"/>
<path d="M58.6 8.8H68.8667V10.2667H58.6V8.8Z" fill="#C8102E"/>
</g>
<defs>
<clipPath id="clip0">
<rect width="44" height="44" fill="white" transform="translate(30)"/>
</clipPath>
</defs>
</svg>
