<svg width="104" height="44" viewBox="0 0 104 44" fill="none" xmlns="http://www.w3.org/2000/svg">
<path d="M64.0509 32.8492L56.8292 29.8685C56.0287 29.5403 55.5185 28.7685 55.5185 27.8992V27.3935C57.6824 25.8855 59.3361 23.7565 60.2773 21.2903H60.4444C62.3884 21.2903 63.963 19.7024 63.963 17.7419V11.6387C63.963 8.08145 62.3796 4.77258 59.6352 2.54597C57.5944 0.904839 55.0347 0 52.4222 0H50.012C45.7282 0 41.7963 2.17339 39.4917 5.81935L37.662 8.72016L38.4009 9.21694C39.4213 9.9 40.037 11.0532 40.037 12.2952V17.7419C40.037 19.7024 41.6116 21.2903 43.5556 21.2903H43.7227C44.6639 23.7565 46.3176 25.8855 48.4815 27.3935V27.8992C48.4815 28.7685 47.9713 29.5403 47.1708 29.8685L39.9491 32.8492C35.7269 34.5879 33 38.6863 33 43.2903V44H71V43.2903C71 38.6863 68.2731 34.5879 64.0509 32.8492ZM58.2718 35.1734L55.413 37.3379L57.313 31.5984L57.7176 31.7669L58.2718 35.1734ZM46.2912 31.7669L46.6958 31.5984L48.5958 37.3379L45.737 35.1734L46.2912 31.7669ZM48.6574 37.5597L50.3199 42.5806H50.1792L47.2764 39.6532L48.6574 37.5597ZM47.9889 31.0395C48.0944 30.9863 48.1912 30.9242 48.288 30.8621L52 35.1379L55.712 30.8621C55.8088 30.9242 55.9056 30.9863 56.0111 31.0395L52.1935 42.5806H51.7977L47.9889 31.0395ZM55.3426 37.5597L56.7236 39.6532L53.8208 42.5806H53.6801L55.3426 37.5597ZM55.5185 13.4839C54.4806 13.4839 53.5833 14.0605 53.0907 14.9032H50.9005C50.4079 14.0605 49.5106 13.4839 48.4727 13.4839H44.2505V9.95323C46.2208 10.0331 48.1384 10.4855 49.9505 11.3016C52.1407 12.2863 54.4718 12.7831 56.8644 12.7831H59.7407V13.4927H55.5185V13.4839ZM58.3333 14.9032V16.3226C58.3333 17.1032 57.7 17.7419 56.9259 17.7419H55.5185C54.7444 17.7419 54.1111 17.1032 54.1111 16.3226C54.1111 15.5419 54.7444 14.9032 55.5185 14.9032H58.3333ZM49.8889 16.3226C49.8889 17.1032 49.2556 17.7419 48.4815 17.7419H47.0741C46.3 17.7419 45.6667 17.1032 45.6667 16.3226V14.9032H48.4815C49.2556 14.9032 49.8889 15.5419 49.8889 16.3226ZM60.7347 19.8444C60.9986 18.7887 61.1481 17.6976 61.1481 16.571V15.746C61.9662 16.0387 62.5556 16.8194 62.5556 17.7419C62.5556 18.8153 61.7639 19.6935 60.7347 19.8444ZM39.5796 8.32984L40.6792 6.58226C42.7199 3.35323 46.212 1.41935 50.012 1.41935H52.4222C54.7181 1.41935 56.9611 2.21774 58.7556 3.65484C61.1745 5.60645 62.5556 8.51613 62.5556 11.6387V14.921C62.1421 14.6105 61.6671 14.371 61.1481 14.2645V11.3548H56.8731C54.6741 11.3548 52.5366 10.8935 50.5222 9.99758C48.3319 9.0129 46.0097 8.51613 43.5556 8.51613H42.8519V14.2645C42.3329 14.371 41.8579 14.6105 41.4444 14.921V12.2952C41.4444 10.7516 40.7583 9.29677 39.5796 8.32984ZM41.4444 17.7419C41.4444 16.8194 42.0338 16.0387 42.8519 15.746V16.571C42.8519 17.6976 43.0014 18.7887 43.2653 19.8444C42.2361 19.6935 41.4444 18.8153 41.4444 17.7419ZM44.2593 16.571V16.3226C44.2593 17.8839 45.5259 19.1613 47.0741 19.1613H48.4815C50.0296 19.1613 51.2963 17.8839 51.2963 16.3226H52.7037C52.7037 17.8839 53.9704 19.1613 55.5185 19.1613H56.9259C58.4741 19.1613 59.7407 17.8839 59.7407 16.3226V16.571C59.7407 21.5565 56.6444 25.9742 52 27.6331C47.3556 25.9742 44.2593 21.5565 44.2593 16.571ZM51.7801 29.0613L52 29.1323L52.2199 29.0613C52.8884 28.8395 53.5218 28.5645 54.1375 28.2452C54.1903 28.8395 54.3838 29.3984 54.7005 29.8774L52 32.9823L49.2995 29.8685C49.6162 29.3895 49.8097 28.8306 49.8625 28.2363C50.4694 28.5645 51.1116 28.8395 51.7801 29.0613ZM40.4856 34.1621L44.7606 32.3968L44.1977 35.7944L46.819 37.7814L45.4644 39.8306L48.1912 42.5806H41.4444V38.3226H40.037V42.5806H34.4338C34.6977 38.8548 37.0111 35.5992 40.4856 34.1621ZM63.963 42.5806V38.3226H62.5556V42.5806H55.8088L58.5356 39.8306L57.181 37.7726L59.8023 35.7855L59.2394 32.3879L63.5144 34.1532C66.9889 35.5903 69.3023 38.8371 69.5662 42.5718L63.963 42.5806Z" fill="#C8102E"/>
<path d="M54.8148 22H53.4074C53.4074 22.7806 52.7741 23.4194 52 23.4194C51.2259 23.4194 50.5926 22.7806 50.5926 22H49.1852C49.1852 23.5613 50.4518 24.8387 52 24.8387C53.5481 24.8387 54.8148 23.5613 54.8148 22Z" fill="#154476"/>
<path d="M56.9963 5.87258C57.5768 6.34274 58.0782 6.88387 58.4829 7.49596L59.644 6.69758C59.1514 5.97016 58.562 5.32258 57.8671 4.76371C56.3278 3.52177 54.3838 2.83871 52.4134 2.83871H51.2963V4.25806H52.4222C54.0759 4.25806 55.7032 4.83467 56.9963 5.87258Z" fill="#154476"/>
<path d="M59.5824 10.0863L60.9546 9.78467C60.8403 9.25242 60.6819 8.7379 60.4796 8.24113L59.1778 8.79112C59.3449 9.20806 59.4856 9.64274 59.5824 10.0863Z" fill="#154476"/>
</svg>
