<svg width="104" height="44" viewBox="0 0 104 44" fill="none" xmlns="http://www.w3.org/2000/svg">
<path d="M72.1337 42.282H70.2364V14.9108C70.2364 13.639 69.1881 12.5991 67.9059 12.5991H63.6609C62.3787 12.5991 61.3304 13.639 61.3304 14.9108V42.282H56.505V27.3116C56.505 26.0398 55.4567 24.9999 54.1745 24.9999H49.9295C48.6473 24.9999 47.599 26.0398 47.599 27.3116V42.282H42.7735V34.5304C42.7735 33.2585 41.7252 32.2187 40.4431 32.2187H36.198C34.9158 32.2187 33.8676 33.2585 33.8676 34.5304V42.282H31.8663C31.3899 42.282 31 42.6687 31 43.1413C31 43.614 31.3899 44.0007 31.8663 44.0007H72.1337C72.6101 44.0007 73 43.614 73 43.1413C73 42.6687 72.6101 42.282 72.1337 42.282ZM41.0408 42.282H35.6002V34.5304C35.6002 34.2038 35.8688 33.9374 36.198 33.9374H40.4431C40.7723 33.9374 41.0408 34.2038 41.0408 34.5304V42.282ZM54.7723 42.282H49.3317V27.3116C49.3317 26.9851 49.6002 26.7187 49.9295 26.7187H54.1745C54.5037 26.7187 54.7723 26.9851 54.7723 27.3116V42.282ZM68.5037 42.282H63.0631V14.9108C63.0631 14.5843 63.3317 14.3179 63.6609 14.3179H67.9059C68.2351 14.3179 68.5037 14.5843 68.5037 14.9108V42.282Z" fill="#C8102E"/>
<path d="M70.2277 0.902986C70.2364 0.670955 70.1584 0.43033 69.9765 0.249861C69.7946 0.0693924 69.552 -0.00795135 69.3181 0.000642399C69.3007 0.000642399 69.2921 0.000642399 69.2747 0.000642399H64.0334C63.5569 0.000642399 63.1671 0.387361 63.1671 0.860017C63.1671 1.33267 63.5569 1.71939 64.0334 1.71939H67.2735L58.7054 10.2186L55.474 7.01314C55.3094 6.84986 55.0928 6.76392 54.8589 6.76392C54.625 6.76392 54.4084 6.85845 54.2438 7.01314L38.6844 22.4561C38.3465 22.7913 38.3465 23.3327 38.6844 23.6678C38.8577 23.8397 39.0743 23.917 39.2995 23.917C39.5248 23.917 39.7413 23.8311 39.9146 23.6678L54.8762 8.82642L58.1077 12.0319C58.4455 12.367 58.9913 12.367 59.3292 12.0319L68.5037 2.93111V5.84439C68.5037 6.31705 68.8936 6.70377 69.37 6.70377C69.8465 6.70377 70.2364 6.31705 70.2364 5.84439V0.945955C70.2364 0.928767 70.2277 0.920174 70.2277 0.902986Z" fill="#154476"/>
<path d="M36.3713 26.9248C36.8497 26.9248 37.2376 26.54 37.2376 26.0654C37.2376 25.5908 36.8497 25.2061 36.3713 25.2061C35.8928 25.2061 35.5049 25.5908 35.5049 26.0654C35.5049 26.54 35.8928 26.9248 36.3713 26.9248Z" fill="#C8102E"/>
</svg>
