<svg width="104" height="44" viewBox="0 0 104 44" fill="none" xmlns="http://www.w3.org/2000/svg">
<path d="M55.9298 6.47581C55.4153 5.96129 54.7323 5.67742 54.0048 5.67742C52.5056 5.67742 51.2903 6.89274 51.2903 8.39194C51.2903 9.11936 51.5742 9.80242 52.0887 10.3169L52.4169 10.6452L32.2621 30.8C30.8073 32.2548 30 34.1976 30 36.2645C30 40.5315 33.4685 44 37.7355 44C39.8024 44 41.7452 43.1927 43.2089 41.7379L63.3548 21.5831L63.6831 21.9113C64.1976 22.4258 64.8806 22.7097 65.6081 22.7097C67.1073 22.7097 68.3226 21.4944 68.3226 19.9952C68.3226 19.2677 68.0387 18.5847 67.5242 18.0702L55.9298 6.47581ZM42.1976 40.7355C41.0089 41.9242 39.421 42.5807 37.7355 42.5807C34.2492 42.5807 31.4194 39.7508 31.4194 36.2645C31.4194 34.579 32.0758 32.9911 33.2645 31.8024L36.6798 28.3871H54.546L42.1976 40.7355ZM65.6081 21.2903C65.271 21.2903 64.9339 21.1484 64.6944 20.9089L63.3637 19.5782L55.9653 26.9677H38.0992L40.6452 24.4218L42.2685 26.0452L43.271 25.0427L41.6476 23.4194L42.7742 22.2927L45.8169 25.3355L46.8194 24.3331L43.7766 21.2903L44.9032 20.1637L46.5266 21.7871L47.529 20.7847L45.9056 19.1613L47.0323 18.0347L50.075 21.0774L51.0774 20.075L48.0347 17.0323L49.1613 15.9056L50.7847 17.529L51.7871 16.5266L50.1637 14.9032L51.2903 13.7766L54.3331 16.8194L55.3355 15.8169L52.2927 12.7742L53.4194 11.6476L60.7202 18.9484L61.7226 17.946L53.0911 9.31452C52.8427 9.06613 52.7097 8.74678 52.7097 8.40081C52.7097 7.68226 53.2952 7.10565 54.0048 7.10565C54.3419 7.10565 54.679 7.24758 54.9185 7.4871L66.5218 19.0726C66.7702 19.321 66.9032 19.6403 66.9032 19.9863C66.9032 20.7048 66.3177 21.2903 65.6081 21.2903Z" fill="#C8102E"/>
<path d="M71.1613 7.80645C69.6 7.80645 68.3226 9.08387 68.3226 10.6452C68.3226 12.2064 69.6 13.4839 71.1613 13.4839C72.7226 13.4839 74 12.2064 74 10.6452C74 9.08387 72.7226 7.80645 71.1613 7.80645ZM71.1613 12.0645C70.3806 12.0645 69.7419 11.4258 69.7419 10.6452C69.7419 9.86451 70.3806 9.2258 71.1613 9.2258C71.9419 9.2258 72.5806 9.86451 72.5806 10.6452C72.5806 11.4258 71.9419 12.0645 71.1613 12.0645Z" fill="#154476"/>
<path d="M60.5161 6.38709C61.6871 6.38709 62.6451 5.42903 62.6451 4.25806C62.6451 3.08709 61.6871 2.12903 60.5161 2.12903C59.3451 2.12903 58.3871 3.08709 58.3871 4.25806C58.3871 5.42903 59.3451 6.38709 60.5161 6.38709ZM60.5161 3.54838C60.9064 3.54838 61.2258 3.86774 61.2258 4.25806C61.2258 4.64838 60.9064 4.96774 60.5161 4.96774C60.1258 4.96774 59.8064 4.64838 59.8064 4.25806C59.8064 3.86774 60.1258 3.54838 60.5161 3.54838Z" fill="#154476"/>
<path d="M69.0323 4.25806C70.2032 4.25806 71.1613 3.3 71.1613 2.12903C71.1613 0.958064 70.2032 0 69.0323 0C67.8613 0 66.9032 0.958064 66.9032 2.12903C66.9032 3.3 67.8613 4.25806 69.0323 4.25806ZM69.0323 1.41935C69.4226 1.41935 69.7419 1.73871 69.7419 2.12903C69.7419 2.51935 69.4226 2.83871 69.0323 2.83871C68.6419 2.83871 68.3226 2.51935 68.3226 2.12903C68.3226 1.73871 68.6419 1.41935 69.0323 1.41935Z" fill="#154476"/>
<path d="M39.2258 32.6452C39.2258 31.4742 38.2677 30.5161 37.0968 30.5161C35.9258 30.5161 34.9677 31.4742 34.9677 32.6452C34.9677 33.8161 35.9258 34.7742 37.0968 34.7742C38.2677 34.7742 39.2258 33.8161 39.2258 32.6452ZM36.3871 32.6452C36.3871 32.2548 36.7065 31.9355 37.0968 31.9355C37.4871 31.9355 37.8065 32.2548 37.8065 32.6452C37.8065 33.0355 37.4871 33.3548 37.0968 33.3548C36.7065 33.3548 36.3871 33.0355 36.3871 32.6452Z" fill="#154476"/>
<path d="M44.9032 30.5161C43.7323 30.5161 42.7742 31.4742 42.7742 32.6452C42.7742 33.8161 43.7323 34.7742 44.9032 34.7742C46.0742 34.7742 47.0323 33.8161 47.0323 32.6452C47.0323 31.4742 46.0742 30.5161 44.9032 30.5161ZM44.9032 33.3548C44.5129 33.3548 44.1936 33.0355 44.1936 32.6452C44.1936 32.2548 44.5129 31.9355 44.9032 31.9355C45.2936 31.9355 45.6129 32.2548 45.6129 32.6452C45.6129 33.0355 45.2936 33.3548 44.9032 33.3548Z" fill="#154476"/>
<path d="M38.5161 36.9032C37.3451 36.9032 36.3871 37.8613 36.3871 39.0322C36.3871 40.2032 37.3451 41.1613 38.5161 41.1613C39.6871 41.1613 40.6452 40.2032 40.6452 39.0322C40.6452 37.8613 39.6871 36.9032 38.5161 36.9032ZM38.5161 39.7419C38.1258 39.7419 37.8064 39.4226 37.8064 39.0322C37.8064 38.6419 38.1258 38.3226 38.5161 38.3226C38.9064 38.3226 39.2258 38.6419 39.2258 39.0322C39.2258 39.4226 38.9064 39.7419 38.5161 39.7419Z" fill="#154476"/>
</svg>
