<svg width="104" height="44" viewBox="0 0 104 44" fill="none" xmlns="http://www.w3.org/2000/svg">
<path d="M64.828 27.8135L64.4319 27.4268C61.8641 29.7935 58.6953 31.3602 55.2192 31.9535C54.9255 32.0068 54.7275 32.2735 54.7821 32.5602C54.8299 32.8135 55.0553 32.9935 55.3148 32.9935C55.3489 32.9935 55.3763 32.9935 55.4104 32.9868C59.2826 32.3202 62.8065 30.5335 65.5929 27.8068C65.4904 27.9068 65.347 27.9602 65.2104 27.9602C65.0738 27.9668 64.9372 27.9135 64.828 27.8135Z" fill="white" stroke="#E30613" stroke-miterlimit="10"/>
<path d="M65.5929 27.0667L63.749 25.2667C63.5373 25.06 63.1959 25.06 62.9841 25.2667C62.7724 25.4734 62.7724 25.8067 62.9841 26.0134L64.4319 27.4267C64.5617 27.3067 64.6983 27.1934 64.828 27.0667C65.0398 26.86 65.3812 26.86 65.5929 27.0667Z" fill="white" stroke="#E30613" stroke-miterlimit="10"/>
<path d="M65.5927 27.0667C65.381 26.8601 65.0395 26.8601 64.8278 27.0667C64.6981 27.1934 64.5615 27.3067 64.4317 27.4267L64.8278 27.8134C64.9303 27.9134 65.0737 27.9667 65.2103 27.9667C65.3468 27.9667 65.4834 27.9134 65.5927 27.8134C65.8044 27.6067 65.8044 27.2734 65.5927 27.0667Z" fill="white" stroke="#E30613" stroke-miterlimit="10"/>
<path d="M52.091 28.28C44.367 28.28 38.0909 22.16 38.0909 14.64C38.0909 7.12 44.3739 1 52.091 1C59.808 1 66.091 7.12 66.091 14.64C66.091 22.16 59.8149 28.28 52.091 28.28ZM52.091 2.04667C44.968 2.04667 39.17 7.69334 39.17 14.6333C39.17 21.5733 44.968 27.22 52.091 27.22C59.2139 27.22 65.0119 21.5733 65.0119 14.6333C65.0119 7.69334 59.2139 2.04667 52.091 2.04667Z" fill="white" stroke="#E30613" stroke-miterlimit="10"/>
<path d="M59.5966 38.8865H59.1459C58.8864 37.3532 57.5205 36.1865 55.8815 36.1865H52.7059V32.2132H52.1664C47.3585 32.2665 42.7898 30.4132 39.3546 27.0598C32.4571 20.3332 32.3341 9.45981 38.979 2.57314L40.4678 4.02648C40.5703 4.12648 40.7137 4.17981 40.8503 4.17981C40.9868 4.17981 41.1234 4.12648 41.2327 4.02648C41.4444 3.81981 41.4444 3.48648 41.2327 3.27981L39.3478 1.44647C39.1361 1.23981 38.7946 1.23981 38.5829 1.44647C31.139 8.71315 31.139 20.5398 38.5829 27.8065C42.0932 31.2332 46.7029 33.1598 51.62 33.2598V36.1798H48.4512C46.8122 36.1798 45.4464 37.3532 45.1868 38.8798H44.6268C42.701 38.8798 41.1303 40.4132 41.1303 42.2932V42.9998H63.0864V42.2932C63.0932 40.4198 61.5225 38.8865 59.5966 38.8865ZM42.2434 41.9532C42.4142 40.8132 43.4181 39.9398 44.6337 39.9398H46.2317V39.4132C46.2317 38.2132 47.2288 37.2398 48.4581 37.2398H55.8815C57.1108 37.2398 58.1078 38.2132 58.1078 39.4132V39.9398H59.5966C60.8122 39.9398 61.8161 40.8132 61.9869 41.9532H42.2434Z" fill="white" stroke="#E30613" stroke-miterlimit="10"/>
<path d="M56.496 21.1201L52.8765 19.2601C52.3984 19.0134 51.8316 19.0201 51.3604 19.2601L47.7341 21.1201L48.4238 17.1801C48.5126 16.6667 48.3419 16.1401 47.9526 15.7734L45.0228 12.9867L49.0726 12.4134C49.6053 12.3401 50.0628 12.0134 50.3019 11.5401L52.1116 7.9534L53.9214 11.5401C54.1604 12.0067 54.618 12.3334 55.1506 12.4134L59.2004 12.9867L56.2706 15.7801C55.8882 16.1467 55.7106 16.6734 55.7994 17.1867L56.496 21.1201ZM52.1184 18.1801C52.5282 18.1801 52.9311 18.2734 53.3067 18.4667L55.2804 19.4801L54.9048 17.3401C54.7614 16.5334 55.0414 15.7067 55.6424 15.1334L57.2336 13.6134L55.0277 13.3001C54.1945 13.1801 53.4775 12.6734 53.1087 11.9401L52.1184 9.9934L51.135 11.9401C50.7662 12.6734 50.0423 13.1867 49.216 13.3001L47.017 13.6134L48.6082 15.1334C49.2092 15.7067 49.4823 16.5334 49.3389 17.3401L48.9633 19.4801L50.9302 18.4667C51.2989 18.2734 51.7087 18.1801 52.1184 18.1801Z" fill="white" stroke="#154476" stroke-miterlimit="10"/>
</svg>
