<svg width="104" height="44" viewBox="0 0 104 44" fill="none" xmlns="http://www.w3.org/2000/svg">
<g clip-path="url(#clip0)">
<path d="M73.3712 11.5514L70.5282 11.1439C70.1296 11.0908 69.8551 10.7187 69.9082 10.3201C69.9348 10.1252 70.041 9.95691 70.1916 9.84175L72.4855 8.12321C72.8043 7.88403 72.8752 7.42339 72.6272 7.10449L69.9968 3.59654C69.7576 3.27763 69.2971 3.20676 68.9782 3.4548L66.6844 5.17334C66.3655 5.42138 65.905 5.35051 65.657 5.03161C65.5419 4.87216 65.4887 4.67727 65.5153 4.48238L65.9227 1.63882C65.9758 1.24018 65.7013 0.868129 65.3027 0.814978L60.9718 0.194886C60.5733 0.141735 60.2013 0.416348 60.1481 0.814978L59.7407 3.65855C59.6876 4.05718 59.3156 4.33179 58.9171 4.27864C58.7222 4.25206 58.5539 4.14576 58.4388 3.99517L56.7206 1.70083C56.4815 1.38192 56.0209 1.31105 55.7021 1.55909L53.5056 3.18905C52.5137 3.08275 51.5129 3.08275 50.5209 3.18905C44.0201 3.93316 38.9187 9.11536 38.2899 15.6263C38.2721 15.8301 38.2633 16.0338 38.2544 16.2464H38.033C37.6876 16.2464 37.3865 16.4945 37.3156 16.8311L36.8108 19.2317L34.7915 17.8409C34.4992 17.6372 34.1095 17.6726 33.8615 17.9295L31.6739 20.1087C31.4259 20.3568 31.3905 20.7465 31.5853 21.0389L32.9758 23.0586L30.5757 23.5635C30.2391 23.6344 30 23.9356 30 24.2811V27.2043C30 27.5498 30.2391 27.851 30.5757 27.9219L32.9758 28.4268L31.5942 30.4377C31.3905 30.73 31.4259 31.1198 31.6828 31.3678L33.8704 33.5559C34.1184 33.8039 34.508 33.8393 34.8003 33.6445L36.8196 32.2537L37.3245 34.6543C37.3953 34.9909 37.6965 35.239 38.0419 35.239H40.9646C41.31 35.239 41.6111 34.9998 41.682 34.6632L42.1868 32.2625L44.2061 33.6533C44.4984 33.8571 44.8881 33.8216 45.1361 33.5647L46.2697 32.4308V34.5126C46.2697 35.549 46.8277 36.5057 47.7311 37.0284V41.0856C47.7311 42.6978 49.0419 44.0089 50.6538 44.0089H53.5765C55.1884 44.0089 56.4992 42.6978 56.4992 41.0856V37.0284C57.4026 36.5146 57.9605 35.549 57.9605 34.5126V31.6247C57.9783 30.4111 58.6159 29.2861 59.6522 28.6394C60.2544 28.2496 60.8301 27.8067 61.3704 27.3284L60.3961 26.2388C59.9179 26.6728 59.4042 27.0626 58.8551 27.4169C57.4026 28.3294 56.5169 29.915 56.4992 31.6247V34.5126C56.4992 35.3187 55.8438 35.9742 55.0378 35.9742H49.2013C48.3953 35.9742 47.7399 35.3187 47.7399 34.5126V31.5627C47.7222 29.8796 46.8454 28.3294 45.4283 27.4435C39.6449 23.8027 37.9002 16.1667 41.5314 10.3821C43.7898 6.79444 47.7222 4.6064 51.9646 4.58868C51.9557 4.61526 51.9469 4.64184 51.938 4.66841C51.9114 4.8633 51.9646 5.05818 52.0797 5.20878L53.7979 7.50312C53.975 7.7423 53.9927 8.0612 53.8422 8.3181C53.6916 8.57499 53.4082 8.70787 53.1159 8.67244L50.2729 8.26495C49.8744 8.2118 49.5024 8.48641 49.4493 8.88504L48.8293 13.2257C48.7762 13.6243 49.0507 13.9964 49.4493 14.0495L52.2923 14.457C52.6908 14.5102 52.9654 14.8822 52.9122 15.2809C52.8857 15.4757 52.7794 15.644 52.6288 15.7592L50.3349 17.4778C50.0161 17.7169 49.9452 18.1776 50.1932 18.4965L52.8237 22.0044C53.0628 22.3233 53.5233 22.3942 53.8422 22.1462L56.1361 20.4276C56.4549 20.1884 56.9154 20.2505 57.1546 20.5782C57.2697 20.7288 57.3229 20.9237 57.2963 21.1186L56.8889 23.9621C56.8357 24.3608 57.1103 24.7328 57.5088 24.786L61.8486 25.4061C61.884 25.4061 61.9195 25.4149 61.9549 25.4149C62.318 25.4149 62.628 25.1492 62.6811 24.786L63.0886 21.9424C63.1417 21.5438 63.5137 21.2692 63.9122 21.3223C64.1071 21.3489 64.2753 21.4552 64.3905 21.6058L66.1087 23.9001C66.3478 24.219 66.8084 24.2899 67.1272 24.0419L70.6344 21.4109C70.9533 21.1717 71.0241 20.7111 70.7762 20.3922L69.058 18.0978C68.8808 17.8587 68.8631 17.5398 69.0137 17.2829C69.1554 17.026 69.4477 16.8842 69.7399 16.9285L72.5829 17.336C72.9815 17.3892 73.3534 17.1146 73.4066 16.7159L74.0266 12.3753C74.0531 11.9766 73.7697 11.6046 73.3712 11.5514ZM49.1747 37.427H55.0113V38.8887H49.1747V37.427ZM49.1747 40.3503H55.0113V41.0767C55.0113 41.8828 54.3559 42.5383 53.5499 42.5383H50.6272C49.8212 42.5383 49.1659 41.8828 49.1659 41.0767V40.3503H49.1747ZM43.3647 27.7536C43.7633 28.0813 44.1795 28.3825 44.6135 28.666C45.3043 29.1001 45.8269 29.7644 46.0837 30.5351L44.5161 32.0942L43.0016 31.0489C42.3374 30.5883 41.4251 30.7566 40.9734 31.421C40.8671 31.5804 40.7874 31.7576 40.7432 31.9525L40.3623 33.7773H38.6264L38.2456 31.9525C38.0773 31.1641 37.3068 30.6591 36.5185 30.8275C36.3325 30.8629 36.1465 30.9426 35.9871 31.0578L34.4726 32.1031L33.1441 30.7743L34.1892 29.2595C34.6498 28.5951 34.4815 27.6827 33.8172 27.2309C33.6578 27.1246 33.4807 27.0449 33.2858 27.0006L31.4614 26.6197V24.8834L33.2858 24.5025C34.0741 24.3342 34.5789 23.5635 34.4106 22.7751C34.3752 22.5891 34.2955 22.4119 34.1892 22.2525L33.1441 20.7288L34.4726 19.4L35.9871 20.4453C36.6514 20.906 37.5636 20.7377 38.0153 20.0733C38.1216 19.9138 38.2013 19.7367 38.2456 19.5418L38.3696 18.9305C38.4847 19.7721 38.6795 20.6048 38.9452 21.4109C36.5451 21.6944 34.8269 23.8736 35.1103 26.2831C35.3937 28.6837 37.5725 30.4023 39.9815 30.1188C41.434 29.9328 42.7005 29.0469 43.3647 27.7536ZM42.2311 26.726C41.682 28.2408 40.0169 29.0292 38.5024 28.48C36.9879 27.9307 36.1997 26.2653 36.7488 24.7506C37.1651 23.5901 38.2633 22.8194 39.4944 22.8194C39.5032 22.8194 39.5121 22.8194 39.5209 22.8194C40.194 24.2722 41.1063 25.5921 42.2311 26.726ZM72.0249 15.7858L69.9082 15.4846C68.7125 15.3163 67.6055 16.149 67.4283 17.3449C67.3486 17.9207 67.4992 18.5053 67.8446 18.966L69.1288 20.6757L66.7906 22.4296L65.5153 20.7199C64.789 19.7544 63.4163 19.5595 62.4509 20.277C61.9903 20.6225 61.6803 21.1452 61.6006 21.721L61.3084 23.8381L58.4211 23.4218L58.7222 21.3046C58.8905 20.1087 58.058 18.9925 56.8623 18.8242C56.2866 18.7445 55.7021 18.8951 55.2415 19.2406L53.5322 20.5251L51.7786 18.1864L53.4879 16.902C54.4533 16.1756 54.6481 14.8025 53.9307 13.8369C53.5853 13.3763 53.0628 13.0662 52.4871 12.9865L50.3704 12.6853L50.7866 9.79746L52.9034 10.0986C54.099 10.267 55.215 9.43427 55.3832 8.23837C55.463 7.66257 55.3124 7.07791 54.967 6.61727L53.6828 4.90759L56.0209 3.15361L57.2786 4.8633C58.0048 5.82887 59.3776 6.02376 60.343 5.30622C60.8035 4.96074 61.1135 4.43809 61.1932 3.86229L61.4944 1.74512L64.3816 2.16147L64.0805 4.27864C63.9122 5.47453 64.7448 6.58184 65.9404 6.75901C66.5161 6.83874 67.1006 6.68814 67.5612 6.34266L69.2794 5.04932L71.033 7.38796L69.3237 8.67244C68.3583 9.39883 68.1634 10.7719 68.8808 11.7375C69.2262 12.1981 69.7488 12.5082 70.3245 12.5879L72.4412 12.8891L72.0249 15.7858Z" fill="#C8102E"/>
<path d="M61.3969 6.94502C58.1731 6.94502 55.5604 9.55827 55.5604 12.7828C55.5604 16.0072 58.1731 18.6205 61.3969 18.6205C64.6208 18.6205 67.2335 16.0072 67.2335 12.7828C67.2335 9.56713 64.6208 6.95388 61.3969 6.94502ZM61.3969 17.1677C58.9791 17.1677 57.0129 15.21 57.0129 12.7828C57.0129 10.3555 58.9702 8.39781 61.3969 8.39781C63.8237 8.39781 65.781 10.3555 65.781 12.7828C65.7721 15.21 63.8148 17.1677 61.3969 17.1677Z" fill="#154476"/>
<path d="M48.9002 25.1403C44.3921 23.3775 42.1691 18.3016 43.9316 13.7926C44.6135 12.0475 45.8358 10.5681 47.4211 9.56714L46.6417 8.32695C41.868 11.3388 40.4332 17.6461 43.4444 22.4296C44.6135 24.281 46.3406 25.7073 48.3776 26.5045C50.1844 27.1955 51.3712 28.9229 51.3712 30.854H52.8325C52.8325 28.3205 51.2649 26.0439 48.9002 25.1403Z" fill="#154476"/>
<path d="M71.0773 27.2043H65.967V28.666H71.0773V27.2043Z" fill="#154476"/>
<path d="M36.5867 11.1522L30.7443 12.613L31.0986 14.0309L36.9411 12.5702L36.5867 11.1522Z" fill="#C8102E"/>
<path d="M32.8087 3.97086L31.9593 5.1602L37.0689 8.81052L37.9182 7.62118L32.8087 3.97086Z" fill="#C8102E"/>
<path d="M39.6284 0.00178045L38.2127 0.363831L39.7066 6.20823L41.1224 5.84618L39.6284 0.00178045Z" fill="#C8102E"/>
</g>
<defs>
<clipPath id="clip0">
<rect width="44" height="44" fill="white" transform="translate(30)"/>
</clipPath>
</defs>
</svg>
