<svg width="104" height="44" viewBox="0 0 104 44" fill="none" xmlns="http://www.w3.org/2000/svg">
<g clip-path="url(#clip0)">
<path d="M71.8007 0H63.7311C62.5194 0 61.5311 0.988088 61.5311 2.19957V6.55575C61.3765 6.48702 61.2132 6.43546 61.0499 6.40969L53.1093 5.00918C51.9147 4.80297 50.7718 5.60203 50.5569 6.79633L49.01 15.5688C48.8468 15.4571 48.6663 15.3712 48.4858 15.3025L40.8116 12.8108C39.66 12.4327 38.414 13.0685 38.0358 14.2199L37.3655 16.282C37.3655 16.2906 37.3569 16.2992 37.3483 16.3078C37.3483 16.3163 37.3483 16.3249 37.3483 16.3335L30.1124 38.63C29.7343 39.7813 30.3702 41.0271 31.5218 41.4052L39.196 43.8969C39.4194 43.9656 39.6429 44.0086 39.8749 44.0086C40.8288 44.0086 41.671 43.39 41.9632 42.4878L46.9905 27.0135L45.5897 34.9611L44.9538 38.5698L44.696 40.0133C44.5929 40.589 44.7218 41.1818 45.0569 41.6544C45.3921 42.1355 45.8991 42.462 46.4749 42.5565L54.4155 43.957C54.9913 44.0602 55.5843 43.9313 56.0569 43.5962C56.5382 43.2611 56.8647 42.7542 56.9593 42.1785L57.8444 37.1263L61.514 16.3507V41.8004C61.514 43.0119 62.5022 44 63.714 44H71.7835C72.9952 44 73.9835 43.0119 73.9835 41.8004V2.19957C74.0007 0.988088 73.0124 0 71.8007 0ZM46.9132 35.932L56.2975 37.5903L55.9194 39.7555L46.535 38.0973L46.9132 35.932ZM56.5554 36.1469L47.171 34.4886L50.9952 12.828L60.3796 14.4862L56.5554 36.1469ZM51.2358 11.3845L51.614 9.21929L60.9983 10.8776L60.6202 13.0428L51.2358 11.3845ZM63.0007 8.06796H72.5311V35.932H63.0007V8.06796ZM63.0007 6.59871V4.39914H72.5311V6.59871H63.0007ZM63.0007 37.3927H72.5311V39.5923H63.0007V37.3927ZM63.7311 1.46924H71.8007C72.2046 1.46924 72.5311 1.79574 72.5311 2.19957V2.9299H63.0007V2.19957C63.0007 1.79574 63.3272 1.46924 63.7311 1.46924ZM52.7225 6.44405C52.7655 6.44405 52.8085 6.44405 52.8515 6.45265L60.8007 7.85315C61.196 7.92189 61.4624 8.29994 61.3936 8.70377L61.2647 9.4255L51.8804 7.77583L52.0007 7.0455C52.0608 6.70182 52.3702 6.44405 52.7225 6.44405ZM39.4366 14.6753C39.5655 14.2886 39.978 14.0824 40.3647 14.2027L48.039 16.6944C48.4257 16.8233 48.6319 17.2357 48.5116 17.6223L48.0561 19.0143L38.9897 16.0672L39.4366 14.6753ZM41.4819 39.2314L32.4155 36.2929L38.5343 17.4677L47.6007 20.4148L41.4819 39.2314ZM40.571 42.0324C40.4421 42.4191 40.0296 42.6253 39.6429 42.505L31.9686 40.0133C31.5819 39.8844 31.3757 39.472 31.496 39.0853L31.9515 37.6848L41.0179 40.6319L40.571 42.0324ZM54.6819 42.5136L46.7413 41.1131C46.346 41.0443 46.0796 40.6663 46.1483 40.2625L46.2772 39.5407L55.6616 41.199L55.5327 41.9207C55.464 42.316 55.0858 42.5823 54.6819 42.5136ZM71.8007 42.5222H63.7311C63.3272 42.5222 63.0007 42.1957 63.0007 41.7918V41.0615H72.5311V41.7918C72.5311 42.1957 72.2046 42.5222 71.8007 42.5222Z" fill="#C8102E"/>
<path d="M69.6 10.2675H65.9305C65.1227 10.2675 64.4609 10.9205 64.4609 11.7368V32.2632C64.4609 33.0709 65.1141 33.7325 65.9305 33.7325H69.6C70.4078 33.7325 71.0695 33.0795 71.0695 32.2632V11.7282C71.0695 10.9205 70.4078 10.2675 69.6 10.2675ZM65.9305 32.2632V11.7282H69.6V32.2546H65.9305V32.2632Z" fill="#154476"/>
<path d="M40.5703 21.841C40.3812 21.7809 40.1836 21.7981 40.0117 21.884C39.8398 21.9699 39.7109 22.1246 39.6508 22.3136L35.6289 34.669C35.5 35.0557 35.7148 35.4681 36.1016 35.597C36.1789 35.6227 36.2477 35.6313 36.325 35.6313C36.643 35.6313 36.9266 35.4251 37.0211 35.1244L41.0344 22.769C41.1633 22.3823 40.9484 21.9699 40.5703 21.841Z" fill="#154476"/>
<path d="M41.9625 28.6288C41.5758 28.4999 41.1633 28.7147 41.0344 29.1013L38.8859 35.7258C38.757 36.1124 38.9719 36.5249 39.3586 36.6538C39.4359 36.6795 39.5047 36.6881 39.582 36.6881C39.9 36.6881 40.1836 36.4819 40.2781 36.1812L42.4266 29.5653C42.5555 29.1701 42.3492 28.7576 41.9625 28.6288Z" fill="#154476"/>
<path d="M57.6977 16.9865L52.6445 16.0929C52.2492 16.0242 51.8625 16.2905 51.7938 16.6858C51.725 17.081 51.9914 17.4677 52.3867 17.5364L57.4398 18.43C57.4828 18.4386 57.5258 18.4386 57.5688 18.4386C57.9469 18.4386 58.2648 18.1464 58.2992 17.7684C58.3336 17.3903 58.0758 17.0552 57.6977 16.9865Z" fill="#C8102E"/>
<path d="M57.1906 19.8734L52.1289 18.9884C51.8711 18.9369 51.5961 19.0314 51.4242 19.229C51.2524 19.4266 51.2008 19.7102 51.2953 19.9593C51.3899 20.2085 51.6047 20.3889 51.8711 20.4319L56.9242 21.3255C56.9672 21.3341 57.0102 21.3341 57.0531 21.3341C57.4313 21.3341 57.7492 21.0419 57.7836 20.6639C57.8266 20.2858 57.5602 19.9422 57.1906 19.8734Z" fill="#C8102E"/>
</g>
<defs>
<clipPath id="clip0">
<rect width="44" height="44" fill="white" transform="translate(30)"/>
</clipPath>
</defs>
</svg>
