<svg width="56" height="56" viewBox="0 0 56 56" fill="none" xmlns="http://www.w3.org/2000/svg">
<path d="M7.12002 49.4343C5.11851 49.4343 3.5 47.8813 3.5 45.9607V17.0576H7.73777" stroke="#44C62C" stroke-width="2" stroke-miterlimit="10"/>
<path d="M14.7058 49.4106H7.021C9.40552 49.4106 10.7646 47.573 10.7646 45.8185L10.6904 5.61722C10.6904 3.80337 12.2225 2.33331 14.1004 2.33331H16.3243" stroke="#44C62C" stroke-width="2" stroke-miterlimit="10"/>
<path d="M52.5002 53.6664V4.45521C52.5002 3.29339 51.5118 2.34497 50.301 2.34497H48.003H13.7178C16.1023 2.34497 17.4613 4.18254 17.4613 5.93712L17.3749 53.6664H52.5002Z" stroke="#44C62C" stroke-width="2" stroke-miterlimit="10"/>
<path d="M40.8865 9.45834C40.8865 7.68005 39.3791 6.2337 37.5259 6.2337C36.5869 6.2337 35.7344 6.60122 35.129 7.20584C34.5236 6.60122 33.6711 6.2337 32.7321 6.2337C30.8789 6.2337 29.3716 7.68005 29.3716 9.45834C29.3716 10.3238 29.7299 11.1181 30.3106 11.699L35.1167 16.287L40.0463 11.6041C40.0957 11.5449 40.244 11.3789 40.244 11.3789C40.6517 10.8335 40.8865 10.1815 40.8865 9.45834Z" stroke="#44C62C" stroke-width="2" stroke-miterlimit="10"/>
<path d="M29.3716 24.4553H49.1026" stroke="#44C62C" stroke-width="2" stroke-miterlimit="10"/>
<path d="M29.3716 31.2484H49.1026" stroke="#44C62C" stroke-width="2" stroke-miterlimit="10"/>
<path d="M29.3716 38.0414H49.1026" stroke="#44C62C" stroke-width="2" stroke-miterlimit="10"/>
<path d="M29.3716 44.8345H49.1026" stroke="#44C62C" stroke-width="2" stroke-miterlimit="10"/>
<path d="M26.9007 24.4553H22.2305" stroke="#44C62C" stroke-width="2" stroke-miterlimit="10"/>
<path d="M26.9007 31.2484H22.2305" stroke="#44C62C" stroke-width="2" stroke-miterlimit="10"/>
<path d="M26.9007 38.0414H22.2305" stroke="#44C62C" stroke-width="2" stroke-miterlimit="10"/>
<path d="M26.9007 44.8345H22.2305" stroke="#44C62C" stroke-width="2" stroke-miterlimit="10"/>
</svg>
