<svg width="56" height="56" viewBox="0 0 56 56" fill="none" xmlns="http://www.w3.org/2000/svg">
<path d="M27.344 52C23.9171 52 20.6397 51.2171 17.5991 49.6764L18.351 48.1898C21.1548 49.614 24.183 50.3343 27.344 50.3343V52Z" fill="#DB4534"/>
<path d="M7.49258 27.0528L5.84766 26.8112C6.02212 25.6286 6.29212 24.4543 6.65766 23.3175C9.5612 14.2231 17.873 8.11011 27.3438 8.11011V9.77576C18.6 9.77576 10.9195 15.4223 8.24027 23.8256C7.90381 24.8791 7.65043 25.9618 7.49258 27.0528Z" fill="#DB4534"/>
<path d="M27.3436 52C23.9832 52 20.8096 49.8555 18.4087 45.962L19.821 45.0875C21.9062 48.473 24.5772 50.3344 27.3436 50.3344C33.5495 50.3344 38.5964 41.2357 38.5964 30.055C38.5964 29.0431 38.5548 28.0271 38.4676 27.0277L40.125 26.8861C40.2122 27.9313 40.2579 28.9973 40.2579 30.0509C40.2579 42.156 34.4633 52 27.3436 52Z" fill="#DB4534"/>
<path d="M16.8053 22.9219L15.1812 22.5763C17.0088 13.9232 21.8979 8.11011 27.3436 8.11011V9.77576C22.7038 9.77576 18.4668 15.0601 16.8053 22.9219Z" fill="#DB4534"/>
<path d="M27.344 52C26.887 52 26.5132 51.6252 26.5132 51.1672V7.91846H28.1747V50.3177C38.8584 49.8763 47.4112 40.9567 47.4112 30.055C47.4112 28.0812 47.1329 26.1366 46.5804 24.2627L48.1755 23.7921C48.7695 25.8159 49.0727 27.923 49.0727 30.055C49.0727 42.156 39.3236 52 27.344 52Z" fill="#DB4534"/>
<path d="M27.967 21.7767H7.8042V23.4433H27.967V21.7767Z" fill="#DB4534"/>
<path d="M46.8833 36.6635H21.0464V38.3301H46.8833V36.6635Z" fill="#DB4534"/>
<path d="M15.5717 47.2737L10.3877 43.6342H1V25.3953H19.3475V43.6342H15.5675V47.2737H15.5717ZM2.66154 41.9686H10.9111L13.9102 44.0756V41.9686H17.6902V27.061H2.66154V41.9686Z" fill="#DB4534"/>
<path d="M34.5506 28.8141V22.418H30.4092V4H55V22.418H41.1303L34.5506 28.8141ZM32.0707 20.7523H36.2079V24.879L40.4532 20.7523H53.3384V5.66565H32.0707V20.7523Z" fill="#DB4534"/>
<path d="M49.0643 9.96301H36.3452V11.6296H49.0643V9.96301Z" fill="#DB4534"/>
<path d="M49.0643 14.4561H36.3452V16.1227H49.0643V14.4561Z" fill="#DB4534"/>
<path d="M10.1756 39.9157L5.89299 35.5892C4.63853 34.3191 4.63853 32.2537 5.89299 30.9795L5.93038 30.942C6.54099 30.3257 7.35099 29.9884 8.21915 29.9884C8.93776 29.9884 9.619 30.2216 10.1756 30.6547C10.7364 30.2216 11.4176 29.9884 12.1321 29.9884C12.9961 29.9884 13.8102 30.3299 14.4208 30.9462L14.4624 30.9878C15.7168 32.2537 15.7127 34.3233 14.4582 35.5892L10.1756 39.9157ZM8.215 31.6541C7.79546 31.6541 7.40084 31.8206 7.10592 32.1204L7.06853 32.1579C6.45376 32.7784 6.45376 33.7944 7.07269 34.419L10.1756 37.5546L13.2785 34.419C13.8933 33.7944 13.8933 32.7825 13.2785 32.1579L13.2411 32.1163C12.9504 31.8206 12.5558 31.6582 12.1362 31.6582C11.7167 31.6582 11.3221 31.8248 11.0271 32.1246L10.1798 32.9824L9.32823 32.1204C9.02915 31.8206 8.63453 31.6541 8.215 31.6541Z" fill="#DB4534"/>
</svg>
