<svg width="56" height="56" viewBox="0 0 56 56" fill="none" xmlns="http://www.w3.org/2000/svg">
<path d="M7.12002 49.4343C5.11851 49.4343 3.5 47.8813 3.5 45.9607V17.0576H7.73777" stroke="#FF008C" stroke-width="2" stroke-miterlimit="10"/>
<path d="M14.7061 49.4106H7.02124C9.40576 49.4106 10.7648 47.5731 10.7648 45.8185L10.6907 5.61724C10.6907 3.80338 12.2227 2.33333 14.1007 2.33333H16.3246" stroke="#FF008C" stroke-width="2" stroke-miterlimit="10"/>
<path d="M52.4999 53.6665V4.45524C52.4999 3.29342 51.5115 2.345 50.3007 2.345H48.0027H13.7175C16.102 2.345 17.4611 4.18257 17.4611 5.93715L17.3746 53.6665H52.4999Z" stroke="#FF008C" stroke-width="2" stroke-miterlimit="10"/>
<path d="M40.8863 9.45837C40.8863 7.68008 39.379 6.23373 37.5258 6.23373C36.5868 6.23373 35.7343 6.60125 35.1289 7.20587C34.5235 6.60125 33.671 6.23373 32.732 6.23373C30.8788 6.23373 29.3715 7.68008 29.3715 9.45837C29.3715 10.3238 29.7298 11.1181 30.3104 11.699L35.1165 16.287L40.0462 11.6042C40.0956 11.5449 40.2439 11.3789 40.2439 11.3789C40.6516 10.8336 40.8863 10.1815 40.8863 9.45837Z" stroke="#FF008C" stroke-width="2" stroke-miterlimit="10"/>
<path d="M29.3715 24.4553H49.1024" stroke="#FF008C" stroke-width="2" stroke-miterlimit="10"/>
<path d="M29.3715 31.2484H49.1024" stroke="#FF008C" stroke-width="2" stroke-miterlimit="10"/>
<path d="M29.3715 38.0414H49.1024" stroke="#FF008C" stroke-width="2" stroke-miterlimit="10"/>
<path d="M29.3715 44.8345H49.1024" stroke="#FF008C" stroke-width="2" stroke-miterlimit="10"/>
<path d="M26.9004 24.4553H22.2302" stroke="#FF008C" stroke-width="2" stroke-miterlimit="10"/>
<path d="M26.9004 31.2484H22.2302" stroke="#FF008C" stroke-width="2" stroke-miterlimit="10"/>
<path d="M26.9004 38.0414H22.2302" stroke="#FF008C" stroke-width="2" stroke-miterlimit="10"/>
<path d="M26.9004 44.8345H22.2302" stroke="#FF008C" stroke-width="2" stroke-miterlimit="10"/>
</svg>
