<svg width="56" height="56" viewBox="0 0 56 56" fill="none" xmlns="http://www.w3.org/2000/svg">
<path d="M7.12002 49.4344C5.11851 49.4344 3.5 47.8813 3.5 45.9608V17.0576H7.73777" stroke="#DB4534" stroke-width="2" stroke-miterlimit="10"/>
<path d="M14.7058 49.4107H7.021C9.40552 49.4107 10.7646 47.5731 10.7646 45.8185L10.6904 5.61728C10.6904 3.80343 12.2225 2.33337 14.1004 2.33337H16.3243" stroke="#DB4534" stroke-width="2" stroke-miterlimit="10"/>
<path d="M52.5002 53.6666V4.45533C52.5002 3.29351 51.5118 2.34509 50.301 2.34509H48.003H13.7178C16.1023 2.34509 17.4613 4.18266 17.4613 5.93724L17.3749 53.6666H52.5002Z" stroke="#DB4534" stroke-width="2" stroke-miterlimit="10"/>
<path d="M40.8865 9.4584C40.8865 7.68011 39.3791 6.23376 37.5259 6.23376C36.5869 6.23376 35.7344 6.60128 35.129 7.2059C34.5236 6.60128 33.6711 6.23376 32.7321 6.23376C30.8789 6.23376 29.3716 7.68011 29.3716 9.4584C29.3716 10.3238 29.7299 11.1181 30.3106 11.699L35.1167 16.287L40.0463 11.6042C40.0957 11.5449 40.244 11.379 40.244 11.379C40.6517 10.8336 40.8865 10.1816 40.8865 9.4584Z" stroke="#DB4534" stroke-width="2" stroke-miterlimit="10"/>
<path d="M29.3716 24.4553H49.1026" stroke="#DB4534" stroke-width="2" stroke-miterlimit="10"/>
<path d="M29.3716 31.2484H49.1026" stroke="#DB4534" stroke-width="2" stroke-miterlimit="10"/>
<path d="M29.3716 38.0414H49.1026" stroke="#DB4534" stroke-width="2" stroke-miterlimit="10"/>
<path d="M29.3716 44.8345H49.1026" stroke="#DB4534" stroke-width="2" stroke-miterlimit="10"/>
<path d="M26.9007 24.4553H22.2305" stroke="#DB4534" stroke-width="2" stroke-miterlimit="10"/>
<path d="M26.9007 31.2484H22.2305" stroke="#DB4534" stroke-width="2" stroke-miterlimit="10"/>
<path d="M26.9007 38.0414H22.2305" stroke="#DB4534" stroke-width="2" stroke-miterlimit="10"/>
<path d="M26.9007 44.8345H22.2305" stroke="#DB4534" stroke-width="2" stroke-miterlimit="10"/>
</svg>
