<svg width="46" height="42" viewBox="0 0 46 42" fill="none" xmlns="http://www.w3.org/2000/svg">
<path d="M35.0859 28.0796H41.6889C43.2951 28.0796 44.5443 26.8407 44.3658 25.0708V3.83186C44.3658 2.23894 43.1166 1 41.5105 1H3.85536C2.24922 1 1 2.23894 1 4.00885V25.2478C1 26.8407 2.24922 28.0796 3.85536 28.0796H10.1015" stroke="#E30613" stroke-width="2" stroke-linecap="round" stroke-linejoin="round"/>
<path d="M29.5536 17.1062C27.769 15.3363 25.2706 14.4513 22.7722 14.4513C20.2737 14.4513 17.7753 15.5132 15.9907 17.1062" stroke="#E30613" stroke-width="2" stroke-linecap="round" stroke-linejoin="round"/>
<path d="M24.7352 34.0974L31.6951 41V34.2744H38.4766L31.5167 27.3717" stroke="#233559" stroke-width="2" stroke-linecap="round" stroke-linejoin="round"/>
<path d="M14.0276 27.3717L7.06763 34.2744H13.8491V41L20.8091 34.0974" stroke="#233559" stroke-width="2" stroke-linecap="round" stroke-linejoin="round"/>
<path d="M22.7578 18.3983C18.3625 18.3983 14.6999 22.0308 14.6999 26.3899C14.6999 30.7489 18.3625 34.3815 22.7578 34.3815C27.153 34.3815 30.8157 30.7489 30.8157 26.3899C30.8157 22.0308 27.153 18.3983 22.7578 18.3983Z" stroke="#233559" stroke-width="2" stroke-linecap="round" stroke-linejoin="round"/>
<line x1="13.1393" y1="5.56958" x2="31.8987" y2="5.56958" stroke="#E30613" stroke-width="2" stroke-linecap="round" stroke-linejoin="round"/>
<line x1="16.6836" y1="9.62024" x2="28.8608" y2="9.62024" stroke="#E30613" stroke-width="2" stroke-linecap="round" stroke-linejoin="round"/>
</svg>
