<svg width="56" height="56" viewBox="0 0 56 56" fill="none" xmlns="http://www.w3.org/2000/svg">
<path d="M27.3437 52C23.9168 52 20.6394 51.2171 17.5988 49.6764L18.3506 48.1898C21.1544 49.6139 24.1826 50.3343 27.3437 50.3343V52Z" fill="#FF008C"/>
<path d="M7.49246 27.0527L5.84753 26.8112C6.022 25.6286 6.292 24.4543 6.65753 23.3175C9.56107 14.223 17.8729 8.11009 27.3437 8.11009V9.77575C18.5998 9.77575 10.9194 15.4223 8.24015 23.8255C7.90369 24.8791 7.6503 25.9617 7.49246 27.0527Z" fill="#FF008C"/>
<path d="M27.3437 52C23.9833 52 20.8097 49.8555 18.4088 45.962L19.8211 45.0875C21.9064 48.473 24.5773 50.3344 27.3437 50.3344C33.5496 50.3344 38.5965 41.2357 38.5965 30.055C38.5965 29.0431 38.555 28.0271 38.4677 27.0277L40.1251 26.8861C40.2124 27.9313 40.258 28.9973 40.258 30.0509C40.258 42.156 34.4634 52 27.3437 52Z" fill="#FF008C"/>
<path d="M16.8054 22.9219L15.1813 22.5763C17.009 13.9232 21.898 8.11009 27.3437 8.11009V9.77575C22.7039 9.77575 18.467 15.06 16.8054 22.9219Z" fill="#FF008C"/>
<path d="M27.3437 52C26.8868 52 26.5129 51.6252 26.5129 51.1672V7.91844H28.1745V50.3177C38.8582 49.8763 47.4109 40.9567 47.4109 30.055C47.4109 28.0812 47.1326 26.1365 46.5802 24.2627L48.1753 23.7921C48.7693 25.8159 49.0725 27.923 49.0725 30.055C49.0725 42.156 39.3234 52 27.3437 52Z" fill="#FF008C"/>
<path d="M27.9667 21.7767H7.80396V23.4433H27.9667V21.7767Z" fill="#FF008C"/>
<path d="M46.8834 36.6635H21.0465V38.3301H46.8834V36.6635Z" fill="#FF008C"/>
<path d="M15.5717 47.2737L10.3877 43.6343H1V25.3954H19.3475V43.6343H15.5675V47.2737H15.5717ZM2.66154 41.9686H10.9111L13.9102 44.0757V41.9686H17.6902V27.061H2.66154V41.9686Z" fill="#FF008C"/>
<path d="M34.5506 28.8141V22.418H30.4092V4H55V22.418H41.1303L34.5506 28.8141ZM32.0707 20.7523H36.2079V24.879L40.4532 20.7523H53.3384V5.66565H32.0707V20.7523Z" fill="#FF008C"/>
<path d="M49.0642 9.96304H36.3451V11.6296H49.0642V9.96304Z" fill="#FF008C"/>
<path d="M49.0642 14.4561H36.3451V16.1227H49.0642V14.4561Z" fill="#FF008C"/>
<path d="M10.1759 39.9157L5.89324 35.5891C4.63878 34.3191 4.63878 32.2537 5.89324 30.9794L5.93062 30.942C6.54124 30.3257 7.35124 29.9884 8.21939 29.9884C8.93801 29.9884 9.61924 30.2216 10.1759 30.6546C10.7366 30.2216 11.4179 29.9884 12.1323 29.9884C12.9963 29.9884 13.8105 30.3298 14.4211 30.9461L14.4626 30.9878C15.7171 32.2537 15.7129 34.3232 14.4585 35.5891L10.1759 39.9157ZM8.21524 31.654C7.7957 31.654 7.40109 31.8206 7.10616 32.1204L7.06878 32.1579C6.45401 32.7783 6.45401 33.7944 7.07293 34.419L10.1759 37.5546L13.2788 34.419C13.8935 33.7944 13.8935 32.7825 13.2788 32.1579L13.2414 32.1162C12.9506 31.8206 12.556 31.6582 12.1365 31.6582C11.7169 31.6582 11.3223 31.8248 11.0274 32.1246L10.18 32.9824L9.32847 32.1204C9.02939 31.8206 8.63478 31.654 8.21524 31.654Z" fill="#FF008C"/>
</svg>
