<svg width="55" height="48" viewBox="0 0 55 48" fill="none" xmlns="http://www.w3.org/2000/svg">
<path d="M2.50293 26.5292C3.25488 26.5292 3.74902 27.0394 3.74902 27.7884V44.2117C3.74902 44.9715 4.25391 45.4708 4.99512 45.4708H50.0049C50.7568 45.4708 51.251 44.9607 51.251 44.2117V27.7884C51.251 27.0285 51.7559 26.5292 52.4971 26.5292C53.2383 26.5292 53.7539 27.0285 53.7539 27.7884V44.2117C53.7539 46.3609 52.1318 48 50.0049 48H5.00586C2.87891 48 1.25684 46.3609 1.25684 44.2117V27.7884C1.2461 27.0285 1.75098 26.5292 2.50293 26.5292Z" fill="#E30613"/>
<path d="M3.74902 8.84667H51.251C53.3779 8.84667 55 10.4857 55 12.635V20.7218C55 22.4912 53.7539 24.0108 52.1211 24.3799L32.4951 28.7978V32.8358C32.4951 33.5956 31.9902 34.095 31.249 34.095H23.751C22.999 34.095 22.5049 33.5848 22.5049 32.8358V28.7978L2.87891 24.3799C1.25684 24 0 22.4803 0 20.7218V12.635C0 10.4857 1.62207 8.84667 3.74902 8.84667ZM24.9971 31.5766H29.9922V26.5292H24.9971V31.5766ZM2.50293 20.711C2.50293 21.3406 2.87891 21.8507 3.50195 21.9701L22.5049 26.2686V25.2591C22.5049 24.4993 23.0098 24 23.751 24H31.249C32.001 24 32.4951 24.5102 32.4951 25.2591V26.2686L51.498 21.981C52.1211 21.8507 52.4971 21.3514 52.4971 20.7218V12.635C52.4971 11.8752 51.9922 11.3758 51.251 11.3758H3.74902C2.99707 11.3758 2.50293 11.886 2.50293 12.635V20.711Z" fill="#E30613"/>
<path d="M21.248 0H33.7519C35.8789 0 37.5009 1.63908 37.5009 3.78833V5.04749C37.5009 5.80732 36.9961 6.30665 36.2549 6.30665C35.5136 6.30665 35.0088 5.79647 35.0088 5.04749V3.78833C35.0088 3.02849 34.5039 2.52917 33.7627 2.52917H21.2588C20.5068 2.52917 20.0127 3.03935 20.0127 3.78833V5.04749C20.0127 5.80732 19.5078 6.30665 18.7666 6.30665C18.0146 6.30665 17.5205 5.79647 17.5205 5.04749V3.78833C17.499 1.63908 19.1211 0 21.248 0Z" fill="#233559"/>
</svg>
