<svg width="273" height="198" viewBox="0 0 273 198" fill="none" xmlns="http://www.w3.org/2000/svg">
<path fill-rule="evenodd" clip-rule="evenodd" d="M224.024 134.685C221.28 134.685 218.755 133.183 217.445 130.767C216.134 128.351 216.244 125.43 217.731 123.123L230.344 103.658V74.0513C230.344 73.8329 230.521 73.6691 230.726 73.6691H250.177C250.396 73.6691 250.56 73.8465 250.56 74.0513V103.658L263.172 123.123C264.66 125.43 264.783 128.365 263.459 130.767C262.148 133.183 259.623 134.685 256.88 134.685H224.024Z" fill="white"/>
<path d="M250.177 74.0512V103.767L262.844 123.328C264.264 125.512 264.36 128.296 263.117 130.576C261.875 132.855 259.487 134.289 256.879 134.289C247.106 134.289 233.784 134.289 224.01 134.289C221.403 134.289 219.014 132.869 217.772 130.576C216.53 128.296 216.639 125.512 218.045 123.328L230.712 103.767V74.0512H250.177ZM250.177 73.2732H230.726C230.303 73.2732 229.948 73.6144 229.948 74.0512V103.549L217.404 122.918C215.834 125.348 215.711 128.419 217.09 130.958C218.468 133.497 221.116 135.067 224.01 135.067H256.893C259.787 135.067 262.435 133.497 263.814 130.958C265.192 128.419 265.069 125.334 263.5 122.918L250.955 103.549V74.0512C250.955 73.6281 250.6 73.2732 250.177 73.2732Z" fill="#00C5A3"/>
<path fill-rule="evenodd" clip-rule="evenodd" d="M232.623 104.177L232.65 95.9459C232.65 95.9459 236.459 95.4545 239.162 95.4545C240.213 95.4545 242.219 96.1643 243.843 96.5465C246.219 97.1061 248.908 95.9459 248.908 95.9459L248.88 104.177L259.855 123.014C261.083 124.911 261.179 127.314 260.101 129.293C259.022 131.272 256.947 132.501 254.695 132.501C246.219 132.501 234.684 132.501 226.221 132.501C223.969 132.501 221.894 131.272 220.816 129.293C219.738 127.314 219.833 124.898 221.062 123.014L232.623 104.177Z" fill="#00D6A8"/>
<path fill-rule="evenodd" clip-rule="evenodd" d="M237.36 101.447H230.767V99.6586H237.36V101.447ZM237.36 95.8093H230.767V94.0212H237.36V95.8093ZM237.36 90.1719H230.767V88.3837H237.36V90.1719ZM237.36 84.5344H230.767V82.7463H237.36V84.5344ZM237.36 78.897H230.767V77.1088H237.36V78.897Z" fill="#FF373B"/>
<path fill-rule="evenodd" clip-rule="evenodd" d="M245.277 62.4077C244.526 62.4077 243.912 61.7935 243.912 61.0427C243.912 60.292 244.526 59.6777 245.277 59.6777C246.028 59.6777 246.642 60.292 246.642 61.0427C246.628 61.8071 246.028 62.4077 245.277 62.4077ZM239.216 61.0427C238.465 61.0427 237.851 60.4285 237.851 59.6777C237.851 58.927 238.465 58.3127 239.216 58.3127C239.967 58.3127 240.581 58.927 240.581 59.6777C240.581 60.4421 239.967 61.0427 239.216 61.0427ZM241.564 67.622C240.267 67.622 239.216 66.571 239.216 65.2742C239.216 63.9775 240.267 62.9264 241.564 62.9264C242.861 62.9264 243.912 63.9775 243.912 65.2742C243.912 66.571 242.861 67.622 241.564 67.622ZM237.06 66.8576C236.623 66.8576 236.268 66.5027 236.268 66.0659C236.268 65.6291 236.623 65.2742 237.06 65.2742C237.496 65.2742 237.851 65.6291 237.851 66.0659C237.851 66.5027 237.496 66.8576 237.06 66.8576Z" fill="#00D6A8"/>
<path fill-rule="evenodd" clip-rule="evenodd" d="M267.035 170.802H161.329V189.749H267.035V170.802Z" fill="#A5E5D3" stroke="#00C5A3" stroke-width="0.672536" stroke-miterlimit="1.3" stroke-linecap="round"/>
<path fill-rule="evenodd" clip-rule="evenodd" d="M267.827 170.011H160.524V190.554H267.827V170.011ZM267.035 170.802H161.329V189.749H267.035V170.802Z" fill="#00C5A3"/>
<path fill-rule="evenodd" clip-rule="evenodd" d="M193.325 171.144H182.459V189.353H193.325V171.144ZM239.366 171.144H237.019V189.353H239.366V171.144ZM244.335 171.144H241.987V189.353H244.335V171.144Z" fill="#00C5A3"/>
<path fill-rule="evenodd" clip-rule="evenodd" d="M9.47314 170.366L14.5919 81.0946L26.0442 81.7498L20.9255 171.021L9.47314 170.366Z" fill="#A5E5D3"/>
<path fill-rule="evenodd" clip-rule="evenodd" d="M8.58582 171.157L21.7035 171.908L26.9178 80.9719L13.8001 80.2211L8.58582 171.157ZM9.47307 170.366L14.5918 81.0811L26.0442 81.7363L20.9254 171.021L9.47307 170.366Z" fill="#00C5A3"/>
<path fill-rule="evenodd" clip-rule="evenodd" d="M13.0493 108.122L13.568 98.9352L25.0204 99.6041L24.5017 108.777L13.0493 108.122Z" fill="#00C5A3"/>
<path fill-rule="evenodd" clip-rule="evenodd" d="M10.8108 146.997L10.92 145.018L22.3723 145.673L22.2631 147.666L10.8108 146.997Z" fill="#00C5A3"/>
<path fill-rule="evenodd" clip-rule="evenodd" d="M10.5651 151.201L10.6879 149.208L22.1403 149.863L22.0174 151.856L10.5651 151.201Z" fill="#00C5A3"/>
<path fill-rule="evenodd" clip-rule="evenodd" d="M92.465 84.7391H30.1937V173.41H92.465V84.7391Z" fill="#796EB4"/>
<path fill-rule="evenodd" clip-rule="evenodd" d="M31.5588 81.3812C31.5588 81.3812 30.9446 81.3812 30.1256 81.3812C29.0472 81.3812 28.0098 81.8044 27.2454 82.5415C26.481 83.2922 26.0579 84.3023 26.0579 85.3534C26.0579 100.682 26.0579 155.159 26.0579 170.106C26.0579 171.103 26.4674 172.058 27.1908 172.768C27.9143 173.478 28.8971 173.874 29.9208 173.874C30.849 173.874 31.5725 173.874 31.5725 173.874V81.3812H31.5588Z" fill="#A5E5D3"/>
<path fill-rule="evenodd" clip-rule="evenodd" d="M31.5588 81.3812C31.5588 81.3812 30.9446 81.3812 30.1256 81.3812C29.0472 81.3812 28.0098 81.8044 27.2454 82.5415C26.481 83.2922 26.0579 84.3023 26.0579 85.3534C26.0579 100.682 26.0579 155.159 26.0579 170.106C26.0579 171.103 26.4674 172.058 27.1908 172.768C27.9143 173.478 28.8971 173.874 29.9208 173.874C30.849 173.874 31.5725 173.874 31.5725 173.874V81.3812H31.5588ZM30.7808 82.1729H30.1256C29.6888 82.1729 29.2656 82.2548 28.8698 82.4186C28.4739 82.5824 28.1054 82.8145 27.7914 83.1148C27.4911 83.4151 27.2454 83.7563 27.0816 84.1385C26.9178 84.5207 26.8223 84.9302 26.8223 85.3534C26.8086 92.9974 26.7677 110.374 26.7677 127.737C26.7677 140.267 26.795 152.798 26.8223 161.643C26.8359 165.11 26.8632 168.004 26.8769 170.12C26.8769 170.502 26.9588 170.884 27.1089 171.226C27.2591 171.567 27.4775 171.894 27.7641 172.154C28.0508 172.427 28.3784 172.631 28.7469 172.782C29.1018 172.918 29.4977 173 29.8935 173H30.6716C30.6716 171.84 30.6716 169.56 30.6852 166.475C30.7125 159.596 30.8763 148.648 30.9173 136.882C30.9719 113.582 30.8081 87.0323 30.7808 82.1729Z" fill="#00C5A3"/>
<path fill-rule="evenodd" clip-rule="evenodd" d="M90.9908 84.2341H30.1937V173.41H90.9908V84.2341Z" fill="#E2E2F8" stroke="#A9A9EB" stroke-width="0.405132" stroke-miterlimit="10" stroke-linecap="round" stroke-linejoin="round"/>
<path fill-rule="evenodd" clip-rule="evenodd" d="M89.4757 82.9919H30.1937V173.41H89.4757V82.9919Z" fill="#E2E2F8" stroke="#A9A9EB" stroke-width="0.405132" stroke-miterlimit="10" stroke-linecap="round" stroke-linejoin="round"/>
<path fill-rule="evenodd" clip-rule="evenodd" d="M87.1688 81.7225H30.1937V173.41H87.1688V81.7225Z" fill="#A5E5D3" stroke="#00C5A3" stroke-width="0.672536" stroke-miterlimit="1.3" stroke-linecap="round"/>
<path fill-rule="evenodd" clip-rule="evenodd" d="M79.2111 100.846C75.4847 100.846 72.4544 97.8159 72.4544 94.0894H44.8814C44.8814 97.8159 41.8511 100.846 38.1246 100.846V151.269C41.8511 151.269 44.8814 154.3 44.8814 158.026H72.4544C72.4544 154.3 75.4847 151.269 79.2111 151.269V100.846Z" fill="#A5E5D3"/>
<path fill-rule="evenodd" clip-rule="evenodd" d="M79.2111 100.846C75.4847 100.846 72.4544 97.8159 72.4544 94.0894H44.8814C44.8814 97.8159 41.8511 100.846 38.1246 100.846V151.269C41.8511 151.269 44.8814 154.3 44.8814 158.026H72.4544C72.4544 154.3 75.4847 151.269 79.2111 151.269V100.846ZM71.5671 95.0449H45.7959C45.3591 98.5393 42.5882 101.31 39.1074 101.733V150.368C42.6018 150.805 45.3728 153.576 45.7959 157.057H71.5808C72.0176 153.562 74.7885 150.792 78.2693 150.368V101.747C74.7749 101.31 72.0039 98.5393 71.5671 95.0449Z" fill="#00C5A3"/>
<path fill-rule="evenodd" clip-rule="evenodd" d="M261.152 134.794H174.788V150.273H261.152V134.794Z" fill="#A5E5D3" stroke="#00C5A3" stroke-width="0.672536" stroke-miterlimit="1.3" stroke-linecap="round"/>
<path fill-rule="evenodd" clip-rule="evenodd" d="M261.957 133.988H173.996V151.065H261.957V133.988ZM261.152 134.794H174.775V150.273H261.152V134.794Z" fill="#00C5A3"/>
<path fill-rule="evenodd" clip-rule="evenodd" d="M195.113 135.121H192.834V149.918H195.113V135.121ZM188.916 135.121H187.947V149.918H188.916V135.121ZM239.312 135.121H237.387V149.918H239.312V135.121ZM243.38 135.121H241.455V149.918H243.38V135.121Z" fill="#00C5A3"/>
<path fill-rule="evenodd" clip-rule="evenodd" d="M80.808 109.487V173.41H16.885C38.1927 152.102 59.5003 130.794 80.808 109.487ZM48.1162 161.466C50.2183 161.575 68.8506 161.466 68.8506 161.466V140.581C68.8506 140.568 57.2071 151.911 48.1162 161.466Z" fill="#00D6A8"/>
<path fill-rule="evenodd" clip-rule="evenodd" d="M80.808 109.487V173.41H16.885C38.1927 152.102 59.5003 130.794 80.808 109.487ZM20.0245 172.113H79.4976V112.64L20.0245 172.113ZM47.1744 160.565C46.8195 160.933 46.7239 161.479 46.9014 161.944C47.0925 162.421 47.5429 162.735 48.048 162.763C50.1501 162.872 68.8642 162.763 68.8642 162.763C69.5877 162.763 70.161 162.176 70.161 161.466V140.581C70.161 140.063 69.847 139.585 69.3693 139.38C68.8915 139.175 68.3319 139.285 67.9497 139.653C67.936 139.639 56.2789 150.996 47.1744 160.565ZM48.1162 161.466C50.2183 161.575 68.8506 161.466 68.8506 161.466V140.581C68.8506 140.568 57.2071 151.911 48.1162 161.466Z" fill="#00D6A8"/>
<path fill-rule="evenodd" clip-rule="evenodd" d="M25.2117 165.916L27.9963 168.7L28.4331 168.264L25.6485 165.479L25.2117 165.916Z" fill="#00A185"/>
<path fill-rule="evenodd" clip-rule="evenodd" d="M31.8728 159.214L34.6574 161.998L35.1079 161.561L32.3096 158.763L31.8728 159.214Z" fill="#00A185"/>
<path fill-rule="evenodd" clip-rule="evenodd" d="M38.5475 152.525L41.3457 155.31L41.7825 154.873L38.9979 152.088L38.5475 152.525Z" fill="#00A185"/>
<path fill-rule="evenodd" clip-rule="evenodd" d="M45.2634 145.864L48.048 148.648L48.4985 148.212L45.7002 145.427L45.2634 145.864Z" fill="#00A185"/>
<path fill-rule="evenodd" clip-rule="evenodd" d="M51.9247 139.162L54.7093 141.946L55.1597 141.51L52.3615 138.711L51.9247 139.162Z" fill="#00A185"/>
<path fill-rule="evenodd" clip-rule="evenodd" d="M58.6267 132.487L61.425 135.285L61.8618 134.848L59.0635 132.05L58.6267 132.487Z" fill="#00A185"/>
<path fill-rule="evenodd" clip-rule="evenodd" d="M65.3153 125.812L68.0999 128.597L68.5504 128.16L65.7521 125.362L65.3153 125.812Z" fill="#00A185"/>
<path fill-rule="evenodd" clip-rule="evenodd" d="M72.0037 119.123L74.7883 121.922L75.2251 121.471L72.4405 118.687L72.0037 119.123Z" fill="#00A185"/>
<path fill-rule="evenodd" clip-rule="evenodd" d="M76.8358 166.571H80.7807V165.943H76.8358V166.571Z" fill="#00A185"/>
<path fill-rule="evenodd" clip-rule="evenodd" d="M76.8633 157.125H80.8081V156.497H76.8633V157.125Z" fill="#00A185"/>
<path fill-rule="evenodd" clip-rule="evenodd" d="M76.8358 147.666H80.7807V147.038H76.8358V147.666Z" fill="#00A185"/>
<path fill-rule="evenodd" clip-rule="evenodd" d="M76.8633 138.22H80.8081V137.592H76.8633V138.22Z" fill="#00A185"/>
<path fill-rule="evenodd" clip-rule="evenodd" d="M76.8633 128.76H80.8081V128.133H76.8633V128.76Z" fill="#00A185"/>
<path fill-rule="evenodd" clip-rule="evenodd" d="M76.8633 119.301H80.8081V118.687H76.8633V119.301Z" fill="#00A185"/>
<path fill-rule="evenodd" clip-rule="evenodd" d="M76.8358 173.41V169.465H76.2079V173.41H76.8358Z" fill="#00A185"/>
<path fill-rule="evenodd" clip-rule="evenodd" d="M67.3764 173.382V169.437H66.7485V173.382H67.3764Z" fill="#00A185"/>
<path fill-rule="evenodd" clip-rule="evenodd" d="M57.9305 173.41V169.465H57.3026V173.41H57.9305Z" fill="#00A185"/>
<path fill-rule="evenodd" clip-rule="evenodd" d="M48.471 173.382V169.437H47.8431V173.382H48.471Z" fill="#00A185"/>
<path fill-rule="evenodd" clip-rule="evenodd" d="M39.0255 173.382V169.437H38.3976V173.382H39.0255Z" fill="#00A185"/>
<path fill-rule="evenodd" clip-rule="evenodd" d="M29.566 173.382V169.437H28.9381V173.382H29.566Z" fill="#00A185"/>
<path fill-rule="evenodd" clip-rule="evenodd" d="M265.26 167.226H182.733V153.89H265.26" fill="#FFA55C"/>
<path fill-rule="evenodd" clip-rule="evenodd" d="M266.707 153.89C266.707 153.89 209.268 153.89 189.407 153.89C185.722 153.89 182.746 156.879 182.746 160.551C182.746 162.326 183.442 164.018 184.698 165.261C185.954 166.516 187.646 167.212 189.407 167.212H266.707V170.024C266.707 170.024 212.23 170.024 189.803 170.024C184.575 170.024 180.33 165.779 180.33 160.551C180.33 155.323 184.575 151.078 189.803 151.078C212.23 151.078 266.707 151.078 266.707 151.078V153.89Z" fill="#FF373B"/>
<path fill-rule="evenodd" clip-rule="evenodd" d="M267.499 154.695V150.286H189.803C184.125 150.286 179.538 154.886 179.538 160.551C179.538 166.23 184.138 170.816 189.803 170.816H267.499V166.421H189.394C187.838 166.421 186.336 165.806 185.244 164.701C184.138 163.595 183.524 162.107 183.524 160.551C183.524 157.303 186.159 154.682 189.394 154.682L267.499 154.695ZM266.707 153.89C266.707 153.89 209.268 153.89 189.407 153.89C185.722 153.89 182.746 156.879 182.746 160.551C182.746 162.326 183.442 164.018 184.698 165.26C185.954 166.516 187.647 167.212 189.407 167.212H266.707V170.024C266.707 170.024 212.23 170.024 189.803 170.024C184.575 170.024 180.33 165.779 180.33 160.551C180.33 155.323 184.575 151.078 189.803 151.078C212.23 151.078 266.707 151.078 266.707 151.078V153.89Z" fill="#FF373B"/>
<path fill-rule="evenodd" clip-rule="evenodd" d="M10.3331 187.278H83.1013V175.525H10.3331" fill="#FFA55C"/>
<path fill-rule="evenodd" clip-rule="evenodd" d="M9.0636 175.525C9.0636 175.525 59.7051 175.525 77.2317 175.525C78.7878 175.525 80.2893 176.14 81.395 177.245C82.5006 178.351 83.1149 179.839 83.1149 181.409C83.1149 182.965 82.5006 184.466 81.395 185.572C80.2893 186.677 78.8015 187.292 77.2317 187.292H9.0636V189.762C9.0636 189.762 57.0979 189.762 76.8632 189.762C79.0745 189.762 81.2039 188.889 82.7736 187.319C84.3434 185.749 85.2169 183.633 85.2169 181.409C85.2169 179.197 84.3434 177.068 82.7736 175.498C81.2039 173.928 79.0881 173.055 76.8632 173.055C57.0843 173.055 9.0636 173.055 9.0636 173.055V175.525Z" fill="#FF373B"/>
<path fill-rule="evenodd" clip-rule="evenodd" d="M8.27197 176.317H77.2318C78.5831 176.317 79.8662 176.849 80.8217 177.805C81.7772 178.76 82.3096 180.057 82.3096 181.395C82.3096 182.746 81.7772 184.043 80.8217 184.985C79.8662 185.94 78.5695 186.473 77.2318 186.473H8.27197V190.54H76.8769C79.3066 190.54 81.6271 189.571 83.347 187.865C85.0669 186.145 86.0224 183.825 86.0224 181.395C86.0224 178.965 85.0532 176.645 83.347 174.925C81.6271 173.205 79.3066 172.249 76.8769 172.249H8.27197V176.317ZM9.06367 175.525C9.06367 175.525 59.7052 175.525 77.2318 175.525C78.7879 175.525 80.2894 176.14 81.395 177.245C82.5007 178.351 83.1149 179.839 83.1149 181.409C83.1149 182.965 82.5007 184.466 81.395 185.572C80.2894 186.677 78.8015 187.292 77.2318 187.292H9.06367V189.762C9.06367 189.762 57.098 189.762 76.8632 189.762C79.0745 189.762 81.2039 188.889 82.7737 187.319C84.3434 185.749 85.217 183.633 85.217 181.409C85.217 179.197 84.3434 177.068 82.7737 175.498C81.2039 173.928 79.0882 173.055 76.8632 173.055C57.0844 173.055 9.06367 173.055 9.06367 173.055V175.525Z" fill="#FF373B"/>
<path fill-rule="evenodd" clip-rule="evenodd" d="M79.0745 13.3087C79.0745 10.5377 81.3131 8.29913 84.084 8.29913H174.242C177.013 8.29913 179.252 10.5377 179.252 13.3087V185.64C179.252 188.411 177.013 190.649 174.242 190.649H84.084C81.3131 190.649 79.0745 188.411 79.0745 185.64V13.3087Z" fill="black"/>
<path fill-rule="evenodd" clip-rule="evenodd" d="M87.0016 11.7618C84.4217 11.7618 82.3333 13.8503 82.3333 16.4301V176.586C82.3333 179.165 84.4217 181.254 87.0016 181.254H171.058C173.638 181.254 175.727 179.165 175.727 176.586V16.4301C175.727 13.8503 173.638 11.7618 171.058 11.7618H132.961C132.988 11.9529 133.002 12.144 133.002 12.3488C133.002 14.5464 131.228 16.3209 129.03 16.3209C126.832 16.3209 125.058 14.5464 125.058 12.3488C125.058 12.144 125.071 11.9529 125.099 11.7618H87.0016Z" fill="white"/>
<path fill-rule="evenodd" clip-rule="evenodd" d="M207.343 102.689C207.343 102.689 218.905 98.089 220.065 93.8848C221.225 89.6942 210.497 91.4005 208.913 94.4308C207.343 97.4611 202.484 100.778 202.484 100.778L207.343 102.689Z" fill="#FCC3B4"/>
<path fill-rule="evenodd" clip-rule="evenodd" d="M207.125 103.262C207.275 103.317 207.439 103.317 207.589 103.262C207.589 103.262 213.336 100.969 217.185 98.1435C218.946 96.8467 220.297 95.4135 220.68 94.0621C220.871 93.3796 220.802 92.82 220.584 92.3559C220.27 91.7007 219.588 91.2229 218.646 90.9909C216.83 90.5131 213.977 90.868 211.725 91.728C210.142 92.3286 208.872 93.2022 208.381 94.1577C206.852 97.0924 202.157 100.287 202.157 100.287C201.965 100.423 201.856 100.641 201.884 100.873C201.911 101.106 202.061 101.297 202.279 101.379L207.125 103.262ZM207.344 102.689C207.344 102.689 218.905 98.0889 220.065 93.8847C221.226 89.6941 210.497 91.4004 208.913 94.4307C207.344 97.461 202.484 100.778 202.484 100.778L207.344 102.689Z" fill="#F5B9A9"/>
<path fill-rule="evenodd" clip-rule="evenodd" d="M105.446 95.7002C103.044 89.0254 108.79 81.163 106.47 74.4335C105.228 70.8026 104.313 65.4245 105.446 61.4524C106.907 56.3063 109.76 39.2984 121.717 38.7934C130.535 38.4248 134.807 38.6569 139.858 43.7074C143.216 47.0653 145.714 50.2594 147.406 54.955C150.3 62.9675 146.942 71.9629 147.406 80.7535C147.584 84.2069 148.594 87.5648 150.3 90.5678C151.488 92.6699 153.863 95.086 153.235 97.7477L105.446 95.7002Z" fill="#3B374C" stroke="#373447" stroke-width="0.768632" stroke-miterlimit="22" stroke-linecap="round" stroke-linejoin="round"/>
<path fill-rule="evenodd" clip-rule="evenodd" d="M118.577 75.7983C118.577 75.7983 124.051 89.9943 115.042 92.5332C106.019 95.0585 102.307 95.0585 102.307 95.0585C102.307 95.0585 114.523 138.738 112.954 146.082C111.384 153.426 157.016 161.671 150.983 149.399C144.949 137.141 148.58 127.791 149.781 126.208C149.781 126.208 154.04 116.871 148.58 109.432L150.983 93.4614C150.983 93.4614 130.385 95.7 134.343 82.091L118.577 75.7983Z" fill="#FCC3B4"/>
<path fill-rule="evenodd" clip-rule="evenodd" d="M149.372 109.255C154.791 116.994 150.464 126.535 150.464 126.535C150.437 126.59 150.409 126.631 150.382 126.686C149.222 128.214 145.836 137.223 151.665 149.072C152.388 150.546 152.443 151.774 152.047 152.784C151.651 153.781 150.778 154.6 149.508 155.187C147.297 156.211 143.762 156.579 139.721 156.429C131.422 156.129 120.939 153.658 115.738 150.696C114.291 149.863 113.227 148.976 112.667 148.102C112.203 147.379 112.053 146.656 112.203 145.932C112.667 143.775 111.875 138.425 110.592 131.982C107.535 116.639 101.556 95.277 101.556 95.277C101.488 95.0449 101.542 94.7992 101.679 94.6081C101.829 94.417 102.047 94.3078 102.293 94.3078C102.293 94.3078 105.951 94.2942 114.824 91.8099C118.072 90.8953 119.192 88.2882 119.41 85.5036C119.765 81.0264 117.854 76.0851 117.854 76.0851C117.745 75.7984 117.813 75.4708 118.031 75.2661C118.25 75.0613 118.577 74.9794 118.85 75.1023L134.603 81.4086C134.971 81.5587 135.162 81.9546 135.053 82.3368C134.33 84.8211 134.466 86.7184 135.217 88.179C136.336 90.3903 138.766 91.5369 141.346 92.1648C145.877 93.2704 150.887 92.7244 150.887 92.7244C151.119 92.6971 151.365 92.779 151.529 92.9565C151.692 93.1339 151.774 93.366 151.733 93.598L149.372 109.255ZM118.577 75.7984C118.577 75.7984 124.051 89.9944 115.042 92.5333C106.019 95.0586 102.307 95.0586 102.307 95.0586C102.307 95.0586 114.523 138.739 112.954 146.082C111.384 153.426 157.016 161.671 150.983 149.399C144.949 137.142 148.58 127.791 149.781 126.208C149.781 126.208 154.04 116.871 148.58 109.432L150.983 93.4615C150.983 93.4615 130.385 95.7001 134.343 82.0911L118.577 75.7984Z" fill="#363346"/>
<path fill-rule="evenodd" clip-rule="evenodd" d="M119.465 78.7605C119.028 76.9997 118.564 75.8121 118.564 75.8121L134.316 82.1184C133.401 85.2579 133.797 87.5648 134.944 89.2301C134.739 89.2983 134.534 89.3666 134.316 89.4075C129.566 90.3084 120.639 84.8484 119.465 78.7605Z" fill="#F8AA95"/>
<path fill-rule="evenodd" clip-rule="evenodd" d="M113.582 64.5099C113.582 64.5099 110.647 63.1995 110.292 65.752C109.937 68.3046 110.428 73.2049 115.984 74.0239C115.984 74.0239 118.714 79.989 124.584 83.1285C129.17 85.5991 134.876 84.316 137.974 80.1118C140.24 77.0269 142.178 72.1402 141.837 64.5099L135.968 48.9898L114.865 51.3103L113.582 64.5099Z" fill="#FCC3B4"/>
<path fill-rule="evenodd" clip-rule="evenodd" d="M112.967 63.5954L114.155 51.2421C114.182 50.9145 114.442 50.6552 114.769 50.6142L135.872 48.2937C136.186 48.2528 136.486 48.4439 136.609 48.7442L142.479 64.2642L142.52 64.4826C142.861 72.3314 140.854 77.3546 138.52 80.5214C135.231 84.9986 129.143 86.3772 124.242 83.7428C119.014 80.9445 116.202 75.9896 115.506 74.6519C109.746 73.6008 109.2 68.4002 109.582 65.6565C109.705 64.7693 110.074 64.2506 110.524 63.923C110.975 63.5954 111.521 63.4725 112.053 63.4862C112.394 63.4862 112.708 63.5271 112.967 63.5954ZM113.582 64.5099C113.582 64.5099 110.647 63.1995 110.292 65.7521C109.937 68.3046 110.429 73.205 115.984 74.024C115.984 74.024 118.714 79.989 124.584 83.1285C129.17 85.5992 134.876 84.3161 137.974 80.1119C140.24 77.027 142.178 72.1403 141.837 64.5099L135.968 48.9899L114.865 51.3104L113.582 64.5099Z" fill="#3F3B51"/>
<path fill-rule="evenodd" clip-rule="evenodd" d="M134.07 49.1946L135.995 49.0717L138.875 56.6884L140.54 65.4381C137.415 64.3188 132.637 56.5519 132.637 56.5519C131.149 59.6095 118.659 63.7182 118.659 63.7182C118.659 63.7182 118.659 63.7182 118.386 69.069C117.772 81.2584 129.989 84.6709 130.63 84.8347C130.057 84.862 129.47 84.8211 128.897 84.7119C120.024 82.9783 115.984 74.0239 115.984 74.0239C110.428 73.2049 109.937 68.3046 110.292 65.752C110.647 63.1995 113.582 64.5099 113.582 64.5099L114.851 51.3103L134.07 49.1946Z" fill="#FAB19E"/>
<path d="M113.554 68.4002C114.046 69.1373 114.264 70.1611 114.114 71.0347M112.326 70.7071C112.135 70.4341 111.971 70.1474 111.848 69.8471C111.288 68.4685 110.852 65.9159 112.708 65.288L112.326 70.7071Z" stroke="#F89277" stroke-width="0.623396" stroke-miterlimit="22" stroke-linecap="round" stroke-linejoin="round"/>
<path fill-rule="evenodd" clip-rule="evenodd" d="M141.005 64.8648C141.005 64.8648 143.748 62.0393 144.09 65.3153C144.431 68.5913 141.264 73.8602 140.472 74.3925C139.681 74.9385 141.005 64.8648 141.005 64.8648Z" fill="#FAB19E" stroke="#373346" stroke-width="0.699699" stroke-miterlimit="22" stroke-linecap="round" stroke-linejoin="round"/>
<path fill-rule="evenodd" clip-rule="evenodd" d="M116.639 62.9811L117.581 60.4149L117.963 57.5757C117.963 57.5757 115.534 67.3082 117.963 75.2388C117.963 75.2388 111.288 65.0969 111.384 58.2446C111.466 51.4059 116.325 42.1649 125.13 41.6735C133.934 41.1821 140.936 44.8539 142.752 55.3508C144.567 65.8476 140.076 76.4946 138.684 77.1362C138.684 77.1362 141.414 69.3966 141.209 65.3699C141.182 64.7147 140.486 64.8512 140.226 64.428C139.953 63.9912 138.384 62.7218 136.896 61.0019C134.807 58.5858 133.224 54.9003 133.224 54.9003C133.224 54.9003 126.849 58.6268 124.092 59.9781C121.649 61.152 116.639 62.9811 116.639 62.9811Z" fill="#3E3A50" stroke="#3B374C" stroke-width="0.768632" stroke-miterlimit="22" stroke-linecap="round"/>
<path d="M134.125 54.0812C134.125 54.0812 125.28 61.0836 116.298 62.981C116.298 62.981 120.857 56.5518 121.417 53.5215" stroke="#3B374C" stroke-width="0.699699" stroke-miterlimit="22" stroke-linecap="round"/>
<path d="M131.777 53.5079C131.777 53.5079 137.633 64.5371 143.107 66.1888C143.107 66.1888 135.463 51.6106 135.599 50.3002" stroke="#3B374C" stroke-width="0.699699" stroke-miterlimit="22" stroke-linecap="round"/>
<path fill-rule="evenodd" clip-rule="evenodd" d="M116.953 93.0929C116.284 86.732 126.481 97.5019 130.371 96.1505C136.623 93.9938 135.504 87.2507 137.633 89.6258C139.435 91.6324 139.967 98.5939 140.008 105.706C140.049 114.564 118.318 103.713 118.318 103.713L116.953 93.0929Z" fill="#A5E5D3"/>
<path fill-rule="evenodd" clip-rule="evenodd" d="M102.061 92.0146L118.837 88.1243L132.364 108.709L134.248 88.1243L151.146 92.0146L176.194 118.482L203.112 97.7476L208.927 104.518C208.927 104.518 182.651 135.176 176.194 135.667C169.738 136.159 153.358 115.383 153.358 115.383C153.358 115.383 153.945 121.307 153.358 124.802C152.225 131.613 149.699 138.684 151.16 140.991C153.358 144.472 164.237 181.6 164.237 181.6H100.423C100.423 181.6 113.186 142.82 111.37 139.244C109.555 135.681 107.425 112.408 107.425 112.408L102.061 92.0146Z" fill="#A5E5D3"/>
<path fill-rule="evenodd" clip-rule="evenodd" d="M130.617 111.671C131.286 111.671 131.818 112.217 131.818 112.872C131.818 113.541 131.272 114.073 130.617 114.073C129.948 114.073 129.416 113.527 129.416 112.872C129.402 112.217 129.948 111.671 130.617 111.671Z" fill="#00D6A8"/>
<path fill-rule="evenodd" clip-rule="evenodd" d="M131.668 127.45C132.337 127.45 132.869 127.996 132.869 128.651C132.869 129.32 132.323 129.852 131.668 129.852C130.999 129.852 130.467 129.306 130.467 128.651C130.467 127.996 131.013 127.45 131.668 127.45Z" fill="#00D6A8"/>
<path fill-rule="evenodd" clip-rule="evenodd" d="M130.235 143.243C130.904 143.243 131.436 143.789 131.436 144.444C131.436 145.113 130.89 145.645 130.235 145.645C129.566 145.645 129.034 145.099 129.034 144.444C129.02 143.775 129.566 143.243 130.235 143.243Z" fill="#00D6A8"/>
<path fill-rule="evenodd" clip-rule="evenodd" d="M131.381 159.022C132.05 159.022 132.582 159.568 132.582 160.224C132.582 160.893 132.036 161.425 131.381 161.425C130.712 161.425 130.18 160.879 130.18 160.224C130.18 159.555 130.712 159.022 131.381 159.022Z" fill="#00D6A8"/>
<path fill-rule="evenodd" clip-rule="evenodd" d="M131.381 177.969C132.05 177.969 132.582 178.515 132.582 179.17C132.582 179.839 132.036 180.371 131.381 180.371C130.712 180.371 130.18 179.825 130.18 179.17C130.18 178.515 130.712 177.969 131.381 177.969Z" fill="#00D6A8"/>
<path fill-rule="evenodd" clip-rule="evenodd" d="M110.21 154.204L124.065 164.128L128.815 166.762L131.641 170.243C131.641 170.243 129.143 170.68 128.023 170.243C126.549 169.656 123.41 166.298 123.41 166.298H121.54L108.586 159.978L110.21 154.204Z" fill="#00D6A8"/>
<path fill-rule="evenodd" clip-rule="evenodd" d="M132.405 109.102L119.055 99.138L121.976 98.1142L113.813 87.2761L120.079 86.0476L132.405 109.102Z" fill="#00D6A8"/>
<path fill-rule="evenodd" clip-rule="evenodd" d="M132.405 109.103L138.834 98.0051L136.35 97.5819L140.008 87.1533H134.371L132.405 109.103Z" fill="#00D6A8"/>
<path d="M151.078 92.0964C151.078 92.0964 149.167 109.828 153.289 115.834" stroke="#00D6A8" stroke-width="0.9555" stroke-miterlimit="1.3" stroke-linecap="round"/>
<path d="M132.596 108.845C132.596 108.845 135.067 125.58 133.797 129.866C132.541 134.139 132.596 137.36 132.596 140.895C132.596 144.444 134.193 181.6 134.193 181.6" stroke="#00D6A8" stroke-width="0.9555" stroke-miterlimit="1.3" stroke-linecap="round" stroke-linejoin="round"/>
<path fill-rule="evenodd" clip-rule="evenodd" d="M122.386 163.227C122.386 163.227 127.942 171.69 132.132 169.642C136.323 167.595 135.162 163.991 133.033 163.227C133.033 163.227 134.958 163.704 134.698 162.558C134.439 161.411 127.628 160.169 126.058 160.292C124.502 160.415 122.386 163.227 122.386 163.227Z" fill="#FCC3B4"/>
<path fill-rule="evenodd" clip-rule="evenodd" d="M134.575 163.705C135.272 164.51 135.64 165.656 135.367 166.83C135.094 167.977 134.207 169.178 132.364 170.093C130.521 170.994 128.419 170.12 126.59 168.659C124.024 166.612 121.976 163.5 121.976 163.5C121.854 163.322 121.867 163.09 121.99 162.926C121.99 162.926 123.068 161.493 124.283 160.579C124.87 160.142 125.485 159.828 126.031 159.787C127.163 159.691 130.931 160.278 133.197 161.056C133.934 161.302 134.507 161.589 134.821 161.862C135.04 162.053 135.162 162.258 135.203 162.449C135.299 162.872 135.203 163.158 135.04 163.377C134.917 163.513 134.767 163.623 134.575 163.705ZM122.386 163.227C122.386 163.227 127.942 171.69 132.132 169.642C136.323 167.595 135.162 163.991 133.033 163.227C133.033 163.227 134.958 163.704 134.698 162.558C134.439 161.411 127.628 160.169 126.058 160.292C124.502 160.415 122.386 163.227 122.386 163.227Z" fill="#F5B9A9"/>
<path fill-rule="evenodd" clip-rule="evenodd" d="M105.61 105.501C105.61 105.501 108.982 110.565 109.883 113.418C110.934 116.707 110.702 121.444 111.875 125.266C113.199 129.566 117.991 134.248 117.185 139.244C115.67 148.635 102.812 181.6 102.812 181.6H100.409C100.409 181.6 113.172 142.82 111.357 139.244C109.555 135.681 107.426 112.408 107.426 112.408L105.61 105.501ZM162.421 175.512C162.421 175.512 149.959 147.72 147.83 139.53C146.724 135.271 148.416 130.562 149.672 126.344C151.829 119.11 149.577 114.196 149.672 110.06C149.741 107.221 150.232 101.542 150.232 101.542L153.344 112.025L171.308 129.962C171.308 129.962 177.764 134.125 182.528 131.873C179.811 134.111 177.559 135.572 176.181 135.681C169.724 136.172 153.344 115.397 153.344 115.397C153.344 115.397 153.931 121.321 153.344 124.816C152.211 131.627 149.686 138.698 151.146 141.004C152.784 143.598 159.227 164.837 162.421 175.512Z" fill="#00D6A8"/>
<path fill-rule="evenodd" clip-rule="evenodd" d="M102.143 91.619C102.143 91.619 88.6009 135.208 89.8431 140.928C91.0852 146.647 122.881 165.286 122.881 165.286L130.31 159.095L104.217 136L107.793 123.046L107.095 112.667L104.929 101.833L102.143 91.619Z" fill="#A5E5D3"/>
<path fill-rule="evenodd" clip-rule="evenodd" d="M105.201 135.845L130.235 158.572C130.371 158.695 130.453 158.886 130.453 159.077C130.453 159.268 130.371 159.446 130.235 159.582L123.382 165.766C123.164 165.957 122.85 165.998 122.591 165.848C122.591 165.848 107.057 156.729 97.3109 149.304C94.772 147.365 92.6289 145.55 91.2366 144.021C90.2129 142.902 89.585 141.919 89.4212 141.155C89.2983 140.595 89.2983 139.708 89.4075 138.561C89.6532 136.063 90.4449 132.241 91.5096 127.819C95.0313 113.213 101.611 92.1239 101.611 92.1239C101.706 91.8372 101.979 91.6461 102.279 91.6461C102.58 91.6598 102.839 91.8645 102.907 92.1648L107.603 111.862C107.617 111.889 107.617 111.916 107.617 111.957L108.681 123.068C108.695 123.15 108.681 123.232 108.654 123.314L105.201 135.845ZM102.252 92.315C102.252 92.315 88.8342 135.285 90.0764 141.005C91.3185 146.724 122.932 165.261 122.932 165.261L129.784 159.077L104.45 136.077L108.026 123.123L106.961 112.012L102.252 92.315Z" fill="#00D6A8"/>
<path fill-rule="evenodd" clip-rule="evenodd" d="M106.375 106.907L107.931 112.189L108.709 122.318L104.45 136.077L121.485 151.556C121.485 151.556 111.425 144.158 109.883 143.038C102.757 137.797 102.757 139.08 101.392 137.797C100.614 137.06 102.525 135.353 102.812 134.316C103.863 130.508 107.043 113.923 107.043 113.923L104.955 103.59L106.375 106.907Z" fill="#00D6A8"/>
<path fill-rule="evenodd" clip-rule="evenodd" d="M214.523 43.8165C214.523 38.8069 210.456 34.7256 205.433 34.7256H167.076C162.066 34.7256 157.985 38.7933 157.985 43.8165V61.9846C157.985 66.9942 162.053 71.0619 167.076 71.0619H168.973L169.301 86.0223L183.115 71.0619H205.433C210.442 71.0619 214.523 66.9942 214.523 61.9846V43.8165Z" fill="white" stroke="#00D6A8" stroke-width="1.52157" stroke-miterlimit="22" stroke-linecap="round" stroke-linejoin="round"/>
<path fill-rule="evenodd" clip-rule="evenodd" d="M170.625 49.4813C172.522 49.4813 174.051 51.0101 174.051 52.9074C174.051 54.8048 172.522 56.3336 170.625 56.3336C168.728 56.3336 167.199 54.8048 167.199 52.9074C167.199 51.0101 168.741 49.4813 170.625 49.4813ZM201.897 49.4813C203.794 49.4813 205.323 51.0101 205.323 52.9074C205.323 54.8048 203.794 56.3336 201.897 56.3336C200 56.3336 198.471 54.8048 198.471 52.9074C198.471 51.0101 200.013 49.4813 201.897 49.4813ZM186.268 49.4813C188.165 49.4813 189.694 51.0101 189.694 52.9074C189.694 54.8048 188.165 56.3336 186.268 56.3336C184.37 56.3336 182.842 54.8048 182.842 52.9074C182.842 51.0101 184.37 49.4813 186.268 49.4813Z" fill="#FF373B"/>
</svg>
