<svg width="271" height="177" viewBox="0 0 271 177" fill="none" xmlns="http://www.w3.org/2000/svg">
<path d="M64.3406 80.1949H63.4592" stroke="black" stroke-width="0.587552" stroke-miterlimit="10" stroke-linecap="round"/>
<path d="M61.0913 80.1948H38.4529C37.4835 80.1948 36.6962 80.9821 36.6962 81.9516V148.521C36.6962 149.32 37.225 149.99 37.9535 150.202" stroke="black" stroke-width="0.587552" stroke-miterlimit="10" stroke-linecap="round" stroke-dasharray="1.78 1.78"/>
<path d="M39.1345 150.272H40.0158" stroke="black" stroke-width="0.587552" stroke-miterlimit="10" stroke-linecap="round"/>
<path d="M211.875 57.9032H212.756" stroke="black" stroke-width="0.587552" stroke-miterlimit="10" stroke-linecap="round"/>
<path d="M215.106 57.9032H253.203C254.907 57.9032 256.288 59.2839 256.288 60.9878V114.96C256.288 116.664 254.907 118.045 253.203 118.045H245.013" stroke="black" stroke-width="0.587552" stroke-miterlimit="10" stroke-linecap="round" stroke-dasharray="1.76 1.76"/>
<path d="M243.838 118.039H242.956" stroke="black" stroke-width="0.587552" stroke-miterlimit="10" stroke-linecap="round"/>
<path d="M98.4478 16.7451H123.348C126.133 16.7451 128.389 19.0013 128.389 21.7863V45.5645" stroke="black" stroke-width="0.587552" stroke-miterlimit="10" stroke-linecap="round" stroke-dasharray="1.76 1.76"/>
<path d="M158.313 164.315H113.536L118.395 145.196L119.5 140.86L121.638 132.458H150.205L152.344 140.86L153.449 145.196L158.313 164.315Z" fill="#00C5A3"/>
<path d="M175.493 169.597H96.3501C94.4523 169.597 92.913 168.057 92.913 166.159C92.913 164.262 94.4523 162.722 96.3501 162.722H175.493C177.391 162.722 178.931 164.262 178.931 166.159C178.931 168.057 177.391 169.597 175.493 169.597Z" fill="#00C5A3"/>
<path d="M208.984 51.2169V135.39C208.984 137.393 207.356 139.015 205.359 139.015H66.4967C64.4872 139.015 62.8715 137.387 62.8715 135.39V51.2169C62.8715 49.2133 64.4931 47.5917 66.4967 47.5917H205.359C207.356 47.5917 208.984 49.2133 208.984 51.2169Z" fill="#00D6A8"/>
<path d="M206.04 50.2533H65.5391V124.455H206.04V50.2533Z" fill="#A5E5D3"/>
<path d="M206.04 113.356H65.5391V124.455H206.04V113.356Z" fill="black"/>
<path d="M135.916 134.867C134.065 134.867 132.549 133.351 132.549 131.5C132.549 129.649 134.065 128.133 135.916 128.133C137.767 128.133 139.283 129.649 139.283 131.5C139.283 133.351 137.767 134.867 135.916 134.867Z" fill="#FFA55C"/>
<path d="M200.652 119.99H85.3807C84.7814 119.99 84.2937 119.502 84.2937 118.903C84.2937 118.304 84.7814 117.816 85.3807 117.816H200.652C201.252 117.816 201.739 118.304 201.739 118.903C201.739 119.502 201.252 119.99 200.652 119.99Z" fill="#00D6A8"/>
<path d="M143.014 117.816V119.996H85.3807C84.7814 119.996 84.2937 119.508 84.2937 118.909C84.2937 118.304 84.7814 117.822 85.3807 117.822H143.014V117.816Z" fill="#FF373B"/>
<path d="M143.043 120.865C144.127 120.865 145.005 119.987 145.005 118.903C145.005 117.819 144.127 116.94 143.043 116.94C141.959 116.94 141.08 117.819 141.08 118.903C141.08 119.987 141.959 120.865 143.043 120.865Z" fill="white"/>
<path d="M79.1957 119.919C79.7513 117.566 78.2944 115.209 75.9417 114.653C73.589 114.097 71.2314 115.554 70.6758 117.907C70.1203 120.26 71.5772 122.617 73.9299 123.173C76.2826 123.728 78.6402 122.272 79.1957 119.919Z" fill="white"/>
<path d="M74.2818 116.94L76.679 118.791C76.7554 118.85 76.7554 118.961 76.679 119.02L74.2818 120.871C74.1878 120.941 74.0468 120.877 74.0468 120.753V117.058C74.0468 116.934 74.1819 116.87 74.2818 116.94Z" fill="#FF373B"/>
<path d="M15.7618 160.026C15.7618 160.026 -5.33132 131.529 1.28452 125.442C7.90623 119.361 17.5832 140.795 15.7618 160.026Z" fill="#00D6A8"/>
<path d="M3.21744 128.85C6.16107 133.415 8.67579 138.233 10.6735 143.286C12.4537 147.793 13.8521 152.458 14.8862 157.194C15.1506 158.404 15.3856 159.62 15.6207 160.831C15.8498 161.994 16.0143 163.169 16.2787 164.327C16.3257 164.52 16.643 164.479 16.6312 164.28C16.5137 162.158 16.0848 160.026 15.6618 157.946C15.1917 155.631 14.6394 153.328 13.9931 151.054C12.5889 146.101 10.744 141.265 8.40552 136.676C6.98364 133.891 5.39138 131.194 3.57584 128.644C3.42308 128.427 3.07055 128.621 3.21744 128.85Z" fill="#04BA8E"/>
<path d="M2.69459 132.763C3.5818 133.421 4.49838 134.032 5.3797 134.696C5.83212 135.037 6.27866 135.384 6.71932 135.736C7.11886 136.059 7.53015 136.506 8.01194 136.694C8.14707 136.747 8.24108 136.576 8.1882 136.471C7.95318 136.018 7.43614 135.66 7.0601 135.337C6.61944 134.961 6.1729 134.59 5.70873 134.244C4.82153 133.574 3.89907 132.91 2.87673 132.464C2.66522 132.364 2.51245 132.622 2.69459 132.763Z" fill="#04BA8E"/>
<path d="M3.34682 134.467C4.23402 135.125 5.1506 135.736 6.03193 136.4C6.48434 136.741 6.93088 137.088 7.37154 137.44C7.77108 137.763 8.18237 138.21 8.66416 138.398C8.7993 138.451 8.8933 138.28 8.84042 138.175C8.6054 137.722 8.08836 137.364 7.71232 137.041C7.27166 136.665 6.82512 136.294 6.36096 135.948C5.47375 135.278 4.5513 134.614 3.52896 134.167C3.31744 134.068 3.16467 134.332 3.34682 134.467Z" fill="#04BA8E"/>
<path d="M20.0685 156.765C20.0685 156.765 40.4037 127.722 33.6292 121.817C26.8547 115.906 17.7477 137.587 20.0685 156.765Z" fill="#00D6A8"/>
<path d="M31.4318 125.06C28.1885 129.908 25.662 135.231 23.7231 140.73C22.0016 145.625 20.756 150.678 19.9216 155.795C19.7101 157.076 19.5221 158.357 19.3752 159.65C19.2401 160.877 19.0873 162.111 19.0756 163.345C19.0756 163.539 19.3928 163.598 19.4281 163.392C19.8041 161.207 20.0156 158.991 20.3682 156.8C20.756 154.367 21.2378 151.953 21.8194 149.555C23.0944 144.262 24.8277 139.085 27.078 134.12C28.4588 131.077 30.051 128.121 31.7902 125.266C31.9312 125.043 31.5787 124.843 31.4318 125.06Z" fill="#04BA8E"/>
<path d="M20.6149 142.857C20.5209 144.168 20.6091 145.496 20.6972 146.806C20.7383 147.387 20.7912 147.969 20.85 148.545C20.897 149.062 20.9087 149.65 21.1144 150.137C21.1672 150.261 21.367 150.219 21.3964 150.102C21.5021 149.608 21.4081 149.05 21.3729 148.545C21.3318 147.946 21.3024 147.34 21.2612 146.741C21.1731 145.449 21.1379 144.144 20.9733 142.857C20.944 142.634 20.6326 142.622 20.6149 142.857Z" fill="#04BA8E"/>
<path d="M18.4821 146.465C18.4821 146.465 -1.98819 117.516 4.76278 111.576C11.5138 105.636 20.7148 127.281 18.4821 146.465Z" fill="url(#paint0_linear)"/>
<path d="M6.61956 115.025C10.4563 121.206 13.4234 127.869 15.4975 134.837C17.2307 140.66 18.3765 146.659 18.9934 152.699C19.2637 155.355 19.3636 158.022 19.6045 160.678C19.628 160.907 19.9511 160.913 19.9629 160.678C20.0627 158.333 19.8806 155.954 19.6808 153.621C19.4341 150.795 19.0698 147.981 18.588 145.19C17.454 138.598 15.6326 132.105 12.9827 125.953C11.3141 122.07 9.33405 118.327 6.97797 114.813C6.83108 114.596 6.47855 114.796 6.61956 115.025Z" fill="url(#paint1_linear)"/>
<path d="M17.2541 154.908C17.2541 154.908 29.8513 137.599 25.8207 133.956C21.7959 130.313 16.0614 143.31 17.2541 154.908Z" fill="url(#paint2_linear)"/>
<path d="M24.3871 135.854C21.8489 139.444 19.9864 143.504 18.6703 147.687C17.5539 151.236 16.8312 154.896 16.4258 158.592C16.2495 160.196 16.0615 161.871 16.179 163.48C16.1908 163.668 16.4963 163.739 16.5316 163.527C16.7372 162.153 16.796 160.748 16.9429 159.368C17.125 157.664 17.3718 155.966 17.6949 154.285C18.4529 150.343 19.5986 146.477 21.1909 142.793C22.1956 140.46 23.4059 138.216 24.7514 136.065C24.8866 135.836 24.5399 135.642 24.3871 135.854Z" fill="url(#paint3_linear)"/>
<path d="M25.6972 154.074L25.5973 154.738L25.3917 156.142L23.3764 169.65H11.3727L9.36327 156.142L9.15175 154.738L9.05774 154.074H25.6972Z" fill="#B1EFDF"/>
<path d="M25.5974 154.738L25.3918 156.142H9.36337L9.15186 154.738H25.5974Z" fill="#9BDDC8"/>
<path d="M25.9323 155.343H8.8228C8.27637 155.343 7.82983 154.896 7.82983 154.35C7.82983 153.803 8.27637 153.357 8.8228 153.357H25.9323C26.4787 153.357 26.9253 153.803 26.9253 154.35C26.9253 154.902 26.4787 155.343 25.9323 155.343Z" fill="#B1EFDF"/>
<path d="M4.3866 169.844H267.592" stroke="black" stroke-width="1.1751" stroke-miterlimit="10" stroke-linecap="round" stroke-linejoin="round"/>
<path d="M94.9874 60.3356H31.5083C31.0441 60.3356 30.6681 59.9595 30.6681 59.4954V12.8496C30.6681 11.3925 31.8491 10.2174 33.3003 10.2174H91.9204C94.0767 10.2174 95.8276 11.9683 95.8276 14.1246V59.4954C95.8276 59.9537 95.4516 60.3356 94.9874 60.3356Z" fill="#C6F4E9"/>
<path d="M91.6735 57.9031H34.8925C33.9759 57.9031 33.2297 57.1569 33.2297 56.2403V48.7725C33.2297 47.8559 33.9759 47.1097 34.8925 47.1097H91.6735C92.5901 47.1097 93.3363 47.8559 93.3363 48.7725V56.2403C93.3363 57.1569 92.5901 57.9031 91.6735 57.9031Z" fill="white"/>
<path d="M92.2787 45.3237H34.2932C33.7115 45.3237 33.2356 44.8477 33.2356 44.2661V42.0099C33.2356 41.4282 33.7115 40.9523 34.2932 40.9523H92.2787C92.8604 40.9523 93.3363 41.4282 93.3363 42.0099V44.2719C93.3363 44.8536 92.8604 45.3237 92.2787 45.3237Z" fill="white"/>
<path d="M95.1695 8.56055H31.3262C30.9619 8.56055 30.6681 8.85432 30.6681 9.2186V14.107H95.8335V9.2186C95.8276 8.85432 95.5338 8.56055 95.1695 8.56055Z" fill="url(#paint4_linear)"/>
<path d="M86.1622 11.3337C86.1622 11.6686 85.8919 11.933 85.5629 11.933C85.228 11.933 84.9636 11.6627 84.9636 11.3337C84.9636 10.9988 85.2339 10.7344 85.5629 10.7344C85.8919 10.7344 86.1622 10.9988 86.1622 11.3337Z" fill="white"/>
<path d="M89.1528 11.3337C89.1528 11.6686 88.8826 11.933 88.5535 11.933C88.2186 11.933 87.9542 11.6627 87.9542 11.3337C87.9542 10.9988 88.2245 10.7344 88.5535 10.7344C88.8826 10.7344 89.1528 10.9988 89.1528 11.3337Z" fill="white"/>
<path d="M92.1436 11.3337C92.1436 11.6686 91.8733 11.933 91.5443 11.933C91.2093 11.933 90.9449 11.6627 90.9449 11.3337C90.9449 10.9988 91.2152 10.7344 91.5443 10.7344C91.8733 10.7344 92.1436 10.9988 92.1436 11.3337Z" fill="white"/>
<path d="M93.3363 17.3679V38.0086C93.3363 38.3553 93.0542 38.6373 92.7076 38.6373H72.2902C71.9494 38.6373 71.6674 38.3553 71.6674 38.0086V17.3679C71.6674 17.0271 71.9494 16.7451 72.2902 16.7451H92.7076C93.0542 16.7451 93.3363 17.0271 93.3363 17.3679Z" fill="white"/>
<path d="M93.3363 34.1425V38.0086C93.3363 38.3553 93.0543 38.6373 92.7076 38.6373H82.5841L83.013 34.1367L87.7781 28.8663L93.3363 34.1425Z" fill="#00D6A8"/>
<path d="M90.4984 38.6373H72.2902C71.9494 38.6373 71.6674 38.3552 71.6674 38.0086V34.1425L78.7944 26.663L90.4984 38.6373Z" fill="#FF373B"/>
<path d="M90.469 22.6678C90.469 24.0544 89.3468 25.1825 87.9543 25.1825C86.5618 25.1825 85.4396 24.0603 85.4396 22.6678C85.4396 21.2812 86.5618 20.1531 87.9543 20.1531C89.3468 20.1531 90.469 21.2812 90.469 22.6678Z" fill="#FFA55C"/>
<path d="M68.2244 18.6781H33.9349C33.4002 18.6781 32.9713 18.2434 32.9713 17.7146C32.9713 17.1799 33.4061 16.751 33.9349 16.751H68.2303C68.765 16.751 69.1939 17.1858 69.1939 17.7146C69.1939 18.2434 68.7591 18.6781 68.2244 18.6781Z" fill="#00D6A8"/>
<path d="M68.2244 22.6676H33.9349C33.4002 22.6676 32.9713 22.2329 32.9713 21.7041C32.9713 21.1694 33.4061 20.7405 33.9349 20.7405H68.2303C68.765 20.7405 69.1939 21.1753 69.1939 21.7041C69.1939 22.2387 68.7591 22.6676 68.2244 22.6676Z" fill="#00D6A8"/>
<path d="M68.2244 26.6629H33.9349C33.4002 26.6629 32.9713 26.2281 32.9713 25.6993C32.9713 25.1646 33.4061 24.7357 33.9349 24.7357H68.2303C68.765 24.7357 69.1939 25.1705 69.1939 25.6993C69.1939 26.2281 68.7591 26.6629 68.2244 26.6629Z" fill="#00D6A8"/>
<path d="M68.2244 30.6524H33.9349C33.4002 30.6524 32.9713 30.2176 32.9713 29.6888C32.9713 29.1541 33.4061 28.7252 33.9349 28.7252H68.2303C68.765 28.7252 69.1939 29.16 69.1939 29.6888C69.1939 30.2235 68.7591 30.6524 68.2244 30.6524Z" fill="#00D6A8"/>
<path d="M68.2244 34.6479H33.9349C33.4002 34.6479 32.9713 34.2131 32.9713 33.6843C32.9713 33.1496 33.4061 32.7207 33.9349 32.7207H68.2303C68.765 32.7207 69.1939 33.1555 69.1939 33.6843C69.1939 34.2131 68.7591 34.6479 68.2244 34.6479Z" fill="#00D6A8"/>
<path d="M60.1691 38.6373H33.9349C33.4002 38.6373 32.9713 38.2025 32.9713 37.6737C32.9713 37.139 33.4061 36.7101 33.9349 36.7101H60.1691C60.7038 36.7101 61.1327 37.1449 61.1327 37.6737C61.1385 38.2083 60.7038 38.6373 60.1691 38.6373Z" fill="#00D6A8"/>
<path d="M124 106.605L117.191 94.913L106.362 95.765L103.407 98.4619C103.025 98.0212 103.113 98.1211 102.813 97.792C100.528 95.2303 95.1809 90.9764 90.9388 86.5992C86.1209 81.6285 82.5192 76.6519 82.5192 76.6519L81.6614 77.0808C81.6672 76.6226 81.6672 76.3347 81.6672 76.3347L77.854 71.2347L73.2359 70.9351L69.8046 75.1067L69.9808 77.3394C69.9808 77.3394 70.0337 80.7766 72.7188 81.1232C73.5238 81.229 75.5626 81.6167 76.203 82.0574C78.042 83.3148 79.4933 85.0598 80.5098 87.0457C83.5356 92.98 87.9482 101.447 92.0963 108.703C92.0963 108.703 92.2549 109.008 92.5722 109.478C94.0117 111.776 98.483 118.421 102.138 118.732C106.556 119.103 124 106.605 124 106.605Z" fill="#F7B59C"/>
<path d="M139.523 44.9652C139.523 44.9652 140.981 42.7913 142.978 42.2743C144.982 41.7572 140.781 46.9277 140.781 46.9277C140.781 46.9277 139.653 47.4271 139.523 47.3448C139.394 47.2567 139.523 44.9652 139.523 44.9652Z" fill="#01263A"/>
<path d="M176.804 29.4421C176.804 29.4421 191.075 34.5656 174.083 49.2896L171.527 48.5141L176.804 29.4421Z" fill="black"/>
<path d="M146.192 23.2493C146.192 23.2493 142.197 30.6759 144.946 35.5702L151.304 27.3269" fill="black"/>
<path d="M148.119 29.213C149.171 29.6536 150.887 30.2353 153.043 30.4938C156.739 30.9404 164.189 31.6748 166.686 34.3952C166.686 34.3952 167.738 35.3411 168.355 37.4798C168.966 39.6126 166.968 30.2235 166.968 30.2235L155.616 24.6594C152.72 25.294 150.076 26.9097 148.119 29.213Z" fill="#ED9780"/>
<path d="M170.928 53.7727C174.594 54.4777 176.316 48.6903 175.311 47.1392C174.218 45.4529 172.99 45.6762 172.99 45.6762C171.95 46.8043 171.004 49.4659 170.534 50.7761L170.382 50.8584C173.736 43.326 173.76 35.7701 170.999 30.6466C168.977 26.898 164.148 24.73 159.394 24.3833C158.113 24.2893 156.844 24.3892 155.616 24.6653C152.72 25.2999 150.082 26.9215 148.125 29.2247C147.949 29.4363 147.778 29.6478 147.614 29.8593L146.498 31.3341C146.351 31.5279 146.216 31.716 146.08 31.9216C145.381 32.9674 144.829 34.1073 144.471 35.3059C144.265 35.9287 144.118 36.575 144.018 37.2272C143.742 38.984 143.066 41.2931 141.415 43.326C138.231 47.2508 134.97 54.3014 139.188 60.9702C141.039 63.8903 145.052 65.5061 149.588 65.5942C149.776 66.4285 149.952 67.4039 150.082 68.5202C150.223 69.7893 150.311 71.2347 150.276 72.8446L140.716 73.767C147.526 82.0633 156.621 83.3911 156.621 83.3911C172.426 83.0915 175.123 74.384 175.123 74.384L166.292 72.4215C166.298 72.4098 166.028 60.882 170.928 53.7727ZM170.493 50.876C170.299 51.4342 170.152 51.9454 170.047 52.3567C169.776 52.5858 169.541 52.7856 169.359 52.9442C169.618 52.4624 169.865 51.9747 170.088 51.493C170.223 51.2873 170.352 51.0817 170.493 50.876Z" fill="#F7B59C"/>
<path d="M146.339 10.57C145.134 10.805 144.042 13.2786 143.548 14.3891C142.837 15.9872 141.492 19.7887 144.565 24.0484C148.049 28.8781 155.569 28.884 161.186 30.3293C166.175 31.6161 168.666 34.83 168.337 38.4963C168.249 39.501 168.601 40.494 169.265 41.2519L169.371 41.3753C169.988 42.0804 170.241 43.0322 170.053 43.9547C169.465 46.8513 167.638 52.7973 163.131 54.1252C159.242 55.2768 157.643 53.8138 157.003 53.3261C154.741 51.6046 153.46 49.695 149.042 47.5387C146.744 46.4165 144.271 46.5751 141.045 46.1051C140.446 46.017 139.617 45.9406 139.523 44.9653C139.523 44.9653 132.49 53.2204 137.408 61.7986C138.648 63.9549 140.687 65.5119 143.102 66.0936C146.409 66.8927 151.903 67.3569 158.29 64.4661C168.742 59.7422 172.185 48.9547 173.578 45.5646C174.97 42.1744 178.584 33.038 175.887 24.6242C174.224 19.4303 168.954 15.0412 160.346 14.6535C154.353 14.3832 149.911 9.87666 146.339 10.57Z" fill="black"/>
<path d="M153.172 52.6504C153.172 52.6504 153.025 52.9325 152.726 53.3202C151.786 54.5541 149.306 56.8808 145.082 54.8244C143.754 54.1781 143.078 53.3144 142.773 52.433C142.126 50.6058 143.09 48.7256 143.09 48.7256C143.09 48.7256 144.653 49.7538 146.786 50.7526C148.625 51.6222 150.892 52.4742 152.931 52.6328C153.014 52.6446 153.096 52.6446 153.172 52.6504Z" fill="#8D1612"/>
<path d="M153.043 52.2627L152.931 52.6387L152.726 53.3261C151.786 54.56 149.306 56.8867 145.082 54.8303C143.754 54.184 143.078 53.3203 142.773 52.4389C144.518 50.7644 146.257 50.7644 146.257 50.7644H149.095L153.043 52.2627Z" fill="#FF4C2F"/>
<path d="M143.301 48.7256C143.301 48.7256 142.12 50.2003 142.115 50.6175C142.109 51.2697 149.9 54.9243 150.317 54.9536C150.734 54.983 151.457 53.4789 151.457 53.4789L148.301 51.5987" fill="#FAFFF7"/>
<path d="M143.689 32.944C143.507 33.3553 143.654 32.9734 143.484 33.5551C143.313 34.1544 143.701 34.6949 144.288 34.9065C145.746 35.4294 150.17 37.1803 150.17 37.1803C150.634 37.4505 150.64 36.9511 150.493 36.6515C149.911 35.4352 149.33 33.9194 145.14 32.5034C144.553 32.3036 143.942 32.3741 143.689 32.944Z" fill="black"/>
<path d="M164.483 41.3165C164.306 41.7337 164.488 41.3635 164.177 41.8864C163.86 42.427 163.202 42.5151 162.644 42.2331C161.263 41.5339 156.944 39.5245 156.944 39.5245C156.433 39.3717 156.786 39.0251 157.103 38.9252C158.384 38.508 159.888 37.8911 163.801 39.9593C164.347 40.2472 164.718 40.7466 164.483 41.3165Z" fill="black"/>
<path d="M141.503 49.0076C141.503 49.0076 143.959 52.1275 147.361 51.1757C147.361 51.1757 147.391 53.7257 153.119 54.5659L153.619 52.5682C153.619 52.5682 149.935 50.6058 149.694 50.7527C149.453 50.8995 145.951 49.8185 145.281 49.6892C144.612 49.5658 142.338 47.7855 142.338 47.7855L141.503 49.0076Z" fill="black"/>
<path d="M173.525 47.6621C173.525 47.6621 171.445 50.6233 171.768 51.9159C171.768 51.9159 171.85 51.1639 173.76 51.1756C173.76 51.1756 174.994 49.4541 174.377 48.1674C174.06 47.5328 173.525 47.6621 173.525 47.6621Z" fill="#ED9780"/>
<path d="M157.138 42.2626C156.486 43.326 156.21 44.4835 157.279 45.3296C157.62 45.5999 158.213 45.4824 158.513 45.2003C159.054 44.6833 159.13 44.4365 159.447 43.8313C160.182 42.4506 157.973 40.9053 157.138 42.2626Z" fill="#452E17"/>
<path d="M157.32 42.8854C157.15 43.1616 157.079 43.4671 157.356 43.6904C157.444 43.7609 157.602 43.7315 157.679 43.6551C157.82 43.52 157.785 43.379 157.867 43.2203C158.061 42.8561 157.538 42.527 157.32 42.8854Z" fill="white"/>
<path d="M145.746 38.4141C145.205 39.2367 144.964 40.1474 145.787 40.8407C146.051 41.064 146.521 40.9817 146.762 40.7702C147.203 40.3706 147.238 40.0534 147.508 39.5833C148.119 38.5022 146.439 37.3624 145.746 38.4141Z" fill="#452E17"/>
<path d="M145.875 38.9076C145.734 39.125 145.669 39.36 145.887 39.5421C145.957 39.6009 146.08 39.5774 146.145 39.5245C146.263 39.4187 146.233 39.3071 146.304 39.1837C146.462 38.9017 146.057 38.6314 145.875 38.9076Z" fill="white"/>
<path d="M82.6661 76.8869C82.6661 76.8869 77.2018 65.1476 73.3886 62.3861C73.3886 62.3861 72.049 62.5976 72.2018 64.2251C72.3604 65.8585 74.6754 67.8562 74.7753 69.3838C74.881 70.9115 73.8528 70.7 72.5896 70.4062C71.3263 70.1183 61.9901 64.9185 61.0677 65.3767C60.1276 65.8409 61.0912 66.8104 61.7492 67.3392C62.4073 67.868 67.3897 70.9996 67.3897 70.9996C67.3897 70.9996 58.4119 66.0701 57.7363 67.7857C57.3015 68.8962 65.6506 73.1853 65.6506 73.1853C65.6506 73.1853 58.4766 69.1665 58.1475 70.6588C57.8655 71.9338 63.9467 74.7834 63.9467 74.7834C63.9467 74.7834 60.1922 72.8152 59.9102 73.6789C59.5518 74.7717 64.7693 77.6037 66.2793 78.5908C67.7893 79.5779 71.4732 81.1584 72.9362 81.1231C74.3992 81.082 75.4745 80.941 76.2794 81.7577" fill="#F7B59C"/>
<path d="M177.62 99.1846L178.919 113.186H185.675L184.477 104.061L177.62 99.1846Z" fill="#F4F4F4"/>
<path d="M197.773 96.9812L203.872 113.186H185.676L182.661 106.605" fill="#F7B59C"/>
<path d="M201.91 105.442C201.91 105.442 199.9 100.142 195.629 90.4065C193.02 84.4546 191.316 80.4886 189.236 78.4205C185.112 74.3135 171.433 72.2982 171.134 72.2512C170.535 72.0925 170 71.9633 169.553 71.8575C168.549 71.6225 167.673 71.0408 167.062 70.2065L166.392 69.2958C162.667 74.9069 159.295 75.4827 159.295 75.4827C159.018 75.5238 156.903 80.3359 156.615 80.3476C155.646 80.3711 155.575 75.7647 154.8 75.4474C151.95 73.9786 150.199 69.9186 150.199 69.9186C149.518 71.1759 148.26 72.0103 146.839 72.1572C145.211 72.3158 132.643 73.0502 130.029 74.8658C124.564 78.6555 114.529 87.7508 106.35 95.7767C106.468 95.7826 114.87 103.045 118.718 110.683L130.505 103.468C130.734 106.87 130.887 110.313 130.887 113.198H185.67L185.076 111.012C194.042 110.906 201.91 105.442 201.91 105.442Z" fill="white"/>
<path d="M150.47 40.8442C151.381 38.5877 150.472 36.0923 148.438 35.2705C146.404 34.4488 144.016 35.612 143.104 37.8685C142.193 40.1251 143.102 42.6205 145.136 43.4422C147.17 44.2639 149.558 43.1008 150.47 40.8442Z" stroke="white" stroke-width="0.587552" stroke-miterlimit="10"/>
<path d="M161.216 45.2108C162.128 42.9543 161.218 40.4588 159.184 39.6371C157.15 38.8154 154.763 39.9785 153.851 42.2351C152.939 44.4916 153.849 46.9871 155.883 47.8088C157.917 48.6305 160.305 47.4673 161.216 45.2108Z" stroke="white" stroke-width="0.587552" stroke-miterlimit="10"/>
<path d="M150.581 40.5529C150.581 40.5529 152.961 40.3002 153.86 42.245" stroke="white" stroke-width="0.587552" stroke-miterlimit="10"/>
<path d="M161.369 44.7949L173.584 45.5646" stroke="white" stroke-width="0.587552" stroke-miterlimit="10" stroke-linecap="round"/>
<path d="M133.883 113.186H130.892C130.898 110.301 130.74 106.858 130.51 103.456L132.931 102.099C132.937 102.099 133.953 110.107 133.883 113.186Z" fill="#F4F4F4"/>
<path d="M151.809 41.7395C151.809 41.7395 148.63 44.2013 148.284 45.4881C148.078 46.246 149.353 47.0862 149.353 47.0862" stroke="#ED9780" stroke-width="0.587552" stroke-miterlimit="10" stroke-linecap="round"/>
<path d="M64.1405 127.481C64.1405 127.481 65.4449 132.035 60.5506 132.035C59.8572 132.035 59.2697 131.852 58.7703 131.612C56.9606 130.742 56.5435 127.704 56.5435 127.704C58.0711 127.311 57.5364 125.101 57.5364 125.101L62.9771 125.225C62.9771 125.225 62.7069 126.647 63.1064 127.052C63.7997 127.763 64.1405 127.481 64.1405 127.481Z" fill="#F7B59C"/>
<path d="M56.849 127.358C56.849 127.358 56.5434 131.394 60.3449 131.394C63.7821 131.394 63.8232 128.721 63.5706 127.246C67.4954 127.599 71.7904 129.185 73.9879 130.983C76.5907 134.349 78.3945 139.496 78.3945 139.496C78.3945 139.496 77.1548 140.078 75.9503 140.437C74.6694 140.818 73.7235 141.406 73.7235 141.406L72.1841 162.194H48.1297L47.7184 141.394C47.7184 141.394 46.1379 141.018 44.857 140.595C42.9886 139.984 42.2836 139.385 42.2836 139.385C42.2836 139.385 43.7289 135.125 45.9029 131.623C48.1238 129.579 52.2602 127.892 56.849 127.358Z" fill="#FF373B"/>
<path d="M42.7182 139.626C42.7182 139.626 40.4268 147.74 40.6383 151.618C40.8498 155.495 50.0098 160.919 50.0098 160.919L51.2084 156.829C51.2084 156.829 47.401 155.208 46.837 152.246C46.2729 149.285 49.4692 141.864 49.4692 141.864C49.4692 141.864 48.0591 141.453 46.126 140.924C44.2517 140.407 42.7182 139.626 42.7182 139.626Z" fill="#F7B59C"/>
<path d="M78.1124 139.626C78.1124 139.626 80.4039 147.74 80.1924 151.618C79.9809 155.495 70.8209 160.919 70.8209 160.919L69.6223 156.829C69.6223 156.829 73.4297 155.208 73.9937 152.246C74.5578 149.285 71.2498 141.682 71.2498 141.682C71.2498 141.682 72.7716 141.341 74.7046 140.813C76.5789 140.301 78.1124 139.626 78.1124 139.626Z" fill="#F7B59C"/>
<path d="M75.1218 162.534H45.3976L44.7219 143.909C44.7043 143.427 45.092 143.028 45.5738 143.028H74.9397C75.4215 143.028 75.8093 143.427 75.7916 143.909L75.1218 162.534Z" fill="#00D6A8"/>
<path d="M72.7422 166.794C72.7422 166.794 73.3768 166.048 74.8457 166.007C75.7975 165.983 78.5002 166.594 79.7928 166.571C81.0796 166.547 82.4251 166.265 83.1654 167.37C84.4227 169.238 83.8763 170.919 81.767 171.171C80.6154 171.307 79.6695 170.549 77.8422 170.731C76.0736 170.907 73.3121 170.314 72.5072 169.05" fill="black"/>
<path d="M70.245 165.924C70.245 165.924 71.6728 166.33 72.6187 166.383C73.5647 166.436 75.6858 166.201 76.6435 166.8C77.6834 167.452 77.2956 169.221 76.6376 169.644C75.5741 170.319 74.7163 169.967 72.7715 169.356C70.8267 168.745 68.547 168.974 68.547 168.974" fill="#F7B59C"/>
<path d="M73.1418 170.167C73.1418 170.167 51.1027 169.767 45.2331 168.998C42.7654 168.669 40.4446 168.14 38.5115 167.352C35.8734 165.778 34.9039 162.035 36.7018 158.586C37.542 156.976 40.1214 157.264 40.4857 157.264C40.5797 157.264 40.6267 157.27 40.6267 157.27C47.7713 157.546 54.2814 159.373 61.6375 162.317C68.4884 165.049 73.7176 166.189 73.7176 166.189C74.0995 168.992 73.1418 170.167 73.1418 170.167Z" fill="black"/>
<path d="M78.4473 167.752C78.4473 167.752 77.8657 167.429 77.6659 167.775C77.472 168.128 77.3662 169.614 77.4661 169.843C77.6483 170.255 78.5061 170.108 78.5061 170.108L79.2053 168.222L78.4473 167.752Z" fill="black"/>
<path d="M48.206 166.824C48.206 166.824 47.5539 166.042 46.0262 166.001C45.0333 165.972 42.2248 166.594 40.8852 166.565C39.5455 166.536 38.2294 166.248 37.3775 167.147C35.7676 168.839 37.2658 170.966 39.4633 171.236C40.656 171.383 41.0085 170.696 42.9063 170.889C44.7454 171.077 47.6126 170.472 48.4528 169.162" fill="black"/>
<path d="M50.803 165.93C50.803 165.93 49.3224 166.348 48.3412 166.395C47.36 166.442 45.1567 166.189 44.1578 166.812C43.0767 167.487 43.4704 169.326 44.152 169.761C45.2507 170.466 46.1496 170.108 48.1708 169.479C50.192 168.851 52.5598 169.103 52.5598 169.103" fill="#F7B59C"/>
<path d="M82.5602 167.276C80.5449 168.151 78.089 168.721 75.4567 169.062C69.5812 169.814 47.5363 170.132 47.5363 170.132C47.5363 170.132 46.5786 168.945 46.9781 166.136C46.9781 166.136 52.2249 165.02 59.0758 162.317C66.2792 159.479 72.6717 157.681 79.6225 157.364C80.9856 157.499 82.5544 158.098 83.6648 160.431C85.1455 163.504 83.9997 166.73 82.5602 167.276Z" fill="black"/>
<path d="M43.5116 167.047C43.5116 167.047 44.2578 166.636 44.5045 167.082C44.7513 167.529 44.8806 169.432 44.7513 169.72C44.5163 170.243 43.4234 170.055 43.4234 170.055L42.5421 167.652L43.5116 167.047Z" fill="black"/>
<path d="M66.6434 114.52C66.6434 114.52 68.6822 114.314 66.3673 119.602C65.4918 121.594 65.1863 121.465 65.1687 121.559C65.151 121.653 64.3872 120.895 64.3872 120.56C64.3872 120.225 64.4225 117.61 64.4518 117.475C64.493 117.334 66.6434 114.52 66.6434 114.52Z" fill="black"/>
<path d="M54.6103 115.724C54.6103 115.724 53.0298 115.283 53.6702 118.439C54.0991 120.571 55.2272 121.459 55.239 121.553C55.2566 121.647 56.0204 120.889 56.0204 120.554C56.0204 120.219 55.9852 117.604 55.9558 117.469C55.9147 117.334 54.6103 115.724 54.6103 115.724Z" fill="black"/>
<path d="M55.0392 119.672C55.0392 119.672 54.3694 119.026 54.1814 119.89C53.9934 120.754 54.6926 122.992 55.5856 122.128" fill="#E5A18C"/>
<path d="M65.3919 119.672C65.3919 119.672 66.0617 119.026 66.2497 119.89C66.4377 120.754 65.7385 122.992 64.8455 122.128" fill="#E5A18C"/>
<path d="M60.4212 126.547C60.4212 126.547 60.4036 126.547 60.3683 126.547C59.7455 126.582 54.2108 126.635 54.9099 116.576H65.4565C65.4565 116.576 66.7374 125.942 60.4212 126.547Z" fill="#F7B59C"/>
<path d="M64.0229 110.936C66.0089 111.523 67.2897 114.032 66.3085 116.018C65.3273 118.004 62.1721 119.161 58.641 118.409C56.561 117.969 55.8971 117.128 54.6515 117.193C53.6938 117.24 52.8183 116.658 52.4834 115.759C52.031 114.537 51.7607 112.886 53.0298 111.899C56.4729 112.898 61.044 110.054 64.0229 110.936Z" fill="black"/>
<path d="M61.9606 152.182C61.9606 153.239 61.1028 154.097 60.0452 154.097C58.9876 154.097 58.1298 153.239 58.1298 152.182C58.1298 151.124 58.9876 150.266 60.0452 150.266C61.1028 150.272 61.9606 151.124 61.9606 152.182Z" fill="#FFA55C"/>
<path d="M57.6187 125.724C57.6187 125.724 57.9183 125.924 58.406 126.112C58.8878 126.306 59.5752 126.453 60.2568 126.418C60.6152 126.406 60.9383 126.353 61.2615 126.277C61.5788 126.2 61.8725 126.112 62.1134 126.018C62.607 125.83 62.9125 125.654 62.9125 125.654C62.9125 125.654 62.6481 125.901 62.1722 126.153C61.9313 126.277 61.6434 126.412 61.3202 126.506C61.003 126.606 60.6269 126.67 60.2744 126.682C59.9042 126.694 59.5399 126.659 59.2109 126.576C58.876 126.494 58.5881 126.365 58.3472 126.247C57.8654 125.989 57.6187 125.724 57.6187 125.724Z" fill="#EAA18B"/>
<path d="M57.9946 120.824C58.0358 121.183 58.0651 121.611 57.6715 121.658C57.4835 121.682 57.3131 121.541 57.2719 121.429C57.1956 121.224 57.2308 121.112 57.2249 120.918C57.2014 120.466 57.9417 120.366 57.9946 120.824Z" fill="#452E17"/>
<path d="M57.8126 121.13C57.8302 121.224 57.8184 121.312 57.7185 121.347C57.6892 121.359 57.648 121.335 57.6363 121.306C57.6128 121.253 57.6363 121.218 57.6304 121.171C57.6128 121.047 57.7891 121.012 57.8126 121.13Z" fill="white"/>
<path d="M62.8302 120.824C62.8713 121.183 62.9007 121.611 62.507 121.658C62.319 121.682 62.1486 121.541 62.1075 121.429C62.0311 121.224 62.0664 121.112 62.0605 120.918C62.0429 120.466 62.7832 120.366 62.8302 120.824Z" fill="#452E17"/>
<path d="M62.648 121.13C62.6656 121.224 62.6539 121.312 62.554 121.347C62.5246 121.359 62.4835 121.335 62.4717 121.306C62.4482 121.253 62.4717 121.218 62.4659 121.171C62.4541 121.047 62.6245 121.012 62.648 121.13Z" fill="white"/>
<path d="M63.4178 119.502C63.4472 119.59 63.4237 119.508 63.4472 119.626C63.4648 119.749 63.3415 119.825 63.1828 119.825C62.7833 119.831 61.5612 119.89 61.5612 119.89C61.4319 119.913 61.4495 119.819 61.4965 119.772C61.6963 119.584 61.9137 119.338 63.0594 119.332C63.2181 119.332 63.3767 119.385 63.4178 119.502Z" fill="black"/>
<path d="M56.6608 119.502C56.6314 119.59 56.6549 119.508 56.6314 119.626C56.6138 119.749 56.7372 119.825 56.8958 119.825C57.2954 119.831 58.5175 119.89 58.5175 119.89C58.6467 119.913 58.6291 119.819 58.5821 119.772C58.3823 119.584 58.165 119.338 57.0192 119.332C56.8547 119.332 56.7019 119.385 56.6608 119.502Z" fill="black"/>
<path d="M60.0511 121.494C60.0511 121.494 59.5869 122.51 59.7338 122.71C59.8807 122.91 60.4271 122.922 60.4271 122.922" stroke="#EAA18B" stroke-width="0.293776" stroke-miterlimit="10" stroke-linecap="round"/>
<path d="M58.8113 124.408C58.8113 124.408 60.2684 125.266 61.5787 124.338" stroke="#C9806F" stroke-width="0.293776" stroke-miterlimit="10" stroke-linecap="round"/>
<path d="M172.327 168.328V129.062C172.327 128.973 172.256 128.903 172.168 128.903H171.216C171.128 128.903 171.058 128.973 171.058 129.062V168.328C170.811 168.386 170.623 168.598 170.623 168.868C170.623 169.18 170.875 169.432 171.187 169.432H172.203C172.515 169.432 172.767 169.18 172.767 168.868C172.761 168.598 172.573 168.386 172.327 168.328Z" fill="#ABB7B3"/>
<path d="M250.224 168.304H250.195V128.909H248.926V168.304H248.896C248.673 168.304 248.491 168.486 248.491 168.71V169.027C248.491 169.25 248.673 169.432 248.896 169.432H250.23C250.454 169.432 250.636 169.25 250.636 169.027V168.71C250.63 168.48 250.448 168.304 250.224 168.304Z" fill="#ABB7B3"/>
<path d="M260.113 129.297H159.965C159.312 129.297 158.784 128.768 158.784 128.116C158.784 127.463 159.312 126.935 159.965 126.935H260.113C260.765 126.935 261.294 127.463 261.294 128.116C261.294 128.768 260.765 129.297 260.113 129.297Z" fill="black"/>
<path d="M213.355 125.625H184.448L178.725 107.634C178.437 106.729 179.113 105.801 180.065 105.801H206.023C206.634 105.801 207.174 106.194 207.362 106.782L213.355 125.625Z" fill="#FFA55C"/>
<path d="M212.774 125.624H185.4L179.647 107.352C179.542 107.011 179.794 106.664 180.147 106.664H206.375C206.634 106.664 206.863 106.835 206.939 107.081L212.774 125.624Z" fill="white"/>
<path d="M195.523 109.508H182.914C182.726 109.508 182.573 109.355 182.573 109.167C182.573 108.979 182.726 108.826 182.914 108.826H195.523C195.711 108.826 195.864 108.979 195.864 109.167C195.864 109.355 195.711 109.508 195.523 109.508Z" fill="#C6F4E9"/>
<path d="M197.474 111.077H183.414C183.226 111.077 183.073 110.924 183.073 110.736C183.073 110.548 183.226 110.395 183.414 110.395H197.474C197.662 110.395 197.815 110.548 197.815 110.736C197.815 110.924 197.662 111.077 197.474 111.077Z" fill="#C6F4E9"/>
<path d="M196.175 112.651H183.931C183.743 112.651 183.59 112.499 183.59 112.31C183.59 112.122 183.743 111.97 183.931 111.97H196.175C196.363 111.97 196.516 112.122 196.516 112.31C196.516 112.499 196.363 112.651 196.175 112.651Z" fill="#C6F4E9"/>
<path d="M194.131 114.226H184.424C184.236 114.226 184.083 114.073 184.083 113.885C184.083 113.697 184.236 113.544 184.424 113.544H194.131C194.319 113.544 194.471 113.697 194.471 113.885C194.471 114.073 194.319 114.226 194.131 114.226Z" fill="#C6F4E9"/>
<path d="M199.001 115.795H184.941C184.753 115.795 184.6 115.642 184.6 115.454C184.6 115.266 184.753 115.113 184.941 115.113H199.001C199.189 115.113 199.342 115.266 199.342 115.454C199.342 115.642 199.189 115.795 199.001 115.795Z" fill="#C6F4E9"/>
<path d="M197.691 117.369H185.447C185.259 117.369 185.106 117.217 185.106 117.029C185.106 116.84 185.259 116.688 185.447 116.688H197.691C197.879 116.688 198.032 116.84 198.032 117.029C198.032 117.217 197.879 117.369 197.691 117.369Z" fill="#C6F4E9"/>
<path d="M200.506 120.513H186.446C186.258 120.513 186.105 120.36 186.105 120.172C186.105 119.984 186.258 119.831 186.446 119.831H200.506C200.694 119.831 200.846 119.984 200.846 120.172C200.846 120.36 200.694 120.513 200.506 120.513Z" fill="#C6F4E9"/>
<path d="M201.023 122.087H186.962C186.774 122.087 186.622 121.935 186.622 121.747C186.622 121.559 186.774 121.406 186.962 121.406H201.023C201.211 121.406 201.363 121.559 201.363 121.747C201.358 121.935 201.211 122.087 201.023 122.087Z" fill="#C6F4E9"/>
<path d="M208.496 122.087H203.955C203.531 122.087 203.155 121.811 203.032 121.412L199.248 109.426C199.048 108.803 199.519 108.162 200.171 108.162H204.712C205.136 108.162 205.512 108.439 205.635 108.838L209.419 120.824C209.619 121.447 209.154 122.087 208.496 122.087Z" fill="#C6F4E9"/>
<path d="M215.776 126.935H184.342C183.831 126.935 183.414 126.518 183.414 126.006C183.414 125.495 183.831 125.078 184.342 125.078H215.776C216.287 125.078 216.705 125.495 216.705 126.006C216.71 126.518 216.293 126.935 215.776 126.935Z" fill="#FFA55C"/>
<path d="M218.902 102.898C218.661 102.898 218.426 102.774 218.302 102.551L217.392 100.947C217.298 100.783 217.274 100.595 217.327 100.418C217.38 100.236 217.498 100.089 217.668 100.001L220.206 98.6616C220.535 98.4853 220.952 98.6146 221.129 98.9377L221.992 100.53C222.08 100.689 222.098 100.877 222.045 101.053C221.992 101.229 221.875 101.376 221.716 101.458L219.225 102.81C219.119 102.874 219.013 102.898 218.902 102.898ZM220.523 98.9025C220.465 98.9025 220.406 98.9142 220.353 98.9436L217.815 100.283C217.727 100.33 217.662 100.412 217.633 100.506C217.603 100.601 217.615 100.706 217.668 100.794L218.579 102.398C218.679 102.575 218.902 102.633 219.078 102.539L221.569 101.188C221.657 101.141 221.716 101.065 221.746 100.971C221.775 100.877 221.763 100.777 221.716 100.689L220.852 99.0964C220.782 98.973 220.653 98.9025 220.523 98.9025Z" fill="#1A1A47"/>
<path d="M214.125 116.876C213.919 117.134 213.761 117.305 213.761 117.305C213.761 117.305 212.239 116.153 211.81 116.042C211.387 115.936 210.47 116.194 209.965 116.3C209.137 116.47 209.478 115.795 209.478 115.795C209.478 115.795 208.919 115.989 208.432 116.188C207.874 116.418 207.292 116.882 207.121 116.923C206.804 116.999 206.487 116.841 206.787 116.394C207.21 115.759 209.207 113.926 209.707 113.685C210.341 113.386 211.205 112.945 211.898 113.204C212.597 113.462 214.848 115.154 214.848 115.154C214.912 115.73 214.466 116.435 214.125 116.876Z" fill="#F7B59C"/>
<path d="M213.526 117.305C213.526 117.305 221 123.844 226.599 124.508C232.192 125.172 241.628 114.561 241.628 114.561C241.628 114.561 241.035 108.909 237.545 109.573C234.055 110.236 229.378 118.644 227.357 119.038C225.33 119.432 214.795 114.966 214.795 114.966C214.795 114.966 214.495 115.178 214.143 115.771C213.761 116.406 213.526 117.305 213.526 117.305Z" fill="#FF373B"/>
<path d="M230.153 91.7578C228.373 89.719 225.735 89.4958 223.702 89.7249C221.029 90.0187 218.708 91.8225 217.938 94.396C217.603 95.5064 217.539 96.8108 218.062 98.2444C219.724 102.827 221.487 105.354 222.844 106.599C223.438 107.146 224.695 106.4 225.958 105.959C226.123 105.9 226.311 105.971 226.393 106.123L227.116 107.457L232.327 106.394C232.327 106.394 231.546 104.743 231.229 103.368C231.898 102.504 233.414 95.4947 230.153 91.7578Z" fill="#F7B59C"/>
<path d="M220.67 98.3033C221.252 98.2563 221.804 98.5618 222.034 99.1023C222.421 100.019 223.015 101.306 223.485 101.723C223.579 101.811 223.79 101.84 224.002 101.729C224.207 101.623 224.249 101.447 224.237 101.329C224.196 100.935 223.902 100.072 223.696 99.5019C223.432 98.7674 223.743 97.9919 224.619 97.798C224.777 97.7627 225.177 97.7862 225.383 97.845C226.769 98.268 225.811 100.442 225.788 101.576C225.77 102.375 226.728 104.232 227.151 104.396C228.544 104.943 230.659 104.449 231.775 103.062C232.897 101.682 233.138 97.0518 232.527 94.2844C231.916 91.517 229.701 89.9542 228.967 89.7779C228.608 89.6898 228.309 89.6898 228.097 89.7133C227.874 89.7368 227.656 89.6604 227.486 89.5135C226.752 88.8731 224.548 87.4042 221.058 88.9083C216.71 90.7885 215.976 94.7956 216.058 96.617C216.111 97.798 217.039 97.7098 217.68 97.5042C218.032 97.3926 218.42 97.4807 218.702 97.7275C219.066 98.0447 219.695 98.3796 220.67 98.3033Z" fill="black"/>
<path d="M226.205 108.162C226.205 108.162 225.741 107.645 225.917 107.328C226.135 106.934 228.497 105.066 231.252 105.166C231.681 105.183 232.204 105.183 232.721 106.3C233.232 107.416 233.356 108.162 233.356 108.162H226.205Z" fill="#FF373B"/>
<path d="M238.491 141.518C238.326 141.559 238.144 141.6 237.956 141.635C235.618 142.07 231.81 142.123 231.81 142.123C224.307 141.988 220.976 137.945 219.754 135.854C219.325 135.119 219.155 134.631 219.155 134.631C219.583 134.402 221.082 133.039 221.646 131.183C222.21 129.32 221.616 124.884 220.647 123.192C220.112 122.264 218.538 120.377 217.545 118.397C216.734 116.764 216.311 115.06 217.198 113.762C219.401 110.518 222.886 108.797 222.886 108.797C222.886 108.797 229.272 106.241 234.713 106.817C238.162 107.181 241.235 108.803 242.057 113.151C244.178 124.338 238.491 141.518 238.491 141.518Z" fill="#FF373B"/>
<path d="M222.791 163.668C222.791 163.668 222.257 164.297 221.446 164.426C220.547 164.573 219.877 164.133 219.877 164.133L219.46 162.928L222.339 162.299L222.791 163.668Z" fill="#F7B59C"/>
<path d="M207.703 165.161C207.703 165.161 207.074 165.695 206.252 165.695C205.341 165.695 204.748 165.161 204.748 165.161L204.524 163.903H207.48L207.703 165.161Z" fill="#F7B59C"/>
<path d="M222.791 162.305C222.603 162.393 222.028 162.628 221.822 162.699C220.735 163.063 219.184 163.381 219.184 163.381C216.71 158.028 212.668 144.561 212.668 144.561C212.104 142.182 213.802 141.218 215.288 141.13C215.805 141.101 216.293 141.171 216.657 141.33C218.079 141.935 220.165 145.954 220.165 145.954C220.165 145.954 220.8 147.346 221.464 150.219C222.133 153.092 222.791 162.305 222.791 162.305Z" fill="black"/>
<path d="M228.379 141.747C228.361 143.098 228.003 145.26 225.976 145.871C222.95 146.776 220.717 146.265 217.204 145.66C214.266 145.155 209.624 143.433 208.203 142.893C208.02 142.822 208.05 142.916 208.091 143.11C208.761 146.388 207.674 164.115 207.674 164.115C207.674 164.115 207.192 164.262 206.675 164.35C206.481 164.379 206.281 164.403 206.099 164.403C205.335 164.403 203.937 164.262 203.937 164.262C203.937 164.262 201.246 151.776 200.823 144.79C200.4 137.804 200.823 136.723 204.137 135.578C207.827 134.297 219.166 134.637 219.166 134.637L219.172 134.643C219.213 134.767 220.012 136.947 222.363 138.921C223.755 140.09 225.712 141.194 228.379 141.747Z" fill="black"/>
<path d="M231.81 148.85V166.788C231.81 167.429 231.293 167.946 230.653 167.946C230.394 167.946 230.159 167.864 229.966 167.722C229.678 167.511 229.495 167.17 229.495 166.788V148.85H231.81Z" fill="#BBF2E2"/>
<path d="M231.81 149.626V166.735C231.81 167.294 231.364 167.858 230.812 167.934C230.541 167.969 230.283 167.911 230.071 167.787C230.036 167.717 229.989 167.634 229.954 167.57V150.102C229.954 149.837 230.165 149.626 230.43 149.626H231.81Z" fill="#BBF2E2"/>
<path d="M233.279 148.245C233.279 148.333 233.267 148.41 233.244 148.492C233.203 148.668 233.109 148.827 232.985 148.95C232.809 149.132 232.557 149.244 232.28 149.244H228.831C228.285 149.244 227.833 148.797 227.833 148.245C227.833 147.969 227.944 147.716 228.126 147.54C228.309 147.358 228.555 147.246 228.831 147.246H232.28C232.833 147.246 233.279 147.693 233.279 148.245Z" fill="#BBF2E2"/>
<path d="M233.244 148.492C233.203 148.668 233.109 148.827 232.985 148.95C232.809 149.132 232.556 149.244 232.28 149.244H228.984C229.025 149.068 229.119 148.909 229.243 148.786C229.425 148.609 229.672 148.498 229.948 148.498H233.244V148.492Z" fill="#BBF2E2"/>
<path d="M245.559 116.952C245.559 116.964 245.553 116.97 245.553 116.982C245.541 117.087 245.518 117.193 245.494 117.322C245.212 118.492 244.225 120.783 244.084 124.22C243.99 126.329 244.078 131.929 243.979 135.319C243.979 135.319 243.979 135.319 243.979 135.325C243.961 135.83 243.943 136.283 243.926 136.67C243.744 139.667 242.721 144.109 239.595 146.353C236.417 148.739 230.024 148.327 226.146 148.239C222.269 148.145 212.65 146.4 211.881 144.967C211.698 144.649 211.663 144.367 211.698 144.144C211.698 144.138 211.699 144.138 211.704 144.132C211.746 143.909 211.851 143.733 212.004 143.58C212.368 143.216 212.921 143.104 213.42 143.227C214.989 143.615 219.648 144.52 221.746 141.858C224.284 138.639 223.967 134.914 225.054 127.076C226.082 119.655 228.397 117.381 232.228 115.9C236.323 114.326 242.903 115.001 244.543 115.495C245.183 115.689 245.618 116.288 245.559 116.952Z" fill="#BBF2E2"/>
<path d="M244.079 168.997C244.079 169.232 243.885 169.42 243.656 169.42H217.65C217.415 169.42 217.227 169.232 217.227 168.997C217.227 168.792 217.374 168.616 217.586 168.58L230.659 166.459L233.949 166.994L243.726 168.58C243.926 168.616 244.079 168.792 244.079 168.997Z" fill="#BBF2E2"/>
<path d="M204.748 165.161C204.748 165.161 205.529 165.472 206.24 165.472C207.092 165.472 207.709 165.161 207.709 165.161C207.709 165.161 209.225 167.088 208.42 169.238C208.379 169.35 208.267 169.427 208.144 169.427H197.985C197.862 169.427 197.756 169.332 197.756 169.209C197.75 168.956 197.856 168.563 198.473 168.369C199.413 168.081 200.376 167.922 201.105 167.664C201.833 167.405 202.873 166.342 203.455 166.142C204.195 165.895 204.748 165.161 204.748 165.161Z" fill="black"/>
<path d="M219.871 164.138C219.871 164.138 220.694 164.321 221.393 164.209C222.233 164.074 222.797 163.668 222.797 163.668C222.797 163.668 224.601 165.331 224.143 167.582C224.119 167.699 224.019 167.787 223.902 167.811C223.902 167.811 218.543 169.009 216.728 169.274C215.617 169.432 213.872 169.432 213.872 169.432C213.743 169.438 213.632 169.368 213.608 169.244C213.567 168.998 213.602 168.586 214.178 168.304C215.059 167.869 215.988 167.564 216.663 167.194C217.339 166.824 218.197 165.607 218.743 165.319C219.442 164.949 219.871 164.138 219.871 164.138Z" fill="black"/>
<path d="M199.483 125.954C199.483 125.954 198.443 125.525 197.897 125.331C197.68 125.254 197.474 125.201 197.309 125.16C197.074 125.107 196.833 125.084 196.593 125.084H190.676C190.505 125.084 190.37 124.943 190.37 124.773C190.37 124.538 190.488 124.326 190.676 124.203L191.31 123.791L193.208 122.563C194.148 121.958 194.83 121.923 195.946 122.017C196.158 122.035 196.957 122.375 197.11 122.422C198.22 122.787 198.461 122.957 199.195 123.216C199.483 123.321 199.683 123.374 199.818 123.404C200.024 123.445 200.071 123.427 200.071 123.427C200.276 124.943 199.483 125.954 199.483 125.954Z" fill="#F7B59C"/>
<path d="M222.656 111.817C221.881 111.341 219.536 110.043 216.511 114.755C213.485 119.473 212.562 121.482 211.687 122.945C210.629 123.58 199.971 123.309 199.971 123.309C199.971 123.309 199.313 124.725 199.201 125.953C199.201 125.953 204.859 128.768 212.374 129.297C218.191 129.297 224.184 117.928 224.454 116.506C224.725 115.084 224.507 112.945 222.656 111.817Z" fill="#FF373B"/>
<path d="M217.75 101.817C217.692 101.817 217.639 101.787 217.609 101.729C217.568 101.652 217.598 101.558 217.68 101.517L223.573 98.4971C224.237 98.1563 225.606 97.4572 226.616 98.9437C226.663 99.0142 226.646 99.1141 226.575 99.1611C226.505 99.2081 226.405 99.1904 226.358 99.1199C225.571 97.9624 224.625 98.315 223.732 98.7733L217.827 101.799C217.797 101.811 217.774 101.817 217.75 101.817Z" fill="#1A1A47"/>
<path d="M223.555 98.8085L224.331 101.294C224.331 101.294 224.936 101.881 225.518 101.206C226.099 100.536 226.61 98.2033 225.541 97.8155C224.478 97.4219 223.825 97.9742 223.555 98.8085Z" fill="#F7B59C"/>
<path d="M245.324 116.071C245.318 116.059 245.318 116.053 245.318 116.053C245.136 115.789 244.866 115.589 244.543 115.495C242.898 115.001 236.323 114.326 232.228 115.9C228.397 117.381 226.082 119.655 225.054 127.076C223.967 134.919 224.284 138.639 221.746 141.858C219.648 144.52 214.983 143.615 213.42 143.227C212.921 143.098 212.362 143.216 212.004 143.58C211.857 143.727 211.74 143.909 211.704 144.138C211.663 144.361 211.704 144.643 211.887 144.961C212.656 146.389 222.269 148.139 226.152 148.233C230.03 148.322 236.423 148.733 239.601 146.347C242.727 144.097 243.75 139.661 243.932 136.665C243.955 136.277 243.973 135.824 243.985 135.319C243.92 135.595 241.769 141.647 234.208 140.249C226.922 138.903 226.258 130.912 226.522 128.227C226.558 127.934 226.593 127.651 226.622 127.387C226.687 126.888 227.087 124.784 227.586 122.939C227.915 121.717 228.779 119.849 230.453 118.486C230.665 118.315 230.911 118.198 231.147 118.069C231.217 118.027 231.299 117.98 231.382 117.939C231.493 117.88 231.605 117.822 231.74 117.763C231.869 117.71 231.993 117.651 232.122 117.598C232.216 117.557 232.316 117.522 232.41 117.487C238.332 115.143 244.695 116.67 245.113 116.735C245.495 116.805 245.354 116.182 245.324 116.071Z" fill="#B1EFDF"/>
<path d="M84.0176 173.622L84.6639 171.894C84.6639 171.894 94.9637 172.382 99.8521 175.419L90.557 175.596L84.0176 173.622Z" fill="#FCE4D2"/>
<path d="M115.693 173.622L115.046 171.894C115.046 171.894 104.746 172.382 99.858 175.419L109.153 175.596L115.693 173.622Z" fill="#FCE4D2"/>
<path d="M99.8521 175.419C94.2704 173.251 83.4829 173.099 83.4829 173.099V176.777H97.4549H102.249H116.221V173.099C116.221 173.105 105.434 173.257 99.8521 175.419Z" fill="#FFD5B0"/>
<path d="M117.484 175.754H82.2196V177H117.484V175.754Z" fill="#FF373B"/>
<path d="M189.131 42.4682L192.239 40.4294C192.885 40.8407 193.649 41.0874 194.471 41.0874H209.436C211.734 41.0874 213.596 39.2249 213.596 36.9276V32.2213C213.596 29.9239 211.734 28.0614 209.436 28.0614H194.471C192.174 28.0614 190.312 29.9239 190.312 32.2213V36.9276C190.312 37.7913 190.576 38.5962 191.028 39.2601L189.131 42.4682Z" fill="url(#paint5_linear)"/>
<path d="M235.306 90.5652L233.314 91.6287L234.313 89.0376" fill="url(#paint6_linear)"/>
<path d="M241.487 87.2514C241.487 89.5781 239.601 91.4583 237.274 91.4583C234.948 91.4583 233.068 89.5723 233.068 87.2514C233.068 84.9247 234.954 83.0446 237.274 83.0446C239.601 83.0446 241.487 84.9306 241.487 87.2514Z" fill="url(#paint7_linear)"/>
<path d="M235.506 86.8519L236.781 88.4442L239.049 86.0646" stroke="white" stroke-width="0.566811" stroke-miterlimit="10" stroke-linecap="round" stroke-linejoin="round"/>
<path d="M49.4105 109.901L52.2602 111.417L50.8383 107.716" fill="#00D6A8"/>
<path d="M40.5737 105.166C40.5737 108.491 43.2706 111.188 46.5961 111.188C49.9217 111.188 52.6185 108.491 52.6185 105.166C52.6185 101.84 49.9217 99.1434 46.5961 99.1434C43.2706 99.1434 40.5737 101.84 40.5737 105.166Z" fill="#00D6A8"/>
<path d="M44.0581 104.59L45.8854 106.864L49.1287 103.462" stroke="white" stroke-width="0.81088" stroke-miterlimit="10" stroke-linecap="round" stroke-linejoin="round"/>
<path d="M103.283 151.283C103.454 152.611 102.519 153.827 101.186 154.003C99.8579 154.174 98.6416 153.239 98.4654 151.906C98.295 150.578 99.2292 149.361 100.563 149.185C101.891 149.015 103.113 149.955 103.283 151.283Z" fill="url(#paint8_linear)"/>
<path d="M99.8285 151.841L100.898 152.64L101.944 150.766" stroke="white" stroke-width="0.62069" stroke-miterlimit="10" stroke-linecap="round" stroke-linejoin="round"/>
<path d="M109.817 23.5843C110.234 24.8593 109.541 26.2283 108.266 26.6454C106.991 27.0626 105.622 26.3693 105.205 25.0943C104.788 23.8193 105.481 22.4503 106.756 22.0332C108.031 21.616 109.4 22.3093 109.817 23.5843Z" fill="#FF373B"/>
<path d="M106.533 24.7829L107.725 25.3646L108.407 23.3317" stroke="white" stroke-width="0.62069" stroke-miterlimit="10" stroke-linecap="round" stroke-linejoin="round"/>
<path d="M224.86 71.0996C224.86 71.5932 224.46 71.9927 223.966 71.9927C223.473 71.9927 223.073 71.5932 223.073 71.0996C223.073 70.6061 223.473 70.2065 223.966 70.2065C224.46 70.2124 224.86 70.612 224.86 71.0996Z" fill="#00D6A8"/>
<path d="M237.697 30.864C237.697 31.3576 237.298 31.7571 236.804 31.7571C236.311 31.7571 235.911 31.3576 235.911 30.864C235.911 30.3705 236.311 29.9709 236.804 29.9709C237.298 29.9768 237.697 30.3764 237.697 30.864Z" fill="url(#paint9_linear)"/>
<path d="M270.048 110.225C270.048 111.435 269.067 112.416 267.856 112.416C266.646 112.416 265.665 111.435 265.665 110.225C265.665 109.014 266.646 108.033 267.856 108.033C269.067 108.033 270.048 109.014 270.048 110.225Z" fill="#00D6A8"/>
<path d="M176.216 3.6134C176.216 4.40072 175.576 5.03528 174.794 5.03528C174.007 5.03528 173.372 4.39485 173.372 3.6134C173.372 2.82608 174.013 2.19153 174.794 2.19153C175.581 2.19153 176.216 2.82608 176.216 3.6134Z" fill="url(#paint10_linear)"/>
<path d="M23.0474 57.157C22.8888 57.157 22.7654 57.0277 22.7654 56.8749V54.8655C22.7654 54.7069 22.8946 54.5835 23.0474 54.5835C23.206 54.5835 23.3294 54.7128 23.3294 54.8655V56.8749C23.3294 57.0277 23.206 57.157 23.0474 57.157Z" fill="#FF373B"/>
<path d="M24.0521 56.1523H22.0426C21.884 56.1523 21.7606 56.023 21.7606 55.8703C21.7606 55.7116 21.8899 55.5883 22.0426 55.5883H24.0521C24.2107 55.5883 24.3341 55.7175 24.3341 55.8703C24.3341 56.023 24.2107 56.1523 24.0521 56.1523Z" fill="#FF373B"/>
<g opacity="0.3">
<g opacity="0.3">
<g opacity="0.3">
<path opacity="0.3" d="M42.3306 2.57935C42.172 2.57935 42.0486 2.45009 42.0486 2.29733V0.282025C42.0486 0.123386 42.1778 0 42.3306 0C42.4892 0 42.6126 0.129261 42.6126 0.282025V2.29145C42.6126 2.45009 42.4834 2.57935 42.3306 2.57935Z" fill="#9999F1"/>
</g>
<g opacity="0.3">
<path opacity="0.3" d="M43.3355 1.57455H41.3261C41.1675 1.57455 41.0441 1.44529 41.0441 1.29252C41.0441 1.13388 41.1733 1.0105 41.3261 1.0105H43.3355C43.4942 1.0105 43.6175 1.13976 43.6175 1.29252C43.6175 1.44529 43.4883 1.57455 43.3355 1.57455Z" fill="#9999F1"/>
</g>
</g>
</g>
<path d="M216.452 11.9214C216.293 11.9214 216.17 11.7921 216.17 11.6394V9.62992C216.17 9.47129 216.299 9.3479 216.452 9.3479C216.61 9.3479 216.734 9.47716 216.734 9.62992V11.6394C216.734 11.7921 216.604 11.9214 216.452 11.9214Z" fill="#00D6A8"/>
<path d="M217.456 10.9167H215.447C215.288 10.9167 215.165 10.7874 215.165 10.6347C215.165 10.476 215.294 10.3527 215.447 10.3527H217.456C217.615 10.3527 217.738 10.4819 217.738 10.6347C217.738 10.7874 217.609 10.9167 217.456 10.9167Z" fill="#00D6A8"/>
<path d="M126.556 12.5089C126.398 12.5089 126.274 12.3796 126.274 12.2269V10.2174C126.274 10.0588 126.404 9.93542 126.556 9.93542C126.715 9.93542 126.838 10.0647 126.838 10.2174V12.2269C126.838 12.3796 126.715 12.5089 126.556 12.5089Z" fill="#00D6A8"/>
<path d="M127.561 11.5042H125.552C125.393 11.5042 125.27 11.375 125.27 11.2222C125.27 11.0636 125.399 10.9402 125.552 10.9402H127.561C127.72 10.9402 127.843 11.0694 127.843 11.2222C127.843 11.375 127.714 11.5042 127.561 11.5042Z" fill="#00D6A8"/>
<path d="M262.528 143.192C262.369 143.192 262.245 143.063 262.245 142.91V140.901C262.245 140.742 262.375 140.619 262.528 140.619C262.686 140.619 262.81 140.748 262.81 140.901V142.91C262.81 143.063 262.68 143.192 262.528 143.192Z" fill="url(#paint11_linear)"/>
<path d="M263.532 142.187H261.523C261.364 142.187 261.241 142.058 261.241 141.905C261.241 141.747 261.37 141.623 261.523 141.623H263.532C263.691 141.623 263.814 141.753 263.814 141.905C263.814 142.064 263.685 142.187 263.532 142.187Z" fill="url(#paint12_linear)"/>
<path d="M204.343 52.3039V67.6214C204.343 67.8799 204.131 68.0914 203.873 68.0914H188.726C188.473 68.0914 188.261 67.8799 188.261 67.6214V52.3039C188.261 52.0512 188.473 51.8397 188.726 51.8397H203.873C204.131 51.8397 204.343 52.0512 204.343 52.3039Z" fill="white"/>
<path d="M204.342 64.748V67.6212C204.342 67.8797 204.131 68.0912 203.872 68.0912H196.357L196.675 64.7539L200.212 60.8408L204.342 64.748Z" fill="#00D6A8"/>
<path d="M202.233 68.0855H188.719C188.466 68.0855 188.255 67.874 188.255 67.6154V64.7423L193.543 59.1899L202.233 68.0855Z" fill="#FF373B"/>
<path d="M202.215 56.2346C202.215 57.2628 201.381 58.0971 200.353 58.0971C199.325 58.0971 198.49 57.2628 198.49 56.2346C198.49 55.2064 199.325 54.3721 200.353 54.3721C201.381 54.3721 202.215 55.2064 202.215 56.2346Z" fill="#FFA55C"/>
<path d="M203.878 70.7118H188.725C188.467 70.7118 188.261 70.5061 188.261 70.2476V69.7599C188.261 69.5014 188.467 69.2958 188.725 69.2958H203.878C204.137 69.2958 204.342 69.5014 204.342 69.7599V70.2476C204.342 70.5061 204.131 70.7118 203.878 70.7118Z" fill="#00D6A8"/>
<path d="M203.878 73.2441H188.725C188.467 73.2441 188.261 73.0385 188.261 72.78V72.2923C188.261 72.0338 188.467 71.8281 188.725 71.8281H203.878C204.137 71.8281 204.342 72.0338 204.342 72.2923V72.78C204.342 73.0385 204.131 73.2441 203.878 73.2441Z" fill="url(#paint13_linear)"/>
<path d="M194.459 38.4082C194.459 38.2026 194.63 38.0381 194.83 38.0381H209.219C209.424 38.0381 209.595 38.2085 209.595 38.4082C209.595 38.6139 209.424 38.7784 209.219 38.7784H194.83C194.624 38.7784 194.459 38.6139 194.459 38.4082Z" fill="white"/>
<path d="M209.219 36.8336H201.616C201.41 36.8336 201.24 36.6632 201.24 36.4576C201.24 36.2519 201.41 36.0874 201.616 36.0874H209.219C209.424 36.0874 209.595 36.2578 209.595 36.4576C209.595 36.6691 209.424 36.8336 209.219 36.8336Z" fill="white"/>
<path d="M194.459 34.5186C194.459 34.313 194.63 34.1484 194.83 34.1484H209.219C209.424 34.1484 209.595 34.3188 209.595 34.5186C209.595 34.7242 209.424 34.8946 209.219 34.8946H194.83C194.624 34.8888 194.459 34.7242 194.459 34.5186Z" fill="white"/>
<path d="M209.219 32.9439H198.602C198.396 32.9439 198.232 32.7736 198.232 32.5679C198.232 32.3623 198.402 32.1978 198.602 32.1978H209.219C209.424 32.1978 209.595 32.3681 209.595 32.5679C209.595 32.7794 209.424 32.9439 209.219 32.9439Z" fill="white"/>
<path d="M194.459 30.6289C194.459 30.4233 194.63 30.2588 194.83 30.2588H209.219C209.424 30.2588 209.595 30.4292 209.595 30.6289C209.595 30.8346 209.424 31.005 209.219 31.005H194.83C194.624 30.9991 194.459 30.8287 194.459 30.6289Z" fill="white"/>
<path d="M43.7876 76.2759V85.2067C43.7876 85.3419 43.7465 85.4711 43.6701 85.5651C43.5585 85.7296 43.3646 85.8354 43.1589 85.8354H30.0448C29.8744 85.8354 29.7216 85.7649 29.61 85.665V77.3747C29.61 77.0691 29.8568 76.8282 30.1623 76.8282H39.381C39.6865 76.8282 39.9274 76.5815 39.9274 76.2759C39.9274 75.9704 40.1742 75.7236 40.4738 75.7236H43.2412C43.5408 75.7236 43.7876 75.9704 43.7876 76.2759Z" fill="url(#paint14_linear)"/>
<path d="M43.6702 85.5652C43.5585 85.7297 43.3646 85.8355 43.159 85.8355H30.0448C29.8744 85.8355 29.7217 85.765 29.61 85.6651C29.5572 85.6122 29.5102 85.5476 29.4808 85.4771C29.469 85.4653 29.469 85.4477 29.4632 85.436L26.543 78.7731C26.3903 78.4265 26.6429 78.0387 27.0248 78.0387H40.0273C40.2389 78.0387 40.4269 78.1621 40.5091 78.3501L43.2412 84.5899L43.6702 85.5652Z" fill="url(#paint15_linear)"/>
<path d="M260.024 58.7316C260.024 59.8009 259.795 60.8115 259.372 61.7222C259.172 62.1629 258.926 62.5859 258.638 62.9796C258.444 63.244 258.226 63.5025 257.991 63.7375C257.991 63.7375 257.986 63.7434 257.98 63.7434C257.786 63.949 257.574 64.1371 257.363 64.3133C257.04 64.5777 256.699 64.8127 256.334 65.0125C256.047 65.1712 255.753 65.3122 255.447 65.4297C254.76 65.6999 254.025 65.8703 253.256 65.9115C253.109 65.9232 252.962 65.9291 252.815 65.9291C251.094 65.9291 249.519 65.3239 248.279 64.3251C246.652 63.0031 245.618 60.9878 245.618 58.7316C245.618 57.6975 245.835 56.728 246.223 55.8408C247.122 53.7903 248.943 52.2391 251.164 51.7221C251.182 51.7162 251.211 51.7103 251.229 51.7045C251.458 51.6516 251.687 51.6105 251.928 51.5811C252.222 51.5458 252.515 51.5282 252.821 51.5282C255.559 51.5282 257.939 53.0617 259.161 55.312C259.243 55.4648 259.319 55.6176 259.39 55.7821C259.795 56.6752 260.024 57.674 260.024 58.7316Z" fill="#00D6A8"/>
<g opacity="0.5">
<path opacity="0.5" d="M254.637 65.1072C254.689 65.4656 254.249 65.683 253.896 65.7653C253.685 65.8182 253.479 65.8711 253.267 65.9122C253.121 65.9239 252.974 65.9298 252.827 65.9298C251.105 65.9298 249.531 65.3305 248.291 64.3258C248.279 64.267 248.273 64.2024 248.273 64.1378C248.267 63.8616 248.361 63.5972 248.426 63.327C248.479 63.1037 248.514 62.8687 248.52 62.6395C248.526 62.5573 248.52 62.4633 248.467 62.3986C248.42 62.3457 248.344 62.3222 248.273 62.2929C247.891 62.1225 247.574 61.6113 247.733 61.2235C248.085 60.3598 249.313 60.6418 248.502 58.4973C248.326 58.039 248.696 57.9215 248.667 57.7922C248.596 57.5043 247.533 57.5866 247.245 57.5396C247.051 57.5102 246.846 57.4926 246.705 57.3574C246.616 57.2811 246.564 57.1694 246.517 57.0578C246.358 56.67 246.264 56.2646 246.229 55.8474C247.133 53.7792 248.984 52.2164 251.235 51.7111L251.258 51.9461C251.182 52.7628 251.135 53.5795 251.105 54.402C251.099 54.5489 251.094 54.6958 251.041 54.831C250.917 55.1247 250.565 55.2775 250.253 55.2364C250.136 55.2187 250.012 55.1894 249.907 55.2481C249.742 55.3421 249.783 55.5889 249.754 55.7769C249.707 56.1059 249.419 56.3292 249.219 56.5936C249.02 56.858 248.943 57.3046 249.231 57.4632C249.307 57.5043 249.396 57.5219 249.443 57.5924C249.501 57.6923 249.425 57.8157 249.325 57.8804C249.231 57.9391 249.114 57.9744 249.043 58.0625C248.902 58.2329 249.002 58.5032 249.166 58.65C249.325 58.8028 249.542 58.8968 249.678 59.0672C249.854 59.2846 249.895 59.5901 250.089 59.7899C250.559 60.2776 251.528 59.7664 252.01 60.2482C252.257 60.495 252.257 60.9062 252.474 61.1765C252.609 61.3528 252.821 61.4468 253.003 61.5761C253.414 61.8698 253.685 62.3575 253.714 62.8628C253.743 63.4033 253.544 64.0379 253.914 64.4316C254.155 64.6666 254.584 64.7665 254.637 65.1072Z" fill="#81A8CC"/>
</g>
<g opacity="0.5">
<path opacity="0.5" d="M259.161 55.3121C259.037 55.3179 258.914 55.3238 258.802 55.3414C258.755 55.3473 258.708 55.3649 258.679 55.4002C258.632 55.4531 258.638 55.5353 258.644 55.6117C258.655 55.8467 258.556 56.0876 258.373 56.2404C258.338 56.2698 258.297 56.2992 258.25 56.305C258.115 56.3285 258.027 56.1699 257.974 56.0406C257.839 55.694 257.709 55.3532 257.58 55.0065C257.539 54.9008 257.492 54.7891 257.404 54.7186C257.245 54.5952 256.999 54.6481 256.834 54.5424C256.628 54.4131 256.523 54.0606 256.288 54.1193C256.094 54.1663 256.094 54.4366 256.152 54.6246C256.217 54.8126 256.288 55.0535 256.135 55.1769C255.976 55.3121 255.729 55.1769 255.606 55.0065C255.483 54.8361 255.389 54.6188 255.189 54.5482C254.907 54.4425 254.619 54.6951 254.466 54.9537C254.313 55.2063 254.172 55.5177 253.89 55.6176C253.755 55.6646 253.597 55.6587 253.467 55.7292C253.203 55.8761 253.215 56.2639 253.303 56.5518C253.391 56.8397 253.526 57.1629 253.391 57.4331C253.367 57.486 253.326 57.5389 253.273 57.5565C253.156 57.6035 253.038 57.4919 252.956 57.392C252.521 56.8397 252.145 56.2404 251.828 55.6117C251.769 55.4883 251.705 55.3591 251.722 55.2181C251.734 55.1299 251.775 55.0535 251.805 54.9654C251.899 54.6775 251.816 54.3661 251.852 54.0665C251.916 53.5553 252.333 53.0794 252.169 52.5917C252.11 52.4096 251.975 52.2627 251.893 52.0982C251.81 51.9336 251.787 51.7045 251.922 51.5752C252.216 51.54 252.51 51.5165 252.815 51.5165C255.559 51.5224 257.944 53.0559 259.161 55.3121Z" fill="#81A8CC"/>
</g>
<g opacity="0.5">
<path opacity="0.5" d="M260.024 58.7258C260.024 59.7892 259.795 60.8057 259.378 61.7164C259.172 62.1629 258.926 62.586 258.644 62.9738C258.626 62.9267 258.626 62.8797 258.626 62.8327C258.632 62.6565 258.644 62.4743 258.72 62.3216C258.773 62.2276 258.843 62.1394 258.902 62.0454C259.037 61.8045 259.008 61.5049 258.984 61.2287C258.967 61.0818 258.949 60.9173 258.843 60.8116C258.779 60.7469 258.685 60.7058 258.62 60.6412C258.467 60.4767 258.514 60.2181 258.55 59.9949C258.585 59.7716 258.561 59.4896 258.356 59.4073C258.103 59.7598 257.821 60.083 257.51 60.3826C257.551 60.1418 257.263 59.9302 257.028 60.0007C256.793 60.0712 256.658 60.3356 256.687 60.5824C256.475 60.5883 256.434 60.2886 256.464 60.083C256.511 59.7305 256.564 59.3779 256.611 59.0313C256.381 58.9314 256.217 59.2957 255.97 59.3486C255.765 59.3956 255.577 59.1899 255.553 58.9784C255.53 58.7669 255.629 58.5671 255.718 58.3791C255.823 58.1558 255.935 57.9384 256.041 57.721C256.182 57.4331 256.34 57.1276 256.622 56.9866C256.969 56.8162 257.374 56.9337 257.75 57.0277C258.127 57.1159 258.573 57.1629 258.843 56.8867C259.002 56.7281 259.061 56.4931 259.108 56.2698C259.149 56.0759 259.202 55.8585 259.384 55.7762H259.402C259.795 56.6752 260.024 57.674 260.024 58.7258Z" fill="#81A8CC"/>
</g>
<path opacity="0.3" d="M258.315 63.3909C258.215 63.5142 258.109 63.6259 257.997 63.7375C257.997 63.7375 257.991 63.7434 257.986 63.7434C257.792 63.949 257.58 64.1371 257.369 64.3133C257.046 64.5777 256.705 64.8127 256.34 65.0125C256.053 65.1711 255.759 65.3122 255.453 65.4297C254.766 65.6999 254.031 65.8703 253.262 65.9115C253.115 65.9232 252.968 65.9291 252.821 65.9291C251.1 65.9291 249.525 65.3239 248.285 64.3251C246.658 63.0031 245.624 60.9878 245.624 58.7316C245.624 57.6975 245.841 56.728 246.229 55.8408C247.128 53.7903 248.949 52.2391 251.17 51.7221C251.188 51.7162 251.217 51.7103 251.235 51.7045C251.464 51.6516 251.693 51.6104 251.934 51.5811C251.946 51.5811 251.957 51.5752 251.969 51.5752C251.258 52.2274 250.682 53.0206 250.295 53.9137C249.924 54.7656 249.713 55.6998 249.713 56.6869C249.713 58.855 250.718 60.7939 252.275 62.0571C253.461 63.0266 254.977 63.6024 256.628 63.6024C256.769 63.6024 256.91 63.5965 257.051 63.5848C257.48 63.5613 257.903 63.4966 258.315 63.3909Z" fill="#9AEDBE"/>
<path d="M261.659 58.6964C261.659 56.0406 260.483 53.5435 258.427 51.8514C256.846 50.547 254.843 49.8302 252.792 49.8302C252.534 49.8302 252.328 50.0358 252.328 50.2944C252.328 50.5529 252.534 50.7585 252.792 50.7585C254.631 50.7585 256.423 51.399 257.834 52.5682C259.673 54.0841 260.724 56.3168 260.724 58.6964C260.724 63.0736 257.164 66.6342 252.786 66.6342C250.401 66.6342 248.162 65.5766 246.647 63.7258C246.482 63.526 246.188 63.4967 245.994 63.6612C245.9 63.7376 245.836 63.8492 245.824 63.9726C245.812 64.096 245.847 64.2193 245.924 64.3134C247.499 66.2346 249.778 67.398 252.234 67.5449V69.0901H249.555C249.232 69.0901 248.967 69.3545 248.967 69.6777C248.967 70.0009 249.232 70.2652 249.555 70.2652H256.059C256.382 70.2652 256.647 70.0009 256.647 69.6777C256.647 69.3545 256.382 69.0901 256.059 69.0901H253.38V67.5273C258.004 67.2159 261.659 63.3791 261.659 58.6964Z" fill="url(#paint16_linear)"/>
<defs>
<linearGradient id="paint0_linear" x1="8.22981" y1="115.926" x2="28.1374" y2="172.586" gradientUnits="userSpaceOnUse">
<stop offset="0.00124" stop-color="#FFAC5E"/>
<stop offset="0.0897" stop-color="#FFA85D"/>
<stop offset="0.1819" stop-color="#FF9B59"/>
<stop offset="0.2758" stop-color="#FF8653"/>
<stop offset="0.3709" stop-color="#FF694A"/>
<stop offset="0.466" stop-color="#FF443F"/>
<stop offset="0.4954" stop-color="#FF373B"/>
</linearGradient>
<linearGradient id="paint1_linear" x1="6.58819" y1="137.788" x2="19.9904" y2="137.788" gradientUnits="userSpaceOnUse">
<stop offset="0.00124" stop-color="#FFAC5E"/>
<stop offset="0.0897" stop-color="#FFA85D"/>
<stop offset="0.1819" stop-color="#FF9B59"/>
<stop offset="0.2758" stop-color="#FF8653"/>
<stop offset="0.3709" stop-color="#FF694A"/>
<stop offset="0.466" stop-color="#FF443F"/>
<stop offset="0.4954" stop-color="#FF373B"/>
</linearGradient>
<linearGradient id="paint2_linear" x1="25.5914" y1="132.788" x2="14.0106" y2="159.204" gradientUnits="userSpaceOnUse">
<stop offset="0.00124" stop-color="#FFAC5E"/>
<stop offset="0.1629" stop-color="#FFA95D"/>
<stop offset="0.2965" stop-color="#FF9E5A"/>
<stop offset="0.4201" stop-color="#FF8D55"/>
<stop offset="0.5377" stop-color="#FF754E"/>
<stop offset="0.65" stop-color="#FF5644"/>
<stop offset="0.7408" stop-color="#FF373B"/>
</linearGradient>
<linearGradient id="paint3_linear" x1="24.1203" y1="135.39" x2="14.4855" y2="165.252" gradientUnits="userSpaceOnUse">
<stop offset="0.00124" stop-color="#FFAC5E"/>
<stop offset="0.3341" stop-color="#FF5E47"/>
<stop offset="0.4954" stop-color="#FF373B"/>
</linearGradient>
<linearGradient id="paint4_linear" x1="30.6679" y1="11.3341" x2="95.8305" y2="11.3341" gradientUnits="userSpaceOnUse">
<stop offset="0.00124" stop-color="#FFAC5E"/>
<stop offset="1" stop-color="#FF373B"/>
</linearGradient>
<linearGradient id="paint5_linear" x1="189.128" y1="35.2643" x2="213.592" y2="35.2643" gradientUnits="userSpaceOnUse">
<stop offset="0.00124" stop-color="#FFAC5E"/>
<stop offset="1" stop-color="#FF373B"/>
</linearGradient>
<linearGradient id="paint6_linear" x1="233.315" y1="90.3322" x2="235.307" y2="90.3322" gradientUnits="userSpaceOnUse">
<stop offset="0.00124" stop-color="#FFAC5E"/>
<stop offset="1" stop-color="#FF373B"/>
</linearGradient>
<linearGradient id="paint7_linear" x1="233.068" y1="87.2538" x2="241.487" y2="87.2538" gradientUnits="userSpaceOnUse">
<stop offset="0.00124" stop-color="#FFAC5E"/>
<stop offset="1" stop-color="#FF373B"/>
</linearGradient>
<linearGradient id="paint8_linear" x1="98.4484" y1="151.594" x2="103.303" y2="151.594" gradientUnits="userSpaceOnUse">
<stop offset="0.00124" stop-color="#FFAC5E"/>
<stop offset="1" stop-color="#FF373B"/>
</linearGradient>
<linearGradient id="paint9_linear" x1="235.915" y1="30.8667" x2="237.7" y2="30.8667" gradientUnits="userSpaceOnUse">
<stop offset="0.00124" stop-color="#FFAC5E"/>
<stop offset="1" stop-color="#FF373B"/>
</linearGradient>
<linearGradient id="paint10_linear" x1="173.369" y1="3.61329" x2="176.218" y2="3.61329" gradientUnits="userSpaceOnUse">
<stop offset="0.00124" stop-color="#FFAC5E"/>
<stop offset="1" stop-color="#FF373B"/>
</linearGradient>
<linearGradient id="paint11_linear" x1="262.241" y1="141.904" x2="262.81" y2="141.904" gradientUnits="userSpaceOnUse">
<stop offset="0.00124" stop-color="#FFAC5E"/>
<stop offset="1" stop-color="#FF373B"/>
</linearGradient>
<linearGradient id="paint12_linear" x1="261.237" y1="141.904" x2="263.814" y2="141.904" gradientUnits="userSpaceOnUse">
<stop offset="0.00124" stop-color="#FFAC5E"/>
<stop offset="1" stop-color="#FF373B"/>
</linearGradient>
<linearGradient id="paint13_linear" x1="188.259" y1="72.5347" x2="204.34" y2="72.5347" gradientUnits="userSpaceOnUse">
<stop offset="0.00124" stop-color="#FFAC5E"/>
<stop offset="1" stop-color="#FF373B"/>
</linearGradient>
<linearGradient id="paint14_linear" x1="37.0442" y1="74.7784" x2="35.8" y2="98.2273" gradientUnits="userSpaceOnUse">
<stop offset="0.0662" stop-color="#FFAC5E"/>
<stop offset="0.0969" stop-color="#FF9858"/>
<stop offset="0.1608" stop-color="#FF754E"/>
<stop offset="0.2257" stop-color="#FF5A45"/>
<stop offset="0.291" stop-color="#FF4740"/>
<stop offset="0.3571" stop-color="#FF3B3C"/>
<stop offset="0.4253" stop-color="#FF373B"/>
</linearGradient>
<linearGradient id="paint15_linear" x1="35.0827" y1="76.3058" x2="35.0827" y2="102.913" gradientUnits="userSpaceOnUse">
<stop offset="0.00124" stop-color="#FFAC5E"/>
<stop offset="0.0897" stop-color="#FFA85D"/>
<stop offset="0.1819" stop-color="#FF9B59"/>
<stop offset="0.2758" stop-color="#FF8653"/>
<stop offset="0.3709" stop-color="#FF694A"/>
<stop offset="0.466" stop-color="#FF443F"/>
<stop offset="0.4954" stop-color="#FF373B"/>
</linearGradient>
<linearGradient id="paint16_linear" x1="245.832" y1="60.0484" x2="261.657" y2="60.0484" gradientUnits="userSpaceOnUse">
<stop offset="0.00124" stop-color="#FFAC5E"/>
<stop offset="1" stop-color="#FF373B"/>
</linearGradient>
</defs>
</svg>
