<svg width="242" height="172" viewBox="0 0 242 172" fill="none" xmlns="http://www.w3.org/2000/svg">
<path d="M192.432 75.8152C192.432 75.8152 186.693 75.0275 185.61 76.0713C185.61 76.0713 184.478 80.8781 183.961 81.4292C183.961 81.4292 184.247 81.9218 183.123 81.4292C182 80.9365 178.032 81.6324 178.032 81.6324L176.949 87.5414L172.839 93.3363C172.839 93.3363 176.091 94.8532 178.502 94.4997C178.502 94.4997 179.331 94.3188 179.04 95.2763C178.751 96.2338 177.307 101.798 177.307 101.798C177.307 101.798 179.831 106.666 180.192 106.666C180.553 106.666 181.997 107.362 182.716 107.709C183.438 108.057 185.24 108.057 185.962 108.057C186.684 108.057 189.57 108.057 189.57 107.362C189.57 106.666 191.014 104.929 190.653 104.233C190.292 103.537 188.848 99.365 188.848 99.365L188.544 98.5996L189.177 95.794C189.177 95.794 189.064 95.1009 190.219 95.6687C191.375 96.2338 195.588 97.0966 197.07 94.0488C197.867 92.4095 195.343 89.281 195.343 89.281L196.157 86.5366L198.228 79.8928L197.867 75.3727C197.867 75.3727 194.26 73.2852 193.899 73.2852C193.546 73.2907 191.317 73.8223 192.432 75.8152Z" fill="white"/>
<path d="M11.4419 142.192L6.56685 150.161L6.16541 151.124L6.35891 151.592L8.8051 153.047L9.74372 153.526L10.3213 153.648L11.4477 152.279L15.9329 144.951L16.6 144.141L17.0679 143.651C17.0679 143.651 18.2866 143.898 18.1653 144.021C18.044 144.141 21.1603 145.724 21.1603 145.724L22.0787 146.064L22.7169 145.716L22.896 145.04L23.4332 134.474L16.239 133.714L11.4419 142.192Z" fill="white"/>
<path d="M87.4615 88.6409H12.4236V140.792H87.4615V88.6409Z" fill="white"/>
<path d="M12.3314 92.7352H85.0646L86.1621 86.0078L83.4329 81.5128H19.6209C19.6209 81.5128 13.8419 81.8078 12.4989 87.124L12.3314 92.7352Z" fill="#FF373B"/>
<path d="M54.829 76.9008C54.829 76.9008 55.1092 86.8957 58.4622 92.5264C61.8153 98.1599 64.8737 102.243 71.8022 102.513C78.7307 102.78 83.0917 98.5134 89.1393 98.9086L98.8952 98.8891C98.8952 98.8891 102.973 99.0979 108.229 101.068C113.486 103.039 117.902 102.68 119.918 101.94C121.933 101.199 124.495 100.712 127.372 96.5706C130.248 92.429 131.565 88.4098 132.039 86.4754C132.51 84.541 133.281 79.5505 133.281 77.2849C133.281 77.2849 137.425 79.1163 143.005 78.9075C148.587 78.6988 150.43 78.7378 151.94 77.3878C151.94 77.3878 150.713 88.2094 148.821 93.3837C146.93 98.5579 143.721 107.039 139.1 111.506C134.479 115.97 130.162 120.151 122.401 122.709C114.641 125.264 108.027 124.679 108.027 124.679C108.027 124.679 107.64 132.484 108.359 136.033C109.079 139.581 110.306 143.069 110.306 143.069L116.38 161.275H72.7813C72.7813 161.275 70.7914 147.024 70.5055 138.816C70.2167 130.608 70.3842 123.408 70.3842 123.408C70.3842 123.408 62.777 123.068 55.4875 117.254C48.198 111.439 45.0962 106.454 42.3497 100.851C39.606 95.2485 38.1302 89.3033 37.5468 86.0412C36.9634 82.7792 36.3223 77.7998 36.3223 77.7998C36.3223 77.7998 39.8168 78.9354 44.793 78.8491C49.772 78.7517 54.4016 78.0085 54.829 76.9008Z" fill="#3552FF"/>
<path d="M77.5444 37.6836C77.4115 37.7086 73.1603 38.9611 69.7841 38.4434L69.3827 21.6209L51.7654 21.3593L51.468 21.5987C50.8239 24.8914 52.0485 28.9745 52.2015 29.4672C52.1784 32.7265 49.4203 35.3706 46.0326 35.3706C42.6478 35.3706 39.8868 32.7265 39.8637 29.4672C40.0168 28.9745 41.2384 24.8914 40.5944 21.5987L40.2969 21.3593L22.6219 21.4734L22.6017 66.7861L57.091 66.9726H59.286L69.5964 66.7555L69.787 49.9859C73.166 49.4682 77.4115 50.7152 77.4577 50.7291C81.2844 50.743 84.3227 47.8121 84.3227 44.2105C84.3198 40.6116 81.2786 37.6836 77.5444 37.6836Z" fill="#3552FF"/>
<path d="M172.362 26.194L154.707 25.9017V26.194L154.409 26.1383C153.765 29.431 154.987 33.5142 155.14 34.0068C155.117 37.2661 152.359 39.9075 148.971 39.9075C145.586 39.9075 142.828 37.2633 142.802 34.0068C142.955 33.5142 144.18 29.431 143.536 26.1383L143.238 26.194V25.9017L125.523 26.1021L125.22 43.2308H125.514L125.468 43.4701C128.885 44.0908 133.121 42.9135 133.633 42.766C137.015 42.7882 139.755 45.4463 139.755 48.7112C139.755 51.976 137.012 54.6341 133.633 54.6564C133.121 54.5061 128.888 53.3259 125.468 53.9494L125.22 54.2862L125.433 71.2255L144.102 71.5178H144.604H172.549V54.2945H172.235L172.301 53.9494C168.884 53.3287 164.648 54.5088 164.137 54.6564C160.755 54.6341 158.011 51.976 158.011 48.7112C158.011 45.4491 160.755 42.7882 164.137 42.766C164.648 42.9135 168.884 44.0936 172.301 43.4701L172.212 43.0165H172.547L172.362 26.194Z" fill="#FF373B"/>
<path d="M150.043 78.1199C150.043 78.1199 152.894 72.5755 153.292 68.8431H140.414C140.414 68.8431 144.123 66.0514 141.983 64.0112C139.843 61.9683 134.586 67.2928 134.231 67.7242C133.876 68.1528 132.871 70.1568 133.882 71.9187C134.892 73.6833 138.289 78.4456 138.289 78.4456C138.289 78.4456 148.51 79.417 150.043 78.1199Z" fill="white"/>
<path d="M49.9428 78.4929C49.9428 78.4929 53.9659 72.8733 54.2085 72.3055C54.4539 71.7377 55.6525 69.4582 54.1738 67.8717C52.6951 66.2852 50.6648 64.1058 49.3767 63.7022C48.0886 63.2987 46.8092 63.204 45.9312 64.3424C45.0533 65.4808 45.8302 67.2148 47.6294 68.8431H35.1963C35.1963 68.8431 37.4259 76.4332 38.6331 78.2953C38.6302 78.2953 47.1991 79.4531 49.9428 78.4929Z" fill="white"/>
<path d="M98.5022 98.9086L99.3917 90.4278C99.3917 90.4278 103.132 90.2358 103.132 87.3077C103.132 84.3796 100.01 84.1542 99.1462 84.246C99.1462 84.246 98.2971 80.7196 96.9888 79.5756C95.6805 78.4317 93.6589 78.5541 92.3448 78.2786C91.0336 78.003 88.082 77.0177 86.9586 76.2718C86.9586 76.2718 84.1456 79.4086 83.4929 82.4731C82.8084 85.6962 84.8098 85.7574 84.7203 86.5089C84.368 89.4759 83.9723 93.6509 86.4329 94.3273C88.8936 95.0036 89.3528 95.0565 89.3528 95.0565L88.908 98.7528C88.908 98.7528 86.1615 106.705 89.5405 106.735C92.9224 106.766 95.8856 103.688 96.9917 101.887C98.0979 100.086 98.5022 98.9086 98.5022 98.9086Z" fill="white"/>
<path d="M84.5125 90.7006C84.5125 90.7006 81.7804 91.3992 81.1335 94.6696C80.4865 97.94 82.8057 99.8939 82.8057 99.8939C82.8057 99.8939 86.7681 98.7138 88.963 99.0199L89.3471 95.0593C89.35 95.0593 84.5385 95.2736 84.5125 90.7006Z" fill="#FF373B"/>
<path d="M98.7106 98.9086C98.7106 98.9086 101.307 98.5384 104.377 99.7186C107.444 100.899 110.24 101.675 110.24 101.675C110.24 101.675 114.009 99.6824 113.72 96.2728C113.431 92.8632 110.581 90.7173 108.827 90.4835C107.074 90.2497 105.521 90.425 105.521 90.425C105.521 90.425 104.882 88.4572 106.898 85.7379C108.914 83.0186 109.414 80.1879 108.602 78.1088C107.794 76.0296 104.683 73.2129 100.657 72.8204L100.03 72.4948C100.03 72.4948 96.7496 69.1548 92.5474 68.8959C88.3453 68.6371 84.2067 70.3572 82.6413 73.2296C81.076 76.1048 82.8608 80.3382 83.4327 81.5072C83.4327 81.5072 84.5215 79.7593 84.816 79.1442C85.0095 78.7434 86.4045 77.8833 86.4045 77.8833L86.9561 76.269C86.9561 76.269 89.05 77.9863 91.8225 78.1811C94.5951 78.376 96.1922 78.6459 97.4369 80.2491C98.6817 81.8523 98.8145 84.3657 98.8145 84.3657C98.8145 84.3657 99.8687 83.8285 101.174 84.5689C102.479 85.3092 103.202 86.378 103.011 87.7558C102.823 89.1335 101.154 90.5809 99.1784 90.3387L98.7106 98.9086Z" fill="#FF373B"/>
<path d="M37.6709 76.4248L38.4535 78.1978C38.4535 78.1978 36.6312 77.9055 36.5156 77.3127C36.403 76.7171 37.6709 76.4248 37.6709 76.4248Z" fill="#FF373B"/>
<path d="M51.9791 75.5536L49.943 78.4929C49.943 78.4929 55.1213 77.8861 54.8354 76.7366C54.6043 75.8125 51.9791 75.5536 51.9791 75.5536Z" fill="#FF373B"/>
<path d="M150.935 76.5557L149.953 78.3955C149.953 78.3955 151.871 78.0141 151.943 77.3823C152.016 76.7533 150.95 76.4304 150.95 76.4304L150.935 76.5557Z" fill="#3A3A3A"/>
<path d="M138.292 78.4428L136.132 75.6622C136.132 75.6622 133.215 76.1605 133.437 76.9008C133.657 77.6412 138.292 78.4428 138.292 78.4428Z" fill="#3A3A3A"/>
<path d="M153.293 68.8431L140.536 68.7457L138.728 70.3989C138.817 70.3989 137.968 70.9306 137.968 70.9306C138.673 71.0308 139.678 70.7441 140.571 70.3989H152.773L153.293 68.8431Z" fill="#CCCCCC"/>
<path d="M74.7633 86.7065C74.7633 87.9256 73.738 88.9164 72.4701 88.9164C71.2052 88.9164 70.177 87.9284 70.177 86.7065C70.177 85.4874 71.2023 84.4965 72.4701 84.4965C73.738 84.4993 74.7633 85.4874 74.7633 86.7065Z" fill="white"/>
<path d="M82.736 86.7065C82.736 87.9256 81.7108 88.9164 80.4429 88.9164C79.1779 88.9164 78.1498 87.9284 78.1498 86.7065C78.1498 85.4874 79.175 84.4965 80.4429 84.4965C81.7108 84.4993 82.736 85.4874 82.736 86.7065Z" fill="white"/>
<path d="M197.165 82.139C197.165 82.139 201.277 78.774 199.654 74.8634C198.522 72.1329 195.311 70.9639 192.093 70.0232C188.876 69.0796 186.187 68.9739 184.099 69.5806C182.011 70.1874 180.125 72.3417 180.125 72.3417C180.125 72.3417 177.494 71.657 176.165 73.224C174.837 74.7938 173.644 77.2487 173.589 79.4114C173.534 81.574 174.441 82.9406 173.145 84.452C171.848 85.9633 170.002 88.6019 170.464 90.6699C170.927 92.7379 173.038 93.7566 176.105 94.3217C179.172 94.8895 181.676 94.703 182.938 93.4811C184.197 92.2564 184.602 90.9176 183.325 88.9999C183.325 88.9999 181.338 89.8015 180.677 87.1852C180.677 87.1852 177.921 85.9411 178.759 83.2023C179.597 80.4635 183.051 81.1426 183.703 81.9303C183.703 81.9303 185.081 79.4197 185.445 76.0602C185.445 76.0602 188.645 74.9747 192.061 75.8515C195.472 76.7338 198.225 78.774 197.165 82.139Z" fill="#FF373B"/>
<path d="M188.558 98.5773L188.382 99.3149C188.382 99.3149 189.095 106.699 187.449 106.727C185.803 106.755 181.884 103.685 180.391 101.522C178.901 99.3594 178.204 98.9642 178.204 98.9642V98.4687C178.204 98.4687 173.846 97.9427 169.699 99.2258C165.552 100.506 162.444 102.677 157.8 111.684C153.159 120.691 152.483 126.928 151.784 129.447C151.088 131.969 149.589 140.75 149.974 143.439C150.358 146.128 153.667 159.073 163.348 161.269H206.77L206.265 153.643C206.265 153.643 212.549 154.895 217.887 146.871C223.224 138.847 223.325 135.448 223.325 135.448C223.325 135.448 217.765 136.55 215.576 135.562C213.387 134.574 209.208 112.221 209.208 112.221C209.208 112.221 206.825 99.6823 188.558 98.5773Z" fill="#3552FF"/>
<path d="M222.389 121.913L224.671 116.992C224.671 116.992 224.853 114.022 222.19 113.493L183.314 116.549C183.314 116.549 181.127 116.697 180.206 119.285L167.317 145.46C167.317 145.46 166.242 149.457 170.156 149.935L208.708 146.607C208.708 146.607 210.358 146.57 211.126 144.722L222.389 121.913Z" fill="#FF373B"/>
<path d="M222.522 113.396L220.359 111.681H218.3L184.656 114.626C184.656 114.626 180.628 114.774 179.784 115.475C178.941 116.176 176.867 120.282 175.68 122.831C174.49 125.381 165.208 144.088 165.208 144.088C165.208 144.088 164.671 145.677 165.592 146.637L167.184 148.174C167.184 148.174 166.742 146.676 167.435 145.271C168.128 143.865 181.246 117.396 181.246 117.396C181.246 117.396 182.932 116.619 185.428 116.472C187.92 116.324 221.219 113.39 221.219 113.39H222.522V113.396Z" fill="white"/>
<path d="M156.061 169.241H102.753C98.7446 169.241 95.4637 166.079 95.4637 162.215V150.525C95.4637 146.662 98.7446 143.5 102.753 143.5H156.064C160.073 143.5 163.354 146.662 163.354 150.525V162.218C163.351 166.082 160.07 169.241 156.061 169.241Z" fill="white"/>
<path d="M196.907 132.147C195.949 133.747 196.058 135.534 197.15 136.141C198.242 136.748 199.902 135.946 200.861 134.346C201.82 132.748 201.71 130.959 200.619 130.352C199.527 129.742 197.866 130.547 196.907 132.147Z" fill="white"/>
<path d="M184.281 87.4941C184.281 88.4293 183.492 89.1892 182.522 89.1892C181.551 89.1892 180.763 88.4293 180.763 87.4941C180.763 86.5589 181.551 85.7991 182.522 85.7991C183.492 85.7991 184.281 86.5589 184.281 87.4941Z" fill="white"/>
<path d="M195.669 89.8127C195.669 89.8127 198.941 93.278 196.097 95.4045C193.252 97.5309 189.246 95.6856 189.246 95.6856L189.607 94.6975C189.607 94.6975 192.368 94.845 193.385 93.8013C194.401 92.7603 195.669 89.8127 195.669 89.8127Z" fill="#FF373B"/>
<path d="M1.90806 136.678L16.1954 128.156C16.8019 127.794 17.5787 128.237 17.5412 128.921L16.7181 145.093C16.6863 145.733 15.9585 146.108 15.3867 145.786L11.5253 143.59C11.1037 143.35 10.5636 143.487 10.3152 143.89L4.70083 153.07C4.45245 153.476 3.91238 153.61 3.49073 153.37L0.435144 151.633C0.0134855 151.394 -0.125142 150.874 0.123232 150.467L5.73765 141.288C5.98602 140.884 5.8445 140.361 5.42573 140.121L1.92539 138.131C1.35066 137.811 1.342 137.015 1.90806 136.678Z" fill="#3552FF"/>
<path d="M36.4637 117.1H24.4436V128.685H36.4637V117.1Z" fill="#3552FF"/>
<path d="M29.9047 98.0735H17.8845V109.658H29.9047V98.0735Z" fill="#FF373B"/>
<path d="M234.414 60.3844C233.703 59.2126 232.542 59.2126 231.832 60.3844L226.379 69.3857C225.669 70.5575 226.241 71.515 227.647 71.515H238.604C240.011 71.515 240.583 70.5575 239.872 69.3857L234.414 60.3844Z" fill="#3552FF"/>
<path d="M87.1381 73.0737C86.829 71.4872 87.3864 70.257 88.1431 69.3552C85.694 70.0343 83.6406 71.3954 82.6413 73.2324C81.076 76.1075 82.8608 80.341 83.4327 81.51C83.4327 81.51 84.5215 79.7621 84.816 79.1469C85.0095 78.7461 86.4074 77.8861 86.4074 77.8861L86.9619 76.2718C86.9619 76.2718 89.0557 77.9891 91.8283 78.1839C93.5698 78.3064 94.8463 78.4595 95.8658 78.9521L96.12 78.8714C96.1142 78.8742 87.8861 76.9008 87.1381 73.0737Z" fill="white"/>
<path d="M84.755 92.2648C84.6077 91.8167 84.5182 91.3018 84.5153 90.7006C84.5153 90.7006 81.7832 91.3992 81.1363 94.6696C80.4893 97.94 82.8085 99.8939 82.8085 99.8939C82.8085 99.8939 84.3305 99.5515 85.1882 99.3511C82.2482 96.2811 83.7904 93.2195 84.755 92.2648Z" fill="white"/>
<path d="M197.162 82.139C197.162 82.139 201.275 78.774 199.652 74.8634C198.52 72.1329 195.308 70.9639 192.091 70.0232C192.022 70.0037 191.958 69.9898 191.892 69.9703C193.469 70.7886 194.849 71.8769 195.161 73.2574C195.493 74.7353 193.902 75.4701 191.918 75.8236C191.964 75.8348 192.01 75.8431 192.056 75.8542C195.473 76.7338 198.225 78.774 197.162 82.139Z" fill="white"/>
<path d="M183.322 89.0028C183.322 89.0028 182.501 89.3284 181.739 88.8719C182.068 90.2052 181.935 94.3495 173.525 93.5535C173.829 93.6231 175.775 94.266 176.099 94.3245C179.166 94.8923 181.67 94.7058 182.932 93.4839C184.194 92.2593 184.598 90.9233 183.322 89.0028Z" fill="white"/>
<path d="M195.668 89.8127C195.668 89.8127 195.388 90.464 194.986 91.2601C195.333 92.5376 195.76 95.7357 190.599 96.142C192.017 96.5039 194.287 96.7544 196.092 95.4045C198.94 93.278 195.668 89.8127 195.668 89.8127Z" fill="white"/>
<path d="M153.341 171.723H100.03C96.0217 171.723 92.7408 168.562 92.7408 164.698V153.006C92.7408 149.142 96.0217 145.98 100.03 145.98H153.341C157.35 145.98 160.631 149.142 160.631 153.006V164.698C160.631 168.562 157.35 171.723 153.341 171.723Z" fill="#FF373B"/>
<path d="M224.31 118L222.389 121.913C222.389 121.913 220.298 122.294 218.528 122.445C216.755 122.595 214.583 121.921 213.786 123.923C212.989 125.921 214.251 126.695 214.251 126.695C214.251 126.695 211.576 129.361 213.907 131.026C213.907 131.026 211.204 133.021 214.109 134.769C217.015 136.517 222.56 135.715 223.859 135.27C225.159 134.825 227.449 133.113 227.767 128.949C228.087 124.785 228.047 122.589 227.322 121.22C226.594 119.85 224.31 118 224.31 118Z" fill="white"/>
<path d="M72.7811 161.561C72.6309 161.561 72.5039 161.456 72.4808 161.311C71.3631 154.044 70.9905 148.886 70.592 143.428C70.4967 142.136 70.4042 140.82 70.2945 139.442C68.8678 121.15 71.3746 114.91 72.7205 111.556C72.8822 111.152 73.0295 110.788 73.1508 110.445C73.2057 110.292 73.3819 110.214 73.5378 110.265C73.6967 110.317 73.7804 110.484 73.7255 110.637C73.6013 110.985 73.4512 111.356 73.2865 111.768C71.958 115.077 69.4829 121.242 70.8981 139.4C71.005 140.778 71.1003 142.098 71.1956 143.389C71.5912 148.836 71.9667 153.982 73.0786 161.227C73.1017 161.386 72.9891 161.536 72.8216 161.559C72.8129 161.559 72.7956 161.561 72.7811 161.561Z" fill="black"/>
<path d="M86.4069 78.1059C86.1787 78.0642 86.0748 77.9111 86.1094 77.7525C86.4213 76.3553 86.4329 76.3246 86.4387 76.3079C86.4964 76.1549 86.6697 76.0797 86.8285 76.1354C86.9874 76.191 87.0654 76.3608 87.0047 76.5111C87.0047 76.525 86.9036 76.962 86.6986 77.8722C86.6726 78.0141 86.5455 78.1059 86.4069 78.1059Z" fill="black"/>
<path d="M91.008 95.3599C90.4044 95.3599 89.8124 95.346 89.3272 95.3265C88.6398 95.2987 87.6174 95.2124 86.6932 94.7977C85.4745 94.2521 84.7351 93.2446 84.429 91.711C84.0795 89.9435 84.172 88.3376 84.4174 86.4727C84.4377 86.3113 84.5821 86.2083 84.7582 86.2194C84.9257 86.2389 85.0413 86.3864 85.0211 86.5479C84.7813 88.357 84.6918 89.9101 85.0268 91.6024C85.2925 92.9384 85.9221 93.8096 86.9474 94.2688C87.577 94.55 88.3394 94.7003 89.3532 94.742C90.3553 94.7838 91.8282 94.7921 92.8679 94.7225C93.0326 94.7114 93.1798 94.8339 93.1914 94.9925C93.2029 95.1539 93.0759 95.2931 92.9113 95.3042C92.3539 95.346 91.6752 95.3599 91.008 95.3599Z" fill="black"/>
<path d="M99.8883 90.6394C99.8132 90.6394 99.7381 90.6366 99.6601 90.6338C99.0305 90.5921 98.424 90.3889 97.9099 90.0465C97.7713 89.9547 97.7367 89.771 97.832 89.6402C97.9273 89.5066 98.115 89.4732 98.2536 89.565C98.6782 89.8489 99.1807 90.0187 99.6977 90.0493C101.257 90.1662 102.635 88.9944 102.739 87.4775C102.788 86.7427 102.537 86.0329 102.034 85.4791C101.529 84.9252 100.833 84.594 100.07 84.5466C99.4926 84.5105 98.9352 84.6385 98.4414 84.914C98.297 84.9948 98.1121 84.9474 98.0255 84.8083C97.9417 84.6691 97.9908 84.491 98.1352 84.4075C98.733 84.0707 99.4118 83.9176 100.108 83.9594C101.032 84.0178 101.878 84.4186 102.49 85.0894C103.1 85.7602 103.406 86.6202 103.345 87.5109C103.227 89.2811 101.696 90.6394 99.8883 90.6394Z" fill="black"/>
<path d="M100.371 89.2087C100.293 89.2087 100.215 89.1808 100.157 89.1224L98.2481 87.2826C98.1817 87.2186 98.15 87.1267 98.1615 87.0349C98.1731 86.943 98.2308 86.8651 98.3146 86.8206L100.876 85.4428C101.026 85.3649 101.208 85.415 101.289 85.5569C101.37 85.6989 101.318 85.877 101.171 85.9549L98.9586 87.1462L100.585 88.7104C100.703 88.8246 100.703 89.0111 100.585 89.1252C100.527 89.1808 100.449 89.2087 100.371 89.2087Z" fill="black"/>
<path d="M90.1329 106.997C89.8239 106.997 89.5062 106.98 89.1741 106.944C88.4203 106.863 87.8658 106.532 87.5308 105.956C86.3409 103.921 88.4059 99.4013 88.6658 98.8502L88.9633 95.037C88.9748 94.8756 89.125 94.7559 89.2896 94.767C89.4571 94.7781 89.5813 94.9201 89.5698 95.0815L89.2694 98.9476C89.2665 98.9838 89.2579 99.0172 89.2434 99.0478C89.2203 99.0951 86.9734 103.807 88.0622 105.669C88.3019 106.076 88.686 106.304 89.2434 106.362C96.2354 107.075 98.1906 98.9281 98.208 98.8446C98.2426 98.6859 98.3986 98.583 98.569 98.6219C98.7336 98.6581 98.8347 98.8112 98.8 98.9699C98.7798 99.0561 96.8824 106.997 90.1329 106.997Z" fill="black"/>
<path d="M90.2395 90.6366C89.864 90.6366 89.4568 90.5503 89.0265 90.375C88.8706 90.3138 88.7984 90.1412 88.8619 89.9909C88.9283 89.8434 89.1045 89.7738 89.2604 89.8322C89.9131 90.0967 90.4734 90.1161 90.9182 89.8935C91.672 89.5177 91.9001 88.5797 91.903 88.5714C91.9406 88.4127 92.0965 88.3125 92.2669 88.3515C92.4315 88.3877 92.5326 88.5435 92.4951 88.7022C92.4835 88.7523 92.2005 89.9185 91.1983 90.4167C90.9038 90.5643 90.5832 90.6366 90.2395 90.6366Z" fill="black"/>
<path d="M98.5019 99.2008C98.3084 99.1841 98.1842 99.0422 98.1986 98.8835L98.9929 90.3999C99.0073 90.2384 99.1633 90.1215 99.3221 90.1355C99.4896 90.1494 99.6138 90.2913 99.5965 90.4528L98.8023 98.9364C98.7907 99.0895 98.6579 99.2008 98.5019 99.2008Z" fill="black"/>
<path d="M72.6737 102.816C69.0607 102.816 65.4795 101.77 62.6492 99.031C60.6911 97.1355 59.0738 94.7113 57.7077 91.619C55.79 87.2742 54.6579 82.0499 54.5222 76.9091C54.5164 76.7476 54.6492 76.614 54.8167 76.6085C54.9871 76.614 55.1229 76.7309 55.1287 76.8924C55.2615 81.9608 56.3763 87.11 58.2651 91.388C59.5994 94.4107 61.1734 96.7765 63.0766 98.6163C68.2809 103.651 76.2058 102.699 81.8895 100.125C83.9863 99.1757 86.3631 98.6719 88.9566 98.6302C89.127 98.6302 89.2628 98.7582 89.2657 98.9169C89.2685 99.0783 89.1357 99.2119 88.9682 99.2147C86.4613 99.2564 84.1682 99.7407 82.1495 100.654C79.3422 101.931 75.9921 102.816 72.6737 102.816Z" fill="black"/>
<path d="M70.5975 123.691C64.5123 123.26 59.9925 120.83 55.0654 117.312C44.573 109.819 37.4539 94.9006 36.0186 77.4074C36.0041 77.2459 36.1312 77.1068 36.2958 77.0928C36.498 77.0734 36.6106 77.2014 36.6222 77.36C38.0431 94.6863 45.0727 109.444 55.4235 116.839C60.2639 120.296 64.7 122.684 70.6148 123.104C70.7823 123.115 70.9065 123.257 70.8949 123.416C70.8892 123.575 70.7563 123.691 70.5975 123.691Z" fill="black"/>
<path d="M49.8847 78.8742C49.8299 78.8742 49.775 78.8603 49.723 78.8297C49.5815 78.7434 49.5382 78.5625 49.6248 78.4261C49.6421 78.401 51.2248 75.9517 53.0154 73.6499C54.8262 71.323 54.8465 69.0351 53.9454 68.0665L53.6681 67.7603C52.5995 66.5774 49.7403 63.4322 47.6667 63.5742C47.0718 63.6132 46.5866 63.9138 46.1822 64.501C45.8674 64.9575 45.7808 65.4474 45.9136 65.9985C46.4595 68.2446 50.4479 70.4936 50.4884 70.5158C50.6356 70.5966 50.6847 70.7747 50.601 70.9166C50.5143 71.0586 50.3266 71.1059 50.1851 71.0252C50.0118 70.9278 45.931 68.626 45.3245 66.1349C45.1512 65.4279 45.2696 64.771 45.6768 64.1782C46.1851 63.4406 46.8407 63.0398 47.6263 62.9897C47.6811 62.9869 47.7389 62.9841 47.7938 62.9841C50.1562 62.9841 52.9259 66.0486 54.1244 67.3762L54.3959 67.6741C55.6667 69.0407 55.2912 71.6988 53.5006 74.0006C51.7273 76.2801 50.1562 78.71 50.1418 78.7322C50.0869 78.8241 49.9858 78.8742 49.8847 78.8742Z" fill="black"/>
<path d="M44.3388 79.1972C42.3374 79.1972 40.4804 79.0719 39.0161 78.8353C37.0176 78.5125 36.0356 78.0393 36.0183 77.3908C36.0039 76.8035 36.4313 76.5474 37.2284 76.2802C37.3844 76.2245 37.5576 76.308 37.6154 76.4611C37.6703 76.6142 37.5865 76.7812 37.4277 76.8341C36.6161 77.1069 36.6219 77.2432 36.6248 77.3768C36.6277 77.5104 37.084 77.9307 39.1172 78.2592C40.8558 78.5403 43.1663 78.66 45.6154 78.596C51.4059 78.4457 54.5366 77.4019 54.5251 76.912C54.5222 76.8508 54.4326 76.3053 51.8478 75.9518C51.6803 75.9295 51.5648 75.782 51.5908 75.6206C51.6139 75.4591 51.7583 75.345 51.9345 75.3728C54.0688 75.6623 55.1142 76.1605 55.1345 76.8953C55.1807 78.5069 48.9395 79.0942 45.6356 79.1805C45.1966 79.1916 44.7634 79.1972 44.3388 79.1972Z" fill="black"/>
<path d="M46.1645 75.9544C46.0172 75.9544 45.8901 75.8514 45.8641 75.7094C45.2923 72.3527 43.1898 69.138 43.1667 69.1074C43.0771 68.971 43.1176 68.7901 43.2591 68.7038C43.4035 68.6203 43.5883 68.6565 43.6778 68.7929C43.7674 68.9292 45.8699 72.1412 46.4619 75.6148C46.4879 75.7735 46.3782 75.9238 46.2107 75.9516C46.1962 75.9544 46.1818 75.9544 46.1645 75.9544Z" fill="black"/>
<path d="M115.592 102.816C112.27 102.816 108.923 101.931 106.113 100.659C104.198 99.7936 101.428 99.2481 98.705 99.2036C98.5375 99.2008 98.4046 99.0672 98.4075 98.9057C98.4104 98.7443 98.5461 98.6191 98.7108 98.6191C101.524 98.6636 104.386 99.2286 106.373 100.13C112.054 102.702 119.981 103.654 125.186 98.6219C127.089 96.7793 128.663 94.4162 129.997 91.3935C131.886 87.1128 133.001 81.9664 133.134 76.8979C133.137 76.7365 133.264 76.6307 133.446 76.614C133.613 76.6168 133.746 76.7504 133.74 76.9146C133.604 82.0526 132.475 87.277 130.555 91.6245C129.191 94.7168 127.577 97.1411 125.616 99.0366C122.789 101.767 119.205 102.816 115.592 102.816Z" fill="black"/>
<path d="M110.428 125.044C109.625 125.044 108.819 125.016 108.008 124.963C107.84 124.952 107.716 124.813 107.727 124.652C107.739 124.493 107.88 124.371 108.051 124.382C116.819 124.963 124.923 122.495 132.839 116.842C143.193 109.446 150.223 94.6891 151.641 77.3628C151.655 77.2014 151.814 77.0706 151.967 77.0956C152.134 77.1095 152.261 77.2487 152.247 77.4101C150.812 94.9034 143.693 109.819 133.2 117.315C126.003 122.45 118.356 125.044 110.428 125.044Z" fill="black"/>
<path d="M138.381 78.8742C138.28 78.8742 138.182 78.8241 138.124 78.735C138.11 78.71 136.539 76.2801 134.766 74.0034C132.975 71.7043 132.6 69.0434 133.87 67.6768C134.924 66.5384 138 63.2291 140.576 63.2291C141.397 63.243 142.052 63.5519 142.569 64.1531C142.922 64.5567 143.057 65.041 142.979 65.5921C142.647 67.9524 138.286 70.8888 138.101 71.0141C137.963 71.1059 137.775 71.0725 137.68 70.9389C137.584 70.8053 137.619 70.6244 137.758 70.5325C137.801 70.5047 142.084 67.6212 142.379 65.5142C142.433 65.1273 142.341 64.8072 142.104 64.5289C141.694 64.0585 141.209 63.8247 140.617 63.8136C139.049 63.8136 136.958 65.2275 134.364 68.022C133.42 69.0379 133.44 71.323 135.251 73.6499C137.041 75.9517 138.624 78.401 138.641 78.4261C138.731 78.5625 138.688 78.7434 138.546 78.8297C138.494 78.8603 138.436 78.8742 138.381 78.8742Z" fill="black"/>
<path d="M143.926 79.197C143.502 79.197 143.069 79.1915 142.633 79.1803C139.326 79.094 133.087 78.5068 133.134 76.8924C133.154 76.1576 134.199 75.6594 136.334 75.37C136.518 75.3533 136.654 75.459 136.677 75.6177C136.7 75.7763 136.585 75.9266 136.42 75.9489C133.833 76.2996 133.743 76.8451 133.743 76.9063C133.729 77.399 136.862 78.4427 142.65 78.593C145.116 78.657 147.412 78.5374 149.151 78.2563C151.184 77.9278 151.638 77.5075 151.643 77.3739C151.646 77.2403 151.652 77.104 150.838 76.8312C150.679 76.7783 150.595 76.6113 150.65 76.4582C150.705 76.3079 150.881 76.2272 151.037 76.2773C151.837 76.5445 152.267 76.8034 152.25 77.3906C152.232 78.0392 151.251 78.5095 149.252 78.8352C147.782 79.0746 145.928 79.197 143.926 79.197Z" fill="black"/>
<path d="M85.5182 87.0016C85.368 87.0016 85.2063 86.9821 85.0301 86.9431C83.4533 86.5869 82.7197 84.2517 83.3551 81.6214C83.9904 78.9912 85.7262 77.2099 87.3002 77.5661C88.8742 77.9224 89.6106 80.2576 88.9724 82.8851L88.9088 83.1495C88.7442 83.8509 88.6604 84.2016 88.2503 84.8111C88.1608 84.9475 87.9731 84.9893 87.8316 84.8974C87.6901 84.8083 87.6496 84.6302 87.742 84.4938C88.0915 83.9706 88.1579 83.6922 88.3197 83.0214L88.3832 82.7542C88.9261 80.522 88.3659 78.4095 87.1644 78.1367C85.9688 77.8667 84.4901 79.5228 83.95 81.755C83.4099 83.9873 83.9673 86.1026 85.1688 86.3726C85.3074 86.4032 85.3998 86.4115 85.5356 86.4171C85.6857 86.3865 85.8417 86.5451 85.8417 86.7066C85.8446 86.8736 85.7031 87.0016 85.5182 87.0016Z" fill="black"/>
<path d="M92.6887 88.1844C92.5529 88.1844 92.4172 88.1677 92.2843 88.1399C91.5017 87.9645 90.9009 87.291 90.5948 86.2444C90.3089 85.2591 90.3147 84.0428 90.6093 82.8209C90.9038 81.5962 91.4584 80.5052 92.1688 79.7453C92.9226 78.9354 93.7688 78.5902 94.5544 78.7656C95.337 78.9409 95.9377 79.6145 96.241 80.661C96.5269 81.6463 96.5211 82.8627 96.2266 84.0845C95.932 85.3064 95.3775 86.4003 94.667 87.1601C94.0432 87.8309 93.3529 88.1844 92.6887 88.1844ZM94.1529 79.3028C93.6619 79.3028 93.1305 79.5895 92.6222 80.1322C91.9811 80.8197 91.4757 81.8217 91.2013 82.9517C90.9269 84.079 90.9212 85.1923 91.1782 86.0858C91.4208 86.918 91.8598 87.444 92.4201 87.5693C92.9775 87.6945 93.6157 87.4106 94.2136 86.7677C94.8547 86.0802 95.3601 85.0782 95.6345 83.9482C95.9089 82.8209 95.9146 81.7076 95.6576 80.8141C95.415 79.9819 94.976 79.4559 94.4157 79.3306C94.332 79.3139 94.2425 79.3028 94.1529 79.3028Z" fill="black"/>
<path d="M90.8227 83.5752C90.7389 83.5752 90.6552 83.5418 90.5945 83.475C89.7165 82.5148 88.9252 83.0909 88.8415 83.1577C88.7086 83.2607 88.5209 83.2412 88.414 83.1188C88.3072 82.9935 88.3245 82.8126 88.4516 82.7096C88.9021 82.345 90.0198 81.9581 91.0508 83.0882C91.1606 83.2106 91.149 83.3943 91.0219 83.5029C90.9642 83.553 90.892 83.5752 90.8227 83.5752Z" fill="black"/>
<path d="M206.904 153.952C206.684 153.952 206.468 153.946 206.251 153.935C206.084 153.927 205.956 153.788 205.965 153.626C205.974 153.465 206.124 153.362 206.286 153.351C207.288 153.409 208.313 153.328 209.333 153.114C215.539 151.823 220.686 143.269 223.034 135.367C223.08 135.214 223.242 135.123 223.409 135.167C223.568 135.212 223.663 135.373 223.617 135.529C221.217 143.601 215.909 152.346 209.457 153.687C208.608 153.863 207.75 153.952 206.904 153.952Z" fill="black"/>
<path d="M165.804 158.503C164.995 158.503 164.155 158.419 163.285 158.235C163.121 158.202 163.02 158.043 163.054 157.887C163.089 157.729 163.236 157.626 163.415 157.665C171.695 159.413 177.125 151.636 178.598 149.212C178.682 149.073 178.866 149.025 179.014 149.106C179.158 149.187 179.207 149.368 179.121 149.507C177.752 151.764 173.047 158.503 165.804 158.503Z" fill="black"/>
<path d="M149.826 143.731C149.662 143.731 149.529 143.609 149.523 143.45C149.462 141.997 149.564 140.865 149.748 139.506C152.304 120.493 156.893 112.642 160.94 105.711C165.734 97.5058 175.389 97.8677 178.242 98.1766C178.407 98.1933 178.528 98.3381 178.508 98.4995C178.488 98.6609 178.349 98.7862 178.173 98.7583C175.423 98.4577 166.083 98.107 161.471 105.998C157.451 112.881 152.893 120.683 150.352 139.581C150.17 140.909 150.072 142.017 150.132 143.425C150.141 143.587 150.008 143.723 149.841 143.729C149.835 143.731 149.829 143.731 149.826 143.731Z" fill="black"/>
<path d="M209.212 112.511C209.082 112.511 208.963 112.43 208.923 112.305C206.049 103.443 199.037 100.863 193.246 99.6045C193.22 99.5989 190.069 98.981 188.539 98.8697C188.371 98.8586 188.247 98.7166 188.259 98.5552C188.273 98.3937 188.423 98.2601 188.585 98.2852C190.153 98.3993 193.243 99.0061 193.376 99.0311C199.331 100.325 206.54 102.983 209.503 112.129C209.552 112.283 209.463 112.447 209.304 112.497C209.269 112.508 209.24 112.511 209.212 112.511Z" fill="black"/>
<path d="M190.761 95.101C190.166 95.101 189.511 95.0063 188.748 94.8115C187.761 94.561 186.32 94.1435 185.332 93.7705C185.173 93.7121 185.098 93.5423 185.159 93.392C185.219 93.2417 185.401 93.1721 185.551 93.225C186.519 93.5868 187.931 93.9987 188.901 94.2437C189.883 94.4942 190.657 94.5638 191.345 94.4775C192.468 94.33 193.338 93.6759 193.996 92.4763C194.585 91.413 195.021 90.1717 195.368 88.5685C195.388 88.4905 197.086 82.2503 196.994 79.6757C196.988 79.5143 197.118 79.3779 197.286 79.3723C197.427 79.3779 197.595 79.492 197.6 79.6534C197.696 82.3115 196.032 88.4432 195.96 88.7021C195.605 90.3442 195.148 91.6357 194.53 92.749C193.771 94.1268 192.757 94.8811 191.423 95.0536C191.212 95.0842 190.992 95.101 190.761 95.101Z" fill="black"/>
<path d="M180.674 87.4803C180.642 87.4803 180.608 87.4747 180.576 87.4636C178.878 86.9014 177.913 85.2091 178.332 83.5252C178.545 82.6568 179.1 81.922 179.888 81.4544C180.677 80.9868 181.607 80.8449 182.511 81.0508C183.187 81.2067 183.79 81.549 184.258 82.0417C184.371 82.1614 184.362 82.3451 184.238 82.4536C184.111 82.565 183.923 82.5538 183.808 82.4341C183.423 82.0278 182.924 81.7467 182.366 81.6186C181.63 81.4489 180.856 81.563 180.2 81.9499C179.55 82.3367 179.094 82.9407 178.918 83.6588C178.571 85.0477 179.366 86.4449 180.766 86.9069C180.925 86.9598 181.009 87.1268 180.957 87.2799C180.919 87.4052 180.801 87.4803 180.674 87.4803Z" fill="black"/>
<path d="M180.743 86.005C180.633 86.005 180.529 85.9493 180.474 85.8491C180.396 85.7072 180.454 85.529 180.601 85.4539L182.635 84.4213L180.887 82.6539C180.769 82.537 180.775 82.3532 180.896 82.2391C181.02 82.1278 181.211 82.1334 181.323 82.2503L183.348 84.2988C183.414 84.3656 183.443 84.4575 183.429 84.5465C183.414 84.6384 183.357 84.7163 183.27 84.7581L180.882 85.9716C180.838 85.9966 180.792 86.005 180.743 86.005Z" fill="black"/>
<path d="M170.906 132.84C170.663 132.785 170.568 132.623 170.614 132.467C172.844 124.877 172.647 113.574 172.647 113.463C172.645 113.301 172.777 113.168 172.945 113.165C173.115 113.165 173.251 113.293 173.254 113.452C173.257 113.566 173.453 124.955 171.198 132.626C171.16 132.757 171.039 132.84 170.906 132.84Z" fill="black"/>
<path d="M191.059 90.6783C190.389 90.6783 189.843 90.4918 189.433 90.1216C188.61 89.3812 188.665 88.1844 188.668 88.1343C188.677 87.9784 188.809 87.856 188.971 87.856C189.153 87.8643 189.283 88.0035 189.274 88.1621C189.274 88.1705 189.234 89.1419 189.852 89.6957C190.222 90.0242 190.762 90.1522 191.466 90.0659C191.634 90.0548 191.784 90.1606 191.804 90.322C191.825 90.4834 191.706 90.6282 191.539 90.6477C191.371 90.6699 191.212 90.6783 191.059 90.6783Z" fill="black"/>
<path d="M170.358 150.228C169.186 150.228 168.108 149.688 167.427 148.747C166.682 147.717 166.569 146.426 167.127 145.29L173.093 133.121C173.165 132.974 173.345 132.913 173.498 132.982C173.651 133.052 173.711 133.224 173.642 133.372L167.675 145.541C167.213 146.484 167.306 147.558 167.927 148.413C168.545 149.27 169.555 149.727 170.638 149.629L208.438 146.362C209.486 146.27 210.419 145.644 210.866 144.728L215.302 135.679C215.375 135.532 215.557 135.468 215.707 135.54C215.86 135.61 215.921 135.782 215.851 135.93L211.415 144.978C210.872 146.083 209.754 146.835 208.49 146.946L170.69 150.214C170.581 150.222 170.468 150.228 170.358 150.228Z" fill="black"/>
<path d="M176.527 127.093C176.484 127.093 176.437 127.084 176.397 127.065C176.244 126.995 176.183 126.823 176.252 126.675L180.333 118.353C180.876 117.248 181.994 116.497 183.259 116.385L221.061 113.118C222.337 113.009 223.576 113.552 224.324 114.582C225.07 115.611 225.182 116.906 224.625 118.041L222.667 122.038C222.594 122.186 222.41 122.247 222.262 122.177C222.112 122.108 222.049 121.932 222.118 121.788L224.076 117.791C224.538 116.847 224.446 115.773 223.825 114.918C223.21 114.064 222.222 113.605 221.116 113.702L183.314 116.97C182.265 117.062 181.333 117.688 180.885 118.603L176.804 126.926C176.749 127.031 176.639 127.093 176.527 127.093Z" fill="black"/>
<path d="M168.186 149.429C168.108 149.429 168.033 149.401 167.972 149.345L165.347 146.846C164.703 145.788 164.654 144.619 165.165 143.581L178.372 116.644C178.915 115.539 180.033 114.785 181.295 114.676L219.097 111.409C219.628 111.367 220.145 111.428 220.633 111.595C220.665 111.606 220.694 111.623 220.723 111.642L223.467 113.752C223.597 113.852 223.62 114.036 223.516 114.164C223.409 114.292 223.221 114.312 223.088 114.211L220.385 112.132C219.992 112.004 219.579 111.954 219.155 111.993L181.353 115.261C180.307 115.353 179.374 115.976 178.924 116.894L165.717 143.832C165.295 144.686 165.33 145.641 165.806 146.459L168.4 148.931C168.518 149.045 168.521 149.228 168.403 149.345C168.345 149.398 168.264 149.429 168.186 149.429Z" fill="black"/>
<path d="M183.7 82.2281C183.631 82.2281 183.565 82.2058 183.507 82.1613C183.377 82.0583 183.36 81.8746 183.466 81.7494C184.535 80.4997 185.136 76.0714 185.141 76.0269C185.156 75.9072 185.245 75.8125 185.367 75.7819C185.459 75.7569 194.819 73.4606 197.58 79.5505C197.647 79.6981 197.577 79.8706 197.422 79.9346C197.271 79.9987 197.089 79.9319 197.023 79.7844C194.687 74.6185 187.039 76.0157 185.716 76.3024C185.58 77.2153 184.988 80.8921 183.934 82.1196C183.874 82.1919 183.784 82.2281 183.7 82.2281Z" fill="black"/>
<path d="M179.123 94.909C178.468 94.909 177.749 94.8561 176.969 94.7503C174.381 94.4024 171.297 93.7372 170.387 91.6775C170.133 91.1041 170.13 90.4723 170.15 90.0465C170.242 88.1984 170.973 86.3948 172.154 85.1005L172.382 84.8528C173.304 83.8536 173.971 83.1327 173.578 81.7382C172.853 79.1581 173.477 75.935 175.094 73.8948C176.05 72.6896 177.243 72.0522 178.543 72.0522H180.128C180.296 72.0522 180.432 72.1831 180.432 72.3445C180.432 72.5059 180.296 72.6367 180.128 72.6367H178.543C177.151 72.6367 176.16 73.5135 175.577 74.2511C174.089 76.1243 173.497 79.2082 174.167 81.5852C174.647 83.2858 173.809 84.1931 172.839 85.2425L172.614 85.4874C171.522 86.6842 170.846 88.3542 170.759 90.0743C170.742 90.4417 170.739 90.9845 170.944 91.4465C171.736 93.2362 174.627 93.8429 177.052 94.1714C179.972 94.5694 181.936 94.2048 182.898 93.097C184.192 91.6107 183.912 90.0381 183.1 89.2059C182.985 89.089 182.99 88.9025 183.115 88.7912C183.236 88.6827 183.429 88.6882 183.542 88.8051C184.53 89.8182 184.894 91.7109 183.36 93.4728C182.531 94.4275 181.11 94.909 179.123 94.909Z" fill="black"/>
<path d="M206.774 161.319C206.62 161.319 206.491 161.211 206.473 161.063C205.61 154.545 205.696 146.941 205.696 146.863C205.699 146.701 205.835 146.573 206 146.573C206.158 146.593 206.306 146.707 206.303 146.868C206.303 146.943 206.216 154.508 207.074 160.985C207.094 161.144 206.979 161.291 206.811 161.314C206.797 161.319 206.785 161.319 206.774 161.319Z" fill="black"/>
<path d="M193.051 96.4843C191.668 96.4843 190.273 96.1725 189.349 95.794C189.196 95.73 189.121 95.5574 189.187 95.4099C189.254 95.2596 189.433 95.1928 189.586 95.254C191.42 96.0055 195.518 96.5149 196.673 94.3077C197.817 92.1228 195.558 90.1132 195.463 90.0297C195.339 89.9212 195.327 89.7375 195.443 89.615C195.555 89.4953 195.749 89.4842 195.87 89.5927C195.896 89.6178 198.568 91.9836 197.216 94.5693C196.468 96.0028 194.77 96.4815 193.051 96.4843Z" fill="black"/>
<path d="M219.238 136.253C218.433 136.253 217.584 136.205 216.706 136.108C214.846 135.899 212.2 134.611 212.443 132.501C212.524 131.785 212.954 131.176 213.621 130.822C213.768 130.744 213.95 130.795 214.034 130.939C214.115 131.081 214.06 131.259 213.913 131.337C213.422 131.593 213.107 132.041 213.046 132.565C212.844 134.341 215.377 135.37 216.775 135.529C221.459 136.049 224.527 135.075 225.494 133.878C226.222 132.982 226.768 131.808 227.163 130.282C227.764 127.961 227.94 125.384 227.654 123.026C227.354 120.535 224.163 118.258 224.131 118.233C223.995 118.139 223.966 117.955 224.064 117.824C224.165 117.693 224.353 117.666 224.489 117.76C224.63 117.86 227.926 120.212 228.258 122.957C228.558 125.417 228.382 128 227.752 130.422C227.337 132.028 226.756 133.275 225.976 134.238C224.928 135.526 222.404 136.253 219.238 136.253Z" fill="black"/>
<path d="M216.905 127.557C216.57 127.557 216.295 127.546 216.105 127.519L215.888 127.491C215.209 127.404 214.187 127.276 213.739 126.581C213.22 125.779 213.095 124.855 213.399 124.042C213.653 123.369 214.187 122.815 214.984 122.397C215.669 122.038 216.388 122.08 217.09 122.119C217.246 122.127 217.404 122.138 217.563 122.141C223.484 122.28 224.575 121.056 224.584 121.042C224.688 120.919 224.873 120.891 225.006 120.986C225.136 121.081 225.17 121.253 225.078 121.384C224.965 121.537 223.813 122.873 217.546 122.723C217.381 122.72 217.217 122.709 217.055 122.701C216.408 122.664 215.807 122.631 215.273 122.909C214.609 123.254 214.17 123.703 213.97 124.237C213.731 124.877 213.835 125.617 214.254 126.266C214.548 126.725 215.403 126.834 215.966 126.903L216.191 126.934C217.503 127.12 223.285 126.519 223.793 126.327C223.952 126.274 224.125 126.344 224.186 126.494C224.246 126.645 224.171 126.814 224.012 126.873C223.438 127.095 218.996 127.557 216.905 127.557Z" fill="black"/>
<path d="M202.978 113.385C202.81 113.385 202.675 113.254 202.675 113.093V111.94C202.675 111.779 202.81 111.648 202.978 111.648C203.145 111.648 203.281 111.779 203.281 111.94V113.093C203.281 113.254 203.145 113.385 202.978 113.385Z" fill="black"/>
<path d="M217.993 132.058C217.188 132.058 216.382 132.03 215.634 131.955C214.089 131.805 212.503 130.803 212.671 128.963C212.755 128.078 213.37 127.137 214.245 126.564C214.381 126.472 214.571 126.505 214.666 126.642C214.762 126.775 214.724 126.956 214.586 127.048C213.866 127.518 213.341 128.309 213.274 129.016C213.144 130.46 214.435 131.251 215.695 131.373C219.178 131.721 223.995 131.07 224.041 131.062C224.203 131.031 224.359 131.151 224.385 131.309C224.408 131.468 224.292 131.618 224.125 131.641C224.09 131.646 221.035 132.058 217.993 132.058Z" fill="black"/>
<path d="M197.338 134.922C196.992 134.922 196.665 134.841 196.371 134.68C195.135 133.995 194.976 132.022 196.016 130.285C197.055 128.551 198.904 127.694 200.143 128.381C201.379 129.069 201.538 131.042 200.495 132.776C200.001 133.6 199.317 134.251 198.563 134.616C198.144 134.819 197.728 134.922 197.338 134.922ZM196.544 130.575C195.672 132.033 195.732 133.645 196.677 134.171C197.11 134.416 197.682 134.388 198.294 134.093C198.944 133.778 199.539 133.208 199.972 132.481C200.83 131.051 200.772 129.403 199.842 128.885C198.898 128.365 197.416 129.116 196.544 130.575Z" fill="black"/>
<path d="M187.129 107.067C184.362 107.067 178.641 99.9886 177.968 99.1397C177.913 99.0701 177.89 98.9811 177.913 98.8948L178.947 94.5222C178.985 94.3635 179.149 94.2661 179.311 94.3023C179.476 94.3385 179.577 94.4943 179.539 94.653L178.537 98.892C181.142 102.143 185.772 106.994 187.354 106.449C188.411 106.095 188.385 102.226 188.027 99.5906C188.024 99.5572 188.024 99.521 188.033 99.4876L189.177 94.6808C189.214 94.5222 189.376 94.4247 189.54 94.4609C189.705 94.4971 189.806 94.653 189.769 94.8116L188.636 99.5656C188.804 100.815 189.434 106.371 187.556 107C187.421 107.047 187.279 107.067 187.129 107.067Z" fill="black"/>
<path d="M183.131 74.226C183.088 74.226 183.042 74.2176 182.998 74.1954L180.873 73.1962C180.72 73.1266 180.659 72.9512 180.731 72.8037C180.804 72.659 180.985 72.5978 181.136 72.6701L183.261 73.6693C183.411 73.7389 183.475 73.9143 183.4 74.0618C183.351 74.1648 183.241 74.226 183.131 74.226Z" fill="black"/>
<path d="M228.093 161.561H163.352C163.184 161.561 163.048 161.431 163.048 161.269C163.048 161.108 163.184 160.977 163.352 160.977H228.091C228.258 160.977 228.394 161.108 228.394 161.269C228.397 161.431 228.258 161.561 228.093 161.561Z" fill="black"/>
<path d="M95.4646 161.561H6.93081C6.7633 161.561 6.62756 161.431 6.62756 161.269C6.62756 161.108 6.7633 160.977 6.93081 160.977H95.4646C95.6321 160.977 95.7679 161.108 95.7679 161.269C95.7679 161.431 95.6321 161.561 95.4646 161.561Z" fill="black"/>
<path d="M195.785 82.6205C195.548 82.5621 195.375 82.6456 195.222 83.4778C195.049 84.4047 195.285 84.5939 195.502 84.6051C195.722 84.6162 195.967 84.349 196.025 83.681C196.083 83.013 196.097 82.6985 195.785 82.6205Z" fill="black"/>
<path d="M189.563 81.5573C189.323 81.5044 189.153 81.5934 189.023 82.4284C188.876 83.3608 189.115 83.5418 189.335 83.5473C189.554 83.5529 189.794 83.2801 189.832 82.6093C189.869 81.9414 189.875 81.6268 189.563 81.5573Z" fill="black"/>
<path d="M9.91983 153.782C9.71478 153.782 9.50684 153.732 9.31912 153.623L6.26353 151.887C5.98917 151.731 5.79566 151.483 5.71769 151.185C5.63682 150.89 5.68303 150.584 5.84476 150.32L11.4592 141.14C11.6209 140.876 11.5285 140.533 11.2541 140.375L7.75378 138.385C7.39277 138.181 7.17328 137.817 7.17039 137.413C7.16461 137.01 7.37544 136.639 7.73067 136.428L22.018 127.905C22.3934 127.68 22.8642 127.677 23.2454 127.891C23.6266 128.109 23.849 128.507 23.8288 128.932L23.0057 145.104C22.9855 145.507 22.7515 145.863 22.3848 146.055C22.0151 146.248 21.579 146.239 21.218 146.033L17.3537 143.837C17.2209 143.762 17.0649 143.743 16.9148 143.779C16.7646 143.815 16.6375 143.907 16.5595 144.035L10.9451 153.223C10.7256 153.582 10.3271 153.782 9.91983 153.782ZM8.05125 136.929C7.87508 137.032 7.774 137.213 7.77688 137.41C7.77977 137.608 7.88663 137.786 8.05991 137.886L11.5631 139.876C12.1263 140.197 12.314 140.898 11.9819 141.444L6.3675 150.623C6.28953 150.751 6.26642 150.901 6.30397 151.046C6.34151 151.191 6.43682 151.31 6.57256 151.388L9.62814 153.125C9.90251 153.278 10.2577 153.192 10.4224 152.928L16.0397 143.748C16.2014 143.486 16.4584 143.297 16.7646 143.222C17.0707 143.144 17.3884 143.189 17.6628 143.345L21.5241 145.541C21.6974 145.641 21.9111 145.644 22.0931 145.552C22.2721 145.457 22.3877 145.285 22.3963 145.087L23.2194 128.916C23.231 128.704 23.1241 128.515 22.9364 128.406C22.7487 128.301 22.5234 128.301 22.3357 128.412L8.05125 136.929Z" fill="black"/>
<path d="M234.595 73.2713H223.637C222.843 73.2713 222.243 72.9985 221.945 72.5003C221.651 72.0021 221.708 71.3647 222.107 70.7023L227.56 61.7037C227.958 61.0441 228.51 60.6794 229.11 60.6794C229.714 60.6794 230.266 61.0441 230.664 61.7009C230.667 61.7009 236.126 70.7023 236.126 70.7023C236.524 71.3619 236.582 71.9993 236.287 72.4975C235.99 72.9957 235.392 73.2713 234.595 73.2713ZM229.113 61.2612C228.735 61.2612 228.371 61.52 228.085 61.9932L222.632 70.9945C222.344 71.4677 222.289 71.8991 222.474 72.2053C222.656 72.5142 223.071 72.684 223.637 72.684H234.595C235.164 72.684 235.577 72.5142 235.762 72.2053C235.944 71.8963 235.889 71.4677 235.603 70.9945L230.141 61.9932C229.856 61.5228 229.492 61.2612 229.113 61.2612Z" fill="black"/>
<path d="M43.6464 38.1152C39.9092 38.1152 36.871 35.1871 36.871 31.5855C36.897 31.4547 38.2572 27.16 37.6132 23.8701C37.5814 23.7114 37.6912 23.5583 37.8558 23.5277C38.0204 23.4999 38.1793 23.6029 38.211 23.7615C38.8551 27.0542 37.6334 31.1374 37.4775 31.63C37.5035 34.8893 40.2587 37.5335 43.6464 37.5335C47.0312 37.5335 49.7893 34.8893 49.8153 31.6328C49.6594 31.1401 48.4377 27.057 49.0817 23.7643C49.1135 23.6057 49.2637 23.5027 49.437 23.5305C49.6016 23.5611 49.7085 23.7142 49.6796 23.8729C49.0355 27.1655 50.3958 31.4602 50.4103 31.502C50.4189 35.1843 47.3807 38.1152 43.6464 38.1152Z" fill="black"/>
<path d="M67.0924 69.1353H54.7025C54.535 69.1353 54.3993 69.0045 54.3993 68.8431C54.3993 68.6816 54.535 68.5508 54.7025 68.5508H66.7862V51.9037C66.7862 51.7617 66.8902 51.6421 67.0317 51.617C70.4541 50.9991 74.6851 52.1737 75.1963 52.324C78.5782 52.2989 81.3219 49.6436 81.3219 46.3788C81.3219 43.1139 78.5782 40.4586 75.1963 40.4336C74.6822 40.5839 70.4483 41.764 67.0317 41.1433C66.8873 41.1183 66.7862 40.9958 66.7862 40.8566V24.1065H49.374C49.2065 24.1065 49.0708 23.9757 49.0708 23.8143C49.0708 23.6529 49.2065 23.522 49.374 23.522H67.0895C67.257 23.522 67.3927 23.6529 67.3927 23.8143V40.6034C70.7776 41.1238 75.0201 39.8713 75.0606 39.8574C78.8873 39.8435 81.9284 42.7744 81.9284 46.376C81.9284 49.9776 78.8902 52.9057 75.153 52.9057C75.0173 52.8779 70.766 51.6309 67.3927 52.1486V68.8431C67.3956 69.0045 67.2599 69.1353 67.0924 69.1353Z" fill="black"/>
<path d="M47.5197 69.1352H20.3719C20.2043 69.1352 20.0686 69.0044 20.0686 68.8429V51.8674C20.0686 51.706 20.2043 51.5751 20.3719 51.5751C20.5394 51.5751 20.6751 51.706 20.6751 51.8674V68.5507H47.5197C47.6872 68.5507 47.823 68.6815 47.823 68.8429C47.823 69.0044 47.6872 69.1352 47.5197 69.1352Z" fill="black"/>
<path d="M20.3684 36.907C20.2009 36.907 20.0652 36.7762 20.0652 36.6147V23.8142C20.0652 23.6528 20.2009 23.522 20.3684 23.522H37.9106C38.0781 23.522 38.2138 23.6528 38.2138 23.8142C38.2138 23.9757 38.0781 24.1065 37.9106 24.1065H20.6717V36.6147C20.6717 36.7762 20.5359 36.907 20.3684 36.907Z" fill="black"/>
<path d="M145.28 38.1149C141.546 38.1149 138.505 35.1869 138.505 31.5852C138.531 31.4544 139.891 27.1597 139.25 23.867C139.218 23.7084 139.328 23.5553 139.492 23.5247C139.654 23.5024 139.816 23.5999 139.845 23.7585C140.489 27.0512 139.264 31.1343 139.111 31.627C139.137 34.8863 141.892 37.5304 145.277 37.5304C148.662 37.5304 151.423 34.8863 151.446 31.6298C151.293 31.1371 150.071 27.054 150.715 23.7613C150.747 23.6026 150.9 23.5052 151.068 23.5275C151.232 23.5581 151.342 23.7112 151.31 23.8698C150.669 27.1625 152.026 31.4572 152.041 31.5017C152.058 35.1841 149.017 38.1149 145.28 38.1149Z" fill="black"/>
<path d="M129.899 52.8582C129.763 52.8304 125.301 51.5167 121.893 52.1401C121.72 52.1652 121.569 52.065 121.538 51.9063C121.506 51.7477 121.616 51.5946 121.78 51.564C125.2 50.9461 129.434 52.1234 129.945 52.271C133.327 52.2459 136.068 49.5906 136.068 46.3258C136.068 43.0637 133.324 40.4056 129.945 40.3805C129.434 40.5281 125.194 41.7054 121.78 41.0847C121.616 41.0541 121.509 40.901 121.538 40.7424C121.569 40.5837 121.723 40.4835 121.893 40.5086C125.312 41.1293 129.766 39.8211 129.809 39.8072C133.633 39.7933 136.674 42.7241 136.674 46.323C136.674 49.9274 133.633 52.8582 129.899 52.8582Z" fill="black"/>
<path d="M160.494 52.8583C156.76 52.8583 153.719 49.9302 153.719 46.3286C153.719 42.7297 156.76 39.7989 160.494 39.7989C160.627 39.8239 165.089 41.1377 168.503 40.5142C168.668 40.4892 168.826 40.5894 168.855 40.748C168.887 40.9067 168.777 41.0597 168.613 41.0904C165.202 41.711 160.959 40.5337 160.451 40.3862C157.069 40.4112 154.325 43.0665 154.325 46.3314C154.325 49.5962 157.069 52.2515 160.451 52.2766C160.965 52.1263 165.202 50.9462 168.613 51.5696C168.777 51.6002 168.887 51.7533 168.855 51.912C168.823 52.0706 168.665 52.1653 168.503 52.1458C165.083 51.5223 160.633 52.836 160.587 52.85C160.555 52.8527 160.526 52.8583 160.494 52.8583Z" fill="black"/>
<path d="M121.836 41.1413C121.668 41.1413 121.532 41.0104 121.532 40.849V23.815C121.532 23.6536 121.668 23.5228 121.836 23.5228H139.551C139.719 23.5228 139.854 23.6536 139.854 23.815C139.854 23.9764 139.719 24.1073 139.551 24.1073H122.139V40.8518C122.139 41.0132 122.003 41.1413 121.836 41.1413Z" fill="black"/>
<path d="M133.563 69.1353H121.835C121.667 69.1353 121.532 69.0045 121.532 68.8431V51.9037C121.532 51.7423 121.667 51.6115 121.835 51.6115C122.002 51.6115 122.138 51.7423 122.138 51.9037V68.5508H133.563C133.731 68.5508 133.867 68.6816 133.867 68.8431C133.867 69.0045 133.734 69.1353 133.563 69.1353Z" fill="black"/>
<path d="M160.76 69.1352H140.414C140.246 69.1352 140.111 69.0044 140.111 68.843C140.111 68.6815 140.246 68.5507 140.414 68.5507H160.76C160.928 68.5507 161.064 68.6815 161.064 68.843C161.064 69.0044 160.928 69.1352 160.76 69.1352Z" fill="black"/>
<path d="M168.558 65.2999C168.391 65.2999 168.255 65.1691 168.255 65.0076V51.9093C168.255 51.7478 168.391 51.617 168.558 51.617C168.726 51.617 168.862 51.7478 168.862 51.9093V65.0076C168.862 65.1691 168.726 65.2999 168.558 65.2999Z" fill="black"/>
<path d="M168.558 40.9263C168.391 40.9263 168.255 40.7955 168.255 40.634V24.1066H151.016C150.848 24.1066 150.713 23.9758 150.713 23.8143C150.713 23.6529 150.848 23.5221 151.016 23.5221H168.558C168.726 23.5221 168.861 23.6529 168.861 23.8143V40.6368C168.861 40.7955 168.726 40.9263 168.558 40.9263Z" fill="black"/>
<path d="M38.765 78.785C38.6697 78.785 38.5744 78.7405 38.5166 78.657C36.6249 76.0128 35.1895 69.1881 35.1289 68.8987C35.0971 68.74 35.204 68.5869 35.3657 68.5535C35.5361 68.5285 35.6892 68.6259 35.7238 68.7818C35.7383 68.8514 37.1967 75.779 39.0162 78.3258C39.1115 78.4594 39.0769 78.6403 38.9383 78.7321C38.8834 78.7683 38.8227 78.785 38.765 78.785Z" fill="black"/>
<path d="M142.552 75.9544C142.338 75.9238 142.225 75.7735 142.251 75.6148C142.846 72.1246 145.59 68.7985 145.705 68.6593C145.812 68.5313 146.003 68.5174 146.133 68.6148C146.263 68.7178 146.283 68.9015 146.179 69.0267C146.153 69.0601 143.421 72.3751 142.849 75.7095C142.826 75.8514 142.696 75.9544 142.552 75.9544Z" fill="black"/>
<path d="M149.954 78.5458C149.893 78.5458 149.836 78.5291 149.781 78.4929C149.642 78.4011 149.608 78.2202 149.703 78.0866C151.522 75.5426 152.981 68.8487 152.995 68.7819C153.03 68.6232 153.189 68.5258 153.353 68.5536C153.518 68.587 153.625 68.7429 153.59 68.8988C153.529 69.1771 152.091 75.7736 150.202 78.415C150.145 78.5013 150.049 78.5458 149.954 78.5458Z" fill="black"/>
<path d="M110.482 143.731C110.367 143.731 110.26 143.67 110.208 143.562C105.061 132.921 109.125 113.819 109.165 113.627C109.2 113.468 109.356 113.374 109.526 113.401C109.691 113.435 109.795 113.591 109.76 113.749C109.72 113.939 105.697 132.854 110.757 143.317C110.826 143.464 110.762 143.637 110.609 143.706C110.566 143.723 110.526 143.731 110.482 143.731Z" fill="black"/>
<path d="M156.062 169.441H102.754C98.5662 169.441 95.1611 166.159 95.1611 162.124V150.461C95.1611 146.426 98.5662 143.144 102.754 143.144H156.065C160.253 143.144 163.658 146.426 163.658 150.461V162.124C163.655 166.159 160.25 169.441 156.062 169.441ZM102.754 143.731C98.9012 143.731 95.7676 146.751 95.7676 150.461V162.124C95.7676 165.837 98.9012 168.857 102.754 168.857H156.065C159.915 168.857 163.051 165.837 163.051 162.124V150.461C163.051 146.751 159.917 143.731 156.065 143.731H102.754Z" fill="black"/>
<path d="M70.742 141.054H25.4945C25.327 141.054 25.1913 140.923 25.1913 140.762C25.1913 140.6 25.327 140.469 25.4945 140.469H70.742C70.9095 140.469 71.0452 140.6 71.0452 140.762C71.0452 140.923 70.9095 141.054 70.742 141.054Z" fill="black"/>
<path d="M12.331 132.481C12.1634 132.481 12.0277 132.35 12.0277 132.189V88.6046C12.0277 84.5688 15.4327 81.2872 19.6205 81.2872H36.5561C36.7236 81.2872 36.8594 81.418 36.8594 81.5795C36.8594 81.7409 36.7236 81.8717 36.5561 81.8717H19.6205C15.7707 81.8717 12.6371 84.8917 12.6371 88.6018V132.183C12.6342 132.35 12.4985 132.481 12.331 132.481Z" fill="black"/>
<path d="M83.4676 81.8746H55.3059C55.1384 81.8746 55.0027 81.7438 55.0027 81.5824C55.0027 81.4209 55.1384 81.2901 55.3059 81.2901H83.4676C83.6351 81.2901 83.7708 81.4209 83.7708 81.5824C83.7708 81.7438 83.6351 81.8746 83.4676 81.8746Z" fill="black"/>
<path d="M105.319 90.6198C105.157 90.6198 105.021 90.4974 105.015 90.3387C104.934 88.3486 105.896 86.79 106.826 85.2842C107.932 83.4889 109.079 81.6352 108.533 78.9604C107.551 74.1648 100.342 73.0626 100.27 73.0514C100.207 73.0431 100.146 73.0125 100.1 72.9679C97.4024 70.3683 94.1187 68.9905 90.8667 69.1241C87.9902 69.2327 85.3591 70.4713 83.4559 72.6172C81.0992 75.2753 82.7108 79.467 83.8833 81.7299C83.9584 81.8746 83.8978 82.0499 83.7476 82.1223C83.6032 82.1947 83.4155 82.1362 83.3404 81.9915C81.827 79.069 80.5389 75.0025 82.9938 72.2359C85.0068 69.9675 87.7938 68.6538 90.8407 68.5396C94.2168 68.4172 97.6508 69.8144 100.458 72.4864C101.402 72.6423 108.117 73.9059 109.128 78.8463C109.72 81.7382 108.516 83.6921 107.349 85.582C106.422 87.0822 105.55 88.4989 105.622 90.3164C105.628 90.4779 105.498 90.6143 105.33 90.6198C105.327 90.6198 105.321 90.6198 105.319 90.6198Z" fill="black"/>
<path d="M109.928 101.97C109.807 101.97 109.691 101.898 109.645 101.784C109.584 101.633 109.662 101.464 109.818 101.405C111.606 100.74 112.984 99.1367 113.33 97.322C113.743 95.1566 112.64 92.8353 110.587 91.5494C108.701 90.3692 106.142 90.2245 103.742 91.1486C103.586 91.2098 103.41 91.1346 103.346 90.9871C103.283 90.8368 103.358 90.667 103.514 90.6058C106.099 89.6066 108.865 89.7736 110.913 91.0567C113.169 92.4679 114.379 95.0257 113.922 97.425C113.541 99.4373 112.013 101.213 110.032 101.951C110.003 101.962 109.966 101.97 109.928 101.97Z" fill="black"/>
<path d="M82.982 100.289C82.9329 100.289 82.8838 100.278 82.8376 100.253C80.8015 99.1925 80.2845 95.911 81.0932 93.6287C81.9365 91.2433 84.3827 90.4306 84.4838 90.3972C84.6455 90.3443 84.8159 90.4278 84.8679 90.5809C84.9227 90.734 84.8361 90.901 84.6773 90.9511C84.6542 90.9594 82.413 91.7109 81.6679 93.8151C80.8592 96.0947 81.5553 98.917 83.1264 99.7353C83.2737 99.8132 83.3285 99.9886 83.2506 100.131C83.1928 100.234 83.0888 100.289 82.982 100.289Z" fill="black"/>
<path d="M98.9936 84.6635C98.8636 84.6635 98.7452 84.5856 98.7048 84.4603C98.6268 84.2265 98.5546 83.9343 98.4737 83.6003C98.2571 82.7124 97.9568 81.4989 97.2636 80.5191C96.4521 79.3752 95.2795 78.7851 93.6795 78.71C89.0817 78.4956 85.6478 75.7624 85.5034 75.6455C85.3734 75.5425 85.3561 75.3588 85.4658 75.2336C85.5756 75.1083 85.7662 75.0972 85.8933 75.1974C85.9279 75.2252 89.3214 77.9223 93.7084 78.1255C95.4875 78.209 96.8535 78.902 97.7661 80.1907C98.5228 81.2567 98.8376 82.5343 99.0658 83.4667C99.1438 83.7812 99.2131 84.0595 99.2853 84.2822C99.3373 84.4353 99.2477 84.5995 99.0889 84.6496C99.0571 84.6579 99.0253 84.6635 98.9936 84.6635Z" fill="black"/>
<path d="M86.6012 88.4544C86.5203 88.4544 86.4365 88.4238 86.3788 88.3598C86.3355 88.3152 85.3131 87.227 85.3968 86.1164C85.4546 85.3621 85.9976 85.2229 86.5203 85.0921C86.9304 84.9864 87.3925 84.8695 87.8777 84.4742C88.9376 83.6058 88.8423 81.3513 88.8423 81.3291C88.8336 81.1676 88.9636 81.0312 89.1311 81.0229C89.3217 81.0368 89.4401 81.1426 89.4488 81.3012C89.4546 81.407 89.5585 83.8702 88.2733 84.9224C87.6842 85.4039 87.1008 85.5514 86.6763 85.6599C86.1246 85.7991 86.0264 85.8492 86.0033 86.1637C85.9398 87.021 86.8207 87.959 86.8293 87.9673C86.942 88.087 86.9333 88.2707 86.812 88.382C86.7485 88.4294 86.6734 88.4544 86.6012 88.4544Z" fill="black"/>
<path d="M81.6274 93.0274H58.5863C58.4188 93.0274 58.2831 92.8966 58.2831 92.7352C58.2831 92.5738 58.4188 92.4429 58.5863 92.4429H81.6274C81.7949 92.4429 81.9306 92.5738 81.9306 92.7352C81.9306 92.8966 81.7949 93.0274 81.6274 93.0274Z" fill="black"/>
<path d="M39.2442 93.0274H14.453C14.2855 93.0274 14.1498 92.8966 14.1498 92.7352C14.1498 92.5738 14.2855 92.4429 14.453 92.4429H39.2442C39.4117 92.4429 39.5475 92.5738 39.5475 92.7352C39.5475 92.8966 39.4117 93.0274 39.2442 93.0274Z" fill="black"/>
<path d="M80.4433 89.3647C78.9733 89.3647 77.7776 88.2124 77.7776 86.7956C77.7776 85.3789 78.9733 84.2266 80.4433 84.2266C81.9133 84.2266 83.109 85.3789 83.109 86.7956C83.109 88.2124 81.9133 89.3647 80.4433 89.3647ZM80.4433 84.8083C79.3083 84.8083 78.3841 85.699 78.3841 86.7929C78.3841 87.8867 79.3083 88.7774 80.4433 88.7774C81.5783 88.7774 82.5025 87.8867 82.5025 86.7929C82.5025 85.699 81.5783 84.8083 80.4433 84.8083Z" fill="black"/>
<path d="M72.47 89.3647C71 89.3647 69.8043 88.2124 69.8043 86.7956C69.8043 85.3789 71 84.2266 72.47 84.2266C73.94 84.2266 75.1357 85.3789 75.1357 86.7956C75.1386 88.2124 73.9429 89.3647 72.47 89.3647ZM72.47 84.8083C71.335 84.8083 70.4108 85.699 70.4108 86.7929C70.4108 87.8867 71.335 88.7774 72.47 88.7774C73.605 88.7774 74.5292 87.8867 74.5292 86.7929C74.5292 85.699 73.6079 84.8083 72.47 84.8083Z" fill="black"/>
<path d="M130.863 21.9967L130.54 21.5013L130.696 21.7518L130.404 21.8297C130.404 21.8241 130.24 21.2925 129.838 20.3879C129.772 20.2376 129.844 20.0679 130 20.0038C130.159 19.9398 130.332 20.0094 130.398 20.1597C131.126 21.8241 131.06 21.8659 130.863 21.9967ZM55.3028 20.9363C55.2681 20.9363 55.2335 20.9307 55.1988 20.9196C55.04 20.8639 54.962 20.6969 55.0169 20.5438C55.0371 20.4937 55.4963 19.2997 56.6342 17.4821C56.7208 17.343 56.9057 17.2984 57.0501 17.3819C57.1945 17.4654 57.2407 17.6463 57.154 17.7827C56.0508 19.5474 55.5916 20.7331 55.5858 20.7442C55.5425 20.8639 55.427 20.9363 55.3028 20.9363ZM128.541 17.5517C128.437 17.5517 128.336 17.4988 128.279 17.4042C127.71 16.4523 127.074 15.5115 126.387 14.6069C126.289 14.4761 126.318 14.2924 126.453 14.1978C126.586 14.1032 126.777 14.131 126.878 14.2618C127.577 15.1859 128.227 16.1433 128.804 17.1119C128.888 17.2511 128.839 17.432 128.692 17.5127C128.645 17.5378 128.593 17.5517 128.541 17.5517ZM58.8696 15.1441C58.806 15.1441 58.7396 15.1246 58.6847 15.0829C58.5519 14.9855 58.5259 14.8018 58.627 14.6737C59.3345 13.7831 60.1028 12.9147 60.9172 12.088C61.0327 11.9711 61.2262 11.9656 61.3475 12.0769C61.4688 12.1882 61.4746 12.3747 61.3591 12.4916C60.562 13.3043 59.8053 14.1588 59.1093 15.03C59.0515 15.1052 58.962 15.1441 58.8696 15.1441ZM124.426 12.1131C124.342 12.1131 124.261 12.0797 124.201 12.0157C123.43 11.1946 122.604 10.4013 121.746 9.66096C121.622 9.55241 121.61 9.36871 121.723 9.24902C121.835 9.12934 122.029 9.11821 122.15 9.22676C123.022 9.98104 123.863 10.7882 124.648 11.6232C124.761 11.7429 124.752 11.9266 124.628 12.0351C124.573 12.088 124.498 12.1131 124.426 12.1131ZM63.6638 10.251C63.58 10.251 63.4963 10.2176 63.4356 10.1508C63.3259 10.0284 63.3403 9.84466 63.4674 9.73889C64.3425 9.00687 65.2753 8.30269 66.237 7.64026C66.3757 7.54841 66.5634 7.57902 66.6616 7.70984C66.7598 7.84344 66.728 8.02436 66.5894 8.11899C65.6421 8.76751 64.7266 9.46334 63.8659 10.1842C63.8053 10.2288 63.7331 10.251 63.6638 10.251ZM119.233 7.62356C119.17 7.62356 119.109 7.60686 119.054 7.56789C118.13 6.91937 117.154 6.30704 116.154 5.74759C116.01 5.66687 115.961 5.48874 116.045 5.34679C116.128 5.20762 116.316 5.1603 116.461 5.24102C117.48 5.8116 118.474 6.43507 119.412 7.09472C119.548 7.18936 119.577 7.37306 119.479 7.50387C119.418 7.58181 119.326 7.62356 119.233 7.62356ZM69.3475 6.34879C69.2435 6.34879 69.1395 6.29591 69.0847 6.20406C69.0009 6.06489 69.05 5.88397 69.1944 5.80326C70.1995 5.24102 71.2507 4.71219 72.3135 4.23624C72.4666 4.16665 72.6457 4.23067 72.7179 4.37819C72.7872 4.5257 72.7236 4.69827 72.5706 4.76785C71.5222 5.23824 70.4883 5.75594 69.4977 6.31261C69.4543 6.33766 69.3995 6.34879 69.3475 6.34879ZM113.206 4.2418C113.162 4.2418 113.119 4.23345 113.079 4.21397C112.048 3.7575 110.967 3.33722 109.867 2.96704C109.708 2.91415 109.627 2.74715 109.682 2.59407C109.737 2.44377 109.91 2.36027 110.069 2.41594C111.187 2.79447 112.284 3.22032 113.333 3.68514C113.486 3.75194 113.552 3.9245 113.483 4.07202C113.431 4.17779 113.321 4.2418 113.206 4.2418ZM75.6666 3.50144C75.5424 3.50144 75.4269 3.42907 75.3807 3.30939C75.3229 3.1563 75.4038 2.9893 75.5626 2.93364C76.6485 2.54954 77.7749 2.19605 78.9041 1.88989C79.0716 1.84814 79.2334 1.9372 79.2796 2.09029C79.3258 2.24615 79.2305 2.40759 79.0716 2.45212C77.9539 2.7555 76.8449 3.10342 75.7734 3.48195C75.7388 3.49587 75.7012 3.50144 75.6666 3.50144ZM106.627 2.00957C105.457 1.72845 104.316 1.49187 103.161 1.29982C102.996 1.27198 102.887 1.1189 102.916 0.960251C102.944 0.801601 103.1 0.695834 103.268 0.723667C104.438 0.921284 105.593 1.16065 106.702 1.4362C106.864 1.47517 106.962 1.6366 106.918 1.79247C106.887 1.9205 106.762 2.00957 106.627 2.00957ZM82.3814 1.66722C82.2398 1.66722 82.1128 1.57258 82.0839 1.43342C82.0492 1.27477 82.1561 1.12168 82.3207 1.08828C83.4413 0.865617 84.6052 0.673567 85.7806 0.5177C85.9481 0.498217 86.1012 0.609551 86.1214 0.768201C86.1445 0.929634 86.029 1.07715 85.8615 1.09663C84.6976 1.24972 83.5481 1.43898 82.442 1.65887C82.4218 1.66722 82.4016 1.66722 82.3814 1.66722ZM99.756 0.843351C98.6008 0.732017 97.434 0.654084 96.2614 0.612334C96.0939 0.606767 95.964 0.470384 95.9697 0.30895C95.9755 0.1503 96.1113 0.0278334 96.273 0.0278334C97.4686 0.0695834 98.647 0.147517 99.7849 0.25885C99.9524 0.27555 100.074 0.420284 100.056 0.578934C100.042 0.729234 99.912 0.843351 99.756 0.843351ZM89.2954 0.745934C89.1394 0.745934 89.0037 0.629034 88.9922 0.47595C88.9777 0.314517 89.1048 0.17535 89.2723 0.161433C90.4131 0.0779334 91.5914 0.02505 92.7784 0C92.9488 0 93.0846 0.128033 93.0874 0.286684C93.0903 0.448117 92.9575 0.581717 92.79 0.5845C91.6145 0.606767 90.4477 0.659651 89.3185 0.743151C89.3098 0.745934 89.3012 0.745934 89.2954 0.745934Z" fill="black"/>
<path d="M32.2358 112.269H20.2128C20.0453 112.269 19.9095 112.138 19.9095 111.976V100.392C19.9095 100.231 20.0453 100.1 20.2128 100.1H32.2329C32.4004 100.1 32.5362 100.231 32.5362 100.392V111.976C32.5391 112.138 32.4033 112.269 32.2358 112.269ZM20.516 111.684H31.9297V100.684H20.516V111.684Z" fill="black"/>
<path d="M32.2358 131.51H25.1138C24.9463 131.51 24.8106 131.379 24.8106 131.218C24.8106 131.056 24.9463 130.925 25.1138 130.925H31.9326V119.926H20.516V127.53C20.516 127.691 20.3803 127.822 20.2128 127.822C20.0453 127.822 19.9095 127.691 19.9095 127.53V119.631C19.9095 119.469 20.0453 119.338 20.2128 119.338H32.2329C32.4004 119.338 32.5362 119.469 32.5362 119.631V131.215C32.5391 131.379 32.4033 131.51 32.2358 131.51Z" fill="black"/>
<path d="M53.4598 115.948H31.6375C31.47 115.948 31.3342 115.817 31.3342 115.656C31.3342 115.494 31.47 115.364 31.6375 115.364H53.4598C53.6273 115.364 53.763 115.494 53.763 115.656C53.763 115.82 53.6273 115.948 53.4598 115.948Z" fill="black"/>
<path d="M197.009 82.9628C196.926 82.9628 196.839 82.9294 196.778 82.8599C196.668 82.7374 196.683 82.5537 196.81 82.4479C198.396 81.137 200.013 78.3564 199.793 76.4638C199.424 73.2351 196.024 71.0335 189.405 69.7309C183.132 68.4923 180.42 72.1886 180.308 72.3444C180.212 72.478 180.019 72.5114 179.886 72.4224C179.747 72.3305 179.71 72.1496 179.805 72.016C179.834 71.9715 182.823 67.8382 189.529 69.1575C196.437 70.5158 199.993 72.8844 200.397 76.3997C200.64 78.5012 198.941 81.4543 197.206 82.8933C197.148 82.9378 197.079 82.9628 197.009 82.9628Z" fill="black"/>
<path d="M182.523 89.4814C181.385 89.4814 180.46 88.5908 180.46 87.4941C180.46 86.3975 181.388 85.5068 182.523 85.5068C183.66 85.5068 184.585 86.3975 184.585 87.4941C184.582 88.5908 183.66 89.4814 182.523 89.4814ZM182.523 86.0941C181.72 86.0941 181.067 86.7231 181.067 87.4969C181.067 88.2707 181.72 88.8997 182.523 88.8997C183.323 88.8997 183.975 88.2707 183.975 87.4969C183.975 86.7231 183.323 86.0941 182.523 86.0941Z" fill="black"/>
<path d="M187.472 80.6611C187.394 80.6611 187.319 80.6332 187.258 80.5775C187.14 80.4634 187.137 80.2797 187.255 80.1656C187.276 80.1489 189.046 78.4344 191.538 79.6368C191.689 79.7091 191.746 79.8845 191.674 80.0292C191.599 80.174 191.417 80.2296 191.267 80.16C189.187 79.1525 187.749 80.5163 187.691 80.5748C187.628 80.6332 187.55 80.6611 187.472 80.6611Z" fill="black"/>
<path d="M197.084 82.1055C196.963 82.1055 196.847 82.0359 196.801 81.919C196.405 80.9421 195.296 80.9866 195.27 80.9866C195.111 81.0116 194.961 80.8697 194.953 80.7083C194.944 80.5468 195.074 80.4104 195.241 80.4021C195.744 80.3826 196.928 80.6164 197.364 81.7075C197.425 81.8578 197.35 82.0276 197.191 82.086C197.156 82.0999 197.121 82.1055 197.084 82.1055Z" fill="black"/>
<path d="M188.559 114.632C188.408 114.665 188.252 114.498 188.255 114.337C188.276 112.514 187.302 108.984 187.291 108.951C187.247 108.795 187.346 108.634 187.504 108.592C187.681 108.547 187.834 108.645 187.877 108.798C187.917 108.945 188.882 112.438 188.859 114.342C188.862 114.501 188.726 114.632 188.559 114.632Z" fill="black"/>
<path d="M215.576 105.689C215.515 105.689 215.452 105.669 215.397 105.633C215.261 105.539 215.232 105.355 215.33 105.224L215.408 105.118C215.504 104.985 215.689 104.954 215.83 105.043C215.969 105.135 216.003 105.316 215.908 105.449L215.821 105.569C215.764 105.647 215.671 105.689 215.576 105.689ZM217.549 102.736C217.494 102.736 217.442 102.722 217.39 102.694C217.248 102.611 217.202 102.43 217.289 102.293C217.878 101.35 218.461 100.37 219.021 99.379C219.102 99.2343 219.29 99.187 219.434 99.2621C219.582 99.3401 219.637 99.5182 219.556 99.6602C218.99 100.659 218.403 101.647 217.808 102.597C217.754 102.686 217.65 102.736 217.549 102.736ZM220.902 96.8184C220.858 96.8184 220.812 96.81 220.766 96.7878C220.616 96.7154 220.555 96.5428 220.627 96.3953C221.15 95.371 221.644 94.344 222.097 93.3503C222.164 93.2028 222.34 93.1332 222.499 93.2C222.652 93.2641 222.721 93.4366 222.655 93.5869C222.195 94.5861 221.699 95.6188 221.173 96.6514C221.121 96.7571 221.011 96.8184 220.902 96.8184ZM223.717 90.6505C223.68 90.6505 223.645 90.6449 223.608 90.631C223.452 90.5726 223.374 90.4028 223.434 90.2525C223.859 89.1948 224.255 88.1316 224.613 87.0934C224.665 86.9403 224.832 86.8568 224.997 86.9097C225.156 86.9598 225.242 87.1268 225.187 87.2799C224.829 88.3236 224.428 89.3952 223.998 90.464C223.954 90.5781 223.839 90.6505 223.717 90.6505ZM225.915 84.2544C225.673 84.2015 225.577 84.0401 225.624 83.8842C225.93 82.8015 226.207 81.7049 226.441 80.6277C226.476 80.4691 226.655 80.3661 226.799 80.4023C226.964 80.4357 227.07 80.5915 227.036 80.7474C226.799 81.8357 226.519 82.9435 226.207 84.0401C226.172 84.1681 226.051 84.2544 225.915 84.2544Z" fill="black"/>
<path d="M223.62 55.4051C223.513 55.4051 223.409 55.3522 223.354 55.2548C223.094 54.8094 222.82 54.3669 222.531 53.9271C222.441 53.7907 222.485 53.6098 222.626 53.5235C222.773 53.44 222.955 53.479 223.048 53.6154C223.342 54.0635 223.625 54.5144 223.888 54.9681C223.972 55.11 223.92 55.2882 223.77 55.3661C223.724 55.3912 223.672 55.4051 223.62 55.4051ZM220.763 51.3219C220.674 51.3219 220.587 51.2857 220.527 51.2106C219.813 50.3477 219.045 49.5044 218.236 48.7056C218.118 48.5887 218.121 48.405 218.242 48.2909C218.363 48.1823 218.551 48.1795 218.67 48.2964C219.49 49.1092 220.275 49.9664 221 50.8432C221.104 50.9684 221.084 51.1521 220.951 51.2551C220.896 51.2997 220.83 51.3219 220.763 51.3219ZM197.624 51.0714C197.48 51.0714 197.341 51.0659 197.202 51.0519C197.035 51.0352 196.914 50.8905 196.931 50.7291C196.948 50.5704 197.096 50.4619 197.263 50.4674C198.268 50.5676 199.409 50.2392 200.356 49.6102C200.498 49.5183 200.686 49.5517 200.778 49.6853C200.873 49.8189 200.839 49.9998 200.7 50.0917C199.767 50.7124 198.644 51.0686 197.624 51.0714ZM195.334 48.7585C195.117 48.7279 195.008 48.5748 195.034 48.4161C195.143 47.7927 195.455 47.0913 195.961 46.337C196.192 45.9891 196.457 45.6551 196.749 45.3405C196.862 45.2153 197.055 45.2097 197.176 45.3155C197.301 45.424 197.312 45.6077 197.202 45.7274C196.934 46.0169 196.688 46.3286 196.472 46.6515C196.013 47.339 195.73 47.968 195.634 48.5135C195.608 48.6583 195.478 48.7585 195.334 48.7585ZM202.678 47.5449C202.635 47.5449 202.589 47.5366 202.545 47.5143C202.392 47.4447 202.332 47.2694 202.407 47.1247C202.892 46.1616 203.236 45.1095 203.429 44.0018C203.455 43.8431 203.611 43.729 203.779 43.7624C203.943 43.7902 204.056 43.9405 204.027 44.0992C203.822 45.2626 203.461 46.3648 202.95 47.3779C202.901 47.4837 202.794 47.5449 202.678 47.5449ZM215.903 46.4928C215.833 46.4928 215.761 46.4706 215.703 46.4233C214.872 45.7358 213.976 45.0566 213.044 44.4026C212.841 44.2634 212.81 44.0825 212.908 43.9489C213.006 43.8153 213.2 43.7874 213.329 43.8793C214.346 44.589 215.253 45.2793 216.099 45.9751C216.226 46.0809 216.241 46.2646 216.131 46.3871C216.073 46.4566 215.987 46.4928 215.903 46.4928ZM199.756 43.8208C199.643 43.8208 199.536 43.7624 199.484 43.6594C199.409 43.5147 199.47 43.3393 199.62 43.267C200.636 42.7771 201.774 42.4125 203.005 42.1842C203.166 42.1648 203.328 42.2594 203.36 42.4153C203.392 42.5739 203.285 42.727 203.12 42.7576C201.945 42.9747 200.859 43.3226 199.891 43.7874C199.848 43.8125 199.802 43.8208 199.756 43.8208ZM209.988 43.022C208.847 42.727 207.709 42.56 206.528 42.5182C206.361 42.5127 206.231 42.3763 206.236 42.2149C206.242 42.0534 206.372 41.9421 206.551 41.9337C207.782 41.9783 208.963 42.1508 210.069 42.4487C210.231 42.4932 210.323 42.6546 210.28 42.8105C210.242 42.9357 210.121 43.022 209.988 43.022ZM203.862 40.9846C203.706 40.9846 203.574 40.8705 203.559 40.7174C203.461 39.618 203.221 38.5381 202.846 37.5027C202.791 37.3496 202.872 37.1826 203.031 37.1297C203.187 37.074 203.363 37.1575 203.418 37.3106C203.81 38.3906 204.059 39.5206 204.166 40.6673C204.18 40.8288 204.056 40.9707 203.888 40.9846C203.88 40.9846 203.871 40.9846 203.862 40.9846ZM201.572 34.6943C201.474 34.6943 201.376 34.647 201.318 34.5635C200.703 33.6645 199.964 32.8155 199.12 32.039C198.999 31.9277 198.993 31.744 199.112 31.6243C199.227 31.5074 199.421 31.5018 199.539 31.6159C200.414 32.4231 201.182 33.3054 201.823 34.2406C201.916 34.3742 201.878 34.5579 201.737 34.647C201.688 34.6804 201.63 34.6943 201.572 34.6943ZM196.573 30.0628C196.518 30.0628 196.463 30.0489 196.414 30.0183C195.444 29.4366 194.404 28.9467 193.335 28.5626C193.177 28.5069 193.099 28.3372 193.156 28.1869C193.217 28.0338 193.387 27.9558 193.546 28.0143C194.655 28.4123 195.73 28.9189 196.732 29.5201C196.876 29.6064 196.917 29.7873 196.83 29.9237C196.772 30.0127 196.674 30.0628 196.573 30.0628ZM172.957 29.2918C172.853 29.2918 172.752 29.2417 172.697 29.1471C172.611 29.0079 172.66 28.8298 172.804 28.7463C173.708 28.2314 174.82 27.7972 176.111 27.4576C176.276 27.4159 176.44 27.5077 176.486 27.6636C176.53 27.8195 176.434 27.9809 176.273 28.0226C175.034 28.3483 173.971 28.7602 173.113 29.2501C173.064 29.2807 173.012 29.2918 172.957 29.2918ZM190.069 27.7081C188.937 27.5105 187.784 27.3686 186.58 27.2767C186.413 27.2656 186.288 27.1236 186.3 26.9622C186.314 26.8008 186.459 26.6839 186.626 26.6922C187.851 26.7841 189.029 26.9288 190.127 27.1264C190.291 27.157 190.398 27.3101 190.369 27.4688C190.34 27.6107 190.213 27.7081 190.069 27.7081ZM179.62 27.4047C179.467 27.4047 179.337 27.2962 179.32 27.1487C179.299 26.9872 179.418 26.8425 179.585 26.823C180.7 26.6922 181.887 26.6171 183.103 26.5948C183.273 26.5948 183.409 26.7228 183.412 26.8815C183.415 27.0429 183.282 27.1765 183.114 27.1793C181.916 27.1988 180.755 27.2739 179.657 27.402C179.646 27.402 179.631 27.4047 179.62 27.4047Z" fill="black"/>
<path d="M150.366 151.778H108.449C108.281 151.778 108.146 151.647 108.146 151.486C108.146 151.324 108.281 151.193 108.449 151.193H150.369C150.537 151.193 150.672 151.324 150.672 151.486C150.672 151.647 150.534 151.778 150.366 151.778Z" fill="white"/>
<path d="M150.366 161.389H108.449C108.281 161.389 108.146 161.258 108.146 161.097C108.146 160.935 108.281 160.804 108.449 160.804H150.369C150.537 160.804 150.672 160.935 150.672 161.097C150.672 161.261 150.534 161.389 150.366 161.389Z" fill="white"/>
<path d="M237.759 77.4686H220.024C217.722 77.4686 215.845 75.6623 215.845 73.4439V60.9468C215.845 58.7257 217.719 56.9221 220.024 56.9221H237.759C240.061 56.9221 241.938 58.7284 241.938 60.9468V73.4439C241.938 75.6623 240.064 77.4686 237.759 77.4686ZM220.024 57.5066C218.054 57.5066 216.454 59.0513 216.454 60.9468V73.4439C216.454 75.3422 218.057 76.8841 220.024 76.8841H237.759C239.729 76.8841 241.329 75.3394 241.329 73.4439V60.9468C241.329 59.0485 239.726 57.5066 237.759 57.5066H220.024Z" fill="black"/>
<path d="M192.438 88.6715C192.27 88.6715 192.135 88.5407 192.135 88.3793C192.135 88.2178 192.27 88.087 192.438 88.087C193.697 88.087 194.474 87.1045 194.76 86.6592C194.064 86.1944 193.131 85.4763 193.131 84.9808C193.131 84.4798 193.827 81.5267 193.908 81.1927C193.945 81.0341 194.11 80.9339 194.272 80.9728C194.436 81.009 194.537 81.1649 194.5 81.3235C194.205 82.5649 193.74 84.6552 193.74 84.9836C193.781 85.1784 194.523 85.8103 195.332 86.3307C195.456 86.4115 195.502 86.5673 195.438 86.6981C195.398 86.7733 194.451 88.6715 192.438 88.6715Z" fill="black"/>
</svg>
