<svg width="214" height="198" viewBox="0 0 214 198" fill="none" xmlns="http://www.w3.org/2000/svg">
<g clip-path="url(#clip0)">
<path d="M197.36 31.1402V179.559C197.36 185.964 192.167 191.157 185.762 191.157H98.6424C92.2378 191.157 87.0449 185.964 87.0449 179.559V93.3916C87.0449 86.9871 81.852 81.7941 75.4474 81.7941H40.9895C34.5849 81.7941 29.392 76.6012 29.392 70.1966V11.9437C29.392 5.5391 34.5849 0.346191 40.9895 0.346191H140.267C146.862 0.346191 152.21 5.69489 152.21 12.2899V45.8419" stroke="black" stroke-width="3" stroke-miterlimit="10" stroke-dasharray="2.1 2.1"/>
<path d="M116.771 150.444V154.956" stroke="#672ED6" stroke-width="0.6521" stroke-miterlimit="10" stroke-linecap="round" stroke-linejoin="round"/>
<path d="M114.515 152.7H119.027" stroke="#672ED6" stroke-width="0.6521" stroke-miterlimit="10" stroke-linecap="round" stroke-linejoin="round"/>
<path d="M49.8463 95.8265C49.8463 96.8651 49.0039 97.7075 47.9653 97.7075C46.9268 97.7075 46.0844 96.8651 46.0844 95.8265C46.0844 94.788 46.9268 93.9456 47.9653 93.9456C49.0039 93.9456 49.8463 94.788 49.8463 95.8265Z" fill="#D23216" stroke="black" stroke-miterlimit="10"/>
<path d="M57.0239 101.931H4.14275C2.01365 101.931 0.288452 100.206 0.288452 98.0768V64.0459C0.288452 61.9169 2.01365 60.1917 4.14275 60.1917H57.0297C59.1588 60.1917 60.884 61.9169 60.884 64.0459V98.0826C60.8782 100.206 59.153 101.931 57.0239 101.931Z" fill="url(#paint0_linear)" stroke="black" stroke-miterlimit="10"/>
<path d="M53.0139 94.436H8.15288C6.02379 94.436 4.29858 92.7108 4.29858 90.5817V66.4693C4.29858 64.3402 6.02379 62.615 8.15288 62.615H53.0139C55.143 62.615 56.8682 64.3402 56.8682 66.4693V90.5875C56.8682 92.7108 55.143 94.436 53.0139 94.436Z" fill="white" stroke="black" stroke-width="0.8492" stroke-miterlimit="10"/>
<path d="M16.0517 87.7661C15.3363 90.3914 12.5725 92.105 11.3666 94.4361H46.0264C46.8342 93.2071 47.4919 91.8627 47.4112 90.4145C47.2669 87.8238 44.9128 86.0005 43.5049 83.8195C42.0625 81.5865 41.4624 78.7996 41.8663 76.1686C43.7761 63.6825 36.7542 64.0691 35.854 64.046C35.0347 64.0287 32.2998 62.3497 31.215 62.0381C30.0034 61.6861 28.7571 61.4669 27.4935 61.4726C24.4181 61.4784 21.1466 63.094 20.1022 65.9905C19.3002 68.2234 19.9003 70.8545 18.7751 72.9432C17.9443 74.4895 16.2883 75.482 15.544 77.0687C14.0034 80.3518 17.0095 84.2637 16.0517 87.7661Z" fill="black" stroke="black" stroke-miterlimit="10"/>
<path d="M17.1769 94.4361H42.2587C39.7257 90.7664 35.0636 88.4642 29.7207 88.4642C24.372 88.4642 19.7099 90.7664 17.1769 94.4361Z" fill="#31D5B2" stroke="black" stroke-width="0.8738" stroke-miterlimit="10"/>
<path d="M34.631 78.0899L34.1982 86.4043L34.1463 87.7083C34.0944 88.718 33.6501 89.6124 32.9692 90.2644C32.2884 90.9106 31.371 91.303 30.3612 91.303C28.2264 91.303 26.5127 89.5431 26.5646 87.4141L26.5992 84.2521L26.7781 77.2186L34.631 78.0899Z" fill="white" stroke="black" stroke-width="0.7644" stroke-miterlimit="10"/>
<path d="M38.6237 70.6236C38.6237 70.6236 38.941 73.7509 38.4967 77.207C37.989 81.2056 37.5447 85.7869 32.2768 86.2196C25.9991 86.7331 23.9046 79.515 23.9046 79.515C23.9046 79.515 20.9908 78.8342 20.6273 76.8435C20.2638 74.8472 22.4448 74.2471 23.2065 74.8818C23.2065 74.8818 24.072 66.4635 31.8498 66.4635C38.716 66.4635 38.6237 70.6236 38.6237 70.6236Z" fill="white" stroke="black" stroke-width="0.8819" stroke-miterlimit="10"/>
<path d="M35.9175 64.646C35.9175 64.646 35.1905 70.7332 39.1083 72.7412C39.1083 72.7469 41.0701 65.3672 35.9175 64.646Z" fill="black" stroke="black" stroke-miterlimit="10"/>
<path d="M37.1061 65.223C37.1061 65.223 35.7156 70.5255 32.2652 70.8371C28.8148 71.1487 29.4322 73.9355 26.3741 74.2644C24.5566 74.4548 23.7488 76.3473 23.7488 76.3473C23.7488 76.3473 23.4834 74.4721 21.839 73.797C20.183 73.1335 25.7221 59.0954 37.1061 65.223Z" fill="black" stroke="black" stroke-miterlimit="10"/>
<path d="M31.2038 77.2186C31.2038 77.5475 30.9326 77.8187 30.6037 77.8187C30.2749 77.8187 30.0037 77.5475 30.0037 77.2186C30.0037 76.8897 30.2749 76.6185 30.6037 76.6185C30.9326 76.6185 31.2038 76.8897 31.2038 77.2186Z" fill="black"/>
<path d="M36.6333 77.2186C36.6333 77.5475 36.3621 77.8187 36.0332 77.8187C35.7043 77.8187 35.4331 77.5475 35.4331 77.2186C35.4331 76.8897 35.7043 76.6185 36.0332 76.6185C36.3621 76.6185 36.6333 76.8897 36.6333 77.2186Z" fill="black"/>
<path d="M28.463 75.903C28.463 75.903 29.3516 74.4374 31.2499 74.9683" stroke="black" stroke-width="1.0712" stroke-miterlimit="10" stroke-linecap="round" stroke-linejoin="round"/>
<path d="M34.5156 74.9395C34.5156 74.9395 35.8831 73.6932 37.2275 75.0606" stroke="black" stroke-width="1.0712" stroke-miterlimit="10" stroke-linecap="round" stroke-linejoin="round"/>
<path d="M33.3154 76.4281C33.3154 76.4281 33.9617 78.0841 34.5156 79.1169C35.0695 80.1497 33.4366 80.6055 33.4366 80.6055" stroke="black" stroke-width="0.8034" stroke-miterlimit="10" stroke-linecap="round" stroke-linejoin="round"/>
<path d="M29.715 81.7883C29.715 81.7883 30.7709 83.3289 32.6172 82.8846" stroke="black" stroke-width="0.8034" stroke-miterlimit="10" stroke-linecap="round" stroke-linejoin="round"/>
<path d="M23.2239 77.5705C23.2239 77.5705 23.2008 75.7069 21.8103 76.2146" stroke="black" stroke-width="0.8034" stroke-miterlimit="10" stroke-linecap="round" stroke-linejoin="round"/>
<path d="M32.3172 98.071C32.3172 98.9826 31.5787 99.7211 30.667 99.7211C29.7554 99.7211 29.0168 98.9826 29.0168 98.071C29.0168 97.1593 29.7554 96.4208 30.667 96.4208C31.5787 96.4208 32.3172 97.1593 32.3172 98.071Z" fill="#FF373B"/>
<path d="M32.0115 98.071C32.0057 98.6249 31.6653 99.1442 31.1344 99.3346C30.5921 99.5308 29.9747 99.3635 29.6112 98.9134C29.265 98.4807 29.2246 97.8575 29.5073 97.3786C29.7901 96.9055 30.3555 96.6458 30.8979 96.7439C31.5441 96.8593 32.0057 97.4248 32.0115 98.071C32.0172 98.4634 32.6288 98.4634 32.6231 98.071C32.6115 97.2517 32.1038 96.5247 31.3364 96.2304C30.5805 95.9419 29.6747 96.1842 29.1611 96.8132C28.6419 97.4479 28.5495 98.3595 28.9765 99.0692C29.4035 99.7789 30.2286 100.137 31.0364 99.9866C31.9538 99.8193 32.6058 98.9827 32.6173 98.0652C32.6288 97.6787 32.0172 97.6787 32.0115 98.071Z" fill="black"/>
<path d="M154.939 109.894H145.257C143.521 109.894 142.355 108.116 143.048 106.524L148.264 94.4706L152.729 84.1598C153.566 82.2211 156.313 82.2211 157.155 84.1598L161.621 94.4706L166.837 106.524C167.523 108.116 166.358 109.894 164.627 109.894H154.939Z" fill="#00C5A3" stroke="black" stroke-miterlimit="10"/>
<path d="M203.02 99.4962H104.216C100.812 99.4962 98.0537 96.7382 98.0537 93.334V22.843C98.0537 19.4388 100.812 16.6808 104.216 16.6808H203.02C206.424 16.6808 209.182 19.4388 209.182 22.843V93.334C209.182 96.7382 206.424 99.4962 203.02 99.4962Z" fill="#00D6A8" stroke="black" stroke-miterlimit="10"/>
<path d="M157.894 90.2066C157.894 91.776 156.618 93.0512 155.049 93.0512C153.48 93.0512 152.204 91.776 152.204 90.2066C152.204 88.6372 153.48 87.3621 155.049 87.3621C156.624 87.3621 157.894 88.6314 157.894 90.2066Z" fill="#FFA55C" stroke="black" stroke-width="0.7846" stroke-miterlimit="10"/>
<path d="M201.543 83.9463H107.522C105.959 83.9463 104.695 82.6827 104.695 81.1191V25.8664C104.695 24.3028 105.959 23.0392 107.522 23.0392H201.543C203.106 23.0392 204.37 24.3028 204.37 25.8664V81.1191C204.37 82.6769 203.101 83.9463 201.543 83.9463Z" fill="white" stroke="black" stroke-width="0.7846" stroke-miterlimit="10"/>
<path d="M117.445 76.5631H173.349C176.713 76.5631 179.437 73.8398 179.437 70.4759V31.2636C179.437 27.8998 176.713 25.1764 173.349 25.1764H117.445C114.081 25.1764 111.357 27.8998 111.357 31.2636V70.4759C111.357 73.8398 114.087 76.5631 117.445 76.5631Z" fill="white" stroke="black" stroke-width="0.7846" stroke-miterlimit="10"/>
<path d="M118.004 29.8789C118.004 30.5193 117.491 31.0386 116.856 31.0386C116.221 31.0386 115.708 30.5193 115.708 29.8789C115.708 29.2384 116.221 28.7191 116.856 28.7191C117.491 28.7191 118.004 29.2384 118.004 29.8789Z" fill="#00D6A8" stroke="black" stroke-width="0.7846" stroke-miterlimit="10"/>
<path d="M122.591 29.8789C122.591 30.5193 122.078 31.0386 121.443 31.0386C120.809 31.0386 120.295 30.5193 120.295 29.8789C120.295 29.2384 120.809 28.7191 121.443 28.7191C122.072 28.7191 122.591 29.2384 122.591 29.8789Z" fill="#00D6A8" stroke="black" stroke-width="0.7846" stroke-miterlimit="10"/>
<path d="M127.173 29.8789C127.173 30.5193 126.659 31.0386 126.024 31.0386C125.39 31.0386 124.876 30.5193 124.876 29.8789C124.876 29.2384 125.39 28.7191 126.024 28.7191C126.659 28.7191 127.173 29.2384 127.173 29.8789Z" fill="#00D6A8" stroke="black" stroke-width="0.7846" stroke-miterlimit="10"/>
<path d="M111.519 33.9581H179.442" stroke="black" stroke-width="0.7846" stroke-miterlimit="10"/>
<path d="M175.582 55.4971H162.9V63.4018H175.582V55.4971Z" stroke="#FFA55C" stroke-width="0.7846" stroke-miterlimit="10"/>
<path d="M164.452 57.5742H173.661" stroke="#FFA55C" stroke-width="0.7846" stroke-miterlimit="10"/>
<path d="M164.452 59.011H173.661" stroke="#FFA55C" stroke-width="0.7846" stroke-miterlimit="10"/>
<path d="M164.452 60.4476H173.661" stroke="#FFA55C" stroke-width="0.7846" stroke-miterlimit="10"/>
<path d="M147.875 47.3731V38.0951C142.751 38.0951 138.597 42.2494 138.597 47.3731C138.597 52.4968 142.751 56.6511 147.875 56.6511C152.999 56.6511 157.153 52.4968 157.153 47.3731C157.153 46.7038 157.078 46.046 156.94 45.4171L147.875 47.3731Z" fill="#00D6A8"/>
<path d="M158.076 43.79C157.176 39.6068 153.46 36.468 149.012 36.468V45.746L158.076 43.79Z" fill="#E4B0C8"/>
<path d="M130.433 38.6432H119.314C118.881 38.6432 118.535 38.2912 118.535 37.8643C118.535 37.4315 118.887 37.0853 119.314 37.0853H130.433C130.866 37.0853 131.212 37.4373 131.212 37.8643C131.212 38.297 130.866 38.6432 130.433 38.6432Z" stroke="#FFA55C" stroke-width="0.7846" stroke-miterlimit="10"/>
<path d="M119.332 39.8087H130.092" stroke="#FFA55C" stroke-width="0.7846" stroke-miterlimit="10"/>
<path d="M119.332 41.2455H130.092" stroke="#FFA55C" stroke-width="0.7846" stroke-miterlimit="10"/>
<path d="M119.332 42.6821H130.092" stroke="#FFA55C" stroke-width="0.7846" stroke-miterlimit="10"/>
<path d="M132.014 38.1066H136.076L141.926 43.4668" stroke="#FFA55C" stroke-width="0.7846" stroke-miterlimit="10"/>
<path d="M174.798 39.5491H163.679C163.246 39.5491 162.9 39.1971 162.9 38.7701C162.9 38.3374 163.252 37.9912 163.679 37.9912H174.798C175.23 37.9912 175.577 38.3432 175.577 38.7701C175.577 39.2029 175.23 39.5491 174.798 39.5491Z" stroke="#FFA55C" stroke-width="0.7846" stroke-miterlimit="10"/>
<path d="M163.696 40.7089H174.457" stroke="#FFA55C" stroke-width="0.7846" stroke-miterlimit="10"/>
<path d="M163.696 42.1512H174.457" stroke="#FFA55C" stroke-width="0.7846" stroke-miterlimit="10"/>
<path d="M163.696 43.588H174.457" stroke="#FFA55C" stroke-width="0.7846" stroke-miterlimit="10"/>
<path d="M163.696 45.0825H174.457" stroke="#FFA55C" stroke-width="0.7846" stroke-miterlimit="10"/>
<path d="M163.696 46.5193H174.457" stroke="#FFA55C" stroke-width="0.7846" stroke-miterlimit="10"/>
<path d="M163.696 47.9559H174.457" stroke="#FFA55C" stroke-width="0.7846" stroke-miterlimit="10"/>
<path d="M158.578 39.1913H162.063" stroke="#FFA55C" stroke-width="0.7846" stroke-miterlimit="10"/>
<path d="M120.139 51.0601V69.2872H147.731" stroke="#FFA55C" stroke-width="0.7846" stroke-miterlimit="10"/>
<path d="M120.139 51.164H119.159L119.649 50.31L120.139 49.4561L120.636 50.31L121.126 51.164H120.139Z" fill="#FFA55C"/>
<path d="M147.437 69.2873V68.3064L148.285 68.7968L149.139 69.2873L148.285 69.7835L147.437 70.2739V69.2873Z" fill="#FFA55C"/>
<path d="M117.86 67.7812L124.565 61.7401L130.087 67.6716L137.045 54.9259L142.134 67.3658" stroke="#FF373B" stroke-width="0.7846" stroke-miterlimit="10"/>
<path d="M115.558 58.7917C115.558 58.7917 115.8 58.5379 116.21 58.1686" stroke="#00D6A8" stroke-width="0.7846" stroke-miterlimit="10"/>
<path d="M117.549 57.0551C119.331 55.7165 121.911 54.3317 123.549 55.9126C126.261 58.5264 125.621 60.5343 131.062 59.363C136.18 58.261 142.469 59.7842 144.315 68.5198" stroke="#00D6A8" stroke-width="0.7846" stroke-miterlimit="10" stroke-dasharray="3.02 3.02"/>
<path d="M144.483 69.3796C144.534 69.6681 144.575 69.9682 144.615 70.274" stroke="#00D6A8" stroke-width="0.7846" stroke-miterlimit="10"/>
<path d="M147.814 55.1025C147.814 55.1025 145.028 53.7927 145.241 52.9619C145.455 52.131 146.262 52.4772 146.262 52.4772C146.262 52.4772 145.431 52.1079 145.72 51.5425C146.008 50.977 146.51 51.104 146.51 51.104C146.51 51.104 145.864 50.3769 146.343 50.0134C146.822 49.6499 147.641 49.7307 147.641 49.7307C147.641 49.7307 147.255 49.1076 147.237 48.871C147.22 48.6344 147.491 48.0748 148.622 48.1844C149.753 48.294 152.269 49.2864 153.111 49.5865C153.954 49.8865 154.969 50.7001 154.958 50.3943C154.94 50.0884 155.027 48.1151 155.702 47.4574C156.377 46.7938 156.66 46.6669 156.937 47.717C157.214 48.7671 157.571 51.756 159.308 53.7581C161.045 55.7603 161.737 57.1566 163.503 58.7318C165.268 60.307 165.707 61.1032 165.707 61.1032L159.377 66.6135C159.377 66.6135 151.911 58.4606 151.853 58.3971C151.79 58.3279 149.268 55.9507 147.814 55.1025Z" fill="white" stroke="black" stroke-width="0.7305" stroke-miterlimit="10"/>
<path d="M146.025 52.454C146.025 52.454 144.986 51.1731 146.608 51.1327C148.235 51.0923 150.606 52.2867 151.754 52.9329" stroke="black" stroke-width="0.7305" stroke-miterlimit="10"/>
<path d="M153.924 55.8609C153.924 55.8609 153.099 54.1472 155.557 53.0682C155.557 53.0682 154.079 49.3928 155.701 47.4599C157.322 45.527 156.895 50.0102 158.476 52.4912C160.063 54.9781 161.8 57.3495 163.294 58.567C164.794 59.7844 165.706 61.1057 165.706 61.1057L160.403 67.1468C160.403 67.1468 157.034 64.3715 152.614 59.2363C148.194 54.1011 144.928 54.4069 145.24 52.9644C145.621 51.1872 150.485 54.6088 150.485 54.6088" stroke="black" stroke-width="0.7305" stroke-miterlimit="10"/>
<path d="M146.607 51.127C146.607 51.127 145.644 50.2211 146.659 49.8172C146.827 49.748 147.046 49.7191 147.3 49.7191C148.587 49.7134 150.82 50.4981 152.51 51.479" stroke="black" stroke-width="0.7305" stroke-miterlimit="10"/>
<path d="M155.003 50.6768C155.003 50.6768 151.627 48.2708 148.142 48.265C146.884 48.2593 147.098 49.4883 148.379 49.846" stroke="black" stroke-width="0.7305" stroke-miterlimit="10"/>
<path fill-rule="evenodd" clip-rule="evenodd" d="M162.879 57.9527C162.879 57.9527 159.659 59.3317 157.322 64.2304C157.322 64.2304 157.253 64.5939 157.57 65.0324C157.888 65.4709 170.899 76.6761 170.899 76.6761C178.994 79.561 180.956 71.6505 182.75 67.7558C184.325 64.3285 185.035 56.2968 188.185 49.4421C179.784 51.3866 182.046 49.6268 178.111 57.1796L172.722 67.5308L162.879 57.9527Z" fill="#313132" stroke="black" stroke-width="0.7305" stroke-miterlimit="10"/>
<path fill-rule="evenodd" clip-rule="evenodd" d="M181.083 83.9462H201.883C203.152 83.8654 204.283 82.6076 204.387 81.3671V49.9557L200.902 48.7844L194.907 50.325L192.478 48.6979L187.262 50.0538C187.262 50.0538 183.033 56.2622 182.583 57.1335C182.133 58.0047 180.321 61.8936 179.94 63.8381C179.565 65.7826 180.315 68.529 181.071 70.0061L181.083 83.9462Z" fill="#FEFEFF" stroke="black" stroke-width="0.7305" stroke-miterlimit="10"/>
<path fill-rule="evenodd" clip-rule="evenodd" d="M198.439 47.6766L194.815 51.3867L197.671 55.6449L200.902 48.7787L198.439 47.6766Z" fill="#DBDADB" stroke="black" stroke-width="0.6866" stroke-miterlimit="10"/>
<path fill-rule="evenodd" clip-rule="evenodd" d="M194.815 51.3868L192.449 47.4921L191.29 48.9865L190.874 55.293L194.815 51.3868Z" fill="#DBDADB" stroke="black" stroke-width="0.6866" stroke-miterlimit="10"/>
<path fill-rule="evenodd" clip-rule="evenodd" d="M180.281 79.6593C180.281 79.6593 180.09 81.4422 179.813 83.9463H184.147L184.302 76.7282C184.302 76.7282 184.441 71.4083 184.424 70.4044C184.406 69.4004 184.285 69.0542 184.285 69.0542C183.806 66.325 184.014 65.3038 184.424 64.0748C184.833 62.8458 189.501 49.4134 189.501 49.4134C189.276 49.148 187.943 49.4308 187.943 49.4308L185.641 49.852C183.431 50.5617 184.793 51.4271 182.773 55.0218C182.087 56.2508 181.389 57.474 180.887 58.3106C177.679 63.6536 179.242 65.1711 180.713 70.8256L180.281 79.6593Z" fill="#4D4C4E" stroke="black" stroke-width="0.7305" stroke-miterlimit="10"/>
<path fill-rule="evenodd" clip-rule="evenodd" d="M192.611 56.6892C192.253 56.6892 191.93 56.9777 191.89 57.3354C191.849 57.6932 192.103 57.9817 192.461 57.9817C192.819 57.9817 193.142 57.6932 193.182 57.3354C193.228 56.9777 192.969 56.6892 192.611 56.6892Z" fill="#DBDADB" stroke="black" stroke-width="0.6866" stroke-miterlimit="10"/>
<path fill-rule="evenodd" clip-rule="evenodd" d="M190.014 63.5093C189.657 63.5093 189.334 63.7978 189.293 64.1555C189.253 64.5132 189.507 64.8017 189.87 64.8017C190.228 64.8017 190.551 64.5132 190.591 64.1555C190.626 63.7978 190.372 63.5093 190.014 63.5093Z" fill="#DBDADB" stroke="black" stroke-width="0.6866" stroke-miterlimit="10"/>
<path fill-rule="evenodd" clip-rule="evenodd" d="M189.311 76.6934C188.953 76.6934 188.63 76.4049 188.589 76.0471C188.549 75.6894 188.809 75.4009 189.166 75.4009C189.524 75.4009 189.847 75.6894 189.888 76.0471C189.922 76.4049 189.668 76.6934 189.311 76.6934Z" fill="#DBDADB" stroke="black" stroke-width="0.6866" stroke-miterlimit="10"/>
<path d="M163.981 58.3278C162.515 56.568 161.534 55.1775 161.534 55.1775L154.039 61.5994C154.039 61.5994 154.991 63.0765 156.433 65.0786L163.981 58.3278Z" fill="white" stroke="black" stroke-width="0.6991" stroke-miterlimit="10"/>
<path d="M162.14 57.6124C162.14 57.8951 161.909 58.1201 161.632 58.1201C161.349 58.1201 161.124 57.8893 161.124 57.6124C161.124 57.3296 161.355 57.1046 161.632 57.1046C161.915 57.0988 162.14 57.3296 162.14 57.6124Z" fill="white" stroke="black" stroke-width="0.6991" stroke-miterlimit="10"/>
<path fill-rule="evenodd" clip-rule="evenodd" d="M204.37 49.1826C204.185 49.1133 203.897 49.0787 203.724 49.0845C202.979 49.1306 202.725 49.3672 202.725 49.3672C195.877 67.7097 194.261 73.018 195.617 83.9405H201.825C203.124 83.8135 204.376 82.6249 204.37 81.3152V49.1826Z" fill="#4D4C4E" stroke="black" stroke-width="0.7305" stroke-miterlimit="10"/>
<path d="M203.014 38.8661C203.014 40.4644 201.71 41.7626 200.095 41.7626C198.485 41.7626 197.175 40.4644 197.175 38.8661C197.175 37.2678 198.479 35.9696 200.095 35.9696C201.704 35.9696 203.014 37.2678 203.014 38.8661Z" stroke="black" stroke-width="1.5655" stroke-miterlimit="10"/>
<path d="M190.297 29.8823H193.961C196.396 29.8823 198.393 32.1557 198.393 34.9252V40.6086C198.393 40.7701 198.387 40.9259 198.369 41.0817C198.41 41.249 198.433 41.4221 198.433 41.601V45.0629V45.2533V48.7153C198.433 49.9731 197.406 51.0002 196.148 51.0002H194.694C193.436 51.0002 192.409 49.9731 192.409 48.7153V45.6515H190.292C187.857 45.6515 185.86 43.3839 185.86 40.6086V34.9252C185.866 32.1557 187.863 29.8823 190.297 29.8823Z" fill="white" stroke="black" stroke-width="0.7827" stroke-miterlimit="10"/>
<path d="M197.435 38.7737L196.76 34.3251C196.76 34.3251 184.447 35.8714 180.454 29.8881C176.461 23.9047 180.656 21.539 182.687 21.8737C184.718 22.2141 187.089 25.1221 187.089 25.1221C187.089 25.1221 185.203 22.5487 187.089 22.1449C188.976 21.741 191.065 23.7027 192.155 25.7337C192.155 25.7337 200.273 24.9779 203.02 29.8881C205.766 34.7982 203.539 38.2833 198.519 43.3608L198.185 40.522L197.435 38.7737Z" fill="black" stroke="black" stroke-miterlimit="10"/>
<path d="M211.559 24.4932C211.559 27.3724 209.223 29.7092 206.343 29.7092C203.464 29.7092 201.127 27.3724 201.127 24.4932C201.127 21.614 203.464 19.2772 206.343 19.2772C209.223 19.2772 211.559 21.614 211.559 24.4932Z" fill="black" stroke="black" stroke-miterlimit="10"/>
<path d="M192.53 36.7081C192.53 37.1235 192.196 37.4582 191.78 37.4582C191.365 37.4582 191.03 37.1235 191.03 36.7081C191.03 36.2927 191.365 35.958 191.78 35.958C192.196 35.958 192.53 36.2927 192.53 36.7081Z" fill="#141414"/>
<path d="M187.632 36.5985C187.632 36.9504 187.343 37.2389 186.991 37.2389C186.639 37.2389 186.351 36.9504 186.351 36.5985C186.351 36.2465 186.639 35.958 186.991 35.958C187.343 35.958 187.632 36.2465 187.632 36.5985Z" fill="#141414"/>
<path d="M188.341 39.6622C188.341 39.6622 188.716 40.7585 189.512 40.8335C190.308 40.9085 190.932 40.0257 190.972 39.3391L188.341 39.6622Z" fill="#F7F6F6"/>
<path d="M188.099 39.7315C188.243 40.1527 188.503 40.5624 188.855 40.8278C189.472 41.3009 190.286 41.0701 190.747 40.4989C191.018 40.1642 191.191 39.7719 191.226 39.3391C191.238 39.2122 191.105 39.0737 190.972 39.0853C190.205 39.1776 189.437 39.2757 188.664 39.368C188.555 39.3795 188.445 39.3968 188.335 39.4084C188.203 39.4257 188.081 39.5122 188.081 39.6623C188.081 39.7834 188.197 39.9334 188.335 39.9161C189.103 39.8238 189.87 39.7257 190.643 39.6334C190.753 39.6219 190.863 39.6046 190.972 39.593C190.886 39.5065 190.805 39.4257 190.718 39.3391C190.684 39.8296 190.309 40.4239 189.795 40.5624C189.31 40.6893 188.958 40.3143 188.733 39.9219C188.682 39.8354 188.641 39.743 188.601 39.6565C188.583 39.6161 188.618 39.7084 188.601 39.6623C188.595 39.6507 188.595 39.6392 188.589 39.6276C188.583 39.6161 188.583 39.6046 188.578 39.593C188.48 39.2872 187.995 39.4199 188.099 39.7315Z" fill="#141414"/>
<path d="M195.571 36.2696C195.571 37.8851 194.4 39.1891 192.957 39.1891C191.515 39.1891 190.343 37.8794 190.343 36.2696C190.343 34.654 191.515 33.35 192.957 33.35C194.4 33.35 195.571 34.654 195.571 36.2696Z" stroke="#672ED6" stroke-width="0.7827" stroke-miterlimit="10"/>
<path d="M186.443 38.5198C187.632 38.5198 188.595 37.3495 188.595 35.906C188.595 34.4625 187.632 33.2922 186.443 33.2922C185.254 33.2922 184.291 34.4625 184.291 35.906C184.291 37.3495 185.254 38.5198 186.443 38.5198Z" stroke="#672ED6" stroke-width="0.7827" stroke-miterlimit="10"/>
<path d="M189.438 35.9695V38.5082L188.105 37.7004L189.438 35.9695Z" fill="black"/>
<path d="M188.532 36.6849C188.532 36.6849 189.582 36.2406 190.349 36.8753" stroke="#672ED6" stroke-width="0.7827" stroke-miterlimit="10"/>
<path d="M203.014 38.8661C203.014 40.4644 201.71 41.7626 200.095 41.7626C198.485 41.7626 197.175 40.4644 197.175 38.8661C197.175 37.2678 198.479 35.9696 200.095 35.9696C201.704 35.9696 203.014 37.2678 203.014 38.8661Z" fill="white" stroke="black" stroke-miterlimit="10"/>
<path d="M198.825 39.2469C198.82 39.1835 198.825 39.12 198.825 39.0565C198.825 39.0277 198.831 38.9988 198.831 38.97C198.831 38.9527 198.837 38.9354 198.837 38.9238C198.848 38.8373 198.825 39.0046 198.837 38.9354C198.848 38.8546 198.866 38.7738 198.883 38.6988C198.895 38.6584 198.906 38.618 198.918 38.5776C198.923 38.5545 198.935 38.5315 198.941 38.5084C198.947 38.4968 198.947 38.4853 198.952 38.4795C198.97 38.4276 198.952 38.4853 198.941 38.5026C198.998 38.4161 199.033 38.318 199.091 38.2314C199.097 38.2257 199.102 38.2141 199.108 38.2083C199.131 38.1737 199.143 38.1968 199.097 38.2257C199.114 38.2141 199.131 38.1853 199.143 38.168C199.177 38.1276 199.218 38.0872 199.264 38.0526C199.27 38.0468 199.281 38.041 199.287 38.0352C199.316 38.0122 199.333 38.0237 199.275 38.0468C199.299 38.041 199.322 38.0122 199.339 38.0006C199.391 37.966 199.443 37.9372 199.5 37.9083C199.506 37.9025 199.564 37.8795 199.512 37.9025C199.46 37.9256 199.529 37.8968 199.541 37.891C199.575 37.8795 199.61 37.8679 199.645 37.8564C199.685 37.8448 199.72 37.8391 199.76 37.8275C199.772 37.8275 199.789 37.8218 199.8 37.8218C199.812 37.8218 199.829 37.816 199.841 37.816C199.876 37.8102 199.87 37.8102 199.824 37.816C199.858 37.7987 199.922 37.8044 199.956 37.8044C200.002 37.7987 200.049 37.7987 200.095 37.7987C200.199 37.7987 200.297 37.8044 200.401 37.816C200.562 37.8333 200.718 37.6602 200.712 37.5044C200.706 37.3198 200.574 37.2101 200.401 37.1928C199.772 37.1294 199.085 37.2678 198.664 37.7756C198.375 38.1218 198.243 38.5488 198.202 38.9931C198.196 39.0796 198.191 39.1662 198.196 39.2527C198.208 39.4143 198.329 39.5701 198.508 39.5643C198.675 39.5527 198.837 39.4258 198.825 39.2469Z" fill="#090909"/>
<path d="M201.543 83.9463H107.522C105.959 83.9463 104.695 82.6827 104.695 81.1191V25.8664C104.695 24.3028 105.959 23.0392 107.522 23.0392H201.543C203.106 23.0392 204.37 24.3028 204.37 25.8664V81.1191C204.37 82.6769 203.101 83.9463 201.543 83.9463Z" stroke="black" stroke-width="0.7846" stroke-miterlimit="10"/>
<path d="M150.283 21.2218H168.389C170.703 21.2218 172.578 23.097 172.578 25.4108V32.802V35.3869V43.4879L168.32 39.5759H150.283C147.969 39.5759 146.094 37.7006 146.094 35.3869V25.4108C146.094 23.097 147.969 21.2218 150.283 21.2218Z" fill="white" stroke="black" stroke-width="0.7846" stroke-miterlimit="10"/>
<path d="M154.01 30.1536C154.01 31.3018 153.081 32.225 151.939 32.225C150.791 32.225 149.868 31.296 149.868 30.1536C149.868 29.0111 150.797 28.0822 151.939 28.0822C153.081 28.0822 154.01 29.0053 154.01 30.1536Z" fill="#FF373B"/>
<path d="M161.223 30.1536C161.223 31.3018 160.294 32.225 159.151 32.225C158.009 32.225 157.08 31.296 157.08 30.1536C157.08 29.0111 158.009 28.0822 159.151 28.0822C160.294 28.0822 161.223 29.0053 161.223 30.1536Z" fill="#FF373B"/>
<path d="M168.441 30.1536C168.441 31.3018 167.512 32.225 166.369 32.225C165.227 32.225 164.298 31.296 164.298 30.1536C164.298 29.0111 165.227 28.0822 166.369 28.0822C167.512 28.0822 168.441 29.0053 168.441 30.1536Z" fill="#FF373B"/>
<path d="M76.8147 49.0903H57.7914C55.3622 49.0903 53.3889 51.0636 53.3889 53.4928V61.2591V63.9767V72.4873L57.8664 68.3791H76.8205C79.2496 68.3791 81.2229 66.4058 81.2229 63.9767V53.4928C81.2172 51.0636 79.2438 49.0903 76.8147 49.0903Z" fill="white" stroke="black" stroke-width="0.7743" stroke-miterlimit="10"/>
<path d="M62.9495 59.0838C62.9495 60.1397 62.0956 60.9994 61.0339 60.9994C59.978 60.9994 59.1183 60.1455 59.1183 59.0838C59.1183 58.0222 59.9722 57.1682 61.0339 57.1682C62.0898 57.1682 62.9495 58.0279 62.9495 59.0838Z" fill="#FF373B"/>
<path d="M69.6023 59.0838C69.6023 60.1397 68.7484 60.9994 67.6867 60.9994C66.6251 60.9994 65.7711 60.1455 65.7711 59.0838C65.7711 58.0222 66.6251 57.1682 67.6867 57.1682C68.7484 57.1682 69.6023 58.0279 69.6023 59.0838Z" fill="#FF373B"/>
<path d="M76.2607 59.0838C76.2607 60.1397 75.4067 60.9994 74.3451 60.9994C73.2892 60.9994 72.4294 60.1455 72.4294 59.0838C72.4294 58.0222 73.2834 57.1682 74.3451 57.1682C75.4067 57.1682 76.2607 58.0279 76.2607 59.0838Z" fill="#FF373B"/>
<path d="M115.012 172.289H62.1246C59.9955 172.289 58.2703 170.564 58.2703 168.435V134.398C58.2703 132.269 59.9955 130.544 62.1246 130.544H115.012C117.141 130.544 118.866 132.269 118.866 134.398V168.435C118.86 170.564 117.141 172.289 115.012 172.289Z" fill="url(#paint1_linear)" stroke="black" stroke-miterlimit="10"/>
<path d="M90.3048 168.429C90.3048 169.341 89.5662 170.079 88.6546 170.079C87.7429 170.079 87.0044 169.341 87.0044 168.429C87.0044 167.518 87.7429 166.779 88.6546 166.779C89.5662 166.773 90.3048 167.518 90.3048 168.429Z" fill="#00D6A8"/>
<path d="M89.999 168.429C89.9933 168.983 89.6528 169.502 89.122 169.693C88.5796 169.889 87.9623 169.722 87.5988 169.272C87.2526 168.839 87.2122 168.216 87.4949 167.737C87.7776 167.264 88.3431 167.004 88.8854 167.102C89.5317 167.218 89.9933 167.777 89.999 168.429C90.0048 168.822 90.6164 168.822 90.6106 168.429C90.5991 167.61 90.0913 166.883 89.3239 166.594C88.5681 166.306 87.6622 166.548 87.1487 167.177C86.6294 167.812 86.5371 168.723 86.9641 169.433C87.391 170.143 88.2161 170.501 89.0239 170.351C89.9413 170.183 90.5933 169.347 90.6049 168.429C90.6164 168.031 90.0048 168.031 89.999 168.429Z" fill="black"/>
<path d="M111.001 164.794H66.1403C64.0112 164.794 62.286 163.069 62.286 160.94V136.828C62.286 134.698 64.0112 132.973 66.1403 132.973H111.001C113.13 132.973 114.856 134.698 114.856 136.828V160.94C114.85 163.069 113.125 164.794 111.001 164.794Z" fill="white" stroke="black" stroke-miterlimit="10"/>
<path d="M95.036 164.794C91.7702 159.653 86.7446 156.353 81.1017 156.353C75.4587 156.353 70.4389 159.653 67.1674 164.794H95.036Z" fill="white" stroke="black" stroke-width="0.8492" stroke-miterlimit="10"/>
<path d="M93.23 162.74C94.1993 163.017 97.6266 164.402 98.5729 164.789H100.979C100.99 164.748 101.002 164.708 101.014 164.662C101.36 163.294 102.266 158.73 102.266 158.73C102.266 158.73 102.895 155.47 102.375 154.859C101.856 154.247 101.36 154.905 101.106 155.73C100.846 156.555 100.442 158.113 100.442 158.113L98.8095 154.824C98.8095 154.824 102.45 152.17 102.583 151.691C102.721 151.206 102.75 150.883 102.496 150.877C102.243 150.877 101.469 151.079 101.469 151.079C101.469 151.079 102.698 149.896 102.318 149.475C101.937 149.054 100.604 150.023 100.604 150.023C100.604 150.023 101.083 148.223 100.864 147.877C100.644 147.531 99.1557 149.579 98.746 150.341C98.3363 151.102 97.5978 152.372 97.5978 152.372C97.5978 152.372 97.1073 152.753 97.1304 152.96C97.1535 153.168 96.5303 153.618 96.438 153.705C96.3457 153.791 95.6014 155.337 94.8975 156.918C94.1935 158.499 93.1607 160.646 93.1607 160.646L92.653 161.621C92.6414 161.627 92.099 162.417 93.23 162.74Z" fill="white" stroke="black" stroke-miterlimit="10"/>
<path d="M98.5616 164.794C96.3517 163.94 92.7686 162.567 92.7686 162.567C92.7686 162.567 92.1685 162.215 92.007 162.648C91.8743 162.994 91.0896 164.31 90.7953 164.8H98.5616V164.794Z" fill="#00D6A8" fill-opacity="0.74" stroke="black" stroke-miterlimit="10"/>
<path d="M100.979 164.794C102.329 159.74 102.82 155.43 102.375 154.864C101.568 153.832 101.066 155.591 100.437 158.119L98.8037 154.83C98.8037 154.83 102.727 152.158 102.727 151.097C102.727 150.035 96.5708 153.041 96.0342 154.161C95.711 154.83 93.882 159.971 90.7893 164.8" stroke="black" stroke-width="0.8492" stroke-miterlimit="10"/>
<path d="M101.077 151.177C101.077 151.177 102.698 150.173 102.318 149.475C101.937 148.777 97.0267 152.245 97.1478 153.162" stroke="black" stroke-width="0.8492" stroke-miterlimit="10"/>
<path d="M100.431 150.127C100.431 150.127 101.441 148.125 100.864 147.877C100.287 147.629 98.221 150.958 97.9786 151.979" stroke="black" stroke-width="0.8492" stroke-miterlimit="10"/>
<path d="M98.5614 164.794L92.2434 162.359" stroke="black" stroke-width="0.8492" stroke-miterlimit="10"/>
<path d="M96.49 163.935L96.1611 164.794" stroke="black" stroke-width="0.8492" stroke-miterlimit="10"/>
<path d="M94.7994 163.311L94.2802 164.794" stroke="black" stroke-width="0.8492" stroke-miterlimit="10"/>
<path d="M93.3743 162.792L92.5031 164.794" stroke="black" stroke-width="0.8492" stroke-miterlimit="10"/>
<path d="M111.001 164.794H66.1403C64.0112 164.794 62.286 163.069 62.286 160.94V136.828C62.286 134.698 64.0112 132.973 66.1403 132.973H111.001C113.13 132.973 114.856 134.698 114.856 136.828V160.94C114.85 163.069 113.125 164.794 111.001 164.794Z" stroke="black" stroke-miterlimit="10"/>
<path d="M85.4116 157.091C85.4116 158.557 83.3748 159.74 80.8649 159.74C78.355 159.74 76.3182 158.551 76.3182 157.091C76.3182 155.626 78.355 154.443 80.8649 154.443C83.3748 154.443 85.4116 155.626 85.4116 157.091Z" fill="#00D6A8" stroke="#211F21" stroke-width="1.0017" stroke-miterlimit="10"/>
<path d="M74.7201 135.939C74.7201 135.939 72.3718 136.158 71.4371 140.116C70.4793 144.173 75.4241 150.831 77.2878 150.445C77.2935 150.445 79.7515 137.676 74.7201 135.939Z" fill="black" stroke="black" stroke-miterlimit="10"/>
<path d="M89.8489 139.28C89.595 139.851 89.2084 140.353 88.8911 140.895C88.5737 141.438 88.3256 142.049 88.3948 142.672C88.3314 141.663 87.6621 140.809 87.0851 139.978C86.5081 139.147 85.983 138.137 86.26 137.162C86.5254 136.227 88.216 134.756 89.243 135.362C90.3855 136.031 90.2989 138.258 89.8489 139.28Z" fill="black" stroke="black" stroke-miterlimit="10"/>
<path d="M85.5272 144.478L85.0771 153.203L84.9444 154.46C84.8925 155.516 84.4251 156.463 83.7039 157.138C82.9884 157.818 82.0248 158.228 80.9632 158.228C78.7245 158.228 76.9242 156.382 76.9819 154.149L77.0916 150.941L77.282 143.561L85.5272 144.478Z" fill="white" stroke="black" stroke-width="0.9711" stroke-miterlimit="10"/>
<path d="M88.5912 139.464C88.5912 139.464 88.8797 142.309 88.4758 145.454C88.0142 149.089 88.1815 153.364 82.8155 153.647C77.0918 153.953 75.1992 147.548 75.1992 147.548C75.1992 147.548 72.1585 146.983 71.9508 144.928C71.743 142.874 73.8664 142.753 74.5588 143.336C74.5588 143.336 75.3435 135.679 82.4232 135.679C88.6778 135.679 88.5912 139.464 88.5912 139.464Z" fill="white" stroke="black" stroke-width="0.9711" stroke-miterlimit="10"/>
<path d="M82.042 144.957C82.042 145.269 81.7881 145.523 81.4766 145.523C81.165 145.523 80.9111 145.269 80.9111 144.957C80.9111 144.646 81.165 144.392 81.4766 144.392C81.7881 144.392 82.042 144.646 82.042 144.957Z" fill="black"/>
<path d="M87.5179 144.669C87.5179 144.98 87.264 145.234 86.9524 145.234C86.6408 145.234 86.387 144.98 86.387 144.669C86.387 144.357 86.6408 144.103 86.9524 144.103C87.264 144.103 87.5179 144.357 87.5179 144.669Z" fill="black"/>
<path d="M79.2379 143.336C79.2379 143.336 80.0746 141.951 81.869 142.453L79.2379 143.336Z" fill="white"/>
<path d="M79.2379 143.336C79.2379 143.336 80.0746 141.951 81.869 142.453" stroke="black" stroke-width="0.9708" stroke-miterlimit="10" stroke-linecap="round"/>
<path d="M84.9562 142.43C84.9562 142.43 86.2486 141.253 87.518 142.546L84.9562 142.43Z" fill="white"/>
<path d="M84.9562 142.43C84.9562 142.43 86.2486 141.253 87.518 142.546" stroke="black" stroke-width="0.9708" stroke-miterlimit="10" stroke-linecap="round"/>
<path d="M83.8193 143.838C83.8193 143.838 84.4309 145.402 84.956 146.377C85.4753 147.352 83.9347 147.784 83.9347 147.784" fill="white"/>
<path d="M83.8193 143.838C83.8193 143.838 84.4309 145.402 84.956 146.377C85.4753 147.352 83.9347 147.784 83.9347 147.784" stroke="black" stroke-width="0.9708" stroke-miterlimit="10" stroke-linecap="round"/>
<path d="M81.7651 149.533C81.7651 149.533 83.0287 150.762 84.6559 150.012L81.7651 149.533Z" fill="white"/>
<path d="M81.7651 149.533C81.7651 149.533 83.0287 150.762 84.6559 150.012" stroke="black" stroke-width="0.9708" stroke-miterlimit="10" stroke-linecap="round"/>
<path d="M74.4663 145.592C74.4663 145.592 74.449 143.832 73.1334 144.311L74.4663 145.592Z" fill="white"/>
<path d="M74.4663 145.592C74.4663 145.592 74.449 143.832 73.1334 144.311" stroke="black" stroke-width="0.9708" stroke-miterlimit="10" stroke-linecap="round"/>
<path d="M76.2031 137.405C76.2031 137.405 79.4169 140.682 77.6571 141.934C75.6953 143.33 75.3895 145.303 75.3895 145.303C75.3895 145.303 75.4299 144.611 74.5587 143.33C73.6932 142.061 71.7949 137.526 76.2031 137.405Z" fill="black" stroke="black" stroke-miterlimit="10"/>
<path d="M75.2105 137.624C74.1316 135.951 74.922 132.794 78.2917 132.269C81.6613 131.744 83.975 132.471 85.2386 130.204C86.4965 127.936 90.3046 126.471 91.4067 129.811C92.5087 133.152 89.9353 138.195 86.6927 138.039C83.4442 137.889 83.5942 137.48 81.5401 138.697C79.4803 139.914 76.9704 140.353 75.2105 137.624Z" fill="black" stroke="black" stroke-miterlimit="10"/>
<path d="M111.001 164.794H66.1403C64.0112 164.794 62.286 163.069 62.286 160.94V136.828C62.286 134.698 64.0112 132.973 66.1403 132.973H111.001C113.13 132.973 114.856 134.698 114.856 136.828V160.94C114.85 163.069 113.125 164.794 111.001 164.794Z" stroke="black" stroke-miterlimit="10"/>
<path d="M111.001 164.794H66.1403C64.0112 164.794 62.286 163.069 62.286 160.94V136.828C62.286 134.698 64.0112 132.973 66.1403 132.973H111.001C113.13 132.973 114.856 134.698 114.856 136.828V160.94C114.85 163.069 113.125 164.794 111.001 164.794Z" stroke="black" stroke-width="0.8492" stroke-miterlimit="10"/>
<path d="M126.592 114.74H105.97C103.333 114.74 101.198 116.875 101.198 119.512V127.93V130.873V140.099L106.051 135.645H126.592C129.229 135.645 131.363 133.51 131.363 130.873V119.512C131.363 116.875 129.229 114.74 126.592 114.74Z" fill="white" stroke="black" stroke-width="0.7743" stroke-miterlimit="10"/>
<path d="M132.535 107.949H111.913C109.276 107.949 107.141 110.084 107.141 112.721V121.139V124.082V133.308L111.994 128.853H132.535C135.172 128.853 137.306 126.719 137.306 124.082V112.721C137.306 110.084 135.172 107.949 132.535 107.949Z" fill="white" stroke="black" stroke-width="0.7743" stroke-miterlimit="10"/>
<path d="M205.207 182.046C204.757 179.513 203.326 177.857 201.728 176.813C199.021 175.047 195.427 175.047 192.715 176.813C191.117 177.857 189.686 179.513 189.236 182.046C188.399 186.72 192.519 189.236 193.286 190.182C193.286 190.182 193.805 190.615 194.059 191.122C194.123 191.249 194.186 191.653 194.267 192.19H197.221H200.175C200.25 191.647 200.32 191.249 200.383 191.122C200.631 190.615 201.156 190.182 201.156 190.182C201.924 189.236 206.043 186.72 205.207 182.046Z" fill="#FFEB66" stroke="black" stroke-width="0.8124" stroke-miterlimit="10"/>
<path d="M195.981 192.692C195.981 192.692 195.981 188.26 195.658 187.626C195.334 186.991 193.84 184.775 193.586 184.308C193.332 183.841 193.852 183.298 194.25 183.991C194.59 184.579 196.044 186.605 196.367 187.43C196.69 188.255 196.967 192.911 196.967 192.911L195.981 192.692Z" fill="white"/>
<path d="M198.433 192.692C198.433 192.692 198.433 188.26 198.756 187.626C199.079 186.991 200.573 184.775 200.827 184.308C201.081 183.841 200.562 183.298 200.164 183.991C199.823 184.579 198.369 186.605 198.046 187.43C197.723 188.255 197.446 192.911 197.446 192.911L198.433 192.692Z" fill="white"/>
<path d="M200.579 184.158C199.979 184.441 198.958 184.475 198.202 184.245C198.196 184.25 198.191 184.256 198.179 184.262C197.556 184.723 196.69 184.545 196.05 184.083C195.259 184.395 194.163 184.429 194.002 184.435V184.014C194.48 184.002 195.167 183.927 195.698 183.766C195.259 183.287 195.161 182.773 195.456 182.421C195.825 181.977 196.292 182.006 196.592 182.231C196.95 182.502 197.117 183.079 196.788 183.575C196.713 183.685 196.61 183.777 196.488 183.864C196.887 184.1 197.36 184.204 197.74 184.054C197.608 183.979 197.498 183.887 197.417 183.783C197.29 183.621 197.117 183.281 197.446 182.831C197.665 182.525 197.954 182.387 198.237 182.444C198.508 182.502 198.721 182.739 198.779 183.05C198.831 183.339 198.75 183.644 198.548 183.91C199.16 184.043 199.95 184.02 200.435 183.794L200.579 184.158ZM197.919 182.912C197.867 182.946 197.821 182.998 197.769 183.067C197.608 183.292 197.665 183.425 197.735 183.512C197.815 183.616 197.954 183.708 198.127 183.777C198.323 183.575 198.416 183.344 198.375 183.137C198.346 182.992 198.254 182.877 198.144 182.854C198.069 182.837 197.994 182.854 197.919 182.912ZM196.131 183.593C196.269 183.518 196.379 183.437 196.442 183.339C196.638 183.05 196.54 182.721 196.338 182.565C196.16 182.433 195.958 182.479 195.784 182.687C195.606 182.9 195.808 183.252 196.027 183.489C196.056 183.523 196.09 183.558 196.131 183.593Z" fill="white"/>
<path d="M197.21 191.717C195.606 191.717 194.232 191.295 193.996 191.168C194.013 191.203 194.036 191.232 194.048 191.267C194.261 191.711 194.532 195.386 195.109 196.806C195.213 197.054 195.323 197.238 195.444 197.319C195.773 197.533 196.465 197.763 197.204 197.729C197.937 197.763 198.629 197.533 198.964 197.319C199.085 197.238 199.2 197.059 199.298 196.806C199.875 195.386 200.147 191.711 200.36 191.267C200.377 191.232 200.395 191.203 200.412 191.168C200.187 191.295 198.814 191.717 197.21 191.717Z" fill="white" stroke="black" stroke-width="0.8124" stroke-miterlimit="10"/>
<path d="M197.21 193.378C198.139 193.361 199.148 193.251 200.072 192.963C200.135 192.524 200.187 192.132 200.239 191.832C198.289 192.57 196.131 192.57 194.186 191.832C194.238 192.132 194.29 192.524 194.354 192.963C195.265 193.251 196.275 193.361 197.21 193.378Z" fill="black"/>
<path d="M197.21 195.254C198.041 195.242 198.935 195.144 199.772 194.925C199.835 194.555 199.893 194.18 199.95 193.811C198.173 194.417 196.246 194.417 194.469 193.811C194.521 194.18 194.584 194.561 194.648 194.925C195.479 195.144 196.379 195.236 197.21 195.254Z" fill="black"/>
<path d="M194.815 195.802C194.902 196.188 195 196.534 195.109 196.8C195.127 196.84 195.144 196.881 195.161 196.921C195.842 197.054 196.546 197.117 197.204 197.129C197.862 197.117 198.566 197.054 199.246 196.921C199.264 196.881 199.281 196.846 199.298 196.8C199.408 196.534 199.506 196.188 199.593 195.802C198.035 196.252 196.379 196.252 194.815 195.802Z" fill="black"/>
<path d="M197.366 173.12H197.348C196.875 173.12 196.494 172.739 196.494 172.266V168.268C196.494 167.795 196.875 167.414 197.348 167.414H197.366C197.839 167.414 198.22 167.795 198.22 168.268V172.266C198.22 172.739 197.839 173.12 197.366 173.12Z" fill="white" stroke="black" stroke-width="0.8124" stroke-miterlimit="10"/>
<path d="M203.499 174.228L203.482 174.222C203.066 173.997 202.91 173.484 203.135 173.068L205.022 169.543C205.247 169.127 205.761 168.972 206.176 169.197L206.193 169.202C206.609 169.428 206.765 169.941 206.54 170.356L204.653 173.882C204.434 174.291 203.914 174.447 203.499 174.228Z" fill="white" stroke="black" stroke-width="0.8124" stroke-miterlimit="10"/>
<path d="M191.215 174.228L191.232 174.222C191.648 173.997 191.803 173.484 191.578 173.068L189.692 169.543C189.467 169.127 188.953 168.972 188.538 169.197L188.52 169.202C188.105 169.428 187.949 169.941 188.174 170.356L190.061 173.882C190.286 174.291 190.805 174.447 191.215 174.228Z" fill="white" stroke="black" stroke-width="0.8124" stroke-miterlimit="10"/>
<path d="M186.674 178.919L186.668 178.936C186.57 179.398 186.12 179.692 185.658 179.594L181.746 178.769C181.285 178.671 180.99 178.221 181.088 177.759L181.094 177.742C181.192 177.28 181.642 176.986 182.104 177.084L186.016 177.909C186.478 178.007 186.772 178.457 186.674 178.919Z" fill="white" stroke="black" stroke-width="0.8124" stroke-miterlimit="10"/>
<path d="M186.46 185.306L186.455 185.289C186.322 184.839 185.849 184.579 185.399 184.712L181.562 185.837C181.112 185.97 180.852 186.443 180.985 186.893L180.99 186.91C181.123 187.36 181.596 187.62 182.046 187.487L185.883 186.362C186.333 186.235 186.593 185.762 186.46 185.306Z" fill="white" stroke="black" stroke-width="0.8124" stroke-miterlimit="10"/>
<path d="M208.04 178.919L208.045 178.936C208.143 179.398 208.594 179.692 209.055 179.594L212.967 178.769C213.429 178.671 213.723 178.221 213.625 177.759L213.619 177.742C213.521 177.28 213.071 176.986 212.609 177.084L208.697 177.909C208.242 178.007 207.942 178.457 208.04 178.919Z" fill="white" stroke="black" stroke-width="0.8124" stroke-miterlimit="10"/>
<path d="M208.253 185.306L208.259 185.289C208.392 184.839 208.865 184.579 209.315 184.712L213.152 185.837C213.602 185.97 213.862 186.443 213.729 186.893L213.723 186.91C213.591 187.36 213.117 187.62 212.667 187.487L208.83 186.362C208.38 186.235 208.121 185.762 208.253 185.306Z" fill="white" stroke="black" stroke-width="0.8124" stroke-miterlimit="10"/>
<path d="M90.0454 16.2135C89.7684 16.2135 89.4972 16.2538 89.2433 16.3288C89.2664 16.15 89.2837 15.9711 89.2837 15.7865C89.2837 13.4381 87.3797 11.5341 85.0313 11.5341C82.7695 11.5341 80.9231 13.2996 80.7962 15.5326C80.4731 15.423 80.1269 15.3595 79.7634 15.3595C77.9805 15.3595 76.5322 16.8078 76.5322 18.5907C76.5322 20.3736 77.9805 21.8218 79.7634 21.8218H90.0511C91.5975 21.8218 92.8553 20.564 92.8553 19.0176C92.8495 17.4713 91.5975 16.2135 90.0454 16.2135Z" stroke="url(#paint2_linear)" stroke-width="0.9589" stroke-miterlimit="10"/>
<path d="M41.7799 146.757C41.1048 146.757 40.5567 147.306 40.5567 147.981C40.5567 148.471 40.8451 148.887 41.2606 149.083C41.1221 149.694 40.874 150.121 40.5047 150.352C39.9912 150.669 39.3334 150.543 38.993 150.439V144.271H40.3085L38.5833 141.893L36.8351 144.271H38.191V152.06C37.8159 151.962 37.2563 151.737 36.7658 151.189C36.1542 150.508 35.8253 149.521 35.7792 148.252C36.2696 148.09 36.6273 147.634 36.6273 147.092C36.6273 146.417 36.0792 145.869 35.4041 145.869C34.729 145.869 34.1809 146.417 34.1809 147.092C34.1809 147.617 34.5156 148.061 34.9829 148.235C35.0291 149.717 35.4272 150.894 36.1715 151.725C36.8755 152.51 37.7121 152.787 38.1968 152.879V153.491C36.8581 153.687 35.8311 154.835 35.8311 156.226C35.8311 157.755 37.0716 158.995 38.6007 158.995C40.1297 158.995 41.3702 157.755 41.3702 156.226C41.3702 154.835 40.3432 153.687 39.0045 153.491V151.27C39.2123 151.321 39.4661 151.356 39.7373 151.356C40.1239 151.356 40.5451 151.275 40.9317 151.039C41.5087 150.681 41.8895 150.052 42.0741 149.169C42.6165 149.042 43.0146 148.558 43.0146 147.981C43.0089 147.306 42.455 146.757 41.7799 146.757Z" stroke="url(#paint3_linear)" stroke-width="0.8395" stroke-miterlimit="10"/>
<path d="M168.331 146.486C168.799 146.486 169.272 146.486 169.739 146.492C169.797 146.607 169.872 146.717 169.901 146.838C169.953 147.034 169.993 147.236 170.01 147.433C170.033 147.738 170.137 147.958 170.478 148.01C170.553 148.021 170.622 148.062 170.685 148.102C170.783 148.165 170.853 148.142 170.939 148.079C171.21 147.888 171.493 147.704 171.77 147.513C171.92 147.41 172.047 147.421 172.174 147.548C172.428 147.808 172.682 148.061 172.941 148.315C173.08 148.454 173.08 148.587 172.97 148.737C172.82 148.944 172.688 149.175 172.526 149.371C172.359 149.573 172.307 149.764 172.474 149.989C172.52 150.052 172.543 150.139 172.561 150.219C172.584 150.341 172.659 150.381 172.768 150.398C173.074 150.45 173.38 150.502 173.686 150.571C173.801 150.6 173.899 150.693 174.003 150.75C174.003 151.206 174.003 151.662 174.003 152.118C173.899 152.175 173.801 152.262 173.686 152.291C173.466 152.349 173.241 152.389 173.016 152.412C172.739 152.435 172.538 152.522 172.491 152.827C172.48 152.914 172.405 152.983 172.388 153.07C172.37 153.145 172.37 153.243 172.405 153.301C172.584 153.583 172.78 153.86 172.97 154.137C173.074 154.287 173.068 154.414 172.936 154.541C172.676 154.795 172.416 155.055 172.157 155.309C172.036 155.43 171.909 155.441 171.764 155.337C171.557 155.193 171.337 155.06 171.141 154.899C170.928 154.714 170.72 154.645 170.472 154.824C170.408 154.87 170.322 154.893 170.241 154.91C170.131 154.933 170.085 154.985 170.068 155.101C170.022 155.407 169.964 155.707 169.895 156.007C169.866 156.122 169.791 156.226 169.733 156.336C169.266 156.33 168.793 156.324 168.325 156.324C168.268 156.209 168.193 156.099 168.164 155.978C168.1 155.735 168.049 155.482 168.025 155.233C168.002 155.014 167.922 154.876 167.691 154.83C167.604 154.812 167.523 154.766 167.448 154.72C167.339 154.651 167.252 154.656 167.143 154.737C166.889 154.922 166.623 155.089 166.364 155.268C166.208 155.372 166.075 155.372 165.942 155.233C165.689 154.974 165.435 154.72 165.175 154.466C165.048 154.339 165.031 154.212 165.14 154.062C165.29 153.854 165.423 153.629 165.585 153.433C165.752 153.237 165.798 153.058 165.642 152.833C165.591 152.764 165.567 152.672 165.55 152.585C165.521 152.47 165.458 152.424 165.342 152.406C165.037 152.354 164.731 152.302 164.431 152.233C164.315 152.204 164.217 152.118 164.113 152.054C164.113 151.598 164.113 151.148 164.113 150.693C164.217 150.635 164.315 150.548 164.431 150.519C164.656 150.462 164.887 150.421 165.123 150.398C165.383 150.375 165.579 150.294 165.625 150.006C165.637 149.931 165.683 149.85 165.723 149.781C165.792 149.677 165.764 149.602 165.7 149.51C165.51 149.244 165.325 148.967 165.14 148.702C165.037 148.552 165.042 148.425 165.175 148.298C165.429 148.05 165.689 147.796 165.942 147.542C166.075 147.404 166.208 147.398 166.364 147.508C166.6 147.675 166.854 147.825 167.079 148.01C167.235 148.131 167.368 148.148 167.535 148.044C167.627 147.986 167.754 147.969 167.847 147.911C167.91 147.871 167.985 147.802 168.002 147.733C168.072 147.433 168.112 147.127 168.181 146.827C168.199 146.711 168.279 146.602 168.331 146.486Z" stroke="url(#paint4_linear)" stroke-width="0.7191" stroke-miterlimit="10"/>
<path d="M169.041 149.365C167.904 149.365 166.993 150.271 166.993 151.408C166.993 152.551 167.91 153.462 169.064 153.468C170.201 153.474 171.112 152.568 171.112 151.431C171.112 150.283 170.195 149.371 169.041 149.365ZM169.052 152.262C168.585 152.256 168.21 151.881 168.204 151.42C168.198 150.946 168.585 150.566 169.058 150.571C169.526 150.577 169.906 150.952 169.906 151.42C169.906 151.887 169.531 152.268 169.052 152.262Z" fill="url(#paint5_linear)"/>
<path d="M5.2043 47.9074C5.83206 47.9074 6.34097 47.3985 6.34097 46.7707C6.34097 46.1429 5.83206 45.634 5.2043 45.634C4.57653 45.634 4.06763 46.1429 4.06763 46.7707C4.06763 47.3985 4.57653 47.9074 5.2043 47.9074Z" stroke="url(#paint6_linear)" stroke-width="0.8395" stroke-miterlimit="10"/>
<path d="M7.62751 45.865C7.50634 45.865 7.3794 45.813 7.29286 45.7149C7.00436 45.3861 6.21388 44.6302 5.09452 44.6764C4.12518 44.7225 3.43856 45.3457 3.10967 45.7149C2.94811 45.8996 2.66539 45.9169 2.48075 45.7553C2.29612 45.5938 2.27881 45.311 2.44036 45.1264C2.8558 44.6533 3.75013 43.8455 5.05413 43.7878C6.55431 43.7185 7.58712 44.6994 7.96216 45.1264C8.12372 45.311 8.10641 45.5938 7.92178 45.7553C7.841 45.8303 7.73714 45.865 7.62751 45.865Z" stroke="url(#paint7_linear)" stroke-width="0.8395" stroke-miterlimit="10"/>
<path d="M1.66735 44.382C1.56349 44.382 1.45963 44.3474 1.37309 44.2724C1.18845 44.1108 1.17114 43.8281 1.3327 43.6435C1.92123 42.9742 3.17907 41.8433 5.00235 41.7625C7.09683 41.6702 8.55661 43.0492 9.08168 43.6435C9.24323 43.8281 9.22592 44.1108 9.04129 44.2724C8.85665 44.434 8.57392 44.4166 8.41237 44.232C7.97385 43.73 6.7564 42.5703 5.04274 42.651C3.54834 42.7203 2.49822 43.6723 2.00778 44.232C1.91546 44.3301 1.78852 44.382 1.66735 44.382Z" stroke="url(#paint8_linear)" stroke-width="0.8395" stroke-miterlimit="10"/>
<path d="M0.732537 42.5472C0.628679 42.5472 0.52482 42.5126 0.438272 42.4376C0.253635 42.276 0.236325 41.9933 0.397882 41.8087C1.12489 40.9778 2.68853 39.5699 4.94457 39.4719C7.5468 39.3565 9.35278 41.0701 10.0048 41.8087C10.1663 41.9933 10.149 42.276 9.96439 42.4376C9.77975 42.5991 9.49702 42.5818 9.33547 42.3972C8.76425 41.751 7.2006 40.2566 4.98496 40.3604C3.05781 40.447 1.70188 41.6759 1.06719 42.3972C0.980643 42.4953 0.859475 42.5472 0.732537 42.5472Z" stroke="url(#paint9_linear)" stroke-width="0.8395" stroke-miterlimit="10"/>
<path d="M76.7858 101.268C77.7641 101.268 78.5571 100.475 78.5571 99.4962C78.5571 98.5179 77.7641 97.7249 76.7858 97.7249C75.8075 97.7249 75.0144 98.5179 75.0144 99.4962C75.0144 100.475 75.8075 101.268 76.7858 101.268Z" fill="url(#paint10_linear)"/>
<path d="M38.5891 157.732C39.373 157.732 40.0085 157.096 40.0085 156.312C40.0085 155.529 39.373 154.893 38.5891 154.893C37.8052 154.893 37.1697 155.529 37.1697 156.312C37.1697 157.096 37.8052 157.732 38.5891 157.732Z" fill="url(#paint11_linear)"/>
<path d="M76.7859 103.425C78.956 103.425 80.7152 101.666 80.7152 99.4962C80.7152 97.3261 78.956 95.5669 76.7859 95.5669C74.6158 95.5669 72.8566 97.3261 72.8566 99.4962C72.8566 101.666 74.6158 103.425 76.7859 103.425Z" stroke="url(#paint12_linear)" stroke-width="0.8395" stroke-miterlimit="10"/>
<path d="M120.323 120.746C120.328 120.007 120.462 119.451 120.722 119.08C120.983 118.708 121.459 118.279 122.15 117.795C122.506 117.572 122.787 117.296 122.991 116.965C123.196 116.636 123.299 116.255 123.299 115.825C123.299 115.378 123.178 115.023 122.94 114.756C122.701 114.49 122.361 114.356 121.919 114.356C121.563 114.356 121.265 114.465 121.027 114.684C120.788 114.902 120.663 115.227 120.652 115.658H118.026L118.009 115.609C117.993 114.504 118.346 113.673 119.067 113.117C119.786 112.562 120.736 112.284 121.918 112.284C123.183 112.284 124.179 112.602 124.904 113.24C125.63 113.879 125.994 114.74 125.994 115.825C125.994 116.489 125.795 117.101 125.399 117.66C125.003 118.218 124.499 118.657 123.887 118.975C123.547 119.198 123.317 119.439 123.197 119.698C123.077 119.955 123.018 120.305 123.018 120.746H120.323Z" fill="#00D6A8"/>
<path d="M121.682 124.613C122.428 124.613 123.033 124.008 123.033 123.262C123.033 122.515 122.428 121.91 121.682 121.91C120.936 121.91 120.331 122.515 120.331 123.262C120.331 124.008 120.936 124.613 121.682 124.613Z" fill="#00D6A8"/>
</g>
<defs>
<linearGradient id="paint0_linear" x1="65.1175" y1="106.856" x2="-6.79976" y2="53.1431" gradientUnits="userSpaceOnUse">
<stop stop-color="#FF373B"/>
<stop offset="0.9988" stop-color="#FFE870"/>
</linearGradient>
<linearGradient id="paint1_linear" x1="56.3667" y1="128.061" x2="142.343" y2="190.425" gradientUnits="userSpaceOnUse">
<stop stop-color="#FF373B"/>
<stop offset="0.9988" stop-color="#FFAC5E"/>
</linearGradient>
<linearGradient id="paint2_linear" x1="76.2542" y1="16.6805" x2="93.1276" y2="16.6805" gradientUnits="userSpaceOnUse">
<stop stop-color="#FF373B"/>
<stop offset="0.9988" stop-color="#FFA55C"/>
</linearGradient>
<linearGradient id="paint3_linear" x1="33.9301" y1="150.362" x2="43.2486" y2="150.362" gradientUnits="userSpaceOnUse">
<stop stop-color="#FF373B"/>
<stop offset="0.9988" stop-color="#FFCD68"/>
</linearGradient>
<linearGradient id="paint4_linear" x1="163.904" y1="151.42" x2="174.206" y2="151.42" gradientUnits="userSpaceOnUse">
<stop stop-color="#FF373B"/>
<stop offset="0.9988" stop-color="#FFC265"/>
</linearGradient>
<linearGradient id="paint5_linear" x1="166.997" y1="151.417" x2="171.112" y2="151.417" gradientUnits="userSpaceOnUse">
<stop stop-color="#FF373B"/>
<stop offset="0.9988" stop-color="#FFC867"/>
</linearGradient>
<linearGradient id="paint6_linear" x1="4.22763" y1="47.7463" x2="6.18038" y2="45.7935" gradientUnits="userSpaceOnUse">
<stop offset="0.00124008" stop-color="#FF373B"/>
<stop offset="1" stop-color="#FFCD68"/>
</linearGradient>
<linearGradient id="paint7_linear" x1="3.5007" y1="47.1166" x2="6.90633" y2="43.711" gradientUnits="userSpaceOnUse">
<stop offset="0.00124008" stop-color="#FF373B"/>
<stop offset="1" stop-color="#FFCC68"/>
</linearGradient>
<linearGradient id="paint8_linear" x1="2.94365" y1="46.187" x2="7.46325" y2="41.6675" gradientUnits="userSpaceOnUse">
<stop offset="0.00124008" stop-color="#FF373B"/>
<stop offset="1" stop-color="#FFBD63"/>
</linearGradient>
<linearGradient id="paint9_linear" x1="2.47684" y1="44.8182" x2="7.92971" y2="39.3653" gradientUnits="userSpaceOnUse">
<stop offset="0.00124008" stop-color="#FF373B"/>
<stop offset="1" stop-color="#FFBF64"/>
</linearGradient>
<linearGradient id="paint10_linear" x1="75.0186" y1="99.4952" x2="78.5583" y2="99.4952" gradientUnits="userSpaceOnUse">
<stop stop-color="#FF373B"/>
<stop offset="0.9988" stop-color="#FFC967"/>
</linearGradient>
<linearGradient id="paint11_linear" x1="37.172" y1="156.314" x2="40.0066" y2="156.314" gradientUnits="userSpaceOnUse">
<stop stop-color="#FF373B"/>
<stop offset="0.9988" stop-color="#FFC265"/>
</linearGradient>
<linearGradient id="paint12_linear" x1="72.619" y1="99.4952" x2="80.9582" y2="99.4952" gradientUnits="userSpaceOnUse">
<stop stop-color="#FF373B"/>
<stop offset="0.9988" stop-color="#FFC766"/>
</linearGradient>
<clipPath id="clip0">
<rect width="214" height="197.96" fill="white"/>
</clipPath>
</defs>
</svg>
