<svg width="40" height="40" viewBox="0 0 40 40" fill="none" xmlns="http://www.w3.org/2000/svg">
<circle cx="20" cy="20" r="19.25" stroke="white" stroke-width="1.5"/>
<path d="M15.1047 27.22H13.6047V28.1821L14.4792 28.5833L15.1047 27.22ZM22.2047 20.9H20.7047V22.0532L21.8192 22.3496L22.2047 20.9ZM22.2047 20.86L21.6574 19.4634L20.7047 19.8368V20.86H22.2047ZM15.2447 15.18L14.6384 13.808L13.7447 14.2029V15.18H15.2447ZM15.2447 18.06H13.7447V19.56H15.2447V18.06ZM17.7247 18.06V19.56H19.2247V18.06H17.7247ZM17.7247 16.96L17.3065 15.5195L16.2247 15.8335V16.96H17.7247ZM17.5447 19.96V18.46H16.0447V19.96H17.5447ZM17.5447 22.44H16.0447V23.94H17.5447V22.44ZM17.5847 25.48H16.0847V26.6257L17.19 26.9271L17.5847 25.48ZM17.5847 24.36H19.0847V22.86H17.5847V24.36ZM15.1047 24.36V22.86H13.6047V24.36H15.1047ZM14.4792 28.5833C16.4081 29.4684 17.8679 29.7 19.7847 29.7V26.7C18.2215 26.7 17.2013 26.5316 15.7302 25.8567L14.4792 28.5833ZM19.7847 29.7C21.5672 29.7 23.2063 29.3113 24.4353 28.3764C25.7217 27.3978 26.3847 25.9514 26.3847 24.26H23.3847C23.3847 25.1086 23.0877 25.6322 22.619 25.9886C22.0931 26.3887 21.1822 26.7 19.7847 26.7V29.7ZM26.3847 24.26C26.3847 23.251 26.1106 22.2125 25.4588 21.3248C24.7997 20.427 23.8235 19.7784 22.5902 19.4504L21.8192 22.3496C22.4659 22.5216 22.8297 22.813 23.0406 23.1002C23.2588 23.3975 23.3847 23.789 23.3847 24.26H26.3847ZM23.7047 20.9V20.86H20.7047V20.9H23.7047ZM22.752 22.2566C23.6806 21.8927 24.5051 21.3476 25.0969 20.5638C25.6991 19.7659 25.9847 18.8199 25.9847 17.8H22.9847C22.9847 18.2401 22.8702 18.5341 22.7025 18.7562C22.5243 18.9924 22.2087 19.2473 21.6574 19.4634L22.752 22.2566ZM25.9847 17.8C25.9847 16.1236 25.2542 14.7826 24.0883 13.9027C22.9695 13.0583 21.541 12.7 20.1447 12.7V15.7C21.0683 15.7 21.8099 15.9417 22.2811 16.2973C22.7052 16.6174 22.9847 17.0764 22.9847 17.8H25.9847ZM20.1447 12.7C18.4324 12.7 16.5951 12.9434 14.6384 13.808L15.8509 16.552C17.3343 15.8966 18.737 15.7 20.1447 15.7V12.7ZM13.7447 15.18V18.06H16.7447V15.18H13.7447ZM15.2447 19.56H17.7247V16.56H15.2447V19.56ZM19.2247 18.06V16.96H16.2247V18.06H19.2247ZM18.1429 18.4005C18.6512 18.2529 19.0694 18.18 19.6247 18.18V15.18C18.74 15.18 18.0381 15.3071 17.3065 15.5195L18.1429 18.4005ZM19.6247 18.18C19.9843 18.18 20.0646 18.2773 20.0353 18.2511C20.0251 18.242 20.0094 18.223 19.9978 18.1963C19.987 18.1714 19.9847 18.1512 19.9847 18.14H22.9847C22.9847 17.3689 22.6765 16.5879 22.0341 16.0139C21.3947 15.4427 20.5451 15.18 19.6247 15.18V18.18ZM19.9847 18.14C19.9847 18.3755 19.9312 18.3909 19.9691 18.3493C20.03 18.2822 19.9507 18.46 19.2647 18.46V21.46C20.4587 21.46 21.4894 21.1378 22.1903 20.3657C22.8681 19.6191 22.9847 18.7245 22.9847 18.14H19.9847ZM19.2647 18.46H17.5447V21.46H19.2647V18.46ZM16.0447 19.96V22.44H19.0447V19.96H16.0447ZM17.5447 23.94H19.4047V20.94H17.5447V23.94ZM19.4047 23.94C19.7206 23.94 19.9539 23.9641 20.1201 23.9987C20.2872 24.0336 20.3487 24.0712 20.3528 24.0739C20.3529 24.074 20.3407 24.0659 20.3239 24.0473C20.3067 24.0282 20.2927 24.007 20.2833 23.9879C20.2639 23.9483 20.2847 23.9617 20.2847 24.08H23.2847C23.2847 23.0759 22.891 22.1476 21.9916 21.5611C21.2202 21.058 20.2674 20.94 19.4047 20.94V23.94ZM20.2847 24.08C20.2847 24.0849 20.2835 24.0884 20.2837 24.0878C20.2853 24.0838 20.2879 24.0817 20.2844 24.085C20.2814 24.0878 20.2497 24.1177 20.157 24.1496C20.0609 24.1827 19.8922 24.22 19.6247 24.22V27.22C20.7129 27.22 21.6569 26.9126 22.34 26.27C23.0172 25.633 23.2847 24.8079 23.2847 24.08H20.2847ZM19.6247 24.22C18.9889 24.22 18.4707 24.1668 17.9794 24.0329L17.19 26.9271C18.0187 27.1532 18.8205 27.22 19.6247 27.22V24.22ZM19.0847 25.48V24.36H16.0847V25.48H19.0847ZM17.5847 22.86H15.1047V25.86H17.5847V22.86ZM13.6047 24.36V27.22H16.6047V24.36H13.6047Z" fill="white"/>
</svg>
