<svg width="94" height="95" viewBox="0 0 94 95" fill="none" xmlns="http://www.w3.org/2000/svg">
<path d="M26.6883 81.4301L35.5903 72.6175M29.0905 94L45.391 77.8542M6.38157 86.5759L23.9656 69.1685M14.1009 63.9861L20.1884 57.9598M39.0284 31.7127C32.4825 31.5221 23.9014 32.7473 17.7406 39.0187L26.9176 48.1036M61.9663 54.4205C62.1589 60.9007 60.9212 69.4047 54.5862 75.4946L45.4091 66.4097M57.4286 57.2883C93 36.4774 93 1 93 1C93 1 57.1627 0.999988 36.1407 36.2142M71.4642 6.00986L87.9389 22.3191M38.8266 44.3281C33.4359 44.9181 27.5593 46.7877 23.0212 51.4254L42.0629 70.2759C46.7385 65.7743 48.6363 59.9658 49.2322 54.6292M1 61.5541L15.0452 47.6409M73.6557 24.9419C74.9943 23.6168 74.9943 21.4749 73.6557 20.1498C72.3172 18.8247 70.1536 18.8247 68.8151 20.1498C67.4766 21.4749 67.4766 23.6168 68.8151 24.9419C70.1536 26.2579 72.3172 26.2579 73.6557 24.9419ZM66.1931 30.9232C66.1931 32.7929 64.6621 34.3085 62.7735 34.3085C60.8848 34.3085 59.3538 32.7929 59.3538 30.9232C59.3538 29.0536 60.8848 27.5379 62.7735 27.5379C64.6621 27.5379 66.1931 29.0536 66.1931 30.9232ZM56.7226 41.6958C58.0611 40.3707 58.0611 38.2288 56.7226 36.9037C55.3841 35.5787 53.2205 35.5787 51.882 36.9037C50.5434 38.2288 50.5434 40.3707 51.882 41.6958C53.2205 43.0209 55.3841 43.0209 56.7226 41.6958Z" stroke="white" stroke-width="1.5" stroke-miterlimit="10" stroke-linecap="round" stroke-linejoin="round"/>
</svg>
