<svg width="70" height="84" viewBox="0 0 70 84" fill="none" xmlns="http://www.w3.org/2000/svg">
<path d="M35 84V34.996C4.55272 22.1433 0 0 0 0V48.7633C0 66.3656 35 84 35 84ZM43.4185 30.4711V79.2023C46.1502 77.4854 49.3131 75.3994 52.492 73.0086L52.476 26.4596C12.5399 22.6728 0 0 0 0C13.6102 27.8556 43.4185 30.4711 43.4185 30.4711ZM70 7.46132V0C59.0415 3.33754 47.2524 5.18281 35 5.19885C22.7476 5.18281 10.9744 3.33754 0 0C0 0 26.6454 16.3989 70 7.46132ZM60.9425 21.1645V65.6917C66.1022 60.4768 70 54.6201 70 48.7633V15.3719C63.6741 15.9817 50.1278 16.7198 35.8786 14.0722C18.9297 10.9112 8.5623 6.69112 0 0C20.3355 21.6619 60.9425 21.1645 60.9425 21.1645Z" fill="#DE0613"/>
</svg>
