<svg width="134" height="61" viewBox="0 0 134 61" fill="none" xmlns="http://www.w3.org/2000/svg">
<g clip-path="url(#clip0)">
<path d="M9.62902 0C13.597 0 15.8718 2.20931 15.8718 5.88768C15.8718 9.62342 13.597 11.7524 9.62902 11.7524H5.41344V15.8439H6.99716V18.805H0V15.8439H1.58372V2.98401H0V0H9.62902ZM5.41344 8.79134H9.21437C10.8211 8.79134 11.9614 7.85024 11.9614 5.88768C11.9614 3.97676 10.8211 2.98401 9.21437 2.98401H5.41344V8.79134Z" fill="#DF1819"/>
<path d="M31.4095 0V4.64817H28.4379V2.98401H22.6155V8.15437H30.0273V11.1384H22.6155V15.8382H24.1993V18.7992H17.2021V15.8382H18.7858V2.98401H17.2021V0H31.4095Z" fill="#DF1819"/>
<path d="M41.5683 0L46.619 15.8439H48.1451V18.805H40.7103V15.8439H42.461L41.6547 13.1067H35.913L34.9973 15.8439H36.7711V18.805H29.5493V15.8439H31.2713L35.5444 2.98401H33.6843V0H41.5683ZM38.9019 3.40292L36.679 10.3465H40.9809L38.9307 3.40292H38.9019Z" fill="#DF1819"/>
<path d="M5.05062 46.0685H1.80255V26.7126H5.05062V46.0685Z" fill="#20355C"/>
<path d="M24.0322 26.7126V46.0685H20.3983L13.5682 33.8169L12.5143 31.355L12.7101 33.8972V46.0628H9.49081V26.7126H13.1247L19.9491 38.9643L21.003 41.4261L20.8072 38.7978V26.7126H24.0322Z" fill="#20355C"/>
<path d="M34.8246 43.0558L39.4605 26.7126H42.8468L36.9036 46.0685H32.7398L26.8023 26.7126H30.1886L34.8246 43.0558Z" fill="#20355C"/>
<path d="M58.4652 26.7126V29.7827H48.8362V34.5112H57.6589V37.5526H48.8362V42.9984H58.7416V46.0685H45.6169V26.7126H58.4652Z" fill="#20355C"/>
<path d="M74.2563 30.1098C74.2563 30.1098 71.3711 29.5015 68.5377 29.5015C66.5969 29.5015 64.9556 30.1671 64.9556 31.8543C64.9556 36.2212 75.6097 33.0995 75.6097 40.594C75.6097 44.2723 73.2773 46.3439 68.1461 46.3439C64.5121 46.3439 61.9321 45.5405 61.9321 45.5405L62.0991 42.5795C62.0991 42.5795 65.3472 43.3255 67.956 43.3255C71.0659 43.3255 72.3156 42.5221 72.3156 40.8063C72.3156 36.2155 61.6614 39.3946 61.6614 31.9289C61.6614 28.0841 64.7425 26.4257 68.5434 26.4257C71.8203 26.4257 74.4291 27.1717 74.4291 27.1717L74.2563 30.1098Z" fill="#20355C"/>
<path d="M77.418 26.7126H90.9631V29.7827H85.8031V46.0685H82.555V29.7827H77.4238V26.7126H77.418Z" fill="#20355C"/>
<path d="M96.9813 46.0685H93.7332V26.7126H96.9813V46.0685Z" fill="#20355C"/>
<path d="M108.332 35.613H115.105V45.2077C115.105 45.2077 111.719 46.3439 108.332 46.3439C103.95 46.3439 101.145 43.4116 101.064 39.848C101.007 37.5526 101.007 35.2285 101.064 32.9331C101.145 29.3638 104.007 26.4372 108.476 26.4372C112.081 26.4372 114.805 27.2406 114.805 27.2406L114.638 30.2246C114.638 30.2246 111.085 29.5072 108.338 29.5072C105.867 29.5072 104.451 31.1657 104.399 32.9389C104.318 35.2629 104.318 37.5583 104.399 39.8537C104.479 41.6212 105.816 43.3083 108.338 43.3083C110.031 43.3083 111.834 42.9754 111.834 42.9754V38.6601H108.338V35.613H108.332Z" fill="#20355C"/>
<path d="M127.867 26.7126L134 46.0685H130.556L129.001 41.0359H122.563L121.008 46.0685H117.593L123.697 26.7126H127.867ZM125.811 30.2762L123.478 38.0174H128.086L125.811 30.2762Z" fill="#20355C"/>
<path d="M1.56647 60.1163H42.3516" stroke="#DF1819" stroke-width="3.0788" stroke-miterlimit="10"/>
</g>
<defs>
<clipPath id="clip0">
<rect width="134" height="61" fill="white"/>
</clipPath>
</defs>
</svg>
