<svg width="353" height="57" viewBox="0 0 353 57" fill="none" xmlns="http://www.w3.org/2000/svg">
<path d="M208.704 21.199C204.71 21.2099 202.316 24.2477 202.316 29.5176C202.316 34.1887 204.851 37.5531 209.107 37.5531H209.15C211.816 37.5531 213.22 36.497 213.438 36.2901L213.46 33.4809L213.34 33.6007C213.34 33.6007 211.718 35.125 209.487 35.0597H209.39C206.364 34.7657 205.102 32.5663 205.2 29.1365C205.232 27.8299 205.722 23.6488 208.693 23.6488C209.977 23.6488 210.946 24.4001 210.946 25.772V25.8483H214.047V25.772C214.047 23.6162 212.644 21.199 208.704 21.199Z" fill="white"/>
<path d="M223.004 22.5825L224.724 19.5447L222.384 19.4902L221.437 22.6152H223.004V22.5825ZM282.533 21.5263L278.463 33.8627L278.409 34.0478L278.344 33.8627L274.709 22.5281C274.709 22.5281 274.415 21.559 273.087 21.559H271.629L276.831 37.1292L276.82 37.1619L276.809 37.249H279.889L279.911 37.2054L279.932 37.1401L285.243 21.5263H282.533ZM175.294 24.4988C175.25 24.3573 174.967 23.7911 174.216 23.7911H172.127L167.534 37.2599H170.222L171.354 33.7538L171.365 33.7103H175.794V33.7538L176.926 37.2599H179.603L179.571 37.151L175.294 24.4988ZM171.996 31.6633L173.585 26.6329L175.152 31.6633H171.996ZM246.816 24.4988C246.783 24.3573 246.511 23.7911 245.749 23.7911H243.671L239.056 37.2599H241.755L242.865 33.7538L242.887 33.7103H247.317L247.338 33.7538L248.459 37.2599H251.136L251.115 37.151L246.816 24.4988ZM243.529 31.6633L245.096 26.6329L246.674 31.6633H243.529ZM293.046 24.9344C292.818 24.1613 292.47 23.7911 291.403 23.802C291.403 23.802 291.37 23.802 291.349 23.802H289.771L285.167 37.2707H287.833L288.976 33.7647L288.987 33.7212H293.427V33.7538L294.559 37.2599H297.236L297.204 37.151L293.046 24.9344ZM289.618 31.6633L291.196 26.6329L292.763 31.6633H289.618ZM313.288 23.8455H310.731V37.2707H318.425V35.2129H313.299V23.8455H313.288ZM302.482 23.8455H299.913V37.2707H307.618V35.2129H302.482V23.8455ZM336.142 33.6885C336.132 35.0387 335.642 35.5177 334.303 35.5395C333.574 35.5395 332.921 35.3109 332.508 35.1693L332.279 35.0931L332.181 35.0604V37.1836L332.257 37.2054C332.257 37.2054 333.258 37.4558 334.303 37.4776V37.4014V37.4776C337.949 37.4776 338.711 36.0077 338.711 33.5687V23.8564H336.153V33.6885H336.142ZM347.537 23.6387C343.891 23.6387 342.095 25.9361 342.095 30.5527C342.095 35.1584 343.891 37.4559 347.537 37.4559C351.161 37.4559 352.989 35.0822 353 30.5527C353 25.9905 351.172 23.6387 347.537 23.6387ZM347.537 35.5286C345.774 35.5286 344.892 33.9389 344.892 30.5527C344.892 27.1338 345.774 25.555 347.537 25.555C349.322 25.555 350.203 27.1338 350.203 30.5527C350.203 33.9498 349.322 35.5286 347.537 35.5286ZM84.1607 32.9481L79.7967 24.6077C79.7858 24.5968 79.3723 23.8129 78.4037 23.8238H76.3686V37.2381H78.7519V27.6129L83.7472 37.2381H86.5441V23.8346H84.1607V32.9481ZM90.9299 37.249H93.4873V23.8346H90.9299V37.249ZM102.629 34.0043L99.7776 24.9235C99.647 24.4662 99.2661 23.8238 98.2323 23.8238H96.6651L101.105 37.2381H104.065L104.076 37.1945L108.68 23.802L105.992 23.7911L102.629 34.0043ZM114.263 31.3258H119.389V29.2897H114.263V25.8707H119.682V23.8346H111.694V37.249H119.835V35.2129H114.274V31.3258H114.263ZM219.772 31.3258H224.887V29.2897H219.772V25.8707H225.159V23.8346H217.193V37.249H225.333V35.2129H219.772V31.3258ZM323.921 31.3258H329.058V29.2897H323.921V25.8707H329.33V23.8346H321.342V37.249H329.493V35.2129H323.91V31.3258H323.921ZM132.111 33.3619L132.1 33.2748C131.839 32.1206 131.621 31.0753 130.348 30.5527L130.206 30.4765L130.348 30.4329C131.73 29.943 132.372 28.963 132.372 27.4387C132.372 25.065 130.881 23.8238 128.008 23.8238H123.861V37.2381H126.43V31.6306H127.126C129.063 31.6524 129.238 32.2186 129.695 34.2874L130.348 37.2381H132.959L132.949 37.151L132.111 33.3619ZM127.126 29.7252H126.43V25.7619H128.008C129.161 25.7728 129.749 26.4261 129.771 27.6891C129.76 29.1263 129.02 29.7034 127.126 29.7252ZM261.856 33.2748C261.606 32.1206 261.399 31.0753 260.137 30.5527L259.973 30.4765L260.137 30.4329C261.508 29.943 262.161 28.9521 262.15 27.4387C262.15 25.065 260.648 23.8346 257.775 23.8238H253.629V37.2381H256.186V31.6306H256.893C258.841 31.6524 258.994 32.2186 259.473 34.2874L260.104 37.2381H262.727L262.694 37.151L261.856 33.2748ZM256.904 29.7252H256.197V25.7619H257.786C258.939 25.7728 259.538 26.4261 259.549 27.6891C259.527 29.1263 258.798 29.7034 256.904 29.7252ZM233.68 29.1699C232.364 28.473 231.275 27.8524 231.286 26.9814C231.286 25.7183 232.451 25.7183 233.038 25.7183H233.071C234.224 25.7183 235.182 25.9252 236.02 26.2627L236.434 26.4261L236.532 26.4587V24.0197L236.477 24.0089C236.477 24.0089 235.128 23.6495 233.147 23.6387C233.147 23.6387 233.125 23.6387 233.093 23.6387C230.285 23.6387 228.5 24.9997 228.489 27.1665C228.5 29.2679 230.372 30.2914 232.004 31.1951C233.419 31.9682 234.725 32.6977 234.714 33.8954C234.692 34.4071 234.431 35.496 232.494 35.5177C230.927 35.5177 229.85 34.6031 229.044 34.124L228.848 33.9934L228.75 33.9281V36.661L228.761 36.6719C228.783 36.6828 230.089 37.3905 232.527 37.4559V37.3687V37.4559C235.628 37.4559 237.511 35.9968 237.511 33.5579C237.511 31.2169 235.356 30.0845 233.68 29.1699ZM141.524 29.1699C140.207 28.473 139.119 27.8524 139.119 26.9814C139.13 25.7183 140.284 25.7183 140.882 25.7183H140.926C142.068 25.7183 143.026 25.9252 143.842 26.2627L144.278 26.4261L144.365 26.4587L144.376 24.0197L144.31 24.0089C144.31 24.0089 142.961 23.6495 140.991 23.6387C140.969 23.6169 140.958 23.6387 140.958 23.6387C138.107 23.6387 136.333 24.9997 136.333 27.1665C136.333 29.2679 138.216 30.2914 139.837 31.1951C141.263 31.9682 142.558 32.6977 142.558 33.8954C142.536 34.4071 142.264 35.496 140.316 35.5177C138.76 35.5177 137.672 34.6031 136.888 34.124L136.671 33.9934L136.573 33.9281V36.661L136.605 36.6719C136.605 36.6719 137.922 37.3905 140.349 37.4559V37.3687V37.4559C143.451 37.4559 145.333 35.9968 145.333 33.5579C145.355 31.2169 143.211 30.0845 141.524 29.1699ZM148.903 37.2599H151.493V23.8346H148.903V37.2599ZM159.535 23.8346H156.118V37.249H159.535C162.572 37.249 165.434 36.3997 165.434 30.5091C165.434 25.751 163.758 23.8455 159.535 23.8346ZM159.535 35.2238H158.687V25.7728H159.535C162.18 25.7836 162.637 27.2644 162.648 30.4656C162.626 34.5814 161.581 35.2129 159.535 35.2238ZM186.068 23.8346H182.651V37.249H186.068C189.104 37.249 191.977 36.3997 191.988 30.5091C191.977 25.751 190.29 23.8455 186.068 23.8346ZM186.068 35.2238H185.219V25.7728H186.068C188.723 25.7836 189.169 27.2644 189.169 30.4656C189.159 34.5814 188.103 35.2129 186.068 35.2238ZM69.36 32.8501C69.36 34.4725 68.3044 35.2891 66.8134 35.3C65.3007 35.2891 64.3213 34.4725 64.3213 32.8501V21.559H61.6876V33.0788C61.7094 35.8117 63.5486 37.4559 66.5849 37.4559H67.1073C70.1763 37.4559 71.9719 35.8444 71.9828 33.0788V21.559H69.3492V32.8501H69.36Z" fill="white"/>
<path d="M24.2393 57V23.7473C3.49657 15.0258 0.394958 0 0.394958 0V33.0894C0.394958 45.0338 24.2393 57 24.2393 57ZM29.9746 20.6768V53.7444C31.8355 52.5794 33.9903 51.1639 36.156 49.5415L36.1452 17.9547C8.938 15.3851 0.394958 0 0.394958 0C9.66716 18.902 29.9746 20.6768 29.9746 20.6768ZM48.0837 5.06304V0C40.618 2.26476 32.5865 3.51691 24.2393 3.52779C15.8922 3.51691 7.87148 2.26476 0.394958 0C0.394958 0 18.5476 11.1278 48.0837 5.06304ZM41.9131 14.3616V44.5765C45.4282 41.0378 48.0837 37.0636 48.0837 33.0894V10.4309C43.774 10.8447 34.5454 11.3456 24.8379 9.549C13.2911 7.40401 6.22817 4.5404 0.394958 0C14.2488 14.6991 41.9131 14.3616 41.9131 14.3616Z" fill="white"/>
</svg>
