<svg width="197" height="104" viewBox="0 0 197 104" fill="none" xmlns="http://www.w3.org/2000/svg">
<path d="M156.773 32.3556H2.758C1.23608 32.3556 0 31.123 0 29.6053V2.75022C0 1.23259 1.23608 0 2.758 0H156.773C158.295 0 159.531 1.23259 159.531 2.75022V29.6053C159.531 31.123 158.295 32.3556 156.773 32.3556Z" fill="#DE0613"/>
<path d="M194.242 68.1778H2.758C1.23608 68.1778 0 66.9452 0 65.4276V38.5725C0 37.0548 1.23608 35.8222 2.758 35.8222H194.242C195.764 35.8222 197 37.0548 197 38.5725V65.4276C197 66.9452 195.764 68.1778 194.242 68.1778Z" fill="#20355C"/>
<path d="M140.55 104H2.758C1.23608 104 0 102.767 0 101.25V74.3947C0 72.877 1.23608 71.6444 2.758 71.6444H140.55C142.072 71.6444 143.308 72.877 143.308 74.3947V101.25C143.308 102.767 142.072 104 140.55 104Z" fill="#DE0613"/>
<path d="M15.142 7.65363V10.4H13.6896V20.3378C13.6896 23.8468 11.905 25.195 9.10062 25.195C8.03064 25.195 7.11131 25.1179 6.3967 24.9677L6.67868 22.2483C7.2156 22.3253 7.64823 22.3754 8.13107 22.3754C9.27831 22.3754 10.1706 21.944 10.1706 20.3416V10.4H8.71821V7.65363H15.142Z" fill="white"/>
<path d="M15.7561 16.1701C15.7561 11.2898 17.3862 7.39938 23.4816 7.39938C29.5732 7.39938 31.1801 11.2898 31.1801 16.1701C31.1801 21.1004 29.5732 25.1949 23.4816 25.1949C17.3862 25.1911 15.7561 21.1004 15.7561 16.1701ZM19.4528 16.1701C19.4528 19.602 20.0631 22.4755 23.4816 22.4755C26.8963 22.4755 27.4834 19.602 27.4834 16.1701C27.4834 12.7381 26.8963 10.1458 23.4816 10.1458C20.0631 10.1458 19.4528 12.7381 19.4528 16.1701Z" fill="white"/>
<path d="M40.918 7.65363C44.5645 7.65363 46.6542 9.66044 46.6542 13.0154C46.6542 15.3804 45.4568 17.237 43.3902 17.8187L46.7315 22.2175H47.8787V24.9369H41.2V22.2175H42.297L39.5429 18.4041H37.0437V22.2175H38.4961V24.9369H32.0724V22.2175H33.5248V10.4H32.0724V7.65363H40.918ZM37.0437 15.6616H40.4854C41.9378 15.6616 43.0619 14.8489 43.0619 13.0193C43.0619 11.2898 42.0151 10.4 40.5395 10.4H37.0437V15.6616Z" fill="white"/>
<path d="M65.4658 7.65363V10.4H63.9864V24.9407H60.3902L53.3831 13.9822H53.3329V22.2175H54.8896V24.9369H48.6436V22.2175H50.0959V10.4H48.6436V7.65363H53.5106L60.7262 19.0936H60.7764V10.4H59.2197V7.65363H65.4658Z" fill="white"/>
<path d="M76.1231 7.65363L80.7623 22.2175H82.1644V24.9369H75.3312V22.2175H76.9381L76.2004 19.7022H70.9239L70.0818 22.2175H71.7119V24.9369H65.0872V22.2175H66.6671L70.5917 10.4H68.8843V7.65363H76.1231ZM73.678 10.7813L71.6385 17.16H75.5901L73.705 10.7813H73.678Z" fill="white"/>
<path d="M90.8595 7.65363C96.8235 7.65363 98.5309 11.2898 98.5309 16.1701C98.5309 21.1004 96.8235 24.9407 90.8595 24.9407H82.9331V22.2213H84.3855V10.4H82.9331V7.65363H90.8595ZM90.8595 22.2175C94.1467 22.2175 94.8381 19.5982 94.8381 16.1662C94.8381 12.7342 94.1505 10.3961 90.8595 10.3961H87.9006V22.2175H90.8595Z" fill="white"/>
<path d="M109.571 7.65363L114.21 22.2175H115.612V24.9369H108.779V22.2175H110.386L109.648 19.7022H104.371L103.529 22.2175H105.159V24.9369H98.5309V22.2175H100.111L104.039 10.4H102.332V7.65363H109.571ZM107.125 10.7813L105.086 17.16H109.038L107.153 10.7813H107.125Z" fill="white"/>
<path d="M128.896 7.65363C134.86 7.65363 136.567 11.2898 136.567 16.1701C136.567 21.1004 134.86 24.9407 128.896 24.9407H120.97V22.2213H122.422V10.4H120.97V7.65363H128.896ZM128.896 22.2175C132.183 22.2175 132.875 19.5982 132.875 16.1662C132.875 12.7342 132.187 10.3961 128.896 10.3961H125.937V22.2175H128.896Z" fill="white"/>
<path d="M150.771 7.65363V11.9253H148.044V10.4H142.435V14.6447H149.496V17.3911H142.435V22.2213H148.044V20.696H150.771V24.9407H137.463V22.2213H138.916V10.4H137.463V7.65363H150.771Z" fill="white"/>
<path d="M7.87613 58.0397V46.2222H6.42374V43.4758H12.8475V46.2222H11.3951V58.0435H12.8475V60.7629H6.42374V58.0435H7.87613V58.0397Z" fill="white"/>
<path d="M30.4384 43.4758V46.2222H28.959V60.7629H25.3628L18.3558 49.8044H18.3055V58.0397H19.8622V60.7591H13.6123V58.0397H15.0647V46.2222H13.6123V43.4758H18.4794L25.695 54.9158H25.7452V46.2222H24.1885V43.4758H30.4384Z" fill="white"/>
<path d="M48.0293 43.4758V46.2222H46.6774L41.8837 60.89H37.3991L32.4548 46.2222H31.2071V43.4758H38.1407V46.2222H36.3059L39.8249 57.2809H39.8519L43.1082 46.2222H41.2734V43.4758H48.0293Z" fill="white"/>
<path d="M62.1014 43.4758V47.7475H59.3743V46.2222H53.7655V50.4669H60.8266V53.2133H53.7655V58.0435H59.3743V56.5182H62.1014V60.7629H48.7942V58.0435H50.2466V46.2222H48.7942V43.4758H62.1014Z" fill="white"/>
<path d="M66.5126 55.8056V57.6121C68.1427 57.9665 69.344 58.0936 70.3367 58.0936C72.299 58.0936 73.1913 57.2038 73.1913 56.0598C73.1913 54.4344 71.202 54.0261 69.1895 53.4675C66.1804 52.6278 63.8357 50.9754 63.8357 48.0518C63.8357 44.5698 66.6903 43.2216 70.132 43.2216C72.1213 43.2216 73.9059 43.4758 76.2506 44.1884V48.4332H73.5235V46.5265C72.0209 46.2222 71.1015 46.1452 70.132 46.1452C68.3474 46.1452 67.5324 46.9078 67.5324 47.9517C67.5324 49.4 69.3672 50.0355 71.4839 50.544C74.493 51.2296 76.8879 52.6548 76.8879 55.6785C76.8879 59.3647 74.0334 61.0172 70.3367 61.0172C68.3474 61.0172 66.1302 60.763 63.7585 60.0773V55.8056H66.5126Z" fill="white"/>
<path d="M91.8792 43.4758V47.7475H89.1251V46.2222H86.8809V58.0435H88.3332V60.7629H81.9095V58.0435H83.3619V46.2222H81.0945V47.7475H78.3674V43.4758H91.8792Z" fill="white"/>
<path d="M94.3514 58.0397V46.2222H92.899V43.4758H99.3228V46.2222H97.8704V58.0435H99.3228V60.7629H92.899V58.0435H94.3514V58.0397Z" fill="white"/>
<path d="M108.196 58.0898C109.088 58.0898 109.903 57.9126 110.644 57.6314V54.6077H107.968V51.8613H114.163V59.8193C112.023 60.5819 110.212 61.0133 107.917 61.0133C101.953 61.0133 100.192 56.9227 100.192 51.9884C100.192 47.1081 101.822 43.2178 107.917 43.2178C109.98 43.2178 111.792 43.472 114.163 44.1846V48.2521H111.409V46.2954C110.034 46.0142 109.165 45.9641 108.196 45.9641C104.982 45.9641 103.889 48.5564 103.889 51.9884C103.885 55.6246 105.109 58.0898 108.196 58.0898Z" fill="white"/>
<path d="M126.601 43.4758L131.241 58.0397H132.643V60.7591H125.81V58.0397H127.416L126.679 55.5244H121.402L120.56 58.0397H122.19V60.7591H115.562V58.0397H117.142L121.07 46.2222H119.363V43.4758H126.601ZM124.152 46.6035L122.113 52.9822H126.065L124.18 46.6035H124.152Z" fill="white"/>
<path d="M146.665 56.0059V60.0735C144.293 60.7591 142.485 61.0133 140.418 61.0133C134.327 61.0133 132.693 56.9458 132.693 51.9884C132.693 47.1081 134.323 43.2178 140.418 43.2178C142.481 43.2178 144.293 43.472 146.665 44.1846V48.2521H143.91V46.2954C142.535 46.0142 141.666 45.9641 140.697 45.9641C137.483 45.9641 136.39 48.5564 136.39 51.9884C136.39 55.6747 137.487 58.2939 140.697 58.2939C141.666 58.2939 142.531 58.2438 143.91 57.9396V56.0059H146.665Z" fill="white"/>
<path d="M149.264 58.0397V46.2222H147.812V43.4758H154.236V46.2222H152.783V58.0435H154.236V60.7629H147.812V58.0435H149.264V58.0397Z" fill="white"/>
<path d="M155.105 51.9923C155.105 47.112 156.735 43.2216 162.83 43.2216C168.922 43.2216 170.529 47.112 170.529 51.9923C170.529 56.9226 168.922 61.0172 162.83 61.0172C156.735 61.0133 155.105 56.9226 155.105 51.9923ZM158.801 51.9923C158.801 55.4243 159.412 58.2978 162.83 58.2978C166.245 58.2978 166.832 55.4243 166.832 51.9923C166.832 48.5603 166.245 45.968 162.83 45.968C159.412 45.968 158.801 48.5603 158.801 51.9923ZM163.668 42.2047H161.884L163.286 38.6456H166.063L163.668 42.2047Z" fill="white"/>
<path d="M188.247 43.4758V46.2222H186.768V60.7629H183.171L176.16 49.8083H176.11V58.0435H177.667V60.7629H171.421V58.0435H172.873V46.2222H171.421V43.4758H176.288L183.504 54.9158H183.554V46.2222H181.997V43.4758H188.247Z" fill="white"/>
<path d="M20.8279 91.8281V95.8957C18.4562 96.5813 16.6484 96.8355 14.5818 96.8355C8.49029 96.8355 6.85635 92.768 6.85635 87.8106C6.85635 82.9304 8.48643 79.04 14.5818 79.04C16.6446 79.04 18.4562 79.2942 20.8279 80.0068V84.0744H18.0738V82.1176C16.6986 81.8364 15.8295 81.7864 14.86 81.7864C11.6462 81.7864 10.553 84.3786 10.553 87.8106C10.553 91.4969 11.65 94.1161 14.86 94.1161C15.8295 94.1161 16.6948 94.0661 18.0738 93.7618V91.8281H20.8279Z" fill="white"/>
<path d="M23.4275 93.8619V82.0444H21.9751V79.298H28.3989V82.0444H26.9465V93.8657H28.3989V96.5852H21.9751V93.8657H23.4275V93.8619Z" fill="white"/>
<path d="M42.4709 79.298V83.5697H39.7438V82.0444H34.1351V86.2892H41.1962V89.0355H34.1351V93.8657H39.7438V92.3404H42.4709V96.5852H29.1637V93.8657H30.6161V82.0444H29.1637V79.298H42.4709Z" fill="white"/>
<path d="M60.5215 79.298V82.0444H59.042V96.5852H55.4458L48.4388 85.6266H48.3886V93.8619H49.9453V96.5813H43.6992V93.8619H45.1516V82.0444H43.6992V79.298H48.5663L55.7819 90.738H55.8321V82.0444H54.2754V79.298H60.5215Z" fill="white"/>
<path d="M75.0531 79.298V83.5697H72.299V82.0444H70.0547V93.8657H71.5071V96.5852H65.0834V93.8657H66.5358V82.0444H64.2684V83.5697H61.5413V79.298H75.0531Z" fill="white"/>
<path d="M77.5253 93.8619V82.0444H76.0729V79.2981H82.4966V82.0444H81.0442V93.8658H82.4966V96.5852H76.0729V93.8658H77.5253V93.8619ZM79.9974 78.0269H78.2128L79.615 74.4678H82.3923L79.9974 78.0269Z" fill="white"/>
<path d="M96.3137 79.298V83.5697H93.5866V82.0444H88.2328V86.7976H95.039V89.544H88.2328V93.8657H89.6852V96.5852H83.2615V93.8657H84.7139V82.0444H83.2615V79.298H96.3137Z" fill="white"/>
<path d="M98.8631 93.8619V82.0444H97.4107V79.298H103.834V82.0444H102.382V93.8657H103.834V96.5852H97.4107V93.8657H98.8631V93.8619Z" fill="white"/>
<path d="M118.671 91.8281V95.8957C116.3 96.5813 114.492 96.8355 112.425 96.8355C106.334 96.8355 104.7 92.768 104.7 87.8106C104.7 82.9304 106.33 79.04 112.425 79.04C114.492 79.04 116.3 79.2942 118.671 80.0068V84.0744H115.917V82.1176C114.542 81.8364 113.673 81.7864 112.703 81.7864C109.489 81.7864 108.396 84.3786 108.396 87.8106C108.396 91.4969 109.493 94.1161 112.703 94.1161C113.673 94.1161 114.538 94.0661 115.917 93.7618V91.8281H118.671Z" fill="white"/>
<path d="M130.476 79.298L135.115 93.8619H136.517V96.5813H129.684V93.8619H131.291L130.553 91.3466H125.277L124.434 93.8619H126.065V96.5813H119.436V93.8619H121.016L124.944 82.0444H123.237V79.298H130.476ZM128.031 82.4257L125.991 88.8044H129.943L128.058 82.4257H128.031Z" fill="white"/>
</svg>
