<svg width="117" height="131" viewBox="0 0 117 131" fill="none" xmlns="http://www.w3.org/2000/svg">
<path d="M111.706 101.807V115.044C111.706 116.427 110.81 117.698 109.541 118.184H51.7419C50.4351 117.698 49.5763 116.427 49.5763 115.044V75.6708C49.5763 73.8386 51.0698 72.3056 52.9367 72.3056H110.81C111.333 72.3056 111.744 72.7169 111.744 73.2403V93.7307M83.9643 68.5291C84.8604 63.3691 83.1802 57.7978 79.8572 56.0778C78.4757 55.3674 77.5049 54.657 76.8701 53.8718C75.8247 52.6379 74.9659 50.357 74.6299 48.0014C76.4594 46.3562 77.5422 44.0379 77.5422 41.6075C77.5422 39.7379 76.9075 37.9058 75.75 36.4101V27.5484C75.75 12.8164 63.8393 0.888612 49.1283 1.00078C34.6786 1.11296 22.9172 13.1529 22.9172 27.885V36.4475C21.7597 37.9432 21.125 39.7753 21.125 41.6449C21.125 44.0753 22.2078 46.3936 24.0373 48.0388C23.776 50.1327 22.9919 52.5631 21.7597 54.0213C21.0877 54.8065 20.1169 55.4796 18.7354 56.2274C15.9724 57.6483 14.2175 61.6491 14.3295 66.2482C14.4416 70.2117 15.8977 73.6517 18.4367 76.0073L12.0893 78.4751H12.052C6.75 80.6064 1 86.8881 1 95.4507V124.84C1 127.682 3.31494 130 6.18994 130M41.026 65.7621C46.1039 68.0056 52.19 68.1178 57.3799 65.7621M61.151 68.5291V63.5561C65.2208 60.4526 68.0584 55.8535 68.8052 50.3944M71.9789 33.718C70.4854 33.1571 68.6932 32.9328 66.9757 33.1571C60.8149 33.1571 62.7565 33.2319 58.6867 32.8954C55.289 32.5962 52.1899 30.0163 51.3312 26.4641C51.1071 25.4919 50.211 24.7815 49.2029 24.7815C48.1948 24.7815 47.336 25.4545 47.0747 26.4267C47.0747 26.4267 47.0747 26.4267 47.0747 26.4641C46.2906 29.6797 43.5276 32.5215 39.6071 32.8954C35.9854 33.1945 36.3214 33.1571 31.4302 33.1571C29.6753 32.9328 27.9578 33.1945 26.4269 33.7554M29.6006 50.2822C30.2727 55.7039 33.1104 60.4152 37.2549 63.4813V68.4169L32.849 74.2125L43.0422 84.4203C43.3036 84.682 43.6769 84.682 43.9383 84.4203L47.4854 80.8681M47.448 130C46.2532 130 45.2825 128.579 45.2825 126.822V123.905H116V126.859C116 128.579 115.029 130 113.834 130H47.448ZM97.2938 81.3168C95.1283 79.1481 92.2159 77.9142 89.1169 77.9142C86.3166 77.9142 83.7029 78.8864 81.5747 80.7186C79.4838 78.9238 76.8701 77.9142 74.0698 77.9142C71.0081 77.9142 68.0958 79.1107 65.8929 81.3168C61.4123 85.8411 61.4123 93.1698 65.8929 97.6567L80.1932 111.977C80.5666 112.351 81.0893 112.576 81.5747 112.576C82.0974 112.576 82.5828 112.389 82.9935 111.977L97.2938 97.6567C99.5341 95.4133 100.654 92.4594 100.654 89.4681C100.654 86.5142 99.5341 83.5603 97.2938 81.3168ZM90.7598 94.815C90.6104 95.9367 89.6396 96.7219 88.5195 96.7219H83.815V101.545C83.815 102.854 82.6948 103.864 81.3507 103.714C80.2305 103.565 79.4465 102.592 79.4465 101.471V96.7219H74.6299C73.3231 96.7219 72.315 95.6002 72.4643 94.2541C72.6137 93.1324 73.5844 92.3472 74.7046 92.3472H79.4091V87.5237C79.4091 86.215 80.5293 85.2055 81.8734 85.3551C82.9935 85.5046 83.7776 86.4768 83.7776 87.5985V92.3098H88.5942C89.8637 92.3472 90.9091 93.4689 90.7598 94.815Z" stroke="white" stroke-width="2" stroke-miterlimit="10"/>
</svg>
