<svg width="117" height="131" viewBox="0 0 117 131" fill="none" xmlns="http://www.w3.org/2000/svg">
<path d="M85.333 86.6954V96.3333M75.6725 96.3707V86.6954M61.2753 68.4655V63.6092C65.5647 60.4339 68.5486 55.5776 69.22 49.9741C74.1062 49.5259 77.7242 45.6408 77.7242 41.046C77.7242 37.908 76.1576 35.0316 73.6959 33.3506C73.957 32.7155 74.1062 32.0431 74.1062 31.296V27.5603C74.1062 26.5891 73.3975 25.7299 72.465 25.6178C71.3087 25.4684 70.339 26.3649 70.339 27.4856V31.1466C70.339 31.9684 69.7049 32.7155 68.7351 32.6782C66.1615 32.6408 64.1846 30.4741 64.1846 28.0086C64.1846 27 63.476 26.1034 62.5062 25.842C61.4991 25.5805 60.492 26.0661 60.0071 26.9626C58.1422 30.4741 54.5242 32.6782 50.5332 32.6782H29.0116C27.2213 32.6782 25.5801 31.1839 25.5801 29.2414M72.1665 20.6121C73.2109 20.6121 74.0688 19.7529 74.1061 18.7069V16.727C74.0688 12.1695 70.1151 8.88218 66.0868 9.18103C65.3035 9.25575 64.5948 8.77011 64.4829 8.06034C63.5505 3.24138 55.1955 1 55.1955 1H36.0984C28.0791 1 21.5891 7.5 21.5891 15.5316V29.4282C21.5891 31.408 22.3723 33.2011 23.6778 34.5086C21.8502 36.227 20.7685 38.6178 20.7685 41.0833C20.7685 45.6408 24.3865 49.5632 29.2727 49.9741C29.9068 55.4655 32.7788 60.3592 37.1801 63.5718V68.4282C32.1447 70.408 17.0386 76.3477 11.9659 78.3276H11.9286C6.66945 80.4942 1 86.7701 1 95.3247V127.078C1 128.609 2.23087 129.842 3.76013 129.842M104.654 105.859V105.784C104.654 105.747 104.654 105.71 104.654 105.672C104.654 105.598 104.654 105.56 104.617 105.486C104.617 105.486 104.617 105.486 104.617 105.448C104.617 105.336 104.579 105.187 104.542 105.075C104.393 104.253 104.02 103.506 103.498 102.908C103.125 102.497 102.715 102.124 102.23 101.862C101.969 101.713 101.67 101.563 101.372 101.488C101.036 97.1925 99.1711 93.2701 96.2618 90.3563C95.4785 89.5718 94.6206 88.8247 93.6881 88.1897C93.3152 87.9282 92.9422 87.704 92.5319 87.4799C92.3454 87.3678 92.1216 87.2557 91.9351 87.1437C91.8232 87.1063 91.7486 87.0316 91.6367 86.9942C91.4502 86.8822 91.2264 86.8075 91.0399 86.6954C90.928 86.658 90.8161 86.5833 90.7415 86.546C90.5177 86.4713 90.3312 86.3592 90.1074 86.2845C89.5853 86.0603 89.0258 85.9109 88.4663 85.7241C88.056 83.5201 86.2283 81.3534 83.7293 81.3534H77.2766C74.7775 81.3534 72.9499 83.4828 72.5396 85.7241C71.9801 85.8736 71.4206 86.0603 70.8984 86.2845C70.6746 86.3592 70.4882 86.4713 70.2644 86.546C70.1525 86.5833 70.0406 86.6207 69.966 86.6954C69.7422 86.8075 69.5557 86.8822 69.3692 86.9942C69.2573 87.0316 69.1827 87.1063 69.0708 87.1437C68.8843 87.2557 68.6605 87.3678 68.474 87.4799C68.101 87.704 67.6907 87.9655 67.3177 88.1897C66.3853 88.8247 65.5274 89.5345 64.7441 90.3563C61.8348 93.3075 59.9698 97.2299 59.6341 101.488C59.3357 101.601 59.0373 101.713 58.7763 101.862C58.2914 102.124 57.8811 102.497 57.5081 102.908C57.4335 102.983 57.3962 103.057 57.3216 103.132C56.874 103.693 56.5756 104.365 56.4264 105.075C56.4264 105.149 56.3891 105.224 56.3891 105.299C56.3891 105.336 56.3891 105.374 56.3891 105.411C56.3891 105.411 56.3891 105.411 56.3891 105.448C56.3891 105.523 56.3891 105.56 56.3518 105.635C56.3518 105.672 56.3518 105.71 56.3518 105.747C56.3518 105.784 56.3518 105.822 56.3518 105.822C56.3518 105.897 56.3518 105.934 56.3518 106.009C56.3518 106.083 56.3518 106.121 56.3518 106.195C56.3518 106.27 56.3518 106.382 56.3518 106.457C56.3518 106.494 56.3518 106.532 56.3518 106.569C56.3518 106.644 56.3891 106.718 56.3891 106.83V106.868C56.3891 106.905 56.3891 106.943 56.4264 106.98C56.4637 107.167 56.501 107.316 56.5756 107.503C56.6129 107.615 56.6502 107.764 56.7248 107.876C56.7248 107.914 56.7621 107.951 56.7621 107.988C56.7994 108.063 56.8367 108.138 56.874 108.213C57.1724 108.81 57.5827 109.296 58.0676 109.707C58.1049 109.744 58.1795 109.782 58.2168 109.819C59.0373 110.491 60.119 110.828 61.2007 110.828H99.8425C100.924 110.828 101.969 110.491 102.826 109.819C102.864 109.782 102.938 109.744 102.976 109.707C103.46 109.296 103.871 108.773 104.169 108.213C104.206 108.138 104.244 108.063 104.281 107.988C104.281 107.951 104.318 107.914 104.318 107.876C104.356 107.764 104.43 107.615 104.468 107.503C104.505 107.353 104.579 107.167 104.617 106.98C104.617 106.943 104.617 106.905 104.654 106.868V106.83C104.654 106.793 104.654 106.756 104.654 106.756C104.654 106.718 104.654 106.644 104.691 106.606C104.691 106.569 104.691 106.532 104.691 106.494C104.691 106.42 104.691 106.307 104.691 106.233C104.691 106.158 104.691 106.121 104.691 106.046C104.691 106.009 104.691 105.934 104.654 105.859ZM47.3627 129.879C46.1691 129.879 45.1994 128.46 45.1994 126.704V123.79H115.844V126.741C115.844 128.46 114.874 129.879 113.68 129.879H47.3627ZM108.197 72.2385C110.025 72.2385 111.554 73.7328 111.554 75.6006V114.937C111.554 116.319 110.659 117.589 109.391 118.075H51.6521C50.3093 117.552 49.4888 116.282 49.4888 114.937V75.6006C49.4888 73.7701 50.9807 72.2385 52.8457 72.2385H108.197Z" stroke="white" stroke-width="2" stroke-miterlimit="10"/>
</svg>
