<svg width="117" height="131" viewBox="0 0 117 131" fill="none" xmlns="http://www.w3.org/2000/svg">
<path d="M111.706 101.807V115.044C111.706 116.427 110.81 117.698 109.541 118.184H51.7419C50.4351 117.698 49.5763 116.427 49.5763 115.044V75.6708C49.5763 73.8386 51.0698 72.3056 52.9367 72.3056H110.81C111.333 72.3056 111.744 72.7169 111.744 73.2403V93.7307M83.9643 68.5291C84.8604 63.3691 83.1802 57.7978 79.8571 56.0778C78.4756 55.3674 77.5049 54.657 76.8701 53.8718C75.8247 52.6379 74.9659 50.357 74.6299 48.0014C76.4594 46.3562 77.5422 44.0379 77.5422 41.6075C77.5422 39.7379 76.9074 37.9058 75.75 36.4101V27.5484C75.75 12.8164 63.8393 0.888612 49.1282 1.00078C34.6786 1.11296 22.9172 13.1529 22.9172 27.885V36.4475C21.7597 37.9432 21.125 39.7753 21.125 41.6449C21.125 44.0753 22.2078 46.3936 24.0373 48.0388C23.776 50.1327 22.9919 52.5631 21.7597 54.0213C21.0877 54.8065 20.1169 55.4796 18.7354 56.2274C15.9724 57.6483 14.2175 61.6491 14.3295 66.2482C14.4416 70.2117 15.8977 73.6517 18.4367 76.0073L12.0893 78.4751H12.0519C6.75 80.6064 1 86.8881 1 95.4506V124.84C1 127.682 3.31493 130 6.18993 130M41.026 65.7621C46.104 68.0056 52.19 68.1178 57.3799 65.7621M61.151 68.5291V63.5561C65.2208 60.4526 68.0585 55.8535 68.8052 50.3944M71.9789 33.718C70.4854 33.1571 68.6932 32.9328 66.9757 33.1571C60.815 33.1571 62.7565 33.2319 58.6867 32.8954C53.2765 32.4191 52.911 24.7815 49.2029 24.7815C45.1114 24.7815 46.4944 32.2385 39.6072 32.8954C35.9854 33.1945 36.3215 33.1571 31.4302 33.1571C29.6754 32.9328 27.9578 33.1945 26.427 33.7554M29.6007 50.2822C30.2728 55.7039 33.1104 60.4152 37.2549 63.4813V68.4169L32.8491 74.2125L43.0422 84.4203C43.3036 84.682 43.677 84.682 43.9383 84.4203L47.4854 80.8681M94.3068 94.2167L96.5844 93.095V101.508C95.6509 101.882 94.8295 102.555 94.3068 103.452M66.901 95.8619L76.4967 100.685C77.8782 101.358 79.5584 101.396 80.9772 100.685L90.573 95.8619M47.4481 130C46.2533 130 45.2825 128.579 45.2825 126.822V123.905H116V126.859C116 128.579 115.029 130 113.834 130H47.4481ZM58.7613 85.9907C57.6412 86.5516 56.9691 87.6733 56.9691 88.9072C56.9691 90.1411 57.6412 91.2628 58.7613 91.8237L63.0925 93.9924V104.35C63.0925 106.107 64.0259 107.678 65.5568 108.5C73.7337 112.912 83.5908 112.912 91.7305 108.5C92.2158 108.238 92.6639 107.902 92.9999 107.491L92.8879 107.977C92.2532 110.444 94.0827 112.837 96.6217 112.837H100.243C102.857 112.837 104.761 110.444 104.089 107.977L103.268 104.911C102.857 103.415 101.737 102.256 100.318 101.695V88.9072C100.318 87.6733 99.646 86.5516 98.5259 85.9907L80.9025 77.129C79.4837 76.4186 77.8408 76.4186 76.422 77.129L58.7613 85.9907Z" stroke="white" stroke-width="2" stroke-miterlimit="10"/>
</svg>
