<svg width="349" height="57" viewBox="0 0 349 57" fill="none" xmlns="http://www.w3.org/2000/svg">
<path d="M206.179 21.4468C202.226 21.4576 199.856 24.4643 199.856 29.6803C199.856 34.3036 202.366 37.6337 206.577 37.6337H206.62C209.259 37.6337 210.649 36.5883 210.864 36.3836L210.886 33.6031L210.767 33.7217C210.767 33.7217 209.162 35.2305 206.954 35.1658H206.857C203.863 34.8748 202.613 32.6979 202.71 29.3031C202.743 28.0099 203.227 23.8716 206.168 23.8716C207.439 23.8716 208.398 24.6152 208.398 25.9731V26.0485H211.468V25.9731C211.468 23.8393 210.078 21.4468 206.179 21.4468Z" fill="#002855"/>
<path d="M220.333 22.8158L222.035 19.809L219.719 19.7551L218.782 22.8481H220.333V22.8158ZM279.254 21.7704L275.225 33.9807L275.171 34.1639L275.107 33.9807L271.509 22.7619C271.509 22.7619 271.218 21.8027 269.904 21.8027H268.46L273.609 37.2137L273.598 37.2461L273.588 37.3323H276.636L276.658 37.2892L276.679 37.2245L281.936 21.7704H279.254ZM173.11 24.7125C173.067 24.5724 172.787 24.012 172.044 24.012H169.976L165.43 37.3431H168.091L169.211 33.8729L169.222 33.8298H173.606V33.8729L174.726 37.3431H177.376L177.344 37.2353L173.11 24.7125ZM169.847 31.8037L171.419 26.8248L172.97 31.8037H169.847ZM243.901 24.7125C243.869 24.5724 243.6 24.012 242.846 24.012H240.788L236.221 37.3431H238.892L239.991 33.8729L240.013 33.8298H244.397L244.418 33.8729L245.528 37.3431H248.178L248.156 37.2353L243.901 24.7125ZM240.648 31.8037L242.199 26.8248L243.761 31.8037H240.648ZM289.659 25.1436C289.433 24.3784 289.088 24.012 288.032 24.0228C288.032 24.0228 288 24.0228 287.979 24.0228H286.417L281.86 37.3538H284.499L285.63 33.8837L285.641 33.8406H290.036V33.8729L291.156 37.3431H293.806L293.774 37.2353L289.659 25.1436ZM286.266 31.8037L287.828 26.8248L289.379 31.8037H286.266ZM309.694 24.0659H307.163V37.3538H314.778V35.317H309.705V24.0659H309.694ZM298.998 24.0659H296.456V37.3538H304.082V35.317H298.998V24.0659ZM332.314 33.8082C332.304 35.1446 331.819 35.6187 330.494 35.6403C329.772 35.6403 329.126 35.414 328.717 35.2739L328.49 35.1985L328.394 35.1661V37.2676L328.469 37.2892C328.469 37.2892 329.46 37.537 330.494 37.5586V37.4832V37.5586C334.102 37.5586 334.856 36.1037 334.856 33.6897V24.0767H332.325V33.8082H332.314ZM343.592 23.8611C339.984 23.8611 338.206 26.1351 338.206 30.7045C338.206 35.2631 339.984 37.537 343.592 37.537C347.179 37.537 348.989 35.1877 349 30.7045C349 26.1889 347.19 23.8611 343.592 23.8611ZM343.592 35.6295C341.847 35.6295 340.975 34.0561 340.975 30.7045C340.975 27.3205 341.847 25.7579 343.592 25.7579C345.359 25.7579 346.231 27.3205 346.231 30.7045C346.231 34.0669 345.359 35.6295 343.592 35.6295ZM82.9092 33.0754L78.5898 24.8203C78.579 24.8095 78.1697 24.0336 77.211 24.0443H75.1968V37.3215H77.5557V27.7947L82.4999 37.3215H85.2682V24.0551H82.9092V33.0754ZM89.6091 37.3323H92.1405V24.0551H89.6091V37.3323ZM101.189 34.1208L98.3664 25.1328C98.2372 24.6802 97.8602 24.0443 96.8369 24.0443H95.2858L99.6806 37.3215H102.61L102.621 37.2784L107.178 24.0228L104.517 24.012L101.189 34.1208ZM112.703 31.4696H117.777V29.4544H112.703V26.0704H118.068V24.0551H110.161V37.3323H118.218V35.317H112.714V31.4696H112.703ZM217.134 31.4696H222.197V29.4544H217.134V26.0704H222.466V24.0551H214.581V37.3323H222.638V35.317H217.134V31.4696ZM320.218 31.4696H325.302V29.4544H320.218V26.0704H325.571V24.0551H317.665V37.3323H325.733V35.317H320.207V31.4696H320.218ZM130.369 33.4849L130.358 33.3987C130.1 32.2564 129.884 31.2218 128.624 30.7045L128.484 30.629L128.624 30.5859C129.992 30.101 130.627 29.131 130.627 27.6223C130.627 25.2729 129.152 24.0443 126.308 24.0443H122.204V37.3215H124.746V31.7714H125.435C127.353 31.7929 127.525 32.3533 127.978 34.401L128.624 37.3215H131.209L131.198 37.2353L130.369 33.4849ZM125.435 29.8854H124.746V25.9626H126.308C127.45 25.9734 128.031 26.62 128.053 27.8701C128.042 29.2927 127.31 29.8639 125.435 29.8854ZM258.788 33.3987C258.54 32.2564 258.335 31.2218 257.086 30.7045L256.924 30.629L257.086 30.5859C258.443 30.101 259.089 29.1203 259.078 27.6223C259.078 25.2729 257.592 24.0551 254.748 24.0443H250.644V37.3215H253.176V31.7714H253.876C255.804 31.7929 255.955 32.3533 256.429 34.401L257.053 37.3215H259.649L259.617 37.2353L258.788 33.3987ZM253.887 29.8854H253.186V25.9626H254.759C255.901 25.9734 256.493 26.62 256.504 27.8701C256.482 29.2927 255.761 29.8639 253.887 29.8854ZM230.9 29.3358C229.597 28.6461 228.519 28.0318 228.53 27.1696C228.53 25.9195 229.683 25.9195 230.264 25.9195H230.297C231.439 25.9195 232.386 26.1243 233.216 26.4584L233.625 26.62L233.722 26.6524V24.2383L233.668 24.2275C233.668 24.2275 232.333 23.8719 230.372 23.8611C230.372 23.8611 230.351 23.8611 230.318 23.8611C227.539 23.8611 225.773 25.2082 225.762 27.3529C225.773 29.4328 227.625 30.4458 229.241 31.3403C230.641 32.1055 231.934 32.8275 231.923 34.013C231.902 34.5195 231.643 35.5972 229.726 35.6187C228.175 35.6187 227.108 34.7135 226.311 34.2393L226.117 34.11L226.02 34.0453V36.7503L226.031 36.7611C226.053 36.7719 227.345 37.4724 229.758 37.537V37.4508V37.537C232.828 37.537 234.692 36.0929 234.692 33.6789C234.692 31.3619 232.559 30.2411 230.9 29.3358ZM139.686 29.3358C138.383 28.6461 137.306 28.0318 137.306 27.1696C137.316 25.9195 138.458 25.9195 139.051 25.9195H139.094C140.225 25.9195 141.173 26.1243 141.981 26.4584L142.411 26.62L142.498 26.6524L142.508 24.2383L142.444 24.2275C142.444 24.2275 141.108 23.8719 139.158 23.8611C139.137 23.8396 139.126 23.8611 139.126 23.8611C136.304 23.8611 134.548 25.2082 134.548 27.3529C134.548 29.4328 136.412 30.4458 138.017 31.3403C139.428 32.1055 140.71 32.8275 140.71 34.013C140.688 34.5195 140.419 35.5972 138.491 35.6187C136.95 35.6187 135.873 34.7135 135.098 34.2393L134.882 34.11L134.785 34.0453V36.7503L134.817 36.7611C134.817 36.7611 136.121 37.4724 138.523 37.537V37.4508V37.537C141.593 37.537 143.456 36.0929 143.456 33.6789C143.478 31.3619 141.356 30.2411 139.686 29.3358ZM146.989 37.3431H149.553V24.0551H146.989V37.3431ZM157.513 24.0551H154.131V37.3323H157.513C160.518 37.3323 163.351 36.4917 163.351 30.6614C163.351 25.9519 161.693 24.0659 157.513 24.0551ZM157.513 35.3278H156.673V25.9734H157.513C160.131 25.9842 160.583 27.4498 160.594 30.6183C160.572 34.6919 159.538 35.317 157.513 35.3278ZM183.774 24.0551H180.392V37.3323H183.774C186.78 37.3323 189.623 36.4917 189.634 30.6614C189.623 25.9519 187.954 24.0659 183.774 24.0551ZM183.774 35.3278H182.934V25.9734H183.774C186.403 25.9842 186.844 27.4498 186.844 30.6183C186.833 34.6919 185.789 35.317 183.774 35.3278ZM68.2599 32.9784C68.2599 34.5842 67.215 35.3924 65.7393 35.4032C64.2421 35.3924 63.2726 34.5842 63.2726 32.9784V21.8027H60.6659V33.2047C60.6874 35.9097 62.5078 37.537 65.5131 37.537H66.0301C69.0677 37.537 70.845 35.9421 70.8558 33.2047V21.8027H68.2491V32.9784H68.2599Z" fill="#002855"/>
<path d="M23.6005 56.8815V23.9688C3.0699 15.3365 0 0.464355 0 0.464355V33.2154C0 45.0377 23.6005 56.8815 23.6005 56.8815ZM29.2772 20.9297V53.6592C31.1191 52.5061 33.2519 51.1051 35.3954 49.4993L35.3846 18.2355C8.45569 15.6921 0 0.464355 0 0.464355C9.17739 19.1731 29.2772 20.9297 29.2772 20.9297ZM47.2011 5.47562V0.464355C39.8118 2.70595 31.8623 3.9453 23.6005 3.95608C15.3387 3.9453 7.40008 2.70595 0 0.464355C0 0.464355 17.967 11.4784 47.2011 5.47562ZM41.0936 14.6791V44.5851C44.5728 41.0826 47.2011 37.149 47.2011 33.2154V10.7886C42.9355 11.1982 33.8012 11.6939 24.193 9.91571C12.7643 7.79266 5.77357 4.95833 0 0.464355C13.7122 15.0132 41.0936 14.6791 41.0936 14.6791Z" fill="#C8102E"/>
</svg>
