<svg width="40" height="40" viewBox="0 0 40 40" fill="none" xmlns="http://www.w3.org/2000/svg">
<circle cx="20" cy="20" r="19.25" stroke="white" stroke-width="1.5"/>
<path d="M22.4773 24.42V22.92H20.9773V24.42H22.4773ZM22.4773 25.36V26.86H23.9773V25.36H22.4773ZM19.2573 25.36H17.7573V26.86H19.2573V25.36ZM19.2573 25.32L18.3944 24.093L17.7573 24.5411V25.32H19.2573ZM15.0173 15.2L14.4658 13.8051L13.5173 14.1801V15.2H15.0173ZM15.0173 18.06H13.5173V19.56H15.0173V18.06ZM17.4973 18.06V19.56H18.9973V18.06H17.4973ZM17.4973 17.14L17.0852 15.6977L15.9973 16.0085V17.14H17.4973ZM15.0173 25.16L14.2263 23.8855L13.5173 24.3255V25.16H15.0173ZM15.0173 28H13.5173V29.5H15.0173V28ZM24.9373 28V29.5H26.4373V28H24.9373ZM24.9373 24.42H26.4373V22.92H24.9373V24.42ZM20.9773 24.42V25.36H23.9773V24.42H20.9773ZM22.4773 23.86H19.2573V26.86H22.4773V23.86ZM20.7573 25.36V25.32H17.7573V25.36H20.7573ZM20.1201 26.547C23.1952 24.3845 25.8773 22.0027 25.8773 18.36H22.8773C22.8773 20.3173 21.5194 21.8955 18.3944 24.093L20.1201 26.547ZM25.8773 18.36C25.8773 16.8569 25.376 15.3995 24.2544 14.3212C23.1342 13.2443 21.5573 12.7 19.6973 12.7V15.7C20.9773 15.7 21.7403 16.0657 22.1752 16.4838C22.6086 16.9005 22.8773 17.5231 22.8773 18.36H25.8773ZM19.6973 12.7C17.6878 12.7 16.2944 13.0821 14.4658 13.8051L15.5688 16.5949C17.1801 15.9579 18.1867 15.7 19.6973 15.7V12.7ZM13.5173 15.2V18.06H16.5173V15.2H13.5173ZM15.0173 19.56H17.4973V16.56H15.0173V19.56ZM18.9973 18.06V17.14H15.9973V18.06H18.9973ZM17.9093 18.5823C18.3038 18.4696 18.6195 18.44 18.9973 18.44V15.44C18.415 15.44 17.8107 15.4904 17.0852 15.6977L17.9093 18.5823ZM18.9973 18.44C19.1398 18.44 19.2747 18.45 19.3921 18.4735C19.5105 18.4973 19.5753 18.5277 19.604 18.5459C19.6212 18.5568 19.6256 18.5613 19.6348 18.5793C19.6477 18.6044 19.6973 18.7151 19.6973 18.98H22.6973C22.6973 17.6231 22.1427 16.6008 21.2055 16.0091C20.3925 15.4959 19.4915 15.44 18.9973 15.44V18.44ZM19.6973 18.98C19.6973 19.2124 19.6457 19.623 18.9109 20.4061C18.1364 21.2316 16.7273 22.3335 14.2263 23.8855L15.8082 26.4345C18.3672 24.8465 20.0482 23.5784 21.0986 22.4589C22.1889 21.297 22.6973 20.1876 22.6973 18.98H19.6973ZM13.5173 25.16V28H16.5173V25.16H13.5173ZM15.0173 29.5H24.9373V26.5H15.0173V29.5ZM26.4373 28V24.42H23.4373V28H26.4373ZM24.9373 22.92H22.4773V25.92H24.9373V22.92Z" fill="white"/>
</svg>
