<svg width="36" height="42" viewBox="0 0 36 42" fill="none" xmlns="http://www.w3.org/2000/svg">
<path d="M31.8661 42H4.12117C1.85136 42 0 39.84 0 37.177V8.31325C0 5.66506 1.85136 3.50508 4.12117 3.50508H31.8661C34.1359 3.50508 35.9873 5.66506 35.9873 8.31325V37.1918C36 39.84 34.1486 42 31.8661 42ZM4.12117 6.12368C3.09405 6.12368 2.24445 7.10011 2.24445 8.31325V37.1918C2.24445 38.3902 3.08136 39.3814 4.12117 39.3814H31.8661C32.8933 39.3814 33.7428 38.405 33.7428 37.1918V8.31325C33.7428 7.1149 32.9059 6.12368 31.8661 6.12368H4.12117Z" fill="#E30613"/>
<path d="M34.8714 16.628H1.12857C0.507221 16.628 0 16.0365 0 15.3118C0 14.5871 0.507221 13.9955 1.12857 13.9955H34.8714C35.4928 13.9955 36 14.5871 36 15.3118C36 16.0365 35.4928 16.628 34.8714 16.628Z" fill="#E30613"/>
<path d="M8.623 10.5038C8.00165 10.5038 7.49443 9.91205 7.49443 9.18714V1.31668C7.49443 0.591764 8.00165 0 8.623 0C9.24435 0 9.75158 0.591764 9.75158 1.31668V9.18714C9.75158 9.91205 9.24435 10.5038 8.623 10.5038Z" fill="#02BFF2"/>
<path d="M27.3773 10.5038C26.7559 10.5038 26.2487 9.91205 26.2487 9.18714V1.31668C26.2487 0.591764 26.7559 0 27.3773 0C27.9986 0 28.5058 0.591764 28.5058 1.31668V9.18714C28.4931 9.91205 27.9986 10.5038 27.3773 10.5038Z" fill="#02BFF2"/>
<path d="M15.8887 33.4502C15.6224 33.4502 15.3434 33.3318 15.1278 33.1099C13.6442 31.5713 11.1969 29.0414 10.9813 28.8343C10.4994 28.3757 10.4107 27.5472 10.7911 26.9702C11.1715 26.3932 11.8689 26.2896 12.3635 26.7187C12.4903 26.837 13.6442 28.0206 15.8126 30.2546L22.9137 21.4518C23.3448 20.9192 24.0676 20.8896 24.5241 21.3927C24.9806 21.8957 25.006 22.739 24.5748 23.2716L16.7129 33.0211C16.4973 33.317 16.193 33.4502 15.8887 33.4502Z" fill="#02BFF2"/>
</svg>
