<svg width="369" height="60" viewBox="0 0 369 60" fill="none" xmlns="http://www.w3.org/2000/svg">
<path d="M217.68 22.1367C213.513 22.1539 211.01 25.326 211.01 30.8131C211.01 35.6999 213.65 39.1979 218.109 39.1979H218.16C220.938 39.1979 222.412 38.1005 222.653 37.8776L222.67 34.9455L222.55 35.0655C222.55 35.0655 220.852 36.6602 218.52 36.5916H218.417C215.262 36.2829 213.942 33.9852 214.045 30.4015C214.079 29.0469 214.593 24.6745 217.697 24.6745C219.035 24.6745 220.046 25.4632 220.046 26.8864V26.9721H223.287V26.8864C223.27 24.6573 221.795 22.1539 217.68 22.1367Z" fill="#233559"/>
<path d="M232.615 23.5942L234.399 20.422L231.947 20.3706L230.952 23.6285H232.581L232.615 23.5942ZM294.824 22.4797L290.572 35.357L290.52 35.5456L290.452 35.357L286.645 23.5256C286.645 23.5256 286.337 22.514 284.948 22.514H283.422L288.857 38.7692L288.84 38.8035L288.823 38.8893H292.046L292.064 38.8378L292.081 38.7692L297.636 22.4625H294.824V22.4797ZM182.769 25.6004C182.735 25.4461 182.426 24.8631 181.637 24.8631H179.46L174.659 38.9407H177.471L178.654 35.2713L178.671 35.2198H183.301V35.2713L184.484 38.9407H187.279L187.245 38.8378L182.769 25.6004ZM179.323 33.0765L180.986 27.8295L182.615 33.0765H179.323ZM257.495 25.6004C257.461 25.4461 257.17 24.8631 256.381 24.8631H254.22L249.402 38.9407H252.214L253.38 35.2713L253.397 35.2198H258.027L258.044 35.2713L259.21 38.9407H262.005L261.988 38.8378L257.495 25.6004ZM254.066 33.0765L255.712 27.8295L257.358 33.0765H254.066ZM305.816 26.0462C305.575 25.2403 305.215 24.8459 304.101 24.8631C304.101 24.8631 304.066 24.8631 304.049 24.8631H302.403L297.602 38.9407H300.397L301.58 35.2713L301.597 35.2198H306.244V35.2713L307.427 38.9407H310.222L310.188 38.8378L305.816 26.0462ZM302.232 33.0765L303.878 27.8295L305.524 33.0765H302.232ZM326.958 24.8974H324.283V38.9064H332.325V36.7631H326.958V24.8974ZM315.675 24.8974H313V38.9064H321.059V36.7631H315.692V24.8974H315.675ZM350.843 35.1855C350.826 36.5916 350.312 37.106 348.923 37.106C348.168 37.106 347.482 36.8659 347.037 36.7116L346.797 36.6259L346.694 36.5916V38.8035L346.762 38.8207C346.762 38.8207 347.808 39.0779 348.906 39.095V39.0093V39.095C352.712 39.095 353.501 37.5518 353.501 35.0141V24.8631H350.826V35.1855H350.843ZM362.76 24.6916C358.954 24.6916 357.068 27.0922 357.068 31.9105C357.068 36.7288 358.937 39.1293 362.76 39.1293C366.55 39.1293 368.453 36.6602 368.47 31.9105C368.453 27.1436 366.55 24.6916 362.76 24.6916ZM362.76 37.106C360.909 37.106 360 35.4427 360 31.9105C360 28.3439 360.926 26.6978 362.76 26.6807C364.629 26.6807 365.538 28.3268 365.538 31.9105C365.538 35.4599 364.629 37.106 362.76 37.106ZM87.5524 34.4139L82.9913 25.7033C82.9741 25.6862 82.5455 24.8802 81.5338 24.8974H79.4076V38.9064H81.8939V28.8583L87.1237 38.9064H90.0558V24.8974H87.5695V34.4139H87.5524ZM94.6169 38.9064H97.2918V24.8974H94.6169V38.9064ZM106.843 35.5285L103.876 26.0462C103.739 25.5661 103.345 24.8974 102.264 24.8974H100.618L105.248 38.9064H108.334L108.352 38.855L113.153 24.8631L110.341 24.846L106.843 35.5285ZM119 32.7164H124.35V30.5902H119V27.0236H124.658V24.8974H116.308V38.9064H124.813V36.7802H119V32.7164ZM229.255 32.7164H234.604V30.5902H229.255V27.0236H234.896V24.8974H226.562V38.9064H235.067V36.7802H229.255V32.7164ZM338.086 32.7164H343.453V30.5902H338.086V27.0236H343.744V24.8974H335.394V38.9064H343.916V36.7802H338.086V32.7164ZM137.639 34.8426L137.621 34.7569C137.347 33.5566 137.107 32.4592 135.787 31.9105L135.632 31.8247L135.787 31.7733C137.227 31.2589 137.913 30.2472 137.913 28.6526C137.913 26.1663 136.353 24.8802 133.352 24.8802H129.014V38.8893H131.706V33.025H132.426C134.449 33.0422 134.621 33.6423 135.101 35.8028L135.787 38.8893H138.513L138.496 38.8035L137.639 34.8426ZM132.443 31.036H131.723V26.8864H133.369C134.569 26.9036 135.187 27.5723 135.221 28.9098C135.187 30.4187 134.415 31.036 132.443 31.036ZM273.219 34.7569C272.962 33.5566 272.739 32.4592 271.419 31.9105L271.247 31.8247L271.419 31.7733C272.842 31.2589 273.528 30.2301 273.528 28.6526C273.528 26.1663 271.95 24.8974 268.967 24.8802H264.646V38.8893H267.321V33.025H268.058C270.098 33.0422 270.253 33.6423 270.75 35.8028L271.402 38.8893H274.145L274.111 38.8035L273.219 34.7569ZM268.041 31.036H267.304V26.8864H268.95C270.15 26.9036 270.784 27.5723 270.784 28.9098C270.801 30.4187 270.03 31.036 268.041 31.036ZM243.778 30.4701C242.406 29.75 241.257 29.0812 241.274 28.1896C241.274 26.8693 242.492 26.8693 243.109 26.8693H243.144C244.344 26.8693 245.338 27.0922 246.23 27.4351L246.659 27.6066L246.762 27.6409V25.086L246.71 25.0689C246.71 25.0689 245.304 24.6916 243.229 24.6745C243.229 24.6745 243.195 24.6745 243.178 24.6745C240.246 24.6745 238.377 26.0977 238.377 28.3611C238.394 30.5559 240.349 31.619 242.046 32.5621C243.521 33.368 244.892 34.1224 244.875 35.3913C244.858 35.9229 244.584 37.0717 242.56 37.0889C240.932 37.0889 239.8 36.1286 238.96 35.6314L238.754 35.4942L238.651 35.4256V38.2891L238.668 38.3063C238.702 38.3234 240.057 39.0607 242.595 39.1293V39.0436V39.1293C245.836 39.1293 247.807 37.6033 247.807 35.0655C247.79 32.6135 245.544 31.4304 243.778 30.4701ZM147.481 30.4701C146.109 29.75 144.96 29.0812 144.96 28.1896C144.96 26.8693 146.178 26.8693 146.795 26.8693H146.846C148.047 26.8693 149.041 27.0922 149.899 27.4351L150.344 27.6066L150.447 27.6409L150.464 25.086L150.396 25.0689C150.396 25.0689 148.99 24.6916 146.932 24.6745C146.915 24.6573 146.898 24.6745 146.898 24.6745C143.914 24.6745 142.062 26.0977 142.062 28.3611C142.062 30.5559 144.034 31.619 145.715 32.5621C147.207 33.368 148.561 34.1224 148.561 35.3913C148.527 35.9229 148.252 37.0717 146.229 37.0889C144.6 37.0889 143.468 36.1286 142.645 35.6314L142.422 35.4942L142.32 35.4256V38.2891L142.354 38.3063C142.354 38.3063 143.726 39.0607 146.263 39.1293V39.0436V39.1293C149.504 39.1293 151.476 37.6033 151.476 35.0655C151.476 32.6135 149.247 31.4304 147.481 30.4701ZM155.197 38.9236H157.906V24.8974H155.197V38.9236ZM166.308 24.8974H162.742V38.9064H166.308C169.48 38.9064 172.464 38.0148 172.464 31.859C172.464 26.8864 170.715 24.8974 166.308 24.8974ZM166.308 36.7973H165.417V26.9207H166.308C169.069 26.9379 169.549 28.4811 169.549 31.8247C169.532 36.1286 168.434 36.7802 166.308 36.7973ZM194.035 24.8974H190.468V38.9064H194.035C197.207 38.9064 200.208 38.0148 200.225 31.859C200.208 26.8864 198.441 24.8974 194.035 24.8974ZM194.035 36.7973H193.143V26.9207H194.035C196.813 26.9379 197.276 28.4811 197.276 31.8247C197.258 36.1286 196.161 36.7802 194.035 36.7973ZM72.0687 34.3111C72.0687 36.0086 70.9713 36.8659 69.4109 36.8659C67.8163 36.8659 66.8046 35.9914 66.8046 34.3111V22.514H64.0439V34.5511C64.0611 37.3975 65.9816 39.1293 69.1537 39.1293H69.7024C72.9089 39.1293 74.7779 37.4489 74.795 34.5511V22.514H72.0516V34.3111H72.0687Z" fill="#233559"/>
<path d="M24.9145 59.5341V24.8116C3.24076 15.7066 0 0 0 0V34.551C0.0171469 47.034 24.9145 59.5341 24.9145 59.5341ZM30.9159 21.588V56.1219C32.8706 54.9044 35.1169 53.4298 37.3803 51.7323V18.7416C8.95072 16.0667 0.0171637 0 0.0171637 0C9.70517 19.7533 30.9159 21.588 30.9159 21.588ZM49.8461 5.28125V0C42.0443 2.36627 33.6423 3.66944 24.9316 3.68659C16.221 3.66944 7.83616 2.36627 0.0171637 0C0.0171637 0 18.9816 11.6256 49.8461 5.28125ZM43.3988 15.0036V46.571C47.0683 42.8844 49.8461 38.7177 49.8461 34.5682V10.9054C45.3365 11.3341 35.6999 11.8657 25.5661 9.97951C13.4946 7.73326 6.12147 4.7497 0.0171637 0.0171473C14.4892 15.3636 43.3988 15.0036 43.3988 15.0036Z" fill="#E30613"/>
</svg>
