<svg width="492" height="223" viewBox="0 0 492 223" fill="none" xmlns="http://www.w3.org/2000/svg">
<path d="M31.673 194.016C31.673 195.765 31.4262 197.701 30.9328 199.837H15.1137V210.444H35.6894C36.1829 212.53 36.4297 214.429 36.4297 216.116C36.4297 217.965 36.1829 219.926 35.6894 222.025H0.596924V168.305H35.196C35.4153 169.404 35.5798 170.429 35.6894 171.366C35.7991 172.315 35.8539 173.215 35.8539 174.052C35.8539 175.701 35.6346 177.662 35.196 179.961H15.1137V188.181H30.9328C31.4262 190.38 31.673 192.329 31.673 194.016Z" fill="white"/>
<path d="M42.0776 168.47C43.5032 168.22 44.874 168.057 46.2174 167.982C47.5608 167.908 48.9316 167.87 50.3572 167.87C51.2894 167.87 52.4957 167.933 53.9624 168.057C55.4429 168.182 56.6218 168.32 57.4854 168.47L65.2716 194.393L73.2222 168.47C74.0995 168.27 75.2784 168.12 76.7452 168.02C78.2256 167.92 79.4319 167.87 80.3504 167.87C81.776 167.87 83.1468 167.908 84.4491 167.982C85.765 168.057 87.1221 168.22 88.5478 168.47L78.9659 194.093L90.7685 221.815C87.972 222.265 85.2167 222.49 82.4888 222.49C81.5567 222.49 80.3504 222.427 78.8836 222.302C77.4031 222.177 76.2243 222.015 75.3607 221.815L65.2853 195.142L55.2784 221.815C54.4011 222.015 53.2359 222.177 51.7555 222.302C50.275 222.427 49.0687 222.49 48.1502 222.49C45.4223 222.49 42.6533 222.265 39.8706 221.815L51.7555 194.093L42.0776 168.47Z" fill="white"/>
<path d="M96.6763 168.471C97.9374 168.321 99.8565 168.109 102.461 167.834C105.052 167.559 108.328 167.422 112.262 167.422C115.155 167.422 118.074 167.671 121.035 168.171C123.983 168.671 126.656 169.608 129.027 170.97C131.399 172.344 133.331 174.268 134.812 176.766C136.279 179.253 137.019 182.488 137.019 186.474C137.019 190.009 136.429 192.945 135.251 195.294C134.072 197.63 132.523 199.504 130.576 200.903C128.63 202.302 126.423 203.289 123.942 203.889C121.447 204.489 118.897 204.788 116.279 204.788C115.237 204.788 114.195 204.751 113.126 204.676C112.057 204.601 111.303 204.514 110.864 204.414V221.816C109.438 222.066 108.164 222.241 107.012 222.341C105.861 222.441 104.805 222.491 103.804 222.491C101.899 222.491 99.5138 222.266 96.6763 221.816V168.471ZM110.864 193.72C111.138 193.819 111.604 193.894 112.262 193.944C112.92 193.994 113.606 194.019 114.318 194.019C116.663 194.019 118.582 193.395 120.048 192.158C121.529 190.909 122.269 189.022 122.269 186.474C122.269 184.974 122.036 183.725 121.57 182.701C121.104 181.676 120.46 180.864 119.651 180.239C118.828 179.615 117.869 179.178 116.772 178.928C115.676 178.678 114.538 178.553 113.331 178.553C113.003 178.553 112.619 178.553 112.18 178.553C111.741 178.553 111.303 178.578 110.864 178.628V193.72Z" fill="white"/>
<path d="M175.717 194.016C175.717 195.765 175.47 197.701 174.977 199.837H159.158V210.444H179.733C180.227 212.53 180.474 214.429 180.474 216.116C180.474 217.965 180.227 219.926 179.733 222.025H144.641V168.305H179.24C179.459 169.404 179.624 170.429 179.733 171.366C179.843 172.303 179.898 173.215 179.898 174.052C179.898 175.701 179.679 177.662 179.24 179.961H159.158V188.181H174.977C175.47 190.38 175.717 192.329 175.717 194.016Z" fill="white"/>
<path d="M187.848 168.471C190.535 168.221 193.003 167.984 195.264 167.759C197.54 167.534 199.925 167.422 202.434 167.422C205.436 167.422 208.452 167.684 211.454 168.209C214.456 168.733 217.142 169.645 219.486 170.932C221.844 172.231 223.75 173.993 225.23 176.229C226.697 178.465 227.437 181.314 227.437 184.749C227.437 186.598 227.204 188.248 226.738 189.722C226.272 191.183 225.669 192.495 224.929 193.645C224.188 194.794 223.38 195.781 222.475 196.63C221.57 197.48 220.679 198.192 219.802 198.792L232.591 221.804C231.275 222.004 229.85 222.154 228.287 222.254C226.738 222.354 225.326 222.404 224.065 222.404C222.968 222.404 221.707 222.354 220.254 222.254C218.801 222.154 217.54 222.004 216.443 221.804L204.819 197.38L205.545 197.005C206.203 196.705 206.93 196.206 207.725 195.506C208.52 194.806 209.26 193.969 209.946 193.007C210.631 192.033 211.193 190.959 211.659 189.759C212.125 188.56 212.358 187.323 212.358 186.024C212.358 183.538 211.591 181.714 210.069 180.577C208.547 179.44 206.642 178.853 204.408 178.853C203.859 178.853 203.393 178.878 203.009 178.928C202.626 178.978 202.379 179.028 202.269 179.078V221.816C199.377 222.266 196.992 222.491 195.141 222.491C193.112 222.491 190.686 222.266 187.848 221.816V168.471Z" fill="white"/>
<path d="M245.641 222.49C243.613 222.49 241.186 222.265 238.349 221.815V168.47C239.829 168.27 241.159 168.12 242.365 168.02C243.571 167.92 244.641 167.87 245.559 167.87C246.546 167.87 247.643 167.92 248.876 168.02C250.11 168.12 251.426 168.27 252.852 168.47V221.815C249.959 222.265 247.547 222.49 245.641 222.49Z" fill="white"/>
<path d="M293.77 194.016C293.77 195.765 293.523 197.701 293.03 199.837H277.211V210.444H297.787C298.28 212.53 298.527 214.429 298.527 216.116C298.527 217.965 298.28 219.926 297.787 222.025H262.694V168.305H297.293C297.512 169.404 297.677 170.429 297.787 171.366C297.896 172.315 297.951 173.215 297.951 174.052C297.951 175.701 297.732 177.662 297.293 179.961H277.211V188.181H293.03C293.523 190.38 293.77 192.329 293.77 194.016Z" fill="white"/>
<path d="M305.902 168.47C307.108 168.27 308.191 168.12 309.178 168.02C310.165 167.92 311.125 167.87 312.043 167.87C313.03 167.87 314.058 167.933 315.128 168.057C316.183 168.182 317.102 168.32 317.869 168.47L336.882 197.753V168.47C338.308 168.27 339.583 168.12 340.734 168.02C341.872 167.92 342.914 167.87 343.846 167.87C344.778 167.87 345.765 167.92 346.793 168.02C347.835 168.12 348.932 168.27 350.069 168.47L349.987 221.815C349.439 221.965 348.644 222.115 347.616 222.265C346.574 222.415 345.45 222.49 344.257 222.49C342.886 222.49 341.666 222.402 340.57 222.227C339.473 222.052 338.692 221.915 338.184 221.815L319.089 192.681V221.815C316.69 222.265 314.497 222.49 312.537 222.49C310.577 222.49 308.356 222.265 305.902 221.815V168.47Z" fill="white"/>
<path d="M373.688 195.294C373.688 205.85 378.554 211.135 388.287 211.135C390.042 211.135 391.687 210.985 393.249 210.685C394.798 210.385 396.704 209.886 398.952 209.186C400.748 212.771 401.954 216.457 402.557 220.242C400.967 220.792 399.5 221.242 398.129 221.592C396.772 221.941 395.456 222.204 394.195 222.379C392.948 222.553 391.7 222.678 390.467 222.753C389.233 222.828 387.972 222.866 386.656 222.866C382.009 222.866 377.924 222.179 374.401 220.804C370.878 219.43 367.917 217.531 365.546 215.083C363.16 212.646 361.378 209.736 360.172 206.337C358.966 202.952 358.376 199.266 358.376 195.281C358.376 191.296 358.993 187.598 360.254 184.187C361.515 180.777 363.325 177.828 365.71 175.33C368.095 172.844 371.029 170.895 374.524 169.508C378.02 168.109 381.981 167.422 386.409 167.422C389.027 167.422 391.522 167.596 393.866 167.946C396.224 168.296 398.842 168.996 401.735 170.045C401.625 172.081 401.214 174.068 400.501 175.979C399.788 177.903 399.048 179.577 398.294 181.027C397.197 180.677 396.21 180.377 395.292 180.127C394.387 179.877 393.524 179.677 392.715 179.527C391.892 179.377 391.07 179.265 390.247 179.19C389.425 179.115 388.561 179.078 387.629 179.078C383.201 179.078 379.774 180.439 377.348 183.15C374.908 185.861 373.688 189.909 373.688 195.294Z" fill="white"/>
<path d="M440.926 194.016C440.926 195.765 440.679 197.701 440.185 199.837H424.366V210.444H444.942C445.436 212.53 445.682 214.429 445.682 216.116C445.682 217.965 445.436 219.926 444.942 222.025H409.85V168.305H444.449C444.668 169.404 444.832 170.429 444.942 171.366C445.052 172.315 445.107 173.215 445.107 174.052C445.107 175.701 444.887 177.662 444.449 179.961H424.366V188.181H440.185C440.679 190.38 440.926 192.329 440.926 194.016Z" fill="white"/>
<path d="M476.005 189.231C478.294 190.08 480.364 190.942 482.187 191.804C484.024 192.679 485.586 193.728 486.902 194.94C488.218 196.164 489.219 197.626 489.932 199.35C490.645 201.062 491.001 203.148 491.001 205.584C491.001 208.233 490.494 210.606 489.48 212.718C488.465 214.842 486.985 216.653 485.011 218.177C483.037 219.689 480.624 220.863 477.759 221.688C474.88 222.512 471.591 222.925 467.876 222.925C464.49 222.925 461.501 222.675 458.897 222.175C456.306 221.675 453.496 220.901 450.494 219.864C450.713 218.115 451.097 216.266 451.632 214.292C452.18 212.33 452.838 210.319 453.606 208.283C458.636 210.282 463.009 211.269 466.724 211.269C469.507 211.269 471.687 210.881 473.236 210.107C474.798 209.332 475.58 208.008 475.58 206.109C475.58 205.309 475.415 204.622 475.086 204.048C474.757 203.473 474.318 202.986 473.77 202.586C473.222 202.186 472.619 201.849 471.92 201.574C471.234 201.299 470.549 201.037 469.836 200.787L465.244 199.213C463.27 198.563 461.488 197.801 459.87 196.902C458.253 196.002 456.868 194.953 455.73 193.728C454.579 192.504 453.688 191.105 453.057 189.506C452.44 187.907 452.125 186.045 452.125 183.896C452.125 181.26 452.619 178.912 453.592 176.875C454.579 174.839 455.963 173.102 457.732 171.678C459.5 170.266 461.652 169.192 464.161 168.467C466.669 167.743 469.493 167.38 472.605 167.38C475.388 167.38 478.088 167.63 480.679 168.13C483.27 168.63 486.053 169.354 489 170.304C488.78 171.903 488.383 173.652 487.807 175.576C487.231 177.487 486.505 179.299 485.628 180.998C484.202 180.448 482.543 179.873 480.624 179.274C478.719 178.674 476.334 178.374 473.496 178.374C472.619 178.374 471.782 178.449 471.001 178.599C470.22 178.749 469.493 178.986 468.876 179.311C468.246 179.636 467.739 180.086 467.355 180.661C466.971 181.235 466.779 181.947 466.779 182.784C466.779 184.234 467.3 185.295 468.342 185.995C469.384 186.695 470.604 187.294 472.029 187.794L476.005 189.231Z" fill="white"/>
<path d="M31.673 129.676C31.673 131.425 31.4262 133.362 30.9328 135.498H15.1137V146.105H35.6894C36.1829 148.191 36.4297 150.09 36.4297 151.777C36.4297 153.625 36.1829 155.587 35.6894 157.686H0.596924V103.966H35.196C35.4153 105.065 35.5798 106.089 35.6894 107.026C35.7991 107.976 35.8539 108.875 35.8539 109.712C35.8539 111.361 35.6346 113.323 35.196 115.622H15.1137V123.842H30.9328C31.4262 126.041 31.673 127.977 31.673 129.676Z" fill="white"/>
<path d="M60.1175 103.066C70.4396 103.066 78.2806 105.415 83.6404 110.125C89.0003 114.835 91.6733 121.843 91.6733 131.151C91.6733 140.62 88.9454 147.554 83.4759 151.964C78.0064 156.374 69.9187 158.573 59.2127 158.573C56.4848 158.573 53.8392 158.46 51.3032 158.236C48.7672 158.011 46.2587 157.748 43.8049 157.448V104.103C44.6274 104.003 45.6692 103.891 46.9167 103.766C48.1641 103.641 49.5349 103.528 51.0153 103.428C52.4958 103.328 54.0174 103.241 55.5664 103.166C57.1154 103.116 58.637 103.066 60.1175 103.066ZM58.308 146.854C58.6918 146.904 59.1305 146.929 59.624 146.929C60.1175 146.929 60.6384 146.929 61.173 146.929C63.3114 146.929 65.3128 146.692 67.2045 146.217C69.0825 145.742 70.7138 144.905 72.0846 143.719C73.4554 142.519 74.5383 140.908 75.3197 138.859C76.101 136.81 76.5123 134.199 76.5123 131.013C76.5123 127.877 76.101 125.254 75.2785 123.167C74.4561 121.081 73.3731 119.42 72.0434 118.195C70.7001 116.971 69.1373 116.109 67.3279 115.584C65.5184 115.059 63.6404 114.797 61.6665 114.797C60.5698 114.797 59.7885 114.81 59.2813 114.835C58.7878 114.86 58.4588 114.872 58.2943 114.872V146.854H58.308Z" fill="white"/>
<path d="M122.173 158.513C117.746 158.513 114.072 157.963 111.152 156.864C108.232 155.777 105.916 154.19 104.216 152.117C102.53 150.055 101.337 147.544 100.652 144.608C99.9662 141.672 99.6235 138.362 99.6235 134.676V104.118C101.214 103.918 102.571 103.781 103.722 103.706C104.86 103.631 105.957 103.593 106.998 103.593C107.931 103.593 108.959 103.631 110.069 103.706C111.193 103.781 112.536 103.918 114.127 104.118V133.102C114.127 135.601 114.236 137.712 114.456 139.449C114.675 141.198 115.072 142.609 115.648 143.709C116.224 144.808 117.033 145.595 118.061 146.057C119.103 146.532 120.46 146.77 122.16 146.77C123.846 146.77 125.23 146.532 126.299 146.057C127.369 145.583 128.177 144.796 128.753 143.709C129.329 142.609 129.713 141.198 129.905 139.449C130.096 137.7 130.192 135.588 130.192 133.102V104.118C131.837 103.918 133.208 103.781 134.332 103.706C135.456 103.631 136.484 103.593 137.417 103.593C138.404 103.593 139.459 103.631 140.611 103.706C141.748 103.781 143.119 103.918 144.709 104.118V134.676C144.709 138.362 144.367 141.672 143.681 144.608C142.996 147.544 141.817 150.055 140.117 152.117C138.431 154.19 136.114 155.765 133.194 156.864C130.275 157.963 126.601 158.513 122.173 158.513Z" fill="white"/>
<path d="M122.818 121.031C121.502 121.031 120.433 120.057 120.433 118.857V91.9848C120.433 87.4873 124.435 83.8268 129.384 83.8268H193.332C198.239 83.8268 202.215 80.2038 202.215 75.7313V71.5087H206.985V75.7313C206.985 82.6025 200.871 88.1744 193.332 88.1744H129.37C127.067 88.1744 125.189 89.8735 125.189 91.9848V118.857C125.203 120.057 124.134 121.031 122.818 121.031Z" fill="white"/>
<path d="M213.085 57.9787H175.443C174.127 57.9787 173.058 57.0042 173.058 55.8049C173.058 54.6055 174.127 53.6311 175.443 53.6311H213.085C214.401 53.6311 215.47 54.6055 215.47 55.8049C215.47 57.0042 214.401 57.9787 213.085 57.9787Z" fill="white"/>
<path d="M228.712 43.4866H175.429C174.113 43.4866 173.044 42.5122 173.044 41.3128C173.044 40.1135 174.113 39.1391 175.429 39.1391H228.712C230.028 39.1391 231.097 40.1135 231.097 41.3128C231.097 42.5122 230.042 43.4866 228.712 43.4866Z" fill="white"/>
<path d="M226.203 57.5038C227.596 57.5038 228.726 56.4746 228.726 55.2051C228.726 53.9356 227.596 52.9064 226.203 52.9064C224.81 52.9064 223.681 53.9356 223.681 55.2051C223.681 56.4746 224.81 57.5038 226.203 57.5038Z" fill="white"/>
<path d="M240.501 73.6825H168.219L167.903 73.6075C167.616 73.5325 138.911 66.0242 145.271 40.8257C146.848 34.5791 156.786 21.6863 176.238 22.3609C178.047 16.5266 185.34 -0.488945 208.89 0.0107779C209.165 0.0107779 236.581 0.897785 241.735 25.8714C255.278 32.4053 262.119 42.7496 260.515 54.3931C259.322 63.0384 251.988 70.2094 240.871 73.5825L240.501 73.6825ZM168.877 69.3349H239.72C248.836 66.4615 254.826 60.6897 255.772 53.8435C257.663 40.1385 245.765 32.5428 238.513 29.2446L237.417 28.7449L237.225 27.6455C233.277 5.13294 209.014 4.35837 208.781 4.34588C208.479 4.33338 208.178 4.33338 207.89 4.33338C184.613 4.33338 180.597 24.1474 180.433 24.9969L180.062 26.9708L177.869 26.7959C158.417 25.2093 150.768 38.427 149.919 41.7876C144.833 61.964 165.984 68.5353 168.877 69.3349Z" fill="white"/>
</svg>
