<svg width="318" height="49" viewBox="0 0 318 49" fill="none" xmlns="http://www.w3.org/2000/svg">
<path d="M11.9386 12.776V16.438H0V14.3032H1.46153V2.59453H0V0.459717H5.61622V2.59453H4.17111V14.3032H9.78732V12.776H11.9386Z" fill="#233559"/>
<path d="M13.3184 4.6966H17.3581V14.3033H18.7868V16.4381H13.3184V14.3033H14.7799V6.83142H13.3184V4.6966ZM17.3581 0V3.08728H14.7799V0H17.3581Z" fill="#233559"/>
<path d="M27.835 8.07956V6.78225C27.0139 6.60161 26.4063 6.60161 25.9301 6.60161C23.7952 6.60161 22.7607 8.1124 22.7607 10.5757C22.7607 13.0389 23.7952 14.5497 25.9301 14.5497C26.784 14.5497 27.6051 14.5497 29.5264 14.0735L29.9698 16.1426C28.5575 16.4875 27.408 16.6845 25.9301 16.6845C21.5126 16.6845 20.0347 14.2377 20.0347 10.5757C20.0347 6.91362 21.5126 4.4668 25.9301 4.4668C27.408 4.4668 28.5575 4.66385 29.9698 5.00871V8.09599H27.835V8.07956Z" fill="#233559"/>
<path d="M34.2556 11.0683C34.3213 13.1374 35.4051 14.5497 37.8684 14.5497C38.9522 14.5497 40.1017 14.5004 41.5304 14.0735L41.8588 16.1426C40.3316 16.5696 39.0343 16.6845 37.5071 16.6845C33.0568 16.6845 31.5132 14.2377 31.5132 10.5757C31.5132 6.91362 33.0568 4.4668 37.4086 4.4668C42.3843 4.4668 42.5978 8.07956 42.1052 11.0683H34.2556ZM34.2556 9.44256H39.5926C39.8718 7.96461 39.4941 6.45382 37.2936 6.45382C35.2409 6.45382 34.387 7.70186 34.2556 9.44256Z" fill="#233559"/>
<path d="M51.3669 14.3034H52.6642V8.94991C52.6642 7.52123 52.1059 6.60161 50.5459 6.60161C49.3963 6.60161 48.3125 7.2749 47.6721 7.73471V14.3198H48.9694V16.4546H43.6323V14.3198H45.0939V6.84793H43.6323V4.71312H47.6721V6.30602H47.7213C48.7723 5.20577 50.1353 4.4668 51.7118 4.4668C54.0601 4.4668 55.2424 5.94474 55.2424 8.37515V14.3198H56.6711V16.4546H51.3669V14.3034Z" fill="#233559"/>
<path d="M65.769 8.07956V6.78225C64.948 6.60161 64.3404 6.60161 63.8641 6.60161C61.7293 6.60161 60.6947 8.1124 60.6947 10.5757C60.6947 13.0389 61.7293 14.5497 63.8641 14.5497C64.7181 14.5497 65.5391 14.5497 67.4605 14.0735L67.9039 16.1426C66.4916 16.4875 65.3421 16.6845 63.8641 16.6845C59.4467 16.6845 57.9688 14.2377 57.9688 10.5757C57.9688 6.91362 59.4467 4.4668 63.8641 4.4668C65.3421 4.4668 66.4916 4.66385 67.9039 5.00871V8.09599H65.769V8.07956Z" fill="#233559"/>
<path d="M69.2832 4.6966H73.3229V14.3033H74.7516V16.4381H69.2832V14.3033H70.7447V6.83142H69.2832V4.6966ZM73.3394 0V3.08728H70.7612V0H73.3394Z" fill="#233559"/>
<path d="M76.9683 8.07956V4.97586C78.594 4.64743 80.2855 4.4668 81.6485 4.4668C84.5551 4.4668 86.1316 5.27145 86.1316 8.37515V14.3198H87.5603V16.4546H83.537V15.2887H83.4877C82.5517 16.2083 81.4678 16.7009 80.0391 16.7009C78.1342 16.7009 76.2129 15.6171 76.2129 13.236C76.2129 10.3622 78.7747 9.52467 81.2215 9.52467H83.5534V8.53937C83.5534 7.14353 82.798 6.61803 81.0573 6.61803C80.5646 6.61803 79.957 6.6673 79.1031 6.79867V8.09599H76.9683V8.07956ZM83.5534 11.0683H81.5499C79.6943 11.0683 78.8075 11.561 78.8075 12.924C78.8075 14.0571 79.6779 14.6811 80.9423 14.6811C82.0918 14.6811 83.0771 14.1884 83.5534 13.8107V11.0683Z" fill="#233559"/>
<path d="M95.2784 0H99.3017V14.3033H100.73V16.4381H96.707V15.2722H96.6578C95.886 16.0932 94.5394 16.6844 93.2092 16.6844C89.9249 16.6844 88.9067 13.9584 88.9067 10.5756C88.9067 7.19269 90.0891 4.4667 93.3734 4.4667C94.6215 4.4667 95.886 4.97577 96.6578 5.81327H96.707V2.15124H95.2784V0ZM94.2438 14.5496C95.3933 14.5496 96.2965 14.0077 96.707 13.6793V7.47186C96.2801 7.14343 95.3933 6.60151 94.2438 6.60151C92.1911 6.60151 91.6327 8.4079 91.6327 10.5756C91.6327 12.7596 92.1911 14.5496 94.2438 14.5496Z" fill="#233559"/>
<path d="M102.964 8.07956V4.97586C104.59 4.64743 106.281 4.4668 107.644 4.4668C110.551 4.4668 112.127 5.27145 112.127 8.37515V14.3198H113.556V16.4546H109.533V15.2887H109.483C108.547 16.2083 107.463 16.7009 106.035 16.7009C104.13 16.7009 102.208 15.6171 102.208 13.236C102.208 10.3622 104.77 9.52467 107.217 9.52467H109.549V8.53937C109.549 7.14353 108.794 6.61803 107.053 6.61803C106.56 6.61803 105.953 6.6673 105.099 6.79867V8.09599H102.964V8.07956ZM109.549 11.0683H107.546C105.69 11.0683 104.803 11.561 104.803 12.924C104.803 14.0571 105.673 14.6811 106.938 14.6811C108.087 14.6811 109.073 14.1884 109.549 13.8107V11.0683Z" fill="#233559"/>
<path d="M118.614 4.6967H122.654V5.87906H122.703C123.475 5.05797 124.821 4.4668 126.135 4.4668C129.419 4.4668 130.454 7.19279 130.454 10.5757C130.454 13.9585 129.271 16.6845 125.987 16.6845C124.723 16.6845 123.475 16.159 122.703 15.3379H122.654V19H124.082V21.1348H118.614V19H120.075V6.83152H118.614V4.6967ZM125.117 6.60161C123.967 6.60161 123.064 7.14353 122.654 7.47196V13.6794C123.08 14.0078 123.967 14.5497 125.117 14.5497C127.169 14.5497 127.728 12.7597 127.728 10.5757C127.728 8.40799 127.169 6.60161 125.117 6.60161Z" fill="#233559"/>
<path d="M132.31 10.5757C132.31 6.91362 133.82 4.4668 137.86 4.4668C141.9 4.4668 143.411 6.91362 143.411 10.5757C143.411 14.2377 141.9 16.6845 137.86 16.6845C133.82 16.6845 132.31 14.2377 132.31 10.5757ZM135.036 10.5757C135.036 12.9075 135.676 14.5497 137.86 14.5497C140.044 14.5497 140.685 12.9075 140.685 10.5757C140.685 8.24378 140.044 6.60161 137.86 6.60161C135.676 6.60161 135.036 8.24378 135.036 10.5757Z" fill="#233559"/>
<path d="M144.691 4.69652H148.731V6.56859H148.78C149.634 5.51761 151.129 4.4502 153.017 4.4502V6.89703C151.342 6.89703 149.684 7.48821 148.748 8.03012V14.3032H150.34V16.438H144.691V14.3032H146.153V6.83134H144.691V4.69652Z" fill="#233559"/>
<path d="M160.982 12.1685V13.9092C162.608 14.2541 163.757 14.4019 164.742 14.4019C166.877 14.4019 167.78 13.3509 167.78 12.1685C167.78 10.4278 165.711 9.98446 163.921 9.49181C161.245 8.76925 158.913 7.27488 158.913 4.58173C158.913 1.46161 161.474 0.22998 164.595 0.22998C166.385 0.22998 168.027 0.459885 170.112 1.08391V4.77879H167.945V2.92313C166.434 2.61112 165.547 2.54544 164.578 2.54544C162.575 2.54544 161.786 3.41579 161.786 4.51604C161.786 6.09252 163.806 6.76581 165.662 7.19277C168.339 7.80038 170.621 9.09769 170.621 11.8729C170.621 15.1573 168.06 16.7009 164.726 16.7009C162.936 16.7009 160.9 16.471 158.831 15.847V12.185H160.982V12.1685Z" fill="#233559"/>
<path d="M171.918 4.69653H175.958V12.2012C175.958 13.6299 176.598 14.5495 178.076 14.5495C179.226 14.5495 180.31 13.8598 180.95 13.4164V6.83135H179.259V4.69653H183.528V14.3032H184.957V16.438H180.934V14.8615H180.885C179.834 15.9454 178.471 16.6679 176.894 16.6679C174.546 16.6679 173.363 15.2064 173.363 12.7596V6.81492H171.902V4.69653H171.918Z" fill="#233559"/>
<path d="M194.022 14.3034H195.319V8.94991C195.319 7.52123 194.761 6.60161 193.201 6.60161C192.051 6.60161 190.967 7.2749 190.327 7.73471V14.3198H191.624V16.4546H186.287V14.3198H187.749V6.84793H186.287V4.71312H190.327V6.30602H190.376C191.427 5.20577 192.79 4.4668 194.367 4.4668C196.715 4.4668 197.897 5.94474 197.897 8.37515V14.3198H199.326V16.4546H194.022V14.3034Z" fill="#233559"/>
<path d="M203.333 11.0683C203.398 13.1374 204.482 14.5497 206.946 14.5497C208.029 14.5497 209.179 14.5004 210.608 14.0735L210.936 16.1426C209.409 16.5696 208.111 16.6845 206.584 16.6845C202.134 16.6845 200.59 14.2377 200.59 10.5757C200.59 6.91362 202.134 4.4668 206.486 4.4668C211.461 4.4668 211.675 8.07956 211.182 11.0683H203.333ZM203.333 9.44256H208.67C208.949 7.96461 208.571 6.45382 206.371 6.45382C204.318 6.45382 203.464 7.70186 203.333 9.44256Z" fill="#233559"/>
<path d="M219.476 0H223.499V14.3033H224.928V16.4381H220.904V15.2722H220.855C220.083 16.0932 218.737 16.6844 217.406 16.6844C214.122 16.6844 213.104 13.9584 213.104 10.5756C213.104 7.19269 214.286 4.4667 217.571 4.4667C218.819 4.4667 220.083 4.97577 220.855 5.81327H220.904V2.15124H219.476V0ZM218.441 14.5496C219.591 14.5496 220.494 14.0077 220.904 13.6793V7.47186C220.477 7.14343 219.591 6.60151 218.441 6.60151C216.388 6.60151 215.83 8.4079 215.83 10.5756C215.83 12.7596 216.405 14.5496 218.441 14.5496Z" fill="#233559"/>
<path d="M225.519 4.69653H229.559V12.2012C229.559 13.6299 230.199 14.5495 231.677 14.5495C232.826 14.5495 233.91 13.8598 234.551 13.4164V6.83135H232.859V4.69653H237.129V14.3032H238.558V16.438H234.534V14.8615H234.485C233.434 15.9454 232.071 16.6679 230.495 16.6679C228.146 16.6679 226.964 15.2064 226.964 12.7596V6.81492H225.502V4.69653H225.519Z" fill="#233559"/>
<path d="M0.115234 31.7924H3.38315V32.9748H3.43241C4.31918 32.1537 5.71503 31.5625 7.17656 31.5625C10.4609 31.5625 11.5776 34.2392 11.5776 37.6714C11.5776 41.1035 10.3952 43.7802 7.11087 43.7802C5.68218 43.7802 4.33561 43.2383 3.44884 42.4172H3.39957V46.8675H5.02532V48.2469H0.131656V46.8675H1.7574V33.1882H0.131656V31.7924H0.115234ZM6.55253 32.9419C5.12385 32.9419 3.92506 33.6316 3.38315 34.075V41.2677C3.92506 41.7111 5.12385 42.4008 6.55253 42.4008C9.09789 42.4008 9.82044 40.2167 9.82044 37.6714C9.82044 35.1588 9.09789 32.9419 6.55253 32.9419Z" fill="#233559"/>
<path d="M14.5825 34.7647V32.0387C16.1261 31.7267 17.7026 31.5625 18.9507 31.5625C21.6767 31.5625 23.1546 32.4164 23.1546 35.4216V42.1709H24.7475V43.5503H21.496V42.3844H21.4468C20.3137 43.304 19.2134 43.7966 17.6862 43.7966C15.7977 43.7966 13.7778 42.8113 13.7778 40.463C13.7778 37.6385 16.2739 36.8667 18.7536 36.8667H21.4796V35.5201C21.4796 33.8123 20.6749 32.9583 18.573 32.9583C17.9654 32.9583 17.1443 33.0076 15.9455 33.2211V34.7811H14.5825V34.7647ZM21.5124 37.8848H18.9671C16.356 37.8848 15.4364 38.7059 15.4364 40.266C15.4364 41.6126 16.4546 42.4993 18.2281 42.4993C19.7717 42.4993 20.9048 41.8425 21.496 41.3662V37.8848H21.5124Z" fill="#233559"/>
<path d="M26.4556 31.7922H29.7235V33.6643H29.7727C30.8237 32.6133 32.4987 31.5459 34.3872 31.5459V33.106C32.5316 33.106 30.6759 34.0256 29.7399 34.6824V42.1543H31.6448V43.5337H26.472V42.1543H28.0977V33.1716H26.472V31.7922H26.4556Z" fill="#233559"/>
<path d="M36.9487 34.7647V32.0387C38.4923 31.7267 40.0688 31.5625 41.3169 31.5625C44.0429 31.5625 45.5208 32.4164 45.5208 35.4216V42.1709H47.1137V43.5503H43.8622V42.3844H43.813C42.6799 43.304 41.5796 43.7966 40.0524 43.7966C38.1639 43.7966 36.144 42.8113 36.144 40.463C36.144 37.6385 38.6401 36.8667 41.1198 36.8667H43.8458V35.5201C43.8458 33.8123 43.0411 32.9583 40.9392 32.9583C40.3316 32.9583 39.5105 33.0076 38.3117 33.2211V34.7811H36.9487V34.7647ZM43.8951 37.8848H41.3497C38.7387 37.8848 37.8191 38.7059 37.8191 40.266C37.8191 41.6126 38.8372 42.4993 40.6107 42.4993C42.1544 42.4993 43.2875 41.8425 43.8787 41.3662V37.8848H43.8951Z" fill="#233559"/>
<path d="M59.6602 46.8674H61.2859V42.3843H61.2366C60.3499 43.2054 58.954 43.7966 57.4761 43.7966C54.1917 43.7966 53.1079 41.1199 53.1079 37.6877C53.1079 34.2556 54.2903 31.5789 57.5746 31.5789C58.9869 31.5789 60.3991 32.1208 61.3188 32.9419H61.368L61.68 31.7759H62.9445V46.8839H64.5374V48.2633H59.6766V46.8674H59.6602ZM58.1001 42.4007C59.5288 42.4007 60.7276 41.7275 61.2695 41.2676V34.075C60.7276 33.6316 59.5288 32.9419 58.1001 32.9419C55.5547 32.9419 54.8322 35.1588 54.8322 37.6713C54.8322 40.2167 55.5712 42.4007 58.1001 42.4007Z" fill="#233559"/>
<path d="M65.0626 31.7922H68.3305V39.5761C68.3305 41.2019 68.9874 42.4006 70.9087 42.4006C72.4524 42.4006 73.8482 41.4318 74.6201 40.8242V33.1881H72.5509V31.7922H76.2622V42.1543H77.8551V43.5337H74.6036V41.8423H74.5544C73.3556 42.9754 71.894 43.7636 70.1862 43.7636C67.8379 43.7636 66.6555 42.4171 66.6555 39.9045V33.1552H65.0298V31.7922H65.0626Z" fill="#233559"/>
<path d="M81.1069 37.8848C81.1562 40.5123 82.2893 42.4008 85.3601 42.4008C86.5589 42.4008 87.7084 42.3351 89.0222 41.9246L89.2356 43.2547C87.8234 43.6489 86.6574 43.7802 85.1302 43.7802C80.877 43.7802 79.3662 41.2841 79.3662 37.6714C79.3662 34.0586 80.877 31.5625 84.9824 31.5625C89.8432 31.5625 89.8925 35.4709 89.3999 37.8848H81.1069ZM81.1069 36.801H87.807C88.1847 34.9946 87.7413 32.8598 84.9003 32.8598C82.2072 32.8598 81.2711 34.6169 81.1069 36.801Z" fill="#233559"/>
<path d="M95.377 31.7924H98.6449V32.9748H98.6941C99.5809 32.1537 100.977 31.5625 102.438 31.5625C105.723 31.5625 106.839 34.2392 106.839 37.6714C106.839 41.1035 105.657 43.7802 102.373 43.7802C100.944 43.7802 99.5973 43.2383 98.7106 42.4172H98.6613V46.8675H100.287V48.2469H95.3934V46.8675H97.0191V33.1882H95.3934V31.7924H95.377ZM101.814 32.9419C100.386 32.9419 99.1868 33.6316 98.6449 34.075V41.2677C99.1868 41.7111 100.386 42.4008 101.814 42.4008C104.36 42.4008 105.082 40.2167 105.082 37.6714C105.082 35.1588 104.343 32.9419 101.814 32.9419Z" fill="#233559"/>
<path d="M108.416 31.7922H111.684V39.5761C111.684 41.2019 112.341 42.4006 114.262 42.4006C115.806 42.4006 117.202 41.4318 117.974 40.8242V33.1881H115.904V31.7922H119.616V42.1543H121.209V43.5337H117.957V41.8423H117.908C116.709 42.9754 115.248 43.7636 113.54 43.7636C111.191 43.7636 110.009 42.4171 110.009 39.9045V33.1552H108.383V31.7922H108.416Z" fill="#233559"/>
<path d="M124.46 37.8848C124.509 40.5123 125.642 42.4008 128.713 42.4008C129.912 42.4008 131.061 42.3351 132.375 41.9246L132.589 43.2547C131.176 43.6489 130.01 43.7802 128.483 43.7802C124.23 43.7802 122.719 41.2841 122.719 37.6714C122.719 34.0586 124.23 31.5625 128.335 31.5625C133.196 31.5625 133.246 35.4709 132.753 37.8848H124.46ZM124.46 36.801H131.16C131.538 34.9946 131.094 32.8598 128.253 32.8598C125.56 32.8598 124.624 34.6169 124.46 36.801Z" fill="#233559"/>
<path d="M141.784 27.0957H145.052V42.1544H146.645V43.5338H143.394V42.3679H143.345C142.458 43.1889 141.062 43.7801 139.584 43.7801C136.3 43.7801 135.216 41.1034 135.216 37.6713C135.216 34.2391 136.398 31.5624 139.683 31.5624C141.095 31.5624 142.458 32.1043 143.345 32.9254H143.394V28.4751H141.768V27.0957H141.784ZM140.224 42.4007C141.653 42.4007 142.852 41.7274 143.394 41.2676V34.0749C142.852 33.6315 141.653 32.9418 140.224 32.9418C137.679 32.9418 136.957 35.1587 136.957 37.6713C136.973 40.2166 137.695 42.4007 140.224 42.4007Z" fill="#233559"/>
<path d="M149.24 34.7647V32.0387C150.784 31.7267 152.36 31.5625 153.608 31.5625C156.334 31.5625 157.812 32.4164 157.812 35.4216V42.1709H159.405V43.5503H156.154V42.3844H156.104C154.971 43.304 153.871 43.7966 152.344 43.7966C150.455 43.7966 148.436 42.8113 148.436 40.463C148.436 37.6385 150.932 36.8667 153.411 36.8667H156.137V35.5201C156.137 33.8123 155.333 32.9583 153.231 32.9583C152.623 32.9583 151.802 33.0076 150.603 33.2211V34.7811H149.24V34.7647ZM156.187 37.8848H153.641C151.03 37.8848 150.111 38.7059 150.111 40.266C150.111 41.6126 151.129 42.4993 152.902 42.4993C154.446 42.4993 155.579 41.8425 156.17 41.3662V37.8848H156.187Z" fill="#233559"/>
<path d="M168.946 34.7647V33.2047C167.633 32.8927 166.434 32.8927 165.843 32.8927C163.379 32.8927 163.182 34.2721 163.182 34.6826C163.182 35.553 163.609 36.3084 166.007 36.801C168.585 37.3429 170.523 38.0491 170.523 40.2988C170.523 42.5322 169.045 43.7802 166.319 43.7802C164.529 43.7802 162.821 43.616 161.409 43.2547V40.578H162.788V42.1381C164.151 42.4501 165.514 42.4501 166.122 42.4501C168.634 42.4501 168.864 40.8736 168.864 40.3974C168.864 39.527 168.355 38.8209 165.908 38.3282C163.511 37.8848 161.54 37.113 161.54 34.7319C161.54 32.6463 163.051 31.5625 165.744 31.5625C167.534 31.5625 168.913 31.7267 170.326 32.0716V34.7483H168.946V34.7647Z" fill="#233559"/>
<path d="M184.465 34.7647V33.2047C183.151 32.8927 181.952 32.8927 181.361 32.8927C178.898 32.8927 178.701 34.2721 178.701 34.6826C178.701 35.553 179.128 36.3084 181.525 36.801C184.104 37.3429 186.041 38.0491 186.041 40.2988C186.041 42.5322 184.563 43.7802 181.837 43.7802C180.047 43.7802 178.34 43.616 176.927 43.2547V40.578H178.307V42.1381C179.67 42.4501 181.033 42.4501 181.64 42.4501C184.153 42.4501 184.383 40.8736 184.383 40.3974C184.383 39.527 183.874 38.8209 181.427 38.3282C179.029 37.8848 177.059 37.113 177.059 34.7319C177.059 32.6463 178.569 31.5625 181.263 31.5625C183.053 31.5625 184.432 31.7267 185.844 32.0716V34.7483H184.465V34.7647Z" fill="#233559"/>
<path d="M189.062 34.7647V32.0387C190.606 31.7267 192.183 31.5625 193.431 31.5625C196.157 31.5625 197.635 32.4164 197.635 35.4216V42.1709H199.227V43.5503H195.976V42.3844H195.927C194.794 43.304 193.693 43.7966 192.166 43.7966C190.278 43.7966 188.258 42.8113 188.258 40.463C188.258 37.6385 190.754 36.8667 193.234 36.8667H195.96V35.5201C195.96 33.8123 195.155 32.9583 193.053 32.9583C192.445 32.9583 191.624 33.0076 190.425 33.2211V34.7811H189.062V34.7647ZM195.992 37.8848H193.447C190.836 37.8848 189.916 38.7059 189.916 40.266C189.916 41.6126 190.935 42.4993 192.708 42.4993C194.252 42.4993 195.385 41.8425 195.976 41.3662V37.8848H195.992Z" fill="#233559"/>
<path d="M200.952 27.0957H204.22V42.1544H205.846V43.5338H200.952V42.1544H202.578V28.4751H200.952V27.0957Z" fill="#233559"/>
<path d="M207.504 31.7923H210.772V42.1544H212.398V43.5338H207.504V42.1544H209.13V33.1717H207.504V31.7923ZM210.772 27.0957V29.8874H209.13V27.0957H210.772Z" fill="#233559"/>
<path d="M214.073 31.7922H217.341V33.6643H217.39C218.441 32.6133 220.116 31.5459 222.005 31.5459V33.106C220.149 33.106 218.294 34.0256 217.358 34.6824V42.1543H219.262V43.5337H214.09V42.1543H215.715V33.1716H214.09V31.7922H214.073Z" fill="#233559"/>
<path d="M229.033 34.7647V32.0387C230.577 31.7267 232.153 31.5625 233.401 31.5625C236.127 31.5625 237.605 32.4164 237.605 35.4216V42.1709H239.198V43.5503H235.947V42.3844H235.897C234.764 43.304 233.664 43.7966 232.137 43.7966C230.248 43.7966 228.229 42.8113 228.229 40.463C228.229 37.6385 230.725 36.8667 233.204 36.8667H235.93V35.5201C235.93 33.8123 235.126 32.9583 233.024 32.9583C232.416 32.9583 231.595 33.0076 230.396 33.2211V34.7811H229.033V34.7647ZM235.98 37.8848H233.434C230.823 37.8848 229.904 38.7059 229.904 40.266C229.904 41.6126 230.922 42.4993 232.695 42.4993C234.239 42.4993 235.372 41.8425 235.963 41.3662V37.8848H235.98Z" fill="#233559"/>
<path d="M247.376 27.0957H250.644V42.1544H252.237V43.5338H248.986V42.3679H248.936C248.05 43.1889 246.654 43.7801 245.176 43.7801C241.891 43.7801 240.808 41.1034 240.808 37.6713C240.808 34.2391 241.99 31.5624 245.274 31.5624C246.687 31.5624 248.05 32.1043 248.936 32.9254H248.986V28.4751H247.36V27.0957H247.376ZM245.816 42.4007C247.245 42.4007 248.444 41.7274 248.986 41.2676V34.0749C248.444 33.6315 247.245 32.9418 245.816 32.9418C243.271 32.9418 242.548 35.1587 242.548 37.6713C242.548 40.2166 243.287 42.4007 245.816 42.4007Z" fill="#233559"/>
<path d="M255.456 37.8848C255.505 40.5123 256.638 42.4008 259.709 42.4008C260.908 42.4008 262.057 42.3351 263.371 41.9246L263.584 43.2547C262.172 43.6489 261.006 43.7802 259.479 43.7802C255.226 43.7802 253.715 41.2841 253.715 37.6714C253.715 34.0586 255.226 31.5625 259.331 31.5625C264.192 31.5625 264.241 35.4709 263.748 37.8848H255.456ZM255.456 36.801H262.156C262.533 34.9946 262.09 32.8598 259.249 32.8598C256.556 32.8598 255.62 34.6169 255.456 36.801Z" fill="#233559"/>
<path d="M265.719 27.0957H268.987V42.1544H270.613V43.5338H265.719V42.1544H267.345V28.4751H265.719V27.0957Z" fill="#233559"/>
<path d="M273.175 34.7647V32.0387C274.718 31.7267 276.295 31.5625 277.543 31.5625C280.269 31.5625 281.747 32.4164 281.747 35.4216V42.1709H283.34V43.5503H280.088V42.3844H280.039C278.906 43.304 277.806 43.7966 276.278 43.7966C274.39 43.7966 272.37 42.8113 272.37 40.463C272.37 37.6385 274.866 36.8667 277.346 36.8667H280.072V35.5201C280.072 33.8123 279.267 32.9583 277.165 32.9583C276.558 32.9583 275.737 33.0076 274.538 33.2211V34.7811H273.175V34.7647ZM280.105 37.8848H277.559C274.948 37.8848 274.029 38.7059 274.029 40.266C274.029 41.6126 275.047 42.4993 276.82 42.4993C278.364 42.4993 279.497 41.8425 280.088 41.3662V37.8848H280.105Z" fill="#233559"/>
<path d="M293.094 42.1707H294.621V35.7827C294.621 34.1569 293.981 32.9582 292.043 32.9582C290.5 32.9582 289.104 33.927 288.332 34.5346V42.1707H289.859V43.5501H285.064V42.1707H286.69V33.1881H285.064V31.7922H288.332V33.5001H288.381C289.58 32.3506 291.041 31.5459 292.749 31.5459C295.098 31.5459 296.28 32.9089 296.28 35.405V42.1543H297.873V43.5337H293.094V42.1707Z" fill="#233559"/>
<path d="M300.418 32.9912H298.562V31.9073L300.418 31.7924L300.632 28.5081H302.06V31.7924H305.542V32.9912H302.06V39.8226C302.06 41.5304 302.537 42.4336 304.195 42.4336C304.573 42.4336 304.951 42.4008 305.492 42.3187L305.657 43.616C305.049 43.7145 304.195 43.7802 303.686 43.7802C301.403 43.7802 300.418 42.8442 300.418 40.0853V32.9912Z" fill="#233559"/>
<path d="M309.105 37.8848C309.154 40.5123 310.287 42.4008 313.358 42.4008C314.557 42.4008 315.706 42.3351 317.02 41.9246L317.234 43.2547C315.821 43.6489 314.655 43.7802 313.128 43.7802C308.875 43.7802 307.364 41.2841 307.364 37.6714C307.364 34.0586 308.875 31.5625 312.98 31.5625C317.841 31.5625 317.891 35.4709 317.398 37.8848H309.105ZM309.105 36.801H315.805C316.183 34.9946 315.739 32.8598 312.898 32.8598C310.205 32.8598 309.269 34.6169 309.105 36.801Z" fill="#233559"/>
</svg>
