<svg width="31" height="31" viewBox="0 0 31 31" fill="none" xmlns="http://www.w3.org/2000/svg">
<path d="M15.5695 30.168C7.25691 30.168 0.488647 23.3998 0.488647 15.0872C0.488647 6.77461 7.25691 0.00634766 15.5695 0.00634766C23.8821 0.00634766 30.6503 6.77461 30.6503 15.0872C30.6503 23.3998 23.8821 30.168 15.5695 30.168ZM15.5695 0.940559C7.77168 0.940559 1.42286 7.28938 1.42286 15.0872C1.42286 22.885 7.77168 29.2338 15.5695 29.2338C23.3673 29.2338 29.7161 22.885 29.7161 15.0872C29.7161 7.28938 23.3673 0.940559 15.5695 0.940559Z" fill="white"/>
<path d="M23.1099 15.5543H8.01956C7.76218 15.5543 7.55246 15.3446 7.55246 15.0872C7.55246 14.8298 7.76218 14.6201 8.01956 14.6201H23.1195C23.3769 14.6201 23.5866 14.8298 23.5866 15.0872C23.5866 15.3446 23.3673 15.5543 23.1099 15.5543Z" fill="white"/>
<path d="M15.5695 23.1042C15.3121 23.1042 15.1024 22.8945 15.1024 22.6371V7.53717C15.1024 7.27979 15.3121 7.07007 15.5695 7.07007C15.8269 7.07007 16.0366 7.27979 16.0366 7.53717V22.6371C16.0366 22.8945 15.8269 23.1042 15.5695 23.1042Z" fill="white"/>
</svg>
