<svg width="12" height="19" viewBox="0 0 12 19" fill="none" xmlns="http://www.w3.org/2000/svg">
<path d="M6.62966 0.870117C6.94425 0.946379 7.26836 0.974969 7.58294 1.0703C9.27024 1.566 10.519 2.58601 11.3293 4.13985C11.7869 5.01686 11.9871 5.96061 11.9775 6.95201C11.9585 7.96249 11.6916 8.8967 11.2054 9.78325C9.63249 12.624 8.06911 15.4648 6.49621 18.3055C6.45808 18.3818 6.41041 18.4581 6.36275 18.5343C6.17209 18.8394 5.82891 18.8489 5.64779 18.5343C5.40947 18.1244 5.19022 17.7145 4.96143 17.3046C3.57918 14.7975 2.18739 12.2999 0.805142 9.79279C0.261774 8.81091 -0.0146738 7.77184 0.03299 6.64697C0.0997194 5.0836 0.681215 3.72995 1.78702 2.61462C2.71169 1.68994 3.82703 1.11796 5.12349 0.936839C5.20928 0.927306 5.29508 0.89871 5.38087 0.879645C5.79078 0.870112 6.21022 0.870117 6.62966 0.870117ZM6.00051 3.87293C4.36087 3.87293 3.04534 5.18845 3.04534 6.81856C3.04534 8.36286 4.256 9.78325 6.01003 9.77372C7.80219 9.76419 8.96519 8.3152 8.95566 6.81856C8.95566 5.18845 7.63061 3.87293 6.00051 3.87293Z" fill="white"/>
</svg>
