<svg width="32" height="32" viewBox="0 0 32 32" fill="none" xmlns="http://www.w3.org/2000/svg">
<g clip-path="url(#clip0)">
<path d="M15.82 31.63C7.1 31.63 0 24.54 0 15.82C0 7.1 7.1 0 15.82 0C24.54 0 31.64 7.1 31.64 15.82C31.64 24.54 24.54 31.63 15.82 31.63ZM15.82 0.98C7.64 0.98 0.98 7.64 0.98 15.82C0.98 24 7.64 30.66 15.82 30.66C24 30.66 30.66 24 30.66 15.82C30.66 7.64 24 0.98 15.82 0.98Z" fill="#E30613"/>
<path d="M23.73 16.31H7.9C7.63 16.31 7.41 16.09 7.41 15.82C7.41 15.55 7.63 15.33 7.9 15.33H23.74C24.01 15.33 24.23 15.55 24.23 15.82C24.22 16.09 24 16.31 23.73 16.31Z" fill="#E30613"/>
<path d="M15.82 24.22C15.55 24.22 15.33 24 15.33 23.73V7.9C15.33 7.63 15.55 7.41 15.82 7.41C16.09 7.41 16.31 7.63 16.31 7.9V23.74C16.31 24 16.09 24.22 15.82 24.22Z" fill="#E30613"/>
</g>
<defs>
<clipPath id="clip0">
<rect width="31.63" height="31.63" fill="white"/>
</clipPath>
</defs>
</svg>
