<svg width="169" height="84" viewBox="0 0 169 84" fill="none" xmlns="http://www.w3.org/2000/svg">
<g clip-path="url(#clip0)">
<path d="M10.7171 73.0986C10.7171 73.7706 10.6421 74.5172 10.4922 75.2639H5.02129V79.2959H12.141C12.2909 80.1172 12.3659 80.7892 12.3659 81.4612C12.3659 82.1332 12.2909 82.8799 12.141 83.7012H0V63.3919H11.9162C11.9911 63.8399 12.0661 64.2132 12.0661 64.5119C12.141 64.8852 12.141 65.1839 12.141 65.5572C12.141 66.1546 12.0661 66.9012 11.9162 67.7972H5.02129V70.9332H10.4922C10.6421 71.7546 10.7171 72.5012 10.7171 73.0986Z" fill="#233559"/>
<path d="M14.3146 63.4667C14.8392 63.392 15.2889 63.3173 15.7386 63.3173C16.1882 63.3173 16.7129 63.2427 17.1625 63.2427C17.4623 63.2427 17.912 63.2427 18.4366 63.3173C18.9612 63.392 19.3359 63.392 19.6357 63.4667L22.3337 73.248L25.0317 63.4667C25.3315 63.392 25.7062 63.3173 26.2308 63.3173C26.7554 63.2427 27.1302 63.2427 27.5049 63.2427C28.0295 63.2427 28.4792 63.2427 28.9288 63.3173C29.3785 63.3173 29.8282 63.392 30.3528 63.4667L26.9803 73.0987L31.0273 83.552C30.053 83.7013 29.0787 83.776 28.1794 83.776C27.8796 83.776 27.4299 83.776 26.9053 83.7013C26.3807 83.6267 26.006 83.6267 25.7062 83.552L22.2588 73.472L18.8113 83.552C18.5115 83.6267 18.1368 83.7013 17.6122 83.7013C17.0876 83.776 16.7129 83.776 16.3381 83.776C15.3638 83.776 14.4645 83.7013 13.4902 83.552L17.6122 73.0987L14.3146 63.4667Z" fill="#233559"/>
<path d="M33.1256 63.4667C33.5753 63.392 34.2498 63.3173 35.1491 63.2427C36.0485 63.168 37.1726 63.0933 38.5216 63.0933C39.4959 63.0933 40.5452 63.168 41.5194 63.392C42.5687 63.616 43.468 63.9147 44.2924 64.4373C45.1168 64.96 45.7913 65.7067 46.3159 66.6027C46.8405 67.5733 47.0653 68.768 47.0653 70.2613C47.0653 71.6053 46.8405 72.7253 46.4658 73.5467C46.091 74.4427 45.4915 75.1147 44.8919 75.6373C44.2174 76.16 43.468 76.5333 42.5687 76.7573C41.7443 76.9813 40.8449 77.1307 39.9456 77.1307C39.5709 77.1307 39.1961 77.1307 38.8214 77.056C38.4467 77.056 38.2219 76.9813 38.072 76.9813V83.552C37.5474 83.6267 37.1726 83.7013 36.723 83.776C36.3483 83.8507 35.9735 83.8507 35.5988 83.8507C34.9243 83.8507 34.0999 83.776 33.1256 83.6267V63.4667ZM37.997 73.024C38.072 73.0987 38.2219 73.0987 38.4467 73.0987C38.6715 73.0987 38.8964 73.0987 39.1212 73.0987C39.9456 73.0987 40.6201 72.8747 41.0698 72.4267C41.5944 71.9787 41.8192 71.232 41.8192 70.2613C41.8192 69.664 41.7443 69.216 41.5944 68.8427C41.4445 68.4693 41.2197 68.1707 40.9199 67.9467C40.6201 67.7227 40.3203 67.5733 39.9456 67.424C39.5709 67.3493 39.1961 67.2747 38.7465 67.2747C38.5966 67.2747 38.5216 67.2747 38.3718 67.2747C38.2219 67.2747 38.072 67.2747 37.9221 67.2747V73.024H37.997Z" fill="#233559"/>
<path d="M60.3302 73.0986C60.3302 73.7706 60.2553 74.5172 60.1054 75.2639H54.6345V79.2959H61.7542C61.9041 80.1172 61.979 80.7892 61.979 81.4612C61.979 82.1332 61.9041 82.8799 61.7542 83.7012H49.6132V63.3919H61.5294C61.6043 63.8399 61.6792 64.2132 61.6792 64.5119C61.7542 64.8852 61.7542 65.1839 61.7542 65.5572C61.7542 66.1546 61.6792 66.9012 61.5294 67.7972H54.6345V70.9332H60.1054C60.2553 71.7546 60.3302 72.5012 60.3302 73.0986Z" fill="#233559"/>
<path d="M64.5272 63.4666C65.4265 63.3919 66.3259 63.3173 67.0753 63.1679C67.8248 63.0933 68.6492 63.0186 69.5485 63.0186C70.5977 63.0186 71.647 63.0933 72.6212 63.3173C73.6705 63.5413 74.5698 63.8399 75.3942 64.3626C76.2186 64.8853 76.8931 65.4826 77.3427 66.3786C77.8674 67.2 78.0922 68.3199 78.0922 69.5893C78.0922 70.2613 78.0172 70.9333 77.8674 71.456C77.7175 71.9786 77.4926 72.5013 77.2678 72.9493C77.043 73.3973 76.7432 73.7706 76.4434 74.0693C76.1436 74.368 75.8439 74.6666 75.5441 74.8906L79.9658 83.552C79.5161 83.6266 78.9915 83.7013 78.4669 83.7013C77.9423 83.7013 77.4177 83.776 77.043 83.776C76.6682 83.776 76.2186 83.776 75.694 83.7013C75.1693 83.6266 74.7197 83.6266 74.345 83.552L70.2979 74.368L70.5228 74.2186C70.7476 74.0693 70.9724 73.92 71.2722 73.6213C71.572 73.3226 71.7968 73.024 72.0217 72.6506C72.2465 72.2773 72.4713 71.904 72.6212 71.456C72.7711 71.008 72.8461 70.56 72.8461 70.0373C72.8461 69.0666 72.5463 68.3946 72.0217 67.9466C71.4971 67.4986 70.8226 67.2746 70.0731 67.2746C69.8483 67.2746 69.6984 67.2746 69.6234 67.2746C69.4736 67.2746 69.3986 67.3493 69.3986 67.3493V83.4773C68.4243 83.6266 67.5999 83.7013 66.9254 83.7013C66.2509 83.7013 65.4265 83.6266 64.3773 83.4773V63.4666H64.5272Z" fill="#233559"/>
<path d="M84.4625 83.8507C83.788 83.8507 82.9636 83.776 81.9144 83.6267V63.4667C82.439 63.392 82.8886 63.3173 83.2634 63.3173C83.6381 63.3173 84.0128 63.2427 84.3875 63.2427C84.7623 63.2427 85.137 63.2427 85.5117 63.3173C85.9614 63.392 86.411 63.392 86.8607 63.4667V83.552C85.9614 83.776 85.137 83.8507 84.4625 83.8507Z" fill="#233559"/>
<path d="M101.025 73.0986C101.025 73.7706 100.95 74.5172 100.801 75.2639H95.3296V79.2959H102.449C102.599 80.1172 102.674 80.7892 102.674 81.4612C102.674 82.1332 102.599 82.8799 102.449 83.7012H90.3832V63.3919H102.299C102.374 63.8399 102.449 64.2132 102.449 64.5119C102.524 64.8852 102.524 65.1839 102.524 65.5572C102.524 66.1546 102.449 66.9012 102.299 67.7972H95.4045V70.9332H100.875C100.95 71.7546 101.025 72.5012 101.025 73.0986Z" fill="#233559"/>
<path d="M105.222 63.4667C105.672 63.392 106.047 63.3173 106.346 63.3173C106.646 63.3173 107.021 63.2427 107.321 63.2427C107.695 63.2427 107.995 63.2427 108.37 63.3173C108.745 63.392 109.044 63.392 109.344 63.4667L115.864 74.5173V63.4667C116.389 63.392 116.764 63.3173 117.213 63.3173C117.588 63.2427 117.963 63.2427 118.263 63.2427C118.562 63.2427 118.937 63.2427 119.312 63.3173C119.686 63.392 120.061 63.392 120.436 63.4667V83.552C120.211 83.6267 119.986 83.7013 119.612 83.7013C119.237 83.776 118.862 83.776 118.487 83.776C118.038 83.776 117.588 83.776 117.213 83.7013C116.839 83.6267 116.539 83.552 116.389 83.552L109.794 72.576V83.552C108.969 83.7013 108.22 83.776 107.545 83.776C106.871 83.776 106.121 83.7013 105.222 83.552V63.4667Z" fill="#233559"/>
<path d="M128.605 73.5467C128.605 77.504 130.254 79.52 133.626 79.52C134.226 79.52 134.825 79.4453 135.35 79.3707C135.875 79.2213 136.549 79.072 137.299 78.7733C137.898 80.1173 138.348 81.536 138.573 82.9547C138.048 83.1787 137.523 83.328 137.074 83.4773C136.624 83.6267 136.174 83.7013 135.725 83.776C135.275 83.8507 134.825 83.9253 134.451 83.9253C134.001 83.9253 133.551 84 133.102 84C131.528 84 130.104 83.776 128.905 83.2533C127.706 82.7307 126.656 81.984 125.832 81.088C125.008 80.192 124.408 79.072 123.958 77.8027C123.509 76.5333 123.359 75.1147 123.359 73.6213C123.359 72.128 123.584 70.7093 124.033 69.44C124.483 68.1707 125.083 67.0507 125.907 66.08C126.731 65.1093 127.706 64.4373 128.98 63.9147C130.179 63.392 131.528 63.0933 133.102 63.0933C134.001 63.0933 134.9 63.168 135.65 63.3173C136.474 63.4667 137.374 63.6907 138.348 64.1387C138.273 64.8853 138.198 65.632 137.898 66.3787C137.673 67.1253 137.374 67.7227 137.149 68.2453C136.774 68.096 136.399 68.0213 136.099 67.872C135.8 67.7973 135.5 67.7227 135.2 67.648C134.9 67.5733 134.601 67.5733 134.376 67.4987C134.076 67.4987 133.776 67.424 133.476 67.424C131.978 67.424 130.778 67.9467 129.954 68.992C128.98 70.0373 128.605 71.5307 128.605 73.5467Z" fill="#233559"/>
<path d="M151.763 73.0986C151.763 73.7706 151.688 74.5172 151.538 75.2639H146.067V79.2959H153.187C153.337 80.1172 153.412 80.7892 153.412 81.4612C153.412 82.1332 153.337 82.8799 153.187 83.7012H141.121V63.3919H153.037C153.112 63.8399 153.187 64.2132 153.187 64.5119C153.262 64.8852 153.262 65.1839 153.262 65.5572C153.262 66.1546 153.187 66.9012 153.037 67.7972H146.142V70.9332H151.613C151.688 71.7546 151.763 72.5012 151.763 73.0986Z" fill="#233559"/>
<path d="M163.829 71.3067C164.654 71.6053 165.328 71.9787 165.928 72.2774C166.527 72.576 167.127 73.024 167.576 73.472C168.026 73.92 168.401 74.5174 168.626 75.1147C168.85 75.7867 169 76.5333 169 77.4294C169 78.4 168.85 79.296 168.476 80.1174C168.101 80.9387 167.576 81.6107 166.902 82.208C166.227 82.8054 165.403 83.2534 164.429 83.552C163.454 83.8507 162.33 84 161.056 84C159.857 84 158.883 83.9254 157.983 83.7014C157.084 83.4774 156.11 83.2534 155.061 82.8054C155.136 82.1334 155.285 81.4614 155.435 80.7147C155.66 79.968 155.885 79.2214 156.11 78.4747C157.834 79.2214 159.332 79.5947 160.607 79.5947C161.581 79.5947 162.33 79.4454 162.855 79.1467C163.379 78.848 163.679 78.3254 163.679 77.6534C163.679 77.3547 163.604 77.1307 163.529 76.9067C163.379 76.6827 163.23 76.5334 163.08 76.384C162.855 76.2347 162.705 76.0854 162.48 76.0107C162.255 75.936 162.03 75.7867 161.731 75.712L160.157 75.1147C159.482 74.8907 158.883 74.592 158.283 74.2187C157.759 73.8454 157.234 73.472 156.859 73.024C156.485 72.576 156.185 72.0533 155.96 71.456C155.735 70.8587 155.66 70.1867 155.66 69.3653C155.66 68.3947 155.81 67.4987 156.185 66.752C156.56 66.0053 157.009 65.3333 157.609 64.8107C158.208 64.288 158.958 63.84 159.857 63.616C160.756 63.3173 161.731 63.2427 162.78 63.2427C163.754 63.2427 164.654 63.3173 165.553 63.5413C166.452 63.7653 167.426 63.9893 168.401 64.3627C168.326 64.96 168.176 65.632 168.026 66.3787C167.801 67.1253 167.576 67.7973 167.277 68.3947C166.752 68.1707 166.227 67.9467 165.553 67.7227C164.878 67.4987 164.054 67.3493 163.08 67.3493C162.78 67.3493 162.48 67.3493 162.18 67.424C161.881 67.4987 161.656 67.5733 161.431 67.7227C161.206 67.872 161.056 68.0213 160.906 68.2453C160.756 68.4693 160.681 68.6933 160.681 69.0667C160.681 69.5893 160.831 70.0373 161.206 70.2613C161.581 70.56 161.956 70.784 162.48 70.9333L163.829 71.3067Z" fill="#233559"/>
<path d="M10.7171 48.8319C10.7171 49.5039 10.6421 50.2506 10.4922 50.9972H5.02129V55.0292H12.141C12.2909 55.8506 12.3659 56.5226 12.3659 57.1946C12.3659 57.8666 12.2909 58.6132 12.141 59.4346H0V39.1999H11.9162C11.9911 39.6479 12.0661 40.0212 12.0661 40.3199C12.141 40.6932 12.141 40.9919 12.141 41.3652C12.141 41.9626 12.0661 42.7092 11.9162 43.6052H5.02129V46.6666H10.4922C10.6421 47.4879 10.7171 48.2346 10.7171 48.8319Z" fill="#233559"/>
<path d="M20.535 38.8266C24.0574 38.8266 26.8304 39.7226 28.629 41.5146C30.5027 43.3066 31.402 45.9199 31.402 49.4293C31.402 53.0133 30.4277 55.6266 28.5541 57.2693C26.6805 58.9119 23.9075 59.7333 20.2353 59.7333C19.261 59.7333 18.3616 59.6586 17.5372 59.5839C16.6379 59.5093 15.8135 59.4346 14.9142 59.2853V39.1999C15.214 39.1253 15.5887 39.1253 15.9634 39.0506C16.4131 38.9759 16.8627 38.9759 17.3874 38.9013C17.912 38.9013 18.4366 38.8266 18.9612 38.8266C19.4858 38.8266 20.0104 38.8266 20.535 38.8266ZM19.8605 55.3279C20.0104 55.3279 20.1603 55.3279 20.3102 55.3279C20.4601 55.3279 20.6849 55.3279 20.8348 55.3279C21.5843 55.3279 22.2588 55.2533 22.9333 55.0293C23.6078 54.8799 24.1324 54.5066 24.582 54.0586C25.0317 53.6106 25.4064 53.0133 25.7062 52.1919C26.006 51.4453 26.0809 50.4746 26.0809 49.2053C26.0809 48.0106 25.931 47.0399 25.6313 46.2186C25.3315 45.3973 24.9568 44.7999 24.5071 44.3519C24.0574 43.9039 23.5328 43.5306 22.8583 43.3813C22.2588 43.1573 21.5843 43.0826 20.9098 43.0826C20.535 43.0826 20.2352 43.0826 20.0854 43.0826C19.9355 43.0826 19.7856 43.0826 19.7106 43.0826V55.3279H19.8605Z" fill="#233559"/>
<path d="M41.8938 59.7332C40.3949 59.7332 39.1208 59.5092 38.0716 59.1358C37.0973 58.6878 36.2729 58.1652 35.6734 57.3438C35.0738 56.5972 34.6991 55.6265 34.4743 54.5065C34.2494 53.3865 34.0995 52.1172 34.0995 50.7732V39.1998C34.6242 39.1252 35.1488 39.0505 35.5235 39.0505C35.8982 39.0505 36.2729 38.9758 36.6477 38.9758C36.9474 38.9758 37.3222 38.9758 37.6969 39.0505C38.0716 39.0505 38.5213 39.1252 39.1208 39.1998V50.1012C39.1208 51.0718 39.1958 51.8185 39.2707 52.4905C39.3457 53.1625 39.4956 53.6852 39.6454 54.0585C39.8703 54.5065 40.0951 54.7305 40.4698 54.9545C40.8446 55.1038 41.2942 55.2532 41.8938 55.2532C42.4933 55.2532 42.943 55.1785 43.3177 54.9545C43.6925 54.8052 43.9922 54.5065 44.1421 54.0585C44.367 53.6105 44.4419 53.0878 44.5168 52.4905C44.5918 51.8185 44.5918 51.0718 44.5918 50.1012V39.1998C45.1913 39.1252 45.641 39.0505 46.0157 39.0505C46.3905 39.0505 46.7652 38.9758 47.065 38.9758C47.4397 38.9758 47.7395 38.9758 48.1891 39.0505C48.5638 39.0505 49.0885 39.1252 49.6131 39.1998V50.7732C49.6131 52.1918 49.4632 53.3865 49.2383 54.5065C49.0135 55.6265 48.5638 56.5225 48.0392 57.3438C47.4397 58.0905 46.6902 58.6878 45.641 59.1358C44.6667 59.5092 43.3927 59.7332 41.8938 59.7332Z" fill="#233559"/>
<path d="M42.1189 45.6213C41.6693 45.6213 41.2946 45.2479 41.2946 44.7999V34.6453C41.2946 32.9279 42.6436 31.5839 44.3673 31.5839H66.401C68.1247 31.5839 69.4737 30.2399 69.4737 28.5226V26.9546H71.1225V28.5226C71.1225 31.1359 69.024 33.2266 66.401 33.2266H44.3673C43.5429 33.2266 42.9433 33.8986 42.9433 34.6453V44.7999C42.9433 45.2479 42.5686 45.6213 42.1189 45.6213Z" fill="#233559"/>
<path d="M73.2208 21.8773H60.2554C59.8057 21.8773 59.431 21.504 59.431 21.056C59.431 20.608 59.8057 20.2347 60.2554 20.2347H73.2208C73.6705 20.2347 74.0452 20.608 74.0452 21.056C74.0452 21.504 73.6705 21.8773 73.2208 21.8773Z" fill="#233559"/>
<path d="M78.6168 16.352H60.2554C59.8057 16.352 59.431 15.9787 59.431 15.5307C59.431 15.0827 59.8057 14.7094 60.2554 14.7094H78.6168C79.0665 14.7094 79.4412 15.0827 79.4412 15.5307C79.4412 16.0533 79.0665 16.352 78.6168 16.352Z" fill="#233559"/>
<path d="M77.7174 21.7277C78.2141 21.7277 78.6167 21.3266 78.6167 20.8317C78.6167 20.3369 78.2141 19.9357 77.7174 19.9357C77.2207 19.9357 76.8181 20.3369 76.8181 20.8317C76.8181 21.3266 77.2207 21.7277 77.7174 21.7277Z" fill="#233559"/>
<path d="M82.6641 27.7759H57.7825H57.7075C57.6326 27.7759 47.7399 24.9386 49.9133 15.4559C50.4379 13.0666 53.8853 8.21324 60.5554 8.5119C61.155 6.19724 63.7031 -0.149428 71.7971 -9.46191e-05C71.872 -9.46191e-05 81.3151 0.298572 83.1137 9.70657C87.7603 12.1706 90.1585 16.0532 89.559 20.4586C89.1842 23.7439 86.6361 26.4319 82.8139 27.7012L82.6641 27.7759ZM58.0073 26.1332H82.4392C85.5869 25.0879 87.6104 22.8479 87.9851 20.3092C88.6596 15.1572 84.5377 12.3199 82.0645 11.0506L81.6898 10.8266L81.6148 10.3786C80.1909 1.94124 71.7971 1.64257 71.7221 1.64257C71.6472 1.64257 71.4973 1.64257 71.4224 1.64257C63.4033 1.64257 62.0543 9.10924 61.9793 9.4079L61.8295 10.1546L61.08 10.0799C54.4099 9.48257 51.7119 14.4852 51.4122 15.7546C49.6884 23.3706 57.033 25.8346 58.0073 26.1332Z" fill="#233559"/>
</g>
<defs>
<clipPath id="clip0">
<rect width="169" height="84" fill="white"/>
</clipPath>
</defs>
</svg>
