<svg width="31" height="35" viewBox="0 0 31 35" fill="none" xmlns="http://www.w3.org/2000/svg">
<path d="M27.1401 29.67V5.28997C27.1401 4.14997 26.1401 3.21997 24.9001 3.21997H24.3001V4.34997H24.9001C25.5101 4.34997 26.0101 4.76997 26.0101 5.28997V29.67C26.0101 30.19 25.5101 30.61 24.9001 30.61H5.8401C5.2301 30.61 4.7301 30.19 4.7301 29.67V29.27H3.6001V29.67C3.6001 30.81 4.6001 31.74 5.8401 31.74H24.9001C26.1301 31.73 27.1401 30.81 27.1401 29.67Z" fill="#E20511"/>
<path d="M28.55 6.41992H27.95V7.54992H28.55C29.16 7.54992 29.66 7.96992 29.66 8.48992V32.8699C29.66 33.3899 29.16 33.8099 28.55 33.8099H9.49C8.88 33.8099 8.38 33.3899 8.38 32.8699V32.4699H7.25V32.8699C7.25 34.0099 8.25 34.9399 9.49 34.9399H28.55C29.79 34.9399 30.79 34.0099 30.79 32.8699V8.47992C30.79 7.33992 29.79 6.41992 28.55 6.41992Z" fill="#E20511"/>
<path d="M23.54 26.45V2.07C23.54 0.93 22.54 0 21.3 0H5.44L0 5.83V26.44C0 27.58 1 28.51 2.24 28.51H21.3C22.54 28.52 23.54 27.59 23.54 26.45ZM1.13 26.45V6.97H4.33C5.57 6.97 6.57 6.04 6.57 4.9V1.13H21.3C21.91 1.13 22.41 1.55 22.41 2.07V26.45C22.41 26.97 21.91 27.39 21.3 27.39H2.24C1.63 27.38 1.13 26.96 1.13 26.45Z" fill="#E20511"/>
</svg>
