<svg width="51" height="51" viewBox="0 0 51 51" fill="none" xmlns="http://www.w3.org/2000/svg">
<path d="M49.9375 36.1251H46.75V12.75C46.75 10.4061 44.8439 8.5 42.4999 8.5H8.49997C6.15606 8.5 4.24993 10.406 4.24993 12.75V36.1251H1.06243C0.475236 36.1251 0 36.6002 0 37.1875V38.25C0 40.5939 1.90603 42.5001 4.25003 42.5001H46.7501C49.094 42.5001 51 40.5939 51 38.25V37.1875C51 36.6002 50.5248 36.1251 49.9375 36.1251ZM6.375 12.75C6.375 11.5786 7.32856 10.6251 8.49997 10.6251H42.4999C43.6713 10.6251 44.6249 11.5786 44.6249 12.75V36.1251H30.8125H20.1875H6.375V12.75ZM46.75 40.375H4.25003C3.07863 40.375 2.12507 39.4214 2.12507 38.25H5.31257H19.7476L20.4988 39.0013C20.698 39.2005 20.9678 39.3126 21.2501 39.3126H29.75C30.0322 39.3126 30.3021 39.2005 30.5013 39.0013L31.2524 38.25H45.6875H48.875C48.875 39.4214 47.9215 40.375 46.75 40.375Z" fill="#233559"/>
</svg>
