<svg width="179" height="49" viewBox="0 0 179 49" fill="none" xmlns="http://www.w3.org/2000/svg">
<path d="M138.225 18.6726H140.068V10.3369C140.043 8.34534 139.307 6.74284 136.907 6.74284C135.169 6.74284 133.802 8.03539 132.88 8.87291V18.6726H134.724V19.853H129.67V18.6726H131.569V7.01982H129.67V5.81299H132.88V7.91669H132.936C133.987 6.84835 135.305 5.64153 137.148 5.5558C137.625 5.5558 138.07 5.58218 138.491 5.66791C139.833 5.91851 140.73 6.76262 141.126 8.10793C142.282 6.84176 143.996 5.52283 145.919 5.52283C148.554 5.52283 149.872 7.06598 149.872 10.0995V18.6594H151.796V19.8398H146.711V18.6594H148.554V10.3897C148.554 8.33875 147.818 6.74284 145.394 6.74284C143.68 6.74284 142.233 8.06177 141.286 8.93227C141.342 9.35432 141.392 9.82914 141.392 10.3369V18.6726H143.235V19.853H138.231V18.6726H138.225Z" fill="#002855"/>
<path d="M155.198 9.1301V6.07018C156.88 5.70747 158.594 5.53601 159.911 5.53601C162.862 5.53601 164.439 6.60434 164.439 10.1127V18.6726H166.363V19.853H163.122V18.4484H163.066C161.748 19.5431 160.567 20.0772 158.934 20.1036C158.458 20.13 157.988 20.1036 157.536 20.0179C155.668 19.7343 154.456 18.4747 154.35 16.5095C154.326 16.0875 154.35 15.6654 154.406 15.2763C154.722 12.9484 156.775 11.9922 159.831 11.9922H163.122V10.1655C163.122 7.91668 162.225 6.74283 159.645 6.74283C158.884 6.74283 157.858 6.79559 156.33 7.07916V9.1301H155.198ZM163.128 12.9154H160.023C156.676 12.9154 155.625 14.0959 155.625 16.0611C155.625 17.7757 156.806 19.0089 159.126 19.0089C161.074 19.0089 162.441 18.112 163.128 17.4921V12.9154ZM160.122 4.13135H159.33L161.043 0.200928H162.256L160.122 4.13135Z" fill="#002855"/>
<path d="M177.725 9.12998V7.10542C176.092 6.70974 174.589 6.68336 173.909 6.68336C170.748 6.68336 170.618 8.67495 170.618 9.15636C170.618 10.3104 171.064 11.3722 174.119 12.0184C177.119 12.6911 178.962 13.6209 178.962 16.0873C178.962 18.6131 177.435 20.1299 174.435 20.1299C172.486 20.1299 170.668 19.9584 169.09 19.5429V16.5688H170.222V18.5603C171.88 18.9824 173.593 18.9824 174.305 18.9824C177.49 18.9824 177.651 16.7336 177.651 16.1731C177.651 15.019 177.125 14.01 174.014 13.3374C171.41 12.8032 169.301 11.9327 169.301 9.18274C169.301 6.8812 170.853 5.53589 173.828 5.53589C175.777 5.53589 177.249 5.70075 178.833 6.12281V9.12338H177.725V9.12998Z" fill="#002855"/>
<path d="M1.86385 37.2958V34.2358C3.54632 33.8665 5.25972 33.7017 6.57724 33.7017C9.52775 33.7017 11.1051 34.77 11.1051 38.2784V46.8382H13.0288V48.0187H9.78755V46.614H9.73188C8.41435 47.7087 7.23291 48.2429 5.59992 48.2693C5.12364 48.2956 4.65353 48.2693 4.20199 48.1835C2.33395 47.9 1.12158 46.6404 1.01643 44.6752C0.991685 44.2531 1.01643 43.8311 1.0721 43.442C1.38756 41.1141 3.44117 40.1578 6.49683 40.1578H9.78755V38.3311C9.78755 36.0823 8.89064 34.9085 6.31126 34.9085C5.55044 34.9085 4.52364 34.9612 2.9958 35.2448V37.2958H1.86385ZM9.78755 41.0811H6.6824C3.33601 41.0811 2.28447 42.2615 2.28447 44.2267C2.28447 45.9414 3.46591 47.1746 5.78549 47.1746C7.73394 47.1746 9.10095 46.2777 9.78755 45.6578V41.0811Z" fill="#002855"/>
<path d="M14.9463 28.3667H18.1566V46.8383H20.0803V48.0188H14.9463V46.8383H16.8453V29.5735H14.9463V28.3667Z" fill="#002855"/>
<path d="M21.9668 28.3667H25.1771V46.8383H27.1008V48.0188H21.9668V46.8383H23.8658V29.5735H21.9668V28.3667Z" fill="#002855"/>
<path d="M29.9713 37.2959V34.236C31.6537 33.8732 33.3671 33.7018 34.6847 33.7018C37.6352 33.7018 39.2125 34.7701 39.2125 38.2785V46.8384H41.1362V48.0188H37.895V46.6141H37.8393C36.5218 47.7089 35.3403 48.243 33.7073 48.2694C33.2311 48.2958 32.761 48.2694 32.3094 48.1837C30.4414 47.9001 29.229 46.6405 29.1238 44.6753C29.0991 44.2532 29.1238 43.8312 29.1795 43.4421C29.495 41.1142 31.5486 40.158 34.6043 40.158H37.895V38.3312C37.895 36.0825 36.9981 34.9086 34.4187 34.9086C33.6579 34.9086 32.6311 34.9614 31.1032 35.2449V37.2959H29.9713ZM37.895 41.0812H34.7898C31.4434 41.0812 30.3919 42.2617 30.3919 44.2269C30.3919 45.9415 31.5733 47.1747 33.8929 47.1747C35.8414 47.1747 37.2084 46.2778 37.895 45.6579V41.0812ZM34.895 32.2971H34.1032L35.8166 28.3667H37.029L34.895 32.2971Z" fill="#002855"/>
<path d="M55.4864 28.3667H58.6967V46.8383H60.6204V48.0188H57.3791V46.6141H57.3235C56.2967 47.5967 54.6884 48.2958 52.9812 48.2958C49.2946 48.2958 48.0327 45.1501 48.0327 40.9955C48.0327 36.8672 49.3502 33.6952 53.0369 33.6952C54.7193 33.6952 56.3028 34.3678 57.3297 35.3504H57.3853V29.5669H55.4864V28.3667ZM53.4327 47.1219C55.2204 47.1219 56.7235 46.1987 57.3853 45.6051V36.3924C56.7297 35.8319 55.2266 34.902 53.4327 34.902C50.3276 34.902 49.4307 37.7641 49.4307 40.9955C49.4307 44.2269 50.3214 47.1219 53.4327 47.1219Z" fill="#002855"/>
<path d="M63.5771 41.0811C63.6019 44.5894 64.8947 47.1152 68.6864 47.1152C70.1091 47.1152 71.4019 47.0031 72.7936 46.5547L72.9792 47.7087C71.4513 48.1572 70.2142 48.2956 68.5008 48.2956C63.8431 48.2956 62.1792 45.2951 62.1792 40.9954C62.1792 36.7286 63.8369 33.6951 68.3153 33.6951C73.7153 33.6951 73.6596 38.5487 73.1091 41.0811H63.5771ZM63.5771 40.1315H71.8472C72.3235 37.7442 71.7668 34.8228 68.241 34.8228C64.8947 34.8228 63.7627 37.2364 63.5771 40.1315Z" fill="#002855"/>
<path d="M80.0371 28.3667H83.2474V46.8383H85.1711V48.0188H80.0371V46.8383H81.9361V29.5735H80.0371V28.3667Z" fill="#002855"/>
<path d="M88.0411 37.2958V34.2358C89.7236 33.8731 91.437 33.7017 92.7545 33.7017C95.705 33.7017 97.2823 34.77 97.2823 38.2784V46.8382H99.2061V48.0187H95.9648V46.614H95.9091C94.5916 47.7087 93.4102 48.2429 91.7772 48.2693C91.3009 48.2956 90.8308 48.2693 90.3792 48.1835C88.5112 47.9 87.2988 46.6404 87.1937 44.6752C87.1689 44.2531 87.1937 43.8311 87.2493 43.442C87.5648 41.1141 89.6184 40.1578 92.6741 40.1578H95.9648V38.3311C95.9648 36.0823 95.0679 34.9085 92.4885 34.9085C91.7277 34.9085 90.7009 34.9612 89.1731 35.2448V37.2958H88.0411ZM95.9648 41.0811H92.8597C89.5133 41.0811 88.4617 42.2615 88.4617 44.2267C88.4617 45.9414 89.6432 47.1746 91.9627 47.1746C93.9112 47.1746 95.2782 46.2777 95.9648 45.6578V41.0811Z" fill="#002855"/>
<path d="M110.093 37.2958V35.2712C108.46 34.8755 106.957 34.8491 106.276 34.8491C103.115 34.8491 102.985 36.8407 102.985 37.3221C102.985 38.4762 103.431 39.5379 106.486 40.1842C109.486 40.8569 111.33 41.7867 111.33 44.2531C111.33 46.7789 109.802 48.2957 106.802 48.2957C104.853 48.2957 103.035 48.1242 101.458 47.7087V44.7345H102.589V46.7261C104.247 47.1482 105.961 47.1482 106.672 47.1482C109.858 47.1482 110.018 44.8994 110.018 44.3389C110.018 43.1848 109.493 42.1758 106.381 41.5031C103.777 40.969 101.668 40.0985 101.668 37.3485C101.668 35.047 103.22 33.7017 106.196 33.7017C108.144 33.7017 109.616 33.8665 111.2 34.2886V37.2892H110.093V37.2958Z" fill="#002855"/>
<path d="M119.73 37.2958V34.2358C121.413 33.8731 123.126 33.7017 124.444 33.7017C127.394 33.7017 128.971 34.77 128.971 38.2784V46.8382H130.895V48.0187H127.66V46.614H127.604C126.287 47.7087 125.105 48.2429 123.472 48.2693C122.996 48.2956 122.526 48.2693 122.075 48.1835C120.207 47.9 118.994 46.6404 118.889 44.6752C118.864 44.2531 118.889 43.8311 118.945 43.442C119.26 41.1141 121.314 40.1578 124.369 40.1578H127.66V38.3311C127.66 36.0823 126.763 34.9085 124.184 34.9085C123.423 34.9085 122.396 34.9612 120.868 35.2448V37.2958H119.73ZM127.654 41.0811H124.549C121.202 41.0811 120.151 42.2615 120.151 44.2267C120.151 45.9414 121.338 47.1746 123.652 47.1746C125.6 47.1746 126.967 46.2777 127.654 45.6578V41.0811Z" fill="#002855"/>
<path d="M131.563 33.9789H134.773V43.4686C134.773 45.4932 135.534 47.1155 137.934 47.1155C139.882 47.1155 141.621 45.7702 142.542 44.9524V35.1857H140.043V33.9789H143.86V46.8385H145.783V48.0189H142.542V45.9152H142.486C141.089 47.2935 139.381 48.3025 137.408 48.3025C134.773 48.3025 133.456 46.7594 133.456 43.7522V35.1857H131.557V33.9789H131.563Z" fill="#002855"/>
<path d="M147.714 28.3667H150.924V46.8383H152.848V48.0188H147.714V46.8383H149.607V29.5735H147.714V28.3667Z" fill="#002855"/>
<path d="M155.711 37.2958V34.2358C157.394 33.8731 159.107 33.7017 160.425 33.7017C163.375 33.7017 164.952 34.77 164.952 38.2784V46.8382H166.876V48.0187H163.641V46.614H163.585C162.268 47.7087 161.086 48.2429 159.453 48.2693C158.977 48.2956 158.507 48.2693 158.056 48.1835C156.187 47.9 154.975 46.6404 154.87 44.6752C154.845 44.2531 154.87 43.8311 154.926 43.442C155.241 41.1141 157.295 40.1578 160.35 40.1578H163.641V38.3311C163.641 36.0823 162.744 34.9085 160.165 34.9085C159.404 34.9085 158.377 34.9612 156.849 35.2448V37.2958H155.711ZM163.641 41.0811H160.536C157.19 41.0811 156.138 42.2615 156.138 44.2267C156.138 45.9414 157.326 47.1746 159.639 47.1746C161.587 47.1746 162.954 46.2777 163.641 45.6578V41.0811Z" fill="#002855"/>
<path d="M177.763 37.2958V35.2712C176.13 34.8755 174.626 34.8491 173.946 34.8491C170.785 34.8491 170.655 36.8407 170.655 37.3221C170.655 38.4762 171.101 39.5379 174.156 40.1842C177.156 40.8569 179 41.7867 179 44.2531C179 46.7789 177.472 48.2957 174.472 48.2957C172.523 48.2957 170.705 48.1242 169.127 47.7087V44.7345H170.259V46.7261C171.917 47.1482 173.631 47.1482 174.342 47.1482C177.527 47.1482 177.688 44.8994 177.688 44.3389C177.688 43.1848 177.163 42.1758 174.051 41.5031C171.447 40.969 169.338 40.0985 169.338 37.3485C169.338 35.047 170.89 33.7017 173.866 33.7017C175.814 33.7017 177.286 33.8665 178.87 34.2886V37.2892H177.763V37.2958Z" fill="#002855"/>
<path d="M0 0.760577V2.85926H1.71576V17.69H0V19.7887H13.3301V15.7312H11.3504V17.69H4.22341V10.9742H12.0103V8.87549H4.22341V2.85926H11.3504V4.81803H13.3301V0.760577H0Z" fill="#002855"/>
<path d="M22.3028 2.29961H24.0186V7.14058H23.9658C23.0155 6.16119 21.5637 5.5176 20.0591 5.5176C16.3637 5.5176 15.0438 8.73558 15.0438 12.793C15.0438 16.8505 16.2317 20.0685 19.9272 20.0685C21.4845 20.0685 23.0155 19.3689 23.9658 18.3895H24.0186V19.7887H28.11V17.69H26.3943V0.200928H22.3028V2.29961ZM17.5515 12.793C17.5515 9.99479 18.2642 7.61628 20.851 7.61628C22.3028 7.61628 23.4643 8.34383 24.0186 8.81953V16.7945C23.4643 17.2422 22.3028 17.9698 20.851 17.9698C18.2642 17.9698 17.5515 15.5913 17.5515 12.793Z" fill="#002855"/>
<path d="M29.1545 7.89611H30.8703V15.4514C30.8703 18.3895 32.1901 20.0685 34.8297 20.0685C36.6775 20.0685 38.2613 19.173 39.5283 17.8299H39.5811V19.7887H43.6725V17.69H41.9567V5.79742H37.4694V7.89611H39.5811V16.3748C38.7892 16.9904 37.3902 17.9698 35.8856 17.9698C33.9587 17.9698 33.246 16.7106 33.246 14.8917V5.79742H29.1545V7.89611Z" fill="#002855"/>
<path d="M56.3386 9.57506V6.16119C54.7548 5.74146 53.4878 5.5176 51.8512 5.5176C47.0207 5.5176 45.3841 8.45576 45.3841 12.793C45.3841 17.1303 47.0207 20.0685 51.8512 20.0685C53.4878 20.0685 54.7548 19.8726 56.3386 19.4529L55.8899 17.4101C53.7782 17.9698 52.7751 17.9698 51.8512 17.9698C49.0796 17.9698 47.8918 15.8711 47.8918 12.793C47.8918 9.71497 49.0796 7.61628 51.8512 7.61628C52.4056 7.61628 53.2238 7.61628 54.3589 7.89611V9.57506H56.3386Z" fill="#002855"/>
<path d="M61.2263 9.57506V7.86813C62.3877 7.67225 63.1796 7.61628 63.8131 7.61628C65.9776 7.61628 66.8487 8.45576 66.8487 10.2746V11.6737H63.9979C61.2263 11.6737 58.4019 12.6251 58.4019 16.011C58.4019 18.8373 60.6191 20.0685 62.7572 20.0685C64.3938 20.0685 65.6344 19.4809 66.7959 18.3895H66.8487V19.7887H70.9401V17.69H69.2243V10.1347C69.2243 6.49698 67.5086 5.5176 64.341 5.5176C62.8892 5.5176 61.0415 5.74146 59.2465 6.10523V9.57506H61.2263ZM66.8487 16.9344C66.2416 17.4381 65.0537 18.1097 63.5491 18.1097C61.8334 18.1097 60.7775 17.2143 60.7775 15.7312C60.7775 13.9963 61.7806 13.2128 64.2882 13.2128H66.8487V16.9344Z" fill="#002855"/>
<path d="M83.5608 9.57506V6.16119C81.9771 5.74146 80.71 5.5176 79.0735 5.5176C74.2429 5.5176 72.6064 8.45576 72.6064 12.793C72.6064 17.1303 74.2429 20.0685 79.0735 20.0685C80.71 20.0685 81.9771 19.8726 83.5608 19.4529L83.1121 17.4101C81.0004 17.9698 79.9973 17.9698 79.0735 17.9698C76.3019 17.9698 75.114 15.8711 75.114 12.793C75.114 9.71497 76.3019 7.61628 79.0735 7.61628C79.6278 7.61628 80.4461 7.61628 81.5811 7.89611V9.57506H83.5608Z" fill="#002855"/>
<path d="M85.755 7.89611H87.4708V17.69H85.755V19.7887H91.5622V17.69H89.8465V5.79742H85.755V7.89611ZM87.4708 0.200928V3.69874H89.8465V0.200928H87.4708Z" fill="#002855"/>
<path d="M99.2831 7.61628C102.028 7.61628 102.847 9.85488 102.847 12.793C102.847 15.7312 102.028 17.9698 99.2831 17.9698C96.5115 17.9698 95.7197 15.7312 95.7197 12.793C95.7197 9.85488 96.5115 7.61628 99.2831 7.61628ZM99.2831 20.0685C103.691 20.0685 105.354 17.1303 105.354 12.793C105.354 8.45576 103.691 5.5176 99.2831 5.5176C94.8486 5.5176 93.212 8.45576 93.212 12.793C93.212 17.1303 94.8486 20.0685 99.2831 20.0685ZM102.398 0.200928H100.101L98.5177 4.11848H100.365L102.398 0.200928Z" fill="#002855"/>
<path d="M116.078 19.7887H121.753V17.69H120.037V10.1347C120.037 7.19655 118.717 5.5176 116.078 5.5176C114.23 5.5176 112.646 6.44102 111.379 7.75619H111.326V5.79742H107.235V7.89611H108.951V17.69H107.235V19.7887H112.91V17.69H111.326V9.23927C112.118 8.59567 113.491 7.61628 115.022 7.61628C117.002 7.61628 117.662 8.87549 117.662 10.6944V17.69H116.078V19.7887Z" fill="#002855"/>
</svg>
