<svg width="47" height="57" viewBox="0 0 47 57" fill="none" xmlns="http://www.w3.org/2000/svg">
<path d="M23.5 56.1768V23.4043C3.05682 14.8088 0 0 0 0V32.6115C0 44.3835 23.5 56.1768 23.5 56.1768ZM29.1524 20.3782V52.9683C30.9865 51.8201 33.1102 50.425 35.2446 48.8261L35.2339 17.6954C8.41967 15.1629 0 0 0 0C9.13829 18.629 29.1524 20.3782 29.1524 20.3782ZM47 4.98992V0C39.6422 2.23205 31.7266 3.46612 23.5 3.47685C15.2734 3.46612 7.36855 2.23205 0 0C0 0 17.8905 10.9671 47 4.98992ZM40.9185 14.1542V43.9328C44.3829 40.4452 47 36.5284 47 32.6115V10.2803C42.7526 10.6881 33.6572 11.1817 24.0899 9.4111C12.7099 7.29709 5.74897 4.47483 0 0C13.6538 14.4869 40.9185 14.1542 40.9185 14.1542Z" fill="#C8102E"/>
</svg>
