<svg xmlns="http://www.w3.org/2000/svg" viewBox="0 0 147.99 47.36"><defs><style>.cls-1{fill:none;}.cls-2{fill:#006dff;}</style></defs><title>Recurso 3</title><g id="Capa_2" data-name="Capa 2"><g id="Capa_1-2" data-name="Capa 1"><path class="cls-1" d="M86.62,17.61a6,6,0,0,0-6.13,6,6,6,0,1,0,6.13-6Z"/><path class="cls-1" d="M108,17.6a6.23,6.23,0,0,0-6.1,6,6.08,6.08,0,1,0,6.1-6Z"/><path class="cls-2" d="M23.56,0A23.68,23.68,0,1,0,47.17,23.49,23.6,23.6,0,0,0,23.56,0Zm0,45.87A22.07,22.07,0,1,1,45.65,23.8,22.07,22.07,0,0,1,23.59,45.87Z"/><path class="cls-2" d="M23.59,1.74A22.07,22.07,0,1,0,45.65,23.8,22.07,22.07,0,0,0,23.59,1.74Zm4.74,30.08c-5.12,0-10.25,0-15.37,0a4.48,4.48,0,0,1-4.68-4.7c0-3.41,0-6.81,0-10.22,0-1.14.24-1.36,1.42-1.36h15a4.6,4.6,0,0,1,4.9,4.85q0,5.06,0,10.13C29.64,31.56,29.38,31.82,28.33,31.82Zm9.74-.16c-.44.25-.74-.15-1-.37-1.92-1.4-3.82-2.82-5.75-4.22a1.12,1.12,0,0,1-.51-1c0-1.56,0-3.12,0-4.67a1.31,1.31,0,0,1,.58-1.15c2-1.43,3.91-2.87,5.88-4.29.24-.17.49-.48.84-.28s.28.54.28.86v7.13h0v7C38.35,31,38.44,31.44,38.07,31.66Z"/><path class="cls-2" d="M148,21.46a8.24,8.24,0,0,0-13.91-5.88c-.35.32-.59.38-1,0a8.13,8.13,0,0,0-9.74-1.13.71.71,0,0,1-.86,0,6,6,0,0,0-2.16-.93c-1.08-.25-1.18-.19-1.19.94v9.19q0,4.71,0,9.42c0,.94.2,1.1,1.14,1a3.3,3.3,0,0,0,3.12-3.61c0-2.64,0-5.28,0-7.92a5.6,5.6,0,0,1,.57-2.84,4.09,4.09,0,0,1,4-2,3.89,3.89,0,0,1,3.27,3.3,10.09,10.09,0,0,1,.19,2c0,2.48,0,5,0,7.44A3.31,3.31,0,0,0,134.6,34c1,.15,1.16,0,1.16-1,0-3.33,0-6.65,0-10,0-.71.08-1.42.11-2.13.08-1.64,2.06-3.3,3.9-3.28a3.94,3.94,0,0,1,3.81,3.27,12.47,12.47,0,0,1,.13,1.73c0,2.69-.11,5.38.1,8.07a3.33,3.33,0,0,0,3,3.33c1,.16,1.18,0,1.18-1C148,29.17,148,25.32,148,21.46Z"/><path class="cls-2" d="M73.92,29.78c-2.9,0-5.8,0-8.7,0a1.1,1.1,0,0,1-1-.3,4.93,4.93,0,0,0,.73-.5c3.62-3.62,7.23-7.25,10.86-10.85a1.74,1.74,0,0,0,.53-1.64,3.35,3.35,0,0,0-3.7-3.14c-5,0-10,0-15,0-.67,0-.89.27-.86.91a3.4,3.4,0,0,0,3.51,3.36c2.85,0,5.7,0,8.55,0a1.54,1.54,0,0,1,.9.12,1.76,1.76,0,0,1-.58.7q-5.33,5.36-10.68,10.7a1.7,1.7,0,0,0-.63,1.29A3.37,3.37,0,0,0,61.5,34c5,0,10,0,15,0,.64,0,.82-.27.81-.86A3.36,3.36,0,0,0,73.92,29.78Z"/><path class="cls-2" d="M108.07,13.31a10.37,10.37,0,1,0,10.27,10.34A10.45,10.45,0,0,0,108.07,13.31ZM108,29.76a6.2,6.2,0,0,1-6-6.11,6.08,6.08,0,0,1,12.15,0A6.18,6.18,0,0,1,108,29.76Z"/><path class="cls-2" d="M86.52,13.31a10.37,10.37,0,1,0,10.3,10.46A10.39,10.39,0,0,0,86.52,13.31Zm0,16.45a6.06,6.06,0,0,1-6-6.14,6,6,0,1,1,12.05.07A6.08,6.08,0,0,1,86.51,29.76Z"/></g></g></svg>