<svg width="35" height="34" viewBox="0 0 35 34" fill="none" xmlns="http://www.w3.org/2000/svg">
<path d="M5.76957 4.51001C5.23957 4.51001 4.80957 4.94001 4.80957 5.47001C4.80957 6.00001 5.23957 6.43001 5.76957 6.43001C6.29957 6.43001 6.72957 6.00001 6.72957 5.47001C6.72957 4.94001 6.29957 4.51001 5.76957 4.51001Z" fill="#E20511"/>
<path d="M10.2598 4.51001C9.7298 4.51001 9.2998 4.94001 9.2998 5.47001C9.2998 6.00001 9.7298 6.43001 10.2598 6.43001C10.7898 6.43001 11.2198 6.00001 11.2198 5.47001C11.2198 4.94001 10.7898 4.51001 10.2598 4.51001Z" fill="#E20511"/>
<path d="M4.80957 15.1399C4.80957 15.6699 5.23957 16.0999 5.76957 16.0999C6.29957 16.0999 6.72957 15.6699 6.72957 15.1399C6.72957 14.6099 6.29957 14.1799 5.76957 14.1799C5.23957 14.1799 4.80957 14.6099 4.80957 15.1399Z" fill="#E20511"/>
<path d="M9.2998 15.1399C9.2998 15.6699 9.7298 16.0999 10.2598 16.0999C10.7898 16.0999 11.2198 15.6699 11.2198 15.1399C11.2198 14.6099 10.7898 14.1799 10.2598 14.1799C9.7298 14.1799 9.2998 14.6099 9.2998 15.1399Z" fill="#E20511"/>
<path d="M4.80957 24.8301C4.80957 25.3601 5.23957 25.7901 5.76957 25.7901C6.29957 25.7901 6.72957 25.3601 6.72957 24.8301C6.72957 24.3001 6.29957 23.8701 5.76957 23.8701C5.23957 23.8701 4.80957 24.3001 4.80957 24.8301Z" fill="#E20511"/>
<path d="M9.2998 24.8301C9.2998 25.3601 9.7298 25.7901 10.2598 25.7901C10.7898 25.7901 11.2198 25.3601 11.2198 24.8301C11.2198 24.3001 10.7898 23.8701 10.2598 23.8701C9.7298 23.8701 9.2998 24.3001 9.2998 24.8301Z" fill="#E20511"/>
<path d="M17.51 29.07L17.47 29.01H3.7C2.4 29.01 1.34 27.95 1.34 26.65V20.69H16.91L16.94 20.61C17.09 20.23 17.25 19.87 17.43 19.53L17.53 19.35H1.35V11.02H25.91V14.1L26.04 14.09C26.39 14.07 26.74 14.08 27.12 14.11L27.26 14.12V3.71C27.26 1.67 25.6 0 23.56 0H3.7C1.66 0.01 0 1.67 0 3.71V26.65C0 28.69 1.66 30.36 3.7 30.36H18.34L18.2 30.16C17.96 29.83 17.73 29.47 17.51 29.07ZM1.35 9.67V3.71C1.35 2.41 2.41 1.35 3.71 1.35H23.56C24.86 1.35 25.92 2.41 25.92 3.71V9.67H1.35Z" fill="#E20511"/>
<path d="M34.6104 32.8899L32.1504 29.7099L32.3604 29.4999C33.8004 28.0999 34.6004 26.2299 34.6004 24.2299C34.6004 20.1799 31.3004 16.8799 27.2504 16.8799C23.2004 16.8799 19.9004 20.1799 19.9004 24.2299C19.9004 28.2799 23.2004 31.5799 27.2504 31.5799C28.4904 31.5799 29.7204 31.2599 30.8104 30.6499L31.0604 30.5099L33.5304 33.7199C33.6604 33.8799 33.8604 33.9799 34.0704 33.9799C34.2204 33.9799 34.3604 33.9299 34.4804 33.8399C34.6204 33.7299 34.7104 33.5699 34.7404 33.3899C34.7704 33.2199 34.7204 33.0399 34.6104 32.8899ZM33.2604 24.2299C33.2604 27.5399 30.5704 30.2399 27.2604 30.2399C23.9504 30.2399 21.2604 27.5499 21.2604 24.2299C21.2604 20.9199 23.9504 18.2299 27.2604 18.2299C30.5704 18.2299 33.2604 20.9199 33.2604 24.2299Z" fill="#E20511"/>
<path d="M26.1102 20.5898C26.0402 20.5898 25.9502 20.6098 25.8702 20.6398C24.4002 21.2098 23.4102 22.6498 23.4102 24.2298C23.4102 24.6098 23.7102 24.8998 24.0802 24.8998C24.4502 24.8998 24.7502 24.5998 24.7502 24.2298C24.7502 23.1998 25.3902 22.2598 26.3502 21.8898C26.5202 21.8298 26.6502 21.6998 26.7202 21.5398C26.8002 21.3798 26.8002 21.1898 26.7302 21.0198C26.6302 20.7598 26.3802 20.5898 26.1102 20.5898Z" fill="#E20511"/>
</svg>
