<svg width="36" height="35" viewBox="0 0 36 35" fill="none" xmlns="http://www.w3.org/2000/svg">
<path d="M31.9 0H6.56C4.59 0 2.98 1.61 2.98 3.58V31.15C2.98 32.46 1.91 33.53 0.6 33.53C0.27 33.53 0 33.8 0 34.13C0 34.46 0.27 34.73 0.6 34.73H25.93C27.9 34.73 29.51 33.12 29.51 31.15V3.58C29.51 2.27 30.58 1.2 31.89 1.2C33.2 1.2 34.27 2.27 34.27 3.58V5.22H30.4V6.42H34.87C35.2 6.42 35.47 6.15 35.47 5.82V3.58C35.48 1.61 33.87 0 31.9 0ZM28.32 3.58V31.15C28.32 32.46 27.25 33.53 25.94 33.53H3.27C3.83 32.9 4.18 32.06 4.18 31.15V3.58C4.18 2.27 5.25 1.2 6.56 1.2H29.22C28.66 1.84 28.32 2.67 28.32 3.58Z" fill="#E20511"/>
<path d="M23.7 10.4299H18.48V11.6299H23.7V10.4299Z" fill="#E20511"/>
<path d="M23.7 6.70996H18.48V7.90996H23.7V6.70996Z" fill="#E20511"/>
<path d="M23.6998 16.3999H8.0498V17.5999H23.6998V16.3999Z" fill="#E20511"/>
<path d="M23.6998 20.1201H8.0498V21.3201H23.6998V20.1201Z" fill="#E20511"/>
<path d="M18.4798 23.8501H8.0498V25.0501H18.4798V23.8501Z" fill="#E20511"/>
<path d="M9.39994 12.53C9.39994 12.04 11.0299 10.89 12.5299 10.89C14.0299 10.89 15.6599 12.04 15.6599 12.53V14.02H16.8599V12.53C16.8599 11.59 15.7999 10.67 14.5399 10.14C15.0499 9.68997 15.3599 9.07997 15.3599 8.40997V6.94997C15.3599 5.60997 14.0599 4.46997 12.5299 4.46997C10.9999 4.46997 9.68994 5.60997 9.68994 6.94997V8.40997C9.68994 9.06997 10.0099 9.68997 10.5099 10.14C9.25994 10.67 8.18994 11.59 8.18994 12.53V14.02H9.38994V12.53H9.39994ZM10.8899 8.40997V6.94997C10.8899 6.27997 11.6699 5.66997 12.5299 5.66997C13.3899 5.66997 14.1699 6.27997 14.1699 6.94997V8.40997C14.1699 9.07997 13.3899 9.68997 12.5299 9.68997C11.6699 9.68997 10.8899 9.07997 10.8899 8.40997Z" fill="#E20511"/>
</svg>
