<svg width="340" height="53" viewBox="0 0 340 53" fill="none" xmlns="http://www.w3.org/2000/svg">
<path d="M14.6157 13.96H13.6557L13.1277 16.936C13.0077 17.584 12.7197 17.728 12.1197 17.728H5.71173V2.72799C5.71173 2.22399 5.90373 1.95999 6.28773 1.95999H7.87173V0.999992H1.07973V1.95999H2.66373C3.04773 1.95999 3.23973 2.22399 3.23973 2.72799V17.272C3.23973 17.776 3.04773 18.04 2.66373 18.04H1.07973V19H14.6157V13.96Z" fill="#233559"/>
<path d="M22.9396 18.136H21.6436C21.1876 18.136 21.0436 17.92 21.0436 17.368V6.23199H17.0116V7.09599H18.3076C18.7636 7.09599 18.9076 7.31199 18.9076 7.86399V17.368C18.9076 17.92 18.7636 18.136 18.3076 18.136H17.0116V19H22.9396V18.136ZM20.9716 0.999992H18.6916V3.37599H20.9716V0.999992Z" fill="#233559"/>
<path d="M30.6288 17.92C28.3968 17.92 27.0288 15.832 27.0288 12.472C27.0288 8.91999 28.5648 7.09599 30.6528 7.09599C32.5008 7.09599 33.8448 8.53599 33.8448 10.744H34.9248V7.07199C33.4608 6.35199 32.0208 5.99199 30.6528 5.99199C28.9008 5.99199 27.4608 6.56799 26.2848 7.71999C25.1088 8.87199 24.5088 10.504 24.5088 12.592C24.5088 14.536 25.0128 16.12 26.0448 17.392C27.0768 18.664 28.4688 19.288 30.2208 19.288C32.7888 19.288 34.7568 17.824 35.2368 14.728H34.1808C34.0128 15.88 33.5568 16.696 32.8608 17.176C32.1648 17.68 31.4208 17.92 30.6288 17.92Z" fill="#233559"/>
<path d="M42.6489 7.09599C44.5209 7.09599 45.4569 8.48799 45.4569 11.248H39.4089C39.6968 8.55999 40.8489 7.09599 42.6489 7.09599ZM47.7129 12.64C47.7369 12.472 47.7369 12.088 47.7369 11.44C47.7369 7.79199 45.6729 5.99199 42.6729 5.99199C40.8249 5.99199 39.3849 6.61599 38.4009 7.88799C37.4169 9.15999 36.9129 10.744 36.9129 12.64C36.9129 14.536 37.4169 16.096 38.4009 17.368C39.3849 18.64 40.7528 19.288 42.5289 19.288C45.0009 19.288 47.0169 17.992 47.5689 14.992H46.5129C46.1289 16.984 44.5929 17.92 42.9609 17.92C40.3209 17.872 39.2649 15.424 39.3369 13.072V12.64H47.7129Z" fill="#233559"/>
<path d="M69.5428 17.92C67.3108 17.92 65.9429 15.832 65.9429 12.472C65.9429 8.91999 67.4789 7.09599 69.5668 7.09599C71.4148 7.09599 72.7589 8.53599 72.7589 10.744H73.8389V7.07199C72.3749 6.35199 70.9349 5.99199 69.5668 5.99199C67.8148 5.99199 66.3749 6.56799 65.1989 7.71999C64.0229 8.87199 63.4229 10.504 63.4229 12.592C63.4229 14.536 63.9268 16.12 64.9588 17.392C65.9908 18.664 67.3829 19.288 69.1349 19.288C71.7029 19.288 73.6708 17.824 74.1508 14.728H73.0948C72.9268 15.88 72.4709 16.696 71.7749 17.176C71.0789 17.68 70.3348 17.92 69.5428 17.92Z" fill="#233559"/>
<path d="M81.6349 18.136H80.3389C79.8829 18.136 79.7389 17.92 79.7389 17.368V6.23199H75.7069V7.09599H77.0029C77.4589 7.09599 77.6029 7.31199 77.6029 7.86399V17.368C77.6029 17.92 77.4589 18.136 77.0029 18.136H75.7069V19H81.6349V18.136ZM79.6669 0.999992H77.3869V3.37599H79.6669V0.999992Z" fill="#233559"/>
<path d="M87.8361 17.656C86.6601 17.656 85.7721 16.864 85.7721 15.352C85.7721 13.816 86.6601 12.952 88.4601 12.736L91.4121 12.4V12.832C91.4121 14.152 91.0521 15.28 90.3561 16.216C89.6361 17.176 88.7961 17.656 87.8361 17.656ZM89.0361 5.99199C87.2841 5.99199 85.7241 6.37599 84.3081 7.14399V10.48H85.4121C85.6281 8.48799 87.1161 7.09599 88.9161 7.09599C90.4281 7.09599 91.4361 8.03199 91.4361 9.92799V11.224L87.0921 11.728C84.8601 11.992 83.4441 13.408 83.4441 15.496C83.4441 17.68 84.9081 19.288 87.0921 19.288C88.8921 19.288 90.5721 18.232 91.5081 16.12L92.4921 19H93.5721V9.71199C93.5721 7.04799 91.7001 5.99199 89.0361 5.99199Z" fill="#233559"/>
<path d="M101.924 17.68C99.9799 17.68 98.6839 16.072 98.6839 12.544C98.6839 9.18399 99.8359 7.26399 102.164 7.26399C103.988 7.26399 105.26 8.63199 105.26 11.632V12.712C105.26 16.048 103.82 17.68 101.924 17.68ZM109.052 18.136H107.996C107.54 18.136 107.396 17.92 107.396 17.368V0.999992H103.364V1.86399H104.66C105.116 1.86399 105.26 2.07999 105.26 2.63199V8.00799C104.804 6.85599 103.364 5.99199 101.804 5.99199C100.196 5.99199 98.8519 6.61599 97.7959 7.86399C96.7399 9.11199 96.2119 10.792 96.2119 12.904C96.2119 14.968 96.7159 16.552 97.7239 17.632C98.7079 18.736 99.9319 19.288 101.396 19.288C102.332 19.288 103.172 18.976 103.964 18.328C104.732 17.704 105.236 16.912 105.5 15.952V19H109.052V18.136Z" fill="#233559"/>
<path d="M114.883 17.656C113.707 17.656 112.819 16.864 112.819 15.352C112.819 13.816 113.707 12.952 115.507 12.736L118.459 12.4V12.832C118.459 14.152 118.099 15.28 117.403 16.216C116.683 17.176 115.843 17.656 114.883 17.656ZM116.083 5.99199C114.331 5.99199 112.771 6.37599 111.355 7.14399V10.48H112.459C112.675 8.48799 114.163 7.09599 115.963 7.09599C117.475 7.09599 118.483 8.03199 118.483 9.92799V11.224L114.139 11.728C111.907 11.992 110.491 13.408 110.491 15.496C110.491 17.68 111.955 19.288 114.139 19.288C115.939 19.288 117.619 18.232 118.555 16.12L119.539 19H120.619V9.71199C120.619 7.04799 118.747 5.99199 116.083 5.99199Z" fill="#233559"/>
<path d="M136.366 17.848C134.446 17.848 133.15 16.312 133.15 13.36V12.448C133.15 9.25599 134.662 7.62399 136.558 7.62399C138.55 7.62399 139.822 9.25599 139.822 12.616C139.822 15.88 138.646 17.848 136.366 17.848ZM137.134 5.99199C135.094 5.99199 133.486 7.26399 132.91 9.18399V6.23199H129.118V7.09599H130.414C130.87 7.09599 131.014 7.31199 131.014 7.86399V22.792C131.014 23.344 130.87 23.56 130.414 23.56H129.118V24.424H135.286V23.56H133.75C133.294 23.56 133.15 23.344 133.15 22.792V17.152C133.966 18.472 135.142 19.12 136.702 19.12C138.358 19.12 139.702 18.496 140.782 17.248C141.838 16.024 142.366 14.368 142.366 12.304C142.366 10.264 141.862 8.70399 140.854 7.62399C139.822 6.54399 138.598 5.99199 137.134 5.99199Z" fill="#233559"/>
<path d="M147.72 16.696C147.12 15.712 146.832 14.368 146.832 12.64C146.832 10.888 147.12 9.54399 147.72 8.55999C148.296 7.59999 149.184 7.11999 150.36 7.11999C151.536 7.11999 152.424 7.59999 153 8.55999C153.576 9.54399 153.864 10.888 153.864 12.64C153.864 14.392 153.576 15.736 153 16.696C152.424 17.68 151.536 18.16 150.36 18.16C149.184 18.16 148.296 17.68 147.72 16.696ZM145.896 7.91199C144.816 9.20799 144.288 10.792 144.288 12.64C144.288 14.488 144.816 16.072 145.896 17.344C146.976 18.64 148.464 19.288 150.36 19.288C152.256 19.288 153.744 18.64 154.824 17.344C155.88 16.072 156.408 14.488 156.408 12.64C156.408 10.792 155.88 9.20799 154.824 7.91199C153.744 6.63999 152.256 5.99199 150.36 5.99199C148.464 5.99199 146.976 6.63999 145.896 7.91199Z" fill="#233559"/>
<path d="M167.255 6.08799H166.151C164.231 6.08799 162.671 7.40799 162.119 9.83199V6.23199H158.327V7.09599H159.623C160.079 7.09599 160.223 7.31199 160.223 7.86399V17.368C160.223 17.92 160.079 18.136 159.623 18.136H158.327V19H164.495V18.136H162.959C162.503 18.136 162.359 17.92 162.359 17.368V12.136C162.359 9.42399 163.751 8.05599 166.559 8.05599H167.255V6.08799Z" fill="#233559"/>
<path d="M186.052 14.032C186.052 12.28 185.284 10.96 183.772 10.12C183.1 9.73599 181.828 9.27999 179.956 8.77599C178.636 8.41599 178.108 8.24799 177.196 7.67199C176.284 7.11999 175.852 6.25599 175.852 5.03199C175.852 3.08799 177.052 1.74399 179.332 1.74399C180.532 1.74399 181.564 2.07999 182.428 2.77599C183.268 3.47199 183.724 4.55199 183.772 5.96799H184.852V1.93599C182.956 1.02399 181.18 0.567993 179.5 0.567993C177.796 0.567993 176.356 0.999992 175.228 1.83999C174.076 2.67999 173.5 3.92799 173.5 5.55999C173.62 7.23999 174.028 8.31999 175.132 9.11199C175.54 9.42399 175.852 9.63999 176.116 9.78399C176.356 9.95199 176.74 10.12 177.292 10.312C177.82 10.528 178.18 10.648 178.396 10.696C178.588 10.768 178.972 10.864 179.524 11.032C182.38 11.872 183.772 12.688 183.772 14.728C183.772 15.856 183.364 16.72 182.548 17.32C181.732 17.92 180.748 18.232 179.572 18.232C178.204 18.232 177.076 17.8 176.188 16.936C175.276 16.096 174.82 14.824 174.82 13.12H173.74V17.776C175.564 18.904 177.46 19.456 179.404 19.456C181.18 19.456 182.74 19 184.06 18.088C185.38 17.176 186.052 15.832 186.052 14.032Z" fill="#233559"/>
<path d="M201.023 18.136H199.967C199.511 18.136 199.367 17.92 199.367 17.368V6.23199H195.551V7.09599H196.631C197.087 7.09599 197.231 7.31199 197.231 7.86399V13.672C197.231 14.8 196.943 15.76 196.367 16.504C195.767 17.272 195.047 17.656 194.183 17.656C192.623 17.656 191.543 16.72 191.543 14.8V6.23199H187.727V7.09599H188.807C189.263 7.09599 189.407 7.31199 189.407 7.86399V14.992C189.407 17.8 191.135 19.288 193.535 19.288H193.607C195.431 19.264 196.895 18.064 197.471 15.976V19H201.023V18.136Z" fill="#233559"/>
<path d="M217.064 18.136H215.768C215.312 18.136 215.168 17.92 215.168 17.368V10.288C215.168 7.47999 213.44 5.99199 211.04 5.99199H210.968C208.712 6.01599 207.296 7.19199 206.744 9.47199V6.23199H202.952V7.09599H204.248C204.704 7.09599 204.848 7.31199 204.848 7.86399V17.368C204.848 17.92 204.704 18.136 204.248 18.136H202.952V19H208.88V18.136H207.584C207.128 18.136 206.984 17.92 206.984 17.368V11.608C206.984 9.30399 208.352 7.62399 210.392 7.62399C211.952 7.62399 213.032 8.55999 213.032 10.48V17.368C213.032 17.92 212.888 18.136 212.432 18.136H211.136V19H217.064V18.136Z" fill="#233559"/>
<path d="M224.251 7.09599C226.123 7.09599 227.059 8.48799 227.059 11.248H221.011C221.299 8.55999 222.451 7.09599 224.251 7.09599ZM229.315 12.64C229.339 12.472 229.339 12.088 229.339 11.44C229.339 7.79199 227.275 5.99199 224.275 5.99199C222.427 5.99199 220.987 6.61599 220.003 7.88799C219.019 9.15999 218.515 10.744 218.515 12.64C218.515 14.536 219.019 16.096 220.003 17.368C220.987 18.64 222.355 19.288 224.131 19.288C226.603 19.288 228.619 17.992 229.171 14.992H228.115C227.731 16.984 226.195 17.92 224.563 17.92C221.923 17.872 220.867 15.424 220.939 13.072V12.64H229.315Z" fill="#233559"/>
<path d="M236.737 17.68C234.793 17.68 233.497 16.072 233.497 12.544C233.497 9.18399 234.649 7.26399 236.977 7.26399C238.801 7.26399 240.073 8.63199 240.073 11.632V12.712C240.073 16.048 238.633 17.68 236.737 17.68ZM243.865 18.136H242.809C242.353 18.136 242.209 17.92 242.209 17.368V0.999992H238.177V1.86399H239.473C239.929 1.86399 240.073 2.07999 240.073 2.63199V8.00799C239.617 6.85599 238.177 5.99199 236.617 5.99199C235.009 5.99199 233.665 6.61599 232.609 7.86399C231.553 9.11199 231.025 10.792 231.025 12.904C231.025 14.968 231.529 16.552 232.537 17.632C233.521 18.736 234.745 19.288 236.209 19.288C237.145 19.288 237.985 18.976 238.777 18.328C239.545 17.704 240.049 16.912 240.313 15.952V19H243.865V18.136Z" fill="#233559"/>
<path d="M258 18.136H256.944C256.488 18.136 256.344 17.92 256.344 17.368V6.23199H252.528V7.09599H253.608C254.064 7.09599 254.208 7.31199 254.208 7.86399V13.672C254.208 14.8 253.92 15.76 253.344 16.504C252.744 17.272 252.024 17.656 251.16 17.656C249.6 17.656 248.52 16.72 248.52 14.8V6.23199H244.704V7.09599H245.784C246.24 7.09599 246.384 7.31199 246.384 7.86399V14.992C246.384 17.8 248.112 19.288 250.512 19.288H250.584C252.408 19.264 253.872 18.064 254.448 15.976V19H258V18.136Z" fill="#233559"/>
<path d="M7.96773 45.848C6.04773 45.848 4.75173 44.312 4.75173 41.36V40.448C4.75173 37.256 6.26373 35.624 8.15973 35.624C10.1517 35.624 11.4237 37.256 11.4237 40.616C11.4237 43.88 10.2477 45.848 7.96773 45.848ZM8.73573 33.992C6.69573 33.992 5.08773 35.264 4.51173 37.184V34.232H0.719727V35.096H2.01573C2.47173 35.096 2.61573 35.312 2.61573 35.864V50.792C2.61573 51.344 2.47173 51.56 2.01573 51.56H0.719727V52.424H6.88773V51.56H5.35173C4.89573 51.56 4.75173 51.344 4.75173 50.792V45.152C5.56773 46.472 6.74373 47.12 8.30373 47.12C9.95973 47.12 11.3037 46.496 12.3837 45.248C13.4397 44.024 13.9677 42.368 13.9677 40.304C13.9677 38.264 13.4637 36.704 12.4557 35.624C11.4237 34.544 10.1997 33.992 8.73573 33.992Z" fill="#233559"/>
<path d="M20.2814 45.656C19.1054 45.656 18.2174 44.864 18.2174 43.352C18.2174 41.816 19.1054 40.952 20.9054 40.736L23.8574 40.4V40.832C23.8574 42.152 23.4974 43.28 22.8014 44.216C22.0814 45.176 21.2414 45.656 20.2814 45.656ZM21.4814 33.992C19.7294 33.992 18.1694 34.376 16.7534 35.144V38.48H17.8574C18.0734 36.488 19.5614 35.096 21.3614 35.096C22.8734 35.096 23.8814 36.032 23.8814 37.928V39.224L19.5374 39.728C17.3054 39.992 15.8894 41.408 15.8894 43.496C15.8894 45.68 17.3534 47.288 19.5374 47.288C21.3374 47.288 23.0174 46.232 23.9534 44.12L24.9374 47H26.0174V37.712C26.0174 35.048 24.1454 33.992 21.4814 33.992Z" fill="#233559"/>
<path d="M37.8252 34.088H36.7212C34.8012 34.088 33.2412 35.408 32.6892 37.832V34.232H28.8972V35.096H30.1932C30.6492 35.096 30.7932 35.312 30.7932 35.864V45.368C30.7932 45.92 30.6492 46.136 30.1932 46.136H28.8972V47H35.0652V46.136H33.5292C33.0732 46.136 32.9292 45.92 32.9292 45.368V40.136C32.9292 37.424 34.3212 36.056 37.1292 36.056H37.8252V34.088Z" fill="#233559"/>
<path d="M43.297 45.656C42.121 45.656 41.233 44.864 41.233 43.352C41.233 41.816 42.121 40.952 43.921 40.736L46.873 40.4V40.832C46.873 42.152 46.513 43.28 45.817 44.216C45.097 45.176 44.257 45.656 43.297 45.656ZM44.497 33.992C42.745 33.992 41.185 34.376 39.769 35.144V38.48H40.873C41.089 36.488 42.577 35.096 44.377 35.096C45.889 35.096 46.897 36.032 46.897 37.928V39.224L42.553 39.728C40.321 39.992 38.905 41.408 38.905 43.496C38.905 45.68 40.369 47.288 42.553 47.288C44.353 47.288 46.033 46.232 46.969 44.12L47.953 47H49.033V37.712C49.033 35.048 47.161 33.992 44.497 33.992Z" fill="#233559"/>
<path d="M65.549 40.592C65.549 43.832 64.109 45.464 62.213 45.464C60.221 45.464 58.973 43.856 58.973 40.424C58.973 37.16 60.125 35.264 62.453 35.264C64.277 35.264 65.549 36.584 65.549 39.536V40.592ZM69.581 51.56H68.285C67.829 51.56 67.685 51.344 67.685 50.792V34.232H66.365L65.813 36.368C65.309 34.856 63.845 33.992 62.093 33.992C60.485 33.992 59.141 34.616 58.085 35.84C57.029 37.064 56.501 38.72 56.501 40.808C56.501 42.824 57.005 44.36 58.013 45.44C58.997 46.52 60.221 47.072 61.685 47.072C63.317 47.072 64.853 46.184 65.549 44.72V50.792C65.549 51.344 65.405 51.56 64.949 51.56H63.173V52.424H69.581V51.56Z" fill="#233559"/>
<path d="M83.476 46.136H82.42C81.964 46.136 81.82 45.92 81.82 45.368V34.232H78.004V35.096H79.084C79.54 35.096 79.684 35.312 79.684 35.864V41.672C79.684 42.8 79.396 43.76 78.82 44.504C78.22 45.272 77.5 45.656 76.636 45.656C75.076 45.656 73.996 44.72 73.996 42.8V34.232H70.18V35.096H71.26C71.716 35.096 71.86 35.312 71.86 35.864V42.992C71.86 45.8 73.588 47.288 75.988 47.288H76.06C77.884 47.264 79.348 46.064 79.924 43.976V47H83.476V46.136Z" fill="#233559"/>
<path d="M91.141 35.096C93.013 35.096 93.949 36.488 93.949 39.248H87.901C88.189 36.56 89.341 35.096 91.141 35.096ZM96.205 40.64C96.229 40.472 96.229 40.088 96.229 39.44C96.229 35.792 94.165 33.992 91.165 33.992C89.317 33.992 87.877 34.616 86.893 35.888C85.909 37.16 85.405 38.744 85.405 40.64C85.405 42.536 85.909 44.096 86.893 45.368C87.877 46.64 89.245 47.288 91.021 47.288C93.493 47.288 95.509 45.992 96.061 42.992H95.005C94.621 44.984 93.085 45.92 91.453 45.92C88.813 45.872 87.757 43.424 87.829 41.072V40.64H96.205Z" fill="#233559"/>
<path d="M110.46 45.848C108.54 45.848 107.244 44.312 107.244 41.36V40.448C107.244 37.256 108.756 35.624 110.652 35.624C112.644 35.624 113.916 37.256 113.916 40.616C113.916 43.88 112.74 45.848 110.46 45.848ZM111.228 33.992C109.188 33.992 107.58 35.264 107.004 37.184V34.232H103.212V35.096H104.508C104.964 35.096 105.108 35.312 105.108 35.864V50.792C105.108 51.344 104.964 51.56 104.508 51.56H103.212V52.424H109.38V51.56H107.844C107.388 51.56 107.244 51.344 107.244 50.792V45.152C108.06 46.472 109.236 47.12 110.796 47.12C112.452 47.12 113.796 46.496 114.876 45.248C115.932 44.024 116.46 42.368 116.46 40.304C116.46 38.264 115.956 36.704 114.948 35.624C113.916 34.544 112.692 33.992 111.228 33.992Z" fill="#233559"/>
<path d="M130.843 46.136H129.787C129.331 46.136 129.187 45.92 129.187 45.368V34.232H125.371V35.096H126.451C126.907 35.096 127.051 35.312 127.051 35.864V41.672C127.051 42.8 126.763 43.76 126.187 44.504C125.587 45.272 124.867 45.656 124.003 45.656C122.443 45.656 121.363 44.72 121.363 42.8V34.232H117.547V35.096H118.627C119.083 35.096 119.227 35.312 119.227 35.864V42.992C119.227 45.8 120.955 47.288 123.355 47.288H123.427C125.251 47.264 126.715 46.064 127.291 43.976V47H130.843V46.136Z" fill="#233559"/>
<path d="M138.508 35.096C140.38 35.096 141.316 36.488 141.316 39.248H135.268C135.556 36.56 136.708 35.096 138.508 35.096ZM143.572 40.64C143.596 40.472 143.596 40.088 143.596 39.44C143.596 35.792 141.532 33.992 138.532 33.992C136.684 33.992 135.244 34.616 134.26 35.888C133.276 37.16 132.772 38.744 132.772 40.64C132.772 42.536 133.276 44.096 134.26 45.368C135.244 46.64 136.612 47.288 138.388 47.288C140.86 47.288 142.876 45.992 143.428 42.992H142.372C141.988 44.984 140.452 45.92 138.82 45.92C136.18 45.872 135.124 43.424 135.196 41.072V40.64H143.572Z" fill="#233559"/>
<path d="M150.994 45.68C149.05 45.68 147.754 44.072 147.754 40.544C147.754 37.184 148.906 35.264 151.234 35.264C153.058 35.264 154.33 36.632 154.33 39.632V40.712C154.33 44.048 152.89 45.68 150.994 45.68ZM158.122 46.136H157.066C156.61 46.136 156.466 45.92 156.466 45.368V29H152.434V29.864H153.73C154.186 29.864 154.33 30.08 154.33 30.632V36.008C153.874 34.856 152.434 33.992 150.874 33.992C149.266 33.992 147.922 34.616 146.866 35.864C145.81 37.112 145.282 38.792 145.282 40.904C145.282 42.968 145.786 44.552 146.794 45.632C147.778 46.736 149.002 47.288 150.466 47.288C151.402 47.288 152.242 46.976 153.034 46.328C153.802 45.704 154.306 44.912 154.57 43.952V47H158.122V46.136Z" fill="#233559"/>
<path d="M163.953 45.656C162.777 45.656 161.889 44.864 161.889 43.352C161.889 41.816 162.777 40.952 164.577 40.736L167.529 40.4V40.832C167.529 42.152 167.169 43.28 166.473 44.216C165.753 45.176 164.913 45.656 163.953 45.656ZM165.153 33.992C163.401 33.992 161.841 34.376 160.425 35.144V38.48H161.529C161.745 36.488 163.233 35.096 165.033 35.096C166.545 35.096 167.553 36.032 167.553 37.928V39.224L163.209 39.728C160.977 39.992 159.561 41.408 159.561 43.496C159.561 45.68 161.025 47.288 163.209 47.288C165.009 47.288 166.689 46.232 167.625 44.12L168.609 47H169.689V37.712C169.689 35.048 167.817 33.992 165.153 33.992Z" fill="#233559"/>
<path d="M178.305 39.776C177.753 39.632 177.369 39.512 177.129 39.44C176.889 39.368 176.577 39.272 176.217 39.128C175.185 38.72 174.873 38.24 174.753 37.232C174.753 35.816 175.929 35.12 177.393 35.12C178.257 35.12 179.025 35.36 179.673 35.84C180.321 36.344 180.657 37.016 180.657 37.88H181.761V34.928C180.321 34.304 178.905 33.992 177.513 33.992C176.169 33.992 175.041 34.28 174.153 34.856C173.265 35.432 172.809 36.344 172.809 37.592C172.809 38.984 173.457 40.016 174.753 40.688C175.233 40.952 176.193 41.264 177.657 41.648C179.553 42.128 180.489 42.704 180.489 43.952C180.489 45.296 179.217 46.16 177.657 46.16C175.665 46.16 174.033 44.864 174.033 42.344H172.929V45.896C174.249 46.832 175.785 47.288 177.537 47.288C178.929 47.288 180.105 46.952 181.065 46.304C182.025 45.656 182.505 44.72 182.505 43.448C182.505 42.272 182.121 41.456 181.209 40.904C180.297 40.352 179.721 40.16 178.305 39.776Z" fill="#233559"/>
<path d="M194.875 39.776C194.323 39.632 193.939 39.512 193.699 39.44C193.459 39.368 193.147 39.272 192.787 39.128C191.755 38.72 191.443 38.24 191.323 37.232C191.323 35.816 192.499 35.12 193.963 35.12C194.827 35.12 195.595 35.36 196.243 35.84C196.891 36.344 197.227 37.016 197.227 37.88H198.331V34.928C196.891 34.304 195.475 33.992 194.083 33.992C192.739 33.992 191.611 34.28 190.723 34.856C189.835 35.432 189.379 36.344 189.379 37.592C189.379 38.984 190.027 40.016 191.323 40.688C191.803 40.952 192.763 41.264 194.227 41.648C196.123 42.128 197.059 42.704 197.059 43.952C197.059 45.296 195.787 46.16 194.227 46.16C192.235 46.16 190.603 44.864 190.603 42.344H189.499V45.896C190.819 46.832 192.355 47.288 194.107 47.288C195.499 47.288 196.675 46.952 197.635 46.304C198.595 45.656 199.075 44.72 199.075 43.448C199.075 42.272 198.691 41.456 197.779 40.904C196.867 40.352 196.291 40.16 194.875 39.776Z" fill="#233559"/>
<path d="M205.508 45.656C204.332 45.656 203.444 44.864 203.444 43.352C203.444 41.816 204.332 40.952 206.132 40.736L209.084 40.4V40.832C209.084 42.152 208.724 43.28 208.028 44.216C207.308 45.176 206.468 45.656 205.508 45.656ZM206.708 33.992C204.956 33.992 203.396 34.376 201.98 35.144V38.48H203.084C203.3 36.488 204.788 35.096 206.588 35.096C208.1 35.096 209.108 36.032 209.108 37.928V39.224L204.764 39.728C202.532 39.992 201.116 41.408 201.116 43.496C201.116 45.68 202.58 47.288 204.764 47.288C206.564 47.288 208.244 46.232 209.18 44.12L210.164 47H211.244V37.712C211.244 35.048 209.372 33.992 206.708 33.992Z" fill="#233559"/>
<path d="M219.932 46.136H218.636C218.18 46.136 218.036 45.92 218.036 45.368V29H214.004V29.864H215.3C215.756 29.864 215.9 30.08 215.9 30.632V45.368C215.9 45.92 215.756 46.136 215.3 46.136H214.004V47H219.932V46.136Z" fill="#233559"/>
<path d="M227.549 46.136H226.253C225.797 46.136 225.653 45.92 225.653 45.368V34.232H221.621V35.096H222.917C223.373 35.096 223.517 35.312 223.517 35.864V45.368C223.517 45.92 223.373 46.136 222.917 46.136H221.621V47H227.549V46.136ZM225.581 29H223.301V31.376H225.581V29Z" fill="#233559"/>
<path d="M238.286 34.088H237.182C235.262 34.088 233.702 35.408 233.15 37.832V34.232H229.358V35.096H230.654C231.11 35.096 231.254 35.312 231.254 35.864V45.368C231.254 45.92 231.11 46.136 230.654 46.136H229.358V47H235.526V46.136H233.99C233.534 46.136 233.39 45.92 233.39 45.368V40.136C233.39 37.424 234.782 36.056 237.59 36.056H238.286V34.088Z" fill="#233559"/>
<path d="M248.563 45.656C247.387 45.656 246.499 44.864 246.499 43.352C246.499 41.816 247.387 40.952 249.187 40.736L252.139 40.4V40.832C252.139 42.152 251.779 43.28 251.083 44.216C250.363 45.176 249.523 45.656 248.563 45.656ZM249.763 33.992C248.011 33.992 246.451 34.376 245.035 35.144V38.48H246.139C246.355 36.488 247.843 35.096 249.643 35.096C251.155 35.096 252.163 36.032 252.163 37.928V39.224L247.819 39.728C245.587 39.992 244.171 41.408 244.171 43.496C244.171 45.68 245.635 47.288 247.819 47.288C249.619 47.288 251.299 46.232 252.235 44.12L253.219 47H254.299V37.712C254.299 35.048 252.427 33.992 249.763 33.992Z" fill="#233559"/>
<path d="M262.65 45.68C260.706 45.68 259.41 44.072 259.41 40.544C259.41 37.184 260.562 35.264 262.89 35.264C264.714 35.264 265.986 36.632 265.986 39.632V40.712C265.986 44.048 264.546 45.68 262.65 45.68ZM269.778 46.136H268.722C268.266 46.136 268.122 45.92 268.122 45.368V29H264.09V29.864H265.386C265.842 29.864 265.986 30.08 265.986 30.632V36.008C265.53 34.856 264.09 33.992 262.53 33.992C260.922 33.992 259.578 34.616 258.522 35.864C257.466 37.112 256.938 38.792 256.938 40.904C256.938 42.968 257.442 44.552 258.45 45.632C259.434 46.736 260.658 47.288 262.122 47.288C263.058 47.288 263.898 46.976 264.69 46.328C265.458 45.704 265.962 44.912 266.226 43.952V47H269.778V46.136Z" fill="#233559"/>
<path d="M276.954 35.096C278.826 35.096 279.762 36.488 279.762 39.248H273.714C274.002 36.56 275.154 35.096 276.954 35.096ZM282.018 40.64C282.042 40.472 282.042 40.088 282.042 39.44C282.042 35.792 279.978 33.992 276.978 33.992C275.13 33.992 273.69 34.616 272.706 35.888C271.722 37.16 271.218 38.744 271.218 40.64C271.218 42.536 271.722 44.096 272.706 45.368C273.69 46.64 275.058 47.288 276.834 47.288C279.306 47.288 281.322 45.992 281.874 42.992H280.818C280.434 44.984 278.898 45.92 277.266 45.92C274.626 45.872 273.57 43.424 273.642 41.072V40.64H282.018Z" fill="#233559"/>
<path d="M289.776 46.136H288.48C288.024 46.136 287.88 45.92 287.88 45.368V29H283.848V29.864H285.144C285.6 29.864 285.744 30.08 285.744 30.632V45.368C285.744 45.92 285.6 46.136 285.144 46.136H283.848V47H289.776V46.136Z" fill="#233559"/>
<path d="M295.977 45.656C294.801 45.656 293.913 44.864 293.913 43.352C293.913 41.816 294.801 40.952 296.601 40.736L299.553 40.4V40.832C299.553 42.152 299.193 43.28 298.497 44.216C297.777 45.176 296.937 45.656 295.977 45.656ZM297.177 33.992C295.425 33.992 293.865 34.376 292.449 35.144V38.48H293.553C293.769 36.488 295.257 35.096 297.057 35.096C298.569 35.096 299.577 36.032 299.577 37.928V39.224L295.233 39.728C293.001 39.992 291.585 41.408 291.585 43.496C291.585 45.68 293.049 47.288 295.233 47.288C297.033 47.288 298.713 46.232 299.649 44.12L300.633 47H301.713V37.712C301.713 35.048 299.841 33.992 297.177 33.992Z" fill="#233559"/>
<path d="M318.705 46.136H317.409C316.953 46.136 316.809 45.92 316.809 45.368V38.288C316.809 35.48 315.081 33.992 312.681 33.992H312.609C310.353 34.016 308.937 35.192 308.385 37.472V34.232H304.593V35.096H305.889C306.345 35.096 306.489 35.312 306.489 35.864V45.368C306.489 45.92 306.345 46.136 305.889 46.136H304.593V47H310.521V46.136H309.225C308.769 46.136 308.625 45.92 308.625 45.368V39.608C308.625 37.304 309.993 35.624 312.033 35.624C313.593 35.624 314.673 36.56 314.673 38.48V45.368C314.673 45.92 314.529 46.136 314.073 46.136H312.777V47H318.705V46.136Z" fill="#233559"/>
<path d="M327.571 45.608H325.963C325.123 45.608 324.571 45.416 324.379 44.96C324.163 44.504 324.115 44.216 324.115 43.568V35.624H327.283V34.232H324.115V30.824L321.979 31.424V34.232H319.435V35.624H321.979V43.568C321.979 45.848 322.987 47 324.979 47H327.571V45.608Z" fill="#233559"/>
<path d="M334.75 35.096C336.622 35.096 337.558 36.488 337.558 39.248H331.51C331.798 36.56 332.95 35.096 334.75 35.096ZM339.814 40.64C339.838 40.472 339.838 40.088 339.838 39.44C339.838 35.792 337.774 33.992 334.774 33.992C332.926 33.992 331.486 34.616 330.502 35.888C329.518 37.16 329.014 38.744 329.014 40.64C329.014 42.536 329.518 44.096 330.502 45.368C331.486 46.64 332.854 47.288 334.63 47.288C337.102 47.288 339.118 45.992 339.67 42.992H338.614C338.23 44.984 336.694 45.92 335.062 45.92C332.422 45.872 331.366 43.424 331.438 41.072V40.64H339.814Z" fill="#233559"/>
<path d="M62.9998 18.136H61.7038C61.2477 18.136 61.1037 17.92 61.1037 17.368V10.288C61.1037 7.47999 59.3758 5.99199 56.9758 5.99199H56.9037C54.6477 6.01599 53.2318 7.19199 52.6797 9.47199V6.23199H48.8878V7.09599H50.1837C50.6397 7.09599 50.7838 7.31199 50.7838 7.86399V17.368C50.7838 17.92 50.6397 18.136 50.1837 18.136H48.8878V19H54.8158V18.136H53.5197C53.0637 18.136 52.9198 17.92 52.9198 17.368V11.608C52.9198 9.30399 54.2878 7.62399 56.3278 7.62399C57.8878 7.62399 58.9678 8.55999 58.9678 10.48V17.368C58.9678 17.92 58.8238 18.136 58.3678 18.136H57.0717V19H62.9998V18.136Z" fill="#233559"/>
</svg>
