<svg width="483" height="210" viewBox="0 0 483 210" fill="none" xmlns="http://www.w3.org/2000/svg">
<g clip-path="url(#clip0)">
<path d="M8.18321 0.255615H0V127.479H8.18321V0.255615Z" fill="#E20511"/>
<path d="M18.4119 0.255615H10.6123V127.479H18.4119V0.255615Z" fill="#E20511"/>
<path d="M28.5132 0.255615H21.0972V127.479H28.5132V0.255615Z" fill="#E20511"/>
<path d="M38.6141 0.255615H31.7095V127.479H38.6141V0.255615Z" fill="#E20511"/>
<path d="M48.8428 0.255615H42.3218V127.479H48.8428V0.255615Z" fill="#E20511"/>
<path d="M58.9445 0.127808H52.8071V127.351H58.9445V0.127808Z" fill="#E20511"/>
<path d="M69.0454 0.127808H63.4194V127.351H69.0454V0.127808Z" fill="#E20511"/>
<path d="M79.2751 0.127808H74.0327V127.351H79.2751V0.127808Z" fill="#E20511"/>
<path d="M89.3754 0.127808H84.5166V127.351H89.3754V0.127808Z" fill="#E20511"/>
<path d="M99.6056 0.127808H95.1304V127.351H99.6056V0.127808Z" fill="#E20511"/>
<path d="M109.706 0H105.743V127.223H109.706V0Z" fill="#E20511"/>
<path d="M119.808 0H116.228V127.223H119.808V0Z" fill="#E20511"/>
<path d="M130.036 0H126.84V127.223H130.036V0Z" fill="#E20511"/>
<path d="M140.137 0H137.452V127.223H140.137V0Z" fill="#E20511"/>
<path d="M277.462 89.3759H269.278V178.624H277.462V89.3759Z" fill="#E30613"/>
<path d="M266.977 89.3759H259.178V178.624H266.977V89.3759Z" fill="#E30613"/>
<path d="M256.492 89.3759H249.076V178.624H256.492V89.3759Z" fill="#E30613"/>
<path d="M245.752 89.3759H238.847V178.624H245.752V89.3759Z" fill="#E30613"/>
<path d="M235.268 89.3759H228.747V178.624H235.268V89.3759Z" fill="#E30613"/>
<path d="M224.782 89.3759H218.645V178.624H224.782V89.3759Z" fill="#E30613"/>
<path d="M214.042 89.248H208.416V178.496H214.042V89.248Z" fill="#E30613"/>
<path d="M203.557 89.248H198.314V178.496H203.557V89.248Z" fill="#E30613"/>
<path d="M192.944 89.248H188.085V178.496H192.944V89.248Z" fill="#E30613"/>
<path d="M182.46 89.248H177.985V178.496H182.46V89.248Z" fill="#E30613"/>
<path d="M171.847 89.248H167.883V178.496H171.847V89.248Z" fill="#E30613"/>
<path d="M161.234 89.248H157.654V178.496H161.234V89.248Z" fill="#E30613"/>
<path d="M150.75 89.248H147.554V178.496H150.75V89.248Z" fill="#E30613"/>
<path d="M140.137 89.1201H137.452V178.368H140.137V89.1201Z" fill="#E30613"/>
<path d="M215.96 178.752H207.777V268H215.96V178.752Z" fill="#233559"/>
<path d="M205.22 178.624H197.804V267.872H205.22V178.624Z" fill="#233559"/>
<path d="M194.351 178.624H187.702V267.872H194.351V178.624Z" fill="#233559"/>
<path d="M183.483 178.624H177.602V267.872H183.483V178.624Z" fill="#233559"/>
<path d="M172.742 178.496H167.627V267.744H172.742V178.496Z" fill="#233559"/>
<path d="M161.874 178.496H157.527V267.744H161.874V178.496Z" fill="#233559"/>
<path d="M151.005 178.496H147.425V267.744H151.005V178.496Z" fill="#233559"/>
<path d="M140.137 178.496H137.452V267.744H140.137V178.496Z" fill="#233559"/>
<path d="M277.462 0H269.278V89.2481H277.462V0Z" fill="#233559"/>
<path d="M287.562 0H280.146V89.2481H287.562V0Z" fill="#233559"/>
<path d="M297.536 0.127808H290.887V89.3759H297.536V0.127808Z" fill="#233559"/>
<path d="M307.638 0.127808H301.756V89.3759H307.638V0.127808Z" fill="#233559"/>
<path d="M317.739 0.127808H312.624V89.3759H317.739V0.127808Z" fill="#233559"/>
<path d="M327.84 0.127808H323.492V89.3759H327.84V0.127808Z" fill="#233559"/>
<path d="M337.812 0.255615H334.232V89.5037H337.812V0.255615Z" fill="#233559"/>
<path d="M347.786 0.255615H345.101V89.5037H347.786V0.255615Z" fill="#233559"/>
</g>
<defs>
<clipPath id="clip0">
<rect width="482.7" height="209.6" fill="white"/>
</clipPath>
</defs>
</svg>
