<svg width="36" height="34" viewBox="0 0 36 34" fill="none" xmlns="http://www.w3.org/2000/svg">
<path d="M1.54 17.23C1.84 17.23 2.08 16.99 2.08 16.69V11.75C2.08 11.21 2.31 10.67 2.68 10.37C2.69 10.36 3.58 9.63999 4.85 8.91999C5.9 8.31999 6.89 8.32999 8.06 8.92999C8.26 9.02999 8.46 9.12999 8.64 9.20999C9.59 9.66999 9.99 9.84999 9.99 10.7V18.19C9.99 18.38 10.09 18.56 10.26 18.66L15.24 21.52L15.99 27.99C16.02 28.26 16.25 28.47 16.55 28.47C16.71 28.45 16.85 28.38 16.95 28.26C17.04 28.15 17.08 28.01 17.06 27.87L16.28 21.13C16.26 20.96 16.16 20.81 16.01 20.72L11.07 17.88V14.61L14.76 16.65C15.02 16.79 15.35 16.7 15.49 16.44C15.63 16.18 15.54 15.85 15.28 15.71L11.07 13.38V10.7C11.07 9.16999 10.12 8.71999 9.11 8.23999C8.93 8.15999 8.75 8.06999 8.56 7.96999C7.04 7.18999 5.69 7.18999 4.31 7.97999C2.95 8.75999 2 9.52999 1.99 9.53999C1.38 10.05 1 10.9 1 11.75V16.69C1 16.99 1.24 17.23 1.54 17.23Z" fill="#E20511" stroke="#E20511" stroke-width="0.3"/>
<path d="M12.9498 28.0002C12.9898 28.2602 13.1998 28.4502 13.5198 28.4602C13.6898 28.4402 13.8298 28.3602 13.9198 28.2402C13.9998 28.1302 14.0398 27.9902 14.0198 27.8402L13.2898 22.9702C13.2598 22.7802 13.1298 22.6202 12.9498 22.5502L7.13984 20.3102C6.81984 20.1702 6.56984 19.9602 6.33984 19.6402L6.28984 19.5702C5.97984 19.0902 5.82984 18.4802 5.82984 17.7402V10.7002C5.82984 10.4002 5.58984 10.1602 5.28984 10.1602C4.98984 10.1602 4.74984 10.4002 4.74984 10.7002V17.7402C4.74984 18.5502 4.89984 19.2602 5.19984 19.8602L5.23984 19.9402L1.08984 32.2402C1.03984 32.3802 1.04984 32.5202 1.11984 32.6502C1.17984 32.7802 1.28984 32.8802 1.46984 32.9302L1.59984 32.9502C1.82984 32.9502 2.03984 32.8002 2.10984 32.5802L6.03984 20.9102L6.25984 21.0602C6.40984 21.1502 6.55984 21.2302 6.72984 21.3102L8.10984 21.8402L4.08984 32.2202C3.97984 32.5002 4.11984 32.8102 4.39984 32.9202C4.66984 33.0202 4.98984 32.8902 5.09984 32.6102L9.12984 22.2302L12.2698 23.4402L12.9498 28.0002Z" fill="#E20511" stroke="#E20511" stroke-width="0.3"/>
<path d="M9.83977 7.66C11.6798 7.66 13.1698 6.17 13.1698 4.33C13.1698 2.49 11.6698 1 9.83977 1C8.00977 1 6.50977 2.49 6.50977 4.33C6.50977 6.17 7.99977 7.66 9.83977 7.66ZM9.83977 6.66C8.54977 6.66 7.50977 5.61 7.50977 4.33C7.49977 3.04 8.54977 2 9.83977 2C11.1298 2 12.1698 3.05 12.1698 4.33C12.1698 5.62 11.1198 6.66 9.83977 6.66Z" fill="#E20511" stroke="#E20511" stroke-width="0.3"/>
<path d="M35.24 13.73H27.75C27.45 13.73 27.21 13.97 27.21 14.27V21.22H20.26C19.96 21.22 19.72 21.46 19.72 21.76V28.71H12.02C11.72 28.71 11.48 28.95 11.48 29.25V32.99C11.48 33.29 11.72 33.53 12.02 33.53C12.32 33.53 12.56 33.29 12.56 32.99V29.78H20.26C20.56 29.78 20.8 29.54 20.8 29.24V22.3H27.75C28.05 22.3 28.29 22.06 28.29 21.76V14.81H35.24C35.54 14.81 35.78 14.57 35.78 14.27C35.78 13.97 35.54 13.73 35.24 13.73Z" fill="#E20511" stroke="#E20511" stroke-width="0.3"/>
</svg>
