<svg width="35" height="38" viewBox="0 0 35 38" fill="none" xmlns="http://www.w3.org/2000/svg">
<path d="M17.04 35.4C18.07 34.21 17.85 32.62 17.84 32.55C17.8 32.25 17.55 32.03 17.25 32.03H11.63L7.59 27.19C7.48 27.05 7.31 26.97 7.13 26.97H3.76C1.62 26.98 0 28.68 0 30.95V37.69H1.2V30.95C1.2 29.34 2.28 28.18 3.76 28.18H6.85L10.89 33.02C11 33.16 11.17 33.24 11.35 33.24H16.66C16.63 33.64 16.51 34.19 16.13 34.62C15.67 35.14 14.92 35.41 13.88 35.41H9.08L5.99 32.22L5.13 33.05L8.2 36.22V36.61H8.83H13.89H32.65V35.41H17.02C17.03 35.4 17.03 35.4 17.04 35.4Z" fill="#E20511"/>
<path d="M5.24014 25.65C7.66014 25.65 9.63014 23.76 9.63014 21.44V20.24C9.63014 17.92 7.66014 16.03 5.24014 16.03C2.82014 16.03 0.850136 17.92 0.850136 20.24V21.44C0.840136 23.76 2.81014 25.65 5.24014 25.65ZM2.04014 20.23C2.04014 18.57 3.47014 17.22 5.23014 17.22C6.99014 17.22 8.42014 18.57 8.42014 20.23V21.43C8.42014 23.09 6.99014 24.44 5.23014 24.44C3.47014 24.44 2.04014 23.09 2.04014 21.43V20.23Z" fill="#E20511"/>
<path d="M33.2599 22.76H18.0899C17.8399 22.76 17.6199 22.91 17.5299 23.14L14.9399 29.88L16.0599 30.31L18.4999 23.95H32.3799L28.8099 32.87H19.9899V34.07H29.2199C29.4699 34.07 29.6899 33.92 29.7799 33.69L33.8299 23.57C33.8999 23.39 33.8799 23.18 33.7699 23.01C33.6499 22.86 33.4599 22.76 33.2599 22.76Z" fill="#E20511"/>
<path d="M26.7401 8.42993H16.6201V9.62993H26.7401V8.42993Z" fill="#E20511"/>
<path d="M26.7401 5.06006H16.6201V6.26006H26.7401V5.06006Z" fill="#E20511"/>
<path d="M22.5201 11.8H16.6201V13H22.5201V11.8Z" fill="#E20511"/>
<path d="M11.3601 18.7C11.1901 19.25 11.3201 19.86 11.7001 20.24C11.9301 20.47 12.2101 20.59 12.5101 20.59C12.6201 20.59 12.7301 20.57 12.8401 20.54C14.9801 19.88 16.7801 18.88 18.2101 17.57C19.4801 17.9 20.7801 18.06 22.1001 18.06C28.7101 18.06 34.0801 14.01 34.0801 9.03C34.0801 4.05 28.7001 0 22.1001 0C15.5001 0 10.1201 4.05 10.1201 9.03C10.1201 10.99 10.9301 12.84 12.4801 14.41C12.2301 15.86 11.7701 17.39 11.3601 18.7ZM11.3201 9.03C11.3201 4.71 16.1601 1.2 22.1001 1.2C28.0401 1.2 32.8801 4.71 32.8801 9.03C32.8801 13.35 28.0401 16.86 22.1001 16.86C20.7801 16.86 19.4701 16.68 18.2101 16.32L17.8801 16.23L17.6301 16.47C16.3001 17.77 14.5701 18.75 12.5701 19.4C12.5301 19.37 12.4601 19.23 12.5101 19.06C12.9701 17.61 13.4701 15.91 13.7201 14.29L13.7701 13.98L13.5401 13.76C12.0801 12.38 11.3201 10.75 11.3201 9.03Z" fill="#E20511"/>
</svg>
