<svg width="33" height="34" viewBox="0 0 33 34" fill="none" xmlns="http://www.w3.org/2000/svg">
<path d="M24.97 15.47C24.68 15.47 24.47 15.67 24.47 15.94V31.58C24.47 31.97 24.15 32.28 23.77 32.28H2.7C2.31 32.28 2 31.96 2 31.58V9.82H8.12C9.06 9.82 9.82 9.06 9.82 8.12V2H23.76C24.15 2 24.46 2.32 24.46 2.7V3.9C24.46 4.17 24.67 4.37 24.96 4.37C25.24 4.37 25.46 4.17 25.46 3.9V2.7C25.46 1.76 24.7 1 23.76 1H9.92C9.13 1 8.07 1.44 7.52 2L2 7.52C1.44 8.07 1 9.13 1 9.92V31.58C1 32.52 1.76 33.28 2.7 33.28H23.76C24.7 33.28 25.46 32.52 25.46 31.58V15.94C25.46 15.67 25.25 15.47 24.97 15.47ZM8.82 8.12C8.82 8.51 8.5 8.82 8.12 8.82H2.29L2.38 8.67C2.49 8.48 2.6 8.33 2.7 8.22L8.22 2.7C8.33 2.6 8.48 2.49 8.67 2.38L8.82 2.29V8.12Z" fill="#E20511" stroke="#E20511" stroke-width="0.3"/>
<path d="M27.1201 5.36008C26.9301 5.17008 26.6101 5.17008 26.4201 5.35008L13.1901 17.9901L11.2601 22.9901C11.1901 23.1801 11.2401 23.4001 11.3901 23.5301C11.4801 23.6101 11.6001 23.6601 11.7301 23.6601H11.8101L16.7701 21.2001L29.5301 8.47008C29.6201 8.38008 29.6801 8.25008 29.6801 8.12008C29.6801 7.99008 29.6301 7.86008 29.5301 7.77008L27.1201 5.36008ZM28.4701 8.12008L16.1801 20.3801L12.6501 22.1401L14.0301 18.5601L26.7601 6.41008L28.4701 8.12008Z" fill="#E20511" stroke="#E20511" stroke-width="0.3"/>
<path d="M29.6999 2.17993H29.4899L27.2399 4.42993L27.1899 4.47993L30.2999 7.59993L32.4999 5.39993L32.5999 5.21993V5.08993C32.6099 2.21993 29.8199 2.17993 29.6999 2.17993ZM31.5999 4.88993L30.2999 6.18993L28.5999 4.48993L29.8899 3.19993L29.9399 3.20993C30.9099 3.32993 31.5099 3.92993 31.5899 4.84993L31.5999 4.88993Z" fill="#E20511" stroke="#E20511" stroke-width="0.3"/>
</svg>
