<svg width="51" height="34" viewBox="0 0 51 34" fill="none" xmlns="http://www.w3.org/2000/svg">
<path d="M48.22 21.69L47.94 21.62V11.88L48.09 11.77C48.52 11.45 48.61 11.09 48.61 10.85C48.61 10.49 48.42 9.98 47.53 9.63L26.76 1.32C26.24 1.11 25.55 1 24.8 1C24.05 1 23.36 1.11 22.84 1.32L2.07 9.63C1.19 9.98 1 10.49 1 10.85C1 11.21 1.19 11.72 2.08 12.07L10.13 15.29V26.83C10.13 26.99 10.19 27.14 10.31 27.24C14.24 30.93 19.39 32.97 24.81 32.97C30.23 32.97 35.37 30.94 39.3 27.25C39.41 27.14 39.48 26.99 39.48 26.84V15.3L46.81 12.37V21.62L46.53 21.69C45.03 22.08 43.99 23.42 43.99 24.96C43.99 26.83 45.51 28.35 47.38 28.35C49.25 28.35 50.77 26.83 50.77 24.96C50.76 23.42 49.71 22.08 48.22 21.69ZM11.26 15.75L22.84 20.38C23.9 20.8 25.69 20.8 26.75 20.38L38.33 15.75V26.59L38.21 26.7C34.51 30.03 29.75 31.87 24.79 31.87C19.83 31.87 15.07 30.03 11.37 26.7L11.25 26.59V15.75H11.26ZM24.8 19.57C24.2 19.57 23.64 19.48 23.26 19.33L2.06 10.85L23.27 2.37C24.07 2.05 25.54 2.05 26.34 2.37L46.84 10.57L46.81 11.11L46.56 11.24L26.33 19.33C25.96 19.48 25.4 19.57 24.8 19.57ZM49.63 24.96C49.63 26.2 48.62 27.22 47.37 27.22C46.12 27.22 45.11 26.21 45.11 24.96C45.11 23.71 46.12 22.7 47.37 22.7C48.62 22.7 49.63 23.71 49.63 24.96Z" fill="#E20511" stroke="#E20511" stroke-width="0.3"/>
</svg>
