<svg width="41" height="34" viewBox="0 0 41 34" fill="none" xmlns="http://www.w3.org/2000/svg">
<g clip-path="url(#clip0)">
<path d="M32.1736 7.12329H8.826C8.49367 7.12329 8.22461 7.39312 8.22461 7.7264C8.22461 8.05968 8.49367 8.32951 8.826 8.32951H32.1728C32.5051 8.32951 32.7742 8.05968 32.7742 7.7264C32.7742 7.39312 32.5051 7.12329 32.1736 7.12329Z" fill="#E20511"/>
<path d="M32.1736 13.686H8.826C8.49367 13.686 8.22461 13.9559 8.22461 14.2891C8.22461 14.6224 8.49367 14.8923 8.826 14.8923H32.1728C32.5051 14.8923 32.7742 14.6224 32.7742 14.2891C32.7742 13.9559 32.5051 13.686 32.1736 13.686Z" fill="#E20511"/>
<path d="M24.5195 17.9456H16.4813C16.1489 17.9456 15.8799 18.2154 15.8799 18.5487C15.8799 18.8811 16.1489 19.1518 16.4813 19.1518H24.5203C24.8526 19.1518 25.1217 18.8819 25.1217 18.5487C25.1209 18.2154 24.8518 17.9456 24.5195 17.9456Z" fill="#E20511"/>
<path d="M32.174 10.3911H14.7586C14.4263 10.3911 14.1572 10.6609 14.1572 10.9942C14.1572 11.3275 14.4263 11.5973 14.7586 11.5973H32.1732C32.5055 11.5973 32.7746 11.3275 32.7746 10.9942C32.7746 10.6609 32.5055 10.3911 32.174 10.3911Z" fill="#E20511"/>
<path d="M11.9619 10.3911H8.826C8.49367 10.3911 8.22461 10.6609 8.22461 10.9942C8.22461 11.3275 8.49367 11.5973 8.826 11.5973H11.9619C12.2942 11.5973 12.5632 11.3275 12.5632 10.9942C12.5632 10.6609 12.2942 10.3911 11.9619 10.3911Z" fill="#E20511"/>
<path d="M37.8968 6.10416C37.7567 5.96683 37.5717 5.89054 37.3747 5.89054C37.3747 5.89054 37.3747 5.89054 37.3739 5.89054C36.1559 5.89054 35.1589 4.93568 35.1037 3.71581C35.0853 3.31909 34.7609 3.0083 34.3638 3.0083H6.49256C6.09537 3.0083 5.77105 3.31909 5.75264 3.71581C5.70059 4.88107 4.74926 5.83513 3.58732 5.88733C3.19174 5.90499 2.88184 6.23104 2.88184 6.62937V22.2106C2.88184 22.609 3.19174 22.935 3.58732 22.9527C4.74926 23.0049 5.70059 23.9589 5.75264 25.125C5.77025 25.5217 6.09537 25.8317 6.49256 25.8317H24.2363C24.5686 25.8317 24.8377 25.5619 24.8377 25.2286C24.8377 24.8961 24.5686 24.6255 24.2363 24.6255H6.90576C6.65752 23.1735 5.53162 22.0444 4.08381 21.7954V7.04456C5.53162 6.7956 6.65752 5.66568 6.90576 4.21452H33.9513C34.21 5.71226 35.412 6.86868 36.9166 7.06624V17.303C36.9166 17.6355 37.1857 17.9061 37.518 17.9061C37.8504 17.9061 38.1194 17.6363 38.1194 17.303V6.63338C38.1186 6.43261 38.0393 6.24469 37.8968 6.10416Z" fill="#E20511"/>
<path d="M39.332 0H1.66803C0.748731 0 0 0.750875 0 1.67281V27.168C0 28.0908 0.748731 28.8408 1.66803 28.8408H26.8966L26.0038 30.7176C25.8893 30.9585 25.9173 31.2412 26.0766 31.4548C26.236 31.6685 26.4987 31.7753 26.7613 31.7327L28.4245 31.4645L29.3518 32.9911C29.4816 33.2055 29.713 33.3348 29.9612 33.3348C29.9732 33.3348 29.9853 33.3348 29.9973 33.334C30.2591 33.3204 30.4922 33.1646 30.6051 32.9277L32.217 29.5411L33.8282 32.9277C33.9411 33.1654 34.1741 33.3212 34.436 33.3348C34.448 33.3356 34.4608 33.3356 34.4728 33.3356C34.7211 33.3356 34.9525 33.2064 35.0822 32.9919L36.0095 31.4653L37.6728 31.7335C37.9362 31.7761 38.1981 31.6693 38.3574 31.4556C38.5168 31.242 38.5448 30.9593 38.4295 30.7184L37.5366 28.8416H39.3304C40.2505 28.8416 40.9984 28.0908 40.9984 27.1688V1.67281C41 0.750875 40.2513 0 39.332 0ZM29.9092 31.593L29.2798 30.5578C29.1284 30.3081 28.8449 30.1772 28.5567 30.2237L27.4892 30.3956L28.6143 28.0321C29.058 28.4859 29.689 28.7308 30.3448 28.669C30.569 28.6473 30.794 28.7083 30.9774 28.8384C31.0383 28.8818 31.1007 28.9203 31.1648 28.9557L29.9092 31.593ZM32.3604 28.0193C32.3588 28.0193 32.3564 28.0201 32.3548 28.0201C32.2635 28.0337 32.1706 28.0337 32.0801 28.0201C32.0777 28.0201 32.0753 28.0193 32.0729 28.0193C31.932 27.9976 31.7942 27.943 31.6733 27.8563C31.3097 27.5969 30.8757 27.4595 30.4329 27.4595C30.3656 27.4595 30.2984 27.4628 30.2311 27.4692C29.8331 27.5069 29.4551 27.2877 29.2894 26.9239C29.2157 26.7625 29.1212 26.6131 29.0123 26.4758C29.0075 26.4694 29.0019 26.4621 28.9971 26.4557C28.9907 26.4485 28.9851 26.4404 28.9795 26.4332C28.9723 26.4252 28.9651 26.4172 28.9579 26.4091C28.7593 26.1794 28.5134 25.9923 28.2339 25.8638C27.8712 25.6976 27.6526 25.3177 27.6902 24.9186C27.7383 24.4055 27.6013 23.8923 27.3034 23.4723C27.072 23.1462 27.072 22.7078 27.3034 22.3817C27.6013 21.9617 27.7383 21.4485 27.6902 20.9354C27.6526 20.537 27.8712 20.1572 28.2339 19.9901C28.7008 19.7757 29.0764 19.3999 29.2894 18.9317C29.4559 18.5679 29.8347 18.3487 30.2319 18.3864C30.7436 18.4346 31.2553 18.2973 31.6741 17.9985C31.9992 17.7664 32.4364 17.7664 32.7616 17.9985C33.1804 18.2973 33.6921 18.4338 34.2038 18.3864C34.6018 18.3487 34.9797 18.5679 35.1463 18.9317C35.3601 19.3999 35.7349 19.7765 36.2017 19.9901C36.5645 20.1572 36.7831 20.5362 36.7455 20.9354C36.6974 21.4485 36.8343 21.9617 37.1322 22.3817C37.3637 22.7078 37.3637 23.1462 37.1322 23.4723C36.8343 23.8923 36.6974 24.4055 36.7455 24.9186C36.7831 25.3169 36.5645 25.6968 36.2017 25.8638C35.923 25.9923 35.6772 26.1786 35.4794 26.4075C35.4714 26.4163 35.4634 26.4244 35.4554 26.4332C35.4498 26.4396 35.445 26.4461 35.4402 26.4525C35.4338 26.4605 35.4282 26.4677 35.4226 26.4758C35.3137 26.6123 35.22 26.7617 35.1463 26.9231C34.9797 27.2869 34.6018 27.5061 34.2038 27.4684C33.6929 27.4202 33.1804 27.5575 32.7616 27.8563C32.6398 27.943 32.5021 27.9968 32.3604 28.0193ZM35.8774 30.2237C35.5891 30.1772 35.3056 30.3089 35.1543 30.5586L34.5249 31.5938L33.2701 28.9565C33.3341 28.9203 33.3966 28.8818 33.4574 28.8392C33.6408 28.7083 33.8658 28.6473 34.0901 28.669C34.7459 28.7308 35.3777 28.4859 35.8205 28.0321L36.9456 30.3956L35.8774 30.2237ZM39.798 27.1688C39.798 27.4266 39.589 27.6362 39.332 27.6362H36.9641L36.6542 26.9849C36.6702 26.9769 36.6854 26.9681 36.7014 26.9608C37.5294 26.581 38.0275 25.7153 37.9418 24.8062C37.9202 24.5813 37.9811 24.3557 38.1116 24.1718C38.6393 23.4273 38.6393 22.4283 38.1116 21.6838C37.9811 21.4999 37.921 21.2743 37.9426 21.0494C38.0283 20.1403 37.5302 19.2746 36.7022 18.8948C36.4972 18.8008 36.333 18.6362 36.2394 18.4306C35.8606 17.6002 34.9965 17.1007 34.0909 17.1866C33.8666 17.2083 33.6416 17.1473 33.4582 17.0164C32.7159 16.4871 31.7189 16.4871 30.9774 17.0164C30.794 17.1473 30.569 17.2075 30.3448 17.1858C29.4375 17.0999 28.5751 17.5994 28.1963 18.4298C28.1026 18.6354 27.9385 18.8 27.7335 18.8939C26.9055 19.2738 26.4074 20.1395 26.493 21.0486C26.5147 21.2735 26.4538 21.4991 26.3233 21.683C25.7956 22.4275 25.7956 23.4265 26.3233 24.171C26.4538 24.3549 26.5139 24.5805 26.493 24.8054C26.4074 25.7145 26.9055 26.5802 27.7335 26.96C27.7495 26.9673 27.7647 26.9761 27.7807 26.9841L27.4708 27.6354H1.66803C1.41098 27.6354 1.20197 27.4258 1.20197 27.168V1.67281C1.20197 1.41502 1.41098 1.20542 1.66803 1.20542H39.3312C39.5882 1.20542 39.7972 1.41502 39.7972 1.67281L39.798 27.1688Z" fill="#E20511"/>
<path d="M32.174 19.1831C30.1152 19.1831 28.4399 20.8631 28.4399 22.9278C28.4399 24.9925 30.1152 26.6726 32.174 26.6726C34.2328 26.6726 35.908 24.9925 35.908 22.9278C35.908 20.8631 34.2328 19.1831 32.174 19.1831ZM32.174 25.4672C30.7774 25.4672 29.6419 24.3276 29.6419 22.9278C29.6419 21.5273 30.7782 20.3885 32.174 20.3885C33.5705 20.3885 34.7061 21.5281 34.7061 22.9278C34.7061 24.3284 33.5697 25.4672 32.174 25.4672Z" fill="#E20511"/>
</g>
<defs>
<clipPath id="clip0">
<rect width="41" height="33.3364" fill="white"/>
</clipPath>
</defs>
</svg>
