<svg width="42" height="39" viewBox="0 0 42 39" fill="none" xmlns="http://www.w3.org/2000/svg">
<path d="M41.3902 18.05C41.4002 15.9 41.0502 13.82 40.3902 11.87C40.4402 11.78 40.4802 11.68 40.4802 11.57C40.4802 11.3 40.3102 11.08 40.0702 10.99C39.1702 8.72 37.8302 6.66 36.0802 4.91C32.9202 1.74 28.7802 0 24.4302 0C24.4202 0 24.4202 0 24.4102 0C24.3902 0 24.3802 0 24.3602 0H24.3502C17.3202 0 11.2302 4.47 8.6402 10.99C8.4002 11.07 8.2202 11.3 8.2202 11.57C8.2202 11.68 8.2602 11.79 8.3102 11.88C7.8602 13.21 7.5502 14.61 7.4002 16.07C7.3602 16.41 7.6102 16.71 7.9502 16.75C7.9702 16.75 7.9902 16.75 8.0102 16.75C8.3302 16.75 8.5902 16.51 8.6302 16.19C8.7702 14.79 9.0702 13.45 9.5102 12.18H15.1002C14.7802 13.98 14.6002 15.92 14.6002 17.95C14.6002 19.98 14.7802 21.92 15.1002 23.72H13.3902C13.0502 23.72 12.7702 24 12.7702 24.34C12.7702 24.68 13.0502 24.96 13.3902 24.96H15.3502C16.2902 29.11 18.0402 32.43 20.2702 34.28C19.2702 33.99 18.2902 33.61 17.3402 33.1C17.0402 32.94 16.6602 33.05 16.5002 33.36C16.3402 33.66 16.4602 34.04 16.7602 34.2C19.1302 35.45 21.6902 36.09 24.3502 36.09C31.4402 36.09 37.5302 31.46 40.1002 24.91C40.3302 24.82 40.4802 24.6 40.4802 24.34C40.4802 24.24 40.4502 24.14 40.4102 24.06C41.0302 22.18 41.3802 20.16 41.3902 18.05ZM24.9602 34.63V24.96H32.0702C30.8102 30.37 28.1202 34.23 24.9602 34.63ZM24.9602 23.73V12.19H32.3302C32.6702 13.99 32.8502 15.93 32.8502 17.96C32.8502 19.99 32.6702 21.93 32.3302 23.73H24.9602ZM23.7302 1.29V10.94H16.6302C17.9002 5.6 20.5802 1.78 23.7302 1.29ZM24.9602 1.28C28.1102 1.69 30.8002 5.54 32.0702 10.95H24.9602V1.28ZM33.5902 12.19H39.1902C39.8302 14.04 40.1602 16.01 40.1502 18.05C40.1502 20.04 39.8102 21.95 39.2102 23.73H33.5902C33.9102 21.93 34.0802 19.99 34.0802 17.96C34.0902 15.93 33.9102 13.99 33.5902 12.19ZM35.2002 5.78C36.6902 7.28 37.8702 9.03 38.7002 10.94H33.3502C32.4702 6.98 30.8502 3.78 28.8002 1.88C31.1702 2.62 33.3602 3.94 35.2002 5.78ZM9.9902 10.95C11.9002 6.55 15.5502 3.23 19.9702 1.89C17.8902 3.78 16.2502 6.99 15.3502 10.95H9.9902ZM15.8402 17.96C15.8402 15.93 16.0302 13.99 16.3702 12.19H23.7302V23.73H16.3702C16.0302 21.93 15.8402 19.98 15.8402 17.96ZM16.6302 24.96H23.7302V34.61C20.5802 34.13 17.9002 30.31 16.6302 24.96ZM28.5402 34.25C30.7202 32.39 32.4302 29.09 33.3502 24.96H38.7302C36.8102 29.47 33.0802 32.92 28.5402 34.25Z" fill="#E20511"/>
<path d="M7.92 29.2C5.08 29.2 0 30.93 0 34.38V38.0299C0 38.3699 0.28 38.65 0.62 38.65C0.96 38.65 1.24 38.3699 1.24 38.0299V34.38C1.24 31.83 5.66 30.44 7.92 30.44C10.19 30.44 14.6 31.83 14.6 34.38V38.0299C14.6 38.3699 14.87 38.65 15.22 38.65C15.56 38.65 15.84 38.3699 15.84 38.0299V34.38C15.84 30.93 10.76 29.2 7.92 29.2Z" fill="#E20511"/>
<path d="M7.9199 27.7001C10.3899 27.7001 12.1899 25.9001 12.1899 23.4301V21.6001C12.1899 19.1301 10.3899 17.3301 7.9199 17.3301C5.4499 17.3301 3.6499 19.1301 3.6499 21.6001V23.4301C3.6499 25.9001 5.4499 27.7001 7.9199 27.7001ZM4.8899 21.6101C4.8899 19.8001 6.1099 18.5801 7.9199 18.5801C9.7299 18.5801 10.9499 19.8001 10.9499 21.6101V23.4401C10.9499 25.2501 9.7299 26.4701 7.9199 26.4701C6.1099 26.4701 4.8899 25.2501 4.8899 23.4401V21.6101Z" fill="#E20511"/>
</svg>
