<svg width="44" height="36" viewBox="0 0 44 36" fill="none" xmlns="http://www.w3.org/2000/svg">
<path d="M4.31002 31.4501L4.19002 31.3601L2.43002 34.4901C2.34002 34.6601 2.31002 34.8501 2.36002 35.0301C2.41002 35.2201 2.53002 35.3701 2.70002 35.4701C2.81002 35.5301 2.93002 35.5601 3.05002 35.5601C3.31002 35.5601 3.55002 35.4201 3.68002 35.1901L5.34002 32.2401L5.25002 32.1701C4.96002 31.9601 4.65002 31.7301 4.31002 31.4501Z" fill="#E20511"/>
<path d="M28.7398 31.4199L28.6198 31.5099C28.3298 31.7499 28.0198 31.9899 27.6798 32.2299L27.5898 32.2899L29.2098 35.1799C29.3398 35.4099 29.5798 35.5499 29.8398 35.5499C29.9598 35.5499 30.0798 35.5199 30.1898 35.4599C30.3598 35.3699 30.4798 35.2099 30.5298 35.0299C30.5798 34.8399 30.5598 34.6499 30.4598 34.4799L28.7398 31.4199Z" fill="#E20511"/>
<path d="M31.22 19.75C29.71 26.6 23.52 31.58 16.51 31.58C8.2 31.58 1.44 24.82 1.44 16.51C1.44 8.2 8.2 1.44 16.51 1.44C23.48 1.44 29.66 6.37 31.2 13.17L31.22 13.27H32.69L32.66 13.12C31.08 5.52 24.29 0 16.51 0C7.41 0 0 7.41 0 16.51C0 25.61 7.41 33.02 16.51 33.02C24.34 33.02 31.14 27.46 32.68 19.8L32.71 19.65H31.24L31.22 19.75Z" fill="#E20511"/>
<path d="M24.67 13.2L24.7 13.28H26.23L26.17 13.11C24.73 9.01001 20.84 6.26001 16.5 6.26001C10.85 6.26001 6.25 10.86 6.25 16.52C6.25 22.17 10.85 26.77 16.5 26.77C20.88 26.77 24.78 23.98 26.19 19.82L26.25 19.65H24.73L24.7 19.73C23.38 23.08 20.09 25.33 16.5 25.33C11.64 25.33 7.68 21.37 7.68 16.51C7.68 11.65 11.64 7.69001 16.5 7.69001C20.05 7.69001 23.33 9.90001 24.67 13.2Z" fill="#E20511"/>
<path d="M43.5501 19.9001L40.7601 16.6101L43.5501 13.3001C43.6701 13.1501 43.7301 12.9601 43.7201 12.7701C43.7001 12.5801 43.6101 12.4001 43.4701 12.2901C43.3001 12.1501 43.1301 12.1201 43.0101 12.1201C42.8001 12.1201 42.6001 12.2101 42.4601 12.3701L39.8101 15.5201L39.6601 15.7501H36.0801L38.1401 13.3101C38.2601 13.1601 38.3201 12.9801 38.3101 12.7901C38.2901 12.6001 38.2001 12.4201 38.0601 12.3001C37.9001 12.1601 37.7201 12.1301 37.6001 12.1301C37.3901 12.1301 37.1901 12.2201 37.0501 12.3801L34.3601 15.5601L34.2201 15.7501H17.5701C17.1701 15.7501 16.8501 16.0701 16.8501 16.4701C16.8501 16.8701 17.1701 17.1901 17.5701 17.1901H34.0601L34.1601 17.4101C34.1901 17.4701 34.2201 17.5201 34.2601 17.5701L37.0401 20.8401C37.1801 21.0001 37.3801 21.0901 37.5901 21.0901C37.7101 21.0901 37.8901 21.0601 38.0601 20.9201C38.3601 20.6601 38.4001 20.2101 38.1401 19.9001L35.8401 17.1901H39.4901L39.5901 17.4101C39.6201 17.4701 39.6501 17.5201 39.6901 17.5601L42.4601 20.8301C42.6001 20.9901 42.8001 21.0801 43.0101 21.0801C43.1301 21.0801 43.3101 21.0501 43.4801 20.9101C43.6201 20.7901 43.7101 20.6101 43.7301 20.4201C43.7401 20.2301 43.6701 20.0401 43.5501 19.9001Z" fill="#E20511"/>
<path d="M17.5798 13.27H19.2298L18.8998 13.04C18.1898 12.55 17.3598 12.29 16.5098 12.29C14.1898 12.29 12.2998 14.18 12.2998 16.5C12.2998 18.82 14.1898 20.71 16.5098 20.71C17.4298 20.71 18.3098 20.42 19.0298 19.87L19.3198 19.65H17.5698C16.7198 19.65 15.9198 19.32 15.3198 18.72C14.8798 18.28 14.5698 17.71 14.4498 17.12C14.3898 16.91 14.3798 16.66 14.3798 16.47C14.3798 16.27 14.3898 16.14 14.4298 16.01C14.6598 14.44 16.0098 13.27 17.5798 13.27Z" fill="#E20511"/>
</svg>
