<svg width="65" height="65" viewBox="0 0 65 65" fill="none" xmlns="http://www.w3.org/2000/svg">
<path d="M24.9268 18.4513C24.6514 18.4513 24.6514 18.4513 24.376 18.4513H24.1006C24.1006 18.4513 24.1006 18.4513 23.8252 18.176C23.5498 17.9006 23.5498 17.6252 23.5498 17.3498V17.0744V16.799V16.5236C23.5498 16.5236 23.5498 16.5236 23.8252 16.2482C23.8252 16.2482 23.8252 16.2482 24.1006 15.9728H24.376H24.6514C24.9268 15.9728 25.4776 15.9728 25.753 16.2482C25.753 16.2482 25.753 16.2482 26.0284 16.5236V16.799V17.0744V17.3498V17.6252V17.9006V18.176C26.0284 18.176 26.0284 18.176 25.753 18.4513C25.753 18.4513 25.753 18.4513 25.4776 18.7267H25.2022C25.4776 18.4513 25.2022 18.4513 24.9268 18.4513C25.2022 18.4513 24.9268 18.4513 24.9268 18.4513Z" fill="white"/>
<path d="M49.4368 18.4512C49.4368 18.4512 49.1614 18.4512 49.4368 18.4512C45.5812 17.6251 41.4503 17.3497 37.3194 17.3497C35.1163 17.3497 32.6378 17.3497 30.4346 17.6251C29.8838 17.6251 29.0576 17.0743 29.0576 16.5235C29.0576 15.9727 29.6084 15.1465 30.1592 15.1465C32.3624 14.8711 34.8409 14.8711 37.3194 14.8711C41.7257 14.8711 46.132 15.4219 49.7122 15.9727C50.2629 16.2481 50.8137 16.7989 50.8137 17.3497C50.5383 18.1758 49.9875 18.4512 49.4368 18.4512Z" fill="white"/>
<path d="M6.19975 29.4672C5.92436 29.4672 5.92436 29.4672 6.19975 29.4672C5.92436 29.4672 5.92436 29.4672 5.64896 29.4672H5.37357C5.37357 29.4672 5.37357 29.4672 5.09818 29.1918C5.09818 29.1918 5.09818 29.1918 4.82278 28.9164V28.641V28.3656V28.0902V27.8148V27.5394V27.264C4.82278 27.264 4.82278 27.264 5.09818 26.9886C5.09818 26.9886 5.09818 26.9886 5.37357 26.7132H5.64896H5.92436C6.19975 26.7132 6.19975 26.7132 6.47514 26.7132H6.75054H7.02593C7.02593 26.7132 7.02593 26.7132 7.30132 26.9886C7.30132 26.9886 7.30132 26.9886 7.57672 27.264V27.5394V27.8148V28.0902V28.3656V28.641V28.9164C7.57672 28.9164 7.57672 28.9164 7.30132 29.1918C7.30132 29.1918 7.30132 29.1918 7.02593 29.4672H6.75054C6.47514 29.4672 6.47514 29.4672 6.19975 29.4672Z" fill="white"/>
<path d="M11.7078 20.3791L7.85234 12.6681C7.57695 12.1173 7.30155 11.8419 6.75077 11.8419H5.3738C4.82301 11.8419 4.54762 12.1173 4.27222 12.6681L0.416718 20.3791C0.416718 20.6545 0.416718 20.6545 0.416718 20.9299V62.7897C0.416718 63.3405 0.967504 64.1667 1.79368 64.1667H10.6063C11.1571 64.1667 11.9832 63.6159 11.9832 62.7897V20.9299C11.7078 20.6545 11.7078 20.3791 11.7078 20.3791ZM2.89526 21.2053L4.27222 18.4514H8.12773L9.5047 21.2053V21.7561H2.89526V21.2053ZM9.2293 24.2346V49.8462H7.30155V33.8734C7.30155 33.3226 6.75076 32.4964 5.92458 32.4964C5.3738 32.4964 4.54762 33.0472 4.54762 33.8734V49.8462H2.89526V24.2346H9.2293ZM2.89526 52.3248H9.2293V54.2525H2.89526V52.3248ZM6.19998 14.5959L6.75077 15.9728H5.3738L6.19998 14.5959ZM9.2293 61.4127H2.89526V56.731H9.2293V61.4127Z" fill="white"/>
<path d="M63.4817 12.3927L37.8701 0C37.3193 0 37.0439 0 36.7685 0L10.8815 12.3927C10.6061 12.6681 10.3307 12.9435 10.3307 13.4943C10.3307 14.0451 10.6061 14.3205 11.1569 14.5958L19.6941 18.176V26.4378C19.6941 26.9886 19.9695 27.2639 20.2449 27.5393H20.5203V32.4964C19.9695 32.4964 19.1433 33.0472 19.1433 33.8734C19.1433 34.4242 19.6941 35.2504 20.5203 35.2504V35.8011C20.5203 39.3813 21.6219 42.686 24.1004 45.4399C26.0282 47.6431 28.5067 49.2954 31.8114 50.397V52.0494H21.3465C18.3172 52.0494 15.8386 54.5279 15.8386 57.5572V62.5143C15.8386 63.0651 16.3894 63.8913 17.2156 63.8913H57.6984C58.2492 63.8913 59.0754 63.3405 59.0754 62.5143V57.5572C59.0754 54.5279 56.5968 52.0494 53.5675 52.0494H43.1026V50.397C46.1319 49.2954 48.8858 47.6431 50.8136 45.4399C53.0167 42.686 54.3937 39.6566 54.3937 35.8011V34.975C54.9445 34.975 55.7707 34.4242 55.7707 33.598C55.7707 33.0472 55.2199 32.221 54.3937 32.221V27.2639H54.6691C54.9445 26.9886 55.2199 26.7132 55.2199 26.1624V17.9006L58.2492 16.799V29.7425C58.2492 30.2933 58.8 31.1195 59.6262 31.1195C60.4524 31.1195 61.0031 30.5687 61.0031 29.7425V15.9728L64.0325 14.8712C64.5832 14.5958 64.8586 14.3205 64.8586 13.7697C64.3079 13.2189 64.0325 12.6681 63.4817 12.3927ZM52.1905 24.51C50.5382 23.6838 48.6104 23.4084 46.6827 23.4084C43.1026 23.4084 39.5224 24.7854 37.0439 27.5393C34.5654 24.7854 31.2606 23.4084 27.4051 23.4084C25.4774 23.4084 23.5496 23.9592 21.8973 24.51V15.1466C26.3036 14.0451 31.536 13.4943 37.0439 13.4943C42.5518 13.4943 47.7842 14.0451 52.1905 15.1466V24.51ZM56.5968 57.5572V61.4127H18.0418V57.5572C18.0418 55.9049 19.4187 54.5279 21.0711 54.5279H53.5675C55.2199 54.2525 56.5968 55.6295 56.5968 57.5572ZM51.3644 35.8011C51.3644 41.5844 47.5089 46.2661 41.1748 48.1938C40.624 48.4692 40.3486 48.7446 40.3486 49.2954V51.774H34.29V49.2954C34.29 48.7446 34.0146 48.1938 33.4638 48.1938C26.8544 46.2661 23.2742 41.8598 23.2742 35.8011V34.975H24.6512C25.202 37.7289 27.6805 39.6566 30.4345 39.6566C33.1884 39.6566 35.6669 37.7289 36.2177 34.975H38.4209C38.9717 37.7289 41.4502 39.6566 44.2041 39.6566C46.9581 39.6566 49.4366 37.7289 49.9874 34.975H51.3644V35.8011ZM26.8544 33.8734C26.8544 31.9456 28.5067 30.5687 30.1591 30.5687C32.0868 30.5687 33.4638 32.221 33.4638 33.8734C33.4638 35.5257 31.8114 37.1781 30.1591 37.1781C28.2313 37.4535 26.8544 35.8011 26.8544 33.8734ZM40.624 33.8734C40.624 31.9456 42.2764 30.5687 43.9287 30.5687C45.8565 30.5687 47.2335 32.221 47.2335 33.8734C47.2335 35.5257 45.5811 37.1781 43.9287 37.1781C42.2764 37.4535 40.624 35.8011 40.624 33.8734ZM49.9874 32.7718C49.4366 30.0179 46.9581 28.0901 44.2041 28.0901C41.4502 28.0901 38.9717 30.0179 38.4209 32.7718H36.2177C35.6669 30.0179 33.1884 28.0901 30.4345 28.0901C27.6805 28.0901 25.202 30.0179 24.6512 32.7718H23.2742V26.7132C24.6512 25.887 26.3036 25.6116 27.9559 25.6116C31.2606 25.6116 34.5654 27.2639 36.4931 30.0179C36.7685 30.2933 37.0439 30.5687 37.5947 30.5687C37.8701 30.5687 38.4209 30.2933 38.6963 30.0179C40.624 27.2639 43.9287 25.6116 47.2335 25.6116C48.8858 25.6116 50.5382 25.887 51.9151 26.7132V32.7718H49.9874ZM53.8429 12.9435C49.1612 11.5665 43.1026 10.7403 37.0439 10.7403C30.9853 10.7403 24.9266 11.5665 20.2449 12.9435C19.6941 13.2189 19.4187 13.4943 19.4187 14.0451V15.422L14.4617 13.4943L37.3193 2.75393L59.9016 13.7697L54.9445 15.422V14.0451C54.6691 13.4943 54.3937 12.9435 53.8429 12.9435Z" fill="white"/>
</svg>
