<svg width="77" height="67" viewBox="0 0 77 67" fill="none" xmlns="http://www.w3.org/2000/svg">
<g clip-path="url(#clip0)">
<path d="M33.492 27.565C29.0595 26.3264 24.4958 26.0462 19.932 26.7393L14.3768 27.5945C13.779 27.683 13.3708 28.2433 13.4582 28.8479C13.5457 29.3934 14.0123 29.7916 14.5372 29.7916C14.5955 29.7916 14.6539 29.7916 14.6976 29.7768L20.2528 28.9216C24.4958 28.2728 28.7533 28.5235 32.8942 29.6884C33.4774 29.8506 34.0752 29.5114 34.2356 28.9216C34.4106 28.3318 34.0752 27.7272 33.492 27.565Z" fill="white"/>
<path d="M14.5372 36.6777C14.5955 36.6777 14.6539 36.6777 14.6976 36.6629L20.2528 35.8077C23.723 35.2769 27.2369 35.3506 30.678 36.0436C31.2758 36.1616 31.8444 35.7782 31.9611 35.1736C32.0777 34.5691 31.6986 33.994 31.1008 33.876C27.4119 33.1388 23.6501 33.0503 19.932 33.6254L14.3768 34.4806C13.779 34.5691 13.3708 35.1294 13.4582 35.734C13.5457 36.2943 14.0123 36.6777 14.5372 36.6777Z" fill="white"/>
<path d="M33.4483 41.3667C29.0158 40.128 24.4521 39.8479 19.8884 40.5409L14.3331 41.3961C13.7353 41.4846 13.3271 42.0449 13.4146 42.6495C13.5021 43.1951 13.9686 43.5932 14.4935 43.5932C14.5519 43.5932 14.6102 43.5932 14.6539 43.5785L20.2091 42.7232C24.4521 42.0744 28.7096 42.3251 32.8505 43.49C33.4338 43.6522 34.0316 43.313 34.192 42.7232C34.3669 42.1334 34.0316 41.5289 33.4483 41.3667Z" fill="white"/>
<path d="M64.5051 13.7339L58.9499 12.8786C54.4007 12.1856 49.837 12.4658 45.3899 13.7044C44.8067 13.8666 44.4713 14.4711 44.6317 15.0609C44.7921 15.6508 45.3899 15.9899 45.9731 15.8277C50.114 14.6628 54.3716 14.4121 58.6145 15.0609L64.1697 15.9162C64.2281 15.9309 64.2864 15.9309 64.3301 15.9309C64.855 15.9309 65.3216 15.5328 65.4091 14.9872C65.5112 14.3974 65.1029 13.8371 64.5051 13.7339Z" fill="white"/>
<path d="M45.6816 22.7875C45.7836 22.7875 45.8711 22.7728 45.9732 22.7433C50.1141 21.5784 54.3716 21.3277 58.6146 21.9765L60.2185 22.2272C60.8163 22.3157 61.3703 21.9028 61.4578 21.2982C61.5453 20.6937 61.137 20.1334 60.5392 20.0449L58.9354 19.7942C54.3862 19.1012 49.8225 19.3813 45.3754 20.62C44.7922 20.7822 44.4568 21.3867 44.6172 21.9765C44.763 22.4631 45.2004 22.7875 45.6816 22.7875Z" fill="white"/>
<path d="M58.9499 33.6253C54.4007 32.9323 49.837 33.2125 45.3899 34.4511C44.8067 34.6133 44.4713 35.2178 44.6317 35.8076C44.7629 36.2942 45.2004 36.6186 45.6815 36.6186C45.7836 36.6186 45.8711 36.6039 45.9731 36.5744C50.114 35.4095 54.3716 35.1588 58.6145 35.8076L60.2184 36.0583C60.8162 36.1468 61.3703 35.7339 61.4578 35.1294C61.5452 34.5248 61.137 33.9645 60.5392 33.876L58.9499 33.6253Z" fill="white"/>
<path d="M45.8856 29.6441C50.0265 28.4792 54.284 28.2285 58.527 28.8773L64.0822 29.7326C64.1405 29.7473 64.1989 29.7473 64.2426 29.7473C64.7675 29.7473 65.2341 29.3492 65.3216 28.8036C65.4091 28.1991 65.0008 27.6387 64.403 27.5503L58.8478 26.695C54.2986 26.002 49.7349 26.2822 45.2878 27.5208C44.7046 27.683 44.3692 28.2875 44.5296 28.8773C44.69 29.4672 45.3024 29.8063 45.8856 29.6441Z" fill="white"/>
<path d="M64.4613 41.352L58.9061 40.4967C54.357 39.8037 49.7932 40.0839 45.3461 41.3225C44.7629 41.4847 44.4276 42.0892 44.5879 42.679C44.7483 43.2688 45.3461 43.608 45.9294 43.4458C50.0703 42.2809 54.3278 42.0302 58.5708 42.679L64.126 43.5343C64.1843 43.549 64.2426 43.549 64.2864 43.549C64.8113 43.549 65.2778 43.1509 65.3653 42.6053C65.4674 42.0007 65.0591 41.4404 64.4613 41.352Z" fill="white"/>
<path d="M73.7638 10.6661H71.5767V7.80548C71.5767 7.2599 71.183 6.78805 70.6435 6.71432L61.4869 5.31351C54.0799 4.17812 46.6584 4.63523 39.4264 6.65534H39.4118H39.3972C32.1653 4.62048 24.7437 4.16338 17.3368 5.29877L8.16555 6.69958C7.62607 6.78805 7.23239 7.24516 7.23239 7.79074V10.6661H4.97239C3.35394 10.6661 2.04169 11.9932 2.04169 13.6299V16.579C2.04169 17.1835 2.53743 17.6849 3.13523 17.6849C3.73304 17.6849 4.22878 17.1835 4.22878 16.579V13.6299C4.22878 13.217 4.56413 12.8779 4.97239 12.8779H7.24697V51.7467C7.24697 52.0711 7.39278 52.3807 7.62607 52.5872C7.87394 52.7936 8.18013 52.8968 8.5009 52.8378L17.7888 51.437C24.9624 50.3459 32.1361 50.8177 39.1202 52.8083C39.3098 52.8673 39.5285 52.8673 39.718 52.8083C46.7021 50.803 53.8758 50.3459 61.0495 51.437L70.3373 52.8378C70.3956 52.8526 70.4394 52.8526 70.4977 52.8526C70.7602 52.8526 71.008 52.7641 71.2122 52.5872C71.46 52.3807 71.5913 52.0711 71.5913 51.7467V12.8779H73.7784C74.1866 12.8779 74.522 13.217 74.522 13.6299V55.3151C74.522 55.7279 74.1866 56.0671 73.7784 56.0671H57.5501C56.9523 56.0671 56.4566 56.5684 56.4566 57.173C56.4566 57.7775 56.9523 58.2789 57.5501 58.2789H73.7784C75.3968 58.2789 76.7091 56.9518 76.7091 55.3151V13.6299C76.6945 11.9932 75.3822 10.6661 73.7638 10.6661ZM26.333 6.92076C27.8494 6.95025 29.3658 7.05347 30.8676 7.23041V20.1621L29.5116 18.8498C29.1325 18.4959 28.5638 18.4516 28.141 18.7465L26.3476 19.9999V6.92076H26.333ZM25.3269 48.6502C22.7024 48.6502 20.0779 48.8418 17.4534 49.24L9.41948 50.4491V11.7867V11.772V11.7572V8.74918L17.6575 7.49583C19.8155 7.17143 21.988 6.97974 24.1459 6.92076V12.5682C22.7024 12.5977 21.2589 12.7157 19.8446 12.9369L14.2894 13.7774C13.6916 13.8658 13.2833 14.4262 13.3708 15.0307C13.4583 15.5763 13.9249 15.9744 14.4498 15.9744C14.5081 15.9744 14.5664 15.9744 14.6102 15.9597L20.1654 15.1044C21.4777 14.898 22.8191 14.7948 24.1459 14.7653V19.4543C22.7024 19.4838 21.2589 19.6018 19.8446 19.823L14.2894 20.6782C13.6916 20.7667 13.2833 21.327 13.3708 21.9315C13.4583 22.4771 13.9249 22.8752 14.4498 22.8752C14.5081 22.8752 14.5664 22.8752 14.6102 22.8605L20.1654 22.0053C21.4777 21.7988 22.8191 21.6956 24.1459 21.6661V22.0937C24.1459 22.5066 24.3646 22.89 24.7291 23.0669C25.0937 23.2586 25.5311 23.2291 25.8664 22.9932L28.6513 21.0468L31.2175 23.5093C31.4216 23.701 31.6987 23.8189 31.9757 23.8189C32.1215 23.8189 32.2673 23.7895 32.4131 23.7305C32.8214 23.5535 33.0693 23.1554 33.0693 22.713V7.52532C34.8335 7.80548 36.5832 8.17411 38.3329 8.64597V50.3016C34.0316 49.1957 29.7011 48.6502 25.3269 48.6502ZM69.3896 50.4638L61.3557 49.2547C54.3424 48.193 47.3437 48.5469 40.5054 50.3164V8.64597C47.2708 6.81754 54.2257 6.43416 61.1661 7.49583L69.4042 8.74918V50.4638H69.3896Z" fill="white"/>
<path d="M52.4615 56.053H44.6608C44.1651 56.053 43.7423 56.3774 43.611 56.864C43.0861 58.7662 41.3656 60.0932 39.4118 60.0932C37.458 60.0932 35.7375 58.7662 35.2126 56.864C35.0814 56.3921 34.644 56.053 34.1628 56.053H4.97239C4.56413 56.053 4.22878 55.7139 4.22878 55.301V21.6816C4.22878 21.077 3.73304 20.5757 3.13523 20.5757C2.53743 20.5757 2.04169 21.077 2.04169 21.6963V55.3157C2.04169 56.9525 3.35394 58.2796 4.97239 58.2796H33.3754C34.3815 60.6978 36.7581 62.3198 39.4118 62.3198C42.0655 62.3198 44.4276 60.6978 45.4482 58.2796H52.4761C53.0739 58.2796 53.5696 57.7782 53.5696 57.1737C53.5696 56.5691 53.0593 56.053 52.4615 56.053Z" fill="white"/>
</g>
<defs>
<clipPath id="clip0">
<rect width="74.6528" height="57.6102" fill="white" transform="translate(2.04169 4.69495)"/>
</clipPath>
</defs>
</svg>
