<svg width="245" height="63" viewBox="0 0 245 63" fill="none" xmlns="http://www.w3.org/2000/svg">
<path d="M19.5024 0.733337V6.07476H16.739V3.50439H6.78945V11.4239H17.6576V14.1872H6.78945V23.033H16.739V20.4549H19.5024V25.7964H0.892273V23.033H3.28511V3.50439H0.892273V0.733337H19.5024Z" fill="#888888"/>
<path d="M31.8448 0H37.5567V23.033H39.9496V25.7963H34.2376V23.9515H34.1682C32.8405 25.2405 30.7024 26.1591 28.5334 26.1591C23.3773 26.1591 21.7177 21.9215 21.7177 16.58C21.7177 11.2386 23.5625 7.00097 28.7187 7.00097C30.8182 7.00097 32.8483 7.85004 34.1759 9.13909H34.2454V2.76334H31.8525V0H31.8448ZM29.8225 23.3958C31.8525 23.3958 33.4735 22.4386 34.2454 21.852V11.3467C33.4735 10.7214 31.8525 9.76431 29.8225 9.76431C26.2101 9.76431 25.2143 12.8982 25.2143 16.58C25.2143 20.2619 26.2101 23.3958 29.8225 23.3958Z" fill="#888888"/>
<path d="M41.2463 7.37152H46.9582V19.3434C46.9582 21.7362 47.954 23.3958 50.6401 23.3958C52.7396 23.3958 54.6925 22.1068 55.7963 21.2963V10.1349H52.8477V7.37152H59.1154V23.033H61.5082V25.7963H55.7963V23.2183H55.7191C53.9515 24.9859 51.7362 26.1669 49.1581 26.1669C45.4762 26.1669 43.6314 23.9593 43.6314 20.0844V10.1349H41.2386V7.37152H41.2463Z" fill="#888888"/>
<path d="M76.2511 12.3424V10.1348C74.6688 9.76429 73.5264 9.76429 72.7545 9.76429C68.8874 9.76429 67.2278 12.5276 67.2278 16.58C67.2278 20.6324 68.8874 23.3957 72.7545 23.3957C74.0435 23.3957 75.4484 23.3957 78.3892 22.6624L79.0145 25.3563C76.8069 25.9121 75.0315 26.1668 72.7468 26.1668C66.0005 26.1668 63.7158 22.2997 63.7158 16.5877C63.7158 10.8758 66.0005 7.00867 72.7468 7.00867C75.0315 7.00867 76.7992 7.30198 79.0145 7.85774V12.3501H76.2511V12.3424Z" fill="#888888"/>
<path d="M82.2254 12.3424V7.77286C84.7341 7.29429 87.3121 7.00098 89.3345 7.00098C93.7574 7.00098 96.1502 8.29002 96.1502 13.0834V23.033H98.543V25.7963H92.8311V23.9515H92.7539C91.133 25.3872 89.4039 26.1591 87.1192 26.1591C84.132 26.1591 81.0367 24.5381 81.0367 20.8177C81.0367 16.3562 84.9811 15.1057 88.8482 15.1057H92.8311V13.2609C92.8311 10.8681 91.6115 9.76431 88.5935 9.76431C87.7058 9.76431 86.602 9.8415 84.9811 10.0962V12.3424H82.2254ZM92.8388 17.1358H89.265C85.7684 17.1358 84.3636 18.1701 84.3636 20.4549C84.3636 22.4077 85.8379 23.5887 88.2307 23.5887C90.3302 23.5887 91.9898 22.7011 92.8388 22.045V17.1358Z" fill="#888888"/>
<path d="M113.286 12.3424V10.1348C111.704 9.76429 110.561 9.76429 109.789 9.76429C105.922 9.76429 104.263 12.5276 104.263 16.58C104.263 20.6324 105.922 23.3957 109.789 23.3957C111.078 23.3957 112.483 23.3957 115.424 22.6624L116.049 25.3563C113.842 25.9121 112.066 26.1668 109.782 26.1668C103.035 26.1668 100.751 22.2997 100.751 16.5877C100.751 10.8758 103.035 7.00867 109.782 7.00867C112.066 7.00867 113.834 7.30198 116.049 7.85774V12.3501H113.286V12.3424Z" fill="#888888"/>
<path d="M117.717 7.37147H123.429V23.033H125.821V25.7963H117.717V23.033H120.109V10.1348H117.717V7.37147ZM123.429 0V4.60814H120.109V0H123.429Z" fill="#888888"/>
<path d="M127.296 16.58C127.296 10.8681 129.581 7.00097 135.771 7.00097C141.923 7.00097 144.246 10.8681 144.246 16.58C144.246 22.292 141.923 26.1591 135.771 26.1591C129.581 26.1591 127.296 22.292 127.296 16.58ZM130.792 16.58C130.792 20.4472 131.896 23.3958 135.763 23.3958C139.592 23.3958 140.734 20.4472 140.734 16.58C140.734 12.7129 139.592 9.76431 135.763 9.76431C131.904 9.76431 130.792 12.7129 130.792 16.58ZM137.284 5.15617H134.706L136.913 0H140.117L137.284 5.15617Z" fill="#888888"/>
<path d="M158.434 23.033H160.641V13.8167C160.641 11.4239 159.723 9.76431 156.959 9.76431C154.821 9.76431 152.907 11.0534 151.803 11.9024V23.033H154.011V25.7963H146.091V23.033H148.484V10.1348H146.091V7.37148H151.803V9.94957H151.88C153.648 8.22055 155.863 7.00098 158.441 7.00098C162.123 7.00098 163.968 9.20856 163.968 13.0834V23.033H166.361V25.7963H158.441V23.033H158.434Z" fill="#888888"/>
<path d="M189 24.3452H191.532V13.6006C191.493 11.0302 190.482 8.96927 187.194 8.96927C184.809 8.96927 182.925 10.6288 181.659 11.7172V24.3374H184.191V25.8581H177.252V24.3374H179.853V9.33977H177.252V7.78829H181.659V10.4976H181.729C183.172 9.12365 184.986 7.57216 187.518 7.45638C188.166 7.45638 188.784 7.49497 189.363 7.60304C191.207 7.92723 192.435 9.01558 192.975 10.7446C194.565 9.11593 196.919 7.41779 199.559 7.41779C203.172 7.41779 204.986 9.40924 204.986 13.315V24.3452H207.625V25.8658H200.648V24.3452H203.179V13.6777C203.179 11.0379 202.168 8.97699 198.841 8.97699C196.487 8.97699 194.503 10.6751 193.199 11.7944C193.268 12.3347 193.346 12.9522 193.346 13.6006V24.3374H195.877V25.8581H189.008V24.3452H189Z" fill="#888888"/>
<path d="M212.311 12.0491V8.10476C214.626 7.63391 216.973 7.41779 218.779 7.41779C222.832 7.41779 225.001 8.79174 225.001 13.315V24.3452H227.64V25.8658H223.194V24.0596H223.125C221.319 25.4721 219.69 26.1591 217.452 26.19C216.803 26.2286 216.147 26.19 215.537 26.0819C212.967 25.7191 211.307 24.0904 211.161 21.5587C211.122 21.0184 211.161 20.4703 211.23 19.9686C211.662 16.966 214.487 15.7387 218.679 15.7387H223.202V13.3922C223.202 10.4976 221.975 8.98471 218.432 8.98471C217.382 8.98471 215.969 9.05418 213.878 9.41696V12.0568H212.311V12.0491ZM223.194 16.9274H218.926C214.333 16.9274 212.89 18.448 212.89 20.9798C212.89 23.1873 214.518 24.7774 217.699 24.7774C220.377 24.7774 222.253 23.6196 223.194 22.8246V16.9274ZM219.072 5.61158H217.992L220.338 0.548035H222.006L219.072 5.61158Z" fill="#888888"/>
<path d="M243.24 12.0491V9.44784C241.002 8.9384 238.941 8.90752 237.999 8.90752C233.661 8.90752 233.483 11.4779 233.483 12.0877C233.483 13.5697 234.093 14.9436 238.292 15.7773C242.414 16.6418 244.946 17.8382 244.946 21.0184C244.946 24.2757 242.846 26.2286 238.725 26.2286C236.046 26.2286 233.553 26.0124 231.384 25.4721V21.6359H232.943V24.2062C235.22 24.7465 237.574 24.7465 238.547 24.7465C242.924 24.7465 243.14 21.852 243.14 21.1341C243.14 19.6521 242.414 18.3476 238.146 17.4831C234.564 16.7962 231.677 15.6769 231.677 12.134C231.677 9.16996 233.808 7.43323 237.899 7.43323C240.577 7.43323 242.599 7.64935 244.768 8.18967V12.0568H243.24V12.0491Z" fill="#888888"/>
<path d="M1.74902 48.3276V44.3833C4.06466 43.9124 6.41118 43.6963 8.21739 43.6963C12.2698 43.6963 14.4388 45.0702 14.4388 49.5935V60.6237H17.0786V62.1443H12.6326V60.3381H12.5631C10.7569 61.7506 9.12821 62.4376 6.88975 62.4685C6.24137 62.5071 5.58527 62.4685 4.97548 62.3604C2.40512 61.9976 0.745568 60.3689 0.598911 57.8372C0.560317 57.2969 0.598911 56.7488 0.66838 56.2471C1.10063 53.2445 3.92572 52.0172 8.11704 52.0172H12.6403V49.6707C12.6403 46.7761 11.413 45.2632 7.87004 45.2632C6.82028 45.2632 5.40774 45.3327 3.31594 45.6955V48.3353H1.74902V48.3276ZM12.6326 53.2059H8.36405C3.77135 53.2059 2.32793 54.7265 2.32793 57.2583C2.32793 59.4658 3.9566 61.0559 7.13675 61.0559C9.81518 61.0559 11.6909 59.8981 12.6326 59.1031V53.2059Z" fill="#888888"/>
<path d="M19.7106 36.8265H24.118V60.6159H26.7579V62.1365H19.7106V60.6159H22.3118V38.3857H19.7106V36.8265Z" fill="#888888"/>
<path d="M29.3516 36.8265H33.759V60.6159H36.3988V62.1365H29.3516V60.6159H31.9528V38.3857H29.3516V36.8265Z" fill="#888888"/>
<path d="M40.3432 48.3275V44.3832C42.6589 43.9124 45.0054 43.6962 46.8116 43.6962C50.864 43.6962 53.033 45.0702 53.033 49.5934V60.6236H55.6728V62.1442H51.2268V60.338H51.1573C49.3511 61.7506 47.7224 62.4375 45.484 62.4684C44.8356 62.507 44.1795 62.4684 43.5697 62.3603C40.9993 61.9976 39.3398 60.3689 39.1931 57.8371C39.1545 57.2968 39.1931 56.7488 39.2626 56.247C39.6948 53.2444 42.5199 52.0171 46.7113 52.0171H51.2345V49.6706C51.2345 46.776 50.0072 45.2631 46.4643 45.2631C45.4145 45.2631 44.0019 45.3326 41.9101 45.6954V48.3352H40.3432V48.3275ZM51.2268 53.2058H46.9583C42.3656 53.2058 40.9221 54.7264 40.9221 57.2582C40.9221 59.4658 42.5508 61.0559 45.731 61.0559C48.4094 61.0559 50.2851 59.898 51.2268 59.103V53.2058ZM47.1049 41.89H46.0243L48.3708 36.8265H50.0381L47.1049 41.89Z" fill="#888888"/>
<path d="M75.3788 36.8265H79.7939V60.6159H82.4338V62.1365H77.9877V60.3303H77.9183C76.5057 61.5962 74.3059 62.4993 71.9516 62.4993C66.8881 62.4993 65.1513 58.4469 65.1513 53.0978C65.1513 47.7795 66.9575 43.6962 72.0211 43.6962C74.3367 43.6962 76.5057 44.5607 77.9183 45.8266H77.9877V38.378H75.3865V36.8265H75.3788ZM72.5614 60.9787C75.0237 60.9787 77.0846 59.7823 77.9877 59.0258V47.1697C77.0846 46.4441 75.0237 45.2554 72.5614 45.2554C68.2929 45.2554 67.0656 48.945 67.0656 53.0978C67.0656 57.2582 68.2929 60.9787 72.5614 60.9787Z" fill="#888888"/>
<path d="M86.4939 53.2058C86.5325 57.7291 88.3001 60.9787 93.5103 60.9787C95.4632 60.9787 97.2385 60.832 99.1528 60.2531L99.4075 61.7351C97.308 62.3141 95.6098 62.4916 93.2633 62.4916C86.8644 62.4916 84.5873 58.6245 84.5873 53.0901C84.5873 47.5943 86.8644 43.6885 93.0163 43.6885C100.426 43.6885 100.357 49.9408 99.5927 53.1981H86.4939V53.2058ZM86.4939 51.9786H97.8483C98.4967 48.9065 97.7402 45.1474 92.8928 45.1474C88.3078 45.1474 86.7486 48.2581 86.4939 51.9786Z" fill="#888888"/>
<path d="M109.095 36.8265H113.502V60.6159H116.142V62.1365H109.095V60.6159H111.696V38.3857H109.095V36.8265Z" fill="#888888"/>
<path d="M120.086 48.3276V44.3833C122.402 43.9124 124.748 43.6963 126.555 43.6963C130.607 43.6963 132.776 45.0702 132.776 49.5935V60.6237H135.416V62.1443H130.97V60.3381H130.9C129.094 61.7506 127.465 62.4376 125.227 62.4685C124.579 62.5071 123.923 62.4685 123.313 62.3604C120.742 61.9976 119.083 60.3689 118.936 57.8372C118.898 57.2969 118.936 56.7488 119.006 56.2471C119.438 53.2445 122.263 52.0172 126.454 52.0172H130.978V49.6707C130.978 46.7761 129.75 45.2632 126.207 45.2632C125.158 45.2632 123.745 45.3327 121.653 45.6955V48.3353H120.086V48.3276ZM130.97 53.2059H126.701C122.109 53.2059 120.665 54.7265 120.665 57.2583C120.665 59.4658 122.294 61.0559 125.474 61.0559C128.152 61.0559 130.028 59.8981 130.97 59.1031V53.2059Z" fill="#888888"/>
<path d="M150.367 48.3275V45.7263C148.129 45.2168 146.068 45.186 145.126 45.186C140.788 45.186 140.611 47.7563 140.611 48.3661C140.611 49.8481 141.22 51.2221 145.419 52.0557C149.541 52.9202 152.073 54.1166 152.073 57.2968C152.073 60.5541 149.974 62.507 145.852 62.507C143.173 62.507 140.68 62.2909 138.511 61.7506V57.9143H140.07V60.4847C142.347 61.025 144.702 61.025 145.674 61.025C150.051 61.025 150.267 58.1304 150.267 57.4126C150.267 55.9306 149.541 54.6261 145.273 53.7616C141.691 53.0746 138.804 51.9554 138.804 48.4124C138.804 45.4484 140.935 43.7117 145.026 43.7117C147.704 43.7117 149.726 43.9278 151.895 44.4681V48.3352H150.367V48.3275Z" fill="#888888"/>
<path d="M163.597 48.3276V44.3833C165.913 43.9124 168.259 43.6963 170.066 43.6963C174.118 43.6963 176.287 45.0702 176.287 49.5935V60.6237H178.927V62.1443H174.481V60.3381H174.411C172.605 61.7506 170.976 62.4376 168.738 62.4685C168.09 62.5071 167.434 62.4685 166.824 62.3604C164.253 61.9976 162.594 60.3689 162.447 57.8372C162.409 57.2969 162.447 56.7488 162.517 56.2471C162.949 53.2445 165.766 52.0172 169.965 52.0172H174.489V49.6707C174.489 46.7761 173.261 45.2632 169.718 45.2632C168.669 45.2632 167.256 45.3327 165.164 45.6955V48.3353H163.597V48.3276ZM174.481 53.2059H170.212C165.62 53.2059 164.176 54.7265 164.176 57.2583C164.176 59.4658 165.805 61.0559 168.985 61.0559C171.663 61.0559 173.539 59.8981 174.481 59.1031V53.2059Z" fill="#888888"/>
<path d="M179.845 44.059H184.253V56.2779C184.253 58.8792 185.303 60.9787 188.591 60.9787C191.269 60.9787 193.654 59.2419 194.92 58.1922V45.6182H191.485V44.0667H196.726V60.6236H199.366V62.1442H194.92V59.4349H194.851C192.937 61.2102 190.582 62.507 187.873 62.507C184.253 62.507 182.447 60.5155 182.447 56.6484V45.6182H179.845V44.059Z" fill="#888888"/>
<path d="M202.022 36.8265H206.429V60.6159H209.069V62.1365H202.022V60.6159H204.623V38.3857H202.022V36.8265Z" fill="#888888"/>
<path d="M213.013 48.3276V44.3833C215.329 43.9124 217.675 43.6963 219.482 43.6963C223.534 43.6963 225.703 45.0702 225.703 49.5935V60.6237H228.343V62.1443H223.897V60.3381H223.827C222.021 61.7506 220.392 62.4376 218.154 62.4685C217.506 62.5071 216.85 62.4685 216.24 62.3604C213.669 61.9976 212.01 60.3689 211.863 57.8372C211.825 57.2969 211.863 56.7488 211.933 56.2471C212.365 53.2445 215.182 52.0172 219.381 52.0172H223.905V49.6707C223.905 46.7761 222.677 45.2632 219.134 45.2632C218.085 45.2632 216.672 45.3327 214.58 45.6955V48.3353H213.013V48.3276ZM223.897 53.2059H219.628C215.036 53.2059 213.592 54.7265 213.592 57.2583C213.592 59.4658 215.221 61.0559 218.401 61.0559C221.079 61.0559 222.955 59.8981 223.897 59.1031V53.2059Z" fill="#888888"/>
<path d="M243.294 48.3275V45.7263C241.056 45.2168 238.995 45.186 238.053 45.186C233.715 45.186 233.538 47.7563 233.538 48.3661C233.538 49.8481 234.147 51.2221 238.346 52.0557C242.468 52.9202 245 54.1166 245 57.2968C245 60.5541 242.901 62.507 238.779 62.507C236.1 62.507 233.607 62.2909 231.438 61.7506V57.9143H232.997V60.4847C235.274 61.025 237.629 61.025 238.601 61.025C242.978 61.025 243.194 58.1304 243.194 57.4126C243.194 55.9306 242.468 54.6261 238.2 53.7616C234.618 53.0746 231.731 51.9554 231.731 48.4124C231.731 45.4484 233.862 43.7117 237.953 43.7117C240.631 43.7117 242.653 43.9278 244.822 44.4681V48.3352H243.294V48.3275Z" fill="#888888"/>
</svg>
