<svg width="276" height="123" viewBox="0 0 276 123" fill="none" xmlns="http://www.w3.org/2000/svg">
<path d="M14.5728 6.71655L14.0218 11.6458H18.4579L19.0089 6.71655H25.6631L25.1121 11.6458H30.6573L30.0498 17.6711H24.5046L23.8971 23.1519H29.4423L28.8348 29.1773H23.2896L22.7386 34.1065H16.0845L16.6354 29.1773H12.1993L11.6483 34.1065H4.9871L5.53808 29.1773H0L0.607494 23.1519H6.15264L6.76014 17.6711H1.22205L1.82955 11.6458H7.37469L7.92568 6.71655H14.5728ZM12.7998 23.1519H17.2359L17.8434 17.6711H13.4072L12.7998 23.1519Z" fill="#ED3259"/>
<path d="M46.9889 31.3627C48.9739 31.3627 50.7964 30.853 52.2657 30.071V23.7175H47.109V20.7781H56.0307V32.382C53.297 33.5201 50.5138 34.4976 46.7064 34.4976C37.8624 34.4976 35.2064 28.144 35.2064 20.5826C35.2064 13.133 37.4668 7.05872 46.7064 7.05872C49.758 7.05872 52.6542 7.4497 56.0307 8.43415V13.9219H53.0568V10.7452C50.3584 10.1587 48.7761 9.99809 46.9889 9.99809C40.7586 9.99809 39.1763 14.8994 39.1763 20.5826C39.1763 26.4614 41.1612 31.3627 46.9889 31.3627Z" fill="#0A4E9B"/>
<path d="M79.6382 7.44971V13.133H76.6643V10.3891H65.9484V18.8162H77.6462V21.7556H65.9484V31.1672H76.6572V28.4233H79.6311V34.1066H59.605V31.1672H62.1834V10.3891H59.605V7.44971H79.6382Z" fill="#0A4E9B"/>
<path d="M108.791 7.44971V10.3891H106.213V34.1066H102.327L89.1179 14.2291H89.0402V31.1672H91.7386V34.1066H83.0147V31.1672H85.5931V10.3891H83.0147V7.44971H89.2451L102.652 27.8368H102.73V10.3891H100.074V7.44971H108.791Z" fill="#0A4E9B"/>
<path d="M131.205 7.44971V13.133H128.231V10.3891H117.522V18.8162H129.22V21.7556H117.522V31.1672H128.231V28.4233H131.205V34.1066H111.171V31.1672H113.75V10.3891H111.171V7.44971H131.205Z" fill="#0A4E9B"/>
<path d="M148.264 7.44971C153.618 7.44971 156.592 10.7033 156.592 15.4091C156.592 19.1723 154.452 22.1117 150.8 22.7401L156.832 31.1672H158.775V34.1066H149.451V31.1672H152.071L146.674 23.3265H140.924V31.1672H143.503V34.1066H134.581V31.1672H137.159V10.3891H134.581V7.44971H148.264ZM140.924 20.3872H147.67C150.644 20.3872 152.707 18.6207 152.707 15.4091C152.707 12.351 150.842 10.3891 147.868 10.3891H140.924V20.3872Z" fill="#0A4E9B"/>
<path d="M177.063 7.44971L185.158 31.1672H187.341V34.1066H178.017V31.1672H181.068L179.324 25.9936H169.208L167.343 31.1672H170.282V34.1066H161.155V31.1672H163.656L171.073 10.3891H168.177V7.44971H177.063ZM174.407 10.7801L170.006 23.2497H178.653L174.45 10.7801H174.407Z" fill="#0A4E9B"/>
<path d="M209.55 27.6413V33.1291C206.181 34.1065 203.284 34.5045 200.226 34.5045C190.986 34.5045 188.726 28.2348 188.726 20.5896C188.726 13.1399 190.986 7.06567 200.226 7.06567C203.277 7.06567 206.174 7.45666 209.55 8.44111V13.9289H206.576V10.7521C203.878 10.1656 202.295 10.0051 200.508 10.0051C194.278 10.0051 192.696 14.9063 192.696 20.5896C192.696 26.6638 194.285 31.5651 200.508 31.5651C202.295 31.5651 203.878 31.4883 206.576 30.86V27.6483H209.55V27.6413Z" fill="#0A4E9B"/>
<path d="M215.307 31.1672V10.3891H212.729V7.44971H221.65V10.3891H219.072V31.1672H221.65V34.1066H212.729V31.1672H215.307Z" fill="#0A4E9B"/>
<path d="M224.427 20.5826C224.427 13.1329 226.687 7.05869 235.927 7.05869C245.131 7.05869 247.427 13.1329 247.427 20.5826C247.427 28.151 245.124 34.4975 235.927 34.4975C226.694 34.4975 224.427 28.151 224.427 20.5826ZM228.396 20.5826C228.396 26.2659 229.47 31.5582 235.934 31.5582C242.362 31.5582 243.471 26.2659 243.471 20.5826C243.471 14.8994 242.355 9.99807 235.934 9.99807C229.47 9.99807 228.396 14.8994 228.396 20.5826ZM237.481 5.48777H234.705L237.085 0H240.539L237.481 5.48777Z" fill="#0A4E9B"/>
<path d="M276 7.44971V10.3891H273.422V34.1066H269.537L256.327 14.2291H256.249V31.1672H258.948V34.1066H250.224V31.1672H252.802V10.3891H250.224V7.44971H256.454L269.861 27.8368H269.939V10.3891H267.283V7.44971H276Z" fill="#0A4E9B"/>
<path d="M275.456 51.5474H4.18887V123H275.456V51.5474Z" fill="#ED3259"/>
<path d="M62.2822 61.3569L74.6228 102.515H78.8612V113.184H55.7269V102.515H59.5061L58.4254 97.558H46.0918L44.7002 102.515H48.7902V113.184H26.426V102.515H31.2082L40.4619 72.0253H35.6796V61.3569H62.2822ZM52.6471 73.5543L48.8679 87.6577H56.0378L52.7248 73.5543H52.6471Z" fill="white"/>
<path d="M132.928 98.6402V113.037H92.2896V102.424H96.1253V72.109H92.2896V61.5035H113.757V72.109H109.921V102.424H122.191V98.6332H132.928V98.6402Z" fill="white"/>
<path d="M187.129 61.4198V75.8653H176.357V72.0602H164.045V82.7076H183.279V93.355H164.045V102.48H167.894V113.128H146.349V102.48H150.199V72.0602H146.349V61.4198H187.129Z" fill="white"/>
<path d="M236.336 61.4198L248.649 102.487H252.88V113.135H229.795V102.487H233.567L232.486 97.5441H220.174L218.79 102.487H222.865V113.135H200.551V102.487H205.319L214.551 72.0672H209.783V61.4198H236.336ZM226.715 73.5823L222.943 87.6508H230.099L226.793 73.5823H226.715Z" fill="white"/>
</svg>
