<svg width="412" height="67" viewBox="0 0 412 67" fill="none" xmlns="http://www.w3.org/2000/svg">
<path d="M242.838 24.7068C238.183 24.7195 235.392 28.26 235.392 34.402C235.392 39.846 238.348 43.7672 243.307 43.7672H243.358C246.465 43.7672 248.101 42.5363 248.355 42.2951L248.381 39.0211L248.241 39.1607C248.241 39.1607 246.351 40.9373 243.751 40.8612H243.637C240.111 40.5185 238.639 37.9552 238.754 33.9578C238.792 32.435 239.362 27.5621 242.825 27.5621C244.322 27.5621 245.451 28.4377 245.451 30.0366V30.1255H249.065V30.0366C249.065 27.524 247.429 24.7068 242.838 24.7068Z" fill="#888888"/>
<path d="M259.505 26.3192L261.509 22.7787L258.782 22.7153L257.678 26.3573H259.505V26.3192ZM328.884 25.0883L324.141 39.466L324.077 39.6818L324.001 39.466L319.765 26.2558C319.765 26.2558 319.422 25.1264 317.875 25.1264H316.175L322.238 43.273L322.225 43.3111L322.213 43.4126H325.802L325.828 43.3618L325.853 43.2857L332.043 25.0883H328.884ZM203.899 28.5527C203.849 28.3877 203.519 27.7278 202.644 27.7278H200.208L194.856 43.4253H197.989L199.308 39.3391L199.321 39.2884H204.483V39.3391L205.802 43.4253H208.922L208.884 43.2984L203.899 28.5527ZM200.056 36.9027L201.908 31.0399L203.735 36.9027H200.056ZM287.257 28.5527C287.219 28.3877 286.901 27.7278 286.014 27.7278H283.591L278.213 43.4253H281.359L282.652 39.3391L282.678 39.2884H287.84L287.865 39.3391L289.172 43.4253H292.292L292.267 43.2984L287.257 28.5527ZM283.426 36.9027L285.253 31.0399L287.092 36.9027H283.426ZM341.137 29.0603C340.871 28.1593 340.465 27.7278 339.222 27.7405C339.222 27.7405 339.184 27.7405 339.158 27.7405H337.319L331.954 43.438H335.061L336.393 39.3518L336.406 39.3011H341.581V39.3391L342.9 43.4253H346.02L345.982 43.2984L341.137 29.0603ZM337.142 36.9027L338.981 31.0399L340.807 36.9027H337.142ZM364.729 27.7913H361.748V43.438H370.715V41.0396H364.741V27.7913H364.729ZM352.134 27.7913H349.14V43.438H358.12V41.0396H352.134V27.7913ZM391.364 39.263C391.352 40.8365 390.781 41.3949 389.221 41.4203C388.371 41.4203 387.61 41.1538 387.128 40.9888L386.862 40.9L386.747 40.8619V43.3365L386.836 43.3618C386.836 43.3618 388.003 43.6537 389.221 43.6791V43.5903V43.6791C393.47 43.6791 394.358 41.966 394.358 39.1234V27.8039H391.377V39.263H391.364ZM404.644 27.5501C400.395 27.5501 398.302 30.2277 398.302 35.6083C398.302 40.9761 400.395 43.6537 404.644 43.6537C408.868 43.6537 410.999 40.8873 411.011 35.6083C411.011 30.2912 408.88 27.5501 404.644 27.5501ZM404.644 41.4076C402.589 41.4076 401.562 39.5549 401.562 35.6083C401.562 31.6236 402.589 29.7836 404.644 29.7836C406.724 29.7836 407.752 31.6236 407.752 35.6083C407.752 39.5676 406.724 41.4076 404.644 41.4076ZM97.6863 38.4001L92.6001 28.6796C92.5874 28.6669 92.1054 27.7532 90.9766 27.7659H88.6047V43.3999H91.3825V32.182L97.2043 43.3999H100.464V27.7786H97.6863V38.4001ZM105.576 43.4126H108.556V27.7786H105.576V43.4126ZM119.21 39.631L115.887 29.0476C115.735 28.5146 115.291 27.7659 114.086 27.7659H112.26L117.435 43.3999H120.885L120.897 43.3492L126.263 27.7405L123.13 27.7278L119.21 39.631ZM132.769 36.5093H138.743V34.1362H132.769V30.1516H139.086V27.7786H129.776V43.4126H139.263V41.0396H132.782V36.5093H132.769ZM255.738 36.5093H261.699V34.1362H255.738V30.1516H262.016V27.7786H252.732V43.4126H262.219V41.0396H255.738V36.5093ZM377.12 36.5093H383.107V34.1362H377.12V30.1516H383.424V27.7786H374.114V43.4126H383.615V41.0396H377.108V36.5093H377.12ZM153.571 38.8823L153.558 38.7808C153.253 37.4356 153 36.2174 151.516 35.6083L151.351 35.5195L151.516 35.4687C153.127 34.8976 153.875 33.7555 153.875 31.979C153.875 29.2125 152.137 27.7659 148.789 27.7659H143.956V43.3999H146.95V36.8646H147.761C150.019 36.89 150.222 37.5498 150.755 39.9609L151.516 43.3999H154.56L154.547 43.2984L153.571 38.8823ZM147.761 34.6438H146.95V30.0247H148.789C150.133 30.0374 150.818 30.7988 150.844 32.2708C150.831 33.9459 149.968 34.6185 147.761 34.6438ZM304.785 38.7808C304.494 37.4356 304.253 36.2174 302.781 35.6083L302.591 35.5195L302.781 35.4687C304.38 34.8976 305.141 33.7429 305.128 31.979C305.128 29.2125 303.378 27.7786 300.029 27.7659H295.197V43.3999H298.177V36.8646H299.002C301.272 36.89 301.45 37.5498 302.008 39.9609L302.743 43.3999H305.8L305.762 43.2984L304.785 38.7808ZM299.014 34.6438H298.19V30.0247H300.042C301.386 30.0374 302.084 30.7988 302.096 32.2708C302.071 33.9459 301.221 34.6185 299.014 34.6438ZM271.947 33.9967C270.413 33.1845 269.144 32.4612 269.157 31.446C269.157 29.9739 270.514 29.9739 271.199 29.9739H271.237C272.582 29.9739 273.698 30.215 274.674 30.6084L275.156 30.7988L275.271 30.8369V27.9943L275.207 27.9816C275.207 27.9816 273.634 27.5628 271.326 27.5501C271.326 27.5501 271.301 27.5501 271.262 27.5501C267.99 27.5501 265.91 29.1364 265.897 31.6617C265.91 34.1109 268.092 35.3037 269.994 36.357C271.643 37.258 273.165 38.1082 273.152 39.5041C273.127 40.1005 272.823 41.3695 270.565 41.3949C268.738 41.3949 267.483 40.3289 266.544 39.7706L266.316 39.6183L266.202 39.5422V42.7274L266.214 42.74C266.24 42.7527 267.762 43.5776 270.603 43.6537V43.5522V43.6537C274.218 43.6537 276.412 41.9533 276.412 39.1107C276.412 36.3824 273.901 35.0626 271.947 33.9967ZM164.542 33.9967C163.007 33.1845 161.739 32.4612 161.739 31.446C161.752 29.9739 163.096 29.9739 163.794 29.9739H163.844C165.176 29.9739 166.292 30.215 167.244 30.6084L167.751 30.7988L167.852 30.8369L167.865 27.9943L167.789 27.9816C167.789 27.9816 166.216 27.5628 163.92 27.5501C163.895 27.5248 163.882 27.5501 163.882 27.5501C160.559 27.5501 158.492 29.1364 158.492 31.6617C158.492 34.1109 160.686 35.3037 162.576 36.357C164.238 37.258 165.747 38.1082 165.747 39.5041C165.722 40.1005 165.404 41.3695 163.134 41.3949C161.32 41.3949 160.052 40.3289 159.139 39.7706L158.885 39.6183L158.771 39.5422V42.7274L158.809 42.74C158.809 42.74 160.344 43.5776 163.172 43.6537V43.5522V43.6537C166.787 43.6537 168.981 41.9533 168.981 39.1107C169.007 36.3824 166.508 35.0626 164.542 33.9967ZM173.141 43.4253H176.16V27.7786H173.141V43.4253ZM185.533 27.7786H181.551V43.4126H185.533C189.072 43.4126 192.408 42.4228 192.408 35.5575C192.408 30.012 190.455 27.7913 185.533 27.7786ZM185.533 41.0523H184.544V30.0374H185.533C188.616 30.0501 189.148 31.7759 189.161 35.5068C189.136 40.3036 187.918 41.0396 185.533 41.0523ZM216.456 27.7786H212.474V43.4126H216.456C219.995 43.4126 223.344 42.4228 223.356 35.5575C223.344 30.012 221.378 27.7913 216.456 27.7786ZM216.456 41.0523H215.467V30.0374H216.456C219.551 30.0501 220.071 31.7759 220.071 35.5068C220.058 40.3036 218.828 41.0396 216.456 41.0523ZM80.4364 38.2859C80.4364 40.1767 79.2061 41.1284 77.4685 41.1411C75.7054 41.1284 74.5639 40.1767 74.5639 38.2859V25.1264H71.4944V38.5524C71.5198 41.7375 73.6634 43.6537 77.2021 43.6537H77.8109C81.3877 43.6537 83.4805 41.7756 83.4932 38.5524V25.1264H80.4238V38.2859H80.4364Z" fill="#888888"/>
<path d="M27.8494 66.432V27.6768C3.6743 17.5122 0.0594482 0 0.0594482 0V38.5648C0.0594482 52.4857 27.8494 66.432 27.8494 66.432ZM34.5337 24.0983V62.6377C36.7026 61.2799 39.214 59.6302 41.738 57.7394L41.7253 20.9258C10.0161 17.9309 0.0594482 0 0.0594482 0C10.8659 22.0298 34.5337 24.0983 34.5337 24.0983ZM55.6394 5.90084V0C46.9383 2.63951 37.5778 4.09886 27.8494 4.11155C18.121 4.09886 8.77314 2.63951 0.0594482 0C0.0594482 0 21.2158 12.9692 55.6394 5.90084ZM48.4477 16.7381V51.9527C52.5445 47.8285 55.6394 43.1967 55.6394 38.5648V12.157C50.6166 12.6392 39.8608 13.223 28.547 11.1291C15.0896 8.62918 6.8579 5.29172 0.0594482 0C16.2058 17.1315 48.4477 16.7381 48.4477 16.7381Z" fill="#888888"/>
</svg>
