<svg width="73" height="66" viewBox="0 0 73 66" fill="none" xmlns="http://www.w3.org/2000/svg">
<path d="M44.263 37.9128L37.3296 34.195C36.5296 33.6639 35.1963 33.6639 34.3963 34.195L27.1962 37.9128L28.5295 29.946C28.7962 28.8838 28.2628 27.8216 27.7295 27.0249L21.8628 21.7137L29.8629 20.6514C30.9295 20.3859 31.7296 19.8548 32.2629 18.7925L35.7296 11.6224L39.1963 18.7925C39.7297 19.8548 40.5297 20.3859 41.5963 20.6514L49.5964 21.7137L43.9964 27.2904C43.1964 28.0871 42.9297 29.1494 43.1964 30.2116L44.263 37.9128ZM25.8628 23.0415L29.0629 25.9626C30.1295 27.0249 30.6629 28.6182 30.3962 30.4772L29.5962 34.7261L33.3296 32.6016C34.6629 31.805 36.5296 31.805 37.863 32.6016L41.5963 34.7261L40.7963 30.4772C40.5297 28.8838 41.063 27.2904 42.1297 25.9626L45.3297 23.0415L41.063 22.5104C39.463 22.2448 38.1296 21.1826 37.3296 19.8548L35.4629 15.8714L33.8629 19.5892C33.0629 21.1826 31.7296 21.9792 30.1295 22.2448L25.8628 23.0415Z" fill="white"/>
<path d="M44.263 37.9128L37.3296 34.195C36.5296 33.6639 35.1963 33.6639 34.3963 34.195L27.1962 37.9128L28.5295 29.946C28.7962 28.8838 28.2628 27.8216 27.7295 27.0249L21.8628 21.7137L29.8629 20.6514C30.9295 20.3859 31.7296 19.8548 32.2629 18.7925L35.7296 11.6224L39.1963 18.7925C39.7296 19.8548 40.5297 20.3859 41.5963 20.6514L49.5964 21.7137L43.9964 27.2904C43.1964 28.0871 42.9297 29.1494 43.1964 30.2116L44.263 37.9128ZM25.8628 23.0415L29.0629 25.9626C30.1295 27.0249 30.6629 28.6182 30.3962 30.4772L29.5962 34.7261L33.3296 32.6016C34.6629 31.805 36.5296 31.805 37.863 32.6016L41.5963 34.7261L40.7963 30.4772C40.5297 28.8838 41.063 27.2904 42.1297 25.9626L45.3297 23.0415L41.063 22.5104C39.463 22.2448 38.1296 21.1826 37.3296 19.8548L35.4629 15.8714L33.8629 19.5892C33.0629 21.1826 31.7296 21.9792 30.1295 22.2448L25.8628 23.0415Z" stroke="white" stroke-width="0.25" stroke-miterlimit="10"/>
<path d="M35.7296 48.8008C22.6627 48.8008 11.7293 38.1784 11.7293 24.9004C11.7293 11.888 22.3961 1 35.7296 1C48.7964 1 59.7299 11.6224 59.7299 24.9004C59.4632 38.1784 48.7964 48.8008 35.7296 48.8008ZM35.7296 3.12448C23.4628 3.12448 13.596 12.9502 13.596 25.166C13.596 37.3818 23.4628 47.2075 35.7296 47.2075C47.9964 47.2075 57.8632 37.3818 57.8632 25.166C57.8632 12.9502 47.9964 3.12448 35.7296 3.12448Z" fill="white"/>
<path d="M35.7296 48.8008C22.6627 48.8008 11.7293 38.1784 11.7293 24.9004C11.7293 11.888 22.3961 1 35.7296 1C48.7964 1 59.7299 11.6224 59.7299 24.9004C59.4632 38.1784 48.7964 48.8008 35.7296 48.8008ZM35.7296 3.12448C23.4628 3.12448 13.596 12.9502 13.596 25.166C13.596 37.3818 23.4628 47.2075 35.7296 47.2075C47.9964 47.2075 57.8632 37.3818 57.8632 25.166C57.8632 12.9502 47.9964 3.12448 35.7296 3.12448Z" stroke="white" stroke-width="0.25" stroke-miterlimit="10"/>
<path d="M53.5964 25.9627C53.0631 25.9627 52.7964 25.6971 52.7964 25.166C52.7964 15.8714 45.063 8.17012 35.7296 8.17012C26.3961 8.17012 18.6627 15.8714 18.6627 25.166C18.6627 25.6971 18.1294 25.9627 17.8627 25.9627C17.3294 25.9627 17.0627 25.6971 17.0627 25.166C16.796 14.8091 25.3294 6.3112 35.7296 6.3112C46.1297 6.3112 54.6631 14.8091 54.6631 25.166C54.6631 25.6971 54.1298 25.9627 53.5964 25.9627Z" fill="white"/>
<path d="M53.5964 25.9627C53.0631 25.9627 52.7964 25.6971 52.7964 25.166C52.7964 15.8714 45.063 8.17012 35.7296 8.17012C26.3961 8.17012 18.6627 15.8714 18.6627 25.166C18.6627 25.6971 18.1294 25.9627 17.8627 25.9627C17.3294 25.9627 17.0627 25.6971 17.0627 25.166C16.796 14.8091 25.3294 6.3112 35.7296 6.3112C46.1297 6.3112 54.6631 14.8091 54.6631 25.166C54.6631 25.6971 54.1298 25.9627 53.5964 25.9627Z" stroke="white" stroke-width="0.25" stroke-miterlimit="10"/>
<path d="M53.3298 65L41.063 47.7386C40.7963 47.2075 40.7963 46.6764 41.3296 46.4108C41.863 46.1452 42.3963 46.1452 42.663 46.6764L52.5298 60.4855L54.1298 50.3942L64.2633 51.9876L56.2632 41.3651C55.9965 40.834 55.9965 40.3029 56.5298 40.0373C57.0632 39.7718 57.5965 39.7718 57.8632 40.3029L68.53 54.6432L55.9965 52.5187L53.3298 65Z" fill="white"/>
<path d="M53.3298 65L41.063 47.7386C40.7963 47.2075 40.7963 46.6764 41.3296 46.4108C41.863 46.1452 42.3963 46.1452 42.663 46.6764L52.5298 60.4855L54.1298 50.3942L64.2633 51.9876L56.2632 41.3651C55.9965 40.834 55.9965 40.3029 56.5298 40.0373C57.0632 39.7718 57.5965 39.7718 57.8632 40.3029L68.53 54.6432L55.9965 52.5187L53.3298 65Z" stroke="white" stroke-width="0.25" stroke-miterlimit="10"/>
<path d="M18.1294 65L15.996 52.5187L3.46252 54.6432L14.1293 40.3029C14.396 40.0374 14.9293 39.7718 15.4627 40.0374C15.996 40.3029 15.996 40.834 15.7293 41.3652L7.72924 51.9876L17.8627 50.3942L19.4627 60.4855L29.3295 46.6764C29.5962 46.1452 30.1295 46.1452 30.6628 46.4108C31.1962 46.6764 31.1962 47.2075 30.9295 47.7386L18.1294 65Z" fill="white"/>
<path d="M18.1294 65L15.996 52.5187L3.46252 54.6432L14.1293 40.3029C14.396 40.0374 14.9293 39.7718 15.4627 40.0374C15.996 40.3029 15.996 40.834 15.7293 41.3652L7.72924 51.9876L17.8627 50.3942L19.4627 60.4855L29.3295 46.6764C29.5962 46.1452 30.1295 46.1452 30.6628 46.4108C31.1962 46.6764 31.1962 47.2075 30.9295 47.7386L18.1294 65Z" stroke="white" stroke-width="0.25" stroke-miterlimit="10"/>
</svg>
