<svg width="408" height="171" viewBox="0 0 408 171" fill="none" xmlns="http://www.w3.org/2000/svg">
<path d="M392 84H16C7.71573 84 1 77.2843 1 69V31.6154C1 23.3311 7.71573 16.6154 16 16.6154H74.0211L87.1365 3.43474C88.3949 2.16998 90.5542 3.06123 90.5542 4.84543V16.6154L391.978 16.1758C400.271 16.1637 407 22.8829 407 31.1757V69C407 77.2843 400.284 84 392 84Z" stroke="#04BEFB" stroke-width="2"/>
<path d="M19.72 30.2V37.64H22.96V63.56H19.72V71H38.56C52.9 71 57.04 61.94 57.04 50.3C57.04 38.66 52.9 30.2 38.56 30.2H19.72ZM32.5 63.56V37.64H38.56C45.52 37.64 46.96 42.5 46.96 50.3C46.96 58.1 45.52 63.56 38.56 63.56H32.5ZM58.6848 63.56V71H74.7048V63.56H71.4648V37.64H74.7048V30.2H58.6848V37.64H61.9248V63.56H58.6848ZM86.4213 50.3C86.4213 42.5 89.0013 37.04 95.6613 37.04C97.7013 37.04 99.5613 37.16 102.441 37.7V42.14H109.881V31.94C104.121 30.2 99.8613 29.6 94.8813 29.6C80.3613 29.6 76.3413 38.66 76.3413 50.3C76.3413 61.94 80.5413 71.6 94.8813 71.6C100.161 71.6 104.361 70.76 109.881 69.02V49.7H94.8213V57.14H100.341V63.02C98.7813 63.44 97.2813 63.68 95.6613 63.68C89.1813 63.68 86.4213 58.64 86.4213 50.3ZM112.708 63.56V71H128.728V63.56H125.488V37.64H128.728V30.2H112.708V37.64H115.948V63.56H112.708ZM130.469 30.2V40.94H137.909V37.64H142.109V63.56H138.869V71H154.829V63.56H151.589V37.64H155.789V40.94H163.169V30.2H130.469ZM166.746 30.2V37.64H170.646L162.426 63.56H158.646V71H175.146V63.56H171.666L173.226 58.64H184.206L185.526 63.56H182.166V71H199.146V63.56H195.906L185.586 30.2H166.746ZM179.046 38.66L182.586 51.74H175.146L178.986 38.66H179.046ZM224.598 60.26V63.56H213.438V37.64H216.678V30.2H200.658V37.64H203.897V63.56H200.658V71H232.038V60.26H224.598ZM249.846 18.8H241.326L238.206 27.2H245.106L249.846 18.8ZM233.646 63.56V71H249.666V63.56H246.426V37.64H249.666V30.2H233.646V37.64H236.886V63.56H233.646ZM253.027 30.2V40.94H260.407V37.64H270.487V37.76L251.887 64.1V71H282.547V60.26H275.107V63.56H263.527V63.44L281.887 37.1V30.2H253.027ZM292.781 30.2V37.64H296.681L288.461 63.56H284.681V71H301.181V63.56H297.701L299.261 58.64H310.241L311.561 63.56H308.201V71H325.181V63.56H321.941L311.621 30.2H292.781ZM305.081 38.66L308.621 51.74H301.181L305.021 38.66H305.081ZM320.665 30.2V40.94H328.105V37.64H332.305V63.56H329.065V71H345.025V63.56H341.785V37.64H345.985V40.94H353.365V30.2H320.665ZM355.169 30.2V37.64H358.409V63.56H355.169V71H387.089V60.26H379.649V63.56H367.949V53.66H384.089V46.28H367.949V37.64H379.649V40.94H387.089V30.2H355.169ZM27.82 112.2V119.64H31.72L23.5 145.56H19.72V153H36.22V145.56H32.74L34.3 140.64H45.28L46.6 145.56H43.24V153H60.22V145.56H56.98L46.66 112.2H27.82ZM40.12 120.66L43.66 133.74H36.22L40.06 120.66H40.12ZM85.0717 145.56V153H101.032V145.56H97.8517V119.64H101.032V112.2H85.0717V119.64H88.3117V128.28H74.5117V119.64H77.7517V112.2H61.7317V119.64H64.9717V145.56H61.7317V153H77.7517V145.56H74.5117V135.66H88.3117V145.56H85.0717ZM121.248 119.04C128.388 119.04 129.708 124.5 129.708 132.3C129.708 140.1 128.388 146.16 121.248 146.16C114.108 146.16 112.788 140.1 112.788 132.3C112.788 124.5 114.108 119.04 121.248 119.04ZM121.248 153.6C135.768 153.6 139.788 143.94 139.788 132.3C139.788 120.66 135.768 111.6 121.248 111.6C106.728 111.6 102.708 120.66 102.708 132.3C102.708 143.94 106.728 153.6 121.248 153.6ZM141.419 112.2V119.64H144.659V145.56H141.419V153H157.439V145.56H154.199V138.06H158.699L164.279 145.56H162.359V153H178.919V145.56H176.339L169.199 136.5C173.699 134.88 176.339 130.56 176.339 125.16C176.339 116.82 171.119 112.2 162.359 112.2H141.419ZM154.199 119.64H161.339C164.219 119.64 166.559 121.26 166.559 125.16C166.559 129.06 164.159 130.68 161.219 130.68H154.199V119.64ZM188.543 112.2V119.64H192.443L184.223 145.56H180.443V153H196.943V145.56H193.463L195.023 140.64H206.003L207.323 145.56H203.963V153H220.943V145.56H217.703L207.383 112.2H188.543ZM200.843 120.66L204.383 133.74H196.943L200.783 120.66H200.843Z" fill="#04BEFB"/>
<path d="M1 112C1 104.268 7.26801 98 15 98H234.5C242.232 98 248.5 104.268 248.5 112V153C248.5 160.732 242.232 167 234.5 167H15C7.26801 167 1 160.732 1 153V112Z" stroke="#04BEFB" stroke-width="2"/>
</svg>
