<svg width="369" height="171" viewBox="0 0 369 171" fill="none" xmlns="http://www.w3.org/2000/svg">
<path d="M287.5 84H16C7.71573 84 1 77.2843 1 69V31.6154C1 23.3311 7.71573 16.6154 16 16.6154H74.0211L87.1365 3.43474C88.3949 2.16998 90.5542 3.06123 90.5542 4.84543V16.6154L287.467 16.1866C295.764 16.1685 302.5 22.8895 302.5 31.1865V69C302.5 77.2843 295.784 84 287.5 84Z" stroke="#CFED08" stroke-width="1.5"/>
<path d="M30.64 50.3C30.64 42.5 33.22 37.04 39.88 37.04C41.92 37.04 43.78 37.16 46.66 37.7V42.14H54.1V31.94C48.34 30.2 44.08 29.6 39.1 29.6C24.58 29.6 20.56 38.66 20.56 50.3C20.56 61.94 24.76 71.6 39.1 71.6C44.38 71.6 48.58 70.76 54.1 69.02V49.7H39.04V57.14H44.56V63.02C43 63.44 41.5 63.68 39.88 63.68C33.4 63.68 30.64 58.64 30.64 50.3ZM56.927 30.2V37.64H60.167V63.56H56.927V71H72.947V63.56H69.707V56.06H74.207L79.787 63.56H77.867V71H94.427V63.56H91.847L84.707 54.5C89.207 52.88 91.847 48.56 91.847 43.16C91.847 34.82 86.627 30.2 77.867 30.2H56.927ZM69.707 37.64H76.847C79.727 37.64 82.067 39.26 82.067 43.16C82.067 47.06 79.667 48.68 76.727 48.68H69.707V37.64ZM104.05 30.2V37.64H107.95L99.7305 63.56H95.9505V71H112.45V63.56H108.97L110.53 58.64H121.51L122.83 63.56H119.47V71H136.45V63.56H133.21L122.89 30.2H104.05ZM116.35 38.66L119.89 51.74H112.45L116.29 38.66H116.35ZM162.442 30.2V37.64H165.922V55.1H165.802L150.502 30.2H137.962V37.64H141.202V63.56H137.962V71H153.442V63.56H149.962V47.42H150.082L164.902 71H174.682V37.64H177.862V30.2H162.442ZM179.388 30.2V37.64H182.628V63.56H179.388V71H198.228C212.568 71 216.708 61.94 216.708 50.3C216.708 38.66 212.568 30.2 198.228 30.2H179.388ZM192.168 63.56V37.64H198.228C205.188 37.64 206.628 42.5 206.628 50.3C206.628 58.1 205.188 63.56 198.228 63.56H192.168ZM218.353 30.2V37.64H221.593V63.56H218.353V71H250.273V60.26H242.833V63.56H231.133V53.66H247.273V46.28H231.133V37.64H242.833V40.94H250.273V30.2H218.353ZM253.412 58.58V69.26C259.172 71 264.512 71.6 269.252 71.6C278.072 71.6 285.092 67.7 285.092 58.7C285.092 51.56 279.512 48.02 272.252 46.34C267.092 45.14 263.552 43.76 263.552 41.06C263.552 38.9 265.412 37.58 268.712 37.58C270.812 37.58 272.852 37.7 275.972 38.3V42.68H283.412V31.94C277.652 30.2 273.452 29.6 268.712 29.6C260.492 29.6 253.472 32.9 253.472 41.3C253.472 48.2 258.692 52.16 265.952 54.26C270.872 55.7 275.012 56.48 275.012 59.78C275.012 62.18 273.092 63.68 269.252 63.68C267.152 63.68 264.452 63.32 260.852 62.6V58.58H253.412ZM19.72 145.56V153H35.74V145.56H32.5V119.64H35.74V112.2H19.72V119.64H22.96V145.56H19.72ZM61.6609 112.2V119.64H65.1409V137.1H65.0209L49.7209 112.2H37.1809V119.64H40.4209V145.56H37.1809V153H52.6609V145.56H49.1809V129.42H49.3009L64.1209 153H73.9009V119.64H77.0809V112.2H61.6609ZM88.3548 132.3C88.3548 124.5 90.9348 119.04 97.5948 119.04C99.6348 119.04 101.495 119.16 104.375 119.7V124.14H111.815V113.94C106.055 112.2 101.795 111.6 96.8148 111.6C82.2948 111.6 78.2748 120.66 78.2748 132.3C78.2748 143.94 82.4748 153.6 96.8148 153.6C102.095 153.6 106.295 152.76 111.815 151.02V131.7H96.7548V139.14H102.275V145.02C100.715 145.44 99.2148 145.68 97.5948 145.68C91.1148 145.68 88.3548 140.64 88.3548 132.3ZM114.642 112.2V119.64H117.882V145.56H114.642V153H146.562V142.26H139.122V145.56H127.422V135.66H143.562V128.28H127.422V119.64H139.122V122.94H146.562V112.2H114.642ZM173.341 112.2V119.64H176.821V137.1H176.701L161.401 112.2H148.861V119.64H152.101V145.56H148.861V153H164.341V145.56H160.861V129.42H160.981L175.801 153H185.581V119.64H188.761V112.2H173.341ZM190.286 145.56V153H206.306V145.56H203.066V119.64H206.306V112.2H190.286V119.64H193.526V145.56H190.286ZM207.747 112.2V119.64H210.987V145.56H207.747V153H239.667V142.26H232.227V145.56H220.527V135.66H236.667V128.28H220.527V119.64H232.227V122.94H239.667V112.2H207.747ZM241.966 112.2V119.64H245.206V145.56H241.966V153H257.986V145.56H254.746V138.06H259.246L264.826 145.56H262.906V153H279.466V145.56H276.886L269.746 136.5C274.246 134.88 276.886 130.56 276.886 125.16C276.886 116.82 271.666 112.2 262.906 112.2H241.966ZM254.746 119.64H261.886C264.766 119.64 267.106 121.26 267.106 125.16C267.106 129.06 264.706 130.68 261.766 130.68H254.746V119.64ZM298.495 119.04C305.635 119.04 306.955 124.5 306.955 132.3C306.955 140.1 305.635 146.16 298.495 146.16C291.355 146.16 290.035 140.1 290.035 132.3C290.035 124.5 291.355 119.04 298.495 119.04ZM298.495 153.6C313.015 153.6 317.035 143.94 317.035 132.3C317.035 120.66 313.015 111.6 298.495 111.6C283.975 111.6 279.955 120.66 279.955 132.3C279.955 143.94 283.975 153.6 298.495 153.6ZM319.505 140.58V151.26C325.265 153 330.605 153.6 335.345 153.6C344.165 153.6 351.185 149.7 351.185 140.7C351.185 133.56 345.605 130.02 338.345 128.34C333.185 127.14 329.645 125.76 329.645 123.06C329.645 120.9 331.505 119.58 334.805 119.58C336.905 119.58 338.945 119.7 342.065 120.3V124.68H349.505V113.94C343.745 112.2 339.545 111.6 334.805 111.6C326.585 111.6 319.565 114.9 319.565 123.3C319.565 130.2 324.785 134.16 332.045 136.26C336.965 137.7 341.105 138.48 341.105 141.78C341.105 144.18 339.185 145.68 335.345 145.68C333.245 145.68 330.545 145.32 326.945 144.6V140.58H319.505Z" fill="#CFED08"/>
<path d="M15 97.75H354C361.87 97.75 368.25 104.13 368.25 112V153C368.25 160.87 361.87 167.25 354 167.25H15C7.12995 167.25 0.75 160.87 0.75 153V112C0.75 104.13 7.12994 97.75 15 97.75Z" stroke="#CFED08" stroke-width="1.5"/>
</svg>
