<svg width="481" height="171" viewBox="0 0 481 171" fill="none" xmlns="http://www.w3.org/2000/svg">
<path d="M465 84H16C7.71573 84 1 77.2843 1 69V31.6154C1 23.3311 7.71573 16.6154 16 16.6154H74.0211L87.1365 3.43473C88.3949 2.16998 90.5542 3.06123 90.5542 4.84543V16.6154L464.982 16.1716C473.273 16.1618 480 22.8804 480 31.1716V69C480 77.2843 473.284 84 465 84Z" stroke="#04BEFB" stroke-width="2"/>
<path d="M43.06 63.56V71H59.02V63.56H55.84V37.64H59.02V30.2H43.06V37.64H46.3V46.28H32.5V37.64H35.74V30.2H19.72V37.64H22.96V63.56H19.72V71H35.74V63.56H32.5V53.66H46.3V63.56H43.06ZM60.5013 30.2V37.64H63.7412V63.56H60.5013V71H92.4213V60.26H84.9813V63.56H73.2813V53.66H89.4213V46.28H73.2813V37.64H84.9813V40.94H92.4213V30.2H60.5013ZM94.72 30.2V37.64H97.96V63.56H94.72V71H110.74V63.56H107.5V56.06H112L117.58 63.56H115.66V71H132.22V63.56H129.64L122.5 54.5C127 52.88 129.64 48.56 129.64 43.16C129.64 34.82 124.42 30.2 115.66 30.2H94.72ZM107.5 37.64H114.64C117.52 37.64 119.86 39.26 119.86 43.16C119.86 47.06 117.46 48.68 114.52 48.68H107.5V37.64ZM133.743 30.2V37.64H136.983V63.56H133.743V71H149.763V63.56H146.523V56.06H151.023L156.603 63.56H154.683V71H171.243V63.56H168.663L161.523 54.5C166.023 52.88 168.663 48.56 168.663 43.16C168.663 34.82 163.443 30.2 154.683 30.2H133.743ZM146.523 37.64H153.663C156.543 37.64 158.883 39.26 158.883 43.16C158.883 47.06 156.483 48.68 153.543 48.68H146.523V37.64ZM180.867 30.2V37.64H184.767L176.547 63.56H172.767V71H189.267V63.56H185.787L187.347 58.64H198.327L199.647 63.56H196.287V71H213.267V63.56H210.027L199.707 30.2H180.867ZM193.167 38.66L196.707 51.74H189.267L193.107 38.66H193.167ZM249.099 30.2L239.919 55.16H239.799L229.659 30.2H214.779V37.64H218.019V63.56H214.779V71H230.259V63.56H226.779V47.24H226.899L236.199 71H242.259L250.839 47.24H250.959V63.56H247.719V71H263.679V63.56H260.499V37.64H263.679V30.2H249.099ZM265.169 63.56V71H281.189V63.56H277.949V37.64H281.189V30.2H265.169V37.64H268.409V63.56H265.169ZM282.63 30.2V37.64H285.87V63.56H282.63V71H314.55V60.26H307.11V63.56H295.41V53.66H311.55V46.28H295.41V37.64H307.11V40.94H314.55V30.2H282.63ZM341.329 30.2V37.64H344.809V55.1H344.689L329.389 30.2H316.849V37.64H320.089V63.56H316.849V71H332.329V63.56H328.849V47.42H328.969L343.789 71H353.569V37.64H356.749V30.2H341.329ZM358.575 30.2V40.94H366.015V37.64H370.215V63.56H366.975V71H382.935V63.56H379.695V37.64H383.895V40.94H391.275V30.2H358.575ZM394.851 30.2V37.64H398.751L390.531 63.56H386.751V71H403.251V63.56H399.771L401.331 58.64H412.311L413.631 63.56H410.271V71H427.251V63.56H424.011L413.691 30.2H394.851ZM407.151 38.66L410.691 51.74H403.251L407.091 38.66H407.151ZM428.783 58.58V69.26C434.543 71 439.883 71.6 444.623 71.6C453.443 71.6 460.463 67.7 460.463 58.7C460.463 51.56 454.883 48.02 447.623 46.34C442.463 45.14 438.923 43.76 438.923 41.06C438.923 38.9 440.783 37.58 444.083 37.58C446.183 37.58 448.223 37.7 451.343 38.3V42.68H458.783V31.94C453.023 30.2 448.823 29.6 444.083 29.6C435.863 29.6 428.843 32.9 428.843 41.3C428.843 48.2 434.063 52.16 441.323 54.26C446.243 55.7 450.383 56.48 450.383 59.78C450.383 62.18 448.463 63.68 444.623 63.68C442.523 63.68 439.823 63.32 436.223 62.6V58.58H428.783ZM19.72 112.2V119.64H22.96V145.56H19.72V153H38.56C52.9 153 57.04 143.94 57.04 132.3C57.04 120.66 52.9 112.2 38.56 112.2H19.72ZM32.5 145.56V119.64H38.56C45.52 119.64 46.96 124.5 46.96 132.3C46.96 140.1 45.52 145.56 38.56 145.56H32.5ZM58.6848 145.56V153H74.7048V145.56H71.4648V119.64H74.7048V112.2H58.6848V119.64H61.9248V145.56H58.6848ZM86.4213 132.3C86.4213 124.5 89.0013 119.04 95.6613 119.04C97.7013 119.04 99.5613 119.16 102.441 119.7V124.14H109.881V113.94C104.121 112.2 99.8613 111.6 94.8813 111.6C80.3613 111.6 76.3413 120.66 76.3413 132.3C76.3413 143.94 80.5413 153.6 94.8813 153.6C100.161 153.6 104.361 152.76 109.881 151.02V131.7H94.8213V139.14H100.341V145.02C98.7813 145.44 97.2813 145.68 95.6613 145.68C89.1813 145.68 86.4213 140.64 86.4213 132.3ZM112.708 145.56V153H128.728V145.56H125.488V119.64H128.728V112.2H112.708V119.64H115.948V145.56H112.708ZM130.469 112.2V122.94H137.909V119.64H142.109V145.56H138.869V153H154.829V145.56H151.589V119.64H155.789V122.94H163.169V112.2H130.469ZM166.746 112.2V119.64H170.646L162.426 145.56H158.646V153H175.146V145.56H171.666L173.226 140.64H184.206L185.526 145.56H182.166V153H199.146V145.56H195.906L185.586 112.2H166.746ZM179.046 120.66L182.586 133.74H175.146L178.986 120.66H179.046ZM224.598 142.26V145.56H213.438V119.64H216.678V112.2H200.658V119.64H203.897V145.56H200.658V153H232.038V142.26H224.598ZM233.646 112.2V119.64H236.886V145.56H233.646V153H265.566V142.26H258.126V145.56H246.426V135.66H262.566V128.28H246.426V119.64H258.126V122.94H265.566V112.2H233.646ZM268.705 140.58V151.26C274.465 153 279.805 153.6 284.545 153.6C293.365 153.6 300.385 149.7 300.385 140.7C300.385 133.56 294.805 130.02 287.545 128.34C282.385 127.14 278.845 125.76 278.845 123.06C278.845 120.9 280.705 119.58 284.005 119.58C286.105 119.58 288.145 119.7 291.265 120.3V124.68H298.705V113.94C292.945 112.2 288.745 111.6 284.005 111.6C275.785 111.6 268.765 114.9 268.765 123.3C268.765 130.2 273.985 134.16 281.245 136.26C286.165 137.7 290.305 138.48 290.305 141.78C290.305 144.18 288.385 145.68 284.545 145.68C282.445 145.68 279.745 145.32 276.145 144.6V140.58H268.705Z" fill="#04BEFB"/>
<rect x="1" y="98" width="322" height="69" rx="14" stroke="#04BEFB" stroke-width="2"/>
</svg>
