<svg width="64" height="64" viewBox="0 0 64 64" fill="none" xmlns="http://www.w3.org/2000/svg">
<path d="M32.0103 64C23.4512 64 15.4146 60.6767 9.38459 54.6362C4.2115 49.4631 0.950885 42.6179 0.187985 35.3651C-0.564465 28.2064 1.12855 20.9432 4.9535 14.9027C5.11026 14.6519 5.39243 14.5056 5.68505 14.5056C5.85226 14.5056 6.00902 14.5578 6.14488 14.6414C6.34344 14.7668 6.46885 14.9549 6.5211 15.1848C6.57335 15.4043 6.53155 15.6342 6.40614 15.8328C-1.09745 27.6839 0.668717 43.4958 10.5969 53.4239C16.3029 59.13 23.911 62.2756 32.0103 62.2756C40.1096 62.2756 47.7177 59.13 53.4238 53.4239C59.1299 47.7178 62.2755 40.1097 62.2755 32.0104C62.2755 23.9112 59.1299 16.3031 53.4238 10.597C47.6759 4.84912 40.0678 1.68256 32.0312 1.68256C26.3356 1.68256 20.7549 3.30242 15.8849 6.37492C15.7491 6.45852 15.5923 6.51078 15.4251 6.51078C15.122 6.51078 14.8503 6.35402 14.6935 6.11365C14.4427 5.71652 14.5577 5.17309 14.9653 4.92227C20.0443 1.69301 25.9594 0 32.0312 0C33.1494 0 34.2886 0.0627041 35.3963 0.177662C42.6491 0.940562 49.4839 4.21163 54.6361 9.37426C60.6766 15.4043 63.9999 23.4513 63.9999 32.0104C63.9999 40.5696 60.6766 48.6061 54.6361 54.6466C48.606 60.6767 40.5694 64 32.0103 64Z" fill="#04BEFB"/>
<path d="M54.3752 32.8988C53.8945 32.8988 53.5078 32.5121 53.5078 32.0313C53.5078 31.5506 53.8945 31.1639 54.3752 31.1639H56.4967C56.9774 31.1639 57.3641 31.5506 57.3641 32.0313C57.3641 32.5121 56.9774 32.8988 56.4967 32.8988H54.3752Z" fill="#04BEFB"/>
<path d="M7.51389 32.8465C7.03316 32.8465 6.64648 32.4598 6.64648 31.9791C6.64648 31.4984 7.03316 31.1117 7.51389 31.1117H9.63538C10.1161 31.1117 10.5028 31.4984 10.5028 31.9791C10.5028 32.4598 10.1161 32.8465 9.63538 32.8465H7.51389Z" fill="#04BEFB"/>
<path d="M32.0315 10.5029C31.5507 10.5029 31.1641 10.1162 31.1641 9.6355V7.51401C31.1641 7.03328 31.5507 6.64661 32.0315 6.64661C32.5122 6.64661 32.8989 7.03328 32.8989 7.51401V9.6355C32.8989 10.1162 32.5122 10.5029 32.0315 10.5029Z" fill="#04BEFB"/>
<path d="M31.9792 57.3638C31.4985 57.3638 31.1118 56.9771 31.1118 56.4964V54.3749C31.1118 53.8942 31.4985 53.5075 31.9792 53.5075C32.46 53.5075 32.8466 53.8942 32.8466 54.3749V56.4964C32.8466 56.9771 32.46 57.3638 31.9792 57.3638Z" fill="#04BEFB"/>
<path d="M32.0106 37.0791C29.2202 37.0791 26.942 34.8008 26.942 32.0105C26.942 31.1849 27.151 30.3593 27.5377 29.6277C27.7154 29.3038 27.6526 28.8857 27.3914 28.614L21.5599 22.7825C21.2255 22.4481 21.2255 21.8942 21.5599 21.5598C21.7271 21.403 21.9361 21.309 22.1765 21.309C22.4064 21.309 22.6259 21.403 22.7826 21.5598L28.6141 27.3913C28.7813 27.548 28.9903 27.6421 29.2202 27.6421C29.3561 27.6421 29.492 27.6108 29.6174 27.5376C30.3594 27.1405 31.1641 26.9315 32.0106 26.9315C32.8362 26.9315 33.6722 27.1405 34.3933 27.5271C34.5187 27.6003 34.6546 27.6317 34.8009 27.6317C35.0308 27.6317 35.2503 27.5376 35.4071 27.3808L47.1745 15.6134C47.3417 15.4462 47.5507 15.3625 47.7807 15.3625C48.0106 15.3625 48.23 15.4566 48.3868 15.6134C48.554 15.7701 48.6376 15.9896 48.6376 16.2195C48.6376 16.4494 48.5436 16.6689 48.3868 16.8256L36.6298 28.6036C36.3581 28.8753 36.3058 29.2829 36.4835 29.6173C36.8806 30.3488 37.0792 31.1744 37.0792 32C37.0792 34.8008 34.8009 37.0791 32.0106 37.0791ZM32.0106 28.6663C30.1713 28.6663 28.6664 30.1607 28.6664 32.0105C28.6664 33.8498 30.1608 35.3547 32.0106 35.3547C33.8499 35.3547 35.3548 33.8603 35.3548 32.0105C35.3548 30.1607 33.8499 28.6663 32.0106 28.6663Z" fill="white"/>
<path d="M9.98049 10.8478C9.75058 10.8478 9.53111 10.7537 9.3639 10.597C9.20714 10.4297 9.12354 10.2103 9.12354 9.98037C9.12354 9.76091 9.21759 9.52054 9.37435 9.37423C9.53111 9.20702 9.76103 9.12341 9.98049 9.12341C10.2104 9.12341 10.4299 9.21747 10.5866 9.37423C10.7538 9.53099 10.8374 9.76091 10.8374 9.98037C10.8374 10.2103 10.7434 10.4297 10.5866 10.5865C10.4299 10.7537 10.2104 10.8478 9.98049 10.8478Z" fill="white"/>
</svg>
