<svg width="52" height="64" viewBox="0 0 52 64" fill="none" xmlns="http://www.w3.org/2000/svg">
<g clip-path="url(#clip0)">
<path d="M3.4203 64C1.53389 64 0 62.4498 0 60.5434V56.7113C0 56.2877 0.342983 55.941 0.762184 55.941C1.18139 55.941 1.52437 56.2877 1.52437 56.7113V60.5434C1.52437 61.6025 2.3723 62.4595 3.4203 62.4595H7.94577V58.3866C7.94577 57.963 8.28875 57.6164 8.70795 57.6164C9.12715 57.6164 9.47013 57.963 9.47013 58.3866V62.4595H21.2935L23.4753 48.9027L22.151 46.043L20.9029 46.6785C20.4837 46.8903 20.0454 46.9962 19.5786 46.9962C18.3496 46.9962 17.273 46.2549 16.8347 45.0994L14.6053 39.3128L14.472 39.332C10.8516 39.9386 8.17442 40.6319 6.51667 41.3733C3.48699 42.7501 1.52437 45.8023 1.52437 49.1626V50.9343C1.52437 51.3579 1.18139 51.7045 0.762184 51.7045C0.342983 51.7045 0 51.3579 0 50.9343V49.1626C0 45.1957 2.31513 41.5851 5.90692 39.9771C8.97472 38.6003 14.5863 37.7145 17.6541 37.3101C18.2162 37.233 18.6354 36.7516 18.6354 36.1835V31.1864L18.5687 31.1383C16.0154 29.1933 14.4339 26.3433 14.129 23.1274L14.1099 22.9734H13.5097C11.9758 22.9734 10.7277 21.7121 10.7277 20.1619V17.8992C10.7277 16.8208 11.328 15.858 12.2807 15.3766L12.376 15.3284V7.36573C12.376 4.83346 14.4148 2.77298 16.9205 2.77298C17.1587 2.77298 17.4064 2.79224 17.6446 2.83075C17.6922 2.84038 17.7494 2.84038 17.797 2.84038C17.9685 2.84038 18.1209 2.79224 18.2257 2.69595C18.4163 2.53227 18.4258 2.34933 18.4258 2.18565C18.4353 2.06048 18.4353 1.94494 18.5115 1.79088C19.1022 0.693245 20.2265 0 21.4745 0H32.7739C36.5467 0 39.6145 3.10035 39.6145 6.91319C39.6145 7.11539 39.5383 7.31759 39.3954 7.46201C39.2525 7.60644 39.0619 7.68347 38.8523 7.68347C38.4331 7.68347 38.0901 7.33684 38.0901 6.91319C38.0901 3.94765 35.6988 1.54054 32.7739 1.54054H21.4745C20.8743 1.54054 20.3217 1.83903 19.9883 2.3397L19.9597 2.37822V2.42636C19.8549 3.56251 18.9498 4.39055 17.8065 4.39055C17.6827 4.39055 17.5493 4.38092 17.4254 4.36167C17.2539 4.33278 17.092 4.32315 16.93 4.32315C15.2627 4.32315 13.9099 5.69039 13.9099 7.37536V15.0781H15.5104L15.5581 15.0492C15.9678 14.77 16.2059 14.3078 16.2059 13.8071V11.7659C16.2059 10.1291 17.5207 8.80036 19.1403 8.80036C20.255 8.80036 20.9029 8.83887 22.0081 9.22401C23.3419 9.6958 24.7138 9.92688 26.1048 9.92688C27.4958 9.92688 28.8963 9.68617 30.2682 9.21438C31.1066 8.92553 31.8498 8.80036 32.7453 8.80036H32.9454C34.4983 8.80036 35.8131 10.158 35.8131 11.7659V13.7975C35.8131 14.2982 36.0608 14.7603 36.461 15.0396L36.5086 15.0685H38.1092V12.0451C38.1092 11.6215 38.4522 11.2749 38.8714 11.2749C39.2906 11.2749 39.6336 11.6215 39.6336 12.0451V15.3092L39.7288 15.3573C40.6911 15.8387 41.2818 16.8016 41.2818 17.8799V20.1426C41.2818 21.6928 40.0337 22.9541 38.4998 22.9541H37.8996L37.8805 23.1082C37.5757 26.2952 35.9941 29.1356 33.4408 31.1094L33.3741 31.1575V36.1643C33.3741 36.7324 33.7933 37.2234 34.3554 37.2908C36.8325 37.6182 42.9205 38.5232 46.1026 39.9579C49.6944 41.5754 52.0095 45.1765 52.0095 49.1434V60.5338C52.0095 62.4402 50.4756 63.9904 48.5892 63.9904H3.4203V64ZM43.2825 57.6164C43.7017 57.6164 44.0447 57.963 44.0447 58.3866V62.4595H48.5702C49.6182 62.4595 50.4661 61.6025 50.4661 60.5434V49.1626C50.4661 45.8023 48.5035 42.7501 45.4643 41.3829C43.4254 40.4682 40.0147 39.7653 37.509 39.3417L37.3756 39.3224L35.1462 45.1091C34.7079 46.2645 33.6314 47.0059 32.4023 47.0059C31.945 47.0059 31.4972 46.9 31.078 46.6881L29.83 46.0527L28.5057 48.9123L30.6874 62.4691H42.5108V58.3963C42.5203 57.963 42.8633 57.6164 43.2825 57.6164ZM22.8465 62.4595H29.1535L27.0861 49.567H24.9234L22.8465 62.4595ZM23.5134 45.3498L24.7519 48.0168H27.2385L28.4771 45.3498L26 44.0788L23.5134 45.3498ZM27.4196 43.0775L31.7735 45.3016C31.9736 45.4076 32.1927 45.4557 32.4119 45.4557C33.0026 45.4557 33.517 45.0994 33.7266 44.541L35.8322 39.0721L35.6226 39.0432C35.089 38.9661 34.5936 38.8988 34.1458 38.841C33.8505 38.8025 33.5647 38.7158 33.3074 38.581L33.2122 38.5329L27.4196 43.0775ZM18.6926 38.581C18.4258 38.7158 18.1495 38.8025 17.8542 38.841C17.4064 38.8988 16.911 38.9661 16.3774 39.0432L16.1678 39.0721L18.2734 44.541C18.483 45.0898 19.007 45.4557 19.5881 45.4557C19.8073 45.4557 20.0264 45.4076 20.2265 45.3016L24.5804 43.0775L18.7878 38.5232L18.6926 38.581ZM20.1598 36.1739C20.1598 36.5687 20.074 36.9442 19.9216 37.2908L19.8644 37.416L26 42.2398L32.1356 37.416L32.0784 37.2908C31.9164 36.9346 31.8402 36.559 31.8402 36.1739V32.1589L31.5925 32.284C29.8871 33.1698 27.9531 33.6416 26.0095 33.6705C24.0374 33.6513 22.1605 33.1795 20.4075 32.284L20.1598 32.1589V36.1739ZM19.1022 10.3505C18.34 10.3602 17.7208 10.9956 17.7208 11.7659V13.8071C17.7208 15.5402 16.3203 16.5801 15.7486 16.6186L15.5962 16.6283V22.1838C15.72 27.6913 20.2836 32.0626 25.9905 32.13C31.6973 32.0626 36.2704 27.6913 36.3848 22.1838V16.6283L36.2323 16.6186C35.6607 16.5705 34.2602 15.5306 34.2602 13.8071V11.7755C34.2602 11.0823 33.7457 10.3698 32.7739 10.3602C31.8783 10.3602 31.3162 10.495 30.7351 10.6972C29.1821 11.2363 27.6768 11.4963 26.1334 11.4963C24.5518 11.4963 22.9798 11.2171 21.3221 10.6586C20.5694 10.3987 19.9502 10.3698 19.4929 10.3698H19.1022V10.3505ZM37.9282 16.7823V21.4136H38.4903C39.1858 21.4136 39.7479 20.8455 39.7479 20.1426V17.8799C39.7479 17.206 39.2239 16.6475 38.557 16.609L38.3855 16.5994V16.609H37.9949L37.9282 16.7823ZM13.4525 16.6186C12.7856 16.6571 12.2616 17.2156 12.2616 17.8896V20.1523C12.2616 20.8551 12.8237 21.4232 13.5192 21.4232H14.0813V16.6186H13.5478H13.4525Z" fill="#04BEFB"/>
<path d="M0.781238 54.6316C0.35251 54.6316 0 54.2753 0 53.842C0 53.4087 0.35251 53.0525 0.781238 53.0525C1.20997 53.0525 1.56248 53.4087 1.56248 53.842C1.56248 54.2753 1.20997 54.6316 0.781238 54.6316Z" fill="white"/>
<path d="M38.833 10.3505C38.4043 10.3505 38.0518 9.99429 38.0518 9.56101C38.0518 9.12774 38.4043 8.77148 38.833 8.77148C39.2617 8.77148 39.6142 9.12774 39.6142 9.56101C39.6142 9.99429 39.2617 10.3505 38.833 10.3505Z" fill="white"/>
</g>
<defs>
<clipPath id="clip0">
<rect width="52" height="64" fill="white"/>
</clipPath>
</defs>
</svg>
