<svg width="64" height="64" viewBox="0 0 64 64" fill="none" xmlns="http://www.w3.org/2000/svg">
<path d="M3.32306 64C1.49394 64 0 62.5061 0 60.6769V3.32306C0 1.49394 1.49394 0 3.32306 0H53.8201C55.6588 0 57.1432 1.49394 57.1432 3.32306V10.0458C57.1432 10.4767 56.7889 10.8311 56.3579 10.8311C55.927 10.8311 55.5726 10.4767 55.5726 10.0458V3.32306C55.5726 2.35583 54.7874 1.58013 53.8201 1.58013H3.32306C2.35583 1.58013 1.57055 2.3654 1.57055 3.32306V60.6769C1.57055 61.6442 2.35583 62.4294 3.32306 62.4294H53.8201C54.7874 62.4294 55.5726 61.6442 55.5726 60.6769V57.124C55.5726 56.6931 55.927 56.3388 56.3579 56.3388C56.7889 56.3388 57.1432 56.6931 57.1432 57.124V60.6769C57.1432 62.5061 55.6493 64 53.8201 64H3.32306Z" fill="#04BEFB"/>
<path d="M6.8761 34.1883C6.44515 34.1883 6.09082 33.8339 6.09082 33.403V6.87597C6.09082 6.44503 6.44515 6.0907 6.8761 6.0907H50.2674C50.7079 6.0907 51.0527 6.44503 51.0527 6.87597V10.1703C51.0527 10.6012 50.6983 10.9556 50.2674 10.9556C49.8364 10.9556 49.4821 10.6012 49.4821 10.1703V8.14965C49.4821 7.88151 49.2714 7.67083 49.0033 7.67083H8.14978C7.88163 7.67083 7.67095 7.88151 7.67095 8.14965V33.403C7.67095 33.8339 7.31662 34.1883 6.8761 34.1883Z" fill="#04BEFB"/>
<path d="M6.8761 38.8807C6.67499 38.8807 6.4643 38.7945 6.32066 38.6509C6.17701 38.5072 6.09082 38.2966 6.09082 38.0955C6.09082 37.8943 6.17701 37.6837 6.32066 37.54C6.4643 37.3964 6.66541 37.3102 6.8761 37.3102C7.08678 37.3102 7.28789 37.3964 7.43154 37.54C7.58476 37.6741 7.66137 37.8848 7.66137 38.0955C7.66137 38.3061 7.57518 38.5072 7.43154 38.6509C7.28789 38.7945 7.08678 38.8807 6.8761 38.8807Z" fill="white"/>
<path d="M6.8761 57.9093C6.44515 57.9093 6.09082 57.555 6.09082 57.124V42.9795C6.09082 42.539 6.44515 42.1846 6.8761 42.1846C7.31662 42.1846 7.66137 42.539 7.66137 42.9795V55.8503C7.66137 56.1185 7.87206 56.3292 8.1402 56.3292H48.9937C49.2619 56.3292 49.4725 56.1185 49.4725 55.8503V54.3277C49.4725 53.8967 49.8269 53.5424 50.2578 53.5424C50.6983 53.5424 51.0431 53.8967 51.0431 54.3277V57.124C51.0431 57.555 50.6888 57.9093 50.2578 57.9093H6.8761Z" fill="#04BEFB"/>
<path d="M34.5425 48.917C33.9966 48.917 33.4795 48.7063 33.0964 48.3232L31.5355 46.7622C31.4397 46.6665 31.3152 46.6186 31.1907 46.6186C31.0662 46.6186 30.9513 46.6665 30.8555 46.7622L29.85 47.7678C29.6968 47.9114 29.5052 47.9976 29.2946 47.9976C29.0839 47.9976 28.8828 47.9114 28.7391 47.7678C28.4327 47.4613 28.4327 46.9538 28.7391 46.6473L29.7542 45.6322C30.1373 45.2491 30.6544 45.0385 31.2003 45.0385C31.7461 45.0385 32.2633 45.2491 32.6463 45.6322L34.2073 47.1932C34.3031 47.2889 34.418 47.3368 34.5425 47.3368C34.667 47.3368 34.7819 47.2889 34.8777 47.1932L37.3867 44.6841C37.5304 44.5405 37.7315 44.4543 37.9422 44.4543C38.1528 44.4543 38.354 44.5405 38.4976 44.6841C38.6508 44.8373 38.7274 45.0289 38.7274 45.2396C38.7274 45.4502 38.6413 45.6514 38.4976 45.795L35.979 48.3136C35.5959 48.7063 35.0788 48.917 34.5425 48.917Z" fill="#04BEFB"/>
<path d="M46.9728 51.6559C46.8674 51.6559 46.7621 51.6367 46.6663 51.5888C46.3694 51.4643 46.1779 51.177 46.1779 50.861V39.0148C46.1779 38.8903 46.13 38.7754 46.0534 38.6892C45.8523 38.4785 45.6895 38.2391 45.5554 37.9901C45.2777 37.4443 44.7127 37.1091 44.1094 37.1091H44.0806C43.0176 37.1091 42.2036 36.7643 41.6099 36.1706C40.9683 35.529 40.6331 34.6479 40.6714 33.7477C40.681 33.537 40.6522 33.3072 40.566 33.0965C40.499 32.905 40.3171 32.7805 40.116 32.7805H15.4755C15.035 32.7805 14.6902 32.4262 14.6902 31.9952C14.6902 31.5643 15.0446 31.2099 15.4755 31.2099H37.8367C37.99 31.2099 38.1432 31.1333 38.2294 30.9993C38.3156 30.8652 38.3347 30.7024 38.2773 30.5492C38.2294 30.4342 38.1911 30.3193 38.1623 30.2044C37.9229 29.3329 38.0761 28.3944 38.555 27.6379C38.5741 27.6092 38.689 27.3793 38.6986 27.3506C38.7561 27.1974 38.7369 27.0346 38.6507 26.9101C38.5646 26.776 38.4113 26.6994 38.2581 26.6994H15.4659C15.035 26.6994 14.6807 26.3451 14.6807 25.9141C14.6807 25.4832 15.035 25.1288 15.4659 25.1288H37.6069C37.741 25.1288 37.875 25.0714 37.9708 24.966C38.057 24.8607 38.1049 24.7266 38.0857 24.583C38.0283 24.1616 38.057 23.7307 38.1623 23.3189C38.3922 22.4474 38.9859 21.71 39.7903 21.2982C40.3554 21.0014 40.7001 20.4076 40.6714 19.766C40.6331 18.8658 40.9683 17.9848 41.6099 17.3527C42.2036 16.759 43.0368 16.4142 43.8795 16.4142H43.8987C44.7223 16.4142 45.2777 16.079 45.5554 15.5332C45.9672 14.7287 46.7046 14.135 47.5761 13.9051C47.8442 13.8381 48.1219 13.7998 48.4092 13.7998C49.0221 13.7998 49.6255 13.9818 50.1426 14.3074C50.4107 14.4797 50.7076 14.5659 51.0236 14.5659C51.3397 14.5659 51.6365 14.4797 51.9047 14.3074C52.4218 13.9818 53.0251 13.7998 53.638 13.7998C53.9157 13.7998 54.1935 13.8381 54.4712 13.9051C55.3427 14.135 56.08 14.7287 56.4918 15.5332C56.7696 16.079 57.325 16.4142 57.9379 16.4142C57.9475 16.4142 57.957 16.4142 57.9666 16.4142C59.0296 16.4142 59.8436 16.759 60.4374 17.3527C61.079 17.9848 61.4142 18.8754 61.3759 19.766C61.3471 20.4076 61.6919 21.0014 62.2569 21.2982C63.0613 21.71 63.6455 22.4474 63.8849 23.3189C64.1243 24.1903 63.9711 25.1288 63.4923 25.8854C63.1475 26.4217 63.1475 27.1112 63.4923 27.6475C63.9807 28.404 64.1243 29.3425 63.8849 30.214C63.6551 31.0855 63.0613 31.8228 62.2569 32.2346C61.6919 32.5315 61.3471 33.1253 61.3759 33.7573C61.4142 34.6575 61.079 35.5385 60.4374 36.1802C59.8436 36.7739 59.0105 37.1187 58.1677 37.1187H58.1486C57.325 37.1187 56.7696 37.4539 56.4918 37.9997C56.3578 38.2487 56.195 38.4881 55.9939 38.6988C55.9172 38.785 55.8694 38.8999 55.8694 39.0244V50.8706C55.8694 51.1962 55.6778 51.4739 55.381 51.5984C55.2852 51.6367 55.1798 51.6559 55.0841 51.6559C54.8734 51.6559 54.6723 51.5697 54.5286 51.426L51.3588 48.2753C51.263 48.1796 51.1385 48.1317 51.0236 48.1317C50.8991 48.1317 50.7842 48.1796 50.6884 48.2753L47.5186 51.426C47.3845 51.5697 47.1834 51.6559 46.9728 51.6559ZM51.0332 46.044C51.2439 46.044 51.445 46.1206 51.5886 46.2738L53.4848 48.1604C53.5806 48.2562 53.6955 48.3041 53.82 48.3041C53.887 48.3041 53.9445 48.2945 54.0019 48.2658C54.1839 48.1892 54.2988 48.0168 54.2988 47.8252V40.2119C54.2988 40.0874 54.2509 39.9629 54.1456 39.8671C54.0594 39.781 53.9349 39.7331 53.82 39.7331H53.7625C53.006 39.7331 52.4218 39.5607 51.9047 39.2351C51.6365 39.0627 51.3397 38.9765 51.0236 38.9765C50.7076 38.9765 50.4107 39.0627 50.1426 39.2351C49.6255 39.5607 49.0221 39.7426 48.4092 39.7426C48.2847 39.7426 48.0741 39.7905 47.9783 39.8767C47.8921 39.9725 47.7485 40.0874 47.7485 40.2119V47.8252C47.7485 48.0168 47.8634 48.1892 48.0453 48.2658C48.1028 48.2945 48.1698 48.3041 48.2273 48.3041C48.3518 48.3041 48.4763 48.2562 48.5625 48.1604L50.4586 46.2738C50.6214 46.1206 50.8225 46.044 51.0332 46.044ZM51.0332 37.3868C51.6461 37.3868 52.2494 37.5592 52.7666 37.8944C53.0251 38.0667 53.3316 38.1529 53.638 38.1529C53.7817 38.1529 53.9253 38.1338 54.069 38.0955C54.5191 37.971 54.883 37.6837 55.1032 37.2623C55.6587 36.1897 56.7504 35.529 57.957 35.529H57.9858C58.6274 35.529 59.0296 35.3566 59.3361 35.0501C59.6617 34.7245 59.834 34.284 59.8149 33.8243C59.7574 32.5794 60.4374 31.3919 61.5482 30.8173C61.96 30.6066 62.2569 30.2427 62.3814 29.783C62.5059 29.3329 62.4293 28.8733 62.1803 28.4806C61.5099 27.4272 61.5099 26.0673 62.1803 25.0139C62.4293 24.6213 62.5059 24.1616 62.3814 23.7115C62.2569 23.2614 61.9696 22.8975 61.5482 22.6868C60.4374 22.1122 59.7574 20.9343 59.8149 19.6798C59.834 19.2105 59.6617 18.7796 59.3361 18.4444C59.0296 18.138 58.6178 17.9656 58.1773 17.9656H58.1582C56.7504 17.9656 55.6395 17.2857 55.0937 16.2418C54.883 15.83 54.5191 15.5332 54.069 15.4087C53.9253 15.3704 53.7817 15.3512 53.6476 15.3512C53.3412 15.3512 53.0347 15.4374 52.7666 15.6098C52.2494 15.9449 51.6461 16.1173 51.0332 16.1173C50.4203 16.1173 49.817 15.9449 49.2999 15.6098C49.0317 15.4374 48.7348 15.3512 48.4188 15.3512C48.2752 15.3512 48.1315 15.3704 47.9974 15.4087C47.5473 15.5332 47.1834 15.8205 46.9632 16.2418C46.4173 17.2952 45.2969 17.9752 44.1094 17.9752H44.0806C43.439 17.9752 43.0368 18.1476 42.7303 18.4444C42.4047 18.77 42.2324 19.2105 42.2515 19.6798C42.309 20.9247 41.629 22.1122 40.5182 22.6868C40.1064 22.8975 39.8095 23.2614 39.6946 23.7115C39.5701 24.1616 39.6467 24.6309 39.8957 25.0139C40.566 26.0673 40.566 27.4272 39.8957 28.4806C39.6467 28.8733 39.5701 29.3329 39.6946 29.783C39.8191 30.2331 40.1064 30.6066 40.5182 30.8173C40.815 30.9705 41.0832 31.1716 41.3226 31.4111C41.9738 32.1006 42.2898 32.9529 42.2515 33.8148C42.2324 34.284 42.4047 34.715 42.7303 35.0406C43.0368 35.347 43.4486 35.5194 43.8891 35.5194H43.9083C45.3352 35.5194 46.4173 36.1898 46.9728 37.2527C47.193 37.6741 47.5569 37.9614 48.007 38.0859C48.1507 38.1242 48.2943 38.1434 48.438 38.1434C48.7444 38.1434 49.0509 38.0476 49.3094 37.8848C49.817 37.5592 50.4107 37.3868 51.0332 37.3868Z" fill="#04BEFB"/>
<path d="M51.062 30.099C50.8514 30.099 50.6503 30.0128 50.5066 29.8692L47.9305 27.2931C47.6241 26.9867 47.6241 26.4887 47.9305 26.1822C48.0837 26.029 48.2753 25.9524 48.486 25.9524C48.6966 25.9524 48.8978 26.029 49.0414 26.1822L50.7173 27.8581C50.8131 27.9539 50.928 28.0018 51.0525 28.0018C51.177 28.0018 51.2919 27.9539 51.3876 27.8581L55.6013 23.6444C55.7545 23.4912 55.9461 23.4146 56.1568 23.4146C56.3674 23.4146 56.5686 23.4912 56.7122 23.6444C57.0187 23.9509 57.0187 24.4489 56.7122 24.7649L51.5983 29.8692C51.4738 30.0224 51.2727 30.099 51.062 30.099Z" fill="white"/>
<path d="M23.4337 38.8807C23.0028 38.8807 22.6484 38.5264 22.6484 38.0955C22.6484 37.6549 23.0028 37.3102 23.4337 37.3102H37.9422C38.3731 37.3102 38.7274 37.6645 38.7274 38.0955C38.7274 38.5264 38.3731 38.8807 37.9422 38.8807H23.4337Z" fill="#04BEFB"/>
</svg>
