<svg width="116" height="27" viewBox="0 0 116 27" fill="none" xmlns="http://www.w3.org/2000/svg">
<g clip-path="url(#clip0)">
<path d="M54.0576 17.2139L53.6115 6.47154C53.5588 6.15889 53.8686 6.28638 53.8686 6.28638C54.1723 6.36227 54.6835 6.4594 55.4147 6.2712C55.4147 6.2712 55.6718 6.168 55.647 6.48065L55.1761 17.2139H54.0576Z" fill="#7E898E"/>
<path d="M55.7242 1.09275C55.7242 1.6968 55.2223 2.18853 54.6119 2.18853C53.9923 2.18853 53.4966 1.6968 53.4966 1.09275C53.4966 0.506914 53.9675 0.0242833 54.5624 0H54.6646C55.2502 0.0273187 55.7242 0.506914 55.7242 1.09275Z" fill="#7E898E"/>
<path d="M55.0304 3.3937L60.5452 0.698248C61.1896 0.324893 61.4994 0.273291 61.642 0.461486C61.8186 0.701284 61.6234 0.971436 61.0967 1.30837L55.1326 5.07531C54.8755 5.25137 54.5068 5.25137 54.5068 5.25137C54.2651 5.21191 54.228 5.23316 53.9119 5.07531L48.8773 1.67565C48.3661 1.29622 47.9448 1.07767 48.2267 0.768063C48.5056 0.455415 48.7286 0.683071 49.4319 1.0625L54.1877 3.37548C54.1939 3.37548 54.5811 3.61224 55.0304 3.3937Z" fill="#7E898E"/>
<path d="M34.954 14.6915C34.954 14.6915 35.8897 15.6021 37.1847 15.9633C37.2808 15.9937 37.3737 16.0453 37.3737 16.1424C37.3737 16.2456 37.2901 16.3154 37.1847 16.3246C34.4738 16.6463 32.841 15.0042 32.841 15.0042C31.3012 13.623 30.096 12.0264 30.096 12.0264C30.0403 11.9596 29.9597 11.8048 29.9597 11.6713C29.9597 11.4102 30.1022 11.2493 30.3067 11.1977L30.4121 11.1765C31.3353 10.9731 32.5498 10.3175 32.5498 9.57683C32.5498 8.65103 31.6761 8.22911 30.2416 8.22911C29.7645 8.22911 29.4702 8.22607 29.0953 8.22911V16.0483H27.1187V6.97852H30.4864C33.1137 6.97852 34.638 7.81325 34.638 9.42202C34.638 10.4662 33.4979 11.4011 32.3082 11.8655C32.3051 11.8655 33.0083 12.9826 34.954 14.6915Z" fill="#7E898E"/>
<path d="M5.52101 16.1787C1.893 16.1787 0 14.4819 0 11.7075C0 9.10921 1.82794 6.85693 5.99813 6.85693C6.80366 6.85693 7.73622 6.94496 8.52007 7.11798L8.32488 8.53552C7.47598 8.32607 6.63016 8.20162 5.80294 8.20162C3.34916 8.20162 2.10988 9.64952 2.10988 11.5527C2.10988 13.6472 3.47929 14.7824 5.93617 14.7824C6.82845 14.7824 7.76411 14.6063 8.45811 14.3453L8.63161 15.7416C7.71764 16.0178 6.65185 16.1787 5.52101 16.1787Z" fill="#7E898E"/>
<path d="M14.4902 16.0543V6.97534H20.8787V8.21683L16.4669 8.11059V10.8971L20.665 10.7817V11.9898L16.4669 11.8806V14.8856L20.8787 14.7794V16.0543H14.4902Z" fill="#7E898E"/>
<path d="M44.7784 8.30182L44.9085 16.0482H42.9287L43.0372 8.30182H39.6694V6.97534H48.1926V8.30182H44.7784Z" fill="#7E898E"/>
<path d="M80.0113 16.1939C76.3399 16.1939 74.6235 14.2937 74.6235 11.6013C74.6235 8.59927 77.2725 6.83569 80.3583 6.83569C83.6858 6.83569 85.8111 8.42321 85.8111 11.4283C85.8111 14.4637 83.2025 16.1939 80.0113 16.1939ZM80.2034 8.07414C78.3569 8.07414 76.7241 9.33384 76.7241 11.4647C76.7241 13.3133 77.6598 14.9827 80.1383 14.9827C82.115 14.9827 83.6827 13.7352 83.6827 11.5709C83.6858 9.36723 82.335 8.07414 80.2034 8.07414Z" fill="#7E898E"/>
<path d="M66.4131 12.1053C66.1033 12.0871 66.0165 11.7684 66.0165 11.6713C66.0165 11.4133 66.1559 11.2493 66.3604 11.1977L66.4658 11.1765C67.389 10.9731 68.6066 10.3175 68.6066 9.57683C68.6066 8.65103 67.7329 8.22911 66.2954 8.22911C65.8182 8.22911 65.5797 8.22911 65.1521 8.22911V16.0483H63.1724V6.97852H66.5432C69.1705 6.97852 70.6917 7.81325 70.6917 9.42202C70.6917 10.0534 70.2642 10.6423 69.6941 11.1006C69.6414 11.1492 69.5856 11.1856 69.5299 11.2281C69.1736 11.4831 68.7987 11.7077 68.3681 11.8625C67.8537 12.0477 67.3085 12.1509 66.4472 12.1053H66.4131Z" fill="#7E898E"/>
<path d="M98.365 14.6914C98.365 14.6914 99.2975 15.602 100.599 15.9662C100.698 15.9936 100.785 16.0452 100.785 16.1484C100.785 16.2485 100.701 16.3183 100.599 16.3305C97.8879 16.6492 96.252 15.007 96.252 15.007C94.7184 13.6259 93.507 12.0293 93.507 12.0293C93.4512 11.9656 93.3707 11.8077 93.3707 11.6742C93.3707 11.4131 93.5101 11.2522 93.7177 11.2006L93.823 11.1794C94.7463 10.973 95.9639 10.3173 95.9639 9.57669C95.9639 8.65089 95.0871 8.22897 93.6557 8.22897C93.1755 8.22897 92.8843 8.22593 92.5094 8.22897V16.0512H90.5327V6.97534C91.2794 6.97838 92.5527 6.97534 93.9005 6.97534C96.5308 6.97534 98.0521 7.81312 98.0521 9.41885C98.0521 10.463 96.9119 11.3979 95.7253 11.8624C95.7191 11.8654 96.4255 12.9824 98.365 14.6914Z" fill="#7E898E"/>
<path d="M108.388 8.30499L108.518 16.0544H106.541L106.647 8.30499H103.279V6.97852H111.799V8.30499H108.388Z" fill="#7E898E"/>
<path d="M110.328 20.5164H0.0566406V20.6651H110.328V20.5164Z" fill="#7E898E"/>
<path d="M28.1441 24.4714H28.6243L29.6188 26.9999H29.1355L28.8939 26.3291H27.8622L27.6205 26.9999H27.1558L28.1441 24.4714ZM27.9861 25.9952H28.773L28.3858 24.9085H28.3734L27.9861 25.9952Z" fill="#7E898E"/>
<path d="M31.8219 24.4714H32.959C33.6964 24.4714 33.8389 24.9389 33.8389 25.2546C33.8389 25.5642 33.6964 26.0347 32.959 26.0286H32.2712V26.9999H31.8188V24.4714H31.8219ZM32.2743 25.6674H32.9342C33.1356 25.6674 33.3865 25.5672 33.3865 25.2485C33.3865 24.9146 33.1821 24.8296 32.9435 24.8296H32.2743V25.6674Z" fill="#7E898E"/>
<path d="M34.8052 24.4714H36.661V24.8539H35.2575V25.5156H36.5588V25.8768H35.2575V26.6175H36.6858V26.9999H34.8052V24.4714Z" fill="#7E898E"/>
<path d="M38.2598 24.4714H38.74L39.7346 26.9999H39.2512L39.0096 26.3291H37.9779L37.7362 26.9999H37.2715L38.2598 24.4714ZM38.1018 25.9952H38.8887L38.5015 24.9085H38.4891L38.1018 25.9952Z" fill="#7E898E"/>
<path d="M40.5275 24.4714H41.7606C42.3245 24.4714 42.6126 24.7264 42.6126 25.1544C42.6126 25.6401 42.2687 25.7645 42.1851 25.7918V25.7979C42.34 25.8192 42.5692 25.9345 42.5692 26.3321C42.5692 26.6266 42.6126 26.8937 42.7087 26.9969H42.2253C42.1572 26.8876 42.1572 26.748 42.1572 26.6266C42.1572 26.1622 42.0611 25.9558 41.6429 25.9558H40.9767V26.9969H40.5244V24.4714H40.5275ZM40.9767 25.6219H41.7172C42.0023 25.6219 42.1603 25.4822 42.1603 25.2181C42.1603 24.8964 41.9465 24.8326 41.711 24.8326H40.9767V25.6219Z" fill="#7E898E"/>
<path d="M43.9017 26.0955C43.9017 26.484 44.1961 26.6388 44.5554 26.6388C44.952 26.6388 45.1007 26.4476 45.1007 26.2563C45.1007 26.0621 44.9923 25.9831 44.887 25.9437C44.7073 25.8769 44.4718 25.8314 44.1186 25.7342C43.6787 25.6159 43.5485 25.3548 43.5485 25.0938C43.5485 24.5869 44.0257 24.3501 44.4904 24.3501C45.0295 24.3501 45.4818 24.6294 45.4818 25.1575H45.0295C45.0078 24.8327 44.7847 24.7113 44.4718 24.7113C44.2611 24.7113 43.9978 24.7842 43.9978 25.0391C43.9978 25.2152 44.1217 25.3154 44.3045 25.3639C44.3448 25.3761 44.9148 25.5218 45.0481 25.5582C45.3889 25.6584 45.55 25.9407 45.55 26.2017C45.55 26.7693 45.0357 26.9939 44.5245 26.9939C43.9358 26.9939 43.4587 26.7177 43.4463 26.0894H43.9017V26.0955Z" fill="#7E898E"/>
<path d="M48.8215 25.6765C48.8215 26.3989 48.3599 26.9999 47.5853 26.9999C46.8108 26.9999 46.3491 26.3989 46.3491 25.6765C46.3491 24.954 46.8108 24.353 47.5853 24.353C48.3599 24.35 48.8215 24.954 48.8215 25.6765ZM46.8015 25.6765C46.8015 26.1621 47.0338 26.6387 47.5853 26.6387C48.1368 26.6387 48.3691 26.1591 48.3691 25.6765C48.3691 25.1908 48.1368 24.7143 47.5853 24.7143C47.0338 24.7112 46.8015 25.1908 46.8015 25.6765Z" fill="#7E898E"/>
<path d="M49.6797 24.4714H50.1568L51.3372 26.3321H51.3434V24.4714H51.7741V26.9999H51.297L50.1196 25.1392H50.1103V26.9999H49.6797V24.4714Z" fill="#7E898E"/>
<path d="M54.0513 24.4714H54.5222L55.1697 26.4718H55.1759L55.8389 24.4714H56.2975L55.4145 26.9999H54.9126L54.0513 24.4714Z" fill="#7E898E"/>
<path d="M57.063 24.4109H57.5153V25.8831C57.5153 26.223 57.537 26.6176 58.1226 26.6176C58.7081 26.6176 58.7298 26.223 58.7298 25.8831V24.4109H59.1822V26.0288C59.1822 26.6753 58.7577 27.0001 58.1226 27.0001C57.4874 27.0001 57.063 26.6783 57.063 26.0288V24.4109Z" fill="#7E898E"/>
<path d="M60.2324 24.4714H62.0914V24.8539H60.6848V25.5156H61.986V25.8768H60.6848V26.6175H62.1161V26.9999H60.2324V24.4714Z" fill="#7E898E"/>
<path d="M64.5324 24.4714H65.7872C66.2488 24.4714 66.5524 24.6778 66.5524 25.0967C66.5524 25.3517 66.4192 25.5369 66.1837 25.634V25.6401C66.4967 25.7068 66.6671 25.9466 66.6671 26.2927C66.6671 26.6903 66.3851 26.9969 65.7159 26.9969H64.5293V24.4714H64.5324ZM64.9816 25.5308H65.719C65.9359 25.5308 66.097 25.4063 66.097 25.1787C66.097 24.9237 65.9638 24.8326 65.719 24.8326H64.9816V25.5308ZM64.9816 26.6387H65.781C66.0567 26.6387 66.2147 26.493 66.2147 26.238C66.2147 25.9891 66.0567 25.8495 65.781 25.8495H64.9816V26.6387Z" fill="#7E898E"/>
<path d="M67.5532 24.4109H68.0056V25.8831C68.0056 26.223 68.0272 26.6176 68.6128 26.6176C69.1984 26.6176 69.22 26.223 69.22 25.8831V24.4109H69.6724V26.0288C69.6724 26.6753 69.2479 27.0001 68.6128 27.0001C67.9777 27.0001 67.5532 26.6783 67.5532 26.0288V24.4109Z" fill="#7E898E"/>
<path d="M71.0077 26.0955C71.0077 26.484 71.302 26.6388 71.6614 26.6388C72.058 26.6388 72.2067 26.4476 72.2067 26.2563C72.2067 26.0621 72.0983 25.9831 71.9929 25.9437C71.8132 25.8769 71.5778 25.8314 71.2215 25.7342C70.7815 25.6159 70.6514 25.3548 70.6514 25.0938C70.6514 24.5869 71.1285 24.3501 71.5932 24.3501C72.1323 24.3501 72.5847 24.6294 72.5847 25.1575H72.1323C72.1107 24.8327 71.8876 24.7113 71.5747 24.7113C71.364 24.7113 71.1006 24.7842 71.1006 25.0391C71.1006 25.2152 71.2246 25.3154 71.4074 25.3639C71.4476 25.3761 72.0177 25.5218 72.1509 25.5582C72.4917 25.6584 72.6528 25.9407 72.6528 26.2017C72.6528 26.7693 72.1385 26.9939 71.6273 26.9939C71.0387 26.9939 70.5615 26.7177 70.5522 26.0894H71.0077V26.0955Z" fill="#7E898E"/>
<path d="M73.9914 24.4714H73.5391V26.9999H73.9914V24.4714Z" fill="#7E898E"/>
<path d="M75.1099 24.4714H75.587L76.7643 26.3321H76.7736V24.4714H77.2012V26.9999H76.7271L75.5498 25.1392H75.5405V26.9999H75.1099V24.4714Z" fill="#7E898E"/>
<path d="M78.2266 24.4714H80.0824V24.8539H78.6758V25.5156H79.9771V25.8768H78.6758V26.6175H80.1072V26.9999H78.2266V24.4714Z" fill="#7E898E"/>
<path d="M81.3467 26.0955C81.3467 26.484 81.641 26.6388 82.0004 26.6388C82.397 26.6388 82.5457 26.4476 82.5457 26.2563C82.5457 26.0621 82.4373 25.9831 82.3319 25.9437C82.1522 25.8769 81.9168 25.8314 81.5636 25.7342C81.1236 25.6159 80.9935 25.3548 80.9935 25.0938C80.9935 24.5869 81.4706 24.3501 81.9385 24.3501C82.4776 24.3501 82.9299 24.6294 82.9299 25.1575H82.4775C82.4559 24.8327 82.2328 24.7113 81.9199 24.7113C81.7092 24.7113 81.4458 24.7842 81.4458 25.0391C81.4458 25.2152 81.5698 25.3154 81.7526 25.3639C81.7928 25.3761 82.3629 25.5218 82.4961 25.5582C82.8369 25.6584 82.9981 25.9407 82.9981 26.2017C82.9981 26.7693 82.4837 26.9939 81.9725 26.9939C81.3839 26.9939 80.9068 26.7177 80.8975 26.0894H81.3467V26.0955Z" fill="#7E898E"/>
<path d="M84.1966 26.0955C84.1966 26.484 84.491 26.6388 84.8504 26.6388C85.2469 26.6388 85.3957 26.4476 85.3957 26.2563C85.3957 26.0621 85.2872 25.9831 85.1819 25.9437C85.0022 25.8769 84.7667 25.8314 84.4135 25.7342C83.9736 25.6159 83.8434 25.3548 83.8434 25.0938C83.8434 24.5869 84.3206 24.3501 84.7853 24.3501C85.3244 24.3501 85.7767 24.6294 85.7767 25.1575H85.3244C85.3027 24.8327 85.0796 24.7113 84.7667 24.7113C84.556 24.7113 84.2927 24.7842 84.2927 25.0391C84.2927 25.2152 84.4166 25.3154 84.5994 25.3639C84.6397 25.3761 85.2098 25.5218 85.343 25.5582C85.6838 25.6584 85.8449 25.9407 85.8449 26.2017C85.8449 26.7693 85.3306 26.9939 84.8194 26.9939C84.2307 26.9939 83.7536 26.7177 83.7412 26.0894H84.1966V26.0955Z" fill="#7E898E"/>
<path d="M116 8.01961V7.92854C115.991 7.66446 115.888 7.43681 115.693 7.24558C115.489 7.04524 115.241 6.94507 114.95 6.94507C114.658 6.94507 114.411 7.04524 114.206 7.24558C114.002 7.44591 113.899 7.68875 113.899 7.97407C113.899 8.2594 114.002 8.50224 114.206 8.70257C114.411 8.90291 114.658 9.00308 114.95 9.00308C115.241 9.00308 115.489 8.90291 115.693 8.70257C115.888 8.51134 115.991 8.28369 116 8.01961Z" fill="#7E898E"/>
<path d="M114.947 7.14526C114.714 7.14526 114.516 7.22722 114.352 7.38506C114.188 7.54594 114.104 7.74021 114.104 7.9709C114.104 8.19855 114.188 8.39586 114.352 8.55673C114.516 8.71761 114.714 8.79957 114.947 8.79957C115.182 8.79957 115.38 8.71761 115.545 8.55673C115.709 8.39586 115.793 8.19855 115.793 7.9709C115.793 7.74324 115.712 7.54897 115.545 7.3881C115.384 7.22722 115.182 7.14526 114.947 7.14526Z" fill="#7E898E"/>
<path d="M114.702 7.90126H114.934C115.07 7.90126 115.139 7.84966 115.139 7.74949C115.139 7.65236 115.061 7.60075 114.909 7.60075H114.702V7.90126ZM115.445 8.52352H115.166L115.077 8.34139C115.033 8.2564 114.984 8.18355 114.925 8.12588C114.888 8.08945 114.826 8.07124 114.742 8.07124H114.699V8.52352H114.476V7.42773H115.024C115.139 7.42773 115.225 7.45505 115.287 7.51273C115.346 7.56736 115.377 7.64325 115.377 7.73431C115.377 7.8193 115.349 7.88608 115.297 7.94072C115.244 7.99536 115.17 8.02875 115.077 8.04089V8.04696C115.126 8.06517 115.163 8.08642 115.191 8.11677C115.219 8.14409 115.259 8.20784 115.318 8.30497L115.445 8.52352Z" fill="#7E898E"/>
</g>
<defs>
<clipPath id="clip0">
<rect width="116" height="27" fill="white"/>
</clipPath>
</defs>
</svg>
