<svg width="59" height="31" viewBox="0 0 59 31" fill="none" xmlns="http://www.w3.org/2000/svg">
<g clip-path="url(#clip0)">
<path d="M57.5229 29.4712V29.6332H57.0636V30.8169H56.8727V29.6332H56.4204V29.4712H57.5229Z" fill="#7E898E"/>
<path d="M57.6221 29.4712H57.9118L58.3147 30.5773H58.3218L58.7176 29.4712H59.0003V30.8169H58.8094V29.7178H58.8024L58.3924 30.8169H58.2158L57.82 29.7178H57.8058V30.8169H57.6221V29.4712Z" fill="#7E898E"/>
<path d="M19.2733 20.6008H16.6865V30.8238H19.2733V20.6008Z" fill="#7E898E"/>
<path d="M40.137 23.5248C40.031 23.4684 39.1971 22.9752 37.9602 22.9752C36.2923 22.9752 35.1261 24.1377 35.1261 25.7018C35.1261 27.2236 36.2357 28.4284 37.9602 28.4284C39.1758 28.4284 40.031 27.9493 40.137 27.8859V30.6266C39.8049 30.7252 38.9285 31 37.7765 31C34.8717 31 32.3203 28.9991 32.3203 25.7089C32.3203 22.6582 34.6314 20.4177 37.7765 20.4177C38.9921 20.4177 39.8897 20.7136 40.137 20.7841V23.5248Z" fill="#7E898E"/>
<path d="M13.1317 23.5248C13.0256 23.4684 12.1917 22.9752 10.9549 22.9752C9.27984 22.9752 8.12076 24.1377 8.12076 25.7018C8.12076 27.2236 9.23037 28.4284 10.9549 28.4284C12.1705 28.4284 13.0186 27.9493 13.1317 27.8859V30.6266C12.8066 30.7252 11.9231 31 10.7711 31C7.86633 31 5.31494 28.9991 5.31494 25.7089C5.31494 22.6582 7.62603 20.4177 10.7711 20.4177C11.9867 20.4177 12.8843 20.7136 13.1317 20.7841V23.5248Z" fill="#7E898E"/>
<path d="M53.6922 25.7089C53.6922 28.6327 51.4306 31 48.2785 31C45.1193 31 42.8647 28.6327 42.8647 25.7089C42.8647 22.785 45.1264 20.4177 48.2785 20.4177C51.4306 20.4177 53.6922 22.785 53.6922 25.7089ZM48.2785 23.0175C46.7448 23.0175 45.5999 24.2223 45.5999 25.7089C45.5999 27.1954 46.7378 28.4002 48.2785 28.4002C49.8122 28.4002 50.95 27.1954 50.95 25.7089C50.95 24.2223 49.8051 23.0175 48.2785 23.0175Z" fill="#7E898E"/>
<path d="M29.0901 22.9188C29.0547 22.9047 27.9593 22.6088 27.0687 22.6088C26.0298 22.6088 25.4644 22.9541 25.4644 23.4472C25.4644 24.0672 26.2206 24.2856 26.6447 24.4195L27.3585 24.645C29.0406 25.1804 29.8039 26.3218 29.8039 27.5688C29.8039 30.1404 27.5423 31 25.5563 31C24.1781 31 22.8918 30.7463 22.7646 30.7181V28.365C22.9978 28.4213 24.0792 28.7454 25.21 28.7454C26.4963 28.7454 27.0899 28.372 27.0899 27.7872C27.0899 27.2659 26.574 26.97 25.9309 26.7727C25.7754 26.7234 25.5351 26.6459 25.3796 26.5966C23.9378 26.1386 22.7363 25.3002 22.7363 23.6093C22.7363 21.7 24.171 20.4106 26.5599 20.4106C27.825 20.4106 29.0053 20.7136 29.083 20.7347V22.9188H29.0901Z" fill="#7E898E"/>
<path d="M2.56576 9.60994C2.56576 8.9054 1.98622 8.33472 1.27946 8.33472C0.572704 8.33472 -0.00683594 8.9054 -0.00683594 9.60994V12.2943C-0.00683594 13.0059 0.572704 13.5765 1.27946 13.5765C1.98622 13.5765 2.56576 13.0059 2.56576 12.2943V9.60994Z" fill="#7E898E"/>
<path d="M9.6263 6.09432C9.6263 5.38977 9.04676 4.81909 8.34001 4.81909C7.63325 4.81909 7.05371 5.38977 7.05371 6.09432V12.3014C7.05371 13.013 7.63325 13.5836 8.34001 13.5836C9.04676 13.5836 9.6263 13.013 9.6263 12.3014V6.09432Z" fill="#7E898E"/>
<path d="M16.6795 1.27523C16.6795 0.570682 16.1 0 15.3932 0C14.6865 0 14.1069 0.570682 14.1069 1.27523V14.8448C14.1069 15.5493 14.6865 16.12 15.3932 16.12C16.1 16.12 16.6795 15.5493 16.6795 14.8448V1.27523Z" fill="#7E898E"/>
<path d="M23.7327 6.09432C23.7327 5.38977 23.1603 4.81909 22.4465 4.81909C21.7397 4.81909 21.1602 5.38977 21.1602 6.09432V12.3014C21.1602 13.013 21.7397 13.5836 22.4465 13.5836C23.1603 13.5836 23.7327 13.013 23.7327 12.3014V6.09432Z" fill="#7E898E"/>
<path d="M30.7862 9.60994C30.7862 8.9054 30.2067 8.33472 29.507 8.33472C28.7932 8.33472 28.2207 8.9054 28.2207 9.60994V12.2943C28.2207 13.0059 28.7932 13.5765 29.507 13.5765C30.2067 13.5765 30.7862 13.0059 30.7862 12.2943V9.60994Z" fill="#7E898E"/>
<path d="M37.8399 6.09432C37.8399 5.38977 37.2675 4.81909 36.5536 4.81909C35.8469 4.81909 35.2744 5.38977 35.2744 6.09432V12.3014C35.2744 13.013 35.8469 13.5836 36.5536 13.5836C37.2675 13.5836 37.8399 13.013 37.8399 12.3014V6.09432Z" fill="#7E898E"/>
<path d="M44.9005 1.27523C44.9005 0.570682 44.328 0 43.6213 0C42.9145 0 42.335 0.570682 42.335 1.27523V14.8448C42.335 15.5493 42.9074 16.12 43.6213 16.12C44.328 16.12 44.9005 15.5493 44.9005 14.8448V1.27523Z" fill="#7E898E"/>
<path d="M51.9539 6.09432C51.9539 5.38977 51.3815 4.81909 50.6606 4.81909C49.9538 4.81909 49.3813 5.38977 49.3813 6.09432V12.3014C49.3813 13.013 49.9538 13.5836 50.6606 13.5836C51.3815 13.5836 51.9539 13.013 51.9539 12.3014V6.09432Z" fill="#7E898E"/>
<path d="M59.0001 9.60994C59.0001 8.9054 58.4276 8.33472 57.7209 8.33472C57.007 8.33472 56.4346 8.9054 56.4346 9.60994V12.2943C56.4346 13.0059 57.007 13.5765 57.7209 13.5765C58.4276 13.5765 59.0001 13.0059 59.0001 12.2943V9.60994Z" fill="#7E898E"/>
</g>
<defs>
<clipPath id="clip0">
<rect width="59" height="31" fill="white"/>
</clipPath>
</defs>
</svg>
