<svg width="424" height="49" viewBox="0 0 424 49" fill="none" xmlns="http://www.w3.org/2000/svg">
<g clip-path="url(#clip0)">
<path d="M83.5227 13.5974C83.1679 13.7922 82.4451 14.052 81.5186 14.052C79.7248 14.052 78.8574 12.7598 78.8574 11.1818C78.8574 8.64288 80.5987 6.31171 83.0825 6.31171C83.7264 6.31171 84.3178 6.51301 84.5281 6.63638L84.1798 7.64937C83.9104 7.51301 83.5227 7.37664 83.0036 7.37664C81.2032 7.37664 80.0796 9.27924 80.0796 11.026C80.0796 12.2273 80.6578 13.0065 81.7946 13.0065C82.5108 13.0065 83.0299 12.7792 83.3913 12.5909L83.5227 13.5974Z" fill="white"/>
<path d="M89.6667 13.487C89.1476 13.7922 88.3 14.0714 87.3735 14.0714C85.5533 14.0714 84.7451 12.7143 84.7451 11.0779C84.7451 8.83767 86.2893 6.29871 88.5168 6.29871C89.831 6.29871 90.5472 7.14286 90.5472 8.21429C90.5472 10.1623 88.5037 10.6753 85.941 10.6234C85.8884 10.9481 85.9344 11.6299 86.079 12.0325C86.355 12.7078 86.9135 13.0325 87.6297 13.0325C88.438 13.0325 89.0556 12.7597 89.4827 12.5195L89.6667 13.487ZM88.3525 7.29871C87.2289 7.29871 86.3813 8.48052 86.079 9.64936C87.9517 9.68832 89.4104 9.4026 89.4104 8.24026C89.4104 7.64286 88.9833 7.29871 88.3525 7.29871Z" fill="white"/>
<path d="M91.1646 13.9026L92.0845 8.63634C92.2356 7.80518 92.3407 7.0844 92.413 6.46751H93.4644L93.2935 7.92855H93.3264C93.9375 6.88959 94.8771 6.30518 95.8824 6.30518C96.7169 6.30518 97.6434 6.81167 97.6434 8.35712C97.6434 8.69479 97.5843 9.16232 97.512 9.55842L96.7367 13.9026H95.5736L96.3227 9.60388C96.3687 9.31167 96.4016 8.97401 96.4016 8.64933C96.4016 7.91557 96.1321 7.36362 95.3173 7.36362C94.4763 7.36362 93.2738 8.46102 92.9584 10.2987L92.3276 13.9091H91.1646V13.9026Z" fill="white"/>
<path d="M101.842 4.68182L101.527 6.46104H103.183L102.999 7.46104H101.343L100.712 11.0714C100.627 11.4805 100.574 11.8636 100.574 12.2468C100.574 12.6948 100.771 12.9675 101.231 12.9675C101.448 12.9675 101.626 12.9546 101.79 12.9026L101.731 13.9091C101.52 14 101.159 14.0455 100.817 14.0455C99.7791 14.0455 99.3586 13.3701 99.3586 12.6039C99.3586 12.1753 99.4177 11.7662 99.5097 11.2208L100.18 7.46104H99.1943L99.3717 6.46104H100.351L100.594 5.07793L101.842 4.68182Z" fill="white"/>
<path d="M103.268 13.9026L104.109 9.1169C104.273 8.14288 104.385 7.16885 104.457 6.47404H105.496C105.443 6.99352 105.384 7.5195 105.318 8.09093H105.358C105.804 7.07794 106.547 6.31171 107.48 6.31171C107.585 6.31171 107.723 6.32469 107.815 6.33768L107.585 7.60391C107.506 7.58443 107.388 7.57145 107.257 7.57145C106.232 7.57145 105.318 8.90262 105.009 10.6429L104.438 13.9156H103.268V13.9026Z" fill="white"/>
<path d="M114.36 9.38312C114.36 11.6818 112.842 14.0649 110.523 14.0649C108.788 14.0649 107.815 12.6818 107.815 11.0065C107.815 8.54545 109.406 6.29221 111.646 6.29221C113.519 6.2987 114.36 7.81818 114.36 9.38312ZM109.044 10.9675C109.044 12.1818 109.675 13.0584 110.674 13.0584C112.073 13.0584 113.131 11.1234 113.131 9.38961C113.131 8.52597 112.763 7.31818 111.515 7.31818C110.03 7.31169 109.044 9.26623 109.044 10.9675Z" fill="white"/>
<path d="M125.123 3L123.605 11.539C123.48 12.3182 123.362 13.1753 123.323 13.9026H122.232L122.416 12.4286H122.39C121.759 13.4805 120.885 14.0714 119.906 14.0714C118.552 14.0714 117.823 12.8831 117.823 11.3701C117.823 8.72727 119.656 6.30519 122.094 6.30519C122.541 6.30519 123.02 6.40909 123.323 6.56493L123.947 3H125.123ZM123.132 7.64286C122.902 7.44805 122.501 7.31169 122.002 7.31169C120.346 7.31169 119.052 9.21429 119.052 11.2013C119.052 12.0909 119.341 13.026 120.359 13.026C121.272 13.026 122.376 11.9091 122.672 10.2338L123.132 7.64286Z" fill="white"/>
<path d="M130.268 13.487C129.749 13.7922 128.908 14.0714 127.975 14.0714C126.148 14.0714 125.347 12.7143 125.347 11.0779C125.347 8.83767 126.891 6.29871 129.125 6.29871C130.439 6.29871 131.155 7.14286 131.155 8.21429C131.155 10.1623 129.105 10.6753 126.549 10.6234C126.49 10.9481 126.536 11.6299 126.694 12.0325C126.963 12.7078 127.528 13.0325 128.238 13.0325C129.053 13.0325 129.67 12.7597 130.097 12.5195L130.268 13.487ZM128.948 7.29871C127.824 7.29871 126.976 8.48052 126.674 9.64936C128.54 9.68832 129.999 9.4026 129.999 8.24026C130.005 7.64286 129.578 7.29871 128.948 7.29871Z" fill="white"/>
<path d="M78.7588 29.2467L80.0927 21.8182H81.2557L79.9481 29.2467H78.7588ZM80.3095 19.7597C80.3227 19.2662 80.6643 18.9026 81.0783 18.9026C81.5054 18.9026 81.7945 19.2402 81.7945 19.7013C81.7814 20.2078 81.4529 20.5584 80.9797 20.5584C80.5592 20.5519 80.3095 20.2143 80.3095 19.7597Z" fill="white"/>
<path d="M82.0444 29.2467L82.9644 23.974C83.1221 23.1493 83.2272 22.4286 83.2929 21.8117H84.3508L84.1734 23.2662H84.2063C84.8239 22.2273 85.757 21.6429 86.7623 21.6429C87.5968 21.6429 88.5234 22.1493 88.5234 23.7013C88.5234 24.039 88.4708 24.4935 88.3985 24.8961L87.6231 29.2403H86.4535L87.2092 24.9416C87.2486 24.6493 87.2946 24.3117 87.2946 23.987C87.2946 23.2532 87.0186 22.7013 86.2038 22.7013C85.3627 22.7013 84.1603 23.7922 83.8383 25.6299L83.2141 29.2403H82.0444V29.2467Z" fill="white"/>
<path d="M89.8174 29.2468L90.9673 22.8117H90.0342L90.2248 21.8182H91.1381L91.2104 21.4156C91.3813 20.3896 91.7229 19.4351 92.3406 18.8377C92.7874 18.4026 93.3854 18.1753 93.9833 18.1753C94.4564 18.1753 94.7718 18.2662 94.9427 18.3766L94.6864 19.3896C94.509 19.2987 94.2593 19.2468 93.9833 19.2468C93.0437 19.2468 92.5837 20.2273 92.38 21.461L92.3275 21.8182H93.8519L93.6745 22.8117H92.1303L91.0133 29.2468H89.8174Z" fill="white"/>
<path d="M100.351 24.7338C100.351 27.0325 98.8395 29.4156 96.5068 29.4156C94.7721 29.4156 93.8062 28.0325 93.8062 26.3636C93.8062 23.9091 95.3897 21.6493 97.6304 21.6493C99.5097 21.6428 100.351 23.1688 100.351 24.7338ZM95.0415 26.3182C95.0415 27.5325 95.6723 28.4091 96.6776 28.4091C98.0707 28.4091 99.1286 26.474 99.1286 24.7403C99.1286 23.8831 98.7606 22.6688 97.5121 22.6688C96.0205 22.6623 95.0415 24.6104 95.0415 26.3182Z" fill="white"/>
<path d="M101.185 29.2467L102.026 24.4545C102.184 23.4805 102.309 22.5065 102.374 21.8117H103.419C103.36 22.3312 103.301 22.8571 103.229 23.4286H103.275C103.721 22.4156 104.464 21.6429 105.397 21.6429C105.502 21.6429 105.634 21.6558 105.739 21.6753L105.502 22.9416C105.417 22.9286 105.305 22.9091 105.18 22.9091C104.149 22.9091 103.235 24.2403 102.933 25.9805L102.361 29.2467H101.185Z" fill="white"/>
<path d="M105.719 29.2467L106.639 23.974C106.784 23.1493 106.882 22.4286 106.955 21.8117H107.993L107.822 23.2078H107.855C108.492 22.1688 109.366 21.6429 110.279 21.6429C111.331 21.6429 111.843 22.3636 111.889 23.2987C112.507 22.2273 113.387 21.6558 114.426 21.6429C115.227 21.6429 116.114 22.2013 116.114 23.5974C116.114 23.9351 116.075 24.4416 115.996 24.8506L115.221 29.2467H114.064L114.807 24.961C114.866 24.6688 114.905 24.2987 114.905 23.9935C114.905 23.2143 114.629 22.7078 113.861 22.7078C112.993 22.7078 111.968 23.7792 111.686 25.4351L111.029 29.2467H109.892L110.667 24.8831C110.72 24.5454 110.753 24.2727 110.753 23.974C110.753 23.3506 110.595 22.7013 109.721 22.7013C108.86 22.7013 107.776 23.9286 107.513 25.513L106.882 29.2467H105.719Z" fill="white"/>
<path d="M121.844 29.2468C121.844 28.8052 121.923 28.0974 122.002 27.3247H121.975C121.233 28.8766 120.273 29.4156 119.288 29.4156C118.053 29.4156 117.297 28.3701 117.297 26.9546C117.297 24.3636 119.071 21.6429 122.087 21.6429C122.751 21.6429 123.467 21.7662 123.953 21.9156L123.237 25.8052C123.007 27.0974 122.922 28.4156 122.954 29.2468H121.844ZM122.619 22.7662C122.462 22.7078 122.199 22.6559 121.798 22.6559C120.004 22.6559 118.526 24.6494 118.526 26.7273C118.526 27.5584 118.802 28.3636 119.715 28.3636C120.707 28.3636 121.877 26.9805 122.218 25.0065L122.619 22.7662ZM123.947 18.7143L122.048 20.9091H121.101L122.514 18.7143H123.947Z" fill="white"/>
<path d="M127.778 20.0325L127.462 21.8182H129.125L128.941 22.8182H127.278L126.654 26.4286C126.568 26.8442 126.516 27.2273 126.516 27.6104C126.516 28.052 126.713 28.3312 127.166 28.3312C127.383 28.3312 127.574 28.3182 127.725 28.2727L127.672 29.2662C127.456 29.3636 127.107 29.4091 126.759 29.4091C125.721 29.4091 125.3 28.7273 125.3 27.9675C125.3 27.539 125.359 27.1234 125.458 26.5844L126.128 22.8247H125.143L125.313 21.8247H126.292L126.529 20.4416L127.778 20.0325Z" fill="white"/>
<path d="M129.19 29.2467L130.524 21.8182H131.694L130.38 29.2467H129.19ZM130.728 19.7597C130.754 19.2662 131.089 18.9026 131.51 18.9026C131.93 18.9026 132.22 19.2402 132.22 19.7013C132.206 20.2078 131.884 20.5584 131.405 20.5584C130.991 20.5519 130.728 20.2143 130.728 19.7597Z" fill="white"/>
<path d="M137.22 28.935C136.872 29.1363 136.149 29.3961 135.223 29.3961C133.435 29.3961 132.568 28.1104 132.568 26.5259C132.568 23.9935 134.309 21.6558 136.8 21.6558C137.437 21.6558 138.022 21.8636 138.239 21.9805L137.897 22.9935C137.621 22.8571 137.233 22.7208 136.721 22.7208C134.92 22.7208 133.79 24.6298 133.79 26.3701C133.79 27.5714 134.375 28.3506 135.499 28.3506C136.215 28.3506 136.747 28.1234 137.108 27.935L137.22 28.935Z" fill="white"/>
<path d="M142.884 29.2468C142.884 28.8052 142.956 28.0974 143.042 27.3247H143.015C142.266 28.8766 141.314 29.4156 140.328 29.4156C139.099 29.4156 138.337 28.3701 138.337 26.9545C138.337 24.3636 140.111 21.6429 143.127 21.6429C143.804 21.6429 144.514 21.7662 145.006 21.9156L144.29 25.8052C144.06 27.0974 143.975 28.4156 144.001 29.2468H142.884ZM143.653 22.7662C143.495 22.7078 143.239 22.6558 142.831 22.6558C141.031 22.6558 139.559 24.6493 139.559 26.7273C139.559 27.5584 139.835 28.3636 140.748 28.3636C141.734 28.3636 142.91 26.9805 143.252 25.0065L143.653 22.7662Z" fill="white"/>
<path d="M80.2702 37.1623L80.9535 41.1494C81.1112 42.013 81.1967 42.5584 81.2755 43.1169H81.3018C81.4923 42.6429 81.6895 42.1169 82.0443 41.2922L83.8184 37.1623H85.0801L82.478 42.8052C81.7289 44.4026 81.0324 45.7078 80.0927 46.7078C79.3174 47.5519 78.4697 47.9026 78.082 47.9935L77.7798 46.8831C78.082 46.7792 78.5749 46.5779 79.0545 46.1753C79.5211 45.7922 80.0205 45.1948 80.395 44.4545C80.4541 44.3312 80.4541 44.2532 80.4213 44.1169L79.0414 37.1494H80.2702V37.1623Z" fill="white"/>
<path d="M87.7345 43.3052C88.063 43.5195 88.6478 43.7662 89.2195 43.7662C90.0212 43.7662 90.5337 43.2143 90.5337 42.5519C90.5337 41.9675 90.2906 41.6169 89.5612 41.1818C88.7595 40.7013 88.3193 40.0454 88.3193 39.2792C88.3193 37.9935 89.3641 36.987 90.8162 36.987C91.4471 36.987 92.0056 37.1753 92.2618 37.3571L91.9267 38.3247C91.6902 38.1688 91.2499 37.987 90.7308 37.987C90.0146 37.987 89.5021 38.461 89.5021 39.1039C89.5021 39.6428 89.824 39.9805 90.4614 40.3441C91.2302 40.8052 91.7493 41.461 91.7493 42.2987C91.7493 43.8636 90.5797 44.7338 89.1209 44.7338C88.385 44.7143 87.7016 44.4935 87.3862 44.2273L87.7345 43.3052Z" fill="white"/>
<path d="M92.9912 44.5909L94.3251 37.1688H95.4882L94.1805 44.5909H92.9912ZM94.5354 35.1039C94.5485 34.6104 94.8902 34.2403 95.3107 34.2403C95.7379 34.2403 96.0204 34.5844 96.0204 35.0455C96.0073 35.552 95.6721 35.9026 95.2056 35.9026C94.7916 35.9026 94.5354 35.5649 94.5354 35.1039Z" fill="white"/>
<path d="M96.3361 43.3052C96.658 43.5195 97.2494 43.7662 97.8211 43.7662C98.6227 43.7662 99.1353 43.2143 99.1353 42.5519C99.1353 41.9675 98.8921 41.6169 98.1628 41.1818C97.3611 40.7013 96.9209 40.0454 96.9209 39.2792C96.9209 37.9935 97.9656 36.987 99.4178 36.987C100.049 36.987 100.607 37.1753 100.87 37.3571L100.541 38.3247C100.298 38.1688 99.8515 37.987 99.3389 37.987C98.6227 37.987 98.1102 38.461 98.1102 39.1039C98.1102 39.6428 98.4387 39.9805 99.063 40.3441C99.8383 40.8052 100.351 41.461 100.351 42.2987C100.351 43.8636 99.1747 44.7338 97.7225 44.7338C96.98 44.7143 96.3032 44.4935 95.9878 44.2273L96.3361 43.3052Z" fill="white"/>
<path d="M104.655 35.3766L104.339 37.1624H106.002L105.811 38.1559H104.149L103.531 41.7663C103.446 42.1883 103.38 42.565 103.38 42.9481C103.38 43.3896 103.584 43.6624 104.037 43.6624C104.254 43.6624 104.431 43.6494 104.596 43.6039L104.543 44.6039C104.333 44.6948 103.971 44.7338 103.63 44.7338C102.578 44.7338 102.164 44.065 102.164 43.2987C102.164 42.8637 102.217 42.4546 102.322 41.9156L102.999 38.1494H102.013L102.184 37.1559H103.17L103.413 35.7728L104.655 35.3766Z" fill="white"/>
<path d="M111.002 44.1753C110.49 44.487 109.642 44.7597 108.715 44.7597C106.889 44.7597 106.081 43.4091 106.081 41.7662C106.081 39.526 107.625 36.987 109.859 36.987C111.173 36.987 111.889 37.8376 111.889 38.9091C111.889 40.8636 109.846 41.3701 107.283 41.3117C107.224 41.6364 107.27 42.3312 107.428 42.7273C107.697 43.4026 108.256 43.7208 108.972 43.7208C109.787 43.7208 110.404 43.461 110.831 43.2143L111.002 44.1753ZM109.688 37.9935C108.564 37.9935 107.717 39.1688 107.421 40.3376C109.287 40.3636 110.746 40.0909 110.746 38.9286C110.739 38.3247 110.312 37.9935 109.688 37.9935Z" fill="white"/>
<path d="M112.5 44.5909L113.414 39.3247C113.565 38.5 113.664 37.7792 113.736 37.1688H114.774L114.603 38.5649H114.636C115.28 37.5195 116.147 37 117.067 37C118.125 37 118.631 37.7273 118.684 38.6558C119.301 37.5844 120.188 37.013 121.207 37C122.015 37 122.896 37.5584 122.896 38.9481C122.896 39.2857 122.856 39.7922 122.784 40.2078L122.009 44.5909H120.852L121.588 40.3117C121.647 40.0195 121.687 39.6494 121.687 39.3377C121.687 38.5584 121.411 38.0519 120.642 38.0519C119.788 38.0519 118.756 39.1234 118.473 40.7857L117.81 44.5844H116.666L117.435 40.2273C117.494 39.8896 117.521 39.6169 117.521 39.3182C117.521 38.6948 117.37 38.0455 116.489 38.0455C115.635 38.0455 114.551 39.2727 114.275 40.8571L113.65 44.5844H112.5V44.5909Z" fill="white"/>
<path d="M128.625 44.5909C128.625 44.1493 128.697 43.448 128.776 42.6753H128.757C128.014 44.2273 127.055 44.7662 126.063 44.7662C124.834 44.7662 124.078 43.7208 124.078 42.3052C124.078 39.7078 125.846 36.987 128.868 36.987C129.539 36.987 130.261 37.1169 130.734 37.2662L130.025 41.1493C129.795 42.435 129.703 43.7597 129.736 44.5844H128.625V44.5909ZM129.387 38.1104C129.236 38.0519 128.973 38.0065 128.573 38.0065C126.772 38.0065 125.307 40 125.307 42.0714C125.307 42.9091 125.57 43.7143 126.483 43.7143C127.469 43.7143 128.651 42.3312 128.993 40.3506L129.387 38.1104Z" fill="white"/>
<path d="M131.562 43.3052C131.891 43.5195 132.469 43.7662 133.054 43.7662C133.856 43.7662 134.368 43.2143 134.368 42.5519C134.368 41.9675 134.125 41.6169 133.396 41.1818C132.594 40.7013 132.154 40.0454 132.154 39.2792C132.154 37.9935 133.199 36.987 134.657 36.987C135.288 36.987 135.84 37.1753 136.096 37.3571L135.774 38.3247C135.531 38.1688 135.084 37.987 134.572 37.987C133.856 37.987 133.343 38.461 133.343 39.1039C133.343 39.6428 133.665 39.9805 134.296 40.3441C135.065 40.8052 135.584 41.461 135.584 42.2987C135.584 43.8636 134.408 44.7338 132.949 44.7338C132.206 44.7143 131.536 44.4935 131.221 44.2273L131.562 43.3052Z" fill="white"/>
<path d="M142.871 45.7468L142.726 46.513H135.577L135.722 45.7468H142.871Z" fill="white"/>
<path d="M14.0749 14.9286C15.3693 13.7727 17.8268 12.4091 23.2347 12.4091L45.0961 12.3831L46.4628 4.29871H22.1768C16.3615 4.29871 12.4321 6.53247 9.60665 8.61039C3.8374 12.7468 0 19.9026 0 29.0779C0 39.0909 5.99923 46.4935 15.8884 46.4935H23.1164L23.2347 45.7143L24.562 37.8961H16.8018C11.6502 37.8961 8.81814 32.7013 8.81814 28.1039C8.81814 22.3961 10.9077 17.7792 14.0749 14.9286Z" fill="white"/>
<path d="M64.4998 22.1234C61.2735 20.1818 58.954 18.6624 58.954 16.2987C58.954 14.0455 60.9318 12.0455 64.7823 12.0455C67.8838 11.987 70.6042 13.0714 71.8395 13.8052L74.3824 6.51949C72.7463 5.60391 70.0325 4.513 65.3934 4.513C57.0878 4.513 50.4118 9.50001 50.4118 17.8117C50.4118 23.0909 54.2558 26.3117 58.2706 28.6169C61.7794 30.6234 63.4156 32.0779 63.4156 34.4481C63.4156 36.5065 62.5942 38.6039 59.2299 38.6039H40.7526L43.7752 20.6883L35.6207 20.7013L31.2773 46.7078H38.6893H39.3793H59.3614C67.8115 46.7078 72.0695 41.013 72.0695 32.9286C72.0695 28.013 69.1257 24.6753 64.4998 22.1234Z" fill="white"/>
</g>
<g clip-path="url(#clip1)">
<path d="M238.819 25.7084C238.702 24.7881 238.444 22.3259 235.835 22.3259C234.543 22.3259 233.61 22.9643 232.876 24.5228C232.084 26.2307 231.801 28.7095 231.801 29.6712C231.801 32.9044 233.826 33.2526 234.601 33.2526C236.477 33.2526 237.619 31.4287 238.086 30.2432L240.228 31.1468C239.053 33.8661 237.202 35.5076 234.401 35.5076C230.967 35.5158 229 32.7966 229 29.0908C229 24.7467 231.451 20.1455 235.893 20.1455C239.269 20.1455 240.961 22.2679 241.203 25.2773L238.819 25.7084Z" fill="white"/>
<path d="M241.42 35.1511L243.896 20.5103H253.181L252.79 22.815H246.121L245.488 26.612H250.997L250.647 28.7924H245.121L244.446 32.8464H251.372L250.972 35.1511H241.42Z" fill="white"/>
<path d="M261.592 35.1511L256.582 24.1498L254.723 35.1511H252.606L255.082 20.5103H257.799L262.367 30.5582L264.067 20.5103H266.159L263.7 35.1511H261.592Z" fill="white"/>
<path d="M273.611 22.815L271.544 35.1511H268.827L270.902 22.815H267.168L267.551 20.5103H277.737L277.346 22.815H273.611Z" fill="white"/>
<path d="M285.306 35.1511L283.739 29.1571H280.296L279.279 35.1511H276.654L279.113 20.5103H284.648C286.323 20.5103 287.398 20.643 288.323 21.4305C289.074 22.0689 289.782 23.1466 289.782 24.5477C289.782 25.3519 289.474 26.9353 288.315 27.9053C287.515 28.5602 286.765 28.7343 286.306 28.8504L288.107 35.1511H285.306ZM280.655 27.0265H284.314C285.206 27.0265 285.748 26.9602 286.348 26.4628C286.748 26.1312 287.056 25.4099 287.056 24.7052C287.056 24.2576 286.94 23.8679 286.698 23.5197C286.131 22.6409 285.156 22.6409 284.272 22.6409H281.38L280.655 27.0265Z" fill="white"/>
<path d="M290.524 28.9167C290.524 25.3104 292.591 20.1124 297.476 20.1124C301.443 20.1124 303.177 23.1881 303.177 26.7198C303.177 30.5333 300.977 35.5407 296.117 35.5407C293.166 35.5407 290.524 33.1282 290.524 28.9167ZM299.343 31.1302C300.21 29.2483 300.376 27.0514 300.376 26.1312C300.376 24.9705 300.21 22.3176 297.342 22.3176C296.167 22.3176 295.359 22.8648 294.667 24.0586C293.941 25.2607 293.325 27.4908 293.325 29.381C293.325 30.9893 293.683 31.7686 294.008 32.266C294.583 33.095 295.667 33.352 296.242 33.352C298.243 33.3438 299.084 31.6774 299.343 31.1302Z" fill="white"/>
<path d="M311.404 20.5103H315.73C316.964 20.5103 318.973 20.5103 320.432 22.3756C321.598 23.8928 321.824 25.7747 321.824 27.01C321.824 29.4473 320.965 31.7437 319.306 33.4847C317.664 35.1511 315.73 35.1511 314.03 35.1511H308.962L311.404 20.5103ZM312.021 32.9293H314.355C315.264 32.9293 316.43 32.9293 317.614 31.5696C318.714 30.3012 319.039 27.9468 319.039 26.612C319.039 26.0897 318.923 24.7218 318.273 23.8099C317.456 22.6824 316.105 22.6824 315.339 22.6824H313.755L312.021 32.9293Z" fill="white"/>
<path d="M322.857 35.1511L325.325 20.5103H334.61L334.219 22.815H327.559L326.917 26.612H332.435L332.076 28.7924H326.567L325.883 32.8464H332.81L332.418 35.1511H322.857Z" fill="white"/>
<path d="M342.288 35.1345H338.903L341.362 20.5435H344.73L342.288 35.1345Z" fill="white"/>
<path d="M346.58 20.5435H350.889C353.423 20.5435 354.832 21.1818 355.916 22.5415C356.924 23.8762 357.391 25.5343 357.391 27.2255C357.391 30.5002 355.916 32.7137 354.549 33.808C352.873 35.1428 351.19 35.1428 349.264 35.1428H344.121L346.58 20.5435ZM347.78 32.5562H349.547C350.114 32.5562 351.698 32.5562 352.64 31.4121C353.515 30.3675 353.94 28.5685 353.94 26.9685C353.94 24.7135 353.132 23.1135 350.864 23.1135H349.364L347.78 32.5562Z" fill="white"/>
<path d="M360.775 35.1345H357.383L359.85 20.5435H363.218L360.775 35.1345Z" fill="white"/>
<path d="M375.713 30.1769C374.988 32.3158 373.271 35.3583 369.278 35.3583C365.769 35.3583 363.518 32.8215 363.518 29.0328C363.518 25.0203 365.744 20.3196 370.403 20.3196C373.929 20.3196 376.213 22.7902 376.213 26.7778C376.213 28.3779 376.005 29.3561 375.713 30.1769ZM370.428 23.014C367.111 23.014 366.886 28.7012 366.886 29.5136C366.886 31.0391 367.327 32.664 369.42 32.664C371.312 32.664 371.979 30.9313 372.345 29.6877C372.787 28.1789 372.879 27.3001 372.879 26.297C372.879 25.5094 372.879 23.014 370.428 23.014Z" fill="white"/>
<path d="M392.583 35.1345H389.158L391.225 22.9228L385.307 35.1345H383.356L381.389 22.7902L379.297 35.1345H376.529L378.988 20.5435H384.14L385.432 29.4722L389.724 20.5435H395.059L392.583 35.1345Z" fill="white"/>
<path d="M403.503 35.1345L403.036 31.9178H398.135L396.726 35.1345H393.542L400.519 20.5352H404.545L407.012 35.1345H403.503ZM399.243 29.381H402.694L401.819 23.5363L399.243 29.381Z" fill="white"/>
<path d="M416.398 24.8213C416.215 24.3239 415.806 23.0057 413.897 23.0057C412.505 23.0057 411.889 23.7684 411.889 24.498C411.889 25.5426 412.839 25.7913 413.997 26.0731C416.331 26.6618 418.974 27.3664 418.974 30.5748C418.974 32.8546 417.373 35.4247 413.147 35.4247C408.013 35.4247 407.337 32.009 407.112 30.981L410.263 30.5665C410.396 31.1137 410.788 32.7303 413.231 32.7303C415.064 32.7303 415.573 31.7769 415.573 31.0225C415.573 29.953 414.781 29.7375 412.997 29.2483C411.455 28.8255 408.621 28.0877 408.621 25.0203C408.621 23.072 410.021 20.3196 413.906 20.3196C415.373 20.3196 416.848 20.7342 417.957 21.7207C418.899 22.5746 419.207 23.47 419.407 24.1332L416.398 24.8213Z" fill="white"/>
<path fill-rule="evenodd" clip-rule="evenodd" d="M406.554 9.3681C411.955 21.2648 420.499 14.2677 424.008 21.5715C420.341 9.85723 412.564 16.3569 406.554 9.3681Z" fill="white"/>
<path fill-rule="evenodd" clip-rule="evenodd" d="M405.537 4.23636C409.371 16.7962 418.024 9.31005 422.308 16.904C418.649 5.00736 414.023 12.4438 405.537 4.23636Z" fill="white"/>
<path fill-rule="evenodd" clip-rule="evenodd" d="M405.57 0C408.896 11.764 417.057 4.94934 420.891 12.0873C416.873 1.43423 413.289 7.80122 405.57 0Z" fill="white"/>
<path d="M275.879 43.2093C275.779 43.7564 275.687 44.3285 275.062 44.7181C274.778 44.9088 274.437 44.9834 274.062 44.9834C273.295 44.9834 272.511 44.5938 272.511 43.5575C272.511 43.3005 272.561 43.0186 272.57 42.8777L273.036 40.1501H273.903L273.445 42.9274C273.411 43.0766 273.361 43.3834 273.361 43.5326C273.361 44.2456 274.103 44.2456 274.178 44.2456C275.029 44.2456 275.129 43.6072 275.237 42.9937L275.72 40.1501H276.396L275.879 43.2093Z" fill="white"/>
<path d="M280.013 44.8757L278.396 41.3357L277.787 44.8757H277.112L277.913 40.1584H278.779L280.255 43.4L280.805 40.1584H281.48L280.697 44.8757H280.013Z" fill="white"/>
<path d="M282.255 44.8757L283.039 40.1584H283.922L283.122 44.8757H282.255Z" fill="white"/>
<path d="M285.715 44.8757L284.915 40.1584H285.806L286.407 43.8808L288.057 40.1584H288.799L286.665 44.8757H285.715Z" fill="white"/>
<path d="M289.065 44.8757L289.866 40.1584H292.85L292.733 40.8963H290.591L290.374 42.1233H292.158L292.041 42.8197H290.266L290.041 44.1378H292.283L292.15 44.8757H289.065Z" fill="white"/>
<path d="M296.201 44.8756L295.684 42.9523H294.575L294.25 44.8839H293.4L294.192 40.1667H295.976C296.509 40.1667 296.867 40.2082 297.168 40.4569C297.409 40.6641 297.634 41.0123 297.634 41.4683C297.634 41.7336 297.543 42.231 297.159 42.546C296.909 42.7616 296.667 42.8113 296.509 42.8445L297.101 44.8839H296.201V44.8756ZM294.7 42.2559H295.876C296.159 42.2559 296.342 42.2393 296.526 42.0818C296.659 41.974 296.751 41.7336 296.751 41.5098C296.751 41.3605 296.717 41.2362 296.634 41.1284C296.451 40.8382 296.142 40.8382 295.851 40.8382H294.917L294.7 42.2559Z" fill="white"/>
<path d="M301.335 41.3357C301.294 41.2279 301.185 40.9792 300.885 40.8548C300.735 40.7885 300.568 40.7636 300.435 40.7636C299.893 40.7636 299.602 41.0704 299.602 41.3937C299.602 41.6922 299.81 41.858 300.243 41.974C301.069 42.2062 301.244 42.2559 301.535 42.488C301.81 42.7036 301.944 43.0435 301.944 43.3917C301.944 43.6984 301.777 44.9751 300.043 44.9751C298.66 44.9751 298.31 44.0964 298.193 43.8062L298.968 43.5326C299.051 43.7482 299.268 44.287 300.102 44.287C300.852 44.287 301.052 43.8477 301.052 43.5492C301.052 43.2507 300.819 43.0932 300.535 43.002L299.76 42.7782C299.151 42.5875 298.726 42.1896 298.726 41.5181C298.726 40.689 299.343 40.0424 300.452 40.0424C301.494 40.0424 301.919 40.5896 302.127 41.0621L301.335 41.3357Z" fill="white"/>
<path d="M302.927 44.8757L303.719 40.1584H304.594L303.802 44.8757H302.927Z" fill="white"/>
<path d="M306.153 40.1584H307.537C307.937 40.1584 308.587 40.1584 309.062 40.7636C309.437 41.2445 309.504 41.858 309.504 42.2559C309.504 43.0352 309.237 43.7813 308.704 44.3451C308.179 44.8839 307.545 44.8839 307.003 44.8839H305.37L306.153 40.1584ZM306.345 44.1627H307.112C307.395 44.1627 307.787 44.1627 308.154 43.715C308.504 43.3088 308.62 42.5544 308.62 42.1233C308.62 41.9575 308.587 41.5181 308.362 41.2196C308.104 40.8631 307.67 40.8631 307.428 40.8631H306.912L306.345 44.1627Z" fill="white"/>
<path d="M313.147 44.8757L312.947 43.7399H311.23L310.705 44.8757H309.896L312.172 40.1584H313.23L314.097 44.8757H313.147ZM312.863 43.0849L312.497 40.9792L311.521 43.0849H312.863Z" fill="white"/>
<path d="M315.931 40.1584H317.323C317.714 40.1584 318.365 40.1584 318.84 40.7636C319.215 41.2445 319.29 41.858 319.29 42.2559C319.29 43.0352 319.015 43.7813 318.473 44.3451C317.948 44.8839 317.323 44.8839 316.772 44.8839H315.139L315.931 40.1584ZM316.122 44.1627H316.872C317.164 44.1627 317.539 44.1627 317.923 43.715C318.273 43.3088 318.381 42.5544 318.381 42.1233C318.381 41.9575 318.348 41.5181 318.131 41.2196C317.864 40.8631 317.439 40.8631 317.198 40.8631H316.672L316.122 44.1627Z" fill="white"/>
<path d="M325.491 41.8331C325.466 41.5346 325.366 40.747 324.533 40.747C324.116 40.747 323.816 40.946 323.574 41.4517C323.324 42.0072 323.224 42.8031 323.224 43.1098C323.224 44.1544 323.882 44.2704 324.133 44.2704C324.733 44.2704 325.108 43.6818 325.241 43.2922L325.933 43.5823C325.558 44.4611 324.966 44.9834 324.058 44.9834C322.949 44.9834 322.315 44.1129 322.315 42.9191C322.315 41.518 323.099 40.0258 324.533 40.0258C325.625 40.0258 326.175 40.7056 326.25 41.6921L325.491 41.8331Z" fill="white"/>
<path d="M326.917 44.8756L327.717 40.1584H330.71L330.585 40.8963H328.442L328.234 42.1232H330.018L329.909 42.8196H328.134L327.909 44.1378H330.151L330.018 44.8839H326.917V44.8756ZM328.817 39.7273L328.709 39.3625L330.235 38.7076L330.435 39.1967L328.817 39.7273Z" fill="white"/>
<path d="M334.135 41.3357C334.094 41.2279 333.985 40.9792 333.668 40.8548C333.51 40.7885 333.352 40.7636 333.218 40.7636C332.668 40.7636 332.393 41.0704 332.393 41.3937C332.393 41.6922 332.601 41.858 333.035 41.974C333.86 42.2062 334.035 42.2559 334.319 42.488C334.594 42.7036 334.727 43.0435 334.727 43.3917C334.727 43.6984 334.577 44.9751 332.835 44.9751C331.443 44.9751 331.101 44.0964 330.984 43.8062L331.76 43.5326C331.851 43.7482 332.06 44.287 332.885 44.287C333.652 44.287 333.852 43.8477 333.852 43.5492C333.852 43.2507 333.61 43.0932 333.327 43.002L332.56 42.7782C331.951 42.5875 331.518 42.1896 331.518 41.5181C331.518 40.689 332.135 40.0424 333.243 40.0424C334.285 40.0424 334.71 40.5896 334.91 41.0621L334.135 41.3357Z" fill="white"/>
<path d="M338.536 44.8757L338.336 43.7399H336.619L336.094 44.8757H335.294L337.561 40.1584H338.611L339.478 44.8757H338.536ZM338.253 43.0849L337.886 40.9792L336.903 43.0849H338.253Z" fill="white"/>
<path d="M343.304 44.8757L342.804 42.944H341.687L341.362 44.8757H340.52L341.304 40.1584H343.096C343.629 40.1584 343.979 40.1999 344.279 40.4486C344.521 40.6559 344.746 41.0041 344.746 41.46C344.746 41.7253 344.646 42.2227 344.271 42.5378C344.013 42.7533 343.771 42.8031 343.621 42.8362L344.204 44.8757H343.304ZM341.812 42.2559H342.996C343.279 42.2559 343.454 42.2393 343.646 42.0818C343.779 41.974 343.871 41.7336 343.871 41.5098C343.871 41.3605 343.838 41.2362 343.763 41.1284C343.579 40.8383 343.262 40.8383 342.979 40.8383H342.045L341.812 42.2559Z" fill="white"/>
<path d="M348.247 44.8757L347.456 40.1584H348.347L348.948 43.8808L350.581 40.1584H351.34L349.206 44.8757H348.247Z" fill="white"/>
<path d="M354.165 44.8757L353.974 43.7399H352.257L351.731 44.8757H350.923L353.19 40.1584H354.24L355.116 44.8757H354.165ZM353.899 43.0849L353.524 40.9792L352.548 43.0849H353.899Z" fill="white"/>
<path d="M356.166 44.8757L356.95 40.1584H357.85L357.191 44.1378H359.133L359.008 44.8757H356.166Z" fill="white"/>
<path d="M360.15 44.8757L360.951 40.1584H361.851L361.184 44.1378H363.126L363.001 44.8757H360.15Z" fill="white"/>
<path d="M364.143 44.8757L364.935 40.1584H367.936L367.811 40.8963H365.66L365.452 42.1233H367.227L367.119 42.8197H365.343L365.118 44.1378H367.352L367.227 44.8757H364.143Z" fill="white"/>
<path d="M368.102 44.1793C368.219 44.1958 368.369 44.2124 368.569 44.2124C369.311 44.2124 369.444 43.9305 369.552 43.2756L370.078 40.1501H370.953L370.444 43.1347C370.311 43.9803 370.144 44.9503 368.677 44.9503C368.386 44.9503 368.119 44.9005 367.969 44.8839L368.102 44.1793Z" fill="white"/>
<path d="M371.803 42.8611C371.803 41.717 372.478 40.0341 374.037 40.0341C375.321 40.0341 375.879 41.0206 375.879 42.1647C375.879 43.3917 375.171 45.0083 373.604 45.0083C372.662 45 371.803 44.229 371.803 42.8611ZM374.654 43.5906C374.921 42.9689 374.987 42.2642 374.987 41.974C374.987 41.5927 374.921 40.7471 374.012 40.7471C373.629 40.7471 373.362 40.9129 373.145 41.3025C372.912 41.7004 372.712 42.4134 372.712 43.0269C372.712 43.5492 372.828 43.7979 372.929 43.9471C373.112 44.229 373.47 44.3036 373.645 44.3036C374.296 44.2953 374.562 43.7565 374.654 43.5906Z" fill="white"/>
</g>
<path d="M190 1H191V49H190V1Z" fill="white"/>
<defs>
<clipPath id="clip0">
<rect width="145" height="45" fill="white" transform="translate(0 3)"/>
</clipPath>
<clipPath id="clip1">
<rect width="195" height="45" fill="white" transform="translate(229)"/>
</clipPath>
</defs>
</svg>
