<svg width="123" height="26" viewBox="0 0 123 26" fill="none" xmlns="http://www.w3.org/2000/svg">
<path d="M0 0H12.4271C12.4271 4.12385 12.4271 8.24771 12.4271 12.3716H0V0Z" fill="white"/>
<path d="M13.6896 0H26.1167C26.1167 4.12385 26.1167 8.24771 26.1167 12.3716H13.6896C13.6896 8.24771 13.6896 4.12385 13.6896 0Z" fill="white"/>
<path d="M112.694 4.5428C113.841 3.79525 115.326 3.72953 116.621 4.08277C116.63 4.84675 116.621 5.61894 116.621 6.38292C116.003 6.11183 115.285 5.93932 114.633 6.2022C114.121 6.40757 113.816 6.9251 113.733 7.45085C113.634 8.11626 113.7 8.78988 113.684 9.46349C114.996 9.46349 116.316 9.46349 117.628 9.46349C117.636 8.61736 117.62 7.76302 117.636 6.91689C118.528 6.66223 119.419 6.37471 120.302 6.11183C120.31 7.22905 120.293 8.35449 120.31 9.47171C121.201 9.45528 122.092 9.47171 122.975 9.46349V11.6486C122.084 11.6158 121.193 11.6404 120.293 11.6322C120.293 12.8891 120.293 14.1377 120.293 15.3946C120.31 16.0847 120.26 16.7829 120.335 17.4812C120.384 17.8919 120.533 18.3437 120.921 18.5491C121.564 18.9106 122.381 18.7463 122.975 18.3602V20.5618C122.208 20.8986 121.341 20.9971 120.508 20.9396C119.716 20.8821 118.899 20.5946 118.379 19.9703C117.785 19.2638 117.628 18.3027 117.62 17.4073C117.612 15.485 117.62 13.5627 117.62 11.6322C116.3 11.6322 114.988 11.6322 113.667 11.6322C113.667 14.6553 113.667 17.6701 113.667 20.6932H110.969C110.969 17.6783 110.969 14.6553 110.969 11.6404C110.342 11.6322 109.715 11.6404 109.096 11.6322C109.096 10.9175 109.096 10.1946 109.096 9.47992C109.715 9.46349 110.342 9.47171 110.969 9.47992C111.01 8.527 110.87 7.54943 111.159 6.62116C111.415 5.77503 111.951 5.01926 112.694 4.5428Z" fill="white"/>
<path d="M54.9481 4.69888C55.4928 4.61673 56.0786 4.79746 56.4417 5.22463C56.8625 5.69288 56.9451 6.424 56.6315 6.9744C56.2849 7.58229 55.5093 7.86981 54.8326 7.72195C54.1312 7.59872 53.5453 6.94975 53.5784 6.22684C53.5619 5.46286 54.1972 4.78925 54.9481 4.69888Z" fill="white"/>
<path d="M34.2776 5.03571H38.1972C39.4184 8.12449 40.6479 11.2051 41.8692 14.2938C42.1827 15.066 42.4716 15.8464 42.8016 16.6104C44.3694 12.7494 45.962 8.9049 47.5216 5.04392C48.7759 5.02749 50.0384 5.04392 51.2926 5.03571C51.2926 10.2521 51.2926 15.4768 51.2926 20.6932C50.3849 20.6932 49.4773 20.7014 48.5696 20.685C48.5778 16.8322 48.5696 12.9795 48.5696 9.1267C48.5696 8.95419 48.5696 8.78168 48.5531 8.60916C48.5036 8.69131 48.454 8.77346 48.4128 8.85561C46.8532 12.7987 45.2689 16.7254 43.7176 20.6768C43.0739 20.7014 42.422 20.6768 41.7784 20.6932C40.1693 16.7501 38.585 12.7987 36.9842 8.85561C36.9429 8.77346 36.8934 8.69131 36.8521 8.61738C36.8191 10.3014 36.8439 11.9937 36.8356 13.6777C36.8356 16.0107 36.8356 18.352 36.8356 20.685C35.9775 20.685 35.1275 20.685 34.2694 20.685C34.2776 15.4768 34.2776 10.2521 34.2776 5.03571Z" fill="white"/>
<path d="M62.3747 9.46351C63.6784 9.09384 65.0812 9.11027 66.385 9.47994C66.6491 9.55387 66.9131 9.66067 67.1524 9.80032C67.1359 10.6547 67.1524 11.509 67.1442 12.3716C66.2777 11.7144 65.172 11.2954 64.0663 11.4269C63.1916 11.509 62.3499 11.9608 61.8301 12.6673C61.1534 13.5463 60.9966 14.7046 61.1122 15.7725C61.2029 16.6104 61.5495 17.4483 62.2014 18.007C62.878 18.6066 63.8352 18.8202 64.7264 18.7545C65.6094 18.6559 66.4345 18.2863 67.1442 17.7687C67.1524 18.582 67.1442 19.3953 67.1524 20.2003C66.0467 20.8493 64.7264 21.0218 63.4639 20.9561C62.1684 20.8904 60.8811 20.4057 59.9487 19.5021C58.9337 18.5245 58.3809 17.1362 58.3148 15.7479C58.2488 14.3021 58.5459 12.7905 59.3793 11.5829C60.0807 10.5314 61.1782 9.80853 62.3747 9.46351Z" fill="white"/>
<path d="M91.8333 9.29101C93.0793 9.06921 94.3831 9.2335 95.5631 9.6771C95.5631 10.4986 95.5631 11.3201 95.5631 12.1416C94.7379 11.5747 93.7312 11.2708 92.7327 11.3119C92.2294 11.3283 91.6765 11.5419 91.4455 12.0183C91.2639 12.4866 91.3877 13.1109 91.8333 13.3902C92.6007 13.8995 93.5084 14.1131 94.3005 14.5732C94.9277 14.9264 95.5301 15.3782 95.8436 16.0354C96.4377 17.2676 96.1902 18.8942 95.1422 19.8142C94.1438 20.7425 92.708 20.9972 91.3877 20.9479C90.447 20.8904 89.5063 20.7014 88.6481 20.3236C88.6481 19.461 88.6399 18.5984 88.6564 17.7277C89.3825 18.2534 90.216 18.6231 91.1071 18.7792C91.726 18.8777 92.3944 18.886 92.972 18.6066C93.5249 18.3356 93.6239 17.5551 93.2938 17.0787C92.9885 16.709 92.5429 16.5119 92.1138 16.3147C91.3217 15.9615 90.48 15.6657 89.7869 15.1318C89.2918 14.7539 88.9287 14.2117 88.7802 13.612C88.5656 12.7166 88.6316 11.7144 89.1515 10.934C89.7456 10.0221 90.7771 9.47995 91.8333 9.29101Z" fill="white"/>
<path d="M73.1762 9.64424C73.9188 9.20064 74.8678 9.15956 75.6764 9.43065C75.6764 10.3261 75.6764 11.2215 75.6764 12.1169C75.1483 11.7719 74.4799 11.624 73.8528 11.6897C73.0854 11.7801 72.483 12.3634 72.1695 13.0288C71.8311 13.7434 71.7651 14.5403 71.7816 15.3207C71.7816 17.1115 71.7816 18.9024 71.7816 20.685H69.1246C69.1246 16.9472 69.1246 13.2095 69.1246 9.47173C70.0158 9.46351 70.8987 9.46351 71.7899 9.47173C71.7899 10.1125 71.7899 10.7532 71.7899 11.4022C72.0704 10.704 72.4995 10.0221 73.1762 9.64424Z" fill="white"/>
<path d="M53.8259 9.47173C54.7171 9.47173 55.6165 9.4553 56.5077 9.47995C56.4995 13.2177 56.5077 16.9555 56.5077 20.6932H53.8259C53.8259 16.9555 53.8259 13.2177 53.8259 9.47173Z" fill="white"/>
<path d="M86.8658 12.0923C86.3954 11.0572 85.5537 10.1946 84.514 9.71818C83.3093 9.176 81.9477 9.10206 80.6522 9.26636C79.2907 9.43887 77.9704 10.0714 77.104 11.1558C76.3201 12.1169 75.9322 13.3574 75.858 14.5896C75.7507 16.0354 75.99 17.5716 76.8482 18.7792C77.5743 19.8224 78.7213 20.5371 79.9673 20.8C81.0071 21.0136 82.088 21.0136 83.1277 20.8C84.3407 20.5536 85.4712 19.8882 86.2221 18.9024C86.9565 17.9741 87.3279 16.7994 87.4104 15.6329C87.4846 14.4335 87.3609 13.1931 86.8658 12.0923ZM84.2582 17.243C84.0024 17.818 83.5321 18.3109 82.9297 18.5409C82.2366 18.8038 81.4526 18.8202 80.7347 18.6395C80.0003 18.4506 79.3815 17.9248 79.0431 17.2512C78.6058 16.3886 78.5398 15.3864 78.6306 14.4417C78.7131 13.5792 79.0101 12.692 79.6703 12.1005C80.1489 11.6569 80.8008 11.4351 81.4444 11.4022C82.2531 11.3447 83.1195 11.5747 83.7054 12.1662C84.3242 12.7741 84.5718 13.6613 84.6378 14.5074C84.6873 15.4275 84.6461 16.3886 84.2582 17.243Z" fill="white"/>
<path d="M108.46 12.4126C108.048 11.3036 107.214 10.3343 106.142 9.80032C104.912 9.1842 103.485 9.09384 102.14 9.25814C101.05 9.39779 99.986 9.80853 99.1608 10.5314C98.1458 11.4022 97.56 12.6755 97.3867 13.9817C97.2217 15.2878 97.2794 16.6597 97.8075 17.8837C98.3191 19.0831 99.3341 20.0524 100.547 20.5289C101.744 20.9972 103.08 21.0547 104.343 20.8493C105.638 20.6357 106.86 19.9621 107.66 18.9188C108.51 17.8427 108.881 16.4543 108.881 15.0989C108.898 14.187 108.791 13.267 108.46 12.4126ZM106.026 16.2161C105.927 16.8076 105.721 17.3991 105.333 17.8673C104.937 18.3355 104.359 18.6231 103.757 18.7134C103.113 18.812 102.428 18.7627 101.826 18.5081C101.174 18.237 100.671 17.6701 100.407 17.0294C100.085 16.2572 100.019 15.4111 100.085 14.5896C100.143 13.7927 100.374 12.9712 100.902 12.3551C101.381 11.7719 102.123 11.4597 102.866 11.4104C103.625 11.3611 104.442 11.5336 105.028 12.043C105.564 12.4866 105.869 13.1602 106.001 13.8338C106.158 14.6142 106.158 15.4275 106.026 16.2161Z" fill="white"/>
<path d="M0 13.6284C4.14236 13.6284 8.28472 13.6284 12.4271 13.6284C12.4271 17.7523 12.4271 21.8761 12.4271 26H0V13.6284Z" fill="white"/>
<path d="M13.6896 13.6284C17.8319 13.6284 21.9743 13.6284 26.1167 13.6284V26H13.6896C13.6896 21.8761 13.6896 17.7523 13.6896 13.6284Z" fill="white"/>
</svg>
