<svg width="103" height="30" viewBox="0 0 103 30" fill="none" xmlns="http://www.w3.org/2000/svg">
<g clip-path="url(#clip0)">
<path d="M64.2889 21.2871C64.2524 21.1924 64.1451 21.1378 64.0436 21.1601L64.0116 21.169C63.7057 21.2325 63.4695 21.2147 63.3029 21.1099C63.0666 20.9561 62.9548 20.6118 62.9548 20.0512V15.0038C62.9548 13.0301 61.7359 12.0349 59.33 12.0349C57.1742 12.0349 55.4873 13.0168 55.4873 14.2705C55.4873 14.9136 55.8948 15.3839 56.4974 15.4519C56.8911 15.4831 57.2757 15.3337 57.5359 15.0495C58.0689 14.5113 57.9993 13.8682 57.3556 13.1851C57.7357 12.8006 58.4079 12.5743 59.1771 12.5743C60.4291 12.5743 60.9621 13.2898 60.9621 14.9648V16.2409C60.6699 16.3267 60.3914 16.4125 59.8916 16.5262C58.8815 16.7524 57.4903 17.06 56.4426 17.6172C55.5809 18.0742 55.1404 18.7941 55.1404 19.7581C55.1404 20.8124 55.8537 22.0349 57.8749 22.0349C59.0059 22.0349 60.016 21.5189 61.0545 20.4101C61.147 21.5646 61.5966 21.9892 62.7003 21.9892C63.2287 21.9892 63.651 21.8711 64.1508 21.636C64.2798 21.5724 64.3449 21.4231 64.2889 21.2871ZM60.9564 19.7436C60.711 20.0735 59.9087 21.052 58.9123 21.052C57.5633 21.052 57.2803 20.1426 57.2803 19.3725C57.2803 18.1143 58.2812 17.5348 60.9564 16.8962V19.7436ZM86.8225 22.0751C83.9624 22.0751 81.8066 19.9164 81.8066 17.0556C81.8066 14.2538 84.0549 11.9725 86.8225 11.9725C89.6221 11.9725 91.8191 14.168 91.8191 16.9697C91.8145 20.1236 89.2238 22.0751 86.8225 22.0751ZM86.7107 12.5108C85.4735 12.5108 84.0595 13.0223 84.0595 17.0143C84.0595 20.0557 84.9907 21.5368 86.9104 21.5368C88.7456 21.5368 89.5616 20.1426 89.5616 17.0143C89.5616 13.9819 88.6303 12.5108 86.7107 12.5108ZM42.6182 12.1531C42.6182 14.4756 42.0201 15.7516 38.9843 15.7516H37.3762V8.73503H39.0539C42.197 8.73949 42.6182 10.4647 42.6182 12.1531ZM37.3762 20.0468V16.398H38.836C41.0101 16.398 42.665 15.9545 43.7538 15.0807C44.8939 14.1669 45.1302 13.0034 45.1302 12.1932C45.1302 8.85762 41.7885 8.15552 38.9832 8.15552H38.9969H33.3087C33.1786 8.15552 33.077 8.2547 33.077 8.38175V8.39513V8.39067C33.077 8.50434 33.1512 8.60353 33.2619 8.64365C33.7675 8.82419 35.1439 8.57121 35.1439 9.99214V20.0412C35.1439 20.7745 34.8106 21.2905 33.271 21.4264C33.1501 21.4354 33.0576 21.5345 33.0576 21.6527V21.6883C33.0576 21.8109 33.1592 21.9101 33.2893 21.9101H39.3667C39.4922 21.9101 39.5983 21.8109 39.5983 21.6883V21.6571C39.5983 21.539 39.5013 21.4443 39.3803 21.4309C37.7095 21.305 37.3717 20.8113 37.3762 20.0468V16.4025V20.0468ZM49.7295 11.967C47.0875 11.967 44.9316 14.2705 44.9316 17.109C44.9316 19.9788 46.9482 22.0606 49.7295 22.0606C52.0658 22.0606 53.2013 20.7165 53.8553 19.7068C53.9203 19.6077 53.8918 19.4717 53.7902 19.4082L53.7628 19.3859C53.6613 19.3179 53.522 19.3357 53.4433 19.4316C52.5816 20.468 51.8352 21.0698 50.5364 21.0698C48.8953 21.0698 47.1388 19.9788 47.1388 16.924V16.9062C47.1388 16.7703 47.1388 16.5853 47.1434 16.4125H53.8599C53.8781 16.4125 53.8918 16.3991 53.8964 16.3813L53.9009 16.3312C53.9934 15.0774 53.627 13.9507 52.8624 13.1583C52.1171 12.3748 51.0317 11.967 49.7295 11.967ZM47.1799 15.7606C47.3979 13.6698 48.2459 12.5197 49.5812 12.5197C50.2443 12.5197 50.7396 12.6958 51.0877 13.0625C51.5693 13.5606 51.769 14.47 51.6903 15.7561H47.1799V15.7606ZM77.5701 15.8731C75.7303 15.375 75.0159 14.8768 75.0159 14.0811C75.0159 13.1806 75.7577 12.5242 76.7872 12.5242C77.9924 12.5242 78.5117 13.0814 79.7865 15.1309L79.8002 15.1576C79.8047 15.1666 79.8093 15.171 79.8184 15.1755H80.0033C80.1334 15.1755 80.235 15.0763 80.235 14.9492V12.0026C80.235 11.9892 80.2213 11.9714 80.2213 11.9714H79.9714C79.9018 11.9714 79.8367 12.0026 79.791 12.0528L79.3836 12.5275C78.7114 12.1742 77.9604 11.9848 77.1958 11.9703C75.0867 11.9703 73.6121 13.2241 73.6121 15.0217C73.6121 16.7101 74.7751 17.3442 76.778 17.8646C78.7296 18.3762 79.4156 18.9145 79.4156 19.9063C79.4156 21.0108 78.3074 21.5089 77.5153 21.5089C76.0453 21.5089 75.429 20.984 74.0207 18.5489L74.007 18.5222C74.0024 18.5133 73.9933 18.5088 73.9887 18.5043H73.7981C73.668 18.5043 73.5665 18.6035 73.5665 18.7306V22.0349C73.5665 22.0528 73.5802 22.0661 73.603 22.0661H73.8438C73.9043 22.0661 73.9648 22.0439 74.0059 21.9982L74.6461 21.3785C75.4017 21.8265 76.5281 22.0617 77.2562 22.0617C78.3553 22.0617 79.2546 21.7262 79.8664 21.0932C80.4085 20.5271 80.7098 19.7258 80.7098 18.8387C80.7121 17.3041 79.8595 16.4983 77.5701 15.8731ZM66.454 20.7299C66.454 21.237 66.3193 21.4042 65.4759 21.4543C65.3549 21.4632 65.2579 21.5579 65.2579 21.6805C65.2579 21.8031 65.3595 21.9023 65.4896 21.9023H69.6427C69.7683 21.9023 69.8744 21.8031 69.8744 21.685C69.8744 21.5624 69.7774 21.4677 69.6564 21.4588C68.692 21.4131 68.4466 21.2637 68.4466 20.7299V14.859C69.1326 13.7635 69.6245 13.1884 70.4542 13.0168C70.4119 13.1572 70.3891 13.3065 70.3891 13.4559C70.3891 14.1713 70.9038 14.6639 71.6457 14.6639C72.2996 14.6907 72.8509 14.1981 72.8828 13.5595C72.8828 13.5238 72.8828 13.4871 72.8828 13.4514C72.8828 12.7772 72.4469 11.9892 71.2143 11.9892C70.2042 11.9892 69.2398 12.5465 68.4101 13.8816V12.3704C68.4101 12.2166 68.28 12.094 68.1271 12.0985C68.1225 12.0985 68.1225 12.0985 68.118 12.0985L65.4987 12.1664C65.3732 12.1709 65.2762 12.2701 65.2762 12.3927V12.4239C65.2762 12.5376 65.3595 12.6323 65.4713 12.6457C66.3433 12.7638 66.4631 13.1616 66.4631 13.5785L66.454 20.7299ZM95.1984 12.094C95.2589 12.094 95.3194 12.1163 95.3605 12.1575C95.4073 12.1988 95.4347 12.2567 95.4347 12.3158L95.4438 13.9908C95.4438 13.9908 96.2963 12.026 99.064 12.026H99.0913C100.816 12.026 101.803 13.0848 101.803 14.9325V20.7132C101.803 21.2203 101.938 21.3874 102.781 21.4376C102.907 21.442 102.999 21.5412 102.999 21.6638C102.999 21.7909 102.893 21.8901 102.767 21.8901H99.0354C98.9053 21.8945 98.7992 21.7998 98.7946 21.6727C98.79 21.5457 98.8871 21.442 99.0172 21.4376C99.694 21.3785 99.8046 21.2158 99.8046 20.7132V15.502C99.8046 13.7779 99.2945 13.107 97.9923 13.107C97.1067 13.107 96.3888 13.8493 95.9391 14.47C95.9391 14.47 95.7074 14.7464 95.4575 15.2713L95.4849 20.721C95.4849 21.2192 95.591 21.3863 96.2496 21.4454C96.3751 21.4677 96.463 21.5858 96.4401 21.7084C96.4219 21.812 96.334 21.8889 96.2267 21.899H92.5096C92.384 21.899 92.2779 21.7998 92.2779 21.6727C92.2779 21.5546 92.3749 21.4554 92.4959 21.4465C93.3347 21.3964 93.4694 21.2292 93.4694 20.7221V13.5796C93.4694 13.1628 93.3484 12.7604 92.473 12.6423C92.3623 12.6245 92.2779 12.5286 92.2779 12.4205V12.3893C92.2779 12.2667 92.3794 12.1676 92.505 12.1631L95.1984 12.094Z" fill="#7E898E"/>
<path d="M22.2464 1.93262C28.8282 5.54456 30.3632 13.6422 25.7787 21.8357C21.7557 29.0373 12.9666 32.1154 6.42133 28.4488C-0.128511 24.7823 -1.40789 14.5482 1.40994 8.65946C5.49347 0.112712 14.9776 -2.06047 22.2464 1.93262Z" fill="#7E898E"/>
<path d="M22.0932 8.14215C23.3817 9.46835 23.7846 11.4777 23.5575 13.126C23.303 15.005 22.116 16.7469 20.1507 17.897C18.5929 18.8164 16.5397 19.1775 14.5231 19.1964C14.5048 19.504 14.4443 20.5639 14.4124 20.7355C14.3804 20.9261 14.2914 21.1066 14.167 21.2559C13.949 21.5279 13.5735 21.7039 13.2026 21.8087C12.9059 21.8901 12.6137 21.9268 12.4003 21.9268C12.1309 21.9268 11.8764 21.8232 11.687 21.6371C11.534 21.4699 11.4461 21.2615 11.4325 21.0397L11.4188 20.8269C11.3765 20.6463 11.1403 11.5111 11.1871 11.6739C11.2236 10.5783 13.0554 10.3889 14.0517 10.5783C15.048 10.7734 14.7981 11.9413 14.7707 13.3756C14.7707 13.3756 14.7239 15.2635 14.6315 17.2595C15.9017 17.2138 16.9118 16.8616 17.8533 16.4125C19.7627 15.5031 20.7693 14.1045 20.7693 12.045C20.7693 9.98546 18.6876 7.68634 14.854 7.68634C11.0159 7.68634 9.37015 8.61914 7.5167 10.0991C7.09442 10.4346 6.77486 10.7689 6.469 10.9907C6.16313 11.2125 5.35168 11.2492 5.13825 10.7277C4.87348 10.1036 5.36537 9.40594 5.65297 9.07049C6.10264 8.54558 7.2154 7.47682 8.45255 6.85718C9.86661 6.14616 11.5911 5.38165 13.9969 5.32258C16.1711 5.27243 19.6109 5.44071 22.0852 8.13323L22.0932 8.14215ZM13.7721 23.2698C13.5815 23.1249 13.3601 23.0212 13.1181 22.9711C13.0394 22.9577 12.9606 22.9488 12.8865 22.9488C12.4322 22.9622 12.0145 23.1884 11.7646 23.5551C11.5375 23.8626 11.445 24.2427 11.4998 24.6182C11.542 24.8534 11.6299 25.0573 11.7646 25.2067C11.9129 25.3783 12.1446 25.5054 12.4322 25.5867C12.5943 25.6324 12.7655 25.6547 12.9332 25.6547C13.2813 25.6636 13.6192 25.5555 13.8976 25.3471C14.1944 25.1209 14.3656 24.7676 14.3564 24.4009C14.3519 23.9574 14.1339 23.5417 13.7721 23.2698Z" fill="white"/>
</g>
<defs>
<clipPath id="clip0">
<rect width="103" height="30" fill="white"/>
</clipPath>
</defs>
</svg>
