<svg width="116" height="27" viewBox="0 0 116 27" fill="none" xmlns="http://www.w3.org/2000/svg">
<g clip-path="url(#clip0)">
<path d="M54.0575 17.2138L53.6114 6.47148C53.5587 6.15883 53.8685 6.28632 53.8685 6.28632C54.1722 6.3622 54.6834 6.45934 55.4146 6.27114C55.4146 6.27114 55.6717 6.16794 55.6469 6.48059L55.176 17.2138H54.0575Z" fill="white"/>
<path d="M55.7244 1.09275C55.7244 1.6968 55.2225 2.18853 54.6121 2.18853C53.9925 2.18853 53.4968 1.6968 53.4968 1.09275C53.4968 0.506914 53.9677 0.0242833 54.5625 0H54.6648C55.2504 0.0273187 55.7244 0.506914 55.7244 1.09275Z" fill="white"/>
<path d="M55.0304 3.39357L60.5452 0.698126C61.1896 0.32477 61.4994 0.273168 61.6419 0.461364C61.8185 0.701162 61.6233 0.971313 61.0966 1.30824L55.1326 5.07519C54.8754 5.25125 54.5068 5.25125 54.5068 5.25125C54.2651 5.21179 54.2279 5.23303 53.9119 5.07519L48.8773 1.67553C48.3661 1.2961 47.9448 1.07755 48.2267 0.767941C48.5055 0.455293 48.7286 0.682949 49.4319 1.06238L54.1876 3.37536C54.1938 3.37536 54.5811 3.61212 55.0304 3.39357Z" fill="white"/>
<path d="M34.954 14.6914C34.954 14.6914 35.8896 15.602 37.1847 15.9632C37.2807 15.9936 37.3737 16.0452 37.3737 16.1423C37.3737 16.2455 37.29 16.3153 37.1847 16.3244C34.4737 16.6462 32.841 15.004 32.841 15.004C31.3012 13.6229 30.096 12.0263 30.096 12.0263C30.0402 11.9595 29.9596 11.8047 29.9596 11.6711C29.9596 11.4101 30.1022 11.2492 30.3066 11.1976L30.412 11.1764C31.3353 10.973 32.5498 10.3173 32.5498 9.57671C32.5498 8.65091 31.6761 8.22898 30.2416 8.22898C29.7645 8.22898 29.4701 8.22595 29.0953 8.22898V16.0482H27.1186V6.97839H30.4863C33.1136 6.97839 34.6379 7.81313 34.6379 9.4219C34.6379 10.4661 33.4978 11.401 32.3081 11.8654C32.305 11.8654 33.0083 12.9824 34.954 14.6914Z" fill="white"/>
<path d="M5.52101 16.1788C1.893 16.1788 0 14.482 0 11.7076C0 9.10927 1.82794 6.85699 5.99813 6.85699C6.80366 6.85699 7.73622 6.94502 8.52007 7.11804L8.32488 8.53558C7.47598 8.32614 6.63016 8.20168 5.80294 8.20168C3.34916 8.20168 2.10988 9.64958 2.10988 11.5528C2.10988 13.6472 3.47929 14.7825 5.93617 14.7825C6.82845 14.7825 7.76411 14.6064 8.45811 14.3454L8.63161 15.7417C7.71764 16.0179 6.65185 16.1788 5.52101 16.1788Z" fill="white"/>
<path d="M14.4903 16.0543V6.9754H20.8788V8.21689L16.467 8.11065V10.8972L20.665 10.7818V11.9899L16.467 11.8806V14.8857L20.8788 14.7794V16.0543H14.4903Z" fill="white"/>
<path d="M44.7784 8.30188L44.9085 16.0483H42.9287L43.0372 8.30188H39.6694V6.9754H48.1926V8.30188H44.7784Z" fill="white"/>
<path d="M80.0112 16.1939C76.3398 16.1939 74.6234 14.2938 74.6234 11.6014C74.6234 8.59933 77.2724 6.83575 80.3582 6.83575C83.6857 6.83575 85.8111 8.42328 85.8111 11.4283C85.8111 14.4637 83.2024 16.1939 80.0112 16.1939ZM80.2033 8.0742C78.3568 8.0742 76.724 9.3339 76.724 11.4648C76.724 13.3133 77.6597 14.9828 80.1382 14.9828C82.1149 14.9828 83.6826 13.7352 83.6826 11.571C83.6857 9.36729 82.3349 8.0742 80.2033 8.0742Z" fill="white"/>
<path d="M66.4132 12.1052C66.1034 12.087 66.0166 11.7683 66.0166 11.6711C66.0166 11.4131 66.156 11.2492 66.3605 11.1976L66.4658 11.1764C67.3891 10.973 68.6067 10.3173 68.6067 9.57671C68.6067 8.65091 67.733 8.22898 66.2954 8.22898C65.8183 8.22898 65.5798 8.22898 65.1522 8.22898V16.0482H63.1725V6.97839H66.5433C69.1706 6.97839 70.6918 7.81313 70.6918 9.4219C70.6918 10.0533 70.2642 10.6421 69.6942 11.1005C69.6415 11.1491 69.5857 11.1855 69.53 11.228C69.1737 11.4829 68.7988 11.7076 68.3681 11.8624C67.8538 12.0475 67.3086 12.1507 66.4473 12.1052H66.4132Z" fill="white"/>
<path d="M98.365 14.6914C98.365 14.6914 99.2976 15.602 100.599 15.9663C100.698 15.9936 100.785 16.0452 100.785 16.1484C100.785 16.2486 100.701 16.3184 100.599 16.3305C97.8879 16.6493 96.252 15.0071 96.252 15.0071C94.7184 13.626 93.507 12.0294 93.507 12.0294C93.4513 11.9656 93.3707 11.8078 93.3707 11.6742C93.3707 11.4132 93.5101 11.2523 93.7177 11.2007L93.823 11.1795C94.7463 10.973 95.9639 10.3174 95.9639 9.57675C95.9639 8.65095 95.0871 8.22903 93.6557 8.22903C93.1755 8.22903 92.8843 8.22599 92.5094 8.22903V16.0513H90.5327V6.9754C91.2794 6.97844 92.5528 6.9754 93.9005 6.9754C96.5309 6.9754 98.0521 7.81318 98.0521 9.41891C98.0521 10.4631 96.912 11.398 95.7253 11.8624C95.7191 11.8655 96.4255 12.9825 98.365 14.6914Z" fill="white"/>
<path d="M108.388 8.30487L108.518 16.0543H106.541L106.647 8.30487H103.279V6.97839H111.799V8.30487H108.388Z" fill="white"/>
<path d="M110.328 20.5164H0.0565033V20.6651H110.328V20.5164Z" fill="white"/>
<path d="M28.1441 24.4715H28.6243L29.6189 27H29.1355L28.8939 26.3292H27.8622L27.6205 27H27.1558L28.1441 24.4715ZM27.9861 25.9953H28.773L28.3858 24.9086H28.3734L27.9861 25.9953Z" fill="white"/>
<path d="M31.8217 24.4715H32.9588C33.6961 24.4715 33.8387 24.9389 33.8387 25.2546C33.8387 25.5642 33.6961 26.0347 32.9588 26.0287H32.271V27H31.8186V24.4715H31.8217ZM32.2741 25.6674H32.934C33.1354 25.6674 33.3863 25.5673 33.3863 25.2486C33.3863 24.9147 33.1818 24.8297 32.9433 24.8297H32.2741V25.6674Z" fill="white"/>
<path d="M34.8053 24.4715H36.6611V24.854H35.2576V25.5157H36.5589V25.8769H35.2576V26.6175H36.6859V27H34.8053V24.4715Z" fill="white"/>
<path d="M38.2598 24.4715H38.74L39.7345 27H39.2512L39.0095 26.3292H37.9778L37.7362 27H37.2714L38.2598 24.4715ZM38.1017 25.9953H38.8887L38.5014 24.9086H38.489L38.1017 25.9953Z" fill="white"/>
<path d="M40.5276 24.4715H41.7607C42.3246 24.4715 42.6127 24.7265 42.6127 25.1545C42.6127 25.6401 42.2688 25.7646 42.1852 25.7919V25.798C42.3401 25.8192 42.5694 25.9346 42.5694 26.3322C42.5694 26.6266 42.6127 26.8938 42.7088 26.997H42.2254C42.1573 26.8877 42.1573 26.7481 42.1573 26.6266C42.1573 26.1622 42.0612 25.9558 41.643 25.9558H40.9769V26.997H40.5245V24.4715H40.5276ZM40.9769 25.6219H41.7173C42.0024 25.6219 42.1604 25.4823 42.1604 25.2182C42.1604 24.8965 41.9466 24.8327 41.7112 24.8327H40.9769V25.6219Z" fill="white"/>
<path d="M43.9016 26.0955C43.9016 26.484 44.1959 26.6388 44.5553 26.6388C44.9519 26.6388 45.1006 26.4476 45.1006 26.2563C45.1006 26.0621 44.9922 25.9831 44.8868 25.9437C44.7071 25.8769 44.4717 25.8314 44.1185 25.7342C43.6785 25.6159 43.5484 25.3548 43.5484 25.0938C43.5484 24.5869 44.0255 24.3501 44.4903 24.3501C45.0294 24.3501 45.4817 24.6294 45.4817 25.1575H45.0293C45.0077 24.8327 44.7846 24.7113 44.4717 24.7113C44.261 24.7113 43.9976 24.7842 43.9976 25.0391C43.9976 25.2152 44.1216 25.3154 44.3044 25.3639C44.3446 25.3761 44.9147 25.5218 45.0479 25.5582C45.3887 25.6584 45.5499 25.9407 45.5499 26.2017C45.5499 26.7693 45.0355 26.9939 44.5243 26.9939C43.9357 26.9939 43.4586 26.7177 43.4462 26.0894H43.9016V26.0955Z" fill="white"/>
<path d="M48.8216 25.6765C48.8216 26.399 48.3599 27 47.5854 27C46.8108 27 46.3492 26.399 46.3492 25.6765C46.3492 24.9541 46.8108 24.3531 47.5854 24.3531C48.3599 24.3501 48.8216 24.9541 48.8216 25.6765ZM46.8015 25.6765C46.8015 26.1622 47.0339 26.6388 47.5854 26.6388C48.1369 26.6388 48.3692 26.1592 48.3692 25.6765C48.3692 25.1909 48.1369 24.7143 47.5854 24.7143C47.0339 24.7113 46.8015 25.1909 46.8015 25.6765Z" fill="white"/>
<path d="M49.6798 24.4715H50.1569L51.3373 26.3322H51.3435V24.4715H51.7742V27H51.297L50.1197 25.1393H50.1104V27H49.6798V24.4715Z" fill="white"/>
<path d="M54.0513 24.4715H54.5223L55.1698 26.4718H55.176L55.839 24.4715H56.2975L55.4145 27H54.9126L54.0513 24.4715Z" fill="white"/>
<path d="M57.0628 24.4108H57.5151V25.883C57.5151 26.223 57.5368 26.6176 58.1224 26.6176C58.7079 26.6176 58.7296 26.223 58.7296 25.883V24.4108H59.182V26.0287C59.182 26.6752 58.7575 27 58.1224 27C57.4872 27 57.0628 26.6783 57.0628 26.0287V24.4108Z" fill="white"/>
<path d="M60.2322 24.4715H62.0912V24.854H60.6846V25.5157H61.9858V25.8769H60.6846V26.6175H62.116V27H60.2322V24.4715Z" fill="white"/>
<path d="M64.5325 24.4715H65.7873C66.249 24.4715 66.5526 24.6779 66.5526 25.0968C66.5526 25.3518 66.4194 25.5369 66.1839 25.6341V25.6401C66.4968 25.7069 66.6672 25.9467 66.6672 26.2927C66.6672 26.6904 66.3853 26.997 65.7161 26.997H64.5294V24.4715H64.5325ZM64.9818 25.5309H65.7192C65.936 25.5309 66.0971 25.4064 66.0971 25.1787C66.0971 24.9238 65.9639 24.8327 65.7192 24.8327H64.9818V25.5309ZM64.9818 26.6388H65.7811C66.0569 26.6388 66.2149 26.4931 66.2149 26.2381C66.2149 25.9892 66.0569 25.8496 65.7811 25.8496H64.9818V26.6388Z" fill="white"/>
<path d="M67.5533 24.4108H68.0057V25.883C68.0057 26.223 68.0274 26.6176 68.6129 26.6176C69.1985 26.6176 69.2202 26.223 69.2202 25.883V24.4108H69.6725V26.0287C69.6725 26.6752 69.248 27 68.6129 27C67.9778 27 67.5533 26.6783 67.5533 26.0287V24.4108Z" fill="white"/>
<path d="M71.0078 26.0955C71.0078 26.484 71.3022 26.6388 71.6616 26.6388C72.0581 26.6388 72.2068 26.4476 72.2068 26.2563C72.2068 26.0621 72.0984 25.9831 71.9931 25.9437C71.8134 25.8769 71.5779 25.8314 71.2216 25.7342C70.7817 25.6159 70.6515 25.3548 70.6515 25.0938C70.6515 24.5869 71.1287 24.3501 71.5934 24.3501C72.1325 24.3501 72.5848 24.6294 72.5848 25.1575H72.1325C72.1108 24.8327 71.8877 24.7113 71.5748 24.7113C71.3641 24.7113 71.1008 24.7842 71.1008 25.0391C71.1008 25.2152 71.2247 25.3154 71.4075 25.3639C71.4478 25.3761 72.0179 25.5218 72.1511 25.5582C72.4919 25.6584 72.653 25.9407 72.653 26.2017C72.653 26.7693 72.1387 26.9939 71.6275 26.9939C71.0388 26.9939 70.5617 26.7177 70.5524 26.0894H71.0078V26.0955Z" fill="white"/>
<path d="M73.9914 24.4715H73.5391V27H73.9914V24.4715Z" fill="white"/>
<path d="M75.1098 24.4715H75.587L76.7643 26.3322H76.7736V24.4715H77.2011V27H76.7271L75.5498 25.1393H75.5405V27H75.1098V24.4715Z" fill="white"/>
<path d="M78.2267 24.4715H80.0825V24.854H78.6759V25.5157H79.9772V25.8769H78.6759V26.6175H80.1073V27H78.2267V24.4715Z" fill="white"/>
<path d="M81.3466 26.0955C81.3466 26.484 81.6409 26.6388 82.0003 26.6388C82.3968 26.6388 82.5456 26.4476 82.5456 26.2563C82.5456 26.0621 82.4371 25.9831 82.3318 25.9437C82.1521 25.8769 81.9166 25.8314 81.5634 25.7342C81.1235 25.6159 80.9934 25.3548 80.9934 25.0938C80.9934 24.5869 81.4705 24.3501 81.9383 24.3501C82.4774 24.3501 82.9297 24.6294 82.9297 25.1575H82.4774C82.4557 24.8327 82.2326 24.7113 81.9197 24.7113C81.709 24.7113 81.4457 24.7842 81.4457 25.0391C81.4457 25.2152 81.5696 25.3154 81.7524 25.3639C81.7927 25.3761 82.3628 25.5218 82.496 25.5582C82.8368 25.6584 82.9979 25.9407 82.9979 26.2017C82.9979 26.7693 82.4836 26.9939 81.9724 26.9939C81.3837 26.9939 80.9066 26.7177 80.8973 26.0894H81.3466V26.0955Z" fill="white"/>
<path d="M84.1969 26.0955C84.1969 26.484 84.4912 26.6388 84.8506 26.6388C85.2472 26.6388 85.3959 26.4476 85.3959 26.2563C85.3959 26.0621 85.2874 25.9831 85.1821 25.9437C85.0024 25.8769 84.7669 25.8314 84.4137 25.7342C83.9738 25.6159 83.8437 25.3548 83.8437 25.0938C83.8437 24.5869 84.3208 24.3501 84.7855 24.3501C85.3246 24.3501 85.777 24.6294 85.777 25.1575H85.3246C85.3029 24.8327 85.0799 24.7113 84.7669 24.7113C84.5563 24.7113 84.2929 24.7842 84.2929 25.0391C84.2929 25.2152 84.4168 25.3154 84.5996 25.3639C84.6399 25.3761 85.21 25.5218 85.3432 25.5582C85.684 25.6584 85.8451 25.9407 85.8451 26.2017C85.8451 26.7693 85.3308 26.9939 84.8196 26.9939C84.231 26.9939 83.7538 26.7177 83.7414 26.0894H84.1969V26.0955Z" fill="white"/>
<path d="M116 8.01954V7.92848C115.991 7.6644 115.888 7.43675 115.693 7.24551C115.489 7.04518 115.241 6.94501 114.95 6.94501C114.658 6.94501 114.411 7.04518 114.206 7.24551C114.002 7.44585 113.899 7.68868 113.899 7.97401C113.899 8.25934 114.002 8.50218 114.206 8.70251C114.411 8.90285 114.658 9.00302 114.95 9.00302C115.241 9.00302 115.489 8.90285 115.693 8.70251C115.888 8.51128 115.991 8.28363 116 8.01954Z" fill="white"/>
<path d="M114.947 7.14539C114.714 7.14539 114.516 7.22734 114.352 7.38518C114.188 7.54606 114.104 7.74033 114.104 7.97102C114.104 8.19868 114.188 8.39598 114.352 8.55686C114.516 8.71773 114.714 8.79969 114.947 8.79969C115.182 8.79969 115.38 8.71773 115.545 8.55686C115.709 8.39598 115.792 8.19868 115.792 7.97102C115.792 7.74336 115.712 7.5491 115.545 7.38822C115.383 7.22734 115.182 7.14539 114.947 7.14539Z" fill="white"/>
<path d="M114.702 7.9012H114.934C115.071 7.9012 115.139 7.8496 115.139 7.74943C115.139 7.65229 115.061 7.60069 114.909 7.60069H114.702V7.9012ZM115.445 8.52346H115.167L115.077 8.34133C115.033 8.25634 114.984 8.18349 114.925 8.12582C114.888 8.08939 114.826 8.07118 114.742 8.07118H114.699V8.52346H114.476V7.42767H115.024C115.139 7.42767 115.225 7.45499 115.287 7.51267C115.346 7.5673 115.377 7.64319 115.377 7.73425C115.377 7.81924 115.349 7.88602 115.297 7.94066C115.244 7.9953 115.17 8.02868 115.077 8.04083V8.0469C115.126 8.06511 115.163 8.08636 115.191 8.11671C115.219 8.14403 115.26 8.20777 115.318 8.30491L115.445 8.52346Z" fill="white"/>
</g>
<defs>
<clipPath id="clip0">
<rect width="116" height="27" fill="white"/>
</clipPath>
</defs>
</svg>
