<svg width="59" height="31" viewBox="0 0 59 31" fill="none" xmlns="http://www.w3.org/2000/svg">
<g clip-path="url(#clip0)">
<path d="M57.5229 29.4711V29.6332H57.0635V30.8168H56.8727V29.6332H56.4203V29.4711H57.5229Z" fill="white"/>
<path d="M57.6218 29.4711H57.9116L58.3144 30.5773H58.3215L58.7173 29.4711H59V30.8168H58.8092V29.7177H58.8021L58.3922 30.8168H58.2155L57.8197 29.7177H57.8056V30.8168H57.6218V29.4711Z" fill="white"/>
<path d="M19.2732 20.6009H16.6865V30.8238H19.2732V20.6009Z" fill="white"/>
<path d="M40.1367 23.5248C40.0307 23.4684 39.1967 22.9752 37.9599 22.9752C36.2919 22.9752 35.1258 24.1377 35.1258 25.7018C35.1258 27.2236 36.2354 28.4284 37.9599 28.4284C39.1755 28.4284 40.0307 27.9493 40.1367 27.8859V30.6266C39.8045 30.7252 38.9281 31 37.7761 31C34.8713 31 32.3199 28.9991 32.3199 25.7089C32.3199 22.6582 34.631 20.4177 37.7761 20.4177C38.9917 20.4177 39.8893 20.7136 40.1367 20.7841V23.5248Z" fill="white"/>
<path d="M13.1315 23.5248C13.0255 23.4684 12.1915 22.9752 10.9547 22.9752C9.27969 22.9752 8.12061 24.1377 8.12061 25.7018C8.12061 27.2236 9.23022 28.4284 10.9547 28.4284C12.1703 28.4284 13.0184 27.9493 13.1315 27.8859V30.6266C12.8064 30.7252 11.923 31 10.7709 31C7.86618 31 5.31479 28.9991 5.31479 25.7089C5.31479 22.6582 7.62588 20.4177 10.7709 20.4177C11.9866 20.4177 12.8841 20.7136 13.1315 20.7841V23.5248Z" fill="white"/>
<path d="M53.6922 25.7089C53.6922 28.6327 51.4306 31 48.2785 31C45.1193 31 42.8647 28.6327 42.8647 25.7089C42.8647 22.785 45.1264 20.4177 48.2785 20.4177C51.4306 20.4177 53.6922 22.785 53.6922 25.7089ZM48.2785 23.0175C46.7448 23.0175 45.5999 24.2223 45.5999 25.7089C45.5999 27.1954 46.7378 28.4002 48.2785 28.4002C49.8122 28.4002 50.95 27.1954 50.95 25.7089C50.95 24.2223 49.8051 23.0175 48.2785 23.0175Z" fill="white"/>
<path d="M29.0901 22.9189C29.0547 22.9048 27.9593 22.6089 27.0687 22.6089C26.0298 22.6089 25.4644 22.9541 25.4644 23.4473C25.4644 24.0673 26.2206 24.2857 26.6447 24.4196L27.3585 24.645C29.0406 25.1805 29.8039 26.3218 29.8039 27.5689C29.8039 30.1405 27.5423 31 25.5563 31C24.1781 31 22.8918 30.7464 22.7646 30.7182V28.365C22.9978 28.4214 24.0792 28.7455 25.21 28.7455C26.4963 28.7455 27.0899 28.3721 27.0899 27.7873C27.0899 27.2659 26.574 26.97 25.9309 26.7728C25.7754 26.7234 25.5351 26.6459 25.3796 26.5966C23.9378 26.1387 22.7363 25.3003 22.7363 23.6093C22.7363 21.7 24.171 20.4107 26.5599 20.4107C27.825 20.4107 29.0053 20.7137 29.083 20.7348V22.9189H29.0901Z" fill="white"/>
<path d="M2.56563 9.61C2.56563 8.90546 1.98609 8.33478 1.27934 8.33478C0.572582 8.33478 -0.00695801 8.90546 -0.00695801 9.61V12.2943C-0.00695801 13.0059 0.572582 13.5766 1.27934 13.5766C1.98609 13.5766 2.56563 13.0059 2.56563 12.2943V9.61Z" fill="white"/>
<path d="M9.626 6.09432C9.626 5.38977 9.04646 4.81909 8.3397 4.81909C7.63295 4.81909 7.05341 5.38977 7.05341 6.09432V12.3014C7.05341 13.013 7.63295 13.5836 8.3397 13.5836C9.04646 13.5836 9.626 13.013 9.626 12.3014V6.09432Z" fill="white"/>
<path d="M16.6794 1.27523C16.6794 0.570682 16.0999 0 15.3931 0C14.6864 0 14.1068 0.570682 14.1068 1.27523V14.8448C14.1068 15.5493 14.6864 16.12 15.3931 16.12C16.0999 16.12 16.6794 15.5493 16.6794 14.8448V1.27523Z" fill="white"/>
<path d="M23.7329 6.09432C23.7329 5.38977 23.1604 4.81909 22.4466 4.81909C21.7398 4.81909 21.1603 5.38977 21.1603 6.09432V12.3014C21.1603 13.013 21.7398 13.5836 22.4466 13.5836C23.1604 13.5836 23.7329 13.013 23.7329 12.3014V6.09432Z" fill="white"/>
<path d="M30.7863 9.61C30.7863 8.90546 30.2067 8.33478 29.5071 8.33478C28.7932 8.33478 28.2208 8.90546 28.2208 9.61V12.2943C28.2208 13.0059 28.7932 13.5766 29.5071 13.5766C30.2067 13.5766 30.7863 13.0059 30.7863 12.2943V9.61Z" fill="white"/>
<path d="M37.8397 6.09432C37.8397 5.38977 37.2672 4.81909 36.5534 4.81909C35.8467 4.81909 35.2742 5.38977 35.2742 6.09432V12.3014C35.2742 13.013 35.8467 13.5836 36.5534 13.5836C37.2672 13.5836 37.8397 13.013 37.8397 12.3014V6.09432Z" fill="white"/>
<path d="M44.9002 1.27523C44.9002 0.570682 44.3277 0 43.621 0C42.9142 0 42.3347 0.570682 42.3347 1.27523V14.8448C42.3347 15.5493 42.9072 16.12 43.621 16.12C44.3277 16.12 44.9002 15.5493 44.9002 14.8448V1.27523Z" fill="white"/>
<path d="M51.9536 6.09432C51.9536 5.38977 51.3812 4.81909 50.6603 4.81909C49.9535 4.81909 49.381 5.38977 49.381 6.09432V12.3014C49.381 13.013 49.9535 13.5836 50.6603 13.5836C51.3812 13.5836 51.9536 13.013 51.9536 12.3014V6.09432Z" fill="white"/>
<path d="M59 9.61C59 8.90546 58.4275 8.33478 57.7207 8.33478C57.0069 8.33478 56.4344 8.90546 56.4344 9.61V12.2943C56.4344 13.0059 57.0069 13.5766 57.7207 13.5766C58.4275 13.5766 59 13.0059 59 12.2943V9.61Z" fill="white"/>
</g>
<defs>
<clipPath id="clip0">
<rect width="59" height="31" fill="white"/>
</clipPath>
</defs>
</svg>
