<svg width="123" height="26" viewBox="0 0 123 26" fill="none" xmlns="http://www.w3.org/2000/svg">
<path d="M0 0H12.4271C12.4271 4.12385 12.4271 8.24771 12.4271 12.3716H0V0Z" fill="#7E898E"/>
<path d="M13.6895 0H26.1165C26.1165 4.12385 26.1165 8.24771 26.1165 12.3716H13.6895C13.6895 8.24771 13.6895 4.12385 13.6895 0Z" fill="#7E898E"/>
<path d="M112.693 4.5428C113.84 3.79525 115.326 3.72953 116.621 4.08277C116.63 4.84675 116.621 5.61894 116.621 6.38292C116.002 6.11183 115.284 5.93932 114.633 6.2022C114.121 6.40757 113.816 6.9251 113.733 7.45085C113.634 8.11626 113.7 8.78988 113.684 9.46349C114.996 9.46349 116.316 9.46349 117.628 9.46349C117.636 8.61736 117.62 7.76302 117.636 6.91689C118.527 6.66223 119.419 6.37471 120.302 6.11183C120.31 7.22905 120.293 8.35449 120.31 9.47171C121.201 9.45528 122.092 9.47171 122.975 9.46349V11.6486C122.084 11.6158 121.193 11.6404 120.293 11.6322C120.293 12.8891 120.293 14.1377 120.293 15.3946C120.31 16.0847 120.26 16.7829 120.335 17.4812C120.384 17.8919 120.533 18.3437 120.92 18.5491C121.564 18.9106 122.381 18.7463 122.975 18.3602V20.5618C122.208 20.8986 121.341 20.9971 120.508 20.9396C119.716 20.8821 118.899 20.5946 118.379 19.9703C117.785 19.2638 117.628 18.3027 117.62 17.4073C117.611 15.485 117.62 13.5627 117.62 11.6322C116.299 11.6322 114.987 11.6322 113.667 11.6322C113.667 14.6553 113.667 17.6701 113.667 20.6932H110.969C110.969 17.6783 110.969 14.6553 110.969 11.6404C110.342 11.6322 109.715 11.6404 109.096 11.6322C109.096 10.9175 109.096 10.1946 109.096 9.47992C109.715 9.46349 110.342 9.47171 110.969 9.47992C111.01 8.527 110.87 7.54943 111.159 6.62116C111.414 5.77503 111.951 5.01926 112.693 4.5428Z" fill="#7E898E"/>
<path d="M54.9483 4.699C55.4929 4.61686 56.0787 4.79758 56.4418 5.22475C56.8627 5.693 56.9452 6.42412 56.6316 6.97452C56.285 7.58242 55.5094 7.86994 54.8327 7.72207C54.1313 7.59885 53.5455 6.94987 53.5785 6.22697C53.562 5.46299 54.1974 4.78937 54.9483 4.699Z" fill="#7E898E"/>
<path d="M34.2778 5.03564H38.1973C39.4186 8.12443 40.6481 11.205 41.8694 14.2938C42.1829 15.066 42.4717 15.8464 42.8018 16.6104C44.3696 12.7494 45.9622 8.90484 47.5218 5.04386C48.776 5.02743 50.0385 5.04386 51.2928 5.03564C51.2928 10.2521 51.2928 15.4767 51.2928 20.6931C50.3851 20.6931 49.4774 20.7014 48.5697 20.6849C48.578 16.8322 48.5697 12.9794 48.5697 9.12664C48.5697 8.95413 48.5697 8.78162 48.5532 8.6091C48.5037 8.69125 48.4542 8.7734 48.413 8.85555C46.8534 12.7987 45.2691 16.7254 43.7177 20.6767C43.0741 20.7014 42.4222 20.6767 41.7786 20.6931C40.1695 16.75 38.5852 12.7987 36.9843 8.85555C36.9431 8.7734 36.8936 8.69125 36.8523 8.61732C36.8193 10.3014 36.8441 11.9936 36.8358 13.6777C36.8358 16.0107 36.8358 18.3519 36.8358 20.6849C35.9776 20.6849 35.1277 20.6849 34.2695 20.6849C34.2778 15.4767 34.2778 10.2521 34.2778 5.03564Z" fill="#7E898E"/>
<path d="M62.3749 9.46351C63.6786 9.09384 65.0814 9.11027 66.3852 9.47994C66.6493 9.55387 66.9133 9.66067 67.1526 9.80032C67.1361 10.6547 67.1526 11.509 67.1444 12.3716C66.2779 11.7144 65.1722 11.2954 64.0665 11.4269C63.1918 11.509 62.3501 11.9608 61.8303 12.6673C61.1536 13.5463 60.9968 14.7046 61.1124 15.7725C61.2031 16.6104 61.5497 17.4483 62.2016 18.007C62.8782 18.6066 63.8354 18.8202 64.7266 18.7545C65.6095 18.6559 66.4347 18.2863 67.1444 17.7687C67.1526 18.582 67.1444 19.3953 67.1526 20.2003C66.0469 20.8493 64.7266 21.0218 63.4641 20.9561C62.1686 20.8904 60.8813 20.4057 59.9489 19.5021C58.9339 18.5245 58.381 17.1362 58.315 15.7479C58.249 14.3021 58.5461 12.7905 59.3795 11.5829C60.0809 10.5314 61.1784 9.80853 62.3749 9.46351Z" fill="#7E898E"/>
<path d="M91.8332 9.29089C93.0792 9.06908 94.383 9.23338 95.563 9.67698C95.563 10.4985 95.563 11.32 95.563 12.1414C94.7378 11.5746 93.7311 11.2707 92.7327 11.3117C92.2293 11.3282 91.6764 11.5418 91.4454 12.0182C91.2639 12.4865 91.3876 13.1108 91.8332 13.3901C92.6006 13.8994 93.5083 14.113 94.3005 14.573C94.9276 14.9263 95.53 15.3781 95.8436 16.0353C96.4377 17.2675 96.1901 18.894 95.1422 19.8141C94.1437 20.7424 92.7079 20.997 91.3876 20.9478C90.4469 20.8903 89.5062 20.7013 88.6481 20.3234C88.6481 19.4609 88.6398 18.5983 88.6563 17.7275C89.3825 18.2533 90.2159 18.623 91.1071 18.779C91.7259 18.8776 92.3943 18.8858 92.972 18.6065C93.5248 18.3354 93.6238 17.555 93.2938 17.0786C92.9885 16.7089 92.5429 16.5117 92.1138 16.3146C91.3216 15.9613 90.4799 15.6656 89.7868 15.1316C89.2917 14.7538 88.9286 14.2116 88.7801 13.6119C88.5655 12.7165 88.6316 11.7143 89.1514 10.9339C89.7455 10.022 90.777 9.47983 91.8332 9.29089Z" fill="#7E898E"/>
<path d="M73.1761 9.64412C73.9188 9.20051 74.8677 9.15944 75.6764 9.43053C75.6764 10.3259 75.6764 11.2214 75.6764 12.1168C75.1483 11.7718 74.4799 11.6239 73.8527 11.6896C73.0853 11.78 72.483 12.3632 72.1694 13.0286C71.8311 13.7433 71.7651 14.5402 71.7816 15.3206C71.7816 17.1114 71.7816 18.9023 71.7816 20.6849H69.1245C69.1245 16.9471 69.1245 13.2094 69.1245 9.4716C70.0157 9.46339 70.8986 9.46339 71.7898 9.4716C71.7898 10.1124 71.7898 10.7531 71.7898 11.4021C72.0704 10.7038 72.4995 10.022 73.1761 9.64412Z" fill="#7E898E"/>
<path d="M53.8257 9.47167C54.7169 9.47167 55.6163 9.45524 56.5075 9.47989C56.4992 13.2176 56.5075 16.9554 56.5075 20.6932H53.8257C53.8257 16.9554 53.8257 13.2176 53.8257 9.47167Z" fill="#7E898E"/>
<path d="M86.8657 12.0922C86.3954 11.0571 85.5537 10.1946 84.514 9.71812C83.3093 9.17594 81.9477 9.102 80.6522 9.2663C79.2907 9.43881 77.9704 10.0714 77.104 11.1557C76.3201 12.1169 75.9322 13.3573 75.858 14.5895C75.7507 16.0353 75.99 17.5715 76.8482 18.7791C77.5743 19.8224 78.7213 20.5371 79.9673 20.7999C81.007 21.0135 82.088 21.0135 83.1277 20.7999C84.3407 20.5535 85.4712 19.8881 86.2221 18.9023C86.9565 17.974 87.3278 16.7993 87.4104 15.6328C87.4846 14.4334 87.3608 13.193 86.8657 12.0922ZM84.2582 17.2429C84.0024 17.818 83.5321 18.3108 82.9297 18.5409C82.2365 18.8037 81.4526 18.8202 80.7347 18.6394C80.0003 18.4505 79.3814 17.9248 79.0431 17.2511C78.6058 16.3886 78.5398 15.3864 78.6305 14.4417C78.7131 13.5791 79.0101 12.6919 79.6703 12.1004C80.1489 11.6568 80.8007 11.435 81.4444 11.4022C82.253 11.3447 83.1195 11.5747 83.7053 12.1661C84.3242 12.774 84.5718 13.6612 84.6378 14.5074C84.6873 15.4274 84.646 16.3886 84.2582 17.2429Z" fill="#7E898E"/>
<path d="M108.46 12.4127C108.048 11.3037 107.214 10.3343 106.142 9.80038C104.912 9.18426 103.485 9.0939 102.14 9.2582C101.05 9.39785 99.9859 9.80859 99.1607 10.5315C98.1457 11.4023 97.5599 12.6756 97.3866 13.9817C97.2216 15.2879 97.2793 16.6598 97.8074 17.8838C98.319 19.0832 99.334 20.0525 100.547 20.529C101.743 20.9972 103.08 21.0547 104.343 20.8493C105.638 20.6358 106.86 19.9621 107.66 18.9189C108.51 17.8427 108.881 16.4544 108.881 15.099C108.898 14.1871 108.79 13.267 108.46 12.4127ZM106.026 16.2162C105.927 16.8076 105.721 17.3991 105.333 17.8674C104.937 18.3356 104.359 18.6231 103.757 18.7135C103.113 18.8121 102.428 18.7628 101.826 18.5081C101.174 18.237 100.671 17.6702 100.407 17.0294C100.085 16.2572 100.019 15.4111 100.085 14.5896C100.143 13.7928 100.374 12.9713 100.902 12.3552C101.38 11.7719 102.123 11.4598 102.866 11.4105C103.625 11.3612 104.442 11.5337 105.028 12.043C105.564 12.4866 105.869 13.1603 106.001 13.8339C106.158 14.6143 106.158 15.4275 106.026 16.2162Z" fill="#7E898E"/>
<path d="M0 13.6284C4.14236 13.6284 8.28472 13.6284 12.4271 13.6284C12.4271 17.7523 12.4271 21.8761 12.4271 26H0V13.6284Z" fill="#7E898E"/>
<path d="M13.6895 13.6284C17.8318 13.6284 21.9742 13.6284 26.1165 13.6284V26H13.6895C13.6895 21.8761 13.6895 17.7523 13.6895 13.6284Z" fill="#7E898E"/>
</svg>
