<svg width="103" height="30" viewBox="0 0 103 30" fill="none" xmlns="http://www.w3.org/2000/svg">
<g clip-path="url(#clip0)">
<path d="M64.2887 21.2873C64.2522 21.1925 64.1449 21.1379 64.0433 21.1602L64.0114 21.1691C63.7055 21.2327 63.4692 21.2148 63.3026 21.1101C63.0664 20.9563 62.9545 20.6119 62.9545 20.0513V15.004C62.9545 13.0303 61.7356 12.0351 59.3298 12.0351C57.1739 12.0351 55.4871 13.0169 55.4871 14.2707C55.4871 14.9137 55.8945 15.384 56.4971 15.452C56.8909 15.4832 57.2755 15.3338 57.5357 15.0497C58.0687 14.5114 57.9991 13.8683 57.3554 13.1852C57.7354 12.8007 58.4076 12.5745 59.1769 12.5745C60.4289 12.5745 60.9618 13.2899 60.9618 14.965V16.241C60.6697 16.3268 60.3912 16.4126 59.8913 16.5263C58.8813 16.7525 57.49 17.0601 56.4423 17.6174C55.5807 18.0743 55.1401 18.7942 55.1401 19.7582C55.1401 20.8125 55.8534 22.0351 57.8747 22.0351C59.0057 22.0351 60.0157 21.5191 61.0543 20.4102C61.1467 21.5648 61.5964 21.9894 62.7 21.9894C63.2284 21.9894 63.6507 21.8712 64.1506 21.6361C64.2796 21.5726 64.3446 21.4232 64.2887 21.2873ZM60.9561 19.7437C60.7108 20.0736 59.9084 21.0521 58.9121 21.0521C57.5631 21.0521 57.2801 20.1427 57.2801 19.3726C57.2801 18.1144 58.281 17.5349 60.9561 16.8963V19.7437ZM86.8223 22.0752C83.9622 22.0752 81.8063 19.9165 81.8063 17.0557C81.8063 14.2539 84.0546 11.9726 86.8223 11.9726C89.6218 11.9726 91.8188 14.1681 91.8188 16.9699C91.8143 20.1238 89.2235 22.0752 86.8223 22.0752ZM86.7104 12.5109C85.4733 12.5109 84.0592 13.0225 84.0592 17.0144C84.0592 20.0558 84.9905 21.5369 86.9102 21.5369C88.7453 21.5369 89.5614 20.1427 89.5614 17.0144C89.5614 13.982 88.6301 12.5109 86.7104 12.5109ZM42.6179 12.1532C42.6179 14.4757 42.0199 15.7518 38.9841 15.7518H37.376V8.73516H39.0537C42.1968 8.73961 42.6179 10.4648 42.6179 12.1532ZM37.376 20.0469V16.3981H38.8357C41.0099 16.3981 42.6647 15.9546 43.7535 15.0809C44.8937 14.167 45.1299 13.0035 45.1299 12.1933C45.1299 8.85775 41.7882 8.15564 38.9829 8.15564H38.9966H33.3085C33.1784 8.15564 33.0768 8.25483 33.0768 8.38187V8.39525V8.39079C33.0768 8.50446 33.151 8.60365 33.2617 8.64377C33.7673 8.82431 35.1436 8.57133 35.1436 9.99226V20.0413C35.1436 20.7746 34.8104 21.2906 33.2708 21.4266C33.1498 21.4355 33.0574 21.5347 33.0574 21.6528V21.6885C33.0574 21.8111 33.1589 21.9102 33.2891 21.9102H39.3664C39.492 21.9102 39.5981 21.8111 39.5981 21.6885V21.6573C39.5981 21.5391 39.5011 21.4444 39.3801 21.431C37.7093 21.3051 37.3714 20.8114 37.376 20.0469V16.4026V20.0469ZM49.7293 11.9671C47.0872 11.9671 44.9313 14.2707 44.9313 17.1092C44.9313 19.9789 46.948 22.0607 49.7293 22.0607C52.0655 22.0607 53.2011 20.7167 53.8551 19.707C53.9201 19.6078 53.8916 19.4718 53.79 19.4083L53.7626 19.386C53.661 19.318 53.5218 19.3358 53.443 19.4317C52.5814 20.4681 51.835 21.0699 50.5362 21.0699C48.895 21.0699 47.1386 19.9789 47.1386 16.9242V16.9063C47.1386 16.7704 47.1386 16.5854 47.1431 16.4126H53.8596C53.8779 16.4126 53.8916 16.3993 53.8961 16.3814L53.9007 16.3313C53.9931 15.0775 53.6268 13.9508 52.8621 13.1584C52.1169 12.375 51.0315 11.9671 49.7293 11.9671ZM47.1797 15.7607C47.3976 13.67 48.2456 12.5198 49.5809 12.5198C50.244 12.5198 50.7393 12.6959 51.0874 13.0626C51.5691 13.5607 51.7688 14.4701 51.69 15.7562H47.1797V15.7607ZM77.5699 15.8732C75.7301 15.3751 75.0157 14.8769 75.0157 14.0812C75.0157 13.1807 75.7575 12.5243 76.7869 12.5243C77.9921 12.5243 78.5114 13.0815 79.7862 15.131L79.7999 15.1578C79.8045 15.1667 79.8091 15.1711 79.8182 15.1756H80.0031C80.1332 15.1756 80.2348 15.0764 80.2348 14.9494V12.0027C80.2348 11.9894 80.2211 11.9715 80.2211 11.9715H79.9711C79.9015 11.9715 79.8365 12.0027 79.7908 12.0529L79.3834 12.5276C78.7111 12.1744 77.9602 11.9849 77.1955 11.9704C75.0864 11.9704 73.6119 13.2242 73.6119 15.0218C73.6119 16.7102 74.7748 17.3443 76.7778 17.8648C78.7294 18.3763 79.4153 18.9146 79.4153 19.9064C79.4153 21.0109 78.3071 21.509 77.5151 21.509C76.0451 21.509 75.4288 20.9841 74.0205 18.549L74.0068 18.5223C74.0022 18.5134 73.9931 18.5089 73.9885 18.5045H73.7979C73.6678 18.5045 73.5662 18.6037 73.5662 18.7307V22.0351C73.5662 22.0529 73.5799 22.0663 73.6027 22.0663H73.8436C73.904 22.0663 73.9645 22.044 74.0056 21.9983L74.6459 21.3786C75.4014 21.8267 76.5279 22.0618 77.256 22.0618C78.3551 22.0618 79.2544 21.7264 79.8661 21.0933C80.4082 20.5272 80.7095 19.7259 80.7095 18.8388C80.7118 17.3042 79.8593 16.4984 77.5699 15.8732ZM66.4537 20.73C66.4537 21.2371 66.319 21.4043 65.4756 21.4544C65.3547 21.4633 65.2576 21.5581 65.2576 21.6807C65.2576 21.8033 65.3592 21.9024 65.4893 21.9024H69.6425C69.768 21.9024 69.8742 21.8033 69.8742 21.6851C69.8742 21.5625 69.7771 21.4678 69.6562 21.4589C68.6918 21.4132 68.4464 21.2639 68.4464 20.73V14.8591C69.1323 13.7636 69.6242 13.1885 70.4539 13.0169C70.4117 13.1573 70.3889 13.3066 70.3889 13.456C70.3889 14.1715 70.9036 14.6641 71.6454 14.6641C72.2994 14.6908 72.8506 14.1982 72.8826 13.5596C72.8826 13.524 72.8826 13.4872 72.8826 13.4515C72.8826 12.7773 72.4466 11.9894 71.214 11.9894C70.204 11.9894 69.2396 12.5466 68.4099 13.8817V12.3705C68.4099 12.2167 68.2798 12.0941 68.1268 12.0986C68.1223 12.0986 68.1223 12.0986 68.1177 12.0986L65.4985 12.1666C65.3729 12.171 65.2759 12.2702 65.2759 12.3928V12.424C65.2759 12.5377 65.3592 12.6324 65.4711 12.6458C66.343 12.7639 66.4628 13.1618 66.4628 13.5786L66.4537 20.73ZM95.1982 12.0941C95.2587 12.0941 95.3192 12.1164 95.3602 12.1576C95.407 12.1989 95.4344 12.2568 95.4344 12.3159L95.4436 13.9909C95.4436 13.9909 96.2961 12.0261 99.0637 12.0261H99.0911C100.816 12.0261 101.803 13.0849 101.803 14.9326V20.7133C101.803 21.2204 101.937 21.3876 102.781 21.4377C102.906 21.4422 102.999 21.5414 102.999 21.6639C102.999 21.791 102.893 21.8902 102.767 21.8902H99.0352C98.9051 21.8946 98.7989 21.7999 98.7944 21.6729C98.7898 21.5458 98.8868 21.4422 99.0169 21.4377C99.6937 21.3786 99.8044 21.2159 99.8044 20.7133V15.5021C99.8044 13.7781 99.2943 13.1072 97.992 13.1072C97.1064 13.1072 96.3885 13.8494 95.9389 14.4701C95.9389 14.4701 95.7072 14.7465 95.4572 15.2714L95.4846 20.7211C95.4846 21.2193 95.5908 21.3864 96.2493 21.4455C96.3749 21.4678 96.4627 21.5859 96.4399 21.7085C96.4216 21.8122 96.3338 21.8891 96.2265 21.8991H92.5093C92.3838 21.8991 92.2776 21.7999 92.2776 21.6729C92.2776 21.5547 92.3746 21.4555 92.4956 21.4466C93.3345 21.3965 93.4691 21.2293 93.4691 20.7222V13.5797C93.4691 13.1629 93.3481 12.7606 92.4728 12.6424C92.3621 12.6246 92.2776 12.5288 92.2776 12.4207V12.3895C92.2776 12.2669 92.3792 12.1677 92.5047 12.1632L95.1982 12.0941Z" fill="white"/>
<path d="M22.2467 1.93268C28.8285 5.54462 30.3635 13.6422 25.7789 21.8357C21.7559 29.0373 12.9669 32.1154 6.42158 28.4489C-0.128266 24.7823 -1.40765 14.5483 1.41019 8.65952C5.49371 0.112773 14.9778 -2.06041 22.2467 1.93268Z" fill="white"/>
<path d="M22.093 8.14221C23.3815 9.46841 23.7844 11.4778 23.5573 13.1261C23.3028 15.005 22.1159 16.7469 20.1506 17.897C18.5927 18.8165 16.5395 19.1775 14.5229 19.1965C14.5046 19.5041 14.4441 20.5639 14.4122 20.7355C14.3802 20.9261 14.2912 21.1067 14.1668 21.256C13.9488 21.5279 13.5733 21.704 13.2024 21.8088C12.9057 21.8901 12.6135 21.9269 12.4001 21.9269C12.1307 21.9269 11.8762 21.8233 11.6868 21.6371C11.5338 21.47 11.446 21.2616 11.4323 21.0398L11.4186 20.8269C11.3763 20.6464 11.1401 11.5112 11.1869 11.6739C11.2234 10.5784 13.0552 10.389 14.0515 10.5784C15.0479 10.7734 14.7979 11.9414 14.7705 13.3757C14.7705 13.3757 14.7237 15.2636 14.6313 17.2596C15.9015 17.2139 16.9116 16.8617 17.8531 16.4126C19.7625 15.5032 20.7691 14.1045 20.7691 12.045C20.7691 9.98552 18.6874 7.6864 14.8538 7.6864C11.0157 7.6864 9.36996 8.6192 7.51651 10.0992C7.09424 10.4346 6.77468 10.769 6.46881 10.9908C6.16295 11.2125 5.35149 11.2493 5.13807 10.7277C4.87329 10.1037 5.36519 9.406 5.65279 9.07055C6.10246 8.54564 7.21521 7.47688 8.45237 6.85724C9.86642 6.14622 11.5909 5.38171 13.9967 5.32264C16.1709 5.27249 19.6107 5.44077 22.085 8.1333L22.093 8.14221ZM13.7719 23.2698C13.5813 23.1249 13.3599 23.0213 13.118 22.9711C13.0392 22.9578 12.9605 22.9489 12.8863 22.9489C12.432 22.9622 12.0143 23.1885 11.7644 23.5551C11.5373 23.8627 11.4448 24.2427 11.4996 24.6183C11.5418 24.8535 11.6297 25.0574 11.7644 25.2067C11.9128 25.3784 12.1444 25.5054 12.432 25.5868C12.5941 25.6325 12.7653 25.6547 12.9331 25.6547C13.2812 25.6637 13.619 25.5556 13.8974 25.3472C14.1942 25.1209 14.3654 24.7676 14.3562 24.401C14.3517 23.9574 14.1337 23.5417 13.7719 23.2698Z" fill="#233559"/>
</g>
<defs>
<clipPath id="clip0">
<rect width="103" height="30" fill="white"/>
</clipPath>
</defs>
</svg>
