<svg width="145" height="45" viewBox="0 0 145 45" fill="none" xmlns="http://www.w3.org/2000/svg">
<g clip-path="url(#clip0)">
<path d="M83.5226 10.5974C83.1678 10.7922 82.445 11.052 81.5185 11.052C79.7247 11.052 78.8573 9.75976 78.8573 8.18184C78.8573 5.64288 80.5986 3.31171 83.0824 3.31171C83.7263 3.31171 84.3177 3.51301 84.528 3.63638L84.1797 4.64937C83.9103 4.51301 83.5226 4.37664 83.0035 4.37664C81.2031 4.37664 80.0795 6.27924 80.0795 8.02599C80.0795 9.22729 80.6577 10.0065 81.7945 10.0065C82.5107 10.0065 83.0298 9.77924 83.3912 9.59093L83.5226 10.5974Z" fill="white"/>
<path d="M89.6665 10.487C89.1474 10.7922 88.2997 11.0714 87.3732 11.0714C85.5531 11.0714 84.7449 9.71429 84.7449 8.07793C84.7449 5.83767 86.289 3.29871 88.5166 3.29871C89.8307 3.29871 90.547 4.14286 90.547 5.21429C90.547 7.16234 88.5034 7.67533 85.9408 7.62338C85.8882 7.94806 85.9342 8.62988 86.0788 9.03247C86.3547 9.7078 86.9133 10.0325 87.6295 10.0325C88.4377 10.0325 89.0554 9.75975 89.4825 9.51949L89.6665 10.487ZM88.3523 4.29871C87.2287 4.29871 86.381 5.48052 86.0788 6.64936C87.9515 6.68832 89.4102 6.4026 89.4102 5.24026C89.4102 4.64286 88.9831 4.29871 88.3523 4.29871Z" fill="white"/>
<path d="M91.1647 10.9026L92.0846 5.63634C92.2357 4.80518 92.3409 4.0844 92.4131 3.46751H93.4645L93.2936 4.92855H93.3265C93.9376 3.88959 94.8772 3.30518 95.8826 3.30518C96.7171 3.30518 97.6436 3.81167 97.6436 5.35712C97.6436 5.69479 97.5844 6.16232 97.5121 6.55842L96.7368 10.9026H95.5737L96.3228 6.60388C96.3688 6.31167 96.4017 5.97401 96.4017 5.64933C96.4017 4.91557 96.1323 4.36362 95.3175 4.36362C94.4764 4.36362 93.2739 5.46102 92.9585 7.29868L92.3277 10.9091H91.1647V10.9026Z" fill="white"/>
<path d="M101.842 1.68182L101.527 3.46104H103.183L102.999 4.46104H101.343L100.712 8.07143C100.627 8.48053 100.574 8.86364 100.574 9.24676C100.574 9.69481 100.771 9.96754 101.231 9.96754C101.448 9.96754 101.626 9.95455 101.79 9.9026L101.731 10.9091C101.52 11 101.159 11.0455 100.817 11.0455C99.7791 11.0455 99.3586 10.3701 99.3586 9.6039C99.3586 9.17533 99.4177 8.76624 99.5097 8.22078L100.18 4.46104H99.1943L99.3717 3.46104H100.351L100.594 2.07793L101.842 1.68182Z" fill="white"/>
<path d="M103.268 10.9026L104.109 6.1169C104.274 5.14288 104.385 4.16885 104.458 3.47404H105.496C105.443 3.99352 105.384 4.5195 105.318 5.09093H105.358C105.805 4.07794 106.547 3.31171 107.48 3.31171C107.585 3.31171 107.723 3.32469 107.815 3.33768L107.585 4.60391C107.506 4.58443 107.388 4.57145 107.257 4.57145C106.232 4.57145 105.318 5.90262 105.009 7.64288L104.438 10.9156H103.268V10.9026Z" fill="white"/>
<path d="M114.36 6.38308C114.36 8.68179 112.842 11.0649 110.523 11.0649C108.788 11.0649 107.815 9.68179 107.815 8.00646C107.815 5.54542 109.405 3.29218 111.646 3.29218C113.519 3.29867 114.36 4.81815 114.36 6.38308ZM109.044 7.9675C109.044 9.18179 109.675 10.0584 110.674 10.0584C112.073 10.0584 113.131 8.12334 113.131 6.38958C113.131 5.52594 112.763 4.31815 111.515 4.31815C110.03 4.31166 109.044 6.2662 109.044 7.9675Z" fill="white"/>
<path d="M125.123 0L123.605 8.53896C123.48 9.31818 123.362 10.1753 123.323 10.9026H122.232L122.416 9.42857H122.39C121.759 10.4805 120.885 11.0714 119.906 11.0714C118.552 11.0714 117.823 9.88312 117.823 8.37013C117.823 5.72727 119.656 3.30519 122.094 3.30519C122.541 3.30519 123.02 3.40909 123.323 3.56493L123.947 0H125.123ZM123.132 4.64286C122.902 4.44805 122.501 4.31169 122.002 4.31169C120.346 4.31169 119.052 6.21429 119.052 8.2013C119.052 9.09091 119.341 10.026 120.359 10.026C121.272 10.026 122.376 8.90909 122.672 7.23377L123.132 4.64286Z" fill="white"/>
<path d="M130.268 10.487C129.749 10.7922 128.908 11.0714 127.975 11.0714C126.148 11.0714 125.346 9.71429 125.346 8.07793C125.346 5.83767 126.891 3.29871 129.125 3.29871C130.439 3.29871 131.155 4.14286 131.155 5.21429C131.155 7.16234 129.105 7.67533 126.549 7.62338C126.49 7.94806 126.536 8.62988 126.693 9.03247C126.963 9.7078 127.528 10.0325 128.238 10.0325C129.052 10.0325 129.67 9.75975 130.097 9.51949L130.268 10.487ZM128.947 4.29871C127.824 4.29871 126.976 5.48052 126.674 6.64936C128.54 6.68832 129.999 6.4026 129.999 5.24026C130.005 4.64286 129.578 4.29871 128.947 4.29871Z" fill="white"/>
<path d="M78.7588 26.2467L80.0927 18.8182H81.2557L79.9481 26.2467H78.7588ZM80.3095 16.7597C80.3227 16.2662 80.6643 15.9026 81.0783 15.9026C81.5054 15.9026 81.7945 16.2402 81.7945 16.7013C81.7814 17.2078 81.4529 17.5584 80.9797 17.5584C80.5592 17.5519 80.3095 17.2143 80.3095 16.7597Z" fill="white"/>
<path d="M82.0442 26.2468L82.9641 20.9741C83.1218 20.1494 83.227 19.4286 83.2927 18.8117H84.3506L84.1732 20.2663H84.206C84.8237 19.2273 85.7568 18.6429 86.7621 18.6429C87.5966 18.6429 88.5231 19.1494 88.5231 20.7013C88.5231 21.039 88.4705 21.4935 88.3983 21.8961L87.6229 26.2403H86.4533L87.2089 21.9416C87.2484 21.6494 87.2944 21.3117 87.2944 20.987C87.2944 20.2533 87.0184 19.7013 86.2036 19.7013C85.3625 19.7013 84.16 20.7922 83.838 22.6299L83.2138 26.2403H82.0442V26.2468Z" fill="white"/>
<path d="M89.8176 26.2467L90.9675 19.8117H90.0345L90.225 18.8181H91.1384L91.2107 18.4156C91.3815 17.3896 91.7232 16.435 92.3408 15.8376C92.7877 15.4026 93.3856 15.1753 93.9836 15.1753C94.4567 15.1753 94.7721 15.2662 94.9429 15.3766L94.6867 16.3896C94.5092 16.2987 94.2595 16.2467 93.9836 16.2467C93.0439 16.2467 92.584 17.2272 92.3803 18.461L92.3277 18.8181H93.8522L93.6747 19.8117H92.1306L91.0135 26.2467H89.8176Z" fill="white"/>
<path d="M100.351 21.7338C100.351 24.0325 98.8395 26.4156 96.5068 26.4156C94.7721 26.4156 93.8062 25.0325 93.8062 23.3637C93.8062 20.9091 95.3897 18.6494 97.6304 18.6494C99.5097 18.6429 100.351 20.1689 100.351 21.7338ZM95.0415 23.3182C95.0415 24.5325 95.6723 25.4091 96.6776 25.4091C98.0707 25.4091 99.1286 23.474 99.1286 21.7403C99.1286 20.8831 98.7606 19.6689 97.5121 19.6689C96.0205 19.6624 95.0415 21.6104 95.0415 23.3182Z" fill="white"/>
<path d="M101.185 26.2468L102.026 21.4546C102.184 20.4805 102.309 19.5065 102.375 18.8117H103.419C103.36 19.3312 103.301 19.8572 103.229 20.4286H103.275C103.722 19.4156 104.464 18.6429 105.397 18.6429C105.502 18.6429 105.634 18.6559 105.739 18.6754L105.502 19.9416C105.417 19.9286 105.305 19.9091 105.18 19.9091C104.149 19.9091 103.235 21.2403 102.933 22.9805L102.361 26.2468H101.185Z" fill="white"/>
<path d="M105.719 26.2468L106.639 20.9741C106.784 20.1494 106.882 19.4286 106.955 18.8117H107.993L107.822 20.2078H107.855C108.492 19.1689 109.366 18.6429 110.279 18.6429C111.331 18.6429 111.843 19.3637 111.889 20.2987C112.507 19.2273 113.387 18.6559 114.426 18.6429C115.227 18.6429 116.114 19.2013 116.114 20.5974C116.114 20.9351 116.075 21.4416 115.996 21.8507L115.221 26.2468H114.064L114.807 21.9611C114.866 21.6689 114.905 21.2987 114.905 20.9935C114.905 20.2143 114.629 19.7078 113.861 19.7078C112.993 19.7078 111.968 20.7792 111.686 22.4351L111.029 26.2468H109.892L110.667 21.8831C110.72 21.5455 110.753 21.2728 110.753 20.9741C110.753 20.3507 110.595 19.7013 109.721 19.7013C108.86 19.7013 107.776 20.9286 107.513 22.513L106.882 26.2468H105.719Z" fill="white"/>
<path d="M121.844 26.2468C121.844 25.8052 121.923 25.0974 122.002 24.3247H121.976C121.233 25.8766 120.274 26.4156 119.288 26.4156C118.053 26.4156 117.297 25.3701 117.297 23.9546C117.297 21.3636 119.071 18.6429 122.087 18.6429C122.751 18.6429 123.467 18.7662 123.953 18.9156L123.237 22.8052C123.007 24.0974 122.922 25.4156 122.955 26.2468H121.844ZM122.62 19.7662C122.462 19.7078 122.199 19.6559 121.798 19.6559C120.004 19.6559 118.526 21.6494 118.526 23.7273C118.526 24.5584 118.802 25.3636 119.715 25.3636C120.707 25.3636 121.877 23.9805 122.219 22.0065L122.62 19.7662ZM123.947 15.7143L122.048 17.9091H121.102L122.514 15.7143H123.947Z" fill="white"/>
<path d="M127.778 17.0325L127.462 18.8182H129.125L128.941 19.8182H127.278L126.654 23.4286C126.569 23.8442 126.516 24.2273 126.516 24.6104C126.516 25.052 126.713 25.3312 127.167 25.3312C127.384 25.3312 127.574 25.3182 127.725 25.2727L127.673 26.2662C127.456 26.3636 127.108 26.4091 126.759 26.4091C125.721 26.4091 125.301 25.7273 125.301 24.9675C125.301 24.539 125.36 24.1234 125.458 23.5844L126.128 19.8247H125.143L125.314 18.8247H126.293L126.529 17.4416L127.778 17.0325Z" fill="white"/>
<path d="M129.19 26.2467L130.524 18.8182H131.694L130.38 26.2467H129.19ZM130.728 16.7597C130.754 16.2662 131.089 15.9026 131.51 15.9026C131.93 15.9026 132.22 16.2402 132.22 16.7013C132.206 17.2078 131.884 17.5584 131.405 17.5584C130.991 17.5519 130.728 17.2143 130.728 16.7597Z" fill="white"/>
<path d="M137.22 25.935C136.872 26.1363 136.149 26.3961 135.223 26.3961C133.435 26.3961 132.568 25.1104 132.568 23.5259C132.568 20.9935 134.309 18.6558 136.8 18.6558C137.437 18.6558 138.022 18.8636 138.239 18.9805L137.897 19.9935C137.621 19.8571 137.233 19.7208 136.721 19.7208C134.92 19.7208 133.79 21.6298 133.79 23.3701C133.79 24.5714 134.375 25.3506 135.499 25.3506C136.215 25.3506 136.747 25.1234 137.108 24.935L137.22 25.935Z" fill="white"/>
<path d="M142.884 26.2468C142.884 25.8052 142.956 25.0974 143.042 24.3247H143.016C142.266 25.8767 141.314 26.4156 140.328 26.4156C139.099 26.4156 138.337 25.3702 138.337 23.9546C138.337 21.3637 140.111 18.6429 143.127 18.6429C143.804 18.6429 144.514 18.7663 145.007 18.9156L144.29 22.8052C144.06 24.0974 143.975 25.4156 144.001 26.2468H142.884ZM143.653 19.7663C143.495 19.7078 143.239 19.6559 142.832 19.6559C141.031 19.6559 139.559 21.6494 139.559 23.7273C139.559 24.5585 139.835 25.3637 140.749 25.3637C141.734 25.3637 142.91 23.9805 143.252 22.0065L143.653 19.7663Z" fill="white"/>
<path d="M80.2702 34.1623L80.9535 38.1494C81.1112 39.013 81.1967 39.5584 81.2755 40.1169H81.3018C81.4923 39.6429 81.6895 39.1169 82.0443 38.2922L83.8184 34.1623H85.0801L82.478 39.8052C81.7289 41.4026 81.0324 42.7078 80.0927 43.7078C79.3174 44.5519 78.4697 44.9026 78.082 44.9935L77.7798 43.8831C78.082 43.7792 78.5749 43.5779 79.0545 43.1753C79.5211 42.7922 80.0205 42.1948 80.395 41.4545C80.4541 41.3312 80.4541 41.2532 80.4213 41.1169L79.0414 34.1494H80.2702V34.1623Z" fill="white"/>
<path d="M87.7346 40.3052C88.0632 40.5195 88.648 40.7662 89.2196 40.7662C90.0213 40.7662 90.5338 40.2143 90.5338 39.5519C90.5338 38.9675 90.2907 38.6169 89.5613 38.1818C88.7597 37.7013 88.3194 37.0454 88.3194 36.2792C88.3194 34.9935 89.3642 33.987 90.8164 33.987C91.4472 33.987 92.0057 34.1753 92.262 34.3571L91.9268 35.3247C91.6903 35.1688 91.25 34.987 90.7309 34.987C90.0147 34.987 89.5022 35.461 89.5022 36.1039C89.5022 36.6428 89.8242 36.9805 90.4615 37.3441C91.2303 37.8052 91.7494 38.461 91.7494 39.2987C91.7494 40.8636 90.5798 41.7338 89.1211 41.7338C88.3851 41.7143 87.7018 41.4935 87.3864 41.2273L87.7346 40.3052Z" fill="white"/>
<path d="M92.9913 41.5909L94.3252 34.1688H95.4883L94.1807 41.5909H92.9913ZM94.5355 32.1039C94.5486 31.6104 94.8903 31.2402 95.3109 31.2402C95.738 31.2402 96.0205 31.5844 96.0205 32.0454C96.0074 32.5519 95.6723 32.9026 95.2057 32.9026C94.7918 32.9026 94.5355 32.5649 94.5355 32.1039Z" fill="white"/>
<path d="M96.3359 40.3052C96.6579 40.5195 97.2493 40.7662 97.8209 40.7662C98.6226 40.7662 99.1351 40.2143 99.1351 39.5519C99.1351 38.9675 98.892 38.6169 98.1626 38.1818C97.361 37.7013 96.9207 37.0454 96.9207 36.2792C96.9207 34.9935 97.9655 33.987 99.4177 33.987C100.048 33.987 100.607 34.1753 100.87 34.3571L100.541 35.3247C100.298 35.1688 99.8514 34.987 99.3388 34.987C98.6226 34.987 98.1101 35.461 98.1101 36.1039C98.1101 36.6428 98.4386 36.9805 99.0629 37.3441C99.8382 37.8052 100.351 38.461 100.351 39.2987C100.351 40.8636 99.1746 41.7338 97.7224 41.7338C96.9799 41.7143 96.3031 41.4935 95.9877 41.2273L96.3359 40.3052Z" fill="white"/>
<path d="M104.655 32.3766L104.339 34.1624H106.002L105.811 35.1559H104.149L103.531 38.7663C103.446 39.1883 103.38 39.565 103.38 39.9481C103.38 40.3896 103.584 40.6624 104.037 40.6624C104.254 40.6624 104.431 40.6494 104.596 40.6039L104.543 41.6039C104.333 41.6948 103.971 41.7338 103.63 41.7338C102.578 41.7338 102.164 41.065 102.164 40.2987C102.164 39.8637 102.217 39.4546 102.322 38.9156L102.999 35.1494H102.013L102.184 34.1559H103.17L103.413 32.7728L104.655 32.3766Z" fill="white"/>
<path d="M111.002 41.1753C110.49 41.487 109.642 41.7597 108.715 41.7597C106.889 41.7597 106.081 40.4091 106.081 38.7662C106.081 36.526 107.625 33.987 109.859 33.987C111.173 33.987 111.889 34.8376 111.889 35.9091C111.889 37.8636 109.846 38.3701 107.283 38.3117C107.224 38.6364 107.27 39.3312 107.428 39.7273C107.697 40.4026 108.256 40.7208 108.972 40.7208C109.787 40.7208 110.404 40.461 110.831 40.2143L111.002 41.1753ZM109.688 34.9935C108.564 34.9935 107.717 36.1688 107.421 37.3376C109.287 37.3636 110.746 37.0909 110.746 35.9286C110.739 35.3247 110.312 34.9935 109.688 34.9935Z" fill="white"/>
<path d="M112.5 41.5909L113.414 36.3247C113.565 35.5 113.663 34.7792 113.736 34.1688H114.774L114.603 35.5649H114.636C115.28 34.5195 116.147 34 117.067 34C118.125 34 118.631 34.7273 118.684 35.6558C119.301 34.5844 120.188 34.013 121.207 34C122.015 34 122.896 34.5584 122.896 35.9481C122.896 36.2857 122.856 36.7922 122.784 37.2078L122.008 41.5909H120.852L121.588 37.3117C121.647 37.0195 121.686 36.6494 121.686 36.3377C121.686 35.5584 121.41 35.0519 120.642 35.0519C119.787 35.0519 118.756 36.1234 118.473 37.7857L117.81 41.5844H116.666L117.435 37.2273C117.494 36.8896 117.521 36.6169 117.521 36.3182C117.521 35.6948 117.369 35.0455 116.489 35.0455C115.635 35.0455 114.55 36.2727 114.275 37.8571L113.65 41.5844H112.5V41.5909Z" fill="white"/>
<path d="M128.625 41.5909C128.625 41.1493 128.698 40.448 128.776 39.6753H128.757C128.014 41.2273 127.055 41.7662 126.063 41.7662C124.834 41.7662 124.078 40.7208 124.078 39.3052C124.078 36.7078 125.846 33.987 128.868 33.987C129.539 33.987 130.261 34.1169 130.735 34.2662L130.025 38.1493C129.795 39.435 129.703 40.7597 129.736 41.5844H128.625V41.5909ZM129.388 35.1104C129.236 35.0519 128.974 35.0065 128.573 35.0065C126.772 35.0065 125.307 37 125.307 39.0714C125.307 39.9091 125.57 40.7143 126.483 40.7143C127.469 40.7143 128.652 39.3312 128.993 37.3506L129.388 35.1104Z" fill="white"/>
<path d="M131.563 40.3052C131.891 40.5195 132.469 40.7662 133.054 40.7662C133.856 40.7662 134.368 40.2143 134.368 39.5519C134.368 38.9675 134.125 38.6169 133.396 38.1818C132.594 37.7013 132.154 37.0454 132.154 36.2792C132.154 34.9935 133.199 33.987 134.657 33.987C135.288 33.987 135.84 34.1753 136.096 34.3571L135.774 35.3247C135.531 35.1688 135.085 34.987 134.572 34.987C133.856 34.987 133.343 35.461 133.343 36.1039C133.343 36.6428 133.665 36.9805 134.296 37.3441C135.065 37.8052 135.584 38.461 135.584 39.2987C135.584 40.8636 134.408 41.7338 132.949 41.7338C132.206 41.7143 131.536 41.4935 131.221 41.2273L131.563 40.3052Z" fill="white"/>
<path d="M142.871 42.7468L142.727 43.513H135.577L135.722 42.7468H142.871Z" fill="white"/>
<path d="M14.0749 11.9286C15.3693 10.7727 17.8268 9.4091 23.2347 9.4091L45.0961 9.38312L46.4628 1.29871H22.1768C16.3615 1.29871 12.4321 3.53247 9.60665 5.61039C3.8374 9.74676 0 16.9026 0 26.0779C0 36.0909 5.99923 43.4935 15.8884 43.4935H23.1164L23.2347 42.7143L24.562 34.8961H16.8018C11.6502 34.8961 8.81814 29.7013 8.81814 25.1039C8.81814 19.3961 10.9077 14.7792 14.0749 11.9286Z" fill="white"/>
<path d="M64.4999 19.1234C61.2736 17.1818 58.9541 15.6624 58.9541 13.2987C58.9541 11.0455 60.9319 9.04547 64.7825 9.04547C67.8839 8.98703 70.6043 10.0714 71.8396 10.8052L74.3825 3.51949C72.7464 2.60391 70.0326 1.513 65.3936 1.513C57.0879 1.513 50.4119 6.50001 50.4119 14.8117C50.4119 20.0909 54.2559 23.3117 58.2707 25.6169C61.7796 27.6234 63.4157 29.0779 63.4157 31.4481C63.4157 33.5065 62.5944 35.6039 59.2301 35.6039H40.7527L43.7753 17.6883L35.6208 17.7013L31.2775 43.7078H38.6894H39.3794H59.3615C67.8116 43.7078 72.0696 38.013 72.0696 29.9286C72.0696 25.013 69.1258 21.6753 64.4999 19.1234Z" fill="white"/>
</g>
<defs>
<clipPath id="clip0">
<rect width="145" height="45" fill="white"/>
</clipPath>
</defs>
</svg>
