<svg width="353" height="57" viewBox="0 0 353 57" fill="none" xmlns="http://www.w3.org/2000/svg">
<path d="M208.309 21.199C204.315 21.2099 201.921 24.2477 201.921 29.5176C201.921 34.1887 204.456 37.5531 208.712 37.5531H208.755C211.421 37.5531 212.825 36.497 213.043 36.2901L213.065 33.4809L212.945 33.6007C212.945 33.6007 211.323 35.125 209.092 35.0597H208.995C205.969 34.7657 204.707 32.5663 204.805 29.1365C204.837 27.8299 205.327 23.6488 208.298 23.6488C209.582 23.6488 210.551 24.4001 210.551 25.772V25.8483H213.652V25.772C213.652 23.6162 212.248 21.199 208.309 21.199Z" fill="white"/>
<path d="M222.609 22.5825L224.329 19.5447L221.989 19.4902L221.042 22.6152H222.609V22.5825ZM282.139 21.5263L278.068 33.8627L278.014 34.0478L277.949 33.8627L274.314 22.5281C274.314 22.5281 274.02 21.559 272.692 21.559H271.234L276.436 37.1292L276.425 37.1619L276.414 37.249H279.494L279.516 37.2054L279.538 37.1401L284.848 21.5263H282.139ZM174.899 24.4988C174.855 24.3573 174.572 23.7911 173.821 23.7911H171.732L167.139 37.2599H169.827L170.959 33.7538L170.97 33.7103H175.399V33.7538L176.531 37.2599H179.208L179.176 37.151L174.899 24.4988ZM171.601 31.6633L173.19 26.6329L174.757 31.6633H171.601ZM246.421 24.4988C246.388 24.3573 246.116 23.7911 245.354 23.7911H243.276L238.662 37.2599H241.36L242.471 33.7538L242.492 33.7103H246.922L246.943 33.7538L248.064 37.2599H250.741L250.72 37.151L246.421 24.4988ZM243.134 31.6633L244.701 26.6329L246.28 31.6633H243.134ZM292.651 24.9344C292.423 24.1613 292.075 23.7911 291.008 23.802C291.008 23.802 290.975 23.802 290.954 23.802H289.376L284.772 37.2707H287.438L288.581 33.7647L288.592 33.7212H293.032V33.7538L294.164 37.2599H296.841L296.809 37.151L292.651 24.9344ZM289.223 31.6633L290.801 26.6329L292.368 31.6633H289.223ZM312.893 23.8455H310.336V37.2707H318.03V35.2129H312.904V23.8455H312.893ZM302.087 23.8455H299.518V37.2707H307.223V35.2129H302.087V23.8455ZM335.747 33.6885C335.737 35.0387 335.247 35.5177 333.908 35.5395C333.179 35.5395 332.526 35.3109 332.113 35.1693L331.884 35.0931L331.786 35.0604V37.1836L331.862 37.2054C331.862 37.2054 332.864 37.4558 333.908 37.4776V37.4014V37.4776C337.554 37.4776 338.316 36.0077 338.316 33.5687V23.8564H335.758V33.6885H335.747ZM347.142 23.6387C343.496 23.6387 341.7 25.9361 341.7 30.5527C341.7 35.1584 343.496 37.4559 347.142 37.4559C350.766 37.4559 352.594 35.0822 352.605 30.5527C352.605 25.9905 350.777 23.6387 347.142 23.6387ZM347.142 35.5286C345.379 35.5286 344.497 33.9389 344.497 30.5527C344.497 27.1338 345.379 25.555 347.142 25.555C348.927 25.555 349.808 27.1338 349.808 30.5527C349.808 33.9498 348.927 35.5286 347.142 35.5286ZM83.7658 32.9481L79.4017 24.6077C79.3909 24.5968 78.9773 23.8129 78.0087 23.8238H75.9736V37.2381H78.357V27.6129L83.3522 37.2381H86.1491V23.8346H83.7658V32.9481ZM90.5349 37.249H93.0924V23.8346H90.5349V37.249ZM102.234 34.0043L99.3827 24.9235C99.2521 24.4662 98.8712 23.8238 97.8373 23.8238H96.2702L100.71 37.2381H103.671L103.681 37.1945L108.285 23.802L105.597 23.7911L102.234 34.0043ZM113.868 31.3258H118.994V29.2897H113.868V25.8707H119.287V23.8346H111.299V37.249H119.44V35.2129H113.879V31.3258H113.868ZM219.377 31.3258H224.492V29.2897H219.377V25.8707H224.764V23.8346H216.798V37.249H224.938V35.2129H219.377V31.3258ZM323.526 31.3258H328.663V29.2897H323.526V25.8707H328.935V23.8346H320.947V37.249H329.098V35.2129H323.515V31.3258H323.526ZM131.716 33.3619L131.705 33.2748C131.444 32.1206 131.226 31.0753 129.953 30.5527L129.811 30.4765L129.953 30.4329C131.335 29.943 131.977 28.963 131.977 27.4387C131.977 25.065 130.486 23.8238 127.613 23.8238H123.466V37.2381H126.035V31.6306H126.731C128.668 31.6524 128.843 32.2186 129.3 34.2874L129.953 37.2381H132.565L132.554 37.151L131.716 33.3619ZM126.731 29.7252H126.035V25.7619H127.613C128.766 25.7728 129.354 26.4261 129.376 27.6891C129.365 29.1263 128.625 29.7034 126.731 29.7252ZM261.461 33.2748C261.211 32.1206 261.004 31.0753 259.742 30.5527L259.578 30.4765L259.742 30.4329C261.113 29.943 261.766 28.9521 261.755 27.4387C261.755 25.065 260.253 23.8346 257.38 23.8238H253.234V37.2381H255.791V31.6306H256.499C258.447 31.6524 258.599 32.2186 259.078 34.2874L259.709 37.2381H262.332L262.299 37.151L261.461 33.2748ZM256.509 29.7252H255.802V25.7619H257.391C258.544 25.7728 259.143 26.4261 259.154 27.6891C259.132 29.1263 258.403 29.7034 256.509 29.7252ZM233.285 29.1699C231.969 28.473 230.88 27.8524 230.891 26.9814C230.891 25.7183 232.056 25.7183 232.643 25.7183H232.676C233.83 25.7183 234.787 25.9252 235.625 26.2627L236.039 26.4261L236.137 26.4587V24.0197L236.082 24.0089C236.082 24.0089 234.733 23.6495 232.752 23.6387C232.752 23.6387 232.73 23.6387 232.698 23.6387C229.89 23.6387 228.105 24.9997 228.094 27.1665C228.105 29.2679 229.977 30.2914 231.609 31.1951C233.024 31.9682 234.33 32.6977 234.319 33.8954C234.297 34.4071 234.036 35.496 232.099 35.5177C230.532 35.5177 229.455 34.6031 228.649 34.124L228.453 33.9934L228.355 33.9281V36.661L228.366 36.6719C228.388 36.6828 229.694 37.3905 232.132 37.4559V37.3687V37.4559C235.233 37.4559 237.116 35.9968 237.116 33.5579C237.116 31.2169 234.961 30.0845 233.285 29.1699ZM141.129 29.1699C139.812 28.473 138.724 27.8524 138.724 26.9814C138.735 25.7183 139.889 25.7183 140.487 25.7183H140.531C141.673 25.7183 142.631 25.9252 143.447 26.2627L143.883 26.4261L143.97 26.4587L143.981 24.0197L143.915 24.0089C143.915 24.0089 142.566 23.6495 140.596 23.6387C140.574 23.6169 140.563 23.6387 140.563 23.6387C137.712 23.6387 135.938 24.9997 135.938 27.1665C135.938 29.2679 137.821 30.2914 139.442 31.1951C140.868 31.9682 142.163 32.6977 142.163 33.8954C142.141 34.4071 141.869 35.496 139.921 35.5177C138.365 35.5177 137.277 34.6031 136.493 34.124L136.276 33.9934L136.178 33.9281V36.661L136.21 36.6719C136.21 36.6719 137.527 37.3905 139.954 37.4559V37.3687V37.4559C143.056 37.4559 144.938 35.9968 144.938 33.5579C144.96 31.2169 142.816 30.0845 141.129 29.1699ZM148.508 37.2599H151.098V23.8346H148.508V37.2599ZM159.14 23.8346H155.723V37.249H159.14C162.177 37.249 165.039 36.3997 165.039 30.5091C165.039 25.751 163.363 23.8455 159.14 23.8346ZM159.14 35.2238H158.292V25.7728H159.14C161.785 25.7836 162.242 27.2644 162.253 30.4656C162.231 34.5814 161.186 35.2129 159.14 35.2238ZM185.673 23.8346H182.256V37.249H185.673C188.709 37.249 191.582 36.3997 191.593 30.5091C191.582 25.751 189.895 23.8455 185.673 23.8346ZM185.673 35.2238H184.824V25.7728H185.673C188.328 25.7836 188.774 27.2644 188.774 30.4656C188.764 34.5814 187.708 35.2129 185.673 35.2238ZM68.9651 32.8501C68.9651 34.4725 67.9094 35.2891 66.4185 35.3C64.9058 35.2891 63.9263 34.4725 63.9263 32.8501V21.559H61.2927V33.0788C61.3144 35.8117 63.1536 37.4559 66.1899 37.4559H66.7123C69.7813 37.4559 71.577 35.8444 71.5878 33.0788V21.559H68.9542V32.8501H68.9651Z" fill="white"/>
<path d="M23.8443 57V23.7473C3.10162 15.0258 0 0 0 0V33.0894C0 45.0338 23.8443 57 23.8443 57ZM29.5796 20.6768V53.7444C31.4406 52.5794 33.5954 51.1639 35.7611 49.5415L35.7502 17.9547C8.54304 15.3851 0 0 0 0C9.2722 18.902 29.5796 20.6768 29.5796 20.6768ZM47.6887 5.06304V0C40.2231 2.26476 32.1915 3.51691 23.8443 3.52779C15.4972 3.51691 7.47652 2.26476 0 0C0 0 18.1526 11.1278 47.6887 5.06304ZM41.5181 14.3616V44.5765C45.0333 41.0378 47.6887 37.0636 47.6887 33.0894V10.4309C43.3791 10.8447 34.1504 11.3456 24.4429 9.549C12.8962 7.40401 5.83321 4.5404 0 0C13.8539 14.6991 41.5181 14.3616 41.5181 14.3616Z" fill="white"/>
</svg>
