<svg width="341" height="175" viewBox="0 0 341 175" fill="none" xmlns="http://www.w3.org/2000/svg">
<path d="M325 90.9999L16 91C7.71572 91 0.999993 97.7157 0.999994 106L0.999997 143.385C0.999998 151.669 7.71573 158.385 16 158.385L83.1033 158.385L98.3599 172.021C99.6485 173.173 101.693 172.258 101.693 170.53L101.693 158.385L324.971 158.817C333.267 158.833 340 152.113 340 143.817L340 106C340 97.7157 333.284 90.9999 325 90.9999Z" stroke="#CFED08" stroke-width="1.5"/>
<path d="M43 23.2V30.64H46.84L40.24 54.52H40.18L33.1 30.64H36.94V23.2H19.72V30.64H22.6L33.64 64.3H45.82L56.5 30.64H59.62V23.2H43ZM61.1458 23.2V30.64H64.3858V56.56H61.1458V64H93.0658V53.26H85.6258V56.56H73.9258V46.66H90.0658V39.28H73.9258V30.64H85.6258V33.94H93.0658V23.2H61.1458ZM95.3645 23.2V30.64H98.6045V56.56H95.3645V64H111.385V56.56H108.145V49.06H112.645L118.225 56.56H116.305V64H132.865V56.56H130.285L123.145 47.5C127.645 45.88 130.285 41.56 130.285 36.16C130.285 27.82 125.065 23.2 116.305 23.2H95.3645ZM108.145 30.64H115.285C118.165 30.64 120.505 32.26 120.505 36.16C120.505 40.06 118.105 41.68 115.165 41.68H108.145V30.64ZM142.488 23.2V30.64H146.388L138.168 56.56H134.388V64H150.888V56.56H147.408L148.968 51.64H159.948L161.268 56.56H157.908V64H174.888V56.56H171.648L161.328 23.2H142.488ZM154.788 31.66L158.328 44.74H150.888L154.728 31.66H154.788ZM200.88 23.2V30.64H204.36V48.1H204.24L188.94 23.2H176.4V30.64H179.64V56.56H176.4V64H191.88V56.56H188.4V40.42H188.52L203.34 64H213.12V30.64H216.3V23.2H200.88ZM236.034 30.04C243.174 30.04 244.494 35.5 244.494 43.3C244.494 51.1 243.174 57.16 236.034 57.16C228.894 57.16 227.574 51.1 227.574 43.3C227.574 35.5 228.894 30.04 236.034 30.04ZM236.034 64.6C250.554 64.6 254.574 54.94 254.574 43.3C254.574 31.66 250.554 22.6 236.034 22.6C221.514 22.6 217.494 31.66 217.494 43.3C217.494 54.94 221.514 64.6 236.034 64.6ZM19.72 105.2V112.64H22.96V138.56H19.72V146H38.56C52.9 146 57.04 136.94 57.04 125.3C57.04 113.66 52.9 105.2 38.56 105.2H19.72ZM32.5 138.56V112.64H38.56C45.52 112.64 46.96 117.5 46.96 125.3C46.96 133.1 45.52 138.56 38.56 138.56H32.5ZM58.6848 138.56V146H74.7048V138.56H71.4648V112.64H74.7048V105.2H58.6848V112.64H61.9248V138.56H58.6848ZM99.4258 105.2V112.64H103.266L96.6658 136.52H96.6058L89.5258 112.64H93.3658V105.2H76.1458V112.64H79.0258L90.0658 146.3H102.246L112.926 112.64H116.046V105.2H99.4258ZM117.572 105.2V112.64H120.812V138.56H117.572V146H149.492V135.26H142.052V138.56H130.352V128.66H146.492V121.28H130.352V112.64H142.052V115.94H149.492V105.2H117.572ZM151.79 105.2V112.64H155.03V138.56H151.79V146H167.81V138.56H164.57V131.06H169.07L174.65 138.56H172.73V146H189.29V138.56H186.71L179.57 129.5C184.07 127.88 186.71 123.56 186.71 118.16C186.71 109.82 181.49 105.2 172.73 105.2H151.79ZM164.57 112.64H171.71C174.59 112.64 176.93 114.26 176.93 118.16C176.93 122.06 174.53 123.68 171.59 123.68H164.57V112.64ZM187.95 105.2V115.94H195.39V112.64H199.59V138.56H196.35V146H212.31V138.56H209.07V112.64H213.27V115.94H220.65V105.2H187.95ZM222.454 138.56V146H238.474V138.56H235.234V112.64H238.474V105.2H222.454V112.64H225.694V138.56H222.454ZM239.915 105.2V112.64H243.155V138.56H239.915V146H258.755C273.095 146 277.235 136.94 277.235 125.3C277.235 113.66 273.095 105.2 258.755 105.2H239.915ZM252.695 138.56V112.64H258.755C265.715 112.64 267.155 117.5 267.155 125.3C267.155 133.1 265.715 138.56 258.755 138.56H252.695ZM298.905 112.04C306.045 112.04 307.365 117.5 307.365 125.3C307.365 133.1 306.045 139.16 298.905 139.16C291.765 139.16 290.445 133.1 290.445 125.3C290.445 117.5 291.765 112.04 298.905 112.04ZM298.905 146.6C313.425 146.6 317.445 136.94 317.445 125.3C317.445 113.66 313.425 104.6 298.905 104.6C284.385 104.6 280.365 113.66 280.365 125.3C280.365 136.94 284.385 146.6 298.905 146.6Z" fill="#CFED08"/>
<path d="M0.75 24C0.75 16.1299 7.12994 9.75 15 9.75H266C273.87 9.75 280.25 16.1299 280.25 24V62C280.25 69.8701 273.87 76.25 266 76.25H15C7.12994 76.25 0.75 69.8701 0.75 62V24Z" stroke="#CFED08" stroke-width="1.5"/>
</svg>
