<svg width="314" height="293" viewBox="0 0 314 293" fill="none" xmlns="http://www.w3.org/2000/svg">
<path d="M9.00399 0.414062H0V139.762H9.00399V0.414062Z" fill="#F2F2F2"/>
<path d="M20.1271 0.38623H11.5846V139.734H20.1271V0.38623Z" fill="#F2F2F2"/>
<path d="M31.2597 0.35791H23.1787V139.706H31.2597V0.35791Z" fill="#F2F2F2"/>
<path d="M42.3828 0.32959H34.7633V139.677H42.3828V0.32959Z" fill="#F2F2F2"/>
<path d="M53.5153 0.30127H46.3573V139.649H53.5153V0.30127Z" fill="#F2F2F2"/>
<path d="M64.6385 0.272949H57.942V139.621H64.6385V0.272949Z" fill="#F2F2F2"/>
<path d="M75.7711 0.244629H69.5361V139.592H75.7711V0.244629Z" fill="#F2F2F2"/>
<path d="M86.8941 0.216797H81.1206V139.564H86.8941V0.216797Z" fill="#F2F2F2"/>
<path d="M98.0173 0.188477H92.7053V139.536H98.0173V0.188477Z" fill="#F2F2F2"/>
<path d="M109.15 0.160156H104.299V139.508H109.15V0.160156Z" fill="#F2F2F2"/>
<path d="M120.273 0.131836H115.884V139.48H120.273V0.131836Z" fill="#F2F2F2"/>
<path d="M131.406 0.104004H127.478V139.452H131.406V0.104004Z" fill="#F2F2F2"/>
<path d="M142.529 0.0756836H139.063V139.423H142.529V0.0756836Z" fill="#F2F2F2"/>
<path d="M153.661 0.0566406H150.657V139.404H153.661V0.0566406Z" fill="#F2F2F2"/>
<path d="M304.299 0.253906H295.295V98.0712H304.299V0.253906Z" fill="#243459"/>
<path d="M292.705 0.235352H284.162V98.0526H292.705V0.235352Z" fill="#243459"/>
<path d="M281.12 0.216309H273.039V98.0336H281.12V0.216309Z" fill="#243459"/>
<path d="M269.526 0.197754H261.907V98.015H269.526V0.197754Z" fill="#243459"/>
<path d="M257.942 0.178711H250.784V97.9959H257.942V0.178711Z" fill="#243459"/>
<path d="M246.357 0.160156H239.661V97.9774H246.357V0.160156Z" fill="#243459"/>
<path d="M234.763 0.141113H228.528V97.9584H234.763V0.141113Z" fill="#243459"/>
<path d="M223.178 0.112793H217.405V97.93H223.178V0.112793Z" fill="#243459"/>
<path d="M211.584 0.0942383H206.272V97.9115H211.584V0.0942383Z" fill="#243459"/>
<path d="M200 0.0751953H195.149V97.8924H200V0.0751953Z" fill="#243459"/>
<path d="M188.406 0.0566406H184.017V97.8739H188.406V0.0566406Z" fill="#243459"/>
<path d="M176.821 0.0375977H172.894V97.8548H176.821V0.0375977Z" fill="#243459"/>
<path d="M165.236 0.019043H161.77V97.8363H165.236V0.019043Z" fill="#243459"/>
<path d="M153.642 0H150.638V97.8172H153.642V0Z" fill="#243459"/>
<path d="M236.844 98.0615H227.84V195.879H236.844V98.0615Z" fill="#216FB7"/>
<path d="M224.968 98.0239H216.821V195.841H224.968V98.0239Z" fill="#216FB7"/>
<path d="M213.082 97.9863H205.792V195.804H213.082V97.9863Z" fill="#216FB7"/>
<path d="M201.205 97.9487H194.772V195.766H201.205V97.9487Z" fill="#216FB7"/>
<path d="M189.319 97.9204H183.744V195.738H189.319V97.9204Z" fill="#216FB7"/>
<path d="M177.433 97.8828H172.715V195.7H177.433V97.8828Z" fill="#216FB7"/>
<path d="M165.557 97.8452H161.695V195.662H165.557V97.8452Z" fill="#216FB7"/>
<path d="M153.671 97.8076H150.666V195.625H153.671V97.8076Z" fill="#216FB7"/>
<path d="M236.826 195.794H227.822V293H236.826V195.794Z" fill="#243459"/>
<path d="M247.845 195.757H239.698V292.962H247.845V195.757Z" fill="#243459"/>
<path d="M258.874 195.729H251.584V292.934H258.874V195.729Z" fill="#243459"/>
<path d="M269.903 195.691H263.47V292.896H269.903V195.691Z" fill="#243459"/>
<path d="M280.923 195.653H275.347V292.859H280.923V195.653Z" fill="#243459"/>
<path d="M291.952 195.616H287.233V292.821H291.952V195.616Z" fill="#243459"/>
<path d="M302.98 195.578H299.119V292.784H302.98V195.578Z" fill="#243459"/>
<path d="M314 195.541H310.996V292.746H314V195.541Z" fill="#243459"/>
</svg>
