<svg width="42" height="33" viewBox="0 0 42 33" fill="none" xmlns="http://www.w3.org/2000/svg">
<path d="M22.4798 11.1001H5.51984C5.27984 11.1001 5.08984 11.3601 5.08984 11.6801C5.08984 12.0001 5.27984 12.2601 5.51984 12.2601H21.9298C22.0998 11.8701 22.2798 11.4801 22.4798 11.1001Z" fill="#E20511"/>
<path d="M5.51984 16.2601H20.6798C20.7098 15.8701 20.7498 15.4801 20.7998 15.1001H5.51984C5.27984 15.1001 5.08984 15.3601 5.08984 15.6801C5.08984 15.9901 5.27984 16.2601 5.51984 16.2601Z" fill="#E20511"/>
<path d="M5.51984 20.2498H21.0898C20.9998 19.8698 20.9298 19.4798 20.8598 19.0898H5.51984C5.27984 19.0898 5.08984 19.3498 5.08984 19.6698C5.08984 19.9898 5.27984 20.2498 5.51984 20.2498Z" fill="#E20511"/>
<path d="M1.16 24.01V2.56C1.16 1.8 1.8 1.16 2.56 1.16H32.57C33.33 1.16 33.97 1.8 33.97 2.56V7.56C34.36 7.7 34.75 7.86 35.13 8.05V2.56C35.13 1.15 33.98 0 32.57 0H2.56C1.15 0 0 1.15 0 2.56V24C0 25.41 1.15 26.56 2.56 26.56H18.64L19.23 25.4H2.56C1.8 25.41 1.16 24.77 1.16 24.01Z" fill="#E20511"/>
<path d="M24.8203 5.9301C24.8203 5.6101 24.6303 5.3501 24.3903 5.3501H10.7103C10.4703 5.3501 10.2803 5.6101 10.2803 5.9301C10.2803 6.2501 10.4703 6.5101 10.7103 6.5101H24.4003C24.6303 6.5101 24.8203 6.2501 24.8203 5.9301Z" fill="#E20511"/>
<path d="M41.5299 29.4801L37.2299 20.6001L37.3099 20.4501C37.8499 19.3901 38.1299 18.2601 38.1299 17.0801C38.1299 12.9801 34.7899 9.64014 30.6899 9.64014C26.5899 9.64014 23.2499 12.9801 23.2499 17.0801C23.2499 18.3401 23.5699 19.5901 24.1899 20.6901L24.2699 20.8401L20.0399 29.5701C19.9299 29.7901 19.9799 30.0501 20.1499 30.2301C20.2599 30.3401 20.4099 30.4101 20.5699 30.4101C20.6499 30.4101 20.7299 30.3901 20.8099 30.3601L24.2099 28.8501L25.0999 32.4801C25.1599 32.7301 25.3699 32.9001 25.6599 32.9201C25.8799 32.9201 26.0799 32.7901 26.1799 32.5901L30.0999 24.4901L30.4999 24.5101C30.5699 24.5101 30.6299 24.5201 30.6999 24.5201C30.8999 24.5201 31.0999 24.5101 31.2999 24.4901L31.5299 24.4701L35.4599 32.5901C35.5599 32.7901 35.7599 32.9201 35.9799 32.9201H36.0399C36.2799 32.8901 36.4799 32.7201 36.5399 32.4801L37.4299 28.8501L40.8299 30.3601C40.9099 30.3901 40.9899 30.4101 41.0799 30.4101C41.3999 30.4101 41.6599 30.1501 41.6599 29.8301C41.6399 29.7001 41.6099 29.5901 41.5299 29.4801ZM25.8299 30.6301L25.1599 27.8901C25.1199 27.7201 25.0099 27.5801 24.8499 27.5101C24.7699 27.4701 24.6799 27.4501 24.5999 27.4501C24.5199 27.4501 24.4399 27.4701 24.3599 27.5001L21.7799 28.6501L25.0299 21.9301L25.3599 22.2701C26.2299 23.1701 27.3199 23.8301 28.5099 24.1901L28.8899 24.3001L25.8299 30.6301ZM30.6799 23.3601C27.2199 23.3601 24.3999 20.5401 24.3999 17.0801C24.3999 13.6201 27.2199 10.8001 30.6799 10.8001C34.1399 10.8001 36.9599 13.6201 36.9599 17.0801C36.9599 20.5401 34.1499 23.3601 30.6799 23.3601ZM37.2599 27.5001C37.1799 27.4701 37.1099 27.4501 37.0299 27.4501C36.9399 27.4501 36.8499 27.4701 36.7699 27.5101C36.6199 27.5901 36.4999 27.7301 36.4599 27.8901L35.7899 30.6301L32.6999 24.2401L33.0599 24.1201C34.2399 23.7201 35.3099 23.0201 36.1599 22.1001L36.4899 21.7401L39.8399 28.6501L37.2599 27.5001Z" fill="#E20511"/>
<path d="M30.6804 13.3C28.6004 13.3 26.9004 14.99 26.9004 17.08C26.9004 19.16 28.5904 20.86 30.6804 20.86C32.7604 20.86 34.4604 19.17 34.4604 17.08C34.4604 14.99 32.7704 13.3 30.6804 13.3ZM30.6804 19.7C29.2404 19.7 28.0604 18.53 28.0604 17.08C28.0604 15.64 29.2304 14.46 30.6804 14.46C32.1204 14.46 33.3004 15.63 33.3004 17.08C33.3004 18.52 32.1304 19.7 30.6804 19.7Z" fill="#E20511"/>
</svg>
