<svg width="36" height="36" viewBox="0 0 36 36" fill="none" xmlns="http://www.w3.org/2000/svg">
<path d="M17.5102 20.4399L13.0702 15.9999L12.9802 15.9099L11.9902 16.8999L17.4302 22.3599L17.5202 22.4399L18.4302 21.5399L18.5002 21.4399L26.1802 13.7599L26.2602 13.6699L25.2702 12.6799L17.5102 20.4399Z" fill="#E20511"/>
<path d="M17.56 0C7.88 0 0 7.88 0 17.56C0 27.24 7.88 35.12 17.56 35.12C27.25 35.12 35.13 27.24 35.13 17.56C35.13 7.88 27.25 0 17.56 0ZM28.86 17.56C28.86 17.95 29.18 18.26 29.56 18.26H33.7L33.67 18.65C33.13 26.77 26.59 33.23 18.46 33.69L18.08 33.71V29.74C18.08 29.35 17.76 29.04 17.38 29.04C17 29.04 16.68 29.36 16.68 29.74V33.69L16.29 33.66C8.36 33.04 1.98 26.59 1.45 18.65L1.42 18.26H5.21C5.6 18.26 5.91 17.94 5.91 17.56C5.91 17.18 5.59 16.86 5.21 16.86H1.42L1.45 16.47C1.98 8.54 8.36 2.08 16.29 1.46L16.68 1.43V5.38C16.68 5.77 17 6.08 17.38 6.08C17.76 6.08 18.08 5.76 18.08 5.38V1.41L18.46 1.43C26.58 1.88 33.12 8.35 33.67 16.46L33.7 16.85H29.56C29.18 16.86 28.86 17.17 28.86 17.56Z" fill="#E20511"/>
</svg>
