<svg width="39" height="39" viewBox="0 0 39 39" fill="none" xmlns="http://www.w3.org/2000/svg">
<path d="M19.3587 21.0143C19.3991 21.0143 19.4395 21.0143 19.4879 21.0143C19.5041 21.0143 19.5202 21.0143 19.5364 21.0143C19.5606 21.0143 19.5929 21.0143 19.6172 21.0143C21.9835 20.9739 23.8975 20.1421 25.3109 18.551C28.4202 15.046 27.9033 9.03728 27.8468 8.46386C27.6449 4.15925 25.6097 2.09981 23.9298 1.13875C22.678 0.419963 21.2162 0.0323048 19.5848 0H19.5283C19.5202 0 19.5041 0 19.496 0H19.4476C18.5511 0 16.7905 0.145372 15.1026 1.10644C13.4066 2.06751 11.339 4.12694 11.1371 8.46386C11.0806 9.03728 10.5637 15.046 13.6731 18.551C15.0783 20.1421 16.9924 20.9739 19.3587 21.0143ZM13.2935 8.66577C13.2935 8.64154 13.3016 8.61731 13.3016 8.60116C13.5681 2.81052 17.6789 2.18865 19.4395 2.18865H19.4718C19.4879 2.18865 19.5122 2.18865 19.5364 2.18865C21.717 2.23711 25.4239 3.12549 25.6743 8.60116C25.6743 8.62539 25.6743 8.64962 25.6824 8.66577C25.6905 8.7223 26.2558 14.2141 23.6876 17.1054C22.67 18.2522 21.3132 18.8176 19.5283 18.8337C19.5122 18.8337 19.5041 18.8337 19.4879 18.8337C19.4718 18.8337 19.4637 18.8337 19.4476 18.8337C17.6708 18.8176 16.3059 18.2522 15.2964 17.1054C12.7362 14.2303 13.2854 8.71423 13.2935 8.66577Z" fill="#233559"/>
<path d="M36.0845 30.9803C36.0845 30.9722 36.0845 30.9641 36.0845 30.956C36.0845 30.8914 36.0764 30.8268 36.0764 30.7541C36.028 29.155 35.923 25.4157 32.4179 24.2205C32.3937 24.2124 32.3614 24.2043 32.3372 24.1962C28.6948 23.2675 25.6662 21.1677 25.6339 21.1434C25.1413 20.7962 24.4629 20.9173 24.1156 21.4099C23.7683 21.9026 23.8894 22.581 24.3821 22.9283C24.5194 23.0252 27.7337 25.2623 31.7557 26.2961C33.6374 26.9664 33.8474 28.9774 33.9039 30.8187C33.9039 30.8914 33.9039 30.956 33.912 31.0206C33.9201 31.7475 33.8716 32.8701 33.7424 33.5162C32.4341 34.2592 27.3057 36.8274 19.5041 36.8274C11.7347 36.8274 6.57405 34.2511 5.25763 33.5081C5.12841 32.862 5.07188 31.7394 5.08803 31.0126C5.08803 30.9479 5.0961 30.8833 5.0961 30.8107C5.15264 28.9693 5.36262 26.9583 7.24438 26.288C11.2663 25.2542 14.4807 23.009 14.618 22.9202C15.1106 22.5729 15.2317 21.8945 14.8845 21.4019C14.5372 20.9092 13.8588 20.7881 13.3661 21.1354C13.3338 21.1596 10.3214 23.2594 6.66289 24.1882C6.63058 24.1962 6.60636 24.2043 6.58213 24.2124C3.07705 25.4157 2.97206 29.155 2.9236 30.746C2.9236 30.8187 2.9236 30.8833 2.91553 30.9479C2.91553 30.956 2.91553 30.9641 2.91553 30.9722C2.90745 31.3921 2.89938 33.5485 3.32741 34.6307C3.40818 34.8407 3.55355 35.0184 3.74738 35.1395C3.98966 35.301 9.79646 38.9999 19.5121 38.9999C29.2278 38.9999 35.0346 35.2929 35.2769 35.1395C35.4626 35.0184 35.6161 34.8407 35.6969 34.6307C36.1007 33.5566 36.0926 31.4002 36.0845 30.9803Z" fill="#233559"/>
</svg>
