<svg width="141" height="63" viewBox="0 0 141 63" fill="none" xmlns="http://www.w3.org/2000/svg">
<path d="M4.0009 0.12439H0V62.0365H4.0009V0.12439Z" fill="#E20511"/>
<path d="M9.00184 0.12439H5.18848V62.0365H9.00184V0.12439Z" fill="#E20511"/>
<path d="M13.9408 0.12439H10.3149V62.0365H13.9408V0.12439Z" fill="#E20511"/>
<path d="M18.8792 0.12439H15.5034V62.0365H18.8792V0.12439Z" fill="#E20511"/>
<path d="M23.8801 0.12439H20.6919V62.0365H23.8801V0.12439Z" fill="#E20511"/>
<path d="M28.819 0.0622559H25.8184V61.9743H28.819V0.0622559Z" fill="#E20511"/>
<path d="M33.7575 0.0622559H31.0068V61.9743H33.7575V0.0622559Z" fill="#E20511"/>
<path d="M38.7594 0.0622559H36.1963V61.9743H38.7594V0.0622559Z" fill="#E20511"/>
<path d="M43.6973 0.0622559H41.3218V61.9743H43.6973V0.0622559Z" fill="#E20511"/>
<path d="M48.6987 0.0622559H46.5107V61.9743H48.6987V0.0622559Z" fill="#E20511"/>
<path d="M53.6372 0H51.6992V61.9121H53.6372V0Z" fill="#E20511"/>
<path d="M58.5761 0H56.8257V61.9121H58.5761V0Z" fill="#E20511"/>
<path d="M63.577 0H62.0142V61.9121H63.577V0Z" fill="#E20511"/>
<path d="M68.5154 0H67.2026V61.9121H68.5154V0Z" fill="#E20511"/>
<path d="M140.453 0.12439H136.452V43.5562H140.453V0.12439Z" fill="#233559"/>
<path d="M135.327 0.12439H131.514V43.5562H135.327V0.12439Z" fill="#233559"/>
<path d="M130.201 0.12439H126.575V43.5562H130.201V0.12439Z" fill="#233559"/>
<path d="M124.949 0.12439H121.573V43.5562H124.949V0.12439Z" fill="#233559"/>
<path d="M119.824 0.12439H116.635V43.5562H119.824V0.12439Z" fill="#233559"/>
<path d="M114.697 0.12439H111.697V43.5562H114.697V0.12439Z" fill="#233559"/>
<path d="M109.446 0.0622559H106.695V43.4941H109.446V0.0622559Z" fill="#233559"/>
<path d="M104.32 0.0622559H101.757V43.4941H104.32V0.0622559Z" fill="#233559"/>
<path d="M99.1309 0.0622559H96.7554V43.4941H99.1309V0.0622559Z" fill="#233559"/>
<path d="M94.0054 0.0622559H91.8174V43.4941H94.0054V0.0622559Z" fill="#233559"/>
<path d="M88.8163 0.0622559H86.8784V43.4941H88.8163V0.0622559Z" fill="#233559"/>
<path d="M83.6273 0.0622559H81.877V43.4941H83.6273V0.0622559Z" fill="#233559"/>
<path d="M78.5018 0.0622559H76.939V43.4941H78.5018V0.0622559Z" fill="#233559"/>
<path d="M73.3128 0H72V43.4318H73.3128V0Z" fill="#233559"/>
</svg>
