<svg width="37" height="22" viewBox="0 0 37 22" fill="none" xmlns="http://www.w3.org/2000/svg">
<path d="M36.7742 0H0V22H36.7742V0Z" fill="white"/>
<path d="M11.0852 0H0V22H11.0852V0Z" fill="#2530A9"/>
<path d="M36.7742 11H0V22H36.7742V11Z" fill="#C22623"/>
<path d="M5.54829 2.75281L4.68774 5.35955L6.00121 5.78652L5.54829 2.75281Z" fill="white"/>
<path d="M5.54823 2.75281L6.39745 5.35955L5.08398 5.78652L5.54823 2.75281Z" fill="white"/>
<path d="M8.17517 4.65167H5.41235V6.02246L8.17517 4.65167Z" fill="white"/>
<path d="M8.17528 4.65167L5.93333 6.26965L5.12939 5.15729L8.17528 4.65167Z" fill="white"/>
<path d="M2.91003 4.65167L5.15199 6.26965L5.96725 5.15729L2.91003 4.65167Z" fill="white"/>
<path d="M2.91003 4.65167H5.68417V6.02246L2.91003 4.65167Z" fill="white"/>
<path d="M7.16745 7.71911L6.31823 5.11237L5.00476 5.5281L7.16745 7.71911Z" fill="white"/>
<path d="M7.16749 7.7191L4.92554 6.10112L5.75212 5L7.16749 7.7191Z" fill="white"/>
<path d="M3.91785 7.7191L6.1598 6.10112L5.34454 5L3.91785 7.7191Z" fill="white"/>
<path d="M3.91785 7.71911L4.76707 5.11237L6.09186 5.5281L3.91785 7.71911Z" fill="white"/>
</svg>
