<svg width="37" height="22" viewBox="0 0 37 22" fill="none" xmlns="http://www.w3.org/2000/svg">
<path d="M37 7.3371H0V14.6742H37V7.3371Z" fill="white"/>
<path d="M37 0H0V7.33708H37V0Z" fill="#80A7D8"/>
<path d="M37 14.6629H0V21.9887H37V14.6629Z" fill="#80A7D8"/>
<path d="M18.3567 11L18.4669 14C18.4669 14 18.4669 14.0562 18.5 14.0562C18.5331 14.0562 18.5331 14 18.5331 14L18.6433 11H18.3567Z" fill="#F1BD51"/>
<path d="M18.5002 14.0561C18.4671 14.0561 18.4561 14.0112 18.4561 13.9887L18.3458 10.9887H18.3679L18.4781 13.9887C18.4781 13.9887 18.4781 14.0337 18.5112 14.0337C18.5333 14.0337 18.5333 13.9887 18.5333 13.9887L18.6435 10.9887L18.5553 13.9887C18.5443 14.0224 18.5333 14.0561 18.5002 14.0561Z" fill="#7A361D"/>
<path d="M18.4229 11L18.5 13.0562L18.5772 11H18.4229Z" fill="#7A361D"/>
<path d="M18.2244 11.9662C18.059 12.3483 18.1913 12.6516 18.037 12.9775C17.8606 13.3033 17.9708 13.573 17.9598 13.7303C17.9488 13.8764 17.8275 13.9213 17.8606 13.955C17.8936 13.9887 18.0149 13.9213 18.07 13.7191C18.1141 13.5168 18.0039 13.4044 18.2023 13C18.4118 12.5955 18.2464 12.4157 18.4559 12.0561L18.2244 11.9662Z" fill="#F1BD51"/>
<path d="M17.8827 13.9775L17.8386 13.9662C17.8276 13.9438 17.8386 13.9213 17.8606 13.8988C17.8937 13.8651 17.9378 13.8202 17.9378 13.7303C17.9378 13.6853 17.9378 13.6404 17.9268 13.5842C17.9047 13.4269 17.8827 13.2247 18.015 12.9775C18.0922 12.8089 18.1032 12.6516 18.1032 12.4943C18.1032 12.3258 18.1142 12.1573 18.2024 11.9662L18.2134 11.9775C18.1252 12.1685 18.1252 12.337 18.1142 12.5056C18.1032 12.6741 18.1032 12.8314 18.015 13C17.8937 13.2359 17.9158 13.4494 17.9268 13.6067C17.9268 13.6629 17.9378 13.7078 17.9378 13.7528C17.9268 13.8427 17.8827 13.8988 17.8496 13.9325C17.8276 13.955 17.8165 13.9662 17.8276 13.9775C17.9047 13.9662 17.9819 13.8988 18.026 13.7415C18.037 13.6741 18.037 13.6179 18.037 13.5505C18.026 13.4269 18.026 13.2809 18.1583 13.0112C18.2575 12.8089 18.2686 12.6629 18.2796 12.528C18.2906 12.382 18.3016 12.2471 18.4009 12.0674C18.3127 12.2584 18.3016 12.3932 18.2906 12.528C18.2796 12.6629 18.2686 12.8202 18.1693 13.0224C18.037 13.2921 18.037 13.4269 18.0481 13.5505C18.0481 13.6179 18.0481 13.6741 18.037 13.7415C18.037 13.8764 17.9488 13.9662 17.8827 13.9775Z" fill="#7A361D"/>
<path d="M18.2684 12.0562C18.1361 12.4382 18.2684 12.6854 18.092 13C18.2905 12.7753 18.1582 12.4719 18.3236 12.0899L18.2684 12.0562Z" fill="#7A361D"/>
<path d="M18.6433 11L18.5331 7.99997C18.5331 7.99997 18.5331 7.94379 18.5 7.94379C18.4669 7.94379 18.4669 7.99997 18.4669 7.99997L18.3567 11H18.6433Z" fill="#F1BD51"/>
<path d="M18.6434 11L18.5332 7.99997C18.5332 7.99997 18.5332 7.95503 18.5111 7.95503C18.478 7.95503 18.478 7.99997 18.478 7.99997L18.3678 11L18.456 7.99997C18.456 7.9775 18.467 7.93256 18.5001 7.93256C18.5332 7.93256 18.5442 7.9775 18.5442 7.99997L18.6544 11H18.6434Z" fill="#7A361D"/>
<path d="M18.5772 11L18.5 8.94379L18.4229 11H18.5772Z" fill="#7A361D"/>
<path d="M18.7758 10.0224C18.9411 9.65164 18.7978 9.33704 18.9632 9.0112C19.1396 8.68535 19.0293 8.40445 19.0404 8.25839C19.0514 8.11232 19.1727 8.06738 19.1396 8.03367C19.1065 7.99996 18.9852 8.06738 18.9301 8.26962C18.886 8.47187 19.0073 8.58423 18.8088 8.98872C18.6104 9.39322 18.7647 9.57299 18.5663 9.93254L18.7758 10.0224Z" fill="#F1BD51"/>
<path d="M18.7867 10.0337L18.7757 10.0225C18.8529 9.83144 18.8639 9.66291 18.8749 9.5056C18.8749 9.33706 18.8859 9.17976 18.9741 9.01122C19.0954 8.77527 19.0734 8.57302 19.0513 8.41571C19.0513 8.35953 19.0403 8.30335 19.0513 8.26965C19.0513 8.17976 19.1064 8.12358 19.1285 8.08987C19.1505 8.0674 19.1616 8.05616 19.1505 8.04493C19.0844 8.04493 18.9962 8.12358 18.9631 8.28088C18.9411 8.3483 18.9521 8.40448 18.9521 8.47189C18.9521 8.59549 18.9631 8.74156 18.8308 9.01122C18.7316 9.21347 18.7206 9.35953 18.7095 9.49437C18.6985 9.64043 18.6875 9.77526 18.5883 9.95504C18.6765 9.76403 18.6875 9.6292 18.6875 9.49437C18.6985 9.3483 18.7095 9.21347 18.8088 8.99998C18.9411 8.74156 18.9411 8.59549 18.93 8.47189C18.93 8.41571 18.93 8.3483 18.9411 8.28088C18.9852 8.12358 19.0734 8.04493 19.1175 8.03369L19.1616 8.04493C19.1836 8.0674 19.1616 8.08987 19.1395 8.11234C19.1175 8.14605 19.0623 8.19099 19.0623 8.28088C19.0623 8.32583 19.0623 8.37077 19.0734 8.42695C19.0844 8.58425 19.1175 8.79774 18.9852 9.03369C18.897 9.191 18.897 9.35953 18.8859 9.51684C18.8749 9.67414 18.8749 9.84268 18.7867 10.0337Z" fill="#7A361D"/>
<path d="M18.7316 9.93253C18.8639 9.56174 18.7205 9.30331 18.908 8.98871C18.7095 9.21343 18.8418 9.50556 18.6654 9.89882L18.7316 9.93253Z" fill="#7A361D"/>
<path d="M18.5 10.8427L15.5563 10.955C15.5563 10.955 15.5012 10.955 15.5012 10.9887C15.5012 11.0337 15.5563 11.0337 15.5563 11.0337L18.5 11.146V10.8427Z" fill="#F1BD51"/>
<path d="M18.5001 11.1348L15.5564 11.0337C15.5343 11.0337 15.4902 11.0224 15.4902 10.9887C15.4902 10.955 15.5343 10.9438 15.5564 10.9438L18.5001 10.8314V10.8539L15.5564 10.9663C15.5564 10.9663 15.5123 10.9663 15.5123 10.9887C15.5123 11.0224 15.5564 11.0224 15.5564 11.0224L18.5001 11.1348Z" fill="#7A361D"/>
<path d="M18.5001 10.9213L16.4825 11L18.5001 11.0674V10.9213Z" fill="#7A361D"/>
<path d="M17.552 10.7191C17.1881 10.5505 16.8794 10.6966 16.5597 10.5168C16.229 10.3483 15.9644 10.4494 15.821 10.4382C15.6777 10.4269 15.6336 10.3033 15.6005 10.337C15.5675 10.3708 15.6336 10.4943 15.8321 10.5505C16.0305 10.6067 16.1408 10.4831 16.5377 10.6854C16.9346 10.8988 17.111 10.7303 17.4748 10.9325L17.552 10.7191Z" fill="#F1BD51"/>
<path d="M17.4636 10.9213C17.2762 10.8315 17.1439 10.8202 17.0116 10.809C16.8683 10.7978 16.725 10.7865 16.5265 10.6854C16.2729 10.5506 16.1296 10.5506 16.0083 10.5618C15.9422 10.5618 15.8871 10.5618 15.8209 10.5506C15.6776 10.5169 15.5894 10.427 15.5784 10.3708V10.3595L15.5894 10.3146C15.6114 10.2921 15.6335 10.3146 15.6555 10.3371C15.6886 10.3708 15.7327 10.4157 15.8209 10.4157C15.854 10.4157 15.9091 10.4157 15.9642 10.4045C16.1186 10.3933 16.3281 10.3595 16.5706 10.4944C16.736 10.5843 16.8793 10.5843 17.0447 10.5955C17.2101 10.5955 17.3754 10.6067 17.5629 10.6966V10.7191C17.3754 10.6292 17.2101 10.6292 17.0557 10.618C16.8903 10.6067 16.736 10.6067 16.5706 10.5169C16.3391 10.3933 16.1296 10.4157 15.9863 10.4382C15.9312 10.4494 15.876 10.4494 15.843 10.4494C15.7548 10.4382 15.6996 10.3933 15.6666 10.3595C15.6445 10.3371 15.6335 10.3371 15.6225 10.3371C15.6335 10.4157 15.6996 10.4944 15.854 10.5281C15.9201 10.5393 15.9753 10.5393 16.0414 10.5393C16.1627 10.5393 16.306 10.5281 16.5596 10.6629C16.758 10.764 16.9014 10.7753 17.0337 10.7865C17.1439 10.809 17.2872 10.8202 17.4636 10.9213Z" fill="#7A361D"/>
<path d="M17.4526 10.764C17.0888 10.6292 16.8462 10.7752 16.5265 10.5955C16.747 10.7977 17.0447 10.6629 17.4195 10.8427L17.4526 10.764Z" fill="#7A361D"/>
<path d="M18.5001 11.146L21.4438 11.0337C21.4438 11.0337 21.4989 11.0337 21.4989 10.9887C21.4989 10.955 21.4438 10.955 21.4438 10.955L18.5001 10.8427V11.146Z" fill="#F1BD51"/>
<path d="M18.5001 11.1573V11.1348L21.4438 11.0224C21.4438 11.0224 21.4879 11.0224 21.4879 10.9887C21.4879 10.9662 21.4438 10.9662 21.4438 10.9662L18.5001 10.8539L21.4438 10.9438C21.4659 10.9438 21.4989 10.955 21.4989 10.9887C21.4989 11.0337 21.4548 11.0337 21.4438 11.0337L18.5001 11.1573Z" fill="#7A361D"/>
<path d="M18.5001 11.0674L20.5177 11L18.5001 10.9213V11.0674Z" fill="#7A361D"/>
<path d="M19.4482 11.2809C19.8231 11.4494 20.1208 11.3033 20.4515 11.4831C20.7712 11.6517 21.0358 11.5505 21.1902 11.5618C21.3335 11.573 21.3776 11.6966 21.4107 11.6629C21.4438 11.6292 21.3776 11.5056 21.1792 11.4494C20.9807 11.4045 20.8705 11.5168 20.4736 11.3146C20.0767 11.1123 19.8892 11.2696 19.5475 11.0674L19.4482 11.2809Z" fill="#F1BD51"/>
<path d="M21.3997 11.6741C21.3886 11.6741 21.3666 11.6629 21.3556 11.6404C21.3225 11.6067 21.2784 11.5618 21.1902 11.5618C21.1461 11.5618 21.102 11.5618 21.0469 11.573C20.8925 11.5842 20.683 11.6067 20.4515 11.4831C20.2861 11.3932 20.1318 11.3932 19.9664 11.382C19.801 11.382 19.6357 11.3707 19.4482 11.2809L19.4593 11.2696C19.6467 11.3595 19.801 11.3595 19.9664 11.3707C20.1318 11.382 20.2861 11.382 20.4515 11.4719C20.683 11.5955 20.8815 11.573 21.0358 11.5618C21.091 11.5618 21.1461 11.5505 21.1792 11.5505C21.2674 11.5618 21.3225 11.6067 21.3556 11.6292C21.3886 11.6516 21.3886 11.6516 21.3997 11.6516C21.3997 11.5842 21.3225 11.4943 21.1792 11.4606C21.113 11.4382 21.0579 11.4494 20.9917 11.4494C20.8705 11.4606 20.7271 11.4606 20.4625 11.3258C20.2641 11.2247 20.1208 11.2134 19.9885 11.2022C19.8451 11.191 19.7128 11.1797 19.5364 11.0786C19.7239 11.1685 19.8562 11.1797 19.9885 11.191C20.1208 11.2022 20.2641 11.2134 20.4736 11.3146C20.7271 11.4494 20.8705 11.4382 20.9917 11.4382C21.0469 11.4382 21.113 11.4382 21.1792 11.4494C21.3335 11.4943 21.4107 11.5842 21.4217 11.6292L21.4107 11.6741C21.4107 11.6741 21.4107 11.6741 21.3997 11.6741Z" fill="#7A361D"/>
<path d="M19.5475 11.2359C19.9223 11.3708 20.1649 11.2359 20.4736 11.4045C20.2531 11.2022 19.9554 11.3371 19.5806 11.1685L19.5475 11.2359Z" fill="#7A361D"/>
<path d="M18.4008 10.8876L16.3942 13.0899C16.3942 13.0899 16.3611 13.1348 16.3832 13.1573C16.4052 13.1798 16.4493 13.1461 16.4493 13.1461L18.6102 11.1011L18.4008 10.8876Z" fill="#F1BD51"/>
<path d="M16.4053 13.1798C16.3502 13.1461 16.3722 13.1011 16.3943 13.0899L18.4009 10.8876L18.4119 10.8989L16.4053 13.1011C16.4053 13.1011 16.3722 13.1348 16.3943 13.1573C16.4163 13.1798 16.4494 13.1461 16.4494 13.1461L18.6103 11.1124L16.4605 13.1685C16.4494 13.1461 16.4274 13.1798 16.4053 13.1798Z" fill="#7A361D"/>
<path d="M18.4449 10.9438L17.0778 12.4494L18.5551 11.0449L18.4449 10.9438Z" fill="#7A361D"/>
<path d="M17.6291 11.4831C17.2432 11.6292 17.1329 11.955 16.7912 12.0561C16.4384 12.1685 16.3281 12.4381 16.2179 12.5393C16.1076 12.6404 15.9863 12.5842 15.9863 12.6292C15.9863 12.6741 16.1186 12.719 16.295 12.6067C16.4604 12.5056 16.4604 12.337 16.8904 12.191C17.3204 12.0561 17.3314 11.8089 17.7283 11.6966L17.6291 11.4831Z" fill="#F1BD51"/>
<path d="M16.0856 12.6853C16.0525 12.6853 16.0194 12.6741 15.9974 12.6629L15.9753 12.6292C15.9753 12.5955 16.0084 12.5955 16.0305 12.5955C16.0746 12.5955 16.1407 12.5842 16.2069 12.528C16.2399 12.5056 16.262 12.4606 16.2951 12.4157C16.3943 12.2921 16.5266 12.1235 16.7802 12.0449C16.9566 11.9887 17.0668 11.8876 17.1881 11.7752C17.3094 11.6629 17.4306 11.5393 17.6291 11.4719L17.6401 11.4943C17.4527 11.5617 17.3314 11.6853 17.2101 11.7977C17.0889 11.9101 16.9786 12.0224 16.8022 12.0786C16.5486 12.1573 16.4163 12.3258 16.3281 12.4494C16.2951 12.4943 16.262 12.528 16.2289 12.5618C16.1628 12.6179 16.0966 12.6292 16.0415 12.6292C16.0084 12.6292 15.9974 12.6292 15.9974 12.6404C16.0525 12.6853 16.1628 12.6966 16.2951 12.6179C16.3502 12.5842 16.3943 12.5393 16.4384 12.4943C16.5156 12.4044 16.6148 12.3033 16.9014 12.2022C17.1109 12.1348 17.2212 12.0337 17.3204 11.9438C17.4306 11.8539 17.5299 11.764 17.7393 11.7078C17.5409 11.7752 17.4417 11.8651 17.3424 11.955C17.2432 12.0449 17.133 12.146 16.9125 12.2134C16.6368 12.3033 16.5486 12.4044 16.4604 12.4943C16.4163 12.5393 16.3833 12.5842 16.3171 12.6179C16.2179 12.6629 16.1407 12.6853 16.0856 12.6853Z" fill="#7A361D"/>
<path d="M17.5961 11.5842C17.2433 11.7528 17.1661 12.0337 16.8243 12.1348C17.122 12.1123 17.2323 11.8089 17.6181 11.6629L17.5961 11.5842Z" fill="#7A361D"/>
<path d="M18.6104 11.1011L20.6169 8.89887C20.6169 8.89887 20.661 8.85393 20.6279 8.83146C20.5949 8.80898 20.5618 8.84269 20.5618 8.84269L18.4009 10.8876L18.6104 11.1011Z" fill="#F1BD51"/>
<path d="M18.6104 11.1124L20.6059 8.89887C20.6059 8.89887 20.639 8.86516 20.6169 8.84269C20.5949 8.82022 20.5618 8.85393 20.5618 8.85393L18.4009 10.8989L20.5508 8.84269C20.5618 8.83145 20.6059 8.80898 20.6279 8.83145C20.65 8.85393 20.6279 8.89887 20.6169 8.9101L18.6104 11.1124Z" fill="#7A361D"/>
<path d="M18.5551 11.0449L19.9332 9.53931L18.4448 10.9438L18.5551 11.0449Z" fill="#7A361D"/>
<path d="M19.371 10.5168C19.7459 10.3707 19.8672 10.0449 20.2089 9.94377C20.5507 9.83141 20.672 9.56175 20.7822 9.46063C20.8925 9.3595 21.0138 9.41568 21.0138 9.37074C21.0138 9.3258 20.8815 9.28085 20.7051 9.39321C20.5287 9.49434 20.5287 9.66287 20.1097 9.80894C19.6908 9.94377 19.6687 10.191 19.2828 10.3033L19.371 10.5168Z" fill="#F1BD51"/>
<path d="M19.371 10.5168V10.5056C19.5584 10.4382 19.6797 10.3146 19.801 10.2022C19.9222 10.0899 20.0325 9.9775 20.2199 9.92132C20.4625 9.84267 20.5948 9.67413 20.694 9.56177C20.7271 9.51683 20.7602 9.47188 20.7932 9.44941C20.8594 9.39323 20.9255 9.382 20.9696 9.382C21.0027 9.382 21.0137 9.382 21.0137 9.37076C20.9476 9.32582 20.8373 9.31458 20.7161 9.39323C20.6609 9.42694 20.6168 9.47189 20.5837 9.51683C20.4955 9.60672 20.4073 9.70784 20.1207 9.80896C19.9112 9.87638 19.801 9.96627 19.7017 10.0562C19.5915 10.146 19.4923 10.2359 19.2938 10.2921C19.4812 10.2247 19.5915 10.1348 19.6907 10.0337C19.7899 9.9438 19.9112 9.85391 20.1207 9.77526C20.3963 9.68537 20.4845 9.58424 20.5617 9.49436C20.6058 9.44941 20.6499 9.40447 20.705 9.37076C20.8263 9.30335 20.9476 9.30335 21.0027 9.32582L21.0247 9.37076C21.0247 9.39323 20.9917 9.40447 20.9586 9.40447C20.9145 9.40447 20.8484 9.40447 20.7932 9.46065C20.7602 9.48312 20.7381 9.52807 20.694 9.57301C20.5948 9.6966 20.4625 9.86514 20.2089 9.9438C20.0325 9.99998 19.9222 10.1123 19.801 10.2247C19.6907 10.3258 19.5584 10.4494 19.371 10.5168Z" fill="#7A361D"/>
<path d="M19.4041 10.4044C19.7569 10.2359 19.8341 9.955 20.1759 9.86511C19.8782 9.88758 19.768 10.191 19.3821 10.337L19.4041 10.4044Z" fill="#7A361D"/>
<path d="M18.6102 10.8876L16.4493 8.84269C16.4493 8.84269 16.4052 8.80898 16.3832 8.83146C16.3611 8.85393 16.3942 8.89887 16.3942 8.89887L18.4008 11.1011L18.6102 10.8876Z" fill="#F1BD51"/>
<path d="M18.4007 11.1011L16.3831 8.91011C16.3721 8.89887 16.3501 8.85393 16.3721 8.83145C16.3942 8.80898 16.4272 8.83145 16.4493 8.84269L18.6102 10.8876L18.5992 10.8989L16.4383 8.85393C16.4383 8.85393 16.4052 8.82022 16.3831 8.84269C16.3611 8.86516 16.3942 8.89887 16.3942 8.89887L18.4007 11.1011Z" fill="#7A361D"/>
<path d="M18.5551 10.9438L17.0778 9.53931L18.4449 11.0449L18.5551 10.9438Z" fill="#7A361D"/>
<path d="M18.026 10.1123C17.8937 9.71907 17.5739 9.60671 17.4637 9.2584C17.3534 8.89885 17.0999 8.78649 17.0006 8.67413C16.9014 8.56177 16.9565 8.43817 16.9124 8.43817C16.8683 8.43817 16.8243 8.573 16.9235 8.75278C17.0337 8.93255 17.1991 8.92132 17.3314 9.35952C17.4637 9.78649 17.7062 9.80896 17.8165 10.2022L18.026 10.1123Z" fill="#F1BD51"/>
<path d="M17.8166 10.2022C17.7394 10.0112 17.6622 9.91009 17.574 9.79773C17.4858 9.69661 17.3866 9.57301 17.3204 9.35953C17.2322 9.07863 17.133 8.97751 17.0448 8.89886C17.0007 8.85391 16.9566 8.82021 16.9125 8.75279C16.8353 8.60672 16.8353 8.49436 16.8684 8.44942L16.9125 8.41571C16.9346 8.41571 16.9456 8.44942 16.9456 8.48313C16.9456 8.52807 16.9566 8.59549 17.0007 8.6629C17.0228 8.69661 17.0669 8.73032 17.111 8.76403C17.2322 8.86515 17.3866 8.98874 17.4748 9.25841C17.5299 9.43818 17.6291 9.55054 17.7504 9.67414C17.8607 9.79773 17.9709 9.92133 18.0481 10.1123H18.015C17.9489 9.92133 17.8276 9.79773 17.7173 9.67414C17.6071 9.55054 17.4968 9.43818 17.4417 9.24717C17.3645 8.98874 17.1992 8.86515 17.0889 8.76403C17.0448 8.73032 17.0007 8.69661 16.9787 8.6629C16.9235 8.59549 16.9235 8.52807 16.9125 8.47189C16.9125 8.43818 16.9125 8.42695 16.9015 8.42695C16.8574 8.48313 16.8464 8.59549 16.9235 8.73032C16.9566 8.7865 17.0007 8.83144 17.0448 8.86515C17.133 8.95504 17.2322 9.04493 17.3315 9.33706C17.3976 9.55054 17.4858 9.6629 17.574 9.76403C17.6732 9.88762 17.7614 9.98875 17.8166 10.2022Z" fill="#7A361D"/>
<path d="M17.9266 10.0786C17.7502 9.71908 17.4856 9.64043 17.3864 9.29211C17.4084 9.59548 17.7061 9.70784 17.8494 10.1123L17.9266 10.0786Z" fill="#7A361D"/>
<path d="M18.4009 11.1011L20.5618 13.1461C20.5618 13.1461 20.6059 13.191 20.6279 13.1573C20.65 13.1348 20.6169 13.0899 20.6169 13.0899L18.6104 10.8876L18.4009 11.1011Z" fill="#F1BD51"/>
<path d="M20.5948 13.1685C20.5617 13.1685 20.5507 13.1573 20.5507 13.1573L18.3898 11.1236L18.4008 11.1123L20.5617 13.1461C20.5617 13.1461 20.5948 13.1798 20.6168 13.1573C20.6389 13.1348 20.6058 13.1011 20.6058 13.1011L18.5992 10.8989L20.6168 13.0899C20.6389 13.1123 20.6499 13.1461 20.6279 13.1685C20.6168 13.1685 20.6168 13.1685 20.5948 13.1685Z" fill="#7A361D"/>
<path d="M18.4448 11.0449L19.9332 12.4494L18.5551 10.9438L18.4448 11.0449Z" fill="#7A361D"/>
<path d="M18.9742 11.8876C19.1176 12.2696 19.4373 12.382 19.5475 12.7415C19.6578 13.1011 19.9224 13.2135 20.0106 13.3258C20.1098 13.4382 20.0547 13.5618 20.0988 13.5618C20.1429 13.5618 20.187 13.4269 20.0767 13.2472C19.9775 13.0674 19.8121 13.0674 19.6688 12.6404C19.5255 12.2022 19.2829 12.191 19.1837 11.7977L18.9742 11.8876Z" fill="#F1BD51"/>
<path d="M20.0986 13.573C20.0655 13.573 20.0655 13.5393 20.0655 13.5056C20.0655 13.4607 20.0545 13.3932 20.0104 13.3258C19.9773 13.2921 19.9442 13.2696 19.9001 13.2247C19.7789 13.1236 19.6135 13 19.5363 12.7303C19.4812 12.5505 19.382 12.4382 19.2607 12.3146C19.1504 12.191 19.0402 12.0674 18.963 11.8764L18.9851 11.8652C19.0622 12.0562 19.1725 12.1798 19.2827 12.3034C19.393 12.4269 19.5032 12.5393 19.5584 12.7303C19.6355 12.9887 19.8009 13.1123 19.9112 13.2135C19.9553 13.2472 19.9994 13.2809 20.0214 13.3146C20.0765 13.382 20.0876 13.4494 20.0876 13.4944C20.0876 13.5281 20.0986 13.5393 20.1096 13.5393C20.1537 13.4831 20.1647 13.3708 20.0876 13.2359C20.0545 13.1798 20.0104 13.1348 19.9663 13.0899C19.8781 13.0112 19.7789 12.9101 19.6796 12.6292C19.6135 12.4157 19.5253 12.3034 19.4261 12.2022C19.3379 12.0899 19.2497 11.9887 19.1945 11.7865C19.2607 11.9775 19.3489 12.0786 19.4371 12.191C19.5253 12.2921 19.6245 12.4045 19.6907 12.6292C19.7789 12.9101 19.8781 13 19.9663 13.0899C20.0104 13.1348 20.0545 13.1685 20.0876 13.2359C20.1647 13.3708 20.1647 13.4831 20.1317 13.5393L20.0986 13.573Z" fill="#7A361D"/>
<path d="M19.0734 11.9213C19.2387 12.2809 19.5144 12.3595 19.6136 12.7079C19.5915 12.4045 19.2939 12.2921 19.1505 11.8989L19.0734 11.9213Z" fill="#7A361D"/>
<path d="M18.3679 10.9438L17.3425 13.764C17.3425 13.764 17.3205 13.8202 17.3536 13.8314C17.3866 13.8427 17.4087 13.7977 17.4087 13.7977L18.6325 11.0674L18.3679 10.9438Z" fill="#F1BD51"/>
<path d="M17.3755 13.8314C17.3204 13.8202 17.3204 13.7752 17.3314 13.7528L18.3568 10.9438L18.3788 10.955L17.3535 13.764C17.3535 13.764 17.3425 13.809 17.3645 13.8202L17.4086 13.7865L18.6324 11.0561L17.4196 13.7977C17.4196 13.7865 17.4086 13.8202 17.3755 13.8314Z" fill="#7A361D"/>
<path d="M18.4339 10.9662L17.7283 12.8988L18.5662 11.0224L18.4339 10.9662Z" fill="#7A361D"/>
<path d="M17.8826 11.7865C17.5849 12.0674 17.607 12.4045 17.3203 12.6517C17.0447 12.8876 17.0337 13.1798 16.9675 13.3146C16.9014 13.4494 16.7691 13.4382 16.7911 13.4831C16.8022 13.5281 16.9455 13.5168 17.0668 13.3483C17.188 13.1798 17.1219 13.0225 17.4637 12.7303C17.8054 12.4382 17.7172 12.2022 18.048 11.955L17.8826 11.7865Z" fill="#F1BD51"/>
<path d="M16.8353 13.5168C16.8242 13.5168 16.8242 13.5168 16.8242 13.5168L16.7801 13.4831C16.7691 13.4607 16.8022 13.4382 16.8242 13.427C16.8683 13.4045 16.9235 13.382 16.9565 13.3034C16.9786 13.2697 16.9896 13.2135 17.0006 13.1573C17.0447 13.0112 17.0999 12.809 17.3093 12.6292C17.4416 12.5056 17.5078 12.3708 17.585 12.2135C17.6511 12.0674 17.7173 11.9101 17.8716 11.764L17.8826 11.7753C17.7393 11.9101 17.6621 12.0674 17.596 12.2135C17.5298 12.3708 17.4637 12.5168 17.3204 12.6292C17.1219 12.7977 17.0668 13 17.0227 13.1461C17.0117 13.2022 16.9896 13.2472 16.9786 13.2921C16.9345 13.3708 16.8794 13.4045 16.8353 13.427C16.8022 13.4382 16.7912 13.4494 16.8022 13.4607C16.8683 13.4831 16.9676 13.4494 17.0668 13.3258C17.1109 13.2697 17.1219 13.2135 17.144 13.1573C17.1881 13.0337 17.2322 12.9101 17.4637 12.7079C17.6291 12.5618 17.6952 12.4382 17.7614 12.3034C17.8275 12.1798 17.8826 12.0562 18.048 11.9213C17.8937 12.0562 17.8385 12.1798 17.7724 12.3034C17.7062 12.427 17.6401 12.5618 17.4747 12.7079C17.2542 12.8989 17.2101 13.0337 17.166 13.1461C17.144 13.2022 17.1219 13.2584 17.0888 13.3146C16.9896 13.4607 16.8904 13.5168 16.8353 13.5168Z" fill="#7A361D"/>
<path d="M17.8935 11.8876C17.6289 12.1798 17.662 12.4607 17.3864 12.6966C17.651 12.5618 17.6399 12.2359 17.9486 11.9551L17.8935 11.8876Z" fill="#7A361D"/>
<path d="M18.6325 11.0561L19.6578 8.24714C19.6578 8.24714 19.6799 8.20219 19.6358 8.17972C19.6027 8.16848 19.5806 8.21343 19.5806 8.21343L18.3458 10.9438L18.6325 11.0561Z" fill="#F1BD51"/>
<path d="M18.6434 11.0562H18.6214L19.6467 8.24716C19.6467 8.24716 19.6688 8.20222 19.6467 8.19098L19.6026 8.22469L18.3678 10.955L19.5806 8.22469C19.5806 8.22469 19.6026 8.19098 19.6247 8.17975L19.6798 8.20222C19.6908 8.22469 19.6798 8.2584 19.6798 8.2584L18.6434 11.0562Z" fill="#7A361D"/>
<path d="M18.5663 11.0224L19.2719 9.08984L18.434 10.9662L18.5663 11.0224Z" fill="#7A361D"/>
<path d="M19.1284 10.2135C19.4261 9.93258 19.404 9.58427 19.6907 9.34831C19.9663 9.11236 19.9773 8.82022 20.0324 8.68539C20.1096 8.55056 20.2309 8.5618 20.2199 8.51685C20.1978 8.47191 20.0655 8.48314 19.9442 8.65168C19.823 8.82022 19.8891 8.97753 19.5473 9.26966C19.2056 9.5618 19.2827 9.79775 18.963 10.0449L19.1284 10.2135Z" fill="#F1BD51"/>
<path d="M19.1284 10.2135L19.1174 10.2022C19.2607 10.0674 19.3379 9.91008 19.404 9.75278C19.4702 9.59547 19.5363 9.46064 19.6796 9.33705C19.8891 9.16851 19.9442 8.96626 19.9883 8.82019C20.0104 8.76401 20.0214 8.71907 20.0324 8.67413C20.0765 8.59547 20.1427 8.56177 20.1758 8.53929C20.1978 8.52806 20.2199 8.51682 20.2199 8.50559C20.1427 8.48311 20.0435 8.51682 19.9553 8.64042C19.9112 8.6966 19.9001 8.75278 19.8671 8.80896C19.823 8.93255 19.7789 9.06738 19.5473 9.25839C19.382 9.40446 19.3158 9.52806 19.2497 9.65165C19.1835 9.77525 19.1284 9.89884 18.963 10.0337C19.1063 9.89884 19.1725 9.77525 19.2386 9.65165C19.2938 9.52806 19.3709 9.39323 19.5363 9.24716C19.7568 9.05615 19.8009 8.92132 19.845 8.80896C19.8671 8.75278 19.8891 8.6966 19.9332 8.62918C20.0214 8.50559 20.1206 8.46064 20.1868 8.47188L20.2309 8.49435C20.2419 8.51682 20.2199 8.52806 20.1868 8.55053C20.1427 8.573 20.0876 8.59547 20.0545 8.67413C20.0324 8.70783 20.0214 8.75278 20.0104 8.80896C19.9663 8.95502 19.9112 9.16851 19.7017 9.33705C19.5584 9.44941 19.5032 9.59547 19.4261 9.75278C19.3489 9.92132 19.2827 10.0786 19.1284 10.2135Z" fill="#7A361D"/>
<path d="M19.1175 10.1011C19.3821 9.80897 19.349 9.51683 19.6247 9.29211C19.3601 9.42695 19.3601 9.75279 19.0624 10.0449L19.1175 10.1011Z" fill="#7A361D"/>
<path d="M18.5553 10.8539L15.799 9.80897C15.799 9.80897 15.7549 9.7865 15.7328 9.82021C15.7218 9.86515 15.7659 9.88763 15.7659 9.88763L18.445 11.1348L18.5553 10.8539Z" fill="#F1BD51"/>
<path d="M18.4449 11.1236L15.7658 9.88762C15.7437 9.87638 15.7106 9.85391 15.7217 9.8202C15.7437 9.78649 15.7768 9.79773 15.7988 9.80897L18.5551 10.8539V10.8764L15.7988 9.83144C15.7988 9.83144 15.7547 9.80897 15.7437 9.84267C15.7327 9.86515 15.7768 9.88762 15.7768 9.88762L18.4449 11.1236Z" fill="#7A361D"/>
<path d="M18.5221 10.9325L16.6368 10.2022L18.467 11.0674L18.5221 10.9325Z" fill="#7A361D"/>
<path d="M17.7284 10.3595C17.4528 10.0562 17.1221 10.0786 16.8795 9.78651C16.648 9.50561 16.3613 9.49438 16.229 9.42696C16.0967 9.35955 16.1078 9.22471 16.0637 9.24719C16.0196 9.25842 16.0306 9.40449 16.196 9.52809C16.3503 9.65168 16.5047 9.58427 16.7913 9.93258C17.078 10.2809 17.3095 10.2022 17.5631 10.5281L17.7284 10.3595Z" fill="#F1BD51"/>
<path d="M17.5739 10.5281C17.4306 10.3708 17.3204 10.3146 17.1881 10.2472C17.0558 10.1798 16.9345 10.1124 16.7912 9.94382C16.6037 9.7191 16.4714 9.67415 16.3612 9.62921C16.3061 9.60674 16.2509 9.58426 16.1848 9.53932C16.0635 9.44943 16.0194 9.33707 16.0304 9.28089L16.0635 9.24719C16.0856 9.23595 16.1076 9.25842 16.1186 9.29213C16.1407 9.33707 16.1627 9.39325 16.2399 9.42696C16.273 9.44943 16.3171 9.46067 16.3722 9.47191C16.5155 9.51685 16.725 9.57303 16.8904 9.78651C17.0117 9.92134 17.144 9.98876 17.2983 10.0674C17.4527 10.1348 17.607 10.2022 17.7393 10.3595L17.7283 10.3708C17.596 10.2247 17.4416 10.1461 17.2983 10.0786C17.144 10.0112 17.0006 9.94382 16.8794 9.79775C16.714 9.58426 16.5155 9.52808 16.3722 9.49438C16.3171 9.48314 16.273 9.46067 16.2399 9.44943C16.1627 9.40449 16.1297 9.34831 16.1076 9.30337C16.0966 9.26966 16.0856 9.25842 16.0745 9.26966C16.0525 9.33707 16.0856 9.44943 16.2179 9.53932C16.273 9.58426 16.3281 9.5955 16.3832 9.61797C16.5045 9.66292 16.6258 9.70786 16.8242 9.94382C16.9676 10.1124 17.0888 10.1798 17.2211 10.2472C17.3204 10.3034 17.4416 10.3595 17.5739 10.5281Z" fill="#7A361D"/>
<path d="M17.6291 10.3707C17.3425 10.1011 17.0558 10.1348 16.8353 9.85388C16.9676 10.1235 17.2874 10.1123 17.574 10.4269L17.6291 10.3707Z" fill="#7A361D"/>
<path d="M18.4448 11.1348L21.2011 12.1797C21.2011 12.1797 21.2452 12.2022 21.2672 12.1685C21.2783 12.1348 21.2342 12.1123 21.2342 12.1123L18.5551 10.8651L18.4448 11.1348Z" fill="#F1BD51"/>
<path d="M21.2342 12.191C21.2231 12.191 21.2121 12.191 21.2011 12.1797L18.4448 11.1348L18.4558 11.1235L21.2231 12.1685C21.2231 12.1685 21.2672 12.1797 21.2783 12.1572C21.2893 12.1348 21.2452 12.1123 21.2452 12.1123L18.5661 10.8651L21.2562 12.1011C21.2783 12.1123 21.3113 12.1348 21.3003 12.1685C21.2672 12.191 21.2562 12.191 21.2342 12.191Z" fill="#7A361D"/>
<path d="M18.4668 11.0674L20.3631 11.7865L18.5219 10.9326L18.4668 11.0674Z" fill="#7A361D"/>
<path d="M19.2719 11.6292C19.5475 11.9325 19.8893 11.9101 20.1208 12.2022C20.3523 12.4831 20.639 12.4943 20.7713 12.5618C20.9036 12.6292 20.8925 12.764 20.9477 12.7415C20.9918 12.7303 20.9697 12.5842 20.8153 12.4606C20.65 12.337 20.5067 12.4045 20.22 12.0561C19.9223 11.7078 19.7018 11.7865 19.4483 11.4606L19.2719 11.6292Z" fill="#F1BD51"/>
<path d="M20.9367 12.7528C20.9146 12.7528 20.9036 12.7303 20.8926 12.7078C20.8705 12.6629 20.8485 12.6067 20.7713 12.573C20.7382 12.5505 20.6831 12.5393 20.628 12.528C20.4846 12.4831 20.2752 12.4269 20.1098 12.2134C19.9995 12.0786 19.8452 12.0112 19.7019 11.9325C19.5585 11.8651 19.3932 11.7865 19.2609 11.6404L19.2719 11.6292C19.4042 11.7752 19.5585 11.8539 19.7129 11.9213C19.8672 11.9887 19.9995 12.0561 20.1208 12.2022C20.2862 12.4157 20.4846 12.4719 20.628 12.5056C20.6831 12.5168 20.7272 12.5393 20.7603 12.5505C20.8374 12.5955 20.8705 12.6516 20.8926 12.6966C20.9036 12.7303 20.9146 12.7415 20.9256 12.7303C20.9477 12.6629 20.9146 12.5505 20.7933 12.4606C20.7382 12.4157 20.6831 12.4045 20.628 12.382C20.5177 12.337 20.3854 12.2921 20.187 12.0561C20.0547 11.8876 19.9224 11.8202 19.7901 11.7528C19.6688 11.6854 19.5475 11.6292 19.4262 11.4606C19.5585 11.6179 19.6798 11.6741 19.8011 11.7415C19.9224 11.8089 20.0547 11.8764 20.198 12.0449C20.3854 12.2696 20.5177 12.3146 20.628 12.3595C20.6831 12.382 20.7382 12.4045 20.7933 12.4494C20.9256 12.5505 20.9587 12.6629 20.9477 12.7078L20.9367 12.7528C20.9477 12.7528 20.9367 12.7528 20.9367 12.7528Z" fill="#7A361D"/>
<path d="M19.3821 11.6179C19.6687 11.8876 19.9444 11.8539 20.1649 12.1348C20.0326 11.8651 19.7128 11.8651 19.4372 11.5618L19.3821 11.6179Z" fill="#7A361D"/>
<path d="M18.445 10.8539L15.7659 12.1011C15.7659 12.1011 15.7108 12.1235 15.7218 12.1573C15.7328 12.191 15.7879 12.1685 15.7879 12.1685L18.5442 11.1235L18.445 10.8539Z" fill="#F1BD51"/>
<path d="M15.7658 12.191C15.7437 12.191 15.7327 12.1797 15.7217 12.1685C15.7106 12.1348 15.7437 12.1123 15.7658 12.1011L18.4449 10.8539L18.4559 10.8651L15.7768 12.1123C15.7768 12.1123 15.7327 12.1348 15.7437 12.1573C15.7547 12.1797 15.7988 12.1685 15.7988 12.1685L18.5551 11.1235L15.7988 12.1797C15.7878 12.191 15.7768 12.191 15.7658 12.191Z" fill="#7A361D"/>
<path d="M18.467 10.9326L16.6368 11.7865L18.5221 11.0674L18.467 10.9326Z" fill="#7A361D"/>
<path d="M17.5189 11.1011C17.1109 11.0898 16.8904 11.337 16.5266 11.3033C16.1628 11.2696 15.9643 11.4719 15.821 11.5168C15.6777 11.5618 15.5895 11.4606 15.5785 11.5056C15.5564 11.5505 15.6667 11.6404 15.8651 11.6067C16.0636 11.573 16.1297 11.4269 16.5707 11.4606C17.0117 11.4943 17.122 11.2809 17.5299 11.3258V11.1011H17.5189Z" fill="#F1BD51"/>
<path d="M15.7769 11.6404C15.6557 11.6404 15.5895 11.5955 15.5564 11.5618L15.5454 11.5168C15.5564 11.4943 15.5895 11.5056 15.6116 11.5168C15.6557 11.528 15.7108 11.5505 15.788 11.528C15.8321 11.5168 15.8762 11.4943 15.9203 11.4606C16.0526 11.382 16.24 11.2809 16.5046 11.3033C16.681 11.3258 16.8353 11.2696 16.9897 11.2022C17.144 11.146 17.2984 11.0898 17.5079 11.0898V11.1123C17.3094 11.1011 17.144 11.1685 17.0007 11.2134C16.8464 11.2696 16.703 11.3258 16.5156 11.3146C16.262 11.2921 16.0746 11.3932 15.9423 11.4719C15.8982 11.4943 15.8541 11.5168 15.81 11.5393C15.7218 11.5618 15.6557 11.5505 15.6226 11.528C15.5895 11.5168 15.5785 11.5168 15.5785 11.5168C15.6116 11.5842 15.7108 11.6292 15.8651 11.6067C15.9313 11.5955 15.9864 11.573 16.0415 11.5505C16.1518 11.4943 16.2731 11.4382 16.5707 11.4606C16.7912 11.4831 16.9235 11.4382 17.0558 11.3932C17.1881 11.3483 17.3204 11.3033 17.5189 11.337C17.3094 11.3258 17.1881 11.3707 17.0558 11.4157C16.9235 11.4606 16.7912 11.5056 16.5597 11.4831C16.2731 11.4606 16.1408 11.5168 16.0415 11.573C15.9864 11.5955 15.9313 11.6292 15.8651 11.6404C15.8321 11.6404 15.81 11.6404 15.7769 11.6404Z" fill="#7A361D"/>
<path d="M17.4526 11.191C17.0557 11.2135 16.8903 11.4382 16.5265 11.3932C16.8131 11.4943 17.0226 11.2584 17.4416 11.2696L17.4526 11.191Z" fill="#7A361D"/>
<path d="M18.5551 11.1348L21.2342 9.88762C21.2342 9.88762 21.2893 9.86515 21.2672 9.83144C21.2452 9.79773 21.2011 9.8202 21.2011 9.8202L18.4448 10.8651L18.5551 11.1348Z" fill="#F1BD51"/>
<path d="M18.5551 11.146V11.1236L21.2342 9.87637C21.2342 9.87637 21.2783 9.8539 21.2672 9.83143C21.2562 9.80896 21.2121 9.82019 21.2121 9.82019L18.4448 10.8651L21.2011 9.80896C21.2231 9.79772 21.2672 9.79772 21.2783 9.82019C21.2893 9.8539 21.2562 9.87637 21.2342 9.88761L18.5551 11.146Z" fill="#7A361D"/>
<path d="M18.5219 11.0674L20.3631 10.2022L18.4668 10.9325L18.5219 11.0674Z" fill="#7A361D"/>
<path d="M19.4924 10.8876C19.9004 10.8988 20.1209 10.6516 20.4847 10.6853C20.8485 10.719 21.058 10.5168 21.1903 10.4719C21.3336 10.4269 21.4218 10.528 21.4439 10.4831C21.4659 10.4381 21.3557 10.3483 21.1462 10.382C20.9477 10.4044 20.8816 10.5505 20.4406 10.5168C19.9996 10.4831 19.8893 10.6966 19.4924 10.6516V10.8876Z" fill="#F1BD51"/>
<path d="M19.5255 10.8988C19.5145 10.8988 19.5035 10.8988 19.4924 10.8988V10.8764C19.6909 10.8876 19.8452 10.8202 19.9996 10.764C20.1539 10.7078 20.3083 10.6516 20.4847 10.6629C20.7493 10.6853 20.9257 10.5842 21.058 10.5056C21.1021 10.4719 21.1462 10.4494 21.1903 10.4382C21.2785 10.4044 21.3336 10.4382 21.3887 10.4494C21.4218 10.4606 21.4328 10.4606 21.4328 10.4494C21.3998 10.382 21.3005 10.337 21.1572 10.3595C21.0911 10.3707 21.0359 10.3932 20.9808 10.4157C20.8595 10.4719 20.7383 10.528 20.4516 10.5056C20.2311 10.4831 20.0988 10.528 19.9665 10.573C19.8342 10.6179 19.7019 10.6629 19.5035 10.6292C19.7019 10.6404 19.8342 10.5955 19.9665 10.5505C20.0988 10.5056 20.2311 10.4606 20.4626 10.4831C20.7493 10.5056 20.8816 10.4494 20.9808 10.3932C21.0359 10.3595 21.0911 10.337 21.1572 10.3258C21.3116 10.3033 21.4218 10.3483 21.4549 10.4044L21.4659 10.4494C21.4549 10.4719 21.4218 10.4606 21.3998 10.4494C21.3557 10.4382 21.3005 10.4157 21.2234 10.4382C21.1903 10.4494 21.1462 10.4719 21.0911 10.5056C20.9588 10.5842 20.7713 10.6853 20.5067 10.6629C20.3303 10.6404 20.187 10.7078 20.0327 10.764C19.8563 10.8427 19.7129 10.8988 19.5255 10.8988Z" fill="#7A361D"/>
<path d="M19.5586 10.809C19.9445 10.7865 20.1209 10.5618 20.4737 10.6067C20.198 10.5056 19.9775 10.7416 19.5586 10.7303V10.809Z" fill="#7A361D"/>
<path d="M18.6325 10.9438L17.4087 8.21345C17.4087 8.21345 17.3866 8.15727 17.3536 8.17974C17.3205 8.19098 17.3425 8.24716 17.3425 8.24716L18.3679 11.0561L18.6325 10.9438Z" fill="#F1BD51"/>
<path d="M18.3679 11.0562L17.3316 8.24717C17.3316 8.24717 17.3205 8.21346 17.3316 8.19099L17.3757 8.16852C17.4087 8.17975 17.4198 8.21346 17.4198 8.21346L18.6435 10.9438H18.6325L17.3867 8.17975L17.3646 8.19099L17.3536 8.24717L18.3679 11.0562Z" fill="#7A361D"/>
<path d="M18.5662 10.9662L17.7283 9.08984L18.4339 11.0224L18.5662 10.9662Z" fill="#7A361D"/>
<path d="M18.4008 9.98873C18.4118 9.573 18.1693 9.34828 18.1913 8.97749C18.2244 8.6067 18.0259 8.39322 17.9708 8.25839C17.9267 8.11232 18.0259 8.03367 17.9818 8.0112C17.9377 7.98873 17.8495 8.10108 17.8826 8.30333C17.9157 8.50558 18.07 8.57299 18.0259 9.02243C17.9929 9.47187 18.2023 9.58423 18.1582 9.98873H18.4008Z" fill="#F1BD51"/>
<path d="M18.4008 9.98871H18.3788C18.3898 9.78647 18.3237 9.62916 18.2685 9.47186C18.2134 9.31456 18.1583 9.16849 18.1693 8.97748C18.1914 8.70781 18.0921 8.52804 18.026 8.39321C17.9929 8.33703 17.9709 8.29208 17.9598 8.25838C17.9378 8.16849 17.9598 8.10107 17.9709 8.05613C17.9819 8.02242 17.9819 8.01119 17.9709 8.01119C17.9047 8.04489 17.8606 8.14602 17.8826 8.29208C17.8937 8.3595 17.9157 8.41568 17.9378 8.47186C17.9929 8.58422 18.048 8.70782 18.026 9.01119C18.0039 9.23591 18.0591 9.37074 18.0921 9.50557C18.1362 9.6404 18.1803 9.77523 18.1473 9.97748C18.1583 9.77523 18.1142 9.6404 18.0701 9.50557C18.026 9.37074 17.9819 9.23591 18.0039 8.99995C18.026 8.70782 17.9709 8.57298 17.9157 8.47186C17.8937 8.41568 17.8606 8.3595 17.8606 8.29208C17.8386 8.13478 17.8827 8.03366 17.9268 7.98871L17.9709 7.97748C17.9929 7.98871 17.9819 8.02242 17.9709 8.04489C17.9488 8.08984 17.9378 8.14602 17.9598 8.22467C17.9709 8.25838 18.0039 8.30332 18.026 8.3595C18.0921 8.49433 18.2024 8.68534 18.1803 8.95501C18.1693 9.13478 18.2134 9.28085 18.2796 9.43815C18.3567 9.62916 18.4119 9.78647 18.4008 9.98871Z" fill="#7A361D"/>
<path d="M18.3126 9.92129C18.3016 9.52803 18.0811 9.34826 18.1141 8.98871C18.0149 9.26961 18.2464 9.49433 18.2354 9.92129H18.3126Z" fill="#7A361D"/>
<path d="M18.3678 11.0561L19.6026 13.7865C19.6026 13.7865 19.6247 13.8427 19.6577 13.8202C19.6908 13.809 19.6798 13.7528 19.6798 13.7528L18.6324 10.9438L18.3678 11.0561Z" fill="#F1BD51"/>
<path d="M19.6466 13.8314C19.5915 13.8202 19.5805 13.7865 19.5805 13.7865L18.3567 11.0561L18.3787 11.0449L19.6135 13.7752C19.6135 13.7752 19.6356 13.8202 19.6576 13.809C19.6797 13.7977 19.6576 13.7528 19.6576 13.7528L18.6323 10.9438L19.6797 13.7528C19.6797 13.7752 19.6907 13.809 19.6466 13.8314Z" fill="#7A361D"/>
<path d="M18.434 11.0224L19.2719 12.8988L18.5663 10.9662L18.434 11.0224Z" fill="#7A361D"/>
<path d="M18.6102 12C18.5882 12.4157 18.8418 12.6404 18.8087 13.0112C18.7756 13.382 18.9741 13.5843 19.0182 13.7416C19.0623 13.8876 18.9631 13.9663 19.0072 13.9888C19.0513 14.0112 19.1395 13.8989 19.1064 13.6854C19.0733 13.4831 18.919 13.4157 18.9631 12.9663C18.9961 12.5169 18.7867 12.4045 18.8308 12H18.6102Z" fill="#F1BD51"/>
<path d="M19.0072 14C18.9741 13.9888 18.9961 13.9551 19.0072 13.9326C19.0182 13.8876 19.0402 13.8315 19.0182 13.7416C19.0072 13.6966 18.9851 13.6629 18.952 13.6067C18.8859 13.4719 18.7756 13.2809 18.7977 13.0112C18.8197 12.8315 18.7646 12.6854 18.7095 12.5281C18.6544 12.3708 18.5882 12.2135 18.5992 12H18.6213C18.6103 12.2022 18.6764 12.3708 18.7315 12.5169C18.7867 12.6742 18.8418 12.8202 18.8308 13.0112C18.8087 13.2809 18.9079 13.4607 18.9741 13.5955C19.0072 13.6404 19.0292 13.6854 19.0402 13.7303C19.0733 13.8202 19.0513 13.8764 19.0292 13.9326C19.0182 13.9663 19.0182 13.9775 19.0292 13.9775C19.0954 13.9438 19.1395 13.8427 19.1174 13.6854C19.1064 13.618 19.0843 13.5618 19.0623 13.5056C19.0182 13.3933 18.952 13.2697 18.9741 12.9663C18.9851 12.7416 18.941 12.6067 18.8969 12.4719C18.8528 12.3371 18.8087 12.2022 18.8418 12C18.8308 12.2022 18.8749 12.3371 18.919 12.4719C18.9631 12.6067 19.0072 12.7528 18.9851 12.9775C18.9631 13.2697 19.0182 13.4045 19.0733 13.5169C19.1064 13.573 19.1284 13.6292 19.1395 13.6966C19.1615 13.8539 19.1174 13.9551 19.0733 14H19.0072Z" fill="#7A361D"/>
<path d="M18.6876 12.0674C18.7097 12.4606 18.9302 12.6404 18.8861 13C18.9853 12.7078 18.7538 12.4943 18.7648 12.0674H18.6876Z" fill="#7A361D"/>
<path d="M18.4999 9.77527C19.1614 9.77527 19.7017 10.3258 19.7017 11C19.7017 11.6741 19.1725 12.2247 18.4999 12.2247C17.8384 12.2247 17.2982 11.6741 17.2982 11C17.2982 10.3258 17.8384 9.77527 18.4999 9.77527Z" fill="#F1BD51"/>
<path d="M18.5001 12.2247C17.8276 12.2247 17.2874 11.6742 17.2874 10.9888C17.2874 10.3146 17.8276 9.76404 18.5001 9.76404C19.1616 9.76404 19.7129 10.3146 19.7129 10.9888C19.7129 11.6742 19.1616 12.2247 18.5001 12.2247ZM18.5001 9.78651C17.8386 9.78651 17.3094 10.3258 17.3094 11C17.3094 11.6742 17.8496 12.2135 18.5001 12.2135C19.1616 12.2135 19.6908 11.6742 19.6908 11C19.6908 10.3258 19.1616 9.78651 18.5001 9.78651Z" fill="#7A361D"/>
<path d="M19.2607 10.7303C19.0402 10.5393 18.7756 10.5168 18.6323 10.6629C18.522 10.809 18.5331 10.9775 18.6654 11.1573C18.6543 11.1573 18.6323 11.1685 18.6213 11.1685C18.5331 10.9887 18.511 10.7977 18.5772 10.6404C18.7756 10.4719 19.0623 10.4494 19.2607 10.7303Z" fill="#7A361D"/>
<path d="M18.9301 10.6741C18.8088 10.6741 18.7868 10.7078 18.7206 10.7528C18.6655 10.7977 18.6324 10.7865 18.6214 10.7977C18.6104 10.809 18.6214 10.8314 18.6434 10.8202C18.6655 10.809 18.6986 10.7977 18.7537 10.7415C18.8088 10.6966 18.8639 10.6966 18.9191 10.6966C19.0844 10.6966 19.1726 10.8314 19.1947 10.8314C19.2167 10.8314 19.1065 10.6741 18.9301 10.6741Z" fill="#7A361D"/>
<path d="M19.1396 10.8426C19.0293 10.7078 18.7978 10.6966 18.7096 10.8539H18.7427C18.8309 10.7078 19.0624 10.764 19.0734 10.8314V10.8539L19.1396 10.8426Z" fill="#7A361D"/>
<path d="M18.9079 10.7415C18.952 10.7415 18.9961 10.7865 18.9961 10.8314C18.9961 10.8763 18.952 10.9213 18.9079 10.9213C18.8638 10.9213 18.8197 10.8876 18.8197 10.8314C18.8197 10.7865 18.8638 10.7415 18.9079 10.7415Z" fill="#7A361D"/>
<path d="M18.6986 10.8427C18.7868 10.9213 18.9963 10.9325 19.1286 10.8314H19.0735C18.9853 10.9325 18.8309 10.9213 18.7427 10.8539V10.8314L18.6986 10.8427Z" fill="#7A361D"/>
<path d="M19.1505 10.8876C18.9962 11.0112 18.8308 10.9999 18.7426 10.9438C18.6544 10.8876 18.6544 10.8651 18.6654 10.8651C18.6875 10.8651 18.6985 10.8876 18.7757 10.9213C18.8528 10.955 18.9631 10.955 19.1505 10.8876Z" fill="#7A361D"/>
<path d="M18.6987 11.1685C18.7207 11.1798 18.7428 11.2135 18.7317 11.2359C18.7207 11.2696 18.6876 11.2809 18.6656 11.2696C18.6435 11.2584 18.6325 11.2472 18.6215 11.2247C18.6105 11.2472 18.5774 11.3034 18.5002 11.3034H18.4781L18.5002 11.3371C18.5223 11.3371 18.5663 11.3371 18.6105 11.3034C18.6435 11.3371 18.6876 11.3483 18.7317 11.3258C18.7648 11.2921 18.7758 11.2359 18.7428 11.2022C18.7317 11.1798 18.7207 11.1685 18.6987 11.1685Z" fill="#7A361D"/>
<path d="M18.7979 11.5618C18.7207 11.5056 18.6766 11.4269 18.5884 11.4269C18.5664 11.4269 18.5333 11.4382 18.5002 11.4606H18.4781L18.5002 11.4831C18.5333 11.4831 18.5884 11.4382 18.6546 11.4719C18.7207 11.5056 18.7648 11.5393 18.7979 11.5618Z" fill="#7A361D"/>
<path d="M18.7758 11.5618C18.5884 11.5056 18.5553 11.5393 18.5002 11.5393H18.4781L18.5002 11.5843C18.5774 11.5843 18.6105 11.5281 18.7758 11.5618Z" fill="#7A361D"/>
<path d="M18.7979 11.5618C18.5994 11.5393 18.6656 11.6629 18.5002 11.6629H18.4781L18.5002 11.6966C18.6987 11.6966 18.6105 11.5842 18.7979 11.5618Z" fill="#7A361D"/>
<path d="M18.6655 11.8651C18.6655 11.7752 18.5883 11.6966 18.5001 11.6966C18.4119 11.6966 18.3347 11.7752 18.3347 11.8651C18.3568 11.7752 18.445 11.7191 18.5442 11.7415C18.6103 11.7528 18.6544 11.7977 18.6655 11.8651Z" fill="#7A361D"/>
<path d="M17.7393 10.7303C17.9487 10.5393 18.2244 10.5168 18.3677 10.6629C18.4779 10.809 18.4669 10.9775 18.3346 11.1573C18.3456 11.1573 18.3677 11.1685 18.3677 11.1685C18.4559 10.9887 18.4779 10.7977 18.4118 10.6404C18.2244 10.4719 17.9487 10.4494 17.7393 10.7303Z" fill="#7A361D"/>
<path d="M18.0812 10.6741C18.2025 10.6741 18.2246 10.7078 18.2797 10.7528C18.3348 10.7977 18.3569 10.7865 18.3679 10.7977C18.3789 10.809 18.3679 10.8314 18.3458 10.8202C18.3238 10.809 18.2907 10.7977 18.2356 10.7415C18.1805 10.6966 18.1253 10.6966 18.0702 10.6966C17.9048 10.6966 17.8166 10.8314 17.7946 10.8314C17.7836 10.8314 17.8938 10.6741 18.0812 10.6741Z" fill="#7A361D"/>
<path d="M17.8606 10.8426C17.9819 10.7078 18.2024 10.6966 18.2906 10.8539H18.2465C18.1583 10.7078 17.9378 10.764 17.9157 10.8314V10.8539L17.8606 10.8426Z" fill="#7A361D"/>
<path d="M18.0921 10.7415C18.048 10.7415 18.0039 10.7865 18.0039 10.8314C18.0039 10.8763 18.037 10.9213 18.0921 10.9213C18.1362 10.9213 18.1693 10.8876 18.1693 10.8314C18.1803 10.7865 18.1362 10.7415 18.0921 10.7415Z" fill="#7A361D"/>
<path d="M18.3016 10.8427C18.2023 10.9213 18.0039 10.9326 17.8716 10.8314L17.9377 10.8202C18.0259 10.9213 18.1693 10.9101 18.2685 10.8427V10.8314L18.3016 10.8427Z" fill="#7A361D"/>
<path d="M17.8496 10.8876C18.004 11.0112 18.1693 10.9999 18.2575 10.9438C18.3457 10.8876 18.3457 10.8651 18.3347 10.8651C18.3127 10.8651 18.3016 10.8876 18.2245 10.9213C18.1473 10.955 18.037 10.955 17.8496 10.8876Z" fill="#7A361D"/>
<path d="M18.3128 11.1685C18.2797 11.1798 18.2687 11.2135 18.2797 11.2359C18.2907 11.2696 18.3238 11.2809 18.3458 11.2696C18.3679 11.2584 18.3789 11.2472 18.3789 11.2247C18.39 11.2472 18.423 11.3034 18.5002 11.3034H18.5223L18.5002 11.3371C18.4782 11.3371 18.423 11.3371 18.39 11.3034C18.3679 11.3371 18.3128 11.3483 18.2797 11.3258C18.2356 11.2921 18.2356 11.2472 18.2576 11.2022C18.2687 11.1798 18.2907 11.1685 18.3128 11.1685Z" fill="#7A361D"/>
<path d="M18.1914 11.5618C18.2796 11.5056 18.3127 11.4269 18.4009 11.4269C18.4229 11.4269 18.456 11.4382 18.4891 11.4606H18.5111L18.4891 11.4831C18.456 11.4831 18.4009 11.4382 18.3347 11.4719C18.2796 11.5056 18.2355 11.5393 18.1914 11.5618Z" fill="#7A361D"/>
<path d="M18.2244 11.5618C18.4118 11.5056 18.4449 11.5393 18.5 11.5393H18.522L18.5 11.5843C18.4228 11.5843 18.3897 11.5281 18.2244 11.5618Z" fill="#7A361D"/>
<path d="M18.1914 11.5618C18.4009 11.5393 18.3237 11.6629 18.5001 11.6629H18.5222L18.5001 11.6966C18.3017 11.6966 18.3899 11.5842 18.1914 11.5618Z" fill="#7A361D"/>
<path d="M18.3347 11.8651C18.3347 11.7752 18.4119 11.6966 18.5001 11.6966C18.5883 11.6966 18.6655 11.7752 18.6655 11.8651C18.6434 11.7752 18.5552 11.7191 18.456 11.7415C18.4009 11.7528 18.3457 11.7977 18.3347 11.8651Z" fill="#7A361D"/>
</svg>
