<svg width="49" height="58" viewBox="0 0 49 58" fill="none" xmlns="http://www.w3.org/2000/svg">
<path d="M24.5 58L24.5061 24.1733C3.18684 15.2862 0 0 0 0V33.6686C0 45.8221 24.5 58 24.5 58ZM30.3947 21.0284V54.6788C32.3167 53.4926 34.5211 52.0571 36.7377 50.4025V18.2729C8.77456 15.6573 0 0 0 0C9.53596 19.2401 30.3947 21.0284 30.3947 21.0284ZM49 5.15218V0C41.3246 2.3054 33.0842 3.57063 24.5061 3.5828C15.9219 3.57063 7.67544 2.3054 0 0C0 0 18.6482 11.3202 49 5.15218ZM42.6632 14.6171V45.3598C46.2798 41.7588 49 37.7137 49 33.6686V10.6207C44.5789 11.0404 35.0921 11.5574 25.1202 9.71432C13.2509 7.53057 5.99298 4.6108 0 0C14.2272 14.9638 42.6632 14.6171 42.6632 14.6171Z" fill="white"/>
</svg>
