<svg width="24" height="29" viewBox="0 0 24 29" fill="none" xmlns="http://www.w3.org/2000/svg">
<path d="M11.9971 29V12.0833C1.55776 7.64396 0 0 0 0V16.8343C0 22.9142 11.9971 29 11.9971 29ZM14.8859 10.5193V27.3419C15.8217 26.748 16.9087 26.0247 17.9956 25.2015L17.9898 9.13159C4.30128 7.82624 0 0 0 0C4.66747 9.61963 14.8859 10.5193 14.8859 10.5193ZM24 2.57543V0C20.2393 1.15247 16.1996 1.78751 11.9971 1.79339C7.80044 1.78751 3.76072 1.15247 0 0C0 0 9.13732 5.66241 24 2.57543ZM20.8961 7.30292V22.679C22.6631 20.8798 24 18.8571 24 16.8343V5.30961C21.8319 5.51541 17.1877 5.77413 12.3052 4.85685C6.49261 3.76318 2.93534 2.30495 0 0C6.96924 7.47932 20.8961 7.30292 20.8961 7.30292Z" fill="#E30613"/>
</svg>
