<svg width="66" height="57" viewBox="0 0 66 57" fill="none" xmlns="http://www.w3.org/2000/svg">
<path d="M40.4972 42.2093H36.9867C36.4727 42.2093 36.0464 42.6344 36.0464 43.147C36.0464 43.6596 36.4727 44.0846 36.9867 44.0846H40.4972C41.0112 44.0846 41.4375 43.6596 41.4375 43.147C41.4375 42.6344 41.0237 42.2093 40.4972 42.2093Z" fill="#233559"/>
<path d="M61.2088 32.1703L56.0936 30.195L53.4858 27.5946C53.3228 27.432 53.0971 27.332 52.884 27.3195V25.2567C54.1127 23.944 54.9903 22.2937 55.3413 20.431C55.567 20.4435 55.7801 20.4185 56.0058 20.381C57.2595 20.1309 58.1622 18.9682 58.1622 17.6305V16.9429C58.1622 16.1678 57.8488 15.4552 57.3347 14.9426C58.1622 10.4419 57.4852 6.76633 55.3539 4.31595C53.2852 1.94058 49.9628 0.802907 45.7378 1.02794C41.8387 1.24048 39.3187 3.02825 38.5163 3.67835C38.0775 3.72836 37.3378 3.87839 36.5856 4.32846C35.545 4.95355 34.2913 6.26626 34.2913 8.96668C34.2913 11.3295 34.6674 13.2923 34.9432 14.4175C34.028 14.8676 33.4137 15.8302 33.4137 16.9304V17.6055C33.4137 18.9432 34.3163 20.1059 35.5701 20.3559C35.7832 20.406 36.0089 20.4185 36.2345 20.406C36.5856 22.2687 37.4632 23.9315 38.6918 25.2317V27.307C38.4662 27.3195 38.253 27.407 38.0901 27.5821L35.4823 30.1825L30.342 32.1703C29.9032 32.3453 29.477 32.5578 29.0883 32.8204C28.662 33.1079 28.5492 33.6955 28.8376 34.1206C29.0256 34.3831 29.314 34.5332 29.6149 34.5332C29.8029 34.5332 29.9784 34.4831 30.1414 34.3706C30.4173 34.1831 30.7056 34.0331 31.019 33.9081L35.7707 32.0828L39.4065 37.5211C39.8578 38.1962 40.585 38.6213 41.3874 38.7088C41.4751 38.7213 41.5629 38.7213 41.6506 38.7213C42.1145 38.7213 42.5784 38.5963 42.9796 38.3713L42.2023 56.0115C42.1772 56.5241 42.5784 56.9616 43.105 56.9866C43.1175 56.9866 43.13 56.9866 43.1426 56.9866C43.6441 56.9866 44.0578 56.5991 44.0829 56.0865L44.81 39.7215H46.7658L47.493 56.0865C47.5181 56.5866 47.9318 56.9866 48.4333 56.9866C48.4458 56.9866 48.4584 56.9866 48.4709 56.9866C48.9849 56.9616 49.3861 56.5241 49.3736 56.0115L48.5837 38.3838C48.9849 38.6088 49.4363 38.7338 49.9127 38.7338C50.0004 38.7338 50.0882 38.7338 50.176 38.7213C50.9784 38.6463 51.7055 38.2087 52.1569 37.5336L55.7927 32.0953L60.5443 33.9206C61.2088 34.1706 61.7855 34.5832 62.2368 35.0957L58.9897 38.3337C57.8112 39.5089 57.1718 41.0592 57.1718 42.7219V56.049C57.1718 56.5616 57.598 56.9866 58.1121 56.9866C58.6261 56.9866 59.0523 56.5616 59.0523 56.049V42.7219C59.0523 41.5718 59.5037 40.4841 60.3186 39.659L63.1771 36.8085C63.2899 37.2336 63.3401 37.6711 63.3276 38.1212L62.6004 56.0115C62.5753 56.5241 62.989 56.9616 63.5031 56.9866C63.5156 56.9866 63.5281 56.9866 63.5407 56.9866C64.0422 56.9866 64.4559 56.5866 64.481 56.0865L65.2081 38.1962C65.2959 35.5583 63.7037 33.1329 61.2088 32.1703ZM38.065 20.0434C37.902 19.1433 37.062 18.4932 36.1593 18.5557C36.0841 18.5557 36.0089 18.5557 35.9462 18.5432C35.5701 18.4682 35.2942 18.0681 35.2942 17.6305V16.9554C35.2942 16.5179 35.5826 16.1303 35.9587 16.0678C36.2721 16.0178 36.573 16.1303 36.7611 16.3803C36.9366 16.6054 37.1623 16.7679 37.4256 16.8429C37.8142 16.9554 38.2405 16.8929 38.5665 16.6554C39.1557 16.2428 39.6697 15.7302 40.1086 15.1551C40.422 14.7426 40.3342 14.155 39.9205 13.8424C39.5068 13.5299 38.9175 13.6174 38.6041 14.03C38.3909 14.3175 38.1402 14.58 37.8769 14.8176C37.576 14.5675 37.225 14.38 36.8614 14.28C36.6232 13.3549 36.1844 11.3796 36.1844 8.99168C36.1844 7.55396 36.6232 6.5413 37.5008 5.99121C38.1778 5.55365 38.905 5.54114 38.905 5.54114C39.1432 5.54114 39.3814 5.44113 39.5569 5.2786C39.582 5.2536 41.8888 3.11577 45.8506 2.90323C49.4739 2.7032 52.2697 3.61584 53.9371 5.54114C55.6171 7.47895 56.1813 10.4544 55.567 14.1675C55.3162 14.155 55.0404 14.18 54.7646 14.2175L53.887 12.1047C53.7115 11.6671 53.2351 11.4421 52.7837 11.5546C52.696 11.5796 44.0076 13.7674 40.3718 9.25422C40.0459 8.85416 39.4566 8.79165 39.0554 9.1042C38.6542 9.42925 38.5915 10.0168 38.9175 10.4169C42.6411 15.0301 50.013 14.03 52.4703 13.5424L53.1473 15.1801C53.4357 15.8803 54.1879 16.2678 54.9276 16.0928C55.2285 16.0178 55.5168 16.0178 55.6297 16.0428C56.0058 16.1178 56.2942 16.4928 56.2942 16.9179V17.6055C56.2942 18.0556 56.0183 18.4432 55.6422 18.5182C55.567 18.5307 55.4918 18.5432 55.4291 18.5307C54.5264 18.4682 53.6864 19.1183 53.5234 20.0184C52.8339 23.7315 49.5993 26.4319 45.8005 26.4319C41.9891 26.4444 38.742 23.7565 38.065 20.0434ZM42.2399 36.621C42.0017 36.8585 41.7259 36.871 41.5754 36.8585C41.4375 36.846 41.1617 36.7835 40.9736 36.496L37.3127 31.0201L38.7796 29.5574L44.3963 34.4581L42.2399 36.621ZM44.8852 37.8587L44.9479 36.571L45.7879 35.7333L46.6279 36.571L46.6906 37.8587H44.8852ZM45.7754 33.1579L40.5599 28.6072V26.807C42.0769 27.7696 43.8697 28.3197 45.7754 28.3197C47.6811 28.3197 49.4739 27.7696 50.9909 26.807V28.6072L45.7754 33.1579ZM50.5897 36.496C50.4016 36.771 50.1384 36.846 49.9879 36.8585C49.8375 36.871 49.5616 36.8585 49.3234 36.621L47.1545 34.4581L52.7712 29.5574L54.238 31.0201L50.5897 36.496Z" fill="#E30613"/>
<path d="M30.8184 37.0844L26.2297 35.0841L23.7223 32.5837C23.5593 32.4212 23.3336 32.3212 23.1205 32.3086V30.8334C25.2644 29.4332 26.8315 27.1954 27.3455 24.5324C27.5963 24.5449 27.847 24.5199 28.0852 24.4574C29.2888 24.1699 30.1664 23.0197 30.1664 21.7195V21.0319C30.1664 20.0817 29.69 19.2316 28.9629 18.7315C29.176 17.8814 29.2888 17.0063 29.2888 16.1311C29.2888 12.243 27.1826 8.83 24.0106 6.85469C23.9605 3.62919 21.1898 1.00378 17.7796 1.00378C14.3695 1.00378 11.5987 3.62919 11.5611 6.8797C8.38921 8.8425 6.28295 12.2555 6.28295 16.1436C6.28295 17.0188 6.39578 17.8814 6.60892 18.7315C5.88176 19.2316 5.40534 20.0942 5.40534 21.0569V21.732C5.40534 23.0322 6.28295 24.1824 7.48653 24.4699C7.73727 24.5324 7.97548 24.5574 8.22622 24.5449C8.72771 27.2079 10.2949 29.4457 12.4513 30.8459V32.3212C12.2256 32.3337 12.0125 32.4212 11.8495 32.5962L9.34204 35.0966L4.7534 37.0969C2.3964 38.1096 0.904463 40.4974 1.00476 43.0353L1.5564 56.0998C1.58148 56.5999 1.9952 57 2.4967 57C2.50923 57 2.52177 57 2.53431 57C3.04833 56.975 3.46206 56.5374 3.43699 56.0248L2.88535 42.9603C2.84774 42.1227 3.07341 41.2976 3.48714 40.5974L5.95698 43.5479C6.73429 44.4855 7.16056 45.6607 7.16056 46.8734V56.0498C7.16056 56.5624 7.58682 56.9875 8.10085 56.9875C8.61488 56.9875 9.04115 56.5624 9.04115 56.0498V46.8734C9.04115 45.2232 8.45189 43.6104 7.39876 42.3477L4.77848 39.2097C5.00415 39.0597 5.24236 38.9222 5.4931 38.8097L9.49249 37.0719L12.3259 41.6476C12.6017 42.0977 13.0656 42.4102 13.5922 42.4852C13.6925 42.4977 13.7802 42.5102 13.8805 42.5102C14.3068 42.5102 14.7331 42.3602 15.059 42.0727L16.8519 40.5474V56.0623C16.8519 56.5749 17.2781 57 17.7922 57C18.3062 57 18.7324 56.5749 18.7324 56.0623V40.5474L20.5253 42.0727C20.8512 42.3602 21.2775 42.5102 21.7038 42.5102C21.8041 42.5102 21.8918 42.4977 21.9921 42.4852C22.5187 42.3977 22.9826 42.0977 23.2584 41.6476L26.0918 37.0719L30.0912 38.8097C30.342 38.9222 30.5802 39.0597 30.8058 39.2097L28.1855 42.3477C27.1199 43.6229 26.5432 45.2232 26.5432 46.8734V56.0498C26.5432 56.5624 26.9694 56.9875 27.4835 56.9875C27.9975 56.9875 28.4237 56.5624 28.4237 56.0498V46.8734C28.4237 45.6607 28.85 44.473 29.6273 43.5479L32.0972 40.5974C32.5109 41.2976 32.724 42.1227 32.699 42.9603L32.1473 56.0248C32.1222 56.5374 32.5234 56.975 33.05 57C33.0625 57 33.0751 57 33.0876 57C33.5891 57 34.0028 56.5999 34.0279 56.0998L34.5795 43.0353C34.6548 40.4974 33.1628 38.1096 30.8184 37.0844ZM17.7796 2.87908C19.7856 2.87908 21.4656 4.15427 21.9671 5.87954C20.6632 5.39197 19.259 5.11692 17.7796 5.11692C16.3002 5.11692 14.896 5.37946 13.5922 5.87954C14.0937 4.15427 15.7737 2.87908 17.7796 2.87908ZM10.0567 24.1449C9.89368 23.2447 9.05368 22.5946 8.151 22.6571C8.07578 22.6571 7.98802 22.6572 7.90025 22.6321C7.53667 22.5446 7.27339 22.1571 7.27339 21.7195V21.0444C7.27339 20.6068 7.56175 20.2193 7.93787 20.1568C8.2513 20.1068 8.55219 20.2193 8.74025 20.4693C8.91577 20.6943 9.14144 20.8569 9.40473 20.9319C9.79338 21.0444 10.2196 20.9819 10.5456 20.7444C11.1223 20.3318 11.6364 19.8442 12.0626 19.2691C12.3761 18.8566 12.2883 18.269 11.8746 17.9564C11.4608 17.6439 10.8716 17.7314 10.5582 18.1439C10.345 18.4315 10.1068 18.6815 9.84353 18.9191C9.44234 18.5815 8.95338 18.3565 8.42682 18.294C8.2513 17.5939 8.151 16.8687 8.151 16.1436C8.151 11.0929 12.4638 6.99222 17.7671 6.99222C23.0703 6.99222 27.3832 11.0929 27.3832 16.1436C27.3832 16.8687 27.2954 17.5939 27.1073 18.294C26.8566 18.319 26.6058 18.3565 26.3802 18.419L25.6781 17.8439C25.327 17.5564 24.8757 17.4063 24.4244 17.4313C23.0453 17.5189 15.9617 17.6939 12.3384 13.3682C11.9999 12.9681 11.4107 12.9181 11.0095 13.2557C10.6083 13.5932 10.5582 14.1808 10.8967 14.5809C12.6895 16.7187 15.3098 18.169 18.7074 18.8816C21.3026 19.4316 23.6094 19.3691 24.5121 19.3191L25.6154 20.2193C25.9163 20.4693 26.3426 20.5068 26.6811 20.3068C26.8441 20.2193 27.3706 20.1318 27.6088 20.1818C27.9849 20.2568 28.2733 20.6318 28.2733 21.0569V21.7445C28.2733 22.1821 27.9975 22.5696 27.6464 22.6571C27.5587 22.6822 27.4835 22.6822 27.3957 22.6822C26.493 22.6196 25.653 23.2697 25.49 24.1699C24.8005 27.883 21.5659 30.5834 17.7671 30.5834C13.9934 30.5584 10.7462 27.858 10.0567 24.1449ZM13.8805 40.5974L11.0471 36.0217L12.5014 34.5715L16.4005 38.4596L13.8805 40.5974ZM17.7796 37.1844L14.3193 33.7339V31.7961C15.3975 32.2086 16.5635 32.4337 17.7796 32.4337C18.9957 32.4337 20.1617 32.2086 21.2399 31.7961V33.7339L17.7796 37.1844ZM21.6787 40.5974L19.1587 38.4596L23.0578 34.5715L24.5121 36.0217L21.6787 40.5974Z" fill="#E30613"/>
<path d="M14.2567 46.3475H11.6238C11.1098 46.3475 10.6835 46.7726 10.6835 47.2851C10.6835 47.7977 11.1098 48.2228 11.6238 48.2228H14.2692C14.7832 48.2228 15.2095 47.7977 15.2095 47.2851C15.197 46.7726 14.7832 46.3475 14.2567 46.3475Z" fill="#233559"/>
</svg>
