<svg width="35" height="44" viewBox="0 0 35 44" fill="none" xmlns="http://www.w3.org/2000/svg">
<path d="M32.828 27.8135L32.4319 27.4268C29.8641 29.7935 26.6953 31.3602 23.2192 31.9535C22.9255 32.0068 22.7275 32.2735 22.7821 32.5602C22.8299 32.8135 23.0553 32.9935 23.3148 32.9935C23.3489 32.9935 23.3763 32.9935 23.4104 32.9868C27.2826 32.3202 30.8065 30.5335 33.5928 27.8068C33.4904 27.9068 33.347 27.9602 33.2104 27.9602C33.0738 27.9668 32.9372 27.9135 32.828 27.8135Z" fill="#E30613" stroke="#E30613" stroke-miterlimit="10"/>
<path d="M33.5929 27.0667L31.749 25.2667C31.5373 25.06 31.1959 25.06 30.9842 25.2667C30.7725 25.4734 30.7725 25.8067 30.9842 26.0134L32.432 27.4267C32.5617 27.3067 32.6983 27.1934 32.8281 27.0667C33.0398 26.86 33.3812 26.86 33.5929 27.0667Z" fill="#E30613" stroke="#E30613" stroke-miterlimit="10"/>
<path d="M33.5927 27.0667C33.381 26.8601 33.0395 26.8601 32.8278 27.0667C32.6981 27.1934 32.5615 27.3067 32.4317 27.4267L32.8278 27.8134C32.9303 27.9134 33.0737 27.9667 33.2103 27.9667C33.3469 27.9667 33.4834 27.9134 33.5927 27.8134C33.8044 27.6067 33.8044 27.2734 33.5927 27.0667Z" fill="#E30613" stroke="#E30613" stroke-miterlimit="10"/>
<path d="M20.091 28.28C12.367 28.28 6.09094 22.16 6.09094 14.64C6.09094 7.12 12.3739 1 20.091 1C27.808 1 34.091 7.12 34.091 14.64C34.091 22.16 27.8149 28.28 20.091 28.28ZM20.091 2.04667C12.968 2.04667 7.16997 7.69334 7.16997 14.6333C7.16997 21.5733 12.968 27.22 20.091 27.22C27.2139 27.22 33.0119 21.5733 33.0119 14.6333C33.0119 7.69334 27.2139 2.04667 20.091 2.04667Z" fill="#E30613" stroke="#E30613" stroke-miterlimit="10"/>
<path d="M27.5966 38.8865H27.1459C26.8864 37.3532 25.5205 36.1865 23.8815 36.1865H20.7059V32.2132H20.1664C15.3585 32.2665 10.7898 30.4132 7.35464 27.0599C0.457073 20.3332 0.334145 9.45984 6.97903 2.57317L8.46781 4.02651C8.57025 4.12651 8.71367 4.17984 8.85025 4.17984C8.98684 4.17984 9.12342 4.12651 9.23269 4.02651C9.4444 3.81984 9.4444 3.48651 9.23269 3.27984L7.34781 1.4465C7.1361 1.23984 6.79464 1.23984 6.58293 1.4465C-0.860978 8.71318 -0.860978 20.5399 6.58293 27.8065C10.0932 31.2332 14.7029 33.1599 19.62 33.2599V36.1799H16.4512C14.8122 36.1799 13.4464 37.3532 13.1868 38.8799H12.6268C10.701 38.8799 9.13025 40.4132 9.13025 42.2932V42.9999H31.0864V42.2932C31.0932 40.4199 29.5225 38.8865 27.5966 38.8865ZM10.2434 41.9532C10.4142 40.8132 11.4181 39.9399 12.6337 39.9399H14.2317V39.4132C14.2317 38.2132 15.2288 37.2399 16.4581 37.2399H23.8815C25.1108 37.2399 26.1078 38.2132 26.1078 39.4132V39.9399H27.5966C28.8122 39.9399 29.8161 40.8132 29.9869 41.9532H10.2434Z" fill="#E30613" stroke="#E30613" stroke-miterlimit="10"/>
<path d="M24.496 21.12L20.8765 19.26C20.3984 19.0134 19.8316 19.02 19.3604 19.26L15.734 21.12L16.4238 17.18C16.5126 16.6667 16.3419 16.14 15.9526 15.7734L13.0228 12.9867L17.0726 12.4134C17.6053 12.34 18.0628 12.0134 18.3019 11.54L20.1116 7.95337L21.9214 11.54C22.1604 12.0067 22.618 12.3334 23.1506 12.4134L27.2004 12.9867L24.2706 15.78C23.8882 16.1467 23.7106 16.6734 23.7994 17.1867L24.496 21.12ZM20.1184 18.18C20.5282 18.18 20.9311 18.2734 21.3067 18.4667L23.2804 19.48L22.9048 17.34C22.7614 16.5334 23.0414 15.7067 23.6423 15.1334L25.2336 13.6134L23.0277 13.3C22.1945 13.18 21.4775 12.6734 21.1087 11.94L20.1184 9.99337L19.135 11.94C18.7662 12.6734 18.0423 13.1867 17.216 13.3L15.017 13.6134L16.6082 15.1334C17.2092 15.7067 17.4823 16.5334 17.3389 17.34L16.9633 19.48L18.9301 18.4667C19.2989 18.2734 19.7087 18.18 20.1184 18.18Z" fill="#E30613" stroke="#E30613" stroke-miterlimit="10"/>
</svg>
