<svg width="52" height="44" viewBox="0 0 52 44" fill="none" xmlns="http://www.w3.org/2000/svg">
<g clip-path="url(#clip0)">
<path d="M45.8007 0H37.7311C36.5194 0 35.5311 0.988088 35.5311 2.19957V6.55575C35.3765 6.48702 35.2132 6.43546 35.0499 6.40969L27.1093 5.00918C25.9147 4.80297 24.7718 5.60203 24.5569 6.79633L23.01 15.5688C22.8468 15.4571 22.6663 15.3712 22.4858 15.3025L14.8116 12.8108C13.6601 12.4327 12.414 13.0685 12.0358 14.2199L11.3655 16.282C11.3655 16.2906 11.3569 16.2992 11.3483 16.3078C11.3483 16.3163 11.3483 16.3249 11.3483 16.3335L4.1124 38.63C3.73427 39.7813 4.37021 41.0271 5.52177 41.4052L13.196 43.8969C13.4194 43.9656 13.6429 44.0086 13.8749 44.0086C14.8288 44.0086 15.671 43.39 15.9632 42.4878L20.9905 27.0135L19.5897 34.9611L18.9538 38.5698L18.696 40.0133C18.5929 40.589 18.7218 41.1818 19.0569 41.6544C19.3921 42.1355 19.8991 42.462 20.4749 42.5565L28.4155 43.957C28.9913 44.0602 29.5843 43.9313 30.0569 43.5962C30.5382 43.2611 30.8647 42.7542 30.9593 42.1785L31.8444 37.1263L35.514 16.3507V41.8004C35.514 43.0119 36.5022 44 37.714 44H45.7835C46.9952 44 47.9835 43.0119 47.9835 41.8004V2.19957C48.0007 0.988088 47.0124 0 45.8007 0ZM20.9132 35.932L30.2976 37.5903L29.9194 39.7555L20.535 38.0973L20.9132 35.932ZM30.5554 36.1469L21.171 34.4886L24.9952 12.828L34.3796 14.4862L30.5554 36.1469ZM25.2358 11.3845L25.614 9.21929L34.9983 10.8776L34.6202 13.0428L25.2358 11.3845ZM37.0007 8.06796H46.5311V35.932H37.0007V8.06796ZM37.0007 6.59871V4.39914H46.5311V6.59871H37.0007ZM37.0007 37.3927H46.5311V39.5923H37.0007V37.3927ZM37.7311 1.46924H45.8007C46.2046 1.46924 46.5311 1.79574 46.5311 2.19957V2.9299H37.0007V2.19957C37.0007 1.79574 37.3272 1.46924 37.7311 1.46924ZM26.7225 6.44405C26.7655 6.44405 26.8085 6.44405 26.8515 6.45265L34.8007 7.85315C35.196 7.92189 35.4624 8.29994 35.3936 8.70377L35.2647 9.4255L25.8804 7.77583L26.0007 7.0455C26.0608 6.70182 26.3702 6.44405 26.7225 6.44405ZM13.4366 14.6753C13.5655 14.2886 13.978 14.0824 14.3647 14.2027L22.039 16.6944C22.4257 16.8233 22.6319 17.2357 22.5116 17.6223L22.0561 19.0143L12.9897 16.0672L13.4366 14.6753ZM15.4819 39.2314L6.41552 36.2929L12.5343 17.4677L21.6007 20.4148L15.4819 39.2314ZM14.571 42.0324C14.4421 42.4191 14.0296 42.6253 13.6429 42.505L5.96865 40.0133C5.58193 39.8844 5.37568 39.472 5.49599 39.0853L5.95146 37.6848L15.0179 40.6319L14.571 42.0324ZM28.6819 42.5136L20.7413 41.1131C20.346 41.0443 20.0796 40.6663 20.1483 40.2625L20.2772 39.5407L29.6616 41.199L29.5327 41.9207C29.464 42.316 29.0858 42.5823 28.6819 42.5136ZM45.8007 42.5222H37.7311C37.3272 42.5222 37.0007 42.1957 37.0007 41.7918V41.0615H46.5311V41.7918C46.5311 42.1957 46.2046 42.5222 45.8007 42.5222Z" fill="#E30613"/>
<path d="M43.6 10.2675H39.9305C39.1227 10.2675 38.4609 10.9205 38.4609 11.7368V32.2632C38.4609 33.0709 39.1141 33.7325 39.9305 33.7325H43.6C44.4078 33.7325 45.0695 33.0795 45.0695 32.2632V11.7282C45.0695 10.9205 44.4078 10.2675 43.6 10.2675ZM39.9305 32.2632V11.7282H43.6V32.2546H39.9305V32.2632Z" fill="#233559"/>
<path d="M14.5703 21.841C14.3812 21.7809 14.1836 21.7981 14.0117 21.884C13.8398 21.9699 13.7109 22.1246 13.6508 22.3136L9.62891 34.669C9.5 35.0556 9.71484 35.4681 10.1016 35.5969C10.1789 35.6227 10.2477 35.6313 10.325 35.6313C10.643 35.6313 10.9266 35.4251 11.0211 35.1244L15.0344 22.769C15.1633 22.3823 14.9484 21.9699 14.5703 21.841Z" fill="#233559"/>
<path d="M15.9625 28.6288C15.5758 28.4999 15.1633 28.7147 15.0344 29.1013L12.886 35.7258C12.757 36.1125 12.9719 36.5249 13.3586 36.6538C13.436 36.6795 13.5047 36.6881 13.582 36.6881C13.9 36.6881 14.1836 36.4819 14.2781 36.1812L16.4266 29.5653C16.5555 29.1701 16.3492 28.7577 15.9625 28.6288Z" fill="#233559"/>
<path d="M31.6977 16.9865L26.6446 16.0929C26.2492 16.0242 25.8625 16.2905 25.7938 16.6858C25.725 17.081 25.9914 17.4676 26.3867 17.5364L31.4399 18.4299C31.4828 18.4385 31.5258 18.4385 31.5688 18.4385C31.9469 18.4385 32.2649 18.1464 32.2992 17.7684C32.3336 17.3903 32.0758 17.0552 31.6977 16.9865Z" fill="#E30613"/>
<path d="M31.1906 19.8734L26.1289 18.9884C25.8711 18.9369 25.5961 19.0314 25.4242 19.229C25.2524 19.4266 25.2008 19.7102 25.2953 19.9593C25.3899 20.2085 25.6047 20.3889 25.8711 20.4319L30.9242 21.3255C30.9672 21.3341 31.0102 21.3341 31.0531 21.3341C31.4313 21.3341 31.7492 21.0419 31.7836 20.6639C31.8266 20.2858 31.5602 19.9422 31.1906 19.8734Z" fill="#E30613"/>
</g>
<defs>
<clipPath id="clip0">
<rect width="44" height="44" fill="white" transform="translate(4)"/>
</clipPath>
</defs>
</svg>
