<svg xmlns="http://www.w3.org/2000/svg" xmlns:xlink="http://www.w3.org/1999/xlink" viewBox="0 0 454.03 293.65"><defs><style>.cls-1{fill:none;}.cls-2{fill:#006dff;}.cls-3{fill:url(#Degradado_sin_nombre_13);}.cls-4{fill:url(#Degradado_sin_nombre_13-2);}.cls-5{fill:#c5deff;}.cls-6{fill:#fff;}.cls-7{fill:#aad3ff;opacity:0.18;}.cls-8{fill:#f2ffff;}.cls-9{fill:#ffb89a;}.cls-10{fill:#ae0000;}.cls-11{fill:#da0000;}.cls-12{fill:#ffb191;}.cls-13{fill:#005abc;}.cls-14{opacity:0.09;}.cls-15{clip-path:url(#clip-path);}.cls-16{clip-path:url(#clip-path-2);}</style><linearGradient id="Degradado_sin_nombre_13" x1="153.16" y1="284.91" x2="300.65" y2="284.91" gradientUnits="userSpaceOnUse"><stop offset="0" stop-color="#004eac"/><stop offset="0.85" stop-color="#006dff"/></linearGradient><linearGradient id="Degradado_sin_nombre_13-2" x1="348.01" y1="85.55" x2="103.17" y2="236.05" xlink:href="#Degradado_sin_nombre_13"/><clipPath id="clip-path" transform="translate(0 -0.01)"><rect class="cls-1" x="65.94" width="0.97" height="4.43"/></clipPath><clipPath id="clip-path-2" transform="translate(0 -0.01)"><rect class="cls-1" x="64.22" y="1.75" width="4.41" height="0.97"/></clipPath></defs><title>Recurso 1</title><g id="Capa_2" data-name="Capa 2"><g id="Capa_1-2" data-name="Capa 1"><path d="M104.16,136.83h-1.51v1.36h1.51Zm-1.51,0a.68.68,0,1,0,0,1.36Zm1.51,1.36a.68.68,0,1,0,0-1.36Z" transform="translate(0 -0.01)"/><path d="M411.94,201.72h-1.51v1.36h1.51Zm-1.51,0a.68.68,0,1,0,0,1.36Zm1.51,1.36a.68.68,0,0,0,0-1.36Z" transform="translate(0 -0.01)"/><polygon class="cls-2" points="265.29 281.74 188.52 281.74 196.85 248.96 198.74 241.53 202.41 227.12 251.39 227.12 255.06 241.53 256.95 248.96 265.29 281.74"/><path class="cls-3" d="M294.75,290.8H159.05a5.89,5.89,0,0,1,0-11.78h135.7a5.89,5.89,0,1,1,0,11.78" transform="translate(0 -0.01)"/><path class="cls-4" d="M352.18,87.82V232.15a6.22,6.22,0,0,1-6.22,6.22H107.86a6.21,6.21,0,0,1-6.22-6.22V87.82a6.22,6.22,0,0,1,6.22-6.21H346a6.22,6.22,0,0,1,6.22,6.21" transform="translate(0 -0.01)"/><rect class="cls-5" x="106.22" y="86.17" width="240.91" height="127.23"/><rect x="106.22" y="194.37" width="240.91" height="19.03"/><path class="cls-6" d="M226.89,231.25a5.77,5.77,0,1,1,5.77-5.77,5.79,5.79,0,0,1-5.77,5.77" transform="translate(0 -0.01)"/><path class="cls-6" d="M337.89,205.75H140.24a1.87,1.87,0,0,1,0-3.73H337.89a1.87,1.87,0,0,1,0,3.73" transform="translate(0 -0.01)"/><path class="cls-2" d="M239.06,202v3.74H140.24a1.87,1.87,0,0,1,0-3.73h98.82Z" transform="translate(0 -0.01)"/><path class="cls-6" d="M239.11,207.25a3.37,3.37,0,1,0-3.36-3.37,3.36,3.36,0,0,0,3.36,3.37" transform="translate(0 -0.01)"/><path class="cls-6" d="M129.64,205.62a7.5,7.5,0,1,0-9,5.58,7.5,7.5,0,0,0,9-5.58" transform="translate(0 -0.01)"/><path class="cls-2" d="M121.21,200.52l4.11,3.17a.24.24,0,0,1,0,.39l-4.11,3.18a.25.25,0,0,1-.4-.2v-6.34a.25.25,0,0,1,.4-.2" transform="translate(0 -0.01)"/><path d="M1.36,292.59H452.67v-2.72H1.36Zm451.31,0a1.36,1.36,0,0,0,0-2.72ZM1.36,289.87a1.36,1.36,0,1,0,0,2.72Z" transform="translate(0 -0.01)"/><path class="cls-5" d="M156.71,103.46H47.87A1.43,1.43,0,0,1,46.43,102V22a4.5,4.5,0,0,1,4.51-4.51H151.45a6.7,6.7,0,0,1,6.7,6.7V102a1.44,1.44,0,0,1-1.44,1.44" transform="translate(0 -0.01)"/><path class="cls-6" d="M151,99.29H53.67a2.86,2.86,0,0,1-2.85-2.85V83.63a2.86,2.86,0,0,1,2.85-2.85H151a2.86,2.86,0,0,1,2.85,2.85V96.44A2.86,2.86,0,0,1,151,99.29" transform="translate(0 -0.01)"/><path class="cls-6" d="M152.07,77.72H52.64a1.82,1.82,0,0,1-1.81-1.81V72a1.82,1.82,0,0,1,1.81-1.81h99.43A1.81,1.81,0,0,1,153.88,72v3.88a1.81,1.81,0,0,1-1.81,1.8" transform="translate(0 -0.01)"/><path class="cls-2" d="M157,14.68H47.56a1.13,1.13,0,0,0-1.13,1.13v8.38H158.16V15.81A1.14,1.14,0,0,0,157,14.68" transform="translate(0 -0.01)"/><path class="cls-6" d="M141.58,19.44a1,1,0,1,1-1-1,1,1,0,0,1,1,1" transform="translate(0 -0.01)"/><path class="cls-6" d="M146.71,19.44a1,1,0,1,1-1-1,1,1,0,0,1,1,1" transform="translate(0 -0.01)"/><path class="cls-6" d="M151.84,19.44a1,1,0,1,1-2.06,0,1,1,0,1,1,2.06,0" transform="translate(0 -0.01)"/><path class="cls-6" d="M153.88,29.79V65.18a1.08,1.08,0,0,1-1.08,1.08h-35a1.08,1.08,0,0,1-1.06-1.08V29.79a1.07,1.07,0,0,1,1.06-1.07h35a1.07,1.07,0,0,1,1.08,1.07" transform="translate(0 -0.01)"/><path class="cls-7" d="M153.88,58.55v6.63a1.08,1.08,0,0,1-1.07,1.08H135.45l.73-7.72,8.17-9Z" transform="translate(0 -0.01)"/><path class="cls-7" d="M149,66.26H117.8a1.08,1.08,0,0,1-1.07-1.08V58.55L129,45.72Z" transform="translate(0 -0.01)"/><path class="cls-7" d="M149,38.87a4.32,4.32,0,1,1-4.32-4.31A4.32,4.32,0,0,1,149,38.87" transform="translate(0 -0.01)"/><path class="cls-8" d="M110.82,32H52a1.65,1.65,0,1,1,0-3.3h58.8a1.65,1.65,0,1,1,0,3.3" transform="translate(0 -0.01)"/><path class="cls-8" d="M110.82,38.87H52a1.65,1.65,0,0,1,0-3.3h58.81a1.65,1.65,0,1,1,0,3.3" transform="translate(0 -0.01)"/><path class="cls-8" d="M110.82,45.72H52a1.65,1.65,0,1,1,0-3.3h58.81a1.65,1.65,0,1,1,0,3.3" transform="translate(0 -0.01)"/><path class="cls-8" d="M110.82,52.56H52a1.65,1.65,0,1,1,0-3.3h58.81a1.65,1.65,0,1,1,0,3.3" transform="translate(0 -0.01)"/><path class="cls-8" d="M110.82,59.41H52a1.65,1.65,0,1,1,0-3.3h58.81a1.65,1.65,0,1,1,0,3.3" transform="translate(0 -0.01)"/><path class="cls-8" d="M97,66.25H52A1.65,1.65,0,1,1,52,63H97a1.65,1.65,0,0,1,1.65,1.65A1.63,1.63,0,0,1,97,66.25" transform="translate(0 -0.01)"/><path class="cls-9" d="M206.46,182.8l-11.68-20.05-18.56,1.46-5.07,4.62c-.66-.75-.5-.58-1-1.14-3.92-4.4-13.09-11.69-20.36-19.2a176,176,0,0,1-14.44-17.05l-1.47.73c0-.78,0-1.28,0-1.28l-6.53-8.74-7.92-.52-5.89,7.16.31,3.83s.09,5.89,4.69,6.48c1.38.18,4.88.85,6,1.61a22.78,22.78,0,0,1,7.39,8.55c5.19,10.17,12.75,24.69,19.87,37.13a14.08,14.08,0,0,0,.81,1.33c2.47,3.94,10.14,15.34,16.4,15.87,7.58.64,37.49-20.79,37.49-20.79" transform="translate(0 -0.01)"/><path d="M233.07,77.11s2.5-3.73,5.93-4.62-3.77,8-3.77,8a8.42,8.42,0,0,1-2.16.72,25.24,25.24,0,0,1,0-4.08" transform="translate(0 -0.01)"/><path d="M297,50.49s24.47,8.79-4.67,34L288,83.19Z" transform="translate(0 -0.01)"/><path d="M244.51,39.87S237.66,52.6,242.37,61l10.9-14.14" transform="translate(0 -0.01)"/><path class="cls-9" d="M247.81,50.1a32.21,32.21,0,0,0,8.45,2.19c6.33.77,19.11,2,23.39,6.69a11.85,11.85,0,0,1,2.86,5.29c1.05,3.66-2.38-12.44-2.38-12.44l-19.46-9.54a23.62,23.62,0,0,0-12.86,7.81" transform="translate(0 -0.01)"/><path class="cls-9" d="M286.18,87.24c-.34,1-.59,1.83-.77,2.54-.46.39-.87.73-1.18,1,.45-.83.87-1.67,1.25-2.49.23-.35.46-.71.7-1.06m.74,5c6.29,1.21,9.24-8.72,7.52-11.38-1.88-2.89-4-2.5-4-2.5-1.79,1.93-3.41,6.49-4.21,8.74l-.27.14c5.76-12.91,5.8-25.87,1.06-34.66-3.46-6.42-11.74-10.14-19.89-10.73a21.59,21.59,0,0,0-6.48.48,23.61,23.61,0,0,0-12.85,7.82q-.45.54-.87,1.08L245,53.73c-.25.34-.48.66-.71,1a21.46,21.46,0,0,0-2.76,5.8,20.57,20.57,0,0,0-.78,3.3,21.94,21.94,0,0,1-4.46,10.46c-5.46,6.73-11,18.81-3.82,30.25,3.17,5,10.05,7.78,17.83,7.93a47.93,47.93,0,0,1,.85,5,56.37,56.37,0,0,1,.33,7.42l-16.39,1.58A47.63,47.63,0,0,0,262.39,143c27.1-.51,31.72-15.44,31.72-15.44L279,124.18s-.45-19.78,7.95-32" transform="translate(0 -0.01)"/><path d="M244.76,18.13c-2.06.4-3.94,4.65-4.78,6.55a15.85,15.85,0,0,0,1.74,16.56c6,8.28,18.87,8.29,28.5,10.77,8.55,2.21,12.82,7.72,12.26,14a6.36,6.36,0,0,0,1.59,4.73l.18.21a5.15,5.15,0,0,1,1.17,4.42c-1,5-4.14,15.17-11.87,17.44-6.67,2-9.41-.53-10.5-1.37-3.88-3-6.08-6.22-13.65-9.92-3.94-1.93-8.18-1.65-13.72-2.46-1-.15-2.44-.28-2.6-2,0,0-12.06,14.15-3.63,28.86a15.37,15.37,0,0,0,9.76,7.36,39.88,39.88,0,0,0,26-2.79c17.92-8.1,23.83-26.59,26.22-32.41s8.58-21.48,4-35.9c-2.86-8.91-11.89-16.43-26.65-17.1-10.28-.46-17.89-8.19-24-7" transform="translate(0 -0.01)"/><path class="cls-10" d="M256.48,90.28a7.83,7.83,0,0,1-.77,1.15c-1.61,2.12-5.86,6.11-13.1,2.58a7.21,7.21,0,0,1-4-4.1,9,9,0,0,1,.54-6.36A55,55,0,0,0,245.53,87a32.14,32.14,0,0,0,10.54,3.22l.41,0" transform="translate(0 -0.01)"/><path class="cls-11" d="M256.26,89.62l-.19.64-.36,1.18c-1.61,2.12-5.86,6.11-13.1,2.58a7.21,7.21,0,0,1-4-4.1,9.43,9.43,0,0,1,6-2.87h4.87Z" transform="translate(0 -0.01)"/><path class="cls-6" d="M239.55,83.55s-2,2.53-2,3.25c0,1.12,13.35,7.38,14.06,7.43s2-2.53,2-2.53l-5.41-3.22" transform="translate(0 -0.01)"/><path d="M240.22,56.49a3.59,3.59,0,0,0-.35,1,1.93,1.93,0,0,0,1.38,2.32c2.49.89,10.08,3.9,10.08,3.9.8.46.81-.39.55-.91-1-2.09-2-4.68-9.17-7.11-1-.34-2.06-.22-2.49.75" transform="translate(0 -0.01)"/><path d="M275.87,70.85c-.3.72,0,.08-.52,1a1.94,1.94,0,0,1-2.63.59c-2.37-1.2-9.78-4.64-9.78-4.64-.87-.26-.27-.86.28-1C265.41,66,268,65,274.7,68.52c.94.5,1.57,1.35,1.17,2.33" transform="translate(0 -0.01)"/><path d="M236.47,84s4.21,5.35,10,3.72c0,0,.06,4.37,9.88,5.81l.86-3.43s-6.32-3.36-6.74-3.11-6.41-1.6-7.56-1.82-5-3.27-5-3.27Z" transform="translate(0 -0.01)"/><path class="cls-9" d="M291.38,81.73s-3.57,5.08-3,7.29c0,0,.14-1.28,3.42-1.27,0,0,2.11-3,1.06-5.15a1.35,1.35,0,0,0-1.46-.87" transform="translate(0 -0.01)"/><path d="M263.28,72.47c-1.12,1.83-1.59,3.81.24,5.26a1.78,1.78,0,0,0,2.12-.22,7,7,0,0,0,1.6-2.35c1.26-2.37-2.53-5-4-2.69" transform="translate(0 -0.01)"/><path class="cls-6" d="M263.59,73.54c-.29.47-.41,1,.06,1.38a.47.47,0,0,0,.56-.06c.24-.23.18-.47.32-.75a.55.55,0,0,0-.94-.57" transform="translate(0 -0.01)"/><path d="M243.74,65.87c-.92,1.41-1.34,3,.08,4.16a1.37,1.37,0,0,0,1.67-.12,6.44,6.44,0,0,0,1.28-2c1-1.86-1.84-3.81-3-2" transform="translate(0 -0.01)"/><path class="cls-6" d="M244,66.72c-.24.37-.35.77,0,1.09a.38.38,0,0,0,.44,0c.2-.18.15-.38.27-.59a.43.43,0,0,0-.73-.47" transform="translate(0 -0.01)"/><path class="cls-9" d="M135.58,131.84s-9.36-20.13-15.9-24.86a2.64,2.64,0,0,0-2,3.15c.27,2.8,4.24,6.23,4.41,8.85s-1.58,2.25-3.74,1.75-18.18-9.41-19.76-8.63,0,2.46,1.17,3.37,9.67,6.28,9.67,6.28S94,113.29,92.84,116.23c-.75,1.91,13.57,9.26,13.57,9.26s-12.3-6.89-12.87-4.33c-.48,2.19,9.95,7.07,9.95,7.07s-6.44-3.37-6.92-1.89c-.62,1.87,8.33,6.73,10.92,8.42s8.9,4.41,11.41,4.34,4.35-.31,5.73,1.09" transform="translate(0 -0.01)"/><polygon class="cls-6" points="298.4 170.07 300.63 194.07 312.21 194.07 310.16 178.43 298.4 170.07"/><polyline class="cls-9" points="332.95 166.29 343.41 194.07 312.21 194.07 307.04 182.79"/><path class="cls-6" d="M340,180.8s-3.44-9.09-10.77-25.78c-4.47-10.2-7.39-17-11-20.55-7.07-7-30.52-10.5-31-10.58-1-.27-1.94-.49-2.71-.67a7.4,7.4,0,0,1-4.27-2.83l-1.15-1.57c-6.38,9.63-12.17,10.61-12.17,10.61-.47.07-4.1,8.32-4.59,8.34-1.66,0-1.78-7.85-3.11-8.4-4.89-2.52-7.89-9.48-7.89-9.48a7.41,7.41,0,0,1-5.76,3.84c-2.79.27-24.34,1.53-28.83,4.64-9.37,6.5-26.57,22.1-40.6,35.86.2,0,14.61,12.46,21.21,25.56l20.21-12.37c.39,5.83.65,11.73.65,16.68H312.2l-1-3.75c15.37-.18,28.86-9.55,28.86-9.55" transform="translate(0 -0.01)"/><path class="cls-6" d="M239.85,65.19c1.44-3.58,5.18-5.32,8.26-4.08l.51-1.26c-3.9-1.57-8.36.68-10,4.83Zm3.1,8.67c-3.07-1.24-4.55-5.08-3.1-8.67l-1.27-.51c-1.67,4.16,0,8.87,3.86,10.45Zm8.26-4.08c-1.45,3.59-5.18,5.33-8.26,4.08l-.51,1.27c3.9,1.57,8.36-.68,10-4.83Zm-3.1-8.67c3.07,1.25,4.55,5.09,3.1,8.67l1.27.52c1.68-4.16,0-8.87-3.86-10.45Z" transform="translate(0 -0.01)"/><path class="cls-6" d="M258.28,72.68c1.44-3.58,5.17-5.32,8.25-4.08l.51-1.26c-3.89-1.58-8.35.68-10,4.83Zm3.1,8.67c-3.08-1.24-4.55-5.09-3.1-8.67L257,72.17c-1.68,4.15,0,8.87,3.86,10.44Zm8.26-4.08c-1.45,3.58-5.18,5.32-8.26,4.08l-.51,1.26c3.9,1.58,8.35-.67,10-4.83Zm-3.11-8.67c3.08,1.25,4.56,5.09,3.11,8.67l1.26.51c1.68-4.15,0-8.87-3.86-10.44Z" transform="translate(0 -0.01)"/><path class="cls-6" d="M252,69.54l.07.68h.57a6.47,6.47,0,0,1,1.42.19A4.24,4.24,0,0,1,257,72.73l1.23-.57a5.56,5.56,0,0,0-3.83-3.08,8.53,8.53,0,0,0-1.72-.24H252l.08.68" transform="translate(0 -0.01)"/><path class="cls-6" d="M270.49,77.49l20.94,1.32.09-1.36-20.94-1.32Zm20.94,1.32a.68.68,0,0,0,.73-.63.69.69,0,0,0-.64-.73Zm-20.85-2.68a.7.7,0,0,0-.73.64.68.68,0,0,0,.64.72Z" transform="translate(0 -0.01)"/><path class="cls-6" d="M223.4,194.08h-5.12c0-5-.27-10.85-.66-16.68l4.15-2.33s1.76,13.73,1.63,19" transform="translate(0 -0.01)"/><path class="cls-12" d="M247.44,77.83a2,2,0,0,0,.18,1.45,4.19,4.19,0,0,0,.77,1,7.6,7.6,0,0,0,.79.71l.26.19.08.06h0a4.29,4.29,0,0,0,.38-.57l.37-.57h0l-.06,0L250,80a6,6,0,0,1-.64-.57,3.12,3.12,0,0,1-.52-.71.69.69,0,0,1-.1-.5Zm6.7-6.25-.42-.54h0l-.05,0-.18.14-.63.51c-.53.44-1.24,1.05-2,1.72a25.32,25.32,0,0,0-2.11,2.17,6.32,6.32,0,0,0-1.33,2.2l1.31.35a5.26,5.26,0,0,1,1.06-1.67,24,24,0,0,1,2-2.05c.7-.65,1.39-1.24,1.9-1.67l.62-.5.17-.13,0,0h0Zm-4.58,9.73a.68.68,0,1,0,.74-1.14ZM248.1,78l.65.18h0Zm6.46-5.89a.67.67,0,0,0,.12-1,.68.68,0,0,0-1-.12Z" transform="translate(0 -0.01)"/><path class="cls-9" d="M103.82,218.59s2.24,7.81-6.16,7.81a6.86,6.86,0,0,1-3-.73c-3.1-1.49-3.82-6.7-3.82-6.7,2.62-.67,1.71-4.46,1.71-4.46l9.33.21s-.47,2.44.22,3.14c1.19,1.21,1.77.73,1.77.73" transform="translate(0 -0.01)"/><path d="M91.32,218.38s-.52,6.92,6,6.92c5.9,0,6-4.58,5.53-7.11,6.73.6,14.1,3.32,17.87,6.41,4.46,5.77,7.55,14.59,7.55,14.59a34.86,34.86,0,0,1-4.19,1.62,17.21,17.21,0,0,0-3.82,1.66l-2.64,35.64H76.37l-.71-35.66s-2.71-.65-4.9-1.37A14.17,14.17,0,0,1,66.34,239a74.88,74.88,0,0,1,6.21-13.31c3.81-3.5,10.9-6.39,18.77-7.31" transform="translate(0 -0.01)"/><path class="cls-9" d="M67.09,239.42S63.16,253.33,63.52,260s16.07,15.95,16.07,15.95l2.06-7s-6.53-2.78-7.5-7.85,4.52-17.81,4.52-17.81-2.42-.7-5.74-1.61a34.52,34.52,0,0,1-5.84-2.22" transform="translate(0 -0.01)"/><path class="cls-9" d="M127.78,239.42s3.93,13.91,3.56,20.56-16.07,15.95-16.07,15.95l-2-7s6.53-2.78,7.49-7.85-4.7-18.12-4.7-18.12,2.61-.58,5.92-1.49a47.78,47.78,0,0,0,5.85-2" transform="translate(0 -0.01)"/><path class="cls-2" d="M122.65,278.7h-51l-1.16-31.94A1.46,1.46,0,0,1,72,245.25h50.36a1.46,1.46,0,0,1,1.46,1.51Z" transform="translate(0 -0.01)"/><path d="M118.57,286a5,5,0,0,1,3.61-1.35c1.63,0,6.26,1,8.48,1s4.51-.53,5.78,1.37c2.16,3.2,1.22,6.08-2.4,6.52-2,.23-3.59-1.07-6.73-.76s-7.76-.72-9.14-2.88" transform="translate(0 -0.01)"/><path class="cls-9" d="M114.29,284.51a24.25,24.25,0,0,0,4.07.78c1.62.09,5.26-.31,6.9.72s1.12,4.15,0,4.88c-1.82,1.15-3.3.55-6.63-.5a20.81,20.81,0,0,0-7.24-.65" transform="translate(0 -0.01)"/><path class="cls-13" d="M119.25,291.78s-37.78-.68-47.85-2A48.11,48.11,0,0,1,59.88,287c-4.53-2.7-6.19-9.12-3.11-15,1.44-2.75,5.87-2.26,6.49-2.26h.24c12.25.47,23.42,3.6,36,8.65A145.69,145.69,0,0,0,120.24,285c.66,4.81-1,6.82-1,6.82" transform="translate(0 -0.01)"/><path d="M128.35,287.64s-1-.55-1.34,0a8.94,8.94,0,0,0-.34,3.55c.31.7,1.78.45,1.78.45l1.2-3.23Z" transform="translate(0 -0.01)"/><path d="M76.5,286.05a5.11,5.11,0,0,0-3.74-1.41c-1.7-.05-6.52,1-8.81,1s-4.56-.55-6,1c-2.76,2.91-.19,6.55,3.58,7,2,.25,2.65-.93,5.9-.6s8.07-.71,9.51-3" transform="translate(0 -0.01)"/><path class="cls-9" d="M81,284.52a24.45,24.45,0,0,1-4.22.79c-1.68.09-5.46-.35-7.17.72s-1.18,4.31,0,5.06c1.88,1.21,3.42.59,6.89-.49A21.72,21.72,0,0,1,84,290" transform="translate(0 -0.01)"/><path class="cls-13" d="M135.4,286.83a46.09,46.09,0,0,1-12.18,3.06c-10.07,1.29-47.87,1.83-47.87,1.83s-1.64-2-1-6.85a144.47,144.47,0,0,0,20.75-6.55c12.35-4.86,23.31-7.95,35.23-8.49,2.33.23,5,1.26,6.93,5.26,2.54,5.27.57,10.8-1.9,11.74" transform="translate(0 -0.01)"/><path d="M68.45,286.43s1.28-.7,1.7.06a11.19,11.19,0,0,1,.43,4.53c-.4.89-2.28.57-2.28.57l-1.51-4.12Z" transform="translate(0 -0.01)"/><path d="M108.11,196.37s3.5-.36-.47,8.71c-1.5,3.42-2,3.2-2.06,3.36a3.28,3.28,0,0,1-1.34-1.72c0-.57.06-5.05.12-5.29s3.75-5.06,3.75-5.06" transform="translate(0 -0.01)"/><path d="M87.48,198.43s-2.71-.75-1.61,4.66a10.62,10.62,0,0,0,2.69,5.34,3.28,3.28,0,0,0,1.34-1.72c0-.57-.06-5.05-.11-5.29s-2.31-3-2.31-3" transform="translate(0 -0.01)"/><path class="cls-9" d="M88.21,205.2s-1.14-1.11-1.47.37.88,5.32,2.41,3.84" transform="translate(0 -0.01)"/><path class="cls-9" d="M106,205.2s1.14-1.11,1.47.37-.88,5.32-2.41,3.84" transform="translate(0 -0.01)"/><path class="cls-9" d="M97.44,217h-.09c-1.06.06-10.55.15-9.36-17.1h18.09S108.27,216,97.44,217" transform="translate(0 -0.01)"/><path d="M103.62,190.22a6.47,6.47,0,0,1,3.92,8.72c-1.68,3.4-7.09,5.39-13.15,4.1-3.57-.76-4.7-2.2-6.84-2.09a3.79,3.79,0,0,1-3.72-2.46c-.77-2.09-1.24-4.92.94-6.62,5.9,1.72,13.74-3.16,18.85-1.65" transform="translate(0 -0.01)"/><path class="cls-6" d="M100.08,260.94a3.29,3.29,0,1,1-3.28-3.28,3.28,3.28,0,0,1,3.28,3.28" transform="translate(0 -0.01)"/><path class="cls-9" d="M92.64,215.58a7.42,7.42,0,0,0,1.35.66,7.67,7.67,0,0,0,3.17.53,8.49,8.49,0,0,0,1.72-.24,11.1,11.1,0,0,0,1.46-.45,10.2,10.2,0,0,0,1.37-.62,6.39,6.39,0,0,1-1.26.85,7.74,7.74,0,0,1-1.47.61,6.91,6.91,0,0,1-1.79.3,6.74,6.74,0,0,1-1.82-.18,6.63,6.63,0,0,1-1.48-.57,5.09,5.09,0,0,1-1.25-.89" transform="translate(0 -0.01)"/><path d="M93.28,207.18c.07.61.12,1.35-.55,1.43a.7.7,0,0,1-.69-.39,2.25,2.25,0,0,1-.08-.88c0-.78,1.23-1,1.32-.16" transform="translate(0 -0.01)"/><path class="cls-6" d="M93,207.7c0,.16,0,.31-.16.37a.12.12,0,0,1-.14-.07c0-.09,0-.15,0-.23a.16.16,0,0,1,.31-.07" transform="translate(0 -0.01)"/><path d="M101.57,207.18c.07.61.13,1.35-.55,1.43a.7.7,0,0,1-.69-.39,2.25,2.25,0,0,1-.08-.88c0-.78,1.24-1,1.32-.16" transform="translate(0 -0.01)"/><path class="cls-6" d="M101.26,207.7c0,.16,0,.31-.16.37A.12.12,0,0,1,101,208c0-.09,0-.15,0-.23s.27-.27.31-.07" transform="translate(0 -0.01)"/><path d="M102.58,204.91a.71.71,0,0,1,0,.21c0,.21-.18.34-.45.34-.69,0-2.78.12-2.78.12-.22,0-.19-.13-.11-.21.34-.32.71-.74,2.68-.75.27,0,.54.09.61.29" transform="translate(0 -0.01)"/><path d="M91,204.91a.71.71,0,0,0,0,.21c0,.21.18.34.45.34.68,0,2.78.12,2.78.12.22,0,.19-.13.11-.21-.34-.32-.72-.74-2.68-.75-.28,0-.54.09-.61.29" transform="translate(0 -0.01)"/><path class="cls-9" d="M96,210.61a1,1,0,0,0,.44.32,2.92,2.92,0,0,0,.46.13,3.43,3.43,0,0,0,.39,0h.17v-.68h-.13l-.32,0-.33-.09a.33.33,0,0,1-.14-.09Zm.82-2.29-.31-.14h0v0l0,0c0,.05,0,.13-.09.21s-.16.41-.25.66a4.21,4.21,0,0,0-.21.75,2.21,2.21,0,0,0,0,.35.73.73,0,0,0,.12.38l.55-.4s0,.06,0,0a1.26,1.26,0,0,1,0-.21,4.69,4.69,0,0,1,.18-.65c.08-.23.17-.45.24-.61l.09-.2s0,0,0,0v0h0Zm.64,2.79a.33.33,0,0,0,.34-.33.34.34,0,0,0-.33-.35Zm-.33-2.64a.34.34,0,0,0-.62-.29Z" transform="translate(0 -0.01)"/><path class="cls-9" d="M94.68,213.32l-.17.3h0l0,0,.09.05.34.15a5.72,5.72,0,0,0,1.17.35,4.49,4.49,0,0,0,3.48-.71l-.4-.56a3.74,3.74,0,0,1-3,.6,4.34,4.34,0,0,1-1-.31l-.29-.13-.07,0h0Zm4.95.16a.36.36,0,0,0,.08-.48.35.35,0,0,0-.48-.08ZM94.86,213a.34.34,0,0,0-.47.12.34.34,0,0,0,.12.47Z" transform="translate(0 -0.01)"/><path d="M289.32,288.63V221.3a.27.27,0,0,0-.27-.27h-1.63a.27.27,0,0,0-.27.27v67.33a1,1,0,0,0-.75.93,1,1,0,0,0,1,1h1.74a1,1,0,0,0,.21-1.89" transform="translate(0 -0.01)"/><path d="M422.89,288.59h-.05V221h-2.18v67.55h-.05a.69.69,0,0,0-.69.69v.55a.69.69,0,0,0,.69.69h2.29a.7.7,0,0,0,.7-.69v-.55a.71.71,0,0,0-.71-.69" transform="translate(0 -0.01)"/><path d="M439.84,221.7H268.12a2,2,0,0,1,0-4H439.84a2,2,0,1,1,0,4" transform="translate(0 -0.01)"/><path d="M359.67,215.41H310.11l-9.82-30.85a2.42,2.42,0,0,1,2.3-3.14H347.1a2.41,2.41,0,0,1,2.3,1.68Z" transform="translate(0 -0.01)"/><path class="cls-6" d="M358.67,215.41H311.74l-9.87-31.33a.91.91,0,0,1,.86-1.18h45a1,1,0,0,1,1,.71Z" transform="translate(0 -0.01)"/><path class="cls-5" d="M329.1,187.77H307.48a.58.58,0,0,1-.59-.58.59.59,0,0,1,.59-.59H329.1a.59.59,0,0,1,.58.59.58.58,0,0,1-.58.58" transform="translate(0 -0.01)"/><path class="cls-5" d="M332.44,190.46H308.33a.58.58,0,0,1-.58-.58.59.59,0,0,1,.58-.59h24.11a.59.59,0,0,1,.58.59.58.58,0,0,1-.58.58" transform="translate(0 -0.01)"/><path class="cls-5" d="M330.21,193.16h-21a.59.59,0,0,1-.59-.58.6.6,0,0,1,.59-.59h21a.59.59,0,0,1,.59.59.58.58,0,0,1-.59.58" transform="translate(0 -0.01)"/><path class="cls-5" d="M326.71,195.86H310.07a.58.58,0,1,1,0-1.16h16.64a.58.58,0,1,1,0,1.16" transform="translate(0 -0.01)"/><path class="cls-5" d="M335.06,198.55H311a.58.58,0,0,1-.58-.58.59.59,0,0,1,.58-.59h24.11a.59.59,0,0,1,.58.59.58.58,0,0,1-.58.58" transform="translate(0 -0.01)"/><path class="cls-5" d="M332.81,201.25h-21a.58.58,0,0,1-.59-.58.59.59,0,0,1,.59-.59h21a.6.6,0,0,1,.59.59.59.59,0,0,1-.59.58" transform="translate(0 -0.01)"/><path class="cls-5" d="M337.64,206.64H313.53a.58.58,0,0,1-.58-.58.59.59,0,0,1,.58-.59h24.11a.59.59,0,0,1,.58.59.58.58,0,0,1-.58.58" transform="translate(0 -0.01)"/><path class="cls-5" d="M338.52,209.34h-24.1a.58.58,0,0,1-.59-.58.59.59,0,0,1,.59-.59h24.1a.59.59,0,1,1,0,1.17" transform="translate(0 -0.01)"/><path class="cls-7" d="M351.34,209.34h-7.79a1.65,1.65,0,0,1-1.58-1.16l-6.49-20.55a1.67,1.67,0,0,1,1.58-2.16h7.79a1.64,1.64,0,0,1,1.58,1.16l6.49,20.55a1.66,1.66,0,0,1-1.58,2.16" transform="translate(0 -0.01)"/><path d="M363.82,217.65h-53.9a1.59,1.59,0,0,1,0-3.18h53.9a1.59,1.59,0,0,1,1.59,1.59,1.58,1.58,0,0,1-1.59,1.59" transform="translate(0 -0.01)"/><path d="M372,169.59a.59.59,0,0,0-.29.07l-4.35,2.3a.65.65,0,0,0-.31.38.61.61,0,0,0,.06.49l1.56,2.75a.63.63,0,0,0,.85.25l4.28-2.32a.61.61,0,0,0,.3-.37.64.64,0,0,0-.05-.49l-1.48-2.73a.67.67,0,0,0-.57-.33m-2.78,6.85a1.19,1.19,0,0,1-1-.59l-1.56-2.75a1.17,1.17,0,0,1-.11-.91,1.14,1.14,0,0,1,.59-.72l4.35-2.29a1.18,1.18,0,0,1,1.58.47l1.48,2.73a1.17,1.17,0,0,1,.09.9,1.14,1.14,0,0,1-.56.69l-4.27,2.32a1.07,1.07,0,0,1-.56.15" transform="translate(0 -0.01)"/><path class="cls-9" d="M361,200.41c-.35.44-.62.73-.62.73A21.58,21.58,0,0,0,357,199a10.1,10.1,0,0,0-3.16.44c-1.42.29-.84-.87-.84-.87s-1,.34-1.79.68-2,1.19-2.25,1.26c-.54.13-1.09-.14-.57-.91a26.5,26.5,0,0,1,5-4.64c1.09-.52,2.57-1.27,3.76-.83a40.61,40.61,0,0,1,5.06,3.35,4.87,4.87,0,0,1-1.24,2.95" transform="translate(0 -0.01)"/><path d="M360,201.14s12.82,11.22,22.42,12.35,25.77-17.05,25.77-17.05-1-9.69-7-8.55-14,15.55-17.47,16.22-21.54-7-21.54-7a4.94,4.94,0,0,0-1.12,1.38,12.25,12.25,0,0,0-1.06,2.63" transform="translate(0 -0.01)"/><path class="cls-9" d="M388.48,157.34c-3.06-3.5-7.58-3.88-11.07-3.49a11.56,11.56,0,0,0-9.88,8,10.24,10.24,0,0,0,.21,6.6c2.85,7.86,5.87,12.19,8.2,14.33,1,.93,3.18-.35,5.34-1.1a.63.63,0,0,1,.75.28l1.24,2.29,8.93-1.83a30.83,30.83,0,0,1-1.88-5.18c1.15-1.48,3.75-13.5-1.84-19.91" transform="translate(0 -0.01)"/><path d="M372.21,168.56a2.3,2.3,0,0,1,2.34,1.37c.67,1.57,1.68,3.78,2.49,4.5a.8.8,0,0,0,.89,0,.68.68,0,0,0,.4-.68,19.32,19.32,0,0,0-.93-3.13A2.11,2.11,0,0,1,379,167.7a3.73,3.73,0,0,1,1.31.08c2.38.72.74,4.45.7,6.39,0,1.37,1.61,4.56,2.33,4.84a7.45,7.45,0,0,0,7.93-2.29c1.93-2.37,2.34-10.3,1.29-15.05s-4.84-7.42-6.1-7.73a4.32,4.32,0,0,0-1.49-.11,1.38,1.38,0,0,1-1.05-.34c-1.26-1.1-5-3.62-11-1a13.85,13.85,0,0,0-8.58,13.22c.1,2,1.69,1.87,2.79,1.52a1.82,1.82,0,0,1,1.75.39,4.44,4.44,0,0,0,3.37,1" transform="translate(0 -0.01)"/><path d="M381.71,185.47s-.8-.89-.5-1.43,4.43-3.88,9.15-3.71c.73,0,1.63,0,2.52,1.94a14.65,14.65,0,0,1,1.09,3.2Z" transform="translate(0 -0.01)"/><path d="M402.77,242.66c-.28.07-.59.14-.92.2a79.76,79.76,0,0,1-10.54.84c-12.86-.24-18.57-7.17-20.67-10.75a14.23,14.23,0,0,1-1-2.1,11.8,11.8,0,0,0,4.28-5.91c1-3.2-.06-10.8-1.72-13.7-.91-1.59-3.61-4.83-5.32-8.22-1.39-2.8-2.11-5.73-.59-8a28.54,28.54,0,0,1,9.75-8.51s10.95-4.39,20.28-3.4c5.91.62,11.18,3.4,12.59,10.86,3.64,19.18-6.11,48.64-6.11,48.64" transform="translate(0 -0.01)"/><path class="cls-9" d="M375.85,280.64a4.19,4.19,0,0,1-2.31,1.3,4.06,4.06,0,0,1-2.68-.5l-.72-2.07,4.94-1.08Z" transform="translate(0 -0.01)"/><path class="cls-9" d="M350,283.2a4.26,4.26,0,0,1-2.49.92,4.14,4.14,0,0,1-2.58-.92l-.38-2.16h5.07Z" transform="translate(0 -0.01)"/><path class="cls-13" d="M375.85,278.3c-.32.15-1.31.56-1.66.68-1.86.62-4.52,1.17-4.52,1.17-4.24-9.18-11.18-32.27-11.18-32.27-1-4.08,1.95-5.73,4.5-5.89a5.3,5.3,0,0,1,2.34.35c2.44,1,6,7.93,6,7.93a42.31,42.31,0,0,1,2.23,7.31c1.14,4.93,2.27,20.72,2.27,20.72" transform="translate(0 -0.01)"/><path class="cls-13" d="M385.43,243.05c0,2.32-.64,6-4.12,7.07-5.19,1.56-9,.68-15-.36-5-.86-13-3.82-15.43-4.74-.32-.12-.27,0-.2.37,1.15,5.62-.71,36-.71,36a16.18,16.18,0,0,1-1.71.4,7,7,0,0,1-1,.09c-1.31,0-3.71-.24-3.71-.24s-4.61-21.41-5.34-33.39,0-13.83,5.69-15.8c6.32-2.19,25.77-1.61,25.77-1.61h0a18.68,18.68,0,0,0,5.47,7.34,23.11,23.11,0,0,0,10.31,4.84" transform="translate(0 -0.01)"/><path class="cls-2" d="M391.32,255.23V286a2,2,0,0,1-2,2,2,2,0,0,1-1.18-.38,2,2,0,0,1-.8-1.6V255.23Z" transform="translate(0 -0.01)"/><path class="cls-2" d="M391.32,256.56V285.9A2.13,2.13,0,0,1,389.6,288a2,2,0,0,1-1.27-.25l-.2-.37V257.38a.82.82,0,0,1,.82-.82Z" transform="translate(0 -0.01)"/><path class="cls-2" d="M393.83,254.19a1.49,1.49,0,0,1-.06.43,1.71,1.71,0,0,1-1.65,1.29h-5.91a1.72,1.72,0,0,1-1.71-1.72,1.72,1.72,0,0,1,1.71-1.71h5.91a1.71,1.71,0,0,1,1.71,1.71" transform="translate(0 -0.01)"/><path class="cls-2" d="M393.77,254.62a1.71,1.71,0,0,1-1.65,1.29h-5.65a1.63,1.63,0,0,1,.44-.79,1.76,1.76,0,0,1,1.21-.49h5.65Z" transform="translate(0 -0.01)"/><path class="cls-2" d="M414.89,200.54s0,0,0,.05c0,.18-.06.36-.1.58-.48,2-2.18,5.94-2.42,11.83-.16,3.62,0,13.22-.18,19h0q0,1.31-.09,2.31c-.31,5.14-2.07,12.75-7.43,16.6-5.45,4.09-16.41,3.39-23.06,3.24s-23.14-3.16-24.46-5.62a2.14,2.14,0,0,1-.31-1.41v0a1.81,1.81,0,0,1,.51-.95,2.59,2.59,0,0,1,2.43-.6c2.69.67,10.68,2.22,14.28-2.35,4.35-5.52,3.81-11.9,5.67-25.34,1.76-12.73,5.73-16.63,12.3-19.16,7-2.7,18.31-1.55,21.12-.7a2.42,2.42,0,0,1,1.74,2.5" transform="translate(0 -0.01)"/><path class="cls-2" d="M412.35,289.78a.72.72,0,0,1-.72.72H367a.72.72,0,0,1-.73-.72.73.73,0,0,1,.62-.72l22.41-3.63,5.64.91,16.77,2.72a.74.74,0,0,1,.6.72" transform="translate(0 -0.01)"/><path d="M344.91,283.2a8.19,8.19,0,0,0,2.56.53,6.16,6.16,0,0,0,2.52-.53s2.6,3.3,1.22,7a.5.5,0,0,1-.47.32H333.32a.39.39,0,0,1-.4-.37c0-.43.18-1.11,1.23-1.44,1.61-.49,3.27-.77,4.52-1.21s3-2.27,4-2.61a5.41,5.41,0,0,0,2.21-1.68" transform="translate(0 -0.01)"/><path d="M370.84,281.45a8.26,8.26,0,0,0,2.61.12,6.33,6.33,0,0,0,2.41-.93s3.09,2.85,2.31,6.71a.51.51,0,0,1-.42.39s-9.18,2.06-12.3,2.51a44.38,44.38,0,0,1-4.89.27.43.43,0,0,1-.46-.32,1.46,1.46,0,0,1,1-1.61c1.51-.75,3.11-1.27,4.26-1.9s2.63-2.73,3.57-3.22a5.4,5.4,0,0,0,1.93-2" transform="translate(0 -0.01)"/><path class="cls-9" d="M335.89,216s-1.79-.73-2.72-1.07c-.38-.13-.73-.22-1-.29a5.65,5.65,0,0,0-1.23-.13H320.78a.52.52,0,0,1-.52-.53,1.16,1.16,0,0,1,.52-1l1.09-.71,3.26-2.1a6.4,6.4,0,0,1,4.69-.94,19.46,19.46,0,0,1,2,.7c1.9.62,2.31.91,3.57,1.36a8.47,8.47,0,0,0,1.07.32,1,1,0,0,0,.43,0,6.13,6.13,0,0,1-1,4.33" transform="translate(0 -0.01)"/><path d="M375.62,191.73c-1.33-.81-5.35-3-10.54,5s-6.77,11.54-8.27,14c-1.81,1.09-20.09.63-20.09.63A16.43,16.43,0,0,0,335.4,216,66.37,66.37,0,0,0,358,221.71c10,0,20.25-19.5,20.71-21.94s.09-6.1-3.08-8" transform="translate(0 -0.01)"/><path d="M367.21,174.59a.26.26,0,0,1-.24-.15.27.27,0,0,1,.12-.37l10.1-5.18c1.14-.58,3.49-1.78,5.22.77a.27.27,0,0,1-.44.3c-1.35-2-3-1.38-4.51-.59l-10.12,5.19-.13,0" transform="translate(0 -0.01)"/><path class="cls-9" d="M377.16,169.43l1.33,4.26a1.35,1.35,0,0,0,2-.15c1-1.15,1.87-5.15,0-5.81a2.4,2.4,0,0,0-3.41,1.7" transform="translate(0 -0.01)"/><path class="cls-2" d="M414.49,199v0a2.44,2.44,0,0,0-1.33-1c-2.82-.85-14.1-2-21.12.69-6.57,2.54-10.54,6.44-12.3,19.17-1.86,13.45-1.32,19.82-5.67,25.34-3.6,4.57-11.6,3-14.28,2.35a2.54,2.54,0,0,0-2.43.61,1.7,1.7,0,0,0-.51,1,2.09,2.09,0,0,0,.31,1.41c1.32,2.45,17.8,5.45,24.46,5.61s17.61.86,23.06-3.23c5.36-3.86,7.12-11.46,7.43-16.6q.06-1,.09-2.31c-.11.47-3.8,10.85-16.77,8.45-12.49-2.3-13.63-16-13.17-20.61.06-.5.12-1,.17-1.44.11-.86.79-4.46,1.65-7.63a15.34,15.34,0,0,1,4.92-7.63,7.53,7.53,0,0,1,1.19-.72l.4-.22c.19-.1.38-.2.61-.3l.66-.28.49-.2c10.16-4,21.07-1.39,21.78-1.28s.42-.95.37-1.14" transform="translate(0 -0.01)"/><path d="M318.14,72.82l5.32-3.49a7.17,7.17,0,0,0,3.83,1.13H353a7.14,7.14,0,0,0,7.14-7.14V55.25A7.14,7.14,0,0,0,353,48.12H327.29a7.13,7.13,0,0,0-7.13,7.13v8.07a7.06,7.06,0,0,0,1.23,4Z" transform="translate(0 -0.01)"/><polyline points="397.31 155.29 393.89 157.11 395.61 152.67"/><path d="M407.91,149.61a7.22,7.22,0,1,1-7.23-7.21,7.23,7.23,0,0,1,7.23,7.21" transform="translate(0 -0.01)"/><path class="cls-6" d="M400.31,152.11,404.2,148l-.95-.91-3.89,4.08Zm-3.17-2.77,2.19,2.73,1-.82-2.18-2.73ZM404.2,148a.66.66,0,0,0-.95-.91Zm-4.36,3.63-.51.41a.6.6,0,0,0,.48.24.63.63,0,0,0,.5-.2Zm-1.67-3.14a.66.66,0,1,0-1,.82Z" transform="translate(0 -0.01)"/><polyline class="cls-2" points="78.56 188.44 83.45 191.04 81.01 184.69"/><path class="cls-2" d="M63.41,180.33A10.33,10.33,0,1,0,73.74,170a10.33,10.33,0,0,0-10.33,10.33" transform="translate(0 -0.01)"/><path class="cls-6" d="M73.2,183.89l5.56-5.83-1.36-1.3-5.56,5.83Zm-4.55-4,3.14,3.9,1.46-1.18-3.13-3.9Zm10.11-1.87a.94.94,0,1,0-1.36-1.3Zm-6.24,5.18-.73.59a.94.94,0,0,0,1.41.06Zm-2.4-4.49a.94.94,0,0,0-1.47,1.18Z" transform="translate(0 -0.01)"/><g class="cls-14"><g class="cls-14"><g class="cls-15"><path class="cls-6" d="M66.42,4.43a.48.48,0,0,1-.48-.49V.49a.49.49,0,0,1,1,0V3.94a.49.49,0,0,1-.49.49" transform="translate(0 -0.01)"/></g></g><g class="cls-14"><g class="cls-16"><path class="cls-6" d="M68.15,2.71H64.7a.49.49,0,0,1-.48-.49.48.48,0,0,1,.48-.48h3.45a.48.48,0,0,1,.48.48.5.5,0,0,1-.48.49" transform="translate(0 -0.01)"/></g></g></g><path class="cls-6" d="M344.22,89.69V116a.81.81,0,0,1-.81.81h-26a.8.8,0,0,1-.8-.81V89.69a.81.81,0,0,1,.8-.8h26a.82.82,0,0,1,.81.8" transform="translate(0 -0.01)"/><path class="cls-7" d="M344.22,111V116a.81.81,0,0,1-.81.81H330.53l.54-5.72,6.07-6.71Z" transform="translate(0 -0.01)"/><path class="cls-7" d="M340.6,116.75H317.43a.81.81,0,0,1-.8-.81V111l9.07-9.52Z" transform="translate(0 -0.01)"/><path class="cls-7" d="M340.57,96.43a3.2,3.2,0,1,1-3.19-3.2,3.19,3.19,0,0,1,3.19,3.2" transform="translate(0 -0.01)"/><path class="cls-6" d="M343.42,121.25h-26a.79.79,0,0,1-.8-.79v-.84a.8.8,0,0,1,.8-.8h26a.8.8,0,0,1,.8.8v.84a.8.8,0,0,1-.8.79" transform="translate(0 -0.01)"/><path class="cls-6" d="M343.42,125.59h-26a.79.79,0,0,1-.8-.79V124a.79.79,0,0,1,.8-.79h26a.79.79,0,0,1,.8.79v.84a.8.8,0,0,1-.8.79" transform="translate(0 -0.01)"/><path class="cls-6" d="M327.27,65.86a.64.64,0,0,1,.64-.63h24.67a.64.64,0,1,1,0,1.27H327.91a.63.63,0,0,1-.64-.64" transform="translate(0 -0.01)"/><path class="cls-6" d="M352.58,63.16h-13a.64.64,0,0,1,0-1.28h13a.65.65,0,0,1,.64.64.64.64,0,0,1-.64.64" transform="translate(0 -0.01)"/><path class="cls-6" d="M327.27,59.19a.64.64,0,0,1,.64-.63h24.67a.64.64,0,1,1,0,1.28H327.91a.65.65,0,0,1-.64-.65" transform="translate(0 -0.01)"/><path class="cls-6" d="M352.58,56.49H334.37a.64.64,0,0,1-.63-.64.64.64,0,0,1,.63-.64h18.21a.65.65,0,0,1,.64.64.64.64,0,0,1-.64.64" transform="translate(0 -0.01)"/><path class="cls-6" d="M327.27,52.52a.64.64,0,0,1,.64-.63h24.67a.64.64,0,1,1,0,1.28H327.91a.65.65,0,0,1-.64-.65" transform="translate(0 -0.01)"/></g></g></svg>