<svg width="37" height="38" viewBox="0 0 37 38" fill="none" xmlns="http://www.w3.org/2000/svg">
<path d="M18.4933 0C8.30068 0 0 8.52503 0 18.9932C0 29.475 8.30068 37.9863 18.4933 37.9863C28.686 37.9863 36.9867 29.4613 36.9867 18.9932C36.9867 16.0922 36.3738 13.3144 35.148 10.7281C35.0148 10.4408 34.7883 10.2355 34.4951 10.126C34.202 10.0166 33.8956 10.0439 33.6291 10.1808C33.3493 10.3176 33.1494 10.5502 33.0429 10.8513C32.9363 11.1523 32.9629 11.4671 33.0961 11.7544C34.162 14.0122 34.695 16.448 34.695 18.9932C34.695 28.175 27.4202 35.6464 18.48 35.6464C9.53979 35.6464 2.26503 28.175 2.26503 18.9932C2.26503 9.81131 9.56644 2.35362 18.4933 2.35362C22.1973 2.35362 25.6748 3.59885 28.5528 5.95247C28.7926 6.14404 29.0857 6.23983 29.3921 6.19878C29.7119 6.15772 29.9784 5.99352 30.1649 5.74721C30.3515 5.5009 30.4447 5.19986 30.4048 4.88513C30.3781 4.5704 30.2315 4.29672 29.9917 4.10515C26.7407 1.45049 22.6637 0 18.4933 0Z" fill="#FF373B"/>
<path d="M22.6907 25.0824H12.085C10.726 25.0824 9.62012 23.9467 9.62012 22.5509V13.848H20.2391C21.5981 13.848 22.704 14.9838 22.704 16.3795V25.0824H22.6907Z" fill="#00D6A8"/>
<path d="M23.6895 22.1952L28.1529 25.0277V13.9164L23.6895 16.7353V22.1952Z" fill="#00D6A8"/>
</svg>
