<svg width="34" height="39" viewBox="0 0 34 39" fill="none" xmlns="http://www.w3.org/2000/svg">
<path d="M16.8045 39V16.2481C2.61215 10.2808 0.48999 0 0.48999 0V22.6401C0.48999 30.8126 16.8045 39 16.8045 39ZM20.7287 14.1473V36.7725C22.002 35.9754 23.4763 35.0069 24.9581 33.8969L24.9506 12.2848C6.33523 10.5266 0.48999 0 0.48999 0C6.83412 12.933 20.7287 14.1473 20.7287 14.1473ZM33.1191 3.46418V0C28.011 1.54957 22.5158 2.4063 16.8045 2.41375C11.0933 2.4063 5.60551 1.54957 0.48999 0C0.48999 0 12.9102 7.61375 33.1191 3.46418ZM28.8971 9.82636V30.4997C31.3022 28.0785 33.1191 25.3593 33.1191 22.6401V7.13696C30.1704 7.42006 23.8561 7.76275 17.2141 6.53352C9.3137 5.0659 4.48114 3.10659 0.48999 0C9.96896 10.0573 28.8971 9.82636 28.8971 9.82636Z" fill="#E30613"/>
</svg>
