<svg width="412" height="67" viewBox="0 0 412 67" fill="none" xmlns="http://www.w3.org/2000/svg">
<path d="M242.838 24.7068C238.183 24.7195 235.393 28.26 235.393 34.4019C235.393 39.8459 238.348 43.7671 243.307 43.7671H243.358C246.465 43.7671 248.102 42.5362 248.355 42.2951L248.381 39.0211L248.241 39.1607C248.241 39.1607 246.351 40.9373 243.751 40.8611H243.637C240.111 40.5185 238.64 37.9551 238.754 33.9578C238.792 32.435 239.363 27.562 242.825 27.562C244.322 27.562 245.451 28.4376 245.451 30.0366V30.1254H249.066V30.0366C249.066 27.524 247.429 24.7068 242.838 24.7068Z" fill="white"/>
<path d="M259.505 26.3193L261.509 22.7788L258.782 22.7153L257.678 26.3574H259.505V26.3193ZM328.885 25.0884L324.141 39.4661L324.078 39.6818L324.001 39.4661L319.765 26.2558C319.765 26.2558 319.423 25.1264 317.875 25.1264H316.176L322.238 43.2731L322.226 43.3112L322.213 43.4127H325.802L325.828 43.3619L325.853 43.2858L332.043 25.0884H328.885ZM203.9 28.5527C203.849 28.3877 203.519 27.7279 202.644 27.7279H200.209L194.856 43.4254H197.989L199.308 39.3392L199.321 39.2884H204.483V39.3392L205.802 43.4254H208.922L208.884 43.2985L203.9 28.5527ZM200.056 36.9027L201.908 31.04L203.735 36.9027H200.056ZM287.257 28.5527C287.219 28.3877 286.902 27.7279 286.014 27.7279H283.591L278.213 43.4254H281.359L282.653 39.3392L282.678 39.2884H287.84L287.866 39.3392L289.172 43.4254H292.292L292.267 43.2985L287.257 28.5527ZM283.426 36.9027L285.253 31.04L287.092 36.9027H283.426ZM341.137 29.0603C340.871 28.1593 340.465 27.7279 339.222 27.7406C339.222 27.7406 339.184 27.7406 339.158 27.7406H337.319L331.954 43.4381H335.062L336.393 39.3519L336.406 39.3011H341.581V39.3392L342.9 43.4254H346.02L345.982 43.2985L341.137 29.0603ZM337.142 36.9027L338.981 31.04L340.807 36.9027H337.142ZM364.729 27.7913H361.748V43.4381H370.715V41.0396H364.741V27.7913H364.729ZM352.134 27.7913H349.14V43.4381H358.12V41.0396H352.134V27.7913ZM391.364 39.2631C391.352 40.8366 390.781 41.395 389.221 41.4203C388.371 41.4203 387.61 41.1539 387.128 40.9889L386.862 40.9001L386.748 40.862V43.3365L386.836 43.3619C386.836 43.3619 388.003 43.6538 389.221 43.6792V43.5903V43.6792C393.47 43.6792 394.358 41.966 394.358 39.1235V27.804H391.377V39.2631H391.364ZM404.644 27.5502C400.395 27.5502 398.302 30.2278 398.302 35.6083C398.302 40.9762 400.395 43.6538 404.644 43.6538C408.868 43.6538 410.999 40.8874 411.011 35.6083C411.011 30.2912 408.881 27.5502 404.644 27.5502ZM404.644 41.4077C402.59 41.4077 401.562 39.5549 401.562 35.6083C401.562 31.6237 402.59 29.7836 404.644 29.7836C406.724 29.7836 407.752 31.6237 407.752 35.6083C407.752 39.5676 406.724 41.4077 404.644 41.4077ZM97.6864 38.4001L92.6003 28.6796C92.5876 28.6669 92.1056 27.7532 90.9768 27.7659H88.6049V43.4H91.3826V32.1821L97.2045 43.4H100.464V27.7786H97.6864V38.4001ZM105.576 43.4127H108.556V27.7786H105.576V43.4127ZM119.211 39.6311L115.888 29.0476C115.735 28.5146 115.291 27.7659 114.086 27.7659H112.26L117.435 43.4H120.885L120.898 43.3492L126.263 27.7406L123.13 27.7279L119.211 39.6311ZM132.77 36.5093H138.744V34.1363H132.77V30.1517H139.086V27.7786H129.776V43.4127H139.264V41.0396H132.782V36.5093H132.77ZM255.738 36.5093H261.699V34.1363H255.738V30.1517H262.016V27.7786H252.732V43.4127H262.219V41.0396H255.738V36.5093ZM377.121 36.5093H383.107V34.1363H377.121V30.1517H383.424V27.7786H374.115V43.4127H383.615V41.0396H377.108V36.5093H377.121ZM153.571 38.8824L153.558 38.7808C153.254 37.4357 153 36.2175 151.516 35.6083L151.351 35.5195L151.516 35.4688C153.127 34.8977 153.875 33.7556 153.875 31.979C153.875 29.2126 152.137 27.7659 148.789 27.7659H143.957V43.4H146.95V36.8646H147.762C150.019 36.89 150.222 37.5499 150.755 39.961L151.516 43.4H154.56L154.547 43.2985L153.571 38.8824ZM147.762 34.6439H146.95V30.0248H148.789C150.133 30.0374 150.818 30.7988 150.844 32.2709C150.831 33.946 149.969 34.6185 147.762 34.6439ZM304.786 38.7808C304.494 37.4357 304.253 36.2175 302.782 35.6083L302.591 35.5195L302.782 35.4688C304.38 34.8977 305.141 33.7429 305.128 31.979C305.128 29.2126 303.378 27.7786 300.029 27.7659H295.197V43.4H298.177V36.8646H299.002C301.272 36.89 301.45 37.5499 302.008 39.961L302.744 43.4H305.8L305.762 43.2985L304.786 38.7808ZM299.015 34.6439H298.19V30.0248H300.042C301.386 30.0374 302.084 30.7988 302.097 32.2709C302.071 33.946 301.222 34.6185 299.015 34.6439ZM271.948 33.9967C270.413 33.1846 269.144 32.4612 269.157 31.446C269.157 29.974 270.514 29.974 271.199 29.974H271.237C272.582 29.974 273.698 30.2151 274.675 30.6085L275.157 30.7988L275.271 30.8369V27.9944L275.207 27.9817C275.207 27.9817 273.634 27.5629 271.326 27.5502C271.326 27.5502 271.301 27.5502 271.263 27.5502C267.99 27.5502 265.91 29.1365 265.897 31.6618C265.91 34.1109 268.092 35.3038 269.994 36.357C271.643 37.258 273.165 38.1083 273.152 39.5042C273.127 40.1006 272.823 41.3696 270.565 41.395C268.739 41.395 267.483 40.329 266.544 39.7707L266.316 39.6184L266.202 39.5422V42.7274L266.215 42.7401C266.24 42.7528 267.762 43.5776 270.603 43.6538V43.5523V43.6538C274.218 43.6538 276.412 41.9533 276.412 39.1108C276.412 36.3824 273.901 35.0627 271.948 33.9967ZM164.542 33.9967C163.007 33.1846 161.739 32.4612 161.739 31.446C161.752 29.974 163.096 29.974 163.794 29.974H163.845C165.176 29.974 166.292 30.2151 167.244 30.6085L167.751 30.7988L167.853 30.8369L167.865 27.9944L167.789 27.9817C167.789 27.9817 166.216 27.5629 163.921 27.5502C163.895 27.5248 163.883 27.5502 163.883 27.5502C160.559 27.5502 158.492 29.1365 158.492 31.6618C158.492 34.1109 160.686 35.3038 162.576 36.357C164.238 37.258 165.747 38.1083 165.747 39.5042C165.722 40.1006 165.405 41.3696 163.134 41.395C161.32 41.395 160.052 40.329 159.139 39.7707L158.885 39.6184L158.771 39.5422V42.7274L158.809 42.7401C158.809 42.7401 160.344 43.5776 163.172 43.6538V43.5523V43.6538C166.787 43.6538 168.981 41.9533 168.981 39.1108C169.007 36.3824 166.508 35.0627 164.542 33.9967ZM173.142 43.4254H176.16V27.7786H173.142V43.4254ZM185.534 27.7786H181.551V43.4127H185.534C189.072 43.4127 192.408 42.4229 192.408 35.5576C192.408 30.0121 190.455 27.7913 185.534 27.7786ZM185.534 41.0523H184.544V30.0374H185.534C188.616 30.0501 189.148 31.776 189.161 35.5068C189.136 40.3036 187.918 41.0396 185.534 41.0523ZM216.456 27.7786H212.474V43.4127H216.456C219.995 43.4127 223.344 42.4229 223.356 35.5576C223.344 30.0121 221.378 27.7913 216.456 27.7786ZM216.456 41.0523H215.467V30.0374H216.456C219.551 30.0501 220.071 31.776 220.071 35.5068C220.059 40.3036 218.828 41.0396 216.456 41.0523ZM80.4366 38.2859C80.4366 40.1767 79.2063 41.1285 77.4686 41.1412C75.7056 41.1285 74.5641 40.1767 74.5641 38.2859V25.1264H71.4946V38.5524C71.52 41.7376 73.6635 43.6538 77.2023 43.6538H77.8111C81.3879 43.6538 83.4807 41.7757 83.4934 38.5524V25.1264H80.4239V38.2859H80.4366Z" fill="white"/>
<path d="M27.8495 66.432V27.6768C3.67442 17.5122 0.0595703 0 0.0595703 0V38.5648C0.0595703 52.4857 27.8495 66.432 27.8495 66.432ZM34.5338 24.0983V62.6377C36.7027 61.2799 39.2141 59.6302 41.7382 57.7394L41.7255 20.9258C10.0163 17.9309 0.0595703 0 0.0595703 0C10.8661 22.0298 34.5338 24.0983 34.5338 24.0983ZM55.6395 5.90084V0C46.9385 2.63951 37.5779 4.09886 27.8495 4.11155C18.1211 4.09886 8.77326 2.63951 0.0595703 0C0.0595703 0 21.216 12.9692 55.6395 5.90084ZM48.4478 16.7381V51.9527C52.5447 47.8285 55.6395 43.1967 55.6395 38.5648V12.157C50.6167 12.6392 39.861 13.223 28.5471 11.1291C15.0897 8.62918 6.85803 5.29172 0.0595703 0C16.2059 17.1315 48.4478 16.7381 48.4478 16.7381Z" fill="white"/>
</svg>
