<svg width="87" height="86" viewBox="0 0 87 86" fill="none" xmlns="http://www.w3.org/2000/svg">
<path d="M82.9029 31.935C82.9029 32.3776 82.5979 32.7448 82.1787 32.8484C82.0453 32.9897 81.4354 33.8278 81.5879 37.2179C81.6546 38.687 81.5688 40.2408 80.4253 40.6175C80.2728 40.6646 80.1299 40.6928 79.987 40.6928C78.7958 40.6928 77.6523 39.1202 76.0038 36.6812C75.8513 36.4551 75.6989 36.2291 75.5464 36.0125C73.774 33.4417 70.353 33.7807 68.9617 34.035C68.6663 34.0915 68.4281 34.1574 68.2375 34.2233C68.4472 34.261 68.7045 34.2892 69.0284 34.3175C71.1153 34.4587 71.8872 35.3439 72.1731 36.0596C72.7257 37.4722 71.8777 39.365 69.6478 41.691C68.7997 42.5762 67.904 43.0188 66.9797 43.0282C65.3597 43.0377 64.1114 41.7852 62.7868 40.448C62.196 39.8547 61.5862 39.2332 60.9572 38.7529C61.205 39.5157 61.691 40.7022 62.52 42.3031C63.7207 44.6291 64.8928 46.3995 65.3883 46.8892C65.7885 47.2847 66.6461 47.1623 67.3989 47.0587C68.2184 46.9457 69.1428 46.8139 69.6669 47.5296C70.1719 48.2264 69.8384 49.1211 69.4096 49.978C68.6663 51.4471 67.4275 53.0197 66.2269 54.5453C64.7117 56.4664 63.1489 58.4628 63.0346 59.7058C62.9774 60.2897 62.9393 60.93 62.8917 61.5986C62.6916 64.6404 62.5295 66.552 61.6243 67.3148C61.4718 67.4372 61.1859 67.8516 60.8905 68.2942C59.9281 69.6879 58.3177 72.0233 54.9062 74.7919C53.7151 75.7619 52.562 76.2422 51.4662 76.2422C51.228 76.2422 50.9993 76.2233 50.7706 76.1762C48.5789 75.7431 47.3401 73.4359 46.4253 71.7596C46.1775 71.2982 45.9393 70.865 45.7392 70.5731C44.5862 68.9157 45.1865 66.5708 45.5772 65.017C45.682 64.6121 45.8154 64.0659 45.8154 63.887C45.7582 63.6516 45.3675 62.9453 45.0721 62.4274C44.1573 60.7888 43.1282 58.9336 43.4331 57.5399C43.6237 56.683 43.4045 54.9879 42.5374 54.1686C41.9847 53.6412 41.2128 53.5188 40.1741 53.7919C36.1909 54.8372 31.1881 52.1439 28.2055 50.543C27.8625 50.3547 27.548 50.1946 27.2812 50.0534C26.2902 49.5448 25.7184 48.3206 25.566 46.409C25.2801 42.7834 26.738 36.1444 30.1495 33.6394C32.77 31.709 36.191 31.1157 38.0015 30.9368C40.6697 30.6637 43.1568 30.9273 44.3384 31.6054C48.1596 33.809 48.8647 33.6771 50.0273 33.4699C50.8182 33.3287 51.7997 33.1498 53.5912 33.3758C55.1635 33.5735 56.307 33.3569 56.6405 32.8013C56.9264 32.3399 56.7358 31.4924 56.1641 30.7013C55.0682 29.1664 51.1708 29.0251 47.0447 28.8744L46.3586 28.8462C44.1383 28.7614 41.7274 29.0251 39.5929 29.2605C36.048 29.6466 33.904 29.882 33.0654 28.6861C32.7986 28.3094 32.589 27.6502 33.0845 26.6614C33.8563 25.1264 39.2498 21.5762 41.7083 20.5403C42.8137 20.0695 42.8423 19.5233 42.7947 18.2143C42.7756 17.6116 42.7565 16.9242 42.9185 16.2179C43.2139 14.9749 44.7958 14.0991 47.7498 13.5246C49.6842 13.148 51.9903 12.9785 53.0004 13.1291C53.048 13.1385 53.0671 13.1385 53.1338 13.0538C53.515 12.5735 53.6103 11.1421 53.1815 10.1628C52.2762 8.07217 57.3171 5.91567 59.1562 5.91567M3.22966 35.8148C4.3541 36.0031 8.52789 37.1614 8.75659 40.4856C8.80424 41.1919 8.8328 41.9453 8.85186 42.7457C8.93762 45.3448 9.04244 48.895 10.3098 49.5919C11.5486 50.2699 13.3401 51.3435 14.6837 52.8596C16.4561 54.856 16.9135 57.0784 15.9987 59.2915C14.3407 63.3219 15.3031 66.6932 15.3126 66.7309C15.4556 67.23 15.1697 67.748 14.6647 67.8892C14.5789 67.9175 12.4825 69.3489 12.3967 69.3489M23.384 10.3512C23.8699 10.1534 24.4227 10.3888 24.6228 10.8597C24.6704 10.9821 25.833 13.8637 24.6132 16.67C23.3268 19.6458 19.5247 20.8417 15.7416 21.8211C14.4552 22.1507 11.463 25.3619 9.75729 27.5278C9.56671 27.7633 9.29036 27.8857 9.00448 27.8857C8.80437 27.8857 8.59474 27.8198 8.42322 27.6879C8.01346 27.3677 7.93722 26.7839 8.26121 26.3695M43.5 1C32.1508 1 21.4686 5.36951 13.4451 13.2987C5.42152 21.2372 1 31.7843 1 43C1 54.2157 5.42152 64.7722 13.4451 72.7013C21.4686 80.6305 32.1508 85 43.5 85C54.8492 85 65.5314 80.6305 73.5549 72.7013C81.5785 64.7722 86 54.2157 86 43C86 31.7843 81.5785 21.2278 73.5549 13.2987C65.5314 5.36951 54.8587 1 43.5 1ZM65.0548 69.9798C64.4544 69.9798 63.9303 69.7256 63.5777 69.2735C63.2537 68.8498 62.9488 68.0682 63.3204 66.7215C63.6444 65.5538 64.321 63.9717 65.0452 62.6722C66.1125 60.77 66.9987 59.913 67.9231 59.913C68.3614 59.913 69.1428 60.1108 69.4763 61.4103C69.7908 62.6722 68.6473 66.6933 67.6944 68.2753C67.0368 69.33 66.0363 69.9798 65.0548 69.9798Z" stroke="white" stroke-width="1.5" stroke-miterlimit="10" stroke-linecap="round" stroke-linejoin="round"/>
</svg>
