<svg width="88" height="97" viewBox="0 0 88 97" fill="none" xmlns="http://www.w3.org/2000/svg">
<path d="M31.1733 2.71614L29.9311 1.46804C29.3099 0.843988 28.2997 0.843988 27.6786 1.46804L23.1735 5.99427C22.5524 6.61831 22.5524 7.63334 23.1735 8.25739L24.4158 9.50549M31.4727 82.3386C19.4018 77.3763 10.8482 65.4743 10.5638 51.9257C10.2944 39.0388 17.284 27.7307 27.701 21.8662M54.4993 72.7448C57.8744 71.0832 60.8378 68.6321 63.1128 65.5946H56.7444C55.8613 65.5946 55.1504 64.8803 55.1504 63.9931V57.5948C55.1504 56.7076 55.8613 55.9933 56.7444 55.9933H82.2256C83.1087 55.9933 83.8196 56.7076 83.8196 57.5948V63.9931C83.8196 64.8803 83.1087 65.5946 82.2256 65.5946H74.2033C70.5664 73.2862 64.1905 79.2109 56.5274 82.3386M33.5007 29.6405C24.6179 34.0238 18.8182 43.7981 20.3598 54.6926C21.4673 62.5496 26.5037 69.3539 33.4782 72.7749M53.3695 20.4903L65.2981 32.475C66.8546 34.0389 66.8546 36.5727 65.2981 38.1291L59.6705 43.7831C58.114 45.347 55.5921 45.347 54.043 43.7831L42.1144 31.7984M34.6308 24.2947L27.2297 16.8587C25.6731 15.2949 25.6731 12.7611 27.2297 11.2047L32.8572 5.5507C34.4138 3.98683 36.9357 3.98683 38.4848 5.5507L45.886 12.9866M2.49669 96H85.5033C86.3265 96 87 95.3233 87 94.4963V91.1054C87 90.2783 86.3265 89.6017 85.5033 89.6017H2.49669C1.67351 89.6017 1 90.2783 1 91.1054V94.4963C1 95.3233 1.67351 96 2.49669 96ZM53.5565 22.3924C53.5565 27.6951 49.278 31.9937 44.0001 31.9937C38.7223 31.9937 34.4438 27.6951 34.4438 22.3924C34.4438 17.0898 38.7223 12.7911 44.0001 12.7911C49.278 12.7911 53.5565 17.0898 53.5565 22.3924ZM53.5565 80.0003C53.5565 85.303 49.278 89.6017 44.0001 89.6017C38.7223 89.6017 34.4438 85.303 34.4438 80.0003C34.4438 74.6976 38.7223 70.399 44.0001 70.399C49.278 70.399 53.5565 74.6976 53.5565 80.0003Z" stroke="white" stroke-width="1.5" stroke-miterlimit="10" stroke-linecap="round" stroke-linejoin="round"/>
</svg>
