<svg width="344" height="51" viewBox="0 0 344 51" fill="none" xmlns="http://www.w3.org/2000/svg">
<path d="M207.717 0.98325H247.181V12.4714H221.172V19.969H244.729V30.6868H221.172V38.463H247.534V50.0249H207.717V0.98325Z" fill="#E30613"/>
<path d="M252.24 0.98325H291.704V12.4714H265.695V19.969H289.252V30.6868H265.695V38.463H292.056V50.0249H252.24V0.98325Z" fill="#E30613"/>
<path d="M310.358 0.98325V20.8785L327.249 0.98325H343.369L324.789 22.0011L344 50.0249H327.732L315.327 31.8094L310.349 37.2749V50.0249H296.747V0.98325H310.358Z" fill="#E30613"/>
<path d="M0 28.5154V0.98325H13.7423V28.2368C13.7423 35.3165 17.2435 38.6761 22.7863 38.6761C28.3947 38.6761 31.8959 35.5213 31.8959 28.5891V0.98325H45.6382V28.163C45.6382 43.9285 36.5942 50.9344 22.6469 50.9344C8.76522 50.9344 0 43.9285 0 28.5154Z" fill="#E30613"/>
<path d="M47.1797 25.6393V25.5C47.1797 11.2095 58.1178 0 72.9752 0C82.9294 0 89.5217 4.20357 93.7936 10.1607L83.5607 18.0762C80.7565 14.6428 77.5997 12.3321 72.8358 12.3321C65.9647 12.3321 61.127 18.2155 61.127 25.3607V25.5C61.127 32.8583 65.9647 38.6023 72.8358 38.6023C77.9523 38.6023 80.8959 36.2179 83.9133 32.6452L94.1462 39.9298C89.4479 46.3048 83.2819 51 72.4832 51C58.4704 51 47.1797 40.2821 47.1797 25.6393Z" fill="#E30613"/>
<path d="M91.9734 0.98325H107.118L118.269 32.0143L129.486 0.98325H144.343L124.435 50.369H111.816L91.9734 0.98325Z" fill="#E30613"/>
<path d="M192.22 0.983315L183.668 29.3512L174.206 0.844015H162.497L153.035 29.3512L145.745 5.17869L137.939 24.5495L146.516 50.3691H158.364L168.245 22.1404L178.059 50.3691H189.908L206.315 0.983315H192.22Z" fill="#E30613"/>
</svg>
